<?xml version="1.0" encoding="UTF-8" standalone="no"?>
<!-- Created with Inkscape (http://www.inkscape.org/) -->

<svg
   xmlns:dc="http://purl.org/dc/elements/1.1/"
   xmlns:cc="http://creativecommons.org/ns#"
   xmlns:rdf="http://www.w3.org/1999/02/22-rdf-syntax-ns#"
   xmlns:svg="http://www.w3.org/2000/svg"
   xmlns="http://www.w3.org/2000/svg"
   xmlns:sodipodi="http://sodipodi.sourceforge.net/DTD/sodipodi-0.dtd"
   xmlns:inkscape="http://www.inkscape.org/namespaces/inkscape"
   id="svg2"
   version="1.1"
   inkscape:version="0.91 r"
   xml:space="preserve"
   width="990"
   height="765"
   viewBox="0 0 990 765"
   sodipodi:docname="photosynthesis-concept-student.svg"><title
     id="title5028">Photosynthesis concept map</title><metadata
     id="metadata8"><rdf:RDF><cc:Work
         rdf:about=""><dc:format>image/svg+xml</dc:format><dc:type
           rdf:resource="http://purl.org/dc/dcmitype/StillImage" /><dc:title>Photosynthesis concept map</dc:title><cc:license
           rdf:resource="http://creativecommons.org/licenses/by-nc/3.0/" /><dc:creator><cc:Agent><dc:title>Jeremy Seto</dc:title></cc:Agent></dc:creator><dc:rights><cc:Agent><dc:title>CC-BY-NC-SA</dc:title></cc:Agent></dc:rights></cc:Work><cc:License
         rdf:about="http://creativecommons.org/licenses/by-nc/3.0/"><cc:permits
           rdf:resource="http://creativecommons.org/ns#Reproduction" /><cc:permits
           rdf:resource="http://creativecommons.org/ns#Distribution" /><cc:requires
           rdf:resource="http://creativecommons.org/ns#Notice" /><cc:requires
           rdf:resource="http://creativecommons.org/ns#Attribution" /><cc:prohibits
           rdf:resource="http://creativecommons.org/ns#CommercialUse" /><cc:permits
           rdf:resource="http://creativecommons.org/ns#DerivativeWorks" /></cc:License></rdf:RDF></metadata><defs
     id="defs6" /><sodipodi:namedview
     pagecolor="#ffffff"
     bordercolor="#666666"
     borderopacity="1"
     objecttolerance="10"
     gridtolerance="10"
     guidetolerance="10"
     inkscape:pageopacity="0"
     inkscape:pageshadow="2"
     inkscape:window-width="1920"
     inkscape:window-height="1028"
     id="namedview4"
     showgrid="false"
     inkscape:zoom="0.87256052"
     inkscape:cx="464.36235"
     inkscape:cy="466.10139"
     inkscape:window-x="0"
     inkscape:window-y="0"
     inkscape:window-maximized="1"
     inkscape:current-layer="g10" /><g
     id="g10"
     inkscape:groupmode="layer"
     inkscape:label="photosynthesis-concept-student"
     transform="matrix(1.25,0,0,-1.25,0,765)"><g
       id="g4791"
       inkscape:export-xdpi="150"
       inkscape:export-ydpi="150"><path
         d="m 707.258,374.508 68.867,0 c 3.824,0 6.906,-3.082 6.906,-6.91 l 0,-23.684 c 0,-3.828 -3.082,-6.91 -6.906,-6.91 l -68.867,0 c -3.828,0 -6.91,3.082 -6.91,6.91 l 0,23.684 c 0,3.828 3.082,6.91 6.91,6.91 z"
         style="fill:none;stroke:#000000;stroke-width:0.62879002;stroke-linecap:butt;stroke-linejoin:miter;stroke-miterlimit:4;stroke-dasharray:none;stroke-opacity:1"
         id="path16"
         inkscape:connector-curvature="0" /><path
         d="m 15.199,314.703 97.098,0 c 3.066,0 5.535,-2.469 5.535,-5.535 l 0,-18.977 c 0,-3.066 -2.469,-5.535 -5.535,-5.535 l -97.098,0 c -3.062,0 -5.531,2.469 -5.531,5.535 l 0,18.977 c 0,3.066 2.469,5.535 5.531,5.535 z"
         style="fill:#00c500;fill-opacity:0.55288499;fill-rule:nonzero;stroke:none"
         id="path18"
         inkscape:connector-curvature="0" /><path
         d="m 15.199,314.703 97.098,0 c 3.066,0 5.535,-2.469 5.535,-5.535 l 0,-18.977 c 0,-3.066 -2.469,-5.535 -5.535,-5.535 l -97.098,0 c -3.062,0 -5.531,2.469 -5.531,5.535 l 0,18.977 c 0,3.066 2.469,5.535 5.531,5.535 z"
         style="fill:none;stroke:#000000;stroke-width:0.643713;stroke-linecap:butt;stroke-linejoin:miter;stroke-miterlimit:4;stroke-dasharray:none;stroke-opacity:1"
         id="path20"
         inkscape:connector-curvature="0" /><path
         d="m 405.707,442.918 182.121,0 c 4.238,0 7.652,-3.414 7.652,-7.656 l 0,-26.25 c 0,-4.239 -3.414,-7.657 -7.652,-7.657 l -182.121,0 c -4.242,0 -7.656,3.418 -7.656,7.657 l 0,26.25 c 0,4.242 3.414,7.656 7.656,7.656 z"
         style="fill:none;stroke:#000000;stroke-width:1.02282202;stroke-linecap:butt;stroke-linejoin:miter;stroke-miterlimit:4;stroke-dasharray:none;stroke-opacity:1"
         id="path22"
         inkscape:connector-curvature="0" /><text
         y="-413.91254"
         x="402.77286"
         transform="scale(1,-1)"
         style="font-variant:normal;font-weight:bold;font-size:21.36784363px;font-family:'DejaVu Sans';-inkscape-font-specification:DejaVuSans-Bold;writing-mode:lr-tb;fill:#00ff00;fill-opacity:1;fill-rule:nonzero;stroke:none"
         id="text24"><tspan
           x="402.77286 418.41412 433.60666 448.28638 458.50018 473.1799 485.89377 499.86835 515.06085 525.27472 540.46722 554.95465 567.66852 575.04041"
           y="-413.91254"
           sodipodi:role="line"
           id="tspan26">Photosynthesis</tspan></text>
<path
         d="m 404.695,429.227 6.563,0 c 1.945,0 3.441,-0.434 4.484,-1.297 1.039,-0.868 1.563,-2.102 1.563,-3.703 0,-1.606 -0.524,-2.84 -1.563,-3.704 -1.043,-0.867 -2.539,-1.296 -4.484,-1.296 l -2.61,0 0,-5.313 -3.953,0 0,15.313 z m 3.953,-2.86 0,-4.281 2.188,0 c 0.758,0 1.348,0.187 1.766,0.562 0.414,0.375 0.625,0.899 0.625,1.579 0,0.687 -0.211,1.211 -0.625,1.578 -0.418,0.375 -1.008,0.562 -1.766,0.562 l -2.188,0 z m 23.086,-5.453 0,-7 -3.687,0 0,5.328 c 0,1.008 -0.027,1.703 -0.078,2.078 -0.043,0.375 -0.117,0.649 -0.219,0.828 -0.148,0.239 -0.344,0.426 -0.594,0.563 -0.242,0.133 -0.523,0.203 -0.844,0.203 -0.761,0 -1.359,-0.297 -1.796,-0.891 -0.438,-0.593 -0.657,-1.414 -0.657,-2.453 l 0,-5.656 -3.671,0 0,15.953 3.671,0 0,-6.156 c 0.551,0.676 1.133,1.172 1.75,1.484 0.625,0.321 1.317,0.485 2.079,0.485 1.32,0 2.328,-0.407 3.015,-1.219 0.688,-0.813 1.031,-1.996 1.031,-3.547 z m 9.157,2.141 c -0.813,0 -1.434,-0.293 -1.86,-0.875 -0.429,-0.586 -0.64,-1.43 -0.64,-2.532 0,-1.105 0.211,-1.949 0.64,-2.531 0.426,-0.586 1.047,-0.875 1.86,-0.875 0.789,0 1.398,0.289 1.828,0.875 0.426,0.582 0.64,1.426 0.64,2.531 0,1.102 -0.214,1.946 -0.64,2.532 -0.43,0.582 -1.039,0.875 -1.828,0.875 z m 0,2.625 c 1.968,0 3.507,-0.539 4.625,-1.61 1.113,-1.062 1.672,-2.539 1.672,-4.422 0,-1.886 -0.559,-3.367 -1.672,-4.437 -1.118,-1.063 -2.657,-1.594 -4.625,-1.594 -1.993,0 -3.543,0.531 -4.657,1.594 -1.117,1.07 -1.672,2.551 -1.672,4.437 0,1.883 0.555,3.36 1.672,4.422 1.114,1.071 2.664,1.61 4.657,1.61 z m 13.222,2.984 0,-3.266 3.797,0 0,-2.625 -3.797,0 0,-4.875 c 0,-0.531 0.102,-0.89 0.313,-1.078 0.219,-0.187 0.644,-0.281 1.281,-0.281 l 1.875,0 0,-2.625 -3.141,0 c -1.449,0 -2.476,0.301 -3.078,0.906 -0.605,0.602 -0.906,1.629 -0.906,3.078 l 0,4.875 -1.828,0 0,2.625 1.828,0 0,3.266 3.656,0 z m 11.692,-5.609 c -0.813,0 -1.434,-0.293 -1.86,-0.875 -0.429,-0.586 -0.64,-1.43 -0.64,-2.532 0,-1.105 0.211,-1.949 0.64,-2.531 0.426,-0.586 1.047,-0.875 1.86,-0.875 0.789,0 1.398,0.289 1.828,0.875 0.426,0.582 0.64,1.426 0.64,2.531 0,1.102 -0.214,1.946 -0.64,2.532 -0.43,0.582 -1.039,0.875 -1.828,0.875 z m 0,2.625 c 1.968,0 3.507,-0.539 4.625,-1.61 1.113,-1.062 1.672,-2.539 1.672,-4.422 0,-1.886 -0.559,-3.367 -1.672,-4.437 -1.118,-1.063 -2.657,-1.594 -4.625,-1.594 -1.993,0 -3.543,0.531 -4.657,1.594 -1.117,1.07 -1.671,2.551 -1.671,4.437 0,1.883 0.554,3.36 1.671,4.422 1.114,1.071 2.664,1.61 4.657,1.61 z m 18.191,-0.641 0,-2.781 c -0.781,0.32 -1.543,0.566 -2.281,0.734 -0.731,0.164 -1.418,0.25 -2.063,0.25 -0.699,0 -1.218,-0.09 -1.562,-0.265 -0.336,-0.18 -0.5,-0.45 -0.5,-0.813 0,-0.293 0.125,-0.516 0.375,-0.672 0.258,-0.156 0.723,-0.273 1.39,-0.344 l 0.641,-0.093 c 1.883,-0.243 3.149,-0.637 3.797,-1.188 0.645,-0.543 0.969,-1.398 0.969,-2.562 0,-1.231 -0.453,-2.153 -1.36,-2.766 -0.898,-0.617 -2.242,-0.922 -4.031,-0.922 -0.762,0 -1.547,0.063 -2.359,0.188 -0.805,0.113 -1.633,0.289 -2.485,0.531 l 0,2.781 c 0.727,-0.355 1.477,-0.621 2.25,-0.797 0.77,-0.179 1.551,-0.265 2.344,-0.265 0.719,0 1.254,0.097 1.609,0.297 0.364,0.195 0.547,0.492 0.547,0.89 0,0.32 -0.125,0.563 -0.375,0.719 -0.25,0.164 -0.746,0.297 -1.484,0.391 l -0.656,0.078 c -1.625,0.195 -2.766,0.57 -3.422,1.125 -0.656,0.562 -0.985,1.406 -0.985,2.531 0,1.219 0.415,2.117 1.25,2.703 0.833,0.594 2.11,0.891 3.829,0.891 0.675,0 1.382,-0.055 2.125,-0.157 0.75,-0.105 1.562,-0.265 2.437,-0.484 z m 2.246,0.359 3.672,0 3.094,-7.796 2.625,7.796 3.672,0 -4.828,-12.578 c -0.493,-1.269 -1.059,-2.16 -1.704,-2.672 -0.648,-0.507 -1.5,-0.765 -2.562,-0.765 l -2.109,0 0,2.406 1.14,0 c 0.625,0 1.078,0.102 1.36,0.297 0.281,0.199 0.5,0.555 0.656,1.062 l 0.109,0.329 -5.125,11.921 z m 27,-4.484 0,-7 -3.687,0 0,5.359 c 0,0.989 -0.028,1.672 -0.078,2.047 -0.043,0.375 -0.118,0.649 -0.219,0.828 -0.149,0.239 -0.344,0.426 -0.594,0.563 -0.242,0.133 -0.523,0.203 -0.844,0.203 -0.761,0 -1.359,-0.297 -1.797,-0.891 -0.437,-0.593 -0.656,-1.414 -0.656,-2.453 l 0,-5.656 -3.672,0 0,11.484 3.672,0 0,-1.687 c 0.551,0.676 1.133,1.172 1.75,1.484 0.625,0.321 1.317,0.485 2.078,0.485 1.321,0 2.328,-0.407 3.016,-1.219 0.687,-0.813 1.031,-1.996 1.031,-3.547 z m 7.688,7.75 0,-3.266 3.797,0 0,-2.625 -3.797,0 0,-4.875 c 0,-0.531 0.101,-0.89 0.312,-1.078 0.219,-0.187 0.645,-0.281 1.281,-0.281 l 1.875,0 0,-2.625 -3.14,0 c -1.449,0 -2.477,0.301 -3.078,0.906 -0.606,0.602 -0.907,1.629 -0.907,3.078 l 0,4.875 -1.828,0 0,2.625 1.828,0 0,3.266 3.657,0 z m 17.769,-7.75 0,-7 -3.687,0 0,5.328 c 0,1.008 -0.028,1.703 -0.078,2.078 -0.043,0.375 -0.118,0.649 -0.219,0.828 -0.149,0.239 -0.344,0.426 -0.594,0.563 -0.242,0.133 -0.523,0.203 -0.844,0.203 -0.761,0 -1.359,-0.297 -1.797,-0.891 -0.437,-0.593 -0.656,-1.414 -0.656,-2.453 l 0,-5.656 -3.672,0 0,15.953 3.672,0 0,-6.156 c 0.551,0.676 1.133,1.172 1.75,1.484 0.625,0.321 1.317,0.485 2.078,0.485 1.321,0 2.328,-0.407 3.016,-1.219 0.687,-0.813 1.031,-1.996 1.031,-3.547 z m 15.156,-1.234 0,-1.032 -8.593,0 c 0.093,-0.867 0.406,-1.515 0.937,-1.953 0.531,-0.429 1.274,-0.64 2.235,-0.64 0.769,0 1.562,0.113 2.375,0.343 0.812,0.227 1.644,0.579 2.5,1.047 l 0,-2.828 c -0.875,-0.336 -1.747,-0.586 -2.61,-0.75 -0.867,-0.164 -1.734,-0.25 -2.609,-0.25 -2.074,0 -3.688,0.524 -4.844,1.578 -1.148,1.063 -1.719,2.547 -1.719,4.453 0,1.875 0.563,3.348 1.688,4.422 1.133,1.071 2.691,1.61 4.672,1.61 1.812,0 3.258,-0.547 4.343,-1.641 1.082,-1.086 1.625,-2.539 1.625,-4.359 z m -3.781,1.234 c 0,0.695 -0.203,1.258 -0.609,1.688 -0.406,0.425 -0.938,0.64 -1.594,0.64 -0.711,0 -1.289,-0.203 -1.734,-0.609 -0.449,-0.399 -0.727,-0.969 -0.828,-1.719 l 4.765,0 z m 15.762,4.125 0,-2.781 c -0.781,0.32 -1.543,0.566 -2.281,0.734 -0.731,0.164 -1.418,0.25 -2.063,0.25 -0.699,0 -1.219,-0.09 -1.562,-0.265 -0.336,-0.18 -0.5,-0.45 -0.5,-0.813 0,-0.293 0.125,-0.516 0.375,-0.672 0.257,-0.156 0.722,-0.273 1.39,-0.344 l 0.641,-0.093 c 1.883,-0.243 3.148,-0.637 3.797,-1.188 0.644,-0.543 0.969,-1.398 0.969,-2.562 0,-1.231 -0.454,-2.153 -1.36,-2.766 -0.898,-0.617 -2.242,-0.922 -4.031,-0.922 -0.762,0 -1.547,0.063 -2.359,0.188 -0.805,0.113 -1.633,0.289 -2.485,0.531 l 0,2.781 c 0.727,-0.355 1.477,-0.621 2.25,-0.797 0.77,-0.179 1.551,-0.265 2.344,-0.265 0.719,0 1.254,0.097 1.609,0.297 0.364,0.195 0.547,0.492 0.547,0.89 0,0.32 -0.125,0.563 -0.375,0.719 -0.25,0.164 -0.746,0.297 -1.484,0.391 l -0.656,0.078 c -1.625,0.195 -2.766,0.57 -3.422,1.125 -0.657,0.562 -0.985,1.406 -0.985,2.531 0,1.219 0.414,2.117 1.25,2.703 0.832,0.594 2.11,0.891 3.828,0.891 0.676,0 1.383,-0.055 2.125,-0.157 0.75,-0.105 1.563,-0.265 2.438,-0.484 z m 3.762,0.359 3.672,0 0,-11.484 -3.672,0 0,11.484 z m 0,4.469 3.672,0 0,-2.984 -3.672,0 0,2.984 z m 16.312,-4.828 0,-2.781 c -0.781,0.32 -1.543,0.566 -2.281,0.734 -0.731,0.164 -1.418,0.25 -2.063,0.25 -0.699,0 -1.218,-0.09 -1.562,-0.265 -0.336,-0.18 -0.5,-0.45 -0.5,-0.813 0,-0.293 0.125,-0.516 0.375,-0.672 0.258,-0.156 0.723,-0.273 1.391,-0.344 l 0.64,-0.093 c 1.883,-0.243 3.149,-0.637 3.797,-1.188 0.645,-0.543 0.969,-1.398 0.969,-2.562 0,-1.231 -0.453,-2.153 -1.36,-2.766 -0.898,-0.617 -2.242,-0.922 -4.031,-0.922 -0.762,0 -1.547,0.063 -2.359,0.188 -0.805,0.113 -1.633,0.289 -2.485,0.531 l 0,2.781 c 0.727,-0.355 1.477,-0.621 2.25,-0.797 0.77,-0.179 1.551,-0.265 2.344,-0.265 0.719,0 1.254,0.097 1.61,0.297 0.363,0.195 0.546,0.492 0.546,0.89 0,0.32 -0.125,0.563 -0.375,0.719 -0.25,0.164 -0.746,0.297 -1.484,0.391 l -0.656,0.078 c -1.625,0.195 -2.766,0.57 -3.422,1.125 -0.656,0.562 -0.984,1.406 -0.984,2.531 0,1.219 0.414,2.117 1.25,2.703 0.832,0.594 2.109,0.891 3.828,0.891 0.675,0 1.382,-0.055 2.125,-0.157 0.75,-0.105 1.562,-0.265 2.437,-0.484 z"
         style="fill:none;stroke:#000000;stroke-width:0.66774499;stroke-linecap:butt;stroke-linejoin:miter;stroke-miterlimit:4;stroke-dasharray:none;stroke-opacity:1"
         id="path28"
         inkscape:connector-curvature="0" /><path
         d="m 445.523,512.152 103.551,0 c 3.313,0 5.985,-2.672 5.985,-5.984 l 0,-20.523 c 0,-3.317 -2.672,-5.985 -5.985,-5.985 l -103.551,0 c -3.316,0 -5.984,2.668 -5.984,5.985 l 0,20.523 c 0,3.312 2.668,5.984 5.984,5.984 z"
         style="fill:none;stroke:#000000;stroke-width:0.69177502;stroke-linecap:butt;stroke-linejoin:miter;stroke-miterlimit:4;stroke-dasharray:none;stroke-opacity:1"
         id="path30"
         inkscape:connector-curvature="0" /><text
         y="-490.03143"
         x="442.86096"
         transform="scale(1,-1)"
         style="font-variant:normal;font-weight:bold;font-size:14.95749092px;font-family:'DejaVu Sans';-inkscape-font-specification:DejaVuSans-Bold;writing-mode:lr-tb;fill:#000000;fill-opacity:1;fill-rule:nonzero;stroke:none"
         id="text32"><tspan
           x="442.86096 450.33969 457.81845 465.29721 472.77594 480.2547"
           y="-490.03143"
           sodipodi:role="line"
           id="tspan34">______</tspan></text>
<path
         d="m 425.336,587.363 138.441,0 c 3.383,0 6.11,-2.726 6.11,-6.109 l 0,-20.949 c 0,-3.387 -2.727,-6.11 -6.11,-6.11 l -138.441,0 c -3.383,0 -6.109,2.723 -6.109,6.11 l 0,20.949 c 0,3.383 2.726,6.109 6.109,6.109 z"
         style="fill:none;stroke:#000000;stroke-width:0.79820502;stroke-linecap:butt;stroke-linejoin:miter;stroke-miterlimit:4;stroke-dasharray:none;stroke-opacity:1"
         id="path36"
         inkscape:connector-curvature="0" /><text
         y="-564.8017"
         x="424.84558"
         transform="scale(1,-1)"
         style="font-variant:normal;font-weight:bold;font-size:14.95749092px;font-family:'DejaVu Sans';-inkscape-font-specification:DejaVuSans-Bold;writing-mode:lr-tb;fill:#000000;fill-opacity:1;fill-rule:nonzero;stroke:none"
         id="text38"><tspan
           x="424.84558 432.32431 439.80307 447.28183 454.76056 462.23932 469.71805 477.19681 484.67554 492.1543"
           y="-564.8017"
           sodipodi:role="line"
           id="tspan40">__________</tspan></text>
<g
         id="g42"
         transform="matrix(0,1,1,0,0,612)"><path
           d="m -95.414,496.125 29.379,0"
           style="fill:none;stroke:#000000;stroke-width:0.66774499;stroke-linecap:butt;stroke-linejoin:miter;stroke-miterlimit:10;stroke-dasharray:none;stroke-opacity:1"
           id="path44"
           inkscape:connector-curvature="0" /></g><path
         d="m 496.457,545.965 2.672,-1.336 -3.004,5.344 -3.008,-5.344 2.672,1.336 0.668,0 z"
         style="fill:#000000;fill-opacity:1;fill-rule:nonzero;stroke:none"
         id="path46"
         inkscape:connector-curvature="0" /><g
         id="g48"
         transform="matrix(0,0.674807,1,0,0,612)"><path
           d="m -241.064,496.125 29.377,0"
           style="fill:none;stroke:#000000;stroke-width:0.66774499;stroke-linecap:butt;stroke-linejoin:miter;stroke-miterlimit:10;stroke-dasharray:none;stroke-opacity:1"
           id="path50"
           inkscape:connector-curvature="0" /></g><path
         d="m 496.457,469.152 2.672,-0.898 -3.004,3.605 -3.008,-3.605 2.672,0.898 0.668,0 z"
         style="fill:#000000;fill-opacity:1;fill-rule:nonzero;stroke:none"
         id="path52"
         inkscape:connector-curvature="0" /><text
         y="-459.48355"
         x="500.04022"
         transform="scale(1,-1)"
         style="font-variant:normal;font-weight:normal;font-size:10.68392181px;font-family:'DejaVu Sans';-inkscape-font-specification:DejaVuSans;writing-mode:lr-tb;fill:#000000;fill-opacity:1;fill-rule:nonzero;stroke:none"
         id="text54"><tspan
           x="500.04022 506.80313 512.35876 518.92938"
           y="-459.48355"
           sodipodi:role="line"
           id="tspan56">uses</tspan></text>
<text
         y="-490.03143"
         x="494.14398"
         transform="scale(1,-1)"
         style="font-variant:normal;font-weight:bold;font-size:14.95749092px;font-family:'DejaVu Sans';-inkscape-font-specification:DejaVuSans-Bold;writing-mode:lr-tb;fill:#000000;fill-opacity:1;fill-rule:nonzero;stroke:none"
         id="text58"><tspan
           x="494.14398 504.35995 514.99475 525.13593 532.50995 543.24945"
           y="-490.03143"
           sodipodi:role="line"
           id="tspan60">Energy</tspan><tspan
           x="504.3266 514.54254 525.17731 535.31854 542.69257 553.43201"
           y="-565.26184"
           sodipodi:role="line"
           id="tspan62">Energy</tspan></text>
<text
         y="-530.37018"
         x="500.82349"
         transform="scale(1,-1)"
         style="font-variant:normal;font-weight:normal;font-size:10.68392181px;font-family:'DejaVu Sans';-inkscape-font-specification:DejaVuSans;writing-mode:lr-tb;fill:#000000;fill-opacity:1;fill-rule:nonzero;stroke:none"
         id="text64"><tspan
           x="500.82349 506.68896 513.21686 519.97974 526.29395 532.86456 537.25568 541.47583 547.03143 550.41827 554.60632"
           y="-530.37018"
           sodipodi:role="line"
           id="tspan66">converts to</tspan></text>
<g
         id="g68"
         transform="matrix(-1,-0.972938,0.972938,-1,0,612)"><path
           d="m -134.57,345.089 21.058,0"
           style="fill:none;stroke:#000000;stroke-width:0.47859901;stroke-linecap:butt;stroke-linejoin:miter;stroke-miterlimit:10;stroke-dasharray:none;stroke-opacity:1"
           id="path70"
           inkscape:connector-curvature="0" /></g><path
         d="m 449.492,377.113 2.82,-0.984 -5.921,-1.57 1.73,5.879 0.906,-2.848 0.465,-0.477 z"
         style="fill:#000000;fill-opacity:1;fill-rule:nonzero;stroke:none"
         id="path72"
         inkscape:connector-curvature="0" /><g
         id="g74"
         transform="matrix(1,-0.972938,-0.972938,-1,0,612)"><path
           d="m 373.771,-150.601 21.059,-0.001"
           style="fill:none;stroke:#000000;stroke-width:0.47859901;stroke-linecap:butt;stroke-linejoin:miter;stroke-miterlimit:10;stroke-dasharray:none;stroke-opacity:1"
           id="path76"
           inkscape:connector-curvature="0" /></g><path
         d="m 541.125,378.219 -2.82,-0.985 5.922,-1.57 -1.731,5.879 -0.906,-2.844 -0.465,-0.48 z"
         style="fill:#000000;fill-opacity:1;fill-rule:nonzero;stroke:none"
         id="path78"
         inkscape:connector-curvature="0" /><path
         d="m 474.199,398.766 45.414,0 c 1.516,0 2.739,-1.219 2.739,-2.735 l 0,-9.383 c 0,-1.519 -1.223,-2.738 -2.739,-2.738 l -45.414,0 c -1.515,0 -2.734,1.219 -2.734,2.738 l 0,9.383 c 0,1.516 1.219,2.735 2.734,2.735 z"
         style="fill:#ffffff;fill-opacity:0.75480801;fill-rule:nonzero;stroke:none"
         id="path80"
         inkscape:connector-curvature="0" /><g
         id="g82"
         transform="matrix(1,0,0,-1,0,612)"><path
           d="m 474.199,213.234 45.414,0 c 1.516,0 2.739,1.219 2.739,2.735 l 0,9.383 c 0,1.519 -1.223,2.738 -2.739,2.738 l -45.414,0 c -1.515,0 -2.734,-1.219 -2.734,-2.738 l 0,-9.383 c 0,-1.516 1.219,-2.735 2.734,-2.735 z"
           style="fill:none;stroke:#000000;stroke-width:0.0534196;stroke-linecap:butt;stroke-linejoin:miter;stroke-miterlimit:4;stroke-dasharray:0.213678, 0.0534196;stroke-dashoffset:0;stroke-opacity:0.77403804"
           id="path84"
           inkscape:connector-curvature="0" /></g><text
         y="-388.98862"
         x="476.5419"
         transform="scale(1,-1)"
         style="font-variant:normal;font-weight:normal;font-size:9.61553001px;font-family:'DejaVu Sans';-inkscape-font-specification:DejaVuSans;writing-mode:lr-tb;fill:#000000;fill-opacity:1;fill-rule:nonzero;stroke:none"
         id="text86"><tspan
           x="476.5419 479.20538 485.29202 490.57095 493.23444 499.32108 505.41733 511.33087"
           y="-388.98862"
           sodipodi:role="line"
           id="tspan88">includes</tspan></text>
<g
         id="g90"
         transform="matrix(1,0,0,-1,0,612)"><path
           d="m 477.48,217.543 0.907,0 0,5.469 -0.907,0 0,-5.469 z m 0,-2.125 0.907,0 0,1.141 -0.907,0 0,-1.141 z m 7.211,4.297 0,3.297 -0.89,0 0,-3.266 c 0,-0.519 -0.106,-0.906 -0.313,-1.156 -0.199,-0.258 -0.5,-0.391 -0.906,-0.391 -0.48,0 -0.859,0.156 -1.141,0.469 -0.281,0.305 -0.421,0.719 -0.421,1.25 l 0,3.094 -0.907,0 0,-5.469 0.907,0 0,0.844 c 0.218,-0.321 0.472,-0.563 0.765,-0.719 0.289,-0.164 0.625,-0.25 1,-0.25 0.625,0 1.098,0.195 1.422,0.578 0.32,0.387 0.484,0.961 0.484,1.719 z m 5.497,-1.969 0,0.844 c -0.25,-0.133 -0.508,-0.238 -0.766,-0.313 -0.25,-0.07 -0.508,-0.109 -0.766,-0.109 -0.586,0 -1.039,0.187 -1.359,0.562 -0.324,0.368 -0.485,0.883 -0.485,1.547 0,0.668 0.161,1.188 0.485,1.563 0.32,0.367 0.773,0.547 1.359,0.547 0.258,0 0.516,-0.032 0.766,-0.094 0.258,-0.07 0.516,-0.18 0.766,-0.328 l 0,0.844 c -0.25,0.117 -0.512,0.199 -0.782,0.25 -0.261,0.062 -0.543,0.093 -0.844,0.093 -0.835,0 -1.496,-0.254 -1.984,-0.765 -0.48,-0.52 -0.719,-1.223 -0.719,-2.11 0,-0.882 0.243,-1.582 0.735,-2.093 0.488,-0.508 1.16,-0.766 2.015,-0.766 0.282,0 0.551,0.027 0.813,0.078 0.258,0.055 0.516,0.137 0.766,0.25 z m 1.359,-2.328 0.906,0 0,7.594 -0.906,0 0,-7.594 z m 2.57,5.437 0,-3.312 0.906,0 0,3.281 c 0,0.512 0.098,0.899 0.297,1.156 0.207,0.262 0.508,0.391 0.907,0.391 0.488,0 0.875,-0.148 1.156,-0.453 0.281,-0.313 0.422,-0.738 0.422,-1.281 l 0,-3.094 0.906,0 0,5.469 -0.906,0 0,-0.844 c -0.219,0.336 -0.477,0.586 -0.766,0.75 -0.281,0.156 -0.617,0.234 -1,0.234 -0.625,0 -1.105,-0.191 -1.437,-0.578 -0.325,-0.394 -0.485,-0.969 -0.485,-1.719 z m 9.809,-2.484 0,-2.953 0.89,0 0,7.594 -0.89,0 0,-0.828 c -0.188,0.336 -0.43,0.578 -0.719,0.734 -0.293,0.156 -0.641,0.234 -1.047,0.234 -0.656,0 -1.195,-0.257 -1.609,-0.781 -0.418,-0.531 -0.625,-1.226 -0.625,-2.094 0,-0.851 0.207,-1.539 0.625,-2.062 0.414,-0.531 0.953,-0.797 1.609,-0.797 0.406,0 0.754,0.078 1.047,0.234 0.289,0.157 0.531,0.399 0.719,0.719 z m -3.063,1.906 c 0,0.668 0.133,1.188 0.407,1.563 0.269,0.375 0.644,0.562 1.125,0.562 0.468,0 0.835,-0.187 1.109,-0.562 0.281,-0.375 0.422,-0.895 0.422,-1.563 0,-0.656 -0.141,-1.172 -0.422,-1.547 -0.274,-0.375 -0.641,-0.562 -1.109,-0.562 -0.481,0 -0.856,0.187 -1.125,0.562 -0.274,0.375 -0.407,0.891 -0.407,1.547 z m 10.242,-0.218 0,0.437 -4.14,0 c 0.039,0.617 0.226,1.086 0.562,1.406 0.332,0.325 0.797,0.485 1.391,0.485 0.344,0 0.676,-0.039 1,-0.125 0.332,-0.082 0.656,-0.207 0.969,-0.375 l 0,0.843 c -0.325,0.137 -0.657,0.243 -1,0.313 -0.336,0.07 -0.672,0.109 -1.016,0.109 -0.875,0 -1.57,-0.25 -2.078,-0.75 -0.512,-0.507 -0.766,-1.203 -0.766,-2.078 0,-0.894 0.239,-1.601 0.719,-2.125 0.488,-0.519 1.145,-0.781 1.969,-0.781 0.738,0 1.32,0.234 1.75,0.703 0.426,0.469 0.64,1.117 0.64,1.938 z m -0.906,-0.266 c 0,-0.488 -0.137,-0.879 -0.406,-1.172 -0.273,-0.301 -0.625,-0.453 -1.063,-0.453 -0.511,0 -0.918,0.148 -1.218,0.437 -0.293,0.282 -0.465,0.68 -0.516,1.188 l 3.203,0 z m 5.621,-2.094 0,0.86 c -0.25,-0.133 -0.511,-0.235 -0.781,-0.297 -0.273,-0.063 -0.559,-0.094 -0.859,-0.094 -0.438,0 -0.774,0.07 -1,0.203 -0.219,0.137 -0.328,0.34 -0.328,0.609 0,0.211 0.078,0.375 0.234,0.5 0.156,0.118 0.476,0.227 0.969,0.329 l 0.297,0.078 c 0.644,0.136 1.097,0.328 1.359,0.578 0.269,0.25 0.406,0.594 0.406,1.031 0,0.512 -0.203,0.918 -0.609,1.219 -0.399,0.293 -0.946,0.437 -1.641,0.437 -0.305,0 -0.617,-0.031 -0.937,-0.093 -0.313,-0.051 -0.641,-0.133 -0.985,-0.25 l 0,-0.922 c 0.332,0.168 0.657,0.297 0.969,0.39 0.32,0.086 0.645,0.125 0.969,0.125 0.414,0 0.738,-0.07 0.969,-0.218 0.226,-0.145 0.343,-0.348 0.343,-0.61 0,-0.25 -0.086,-0.437 -0.25,-0.562 -0.156,-0.133 -0.515,-0.258 -1.078,-0.375 l -0.312,-0.078 c -0.555,-0.114 -0.953,-0.289 -1.203,-0.532 -0.25,-0.25 -0.375,-0.582 -0.375,-1 0,-0.519 0.179,-0.914 0.546,-1.187 0.364,-0.281 0.883,-0.422 1.563,-0.422 0.32,0 0.629,0.027 0.922,0.078 0.301,0.043 0.57,0.109 0.812,0.203 z"
           style="fill:none;stroke:#000000;stroke-width:0.0534196;stroke-linecap:butt;stroke-linejoin:miter;stroke-miterlimit:4;stroke-dasharray:0.213678, 0.0534196;stroke-dashoffset:0;stroke-opacity:0.77403804"
           id="path92"
           inkscape:connector-curvature="0" /></g><path
         d="m 310.051,373.527 133.152,0 c 4.805,0 8.676,-3.871 8.676,-8.679 l 0,-29.758 c 0,-4.809 -3.871,-8.68 -8.676,-8.68 l -133.152,0 c -4.805,0 -8.676,3.871 -8.676,8.68 l 0,29.758 c 0,4.808 3.871,8.679 8.676,8.679 z"
         style="fill:none;stroke:#000000;stroke-width:0.950849;stroke-linecap:butt;stroke-linejoin:miter;stroke-miterlimit:4;stroke-dasharray:none;stroke-opacity:1"
         id="path94"
         inkscape:connector-curvature="0" /><text
         y="-356.23514"
         x="312.56531"
         transform="scale(1,-1)"
         style="font-variant:normal;font-weight:bold;font-size:14.95749092px;font-family:'DejaVu Sans';-inkscape-font-specification:DejaVuSans-Bold;writing-mode:lr-tb;fill:#000000;fill-opacity:1;fill-rule:nonzero;stroke:none"
         id="text96"><tspan
           x="312.56531 320.04407 327.5228 335.00156 342.48029 349.95905 357.43777 364.91653 372.39526 379.87402 387.35275 394.83151 402.31027 409.789 417.26776 424.74649 432.22525"
           y="-356.23514"
           sodipodi:role="line"
           id="tspan98">_________________</tspan><tspan
           x="334.44376 345.96103 356.1022 366.18353 375.03839 382.18805 387.30353 397.62421 408.25897"
           y="-334.30338"
           sodipodi:role="line"
           id="tspan100">Reactions</tspan></text>
<path
         d="m 555.727,375.75 82.347,0 c 4.828,0 8.711,-3.883 8.711,-8.711 l 0,-29.867 c 0,-4.824 -3.883,-8.711 -8.711,-8.711 l -82.347,0 c -4.825,0 -8.711,3.887 -8.711,8.711 l 0,29.867 c 0,4.828 3.886,8.711 8.711,8.711 z"
         style="fill:none;stroke:#000000;stroke-width:0.77560002;stroke-linecap:butt;stroke-linejoin:miter;stroke-miterlimit:4;stroke-dasharray:none;stroke-opacity:1"
         id="path102"
         inkscape:connector-curvature="0" /><text
         y="-358.37195"
         x="575.29358"
         transform="scale(1,-1)"
         style="font-variant:normal;font-weight:bold;font-size:14.95749092px;font-family:'DejaVu Sans';-inkscape-font-specification:DejaVuSans-Bold;writing-mode:lr-tb;fill:#000000;fill-opacity:1;fill-rule:nonzero;stroke:none"
         id="text104"><tspan
           x="575.29358 582.77234 590.2511 597.7298 605.20856 612.68732 620.16608"
           y="-358.37195"
           sodipodi:role="line"
           id="tspan106">_______</tspan><tspan
           x="554.32892 565.84619 575.98737 586.06873 594.92352 602.07324 607.18872 617.50934 628.14417"
           y="-336.44016"
           sodipodi:role="line"
           id="tspan108">Reactions</tspan></text>
<g
         id="g110"
         transform="matrix(-1,-0.972938,0.972938,-1,0,612)"><path
           d="m -46.137,336.127 21.058,0"
           style="fill:none;stroke:#000000;stroke-width:0.47859901;stroke-linecap:butt;stroke-linejoin:miter;stroke-miterlimit:10;stroke-dasharray:none;stroke-opacity:1"
           id="path112"
           inkscape:connector-curvature="0" /></g><path
         d="m 352.34,300.035 2.82,-0.984 -5.922,-1.571 1.731,5.879 0.906,-2.843 0.465,-0.481 z"
         style="fill:#000000;fill-opacity:1;fill-rule:nonzero;stroke:none"
         id="path114"
         inkscape:connector-curvature="0" /><g
         id="g116"
         transform="matrix(1,-0.972938,-0.972938,-1,0,612)"><path
           d="m 337.617,-37.242 21.059,0"
           style="fill:none;stroke:#000000;stroke-width:0.47859901;stroke-linecap:butt;stroke-linejoin:miter;stroke-miterlimit:10;stroke-dasharray:none;stroke-opacity:1"
           id="path118"
           inkscape:connector-curvature="0" /></g><path
         d="m 394.68,300.035 -2.821,-0.984 5.922,-1.571 -1.73,5.879 -0.906,-2.843 -0.465,-0.481 z"
         style="fill:#000000;fill-opacity:1;fill-rule:nonzero;stroke:none"
         id="path120"
         inkscape:connector-curvature="0" /><g
         id="g122"
         transform="matrix(-1,0,0,-1,0,612)"><path
           d="m -298.293,258.898 101.66,0"
           style="fill:none;stroke:#000000;stroke-width:0.66774499;stroke-linecap:butt;stroke-linejoin:miter;stroke-miterlimit:10;stroke-dasharray:none;stroke-opacity:1"
           id="path124"
           inkscape:connector-curvature="0" /></g><path
         d="m 196.633,352.77 1.336,-2.672 -5.34,3.004 5.34,3.003 -1.336,-2.667 0,-0.668 z"
         style="fill:#000000;fill-opacity:1;fill-rule:nonzero;stroke:none"
         id="path126"
         inkscape:connector-curvature="0" /><text
         y="-357.15686"
         x="220.71938"
         transform="scale(1,-1)"
         style="font-variant:normal;font-weight:normal;font-size:10.68392181px;font-family:'DejaVu Sans';-inkscape-font-specification:DejaVuSans;writing-mode:lr-tb;fill:#000000;fill-opacity:1;fill-rule:nonzero;stroke:none"
         id="text128"><tspan
           x="220.71938 227.4823 234.02086 240.79446 247.56807 254.13867 260.90161"
           y="-357.15686"
           sodipodi:role="line"
           id="tspan130">happens</tspan><tspan
           x="238.75893 241.71837"
           y="-343.80197"
           sodipodi:role="line"
           id="tspan132">in</tspan></text>
<g
         id="g134"
         transform="matrix(1,0,0,-1,0,612)"><path
           d="m 655.844,257.258 29.383,0"
           style="fill:none;stroke:#000000;stroke-width:0.66774499;stroke-linecap:butt;stroke-linejoin:miter;stroke-miterlimit:10;stroke-dasharray:none;stroke-opacity:1"
           id="path136"
           inkscape:connector-curvature="0" /></g><path
         d="m 685.227,354.406 -1.336,-2.672 5.339,3.008 -5.339,3.004 1.336,-2.672 0,-0.668 z"
         style="fill:#000000;fill-opacity:1;fill-rule:nonzero;stroke:none"
         id="path138"
         inkscape:connector-curvature="0" /><text
         y="-359.15515"
         x="651.25684"
         transform="scale(1,-1)"
         style="font-variant:normal;font-weight:normal;font-size:10.68392181px;font-family:'DejaVu Sans';-inkscape-font-specification:DejaVuSans;writing-mode:lr-tb;fill:#000000;fill-opacity:1;fill-rule:nonzero;stroke:none"
         id="text140"><tspan
           x="651.25684 658.01971 664.55829 671.33191 678.10553 684.67615 691.43903"
           y="-359.15515"
           sodipodi:role="line"
           id="tspan142">happens</tspan><tspan
           x="669.29639 672.2558"
           y="-345.80026"
           sodipodi:role="line"
           id="tspan144">in</tspan></text>
<text
         y="-350.53915"
         x="710.75092"
         transform="scale(1,-1)"
         style="font-variant:normal;font-weight:bold;font-size:14.95749092px;font-family:'DejaVu Sans';-inkscape-font-specification:DejaVuSans-Bold;writing-mode:lr-tb;fill:#000000;fill-opacity:1;fill-rule:nonzero;stroke:none"
         id="text146"><tspan
           x="710.75092 721.52032 728.66998 736.04407 746.31982 761.93549"
           y="-350.53915"
           sodipodi:role="line"
           id="tspan148">Stroma</tspan></text>
<path
         d="m 104.523,378.211 68.864,0 c 3.828,0 6.91,-3.082 6.91,-6.91 l 0,-23.684 c 0,-3.828 -3.082,-6.91 -6.91,-6.91 l -68.864,0 c -3.828,0 -6.91,3.082 -6.91,6.91 l 0,23.684 c 0,3.828 3.082,6.91 6.91,6.91 z"
         style="fill:none;stroke:#008900;stroke-width:4.31470203;stroke-linecap:butt;stroke-linejoin:miter;stroke-miterlimit:4;stroke-dasharray:none;stroke-opacity:1"
         id="path150"
         inkscape:connector-curvature="0" /><g
         id="g152"
         transform="matrix(0,-1,-1,0,0,612)"><path
           d="m 287.469,-597.961 74.801,0"
           style="fill:none;stroke:#000000;stroke-width:0.66774499;stroke-linecap:butt;stroke-linejoin:miter;stroke-miterlimit:10;stroke-dasharray:none;stroke-opacity:1"
           id="path154"
           inkscape:connector-curvature="0" /></g><path
         d="m 597.625,249.73 -2.672,1.336 3.008,-5.339 3.004,5.339 -2.672,-1.336 -0.668,0 z"
         style="fill:#000000;fill-opacity:1;fill-rule:nonzero;stroke:none"
         id="path156"
         inkscape:connector-curvature="0" /><g
         id="g158"
         transform="matrix(-1,-0.972938,0.972938,-1,0,612)"><path
           d="m -163.691,446.012 21.058,-10e-4"
           style="fill:none;stroke:#000000;stroke-width:0.47859901;stroke-linecap:butt;stroke-linejoin:miter;stroke-miterlimit:10;stroke-dasharray:none;stroke-opacity:1"
           id="path160"
           inkscape:connector-curvature="0" /></g><path
         d="m 576.809,304.523 2.816,-0.984 -5.922,-1.57 1.735,5.879 0.902,-2.848 0.469,-0.477 z"
         style="fill:#000000;fill-opacity:1;fill-rule:nonzero;stroke:none"
         id="path162"
         inkscape:connector-curvature="0" /><g
         id="g164"
         transform="matrix(1,-0.972938,-0.972938,-1,0,612)"><path
           d="m 450.685,-151.738 21.058,0"
           style="fill:none;stroke:#000000;stroke-width:0.47859901;stroke-linecap:butt;stroke-linejoin:miter;stroke-miterlimit:10;stroke-dasharray:none;stroke-opacity:1"
           id="path166"
           inkscape:connector-curvature="0" /></g><path
         d="m 619.145,304.523 -2.821,-0.984 5.922,-1.57 -1.73,5.879 -0.907,-2.848 -0.464,-0.477 z"
         style="fill:#000000;fill-opacity:1;fill-rule:nonzero;stroke:none"
         id="path168"
         inkscape:connector-curvature="0" /><path
         d="m 636.309,315.133 102.031,0 c 6.047,0 10.914,-4.867 10.914,-10.914 l 0,-37.414 c 0,-6.043 -4.867,-10.91 -10.914,-10.91 l -102.031,0 c -6.047,0 -10.914,4.867 -10.914,10.91 l 0,37.414 c 0,6.047 4.867,10.914 10.914,10.914 z"
         style="fill:none;stroke:#000000;stroke-width:0.96721703;stroke-linecap:butt;stroke-linejoin:miter;stroke-miterlimit:4;stroke-dasharray:none;stroke-opacity:1"
         id="path170"
         inkscape:connector-curvature="0" /><text
         y="-298.63303"
         x="651.20483"
         transform="scale(1,-1)"
         style="font-variant:normal;font-weight:bold;font-size:14.95749092px;font-family:'DejaVu Sans';-inkscape-font-specification:DejaVuSans-Bold;writing-mode:lr-tb;fill:#000000;fill-opacity:1;fill-rule:nonzero;stroke:none"
         id="text172"><tspan
           x="651.20483 662.72211 667.83759 678.53217 689.16693 694.32727 704.60309 713.50281"
           y="-298.63303"
           sodipodi:role="line"
           id="tspan174">Ribulose</tspan><tspan
           x="634.84509 645.53967 650.65515 659.55487 670.29431 680.92914 691.2049 701.9444 712.57916 722.66052 729.81018"
           y="-279.93616"
           sodipodi:role="line"
           id="tspan176">bisphophate</tspan><tspan
           x="630.43378 641.95105 652.09222 662.78687 672.92804 683.56281 693.70398 701.078 711.15936 718.30902 723.46936 733.74518"
           y="-261.23932"
           sodipodi:role="line"
           id="tspan178">Regeneration</tspan></text>
<path
         d="m 502.352,300.773 77.714,0 c 4.262,0 7.696,-3.433 7.696,-7.695 l 0,-26.387 c 0,-4.265 -3.434,-7.695 -7.696,-7.695 l -77.714,0 c -4.262,0 -7.696,3.43 -7.696,7.695 l 0,26.387 c 0,4.262 3.434,7.695 7.696,7.695 z"
         style="fill:none;stroke:#000000;stroke-width:0.70423901;stroke-linecap:butt;stroke-linejoin:miter;stroke-miterlimit:4;stroke-dasharray:none;stroke-opacity:1"
         id="path180"
         inkscape:connector-curvature="0" /><path
         d="m 556.594,242.203 76.051,0 c 3.871,0 6.984,-3.113 6.984,-6.984 l 0,-23.938 c 0,-3.871 -3.113,-6.984 -6.984,-6.984 l -76.051,0 c -3.867,0 -6.981,3.113 -6.981,6.984 l 0,23.938 c 0,3.871 3.114,6.984 6.981,6.984 z"
         style="fill:none;stroke:#000000;stroke-width:0.659594;stroke-linecap:butt;stroke-linejoin:miter;stroke-miterlimit:4;stroke-dasharray:none;stroke-opacity:1"
         id="path182"
         inkscape:connector-curvature="0" /><path
         d="m 397.02,297.238 77.714,0 c 4.266,0 7.696,-3.429 7.696,-7.695 l 0,-26.387 c 0,-4.261 -3.43,-7.695 -7.696,-7.695 l -77.714,0 c -4.262,0 -7.696,3.434 -7.696,7.695 l 0,26.387 c 0,4.266 3.434,7.695 7.696,7.695 z"
         style="fill:none;stroke:#000000;stroke-width:0.70423901;stroke-linecap:butt;stroke-linejoin:miter;stroke-miterlimit:4;stroke-dasharray:none;stroke-opacity:1"
         id="path184"
         inkscape:connector-curvature="0" /><text
         y="-280.60898"
         x="409.83698"
         transform="scale(1,-1)"
         style="font-variant:normal;font-weight:bold;font-size:14.95749092px;font-family:'DejaVu Sans';-inkscape-font-specification:DejaVuSans-Bold;writing-mode:lr-tb;fill:#000000;fill-opacity:1;fill-rule:nonzero;stroke:none"
         id="text186"><tspan
           x="409.83698 417.31573 424.79449 432.27322 439.75198 447.23071 454.70947"
           y="-280.60898"
           sodipodi:role="line"
           id="tspan188">_______</tspan><tspan
           x="400.16721 410.6973 420.77863 427.92831 438.60797 452.41373 462.0314"
           y="-261.91211"
           sodipodi:role="line"
           id="tspan190">Pathway</tspan></text>
<path
         d="m 278.496,295.656 77.711,0 c 4.266,0 7.699,-3.433 7.699,-7.695 l 0,-26.387 c 0,-4.262 -3.433,-7.695 -7.699,-7.695 l -77.711,0 c -4.266,0 -7.695,3.433 -7.695,7.695 l 0,26.387 c 0,4.262 3.429,7.695 7.695,7.695 z"
         style="fill:none;stroke:#000000;stroke-width:0.70423901;stroke-linecap:butt;stroke-linejoin:miter;stroke-miterlimit:4;stroke-dasharray:none;stroke-opacity:1"
         id="path192"
         inkscape:connector-curvature="0" /><text
         y="-279.02606"
         x="291.31085"
         transform="scale(1,-1)"
         style="font-variant:normal;font-weight:bold;font-size:14.95749092px;font-family:'DejaVu Sans';-inkscape-font-specification:DejaVuSans-Bold;writing-mode:lr-tb;fill:#000000;fill-opacity:1;fill-rule:nonzero;stroke:none"
         id="text194"><tspan
           x="291.31085 298.78958 306.26834 313.74707 321.22583 328.70456 336.18332"
           y="-279.02606"
           sodipodi:role="line"
           id="tspan196">_______</tspan><tspan
           x="281.64105 292.17114 302.25247 309.40216 320.08182 333.88757 343.50525"
           y="-260.32919"
           sodipodi:role="line"
           id="tspan198">Pathway</tspan></text>
<g
         id="g200"
         transform="matrix(-1,-0.972938,0.972938,-1,0,612)"><path
           d="M -83.58,442.268 -56.944,448"
           style="fill:none;stroke:#000000;stroke-width:0.47859901;stroke-linecap:butt;stroke-linejoin:miter;stroke-miterlimit:10;stroke-dasharray:none;stroke-opacity:1"
           id="path202"
           inkscape:connector-curvature="0" /></g><path
         d="m 493.055,219.16 2.816,-0.98 -5.922,-1.575 1.735,5.879 0.902,-2.843 0.469,-0.481 z"
         style="fill:#000000;fill-opacity:1;fill-rule:nonzero;stroke:none"
         id="path204"
         inkscape:connector-curvature="0" /><g
         id="g206"
         transform="matrix(-1,-0.972938,0.972938,-1,0,612)"><path
           d="m 66.447,208.468 21.059,0"
           style="fill:none;stroke:#000000;stroke-width:0.47859901;stroke-linecap:butt;stroke-linejoin:miter;stroke-miterlimit:10;stroke-dasharray:none;stroke-opacity:1"
           id="path208"
           inkscape:connector-curvature="0" /></g><path
         d="m 115.551,318.156 2.82,-0.984 -5.926,-1.57 1.735,5.878 0.906,-2.847 0.465,-0.477 z"
         style="fill:#000000;fill-opacity:1;fill-rule:nonzero;stroke:none"
         id="path210"
         inkscape:connector-curvature="0" /><g
         id="g212"
         transform="matrix(1,-0.972938,-0.972938,-1,0,612)"><path
           d="m 206.918,71.799 21.059,-0.001"
           style="fill:none;stroke:#000000;stroke-width:0.47859901;stroke-linecap:butt;stroke-linejoin:miter;stroke-miterlimit:10;stroke-dasharray:none;stroke-opacity:1"
           id="path214"
           inkscape:connector-curvature="0" /></g><path
         d="m 157.887,318.156 -2.821,-0.984 5.926,-1.57 -1.734,5.878 -0.903,-2.847 -0.468,-0.477 z"
         style="fill:#000000;fill-opacity:1;fill-rule:nonzero;stroke:none"
         id="path216"
         inkscape:connector-curvature="0" /><g
         id="g218"
         transform="matrix(0,-1,-1,0,0,612)"><path
           d="m 273.227,-136.301 74.796,0"
           style="fill:none;stroke:#000000;stroke-width:0.66774499;stroke-linecap:butt;stroke-linejoin:miter;stroke-miterlimit:10;stroke-dasharray:none;stroke-opacity:1"
           id="path220"
           inkscape:connector-curvature="0" /></g><path
         d="m 135.969,263.977 -2.672,1.335 3.004,-5.343 3.008,5.343 -2.672,-1.335 -0.668,0 z"
         style="fill:#000000;fill-opacity:1;fill-rule:nonzero;stroke:none"
         id="path222"
         inkscape:connector-curvature="0" /><path
         d="m 158.652,309.715 97.098,0 c 3.066,0 5.535,-2.465 5.535,-5.531 l 0,-18.977 c 0,-3.066 -2.469,-5.535 -5.535,-5.535 l -97.098,0 c -3.066,0 -5.535,2.469 -5.535,5.535 l 0,18.977 c 0,3.066 2.469,5.531 5.535,5.531 z"
         style="fill:#ff9800;fill-opacity:0.55288499;fill-rule:nonzero;stroke:none"
         id="path224"
         inkscape:connector-curvature="0" /><path
         d="m 158.652,309.715 97.098,0 c 3.066,0 5.535,-2.465 5.535,-5.531 l 0,-18.977 c 0,-3.066 -2.469,-5.535 -5.535,-5.535 l -97.098,0 c -3.066,0 -5.535,2.469 -5.535,5.535 l 0,18.977 c 0,3.066 2.469,5.531 5.535,5.531 z"
         style="fill:none;stroke:#000000;stroke-width:0.643713;stroke-linecap:butt;stroke-linejoin:miter;stroke-miterlimit:4;stroke-dasharray:none;stroke-opacity:1"
         id="path226"
         inkscape:connector-curvature="0" /><path
         d="m 99.391,254.328 99.863,0 c 3.062,0 5.531,-2.469 5.531,-5.535 l 0,-18.969 c 0,-3.066 -2.469,-5.535 -5.531,-5.535 l -99.863,0 c -3.067,0 -5.532,2.469 -5.532,5.535 l 0,18.969 c 0,3.066 2.465,5.535 5.532,5.535 z"
         style="fill:#ffff50;fill-opacity:0.41346202;fill-rule:nonzero;stroke:none"
         id="path228"
         inkscape:connector-curvature="0" /><path
         d="m 99.391,254.328 99.863,0 c 3.062,0 5.531,-2.469 5.531,-5.535 l 0,-18.969 c 0,-3.066 -2.469,-5.535 -5.531,-5.535 l -99.863,0 c -3.067,0 -5.532,2.469 -5.532,5.535 l 0,18.969 c 0,3.066 2.465,5.535 5.532,5.535 z"
         style="fill:none;stroke:#000000;stroke-width:0.65179002;stroke-linecap:butt;stroke-linejoin:miter;stroke-miterlimit:4;stroke-dasharray:none;stroke-opacity:1"
         id="path230"
         inkscape:connector-curvature="0" /><text
         y="-235.07544"
         x="95.224701"
         transform="scale(1,-1)"
         style="font-variant:normal;font-weight:bold;font-size:14.95749092px;font-family:'DejaVu Sans';-inkscape-font-specification:DejaVuSans-Bold;writing-mode:lr-tb;fill:#000000;fill-opacity:1;fill-rule:nonzero;stroke:none"
         id="text232"><tspan
           x="95.224701 104.87228 114.95364 125.58841 132.73808 143.41774 153.69354 164.38814 175.02292 184.80511 189.92058 195.03604"
           y="-235.07544"
           sodipodi:role="line"
           id="tspan234">xanthophylls</tspan></text>
<path
         d="m 447.449,210.246 58.785,0 c 2.813,0 5.082,-2.266 5.082,-5.082 l 0,-17.422 c 0,-2.816 -2.269,-5.086 -5.082,-5.086 l -58.785,0 c -2.816,0 -5.082,2.27 -5.082,5.086 l 0,17.422 c 0,2.816 2.266,5.082 5.082,5.082 z"
         style="fill:none;stroke:#000000;stroke-width:0.49248001;stroke-linecap:butt;stroke-linejoin:miter;stroke-miterlimit:4;stroke-dasharray:none;stroke-opacity:1"
         id="path236"
         inkscape:connector-curvature="0" /><text
         y="-190.95872"
         x="445.57007"
         transform="scale(1,-1)"
         style="font-variant:normal;font-weight:bold;font-size:14.95749092px;font-family:'DejaVu Sans';-inkscape-font-specification:DejaVuSans-Bold;writing-mode:lr-tb;fill:#000000;fill-opacity:1;fill-rule:nonzero;stroke:none"
         id="text238"><tspan
           x="445.57007 458.07452 469.63666 482.05139 493.00027"
           y="-190.95872"
           sodipodi:role="line"
           id="tspan240">NADPH</tspan></text>
<g
         id="g242"
         transform="matrix(1,-0.972938,-0.972938,-1,0,612)"><path
           d="m 409.822,-38.457 26.634,5.734"
           style="fill:none;stroke:#000000;stroke-width:0.47859901;stroke-linecap:butt;stroke-linejoin:miter;stroke-miterlimit:10;stroke-dasharray:none;stroke-opacity:1"
           id="path244"
           inkscape:connector-curvature="0" /></g><path
         d="m 468.062,219.84 -2.82,-0.985 5.926,-1.57 -1.734,5.879 -0.907,-2.848 -0.465,-0.476 z"
         style="fill:#000000;fill-opacity:1;fill-rule:nonzero;stroke:none"
         id="path246"
         inkscape:connector-curvature="0" /><text
         y="274.58734"
         x="459.21533"
         transform="matrix(0.56688453,0.82379726,0.82379726,-0.56688453,0,0)"
         style="font-variant:normal;font-weight:normal;font-size:9.61553001px;font-family:'DejaVu Sans';-inkscape-font-specification:DejaVuSans;writing-mode:lr-tb;fill:#000000;fill-opacity:1;fill-rule:nonzero;stroke:none"
         id="text248"><tspan
           x="459.21533 462.96539 468.87894 474.97519 481.0618 483.72531 487.48499 493.39853"
           y="274.58734"
           sodipodi:role="line"
           id="tspan250">requires</tspan></text>
<text
         y="-500.90787"
         x="22.568344"
         transform="matrix(0.54077247,-0.84116891,-0.84116891,-0.54077247,0,0)"
         style="font-variant:normal;font-weight:normal;font-size:9.61553001px;font-family:'DejaVu Sans';-inkscape-font-specification:DejaVuSans;writing-mode:lr-tb;fill:#000000;fill-opacity:1;fill-rule:nonzero;stroke:none"
         id="text252"><tspan
           x="22.568344 28.664589 34.57814 40.664772 46.578323 50.530304 56.415009 60.213146 66.126694"
           y="-500.90787"
           sodipodi:role="line"
           id="tspan254">generates</tspan></text>
<g
         id="g256"
         transform="matrix(-0.201874,-1,0.905722,-0.222887,0,612)"><path
           d="m 329.075,411.449 40.051,8.62"
           style="fill:none;stroke:#000000;stroke-width:0.719594;stroke-linecap:butt;stroke-linejoin:miter;stroke-miterlimit:10;stroke-dasharray:none;stroke-opacity:1"
           id="path258"
           inkscape:connector-curvature="0" /></g><path
         d="m 306.11136,149.16048 2.73262,1.25387 -3.22887,-5.62907 -2.79368,6.10553 2.62066,-1.67751 0.66927,-0.0528 z"
         style="fill:#000000;fill-opacity:1;fill-rule:nonzero;stroke:none"
         id="path260"
         inkscape:connector-curvature="0" /><text
         y="-311.49713"
         x="-195.22499"
         transform="matrix(-0.0053055,-0.99998593,-0.99998593,0.0053055,0,0)"
         style="font-variant:normal;font-weight:normal;font-size:9.61552906px;font-family:'DejaVu Sans';-inkscape-font-specification:DejaVuSans;writing-mode:lr-tb;fill:#000000;fill-opacity:1;fill-rule:nonzero;stroke:none"
         id="text262"><tspan
           x="-195.22499 -189.12875 -183.21519 -177.12857 -171.21501 -167.26303 -161.37833 -157.5802 -151.66664"
           y="-311.49713"
           sodipodi:role="line"
           id="tspan264">generates</tspan></text>
<path
         d="m 297.086,142.148 26.742,0 c 2.195,0 3.961,-1.765 3.961,-3.96 l 0,-13.586 c 0,-2.196 -1.766,-3.961 -3.961,-3.961 l -26.742,0 c -2.195,0 -3.961,1.765 -3.961,3.961 l 0,13.586 c 0,2.195 1.766,3.96 3.961,3.96 z"
         style="fill:none;stroke:#000000;stroke-width:0.308328;stroke-linecap:butt;stroke-linejoin:miter;stroke-miterlimit:4;stroke-dasharray:none;stroke-opacity:1"
         id="path266"
         inkscape:connector-curvature="0" /><path
         d="m 619.414,121.129 84.594,0 c 2.531,0 4.57,-2.039 4.57,-4.57 l 0,-15.668 c 0,-2.532 -2.039,-4.567 -4.57,-4.567 l -84.594,0 c -2.531,0 -4.57,2.035 -4.57,4.567 l 0,15.668 c 0,2.531 2.039,4.57 4.57,4.57 z"
         style="fill:none;stroke:#000000;stroke-width:0.544478;stroke-linecap:butt;stroke-linejoin:miter;stroke-miterlimit:4;stroke-dasharray:none;stroke-opacity:1"
         id="path268"
         inkscape:connector-curvature="0" /><path
         d="m 569.023,158.809 28.719,0 c 2.867,0 5.18,-2.309 5.18,-5.176 l 0,-17.754 c 0,-2.867 -2.313,-5.176 -5.18,-5.176 l -28.719,0 c -2.867,0 -5.175,2.309 -5.175,5.176 l 0,17.754 c 0,2.867 2.308,5.176 5.175,5.176 z"
         style="fill:none;stroke:#000000;stroke-width:0.374221;stroke-linecap:butt;stroke-linejoin:miter;stroke-miterlimit:4;stroke-dasharray:none;stroke-opacity:1"
         id="path270"
         inkscape:connector-curvature="0" /><text
         y="-140.68974"
         x="568.1853"
         transform="scale(1,-1)"
         style="font-variant:normal;font-weight:bold;font-size:14.95749092px;font-family:'DejaVu Sans';-inkscape-font-specification:DejaVuSans-Bold;writing-mode:lr-tb;fill:#000000;fill-opacity:1;fill-rule:nonzero;stroke:none"
         id="text272"><tspan
           x="568.1853 579.14917"
           y="-140.68974"
           sodipodi:role="line"
           id="tspan274">CO</tspan></text>
<text
         y="-137.69826"
         x="591.87775"
         transform="scale(1,-1)"
         style="font-variant:normal;font-weight:bold;font-size:9.72250748px;font-family:'DejaVu Sans';-inkscape-font-specification:DejaVuSans-Bold;writing-mode:lr-tb;fill:#000000;fill-opacity:1;fill-rule:nonzero;stroke:none"
         id="text276"><tspan
           x="591.87775"
           y="-137.69826"
           id="tspan278">2</tspan></text>
<text
         y="-181.42014"
         x="660.35327"
         transform="scale(1,-1)"
         style="font-variant:normal;font-weight:bold;font-size:14.95749092px;font-family:'DejaVu Sans';-inkscape-font-specification:DejaVuSans-Bold;writing-mode:lr-tb;fill:#000000;fill-opacity:1;fill-rule:nonzero;stroke:none"
         id="text280"><tspan
           x="660.35327 671.87054 676.98602 687.6806 698.31537 703.47571 713.75153 722.65125"
           y="-181.42014"
           sodipodi:role="line"
           id="tspan282">Ribulose</tspan><tspan
           x="639.20245 650.6001 655.71552 664.61523 675.30981 685.9895 696.26532 705.16498 715.85962 726.53925 736.62061 743.77026"
           y="-162.72328"
           sodipodi:role="line"
           id="tspan284">Bisphosphate</tspan></text>
<path
         d="m 643.039,195.406 108.625,0 c 4.262,0 7.691,-3.433 7.691,-7.695 l 0,-26.379 c 0,-4.266 -3.429,-7.695 -7.691,-7.695 l -108.625,0 c -4.266,0 -7.695,3.429 -7.695,7.695 l 0,26.379 c 0,4.262 3.429,7.695 7.695,7.695 z"
         style="fill:none;stroke:#000000;stroke-width:0.812684;stroke-linecap:butt;stroke-linejoin:miter;stroke-miterlimit:4;stroke-dasharray:none;stroke-opacity:1"
         id="path286"
         inkscape:connector-curvature="0" /><path
         d="m 668.711,67.844 83.125,0 c 2.93,0 5.285,-2.356 5.285,-5.282 l 0,-18.117 c 0,-2.925 -2.355,-5.281 -5.285,-5.281 l -83.125,0 c -2.926,0 -5.285,2.356 -5.285,5.281 l 0,18.117 c 0,2.926 2.359,5.282 5.285,5.282 z"
         style="fill:none;stroke:#000000;stroke-width:0.58534098;stroke-linecap:butt;stroke-linejoin:miter;stroke-miterlimit:4;stroke-dasharray:none;stroke-opacity:1"
         id="path288"
         inkscape:connector-curvature="0" /><text
         y="-51.396126"
         x="677.37909"
         transform="scale(1,-1)"
         style="font-variant:normal;font-weight:bold;font-size:14.95749092px;font-family:'DejaVu Sans';-inkscape-font-specification:DejaVuSans-Bold;writing-mode:lr-tb;fill:#000000;fill-opacity:1;fill-rule:nonzero;stroke:none"
         id="text290"><tspan
           x="677.37909 687.59509 698.22986 706.93512 716.67242 732.28809"
           y="-51.396126"
           sodipodi:role="line"
           id="tspan292">Enzyme</tspan></text>
<g
         id="g294"
         transform="matrix(0.533959,-1,-1,-0.533959,0,612)"><path
           d="m 574.13,-295.02 65.98,0"
           style="fill:none;stroke:#000000;stroke-width:0.58903402;stroke-linecap:butt;stroke-linejoin:miter;stroke-miterlimit:10;stroke-dasharray:none;stroke-opacity:1"
           id="path296"
           inkscape:connector-curvature="0" /></g><path
         d="m 636.52,129.262 -2.985,-0.082 5.164,-3.297 0.137,6.129 -1.727,-2.438 -0.589,-0.312 z"
         style="fill:#000000;fill-opacity:1;fill-rule:nonzero;stroke:none"
         id="path298"
         inkscape:connector-curvature="0" /><g
         id="g300"
         transform="matrix(-0.318861,-1,1,-0.318861,0,612)"><path
           d="m 203.781,665.931 27.993,0"
           style="fill:none;stroke:#000000;stroke-width:0.63618702;stroke-linecap:butt;stroke-linejoin:miter;stroke-miterlimit:10;stroke-dasharray:none;stroke-opacity:1"
           id="path302"
           inkscape:connector-curvature="0" /></g><path
         d="m 592.348,167.785 2.949,0.461 -4.485,-4.176 -1.242,6.004 2.141,-2.086 0.637,-0.203 z"
         style="fill:#000000;fill-opacity:1;fill-rule:nonzero;stroke:none"
         id="path304"
         inkscape:connector-curvature="0" /><g
         id="g306"
         transform="matrix(1,-0.288895,-0.288895,-1,0,612)"><path
           d="m 666.088,223.367 28.227,0.002"
           style="fill:none;stroke:#000000;stroke-width:0.64151102;stroke-linecap:butt;stroke-linejoin:miter;stroke-miterlimit:10;stroke-dasharray:none;stroke-opacity:1"
           id="path308"
           inkscape:connector-curvature="0" /></g><path
         d="m 629.691,187.727 -2.023,-2.196 5.969,1.407 -4.301,4.367 0.543,-2.934 -0.188,-0.644 z"
         style="fill:#000000;fill-opacity:1;fill-rule:nonzero;stroke:none"
         id="path310"
         inkscape:connector-curvature="0" /><g
         id="g312"
         transform="matrix(1,-0.972938,-0.972938,-1,0,612)"><path
           d="m 604.782,-69.032 21.058,0"
           style="fill:none;stroke:#000000;stroke-width:0.47859901;stroke-linecap:butt;stroke-linejoin:miter;stroke-miterlimit:10;stroke-dasharray:none;stroke-opacity:1"
           id="path314"
           inkscape:connector-curvature="0" /></g><path
         d="m 692.773,71.891 -2.82,-0.985 5.922,-1.57 -1.73,5.879 -0.907,-2.848 -0.465,-0.476 z"
         style="fill:#000000;fill-opacity:1;fill-rule:nonzero;stroke:none"
         id="path316"
         inkscape:connector-curvature="0" /><g
         id="g318"
         transform="matrix(1.1202684,-1.1085191,-1.0899517,-1.1393523,-44.275424,665.45802)"><path
           d="m 359.555,13.081 21.059,0"
           style="fill:none;stroke:#000000;stroke-width:0.47859901;stroke-linecap:butt;stroke-linejoin:miter;stroke-miterlimit:10;stroke-dasharray:none;stroke-opacity:1"
           id="path320"
           inkscape:connector-curvature="0" /></g><path
         d="m 367.656,228.367 -2.82,-0.984 5.922,-1.571 -1.731,5.879 -0.906,-2.847 -0.465,-0.477 z"
         style="fill:#000000;fill-opacity:1;fill-rule:nonzero;stroke:none"
         id="path322"
         inkscape:connector-curvature="0" /><g
         id="g324"
         transform="matrix(-0.82468639,-1.0479243,1.0613164,-0.81428016,-23.218121,630.34858)"><path
           d="m 31.801,421.636 23.199,0"
           style="fill:none;stroke:#000000;stroke-width:0.52727401;stroke-linecap:butt;stroke-linejoin:miter;stroke-miterlimit:10;stroke-dasharray:none;stroke-opacity:1"
           id="path326"
           inkscape:connector-curvature="0" /></g><path
         d="m 379.164,229.164 2.926,-0.582 -5.649,-2.375 0.903,6.063 1.293,-2.696 0.527,-0.41 z"
         style="fill:#000000;fill-opacity:1;fill-rule:nonzero;stroke:none"
         id="path328"
         inkscape:connector-curvature="0" /><path
         d="m 349.656,224.031 32.703,0 c 2.27,0 4.098,-1.828 4.098,-4.101 l 0,-14.059 c 0,-2.269 -1.828,-4.098 -4.098,-4.098 l -32.703,0 c -2.269,0 -4.097,1.829 -4.097,4.098 l 0,14.059 c 0,2.273 1.828,4.101 4.097,4.101 z"
         style="fill:none;stroke:#000000;stroke-width:0.34070101;stroke-linecap:butt;stroke-linejoin:miter;stroke-miterlimit:4;stroke-dasharray:none;stroke-opacity:1"
         id="path330"
         inkscape:connector-curvature="0" /><g
         id="g332"
         transform="matrix(0.57322196,-1.0667819,-1.1293011,-0.5414878,-53.792274,637.81423)"><path
           d="m 448.769,-174.69 26.198,0.001"
           style="fill:none;stroke:#000000;stroke-width:0.59543103;stroke-linecap:butt;stroke-linejoin:miter;stroke-miterlimit:10;stroke-dasharray:none;stroke-opacity:1"
           id="path334"
           inkscape:connector-curvature="0" /></g><path
         d="m 415.48,225.551 -2.984,-0.02 5.098,-3.402 0.261,6.125 -1.777,-2.402 -0.598,-0.301 z"
         style="fill:#000000;fill-opacity:1;fill-rule:nonzero;stroke:none"
         id="path336"
         inkscape:connector-curvature="0" /><path
         d="m 395.48,220.113 32.7,0 c 2.273,0 4.101,-1.828 4.101,-4.097 l 0,-14.059 c 0,-2.273 -1.828,-4.102 -4.101,-4.102 l -32.7,0 c -2.273,0 -4.101,1.829 -4.101,4.102 l 0,14.059 c 0,2.269 1.828,4.097 4.101,4.097 z"
         style="fill:none;stroke:#000000;stroke-width:0.34070101;stroke-linecap:butt;stroke-linejoin:miter;stroke-miterlimit:4;stroke-dasharray:none;stroke-opacity:1"
         id="path338"
         inkscape:connector-curvature="0" /><text
         y="-203.88281"
         x="393.30353"
         transform="scale(1,-1)"
         style="font-variant:normal;font-weight:bold;font-size:14.95749092px;font-family:'DejaVu Sans';-inkscape-font-specification:DejaVuSans-Bold;writing-mode:lr-tb;fill:#000000;fill-opacity:1;fill-rule:nonzero;stroke:none"
         id="text340"><tspan
           x="393.30353 404.25241 415.02182 420.22702 425.7912"
           y="-203.88281"
           sodipodi:role="line"
           id="tspan342">PS II</tspan></text>
<path
         d="m 319.094,216.211 -26.746,0 c -2.192,0 -3.961,-1.766 -3.961,-3.961 l 0,-13.586 c 0,-2.195 1.769,-3.961 3.961,-3.961 l 26.746,0 c 2.195,0 3.961,1.766 3.961,3.961 l 0,13.586 c 0,2.195 -1.766,3.961 -3.961,3.961 z"
         style="fill:none;stroke:#000000;stroke-width:0.308328;stroke-linecap:butt;stroke-linejoin:miter;stroke-miterlimit:4;stroke-dasharray:none;stroke-opacity:1"
         id="path344"
         inkscape:connector-curvature="0" /><text
         y="-201.01303"
         x="290.15576"
         transform="scale(1,-1)"
         style="font-variant:normal;font-weight:bold;font-size:14.95749092px;font-family:'DejaVu Sans';-inkscape-font-specification:DejaVuSans-Bold;writing-mode:lr-tb;fill:#000000;fill-opacity:1;fill-rule:nonzero;stroke:none"
         id="text346"><tspan
           x="290.15576"
           y="-201.01303"
           id="tspan348">H</tspan></text>
<text
         y="-198.02153"
         x="302.68851"
         transform="scale(1,-1)"
         style="font-variant:normal;font-weight:bold;font-size:7.77795887px;font-family:'DejaVu Sans';-inkscape-font-specification:DejaVuSans-Bold;writing-mode:lr-tb;fill:#000000;fill-opacity:1;fill-rule:nonzero;stroke:none"
         id="text350"><tspan
           x="302.68851"
           y="-198.02153"
           id="tspan352">2</tspan></text>
<text
         y="-201.01303"
         x="308.09662"
         transform="scale(1,-1)"
         style="font-variant:normal;font-weight:bold;font-size:14.95749092px;font-family:'DejaVu Sans';-inkscape-font-specification:DejaVuSans-Bold;writing-mode:lr-tb;fill:#000000;fill-opacity:1;fill-rule:nonzero;stroke:none"
         id="text354"><tspan
           x="308.09662"
           y="-201.01303"
           id="tspan356">O</tspan></text>
<g
         id="g358"
         transform="matrix(0,-1,-1,0,0,612)"><path
           d="m 360.344,-306.086 29.379,0"
           style="fill:none;stroke:#000000;stroke-width:0.66774499;stroke-linecap:butt;stroke-linejoin:miter;stroke-miterlimit:10;stroke-dasharray:none;stroke-opacity:1"
           id="path360"
           inkscape:connector-curvature="0" /></g><path
         d="m 305.754,222.277 -2.672,1.336 3.004,-5.343 3.004,5.343 -2.672,-1.336 -0.664,0 z"
         style="fill:#000000;fill-opacity:1;fill-rule:nonzero;stroke:none"
         id="path362"
         inkscape:connector-curvature="0" /><path
         d="m 346.34,246.707 75.078,0 c 1.754,0 3.168,-1.414 3.168,-3.172 l 0,-6.121 c 0,-1.754 -1.414,-3.168 -3.168,-3.168 l -75.078,0 c -1.758,0 -3.172,1.414 -3.172,3.168 l 0,6.121 c 0,1.758 1.414,3.172 3.172,3.172 z"
         style="fill:#ffffff;fill-opacity:0.92307697;fill-rule:nonzero;stroke:#000000;stroke-opacity:1;stroke-width:1;stroke-miterlimit:4;stroke-dasharray:1,1;stroke-dashoffset:0"
         id="path364"
         inkscape:connector-curvature="0" /><path
         d="m 346.34,246.707 75.078,0 c 1.754,0 3.168,-1.414 3.168,-3.172 l 0,-6.121 c 0,-1.754 -1.414,-3.168 -3.168,-3.168 l -75.078,0 c -1.758,0 -3.172,1.414 -3.172,3.168 l 0,6.121 c 0,1.758 1.414,3.172 3.172,3.172 z"
         style="fill:none;stroke:#000000;stroke-width:0.213678;stroke-linecap:butt;stroke-linejoin:miter;stroke-miterlimit:4;stroke-dasharray:0.641035, 0.213678;stroke-dashoffset:0;stroke-opacity:0.77403804"
         id="path366"
         inkscape:connector-curvature="0" /><text
         y="-239.31096"
         x="363.22626"
         transform="matrix(0.99999269,-0.00382439,-0.00382439,-0.99999269,0,0)"
         style="font-variant:normal;font-weight:normal;font-size:9.61553001px;font-family:'DejaVu Sans';-inkscape-font-specification:DejaVuSans;writing-mode:lr-tb;fill:#000000;fill-opacity:1;fill-rule:nonzero;stroke:none"
         id="text368"><tspan
           x="363.22626 366.97632 372.88986 378.98611 385.07272 387.73624 391.49591 397.40945"
           y="-239.31096"
           sodipodi:role="line"
           id="tspan370">requires</tspan></text>
<path
         d="m 585.145,184.977 37.246,17.882 c 1.589,0.762 3.484,0.098 4.246,-1.492 l 2.66,-5.543 c 0.762,-1.59 0.098,-3.484 -1.492,-4.246 l -37.246,-17.879 c -1.59,-0.761 -3.485,-0.097 -4.247,1.492 l -2.66,5.543 c -0.765,1.586 -0.097,3.481 1.493,4.243 z"
         style="fill:#ffffff;fill-opacity:0.92307697;fill-rule:nonzero;stroke:none"
         id="path372"
         inkscape:connector-curvature="0" /><g
         style="stroke:#000000;stroke-opacity:1;stroke-width:1.00033113;stroke-miterlimit:4;stroke-dasharray:1.00033113,1.00033113;stroke-dashoffset:0"
         id="g374"
         transform="matrix(1,0.479997,0.479997,-1,0,612)"><path
           d="m 308.985,575.335 37.248,-0.003 c 1.589,10e-4 2.87,1.279 2.869,2.869 l -10e-4,5.543 c -10e-4,1.589 -1.279,2.87 -2.869,2.868 l -37.246,0.001 c -1.59,-0.001 -2.87,-1.28 -2.869,-2.869 l 0,-5.543 c -0.003,-1.588 1.279,-2.867 2.868,-2.866 z"
           style="fill:none;stroke:#000000;stroke-width:1.00033113;stroke-linecap:butt;stroke-linejoin:miter;stroke-miterlimit:4;stroke-dasharray:1.00033113,1.00033113;stroke-dashoffset:0;stroke-opacity:1"
           id="path376"
           inkscape:connector-curvature="0" /></g><text
         y="92.928413"
         x="609.12231"
         transform="matrix(0.90317228,0.42927827,0.42927827,-0.90317228,0,0)"
         style="font-variant:normal;font-weight:normal;font-size:9.61553001px;font-family:'DejaVu Sans';-inkscape-font-specification:DejaVuSans;writing-mode:lr-tb;fill:#000000;fill-opacity:1;fill-rule:nonzero;stroke:none"
         id="text378"><tspan
           x="609.12231 612.87238 618.78589 624.88214 630.96875 633.63226 637.39197 643.30548"
           y="92.928413"
           sodipodi:role="line"
           id="tspan380">requires</tspan></text>
<path
         d="m 572.109,325.141 45.414,0 c 1.516,0 2.739,-1.223 2.739,-2.739 l 0,-9.382 c 0,-1.516 -1.223,-2.739 -2.739,-2.739 l -45.414,0 c -1.515,0 -2.738,1.223 -2.738,2.739 l 0,9.382 c 0,1.516 1.223,2.739 2.738,2.739 z"
         style="fill:#ffffff;fill-opacity:0.75480801;fill-rule:nonzero;stroke:none"
         id="path382"
         inkscape:connector-curvature="0" /><g
         style="stroke:#000000;stroke-opacity:1;stroke-width:1.24;stroke-miterlimit:4;stroke-dasharray:1.24,2.48;stroke-dashoffset:0"
         id="g384"
         transform="matrix(1,0,0,-1,0,612)"><path
           d="m 572.109,286.859 45.414,0 c 1.516,0 2.739,1.223 2.739,2.739 l 0,9.382 c 0,1.516 -1.223,2.739 -2.739,2.739 l -45.414,0 c -1.515,0 -2.738,-1.223 -2.738,-2.739 l 0,-9.382 c 0,-1.516 1.223,-2.739 2.738,-2.739 z"
           style="fill:none;stroke:#000000;stroke-width:1.24;stroke-linecap:butt;stroke-linejoin:miter;stroke-miterlimit:4;stroke-dasharray:1.24,2.48;stroke-dashoffset:0;stroke-opacity:1"
           id="path386"
           inkscape:connector-curvature="0" /></g><text
         y="-315.36057"
         x="574.45154"
         transform="scale(1,-1)"
         style="font-variant:normal;font-weight:normal;font-size:9.61553001px;font-family:'DejaVu Sans';-inkscape-font-specification:DejaVuSans;writing-mode:lr-tb;fill:#000000;fill-opacity:1;fill-rule:nonzero;stroke:none"
         id="text388"><tspan
           x="574.45154 577.11505 583.20166 588.48059 591.1441 597.23071 603.32697 609.24054"
           y="-315.36057"
           sodipodi:role="line"
           id="tspan390">includes</tspan></text>
<g
         id="g392"
         transform="matrix(1,0,0,-1,0,612)"><path
           d="m 575.391,291.172 0.906,0 0,5.469 -0.906,0 0,-5.469 z m 0,-2.125 0.906,0 0,1.141 -0.906,0 0,-1.141 z m 7.211,4.297 0,3.297 -0.891,0 0,-3.266 c 0,-0.52 -0.106,-0.906 -0.313,-1.156 -0.199,-0.258 -0.5,-0.391 -0.906,-0.391 -0.48,0 -0.859,0.156 -1.14,0.469 -0.282,0.305 -0.422,0.719 -0.422,1.25 l 0,3.094 -0.907,0 0,-5.469 0.907,0 0,0.844 c 0.218,-0.321 0.472,-0.563 0.765,-0.719 0.289,-0.164 0.625,-0.25 1,-0.25 0.625,0 1.098,0.195 1.422,0.578 0.321,0.387 0.485,0.961 0.485,1.719 z m 5.496,-1.969 0,0.844 c -0.25,-0.133 -0.508,-0.239 -0.766,-0.313 -0.25,-0.07 -0.508,-0.109 -0.766,-0.109 -0.586,0 -1.039,0.187 -1.359,0.562 -0.324,0.368 -0.484,0.883 -0.484,1.547 0,0.668 0.16,1.188 0.484,1.563 0.32,0.367 0.773,0.547 1.359,0.547 0.258,0 0.516,-0.032 0.766,-0.094 0.258,-0.07 0.516,-0.18 0.766,-0.328 l 0,0.844 c -0.25,0.117 -0.512,0.199 -0.782,0.25 -0.261,0.062 -0.543,0.093 -0.843,0.093 -0.836,0 -1.496,-0.254 -1.985,-0.765 -0.48,-0.52 -0.718,-1.223 -0.718,-2.11 0,-0.883 0.242,-1.582 0.734,-2.094 0.488,-0.507 1.16,-0.765 2.016,-0.765 0.281,0 0.55,0.027 0.812,0.078 0.258,0.055 0.516,0.137 0.766,0.25 z m 1.359,-2.328 0.906,0 0,7.594 -0.906,0 0,-7.594 z m 2.57,5.437 0,-3.312 0.907,0 0,3.281 c 0,0.512 0.097,0.899 0.296,1.156 0.208,0.262 0.508,0.391 0.907,0.391 0.488,0 0.875,-0.148 1.156,-0.453 0.281,-0.313 0.422,-0.738 0.422,-1.281 l 0,-3.094 0.906,0 0,5.469 -0.906,0 0,-0.844 c -0.219,0.336 -0.477,0.586 -0.766,0.75 -0.281,0.156 -0.617,0.234 -1,0.234 -0.625,0 -1.105,-0.191 -1.437,-0.578 -0.324,-0.394 -0.485,-0.969 -0.485,-1.719 z m 9.809,-2.484 0,-2.953 0.891,0 0,7.594 -0.891,0 0,-0.829 c -0.188,0.336 -0.43,0.579 -0.719,0.735 -0.293,0.156 -0.64,0.234 -1.047,0.234 -0.656,0 -1.195,-0.258 -1.609,-0.781 -0.418,-0.531 -0.625,-1.227 -0.625,-2.094 0,-0.851 0.207,-1.539 0.625,-2.062 0.414,-0.532 0.953,-0.797 1.609,-0.797 0.407,0 0.754,0.078 1.047,0.234 0.289,0.157 0.531,0.399 0.719,0.719 z m -3.063,1.906 c 0,0.668 0.133,1.188 0.407,1.563 0.269,0.375 0.644,0.562 1.125,0.562 0.468,0 0.836,-0.187 1.109,-0.562 0.281,-0.375 0.422,-0.895 0.422,-1.563 0,-0.656 -0.141,-1.172 -0.422,-1.547 -0.273,-0.375 -0.641,-0.562 -1.109,-0.562 -0.481,0 -0.856,0.187 -1.125,0.562 -0.274,0.375 -0.407,0.891 -0.407,1.547 z m 10.243,-0.218 0,0.437 -4.141,0 c 0.039,0.617 0.227,1.086 0.563,1.406 0.332,0.324 0.796,0.485 1.39,0.485 0.344,0 0.676,-0.039 1,-0.125 0.332,-0.082 0.656,-0.207 0.969,-0.375 l 0,0.843 c -0.324,0.137 -0.656,0.243 -1,0.313 -0.336,0.07 -0.672,0.109 -1.016,0.109 -0.875,0 -1.57,-0.25 -2.078,-0.75 -0.512,-0.508 -0.765,-1.203 -0.765,-2.078 0,-0.894 0.238,-1.601 0.718,-2.125 0.489,-0.519 1.145,-0.781 1.969,-0.781 0.738,0 1.32,0.234 1.75,0.703 0.426,0.469 0.641,1.117 0.641,1.938 z m -0.907,-0.266 c 0,-0.488 -0.136,-0.879 -0.406,-1.172 -0.273,-0.301 -0.625,-0.453 -1.062,-0.453 -0.512,0 -0.918,0.148 -1.219,0.437 -0.293,0.282 -0.465,0.68 -0.516,1.188 l 3.203,0 z m 5.621,-2.094 0,0.86 c -0.25,-0.133 -0.511,-0.235 -0.781,-0.297 -0.273,-0.063 -0.558,-0.094 -0.859,-0.094 -0.438,0 -0.774,0.07 -1,0.203 -0.219,0.137 -0.328,0.34 -0.328,0.609 0,0.211 0.078,0.375 0.234,0.5 0.156,0.118 0.477,0.227 0.969,0.329 l 0.297,0.078 c 0.644,0.136 1.097,0.328 1.359,0.578 0.27,0.25 0.406,0.594 0.406,1.031 0,0.512 -0.203,0.918 -0.609,1.219 -0.398,0.293 -0.945,0.437 -1.641,0.437 -0.304,0 -0.617,-0.031 -0.937,-0.093 -0.313,-0.051 -0.641,-0.133 -0.985,-0.25 l 0,-0.922 c 0.333,0.168 0.657,0.296 0.969,0.39 0.321,0.086 0.645,0.125 0.969,0.125 0.414,0 0.738,-0.07 0.969,-0.219 0.226,-0.144 0.343,-0.347 0.343,-0.609 0,-0.25 -0.085,-0.437 -0.25,-0.562 -0.156,-0.133 -0.515,-0.258 -1.078,-0.375 l -0.312,-0.078 c -0.555,-0.114 -0.953,-0.29 -1.203,-0.532 -0.25,-0.25 -0.375,-0.582 -0.375,-1 0,-0.519 0.179,-0.914 0.547,-1.187 0.363,-0.281 0.882,-0.422 1.562,-0.422 0.32,0 0.629,0.027 0.922,0.078 0.301,0.043 0.57,0.109 0.812,0.203 z"
           style="fill:none;stroke:#000000;stroke-width:0.0534196;stroke-linecap:butt;stroke-linejoin:miter;stroke-miterlimit:4;stroke-dasharray:0.213678, 0.0534196;stroke-dashoffset:0;stroke-opacity:0.77403804"
           id="path394"
           inkscape:connector-curvature="0" /></g><path
         d="m 353.574,321.223 45.414,0 c 1.516,0 2.739,-1.223 2.739,-2.739 l 0,-9.382 c 0,-1.516 -1.223,-2.735 -2.739,-2.735 l -45.414,0 c -1.515,0 -2.734,1.219 -2.734,2.735 l 0,9.382 c 0,1.516 1.219,2.739 2.734,2.739 z"
         style="fill:#ffffff;fill-opacity:0.75480801;fill-rule:nonzero;stroke:none"
         id="path396"
         inkscape:connector-curvature="0" /><g
         style="stroke:#000000;stroke-opacity:1;stroke-width:1.24;stroke-miterlimit:4;stroke-dasharray:1.24,2.48;stroke-dashoffset:0"
         id="g398"
         transform="matrix(1,0,0,-1,0,612)"><path
           d="m 353.574,290.777 45.414,0 c 1.516,0 2.739,1.223 2.739,2.739 l 0,9.382 c 0,1.516 -1.223,2.735 -2.739,2.735 l -45.414,0 c -1.515,0 -2.734,-1.219 -2.734,-2.735 l 0,-9.382 c 0,-1.516 1.219,-2.739 2.734,-2.739 z"
           style="fill:none;stroke:#000000;stroke-width:1.24;stroke-linecap:butt;stroke-linejoin:miter;stroke-miterlimit:4;stroke-dasharray:1.24,2.48;stroke-dashoffset:0;stroke-opacity:1"
           id="path400"
           inkscape:connector-curvature="0" /></g><text
         y="-311.44418"
         x="355.91721"
         transform="scale(1,-1)"
         style="font-variant:normal;font-weight:normal;font-size:9.61553001px;font-family:'DejaVu Sans';-inkscape-font-specification:DejaVuSans;writing-mode:lr-tb;fill:#000000;fill-opacity:1;fill-rule:nonzero;stroke:none"
         id="text402"><tspan
           x="355.91721 358.58069 364.66733 369.94626 372.60977 378.69638 384.79263 390.70618"
           y="-311.44418"
           sodipodi:role="line"
           id="tspan404">includes</tspan></text>
<g
         id="g406"
         transform="matrix(1,0,0,-1,0,612)"><path
           d="m 356.855,295.086 0.907,0 0,5.469 -0.907,0 0,-5.469 z m 0,-2.125 0.907,0 0,1.141 -0.907,0 0,-1.141 z m 7.215,4.297 0,3.297 -0.89,0 0,-3.266 c 0,-0.519 -0.106,-0.906 -0.313,-1.156 -0.199,-0.258 -0.5,-0.391 -0.906,-0.391 -0.481,0 -0.859,0.156 -1.141,0.469 -0.281,0.305 -0.422,0.719 -0.422,1.25 l 0,3.094 -0.906,0 0,-5.469 0.906,0 0,0.844 c 0.219,-0.321 0.473,-0.563 0.766,-0.719 0.289,-0.164 0.625,-0.25 1,-0.25 0.625,0 1.098,0.195 1.422,0.578 0.32,0.387 0.484,0.961 0.484,1.719 z m 5.492,-1.969 0,0.844 c -0.25,-0.133 -0.507,-0.238 -0.765,-0.313 -0.25,-0.07 -0.508,-0.109 -0.766,-0.109 -0.586,0 -1.039,0.187 -1.359,0.562 -0.324,0.368 -0.484,0.883 -0.484,1.547 0,0.668 0.16,1.188 0.484,1.563 0.32,0.367 0.773,0.547 1.359,0.547 0.258,0 0.516,-0.032 0.766,-0.094 0.258,-0.07 0.515,-0.18 0.765,-0.328 l 0,0.844 c -0.25,0.117 -0.511,0.199 -0.781,0.25 -0.261,0.062 -0.543,0.093 -0.843,0.093 -0.836,0 -1.497,-0.254 -1.985,-0.765 -0.48,-0.52 -0.719,-1.223 -0.719,-2.11 0,-0.882 0.243,-1.582 0.735,-2.093 0.488,-0.508 1.16,-0.766 2.015,-0.766 0.282,0 0.551,0.027 0.813,0.078 0.258,0.055 0.515,0.137 0.765,0.25 z m 1.36,-2.328 0.906,0 0,7.594 -0.906,0 0,-7.594 z m 2.574,5.437 0,-3.312 0.906,0 0,3.281 c 0,0.512 0.098,0.899 0.297,1.156 0.207,0.262 0.508,0.391 0.906,0.391 0.489,0 0.875,-0.148 1.157,-0.453 0.281,-0.313 0.422,-0.738 0.422,-1.281 l 0,-3.094 0.906,0 0,5.469 -0.906,0 0,-0.844 c -0.219,0.336 -0.477,0.586 -0.766,0.75 -0.281,0.156 -0.617,0.234 -1,0.234 -0.625,0 -1.106,-0.191 -1.438,-0.578 -0.324,-0.394 -0.484,-0.969 -0.484,-1.719 z m 9.805,-2.484 0,-2.953 0.89,0 0,7.594 -0.89,0 0,-0.828 c -0.188,0.335 -0.43,0.578 -0.719,0.734 -0.293,0.156 -0.641,0.234 -1.047,0.234 -0.656,0 -1.195,-0.257 -1.609,-0.781 -0.418,-0.531 -0.625,-1.226 -0.625,-2.094 0,-0.851 0.207,-1.539 0.625,-2.062 0.414,-0.531 0.953,-0.797 1.609,-0.797 0.406,0 0.754,0.078 1.047,0.234 0.289,0.157 0.531,0.399 0.719,0.719 z m -3.063,1.906 c 0,0.668 0.133,1.188 0.407,1.563 0.269,0.375 0.644,0.562 1.125,0.562 0.468,0 0.835,-0.187 1.109,-0.562 0.281,-0.375 0.422,-0.895 0.422,-1.563 0,-0.656 -0.141,-1.172 -0.422,-1.547 -0.274,-0.375 -0.641,-0.562 -1.109,-0.562 -0.481,0 -0.856,0.187 -1.125,0.562 -0.274,0.375 -0.407,0.891 -0.407,1.547 z m 10.246,-0.218 0,0.437 -4.14,0 c 0.039,0.617 0.226,1.086 0.562,1.406 0.332,0.325 0.797,0.485 1.391,0.485 0.344,0 0.676,-0.039 1,-0.125 0.332,-0.082 0.656,-0.207 0.969,-0.375 l 0,0.843 c -0.325,0.137 -0.657,0.243 -1,0.313 -0.336,0.07 -0.672,0.109 -1.016,0.109 -0.875,0 -1.57,-0.25 -2.078,-0.75 -0.512,-0.507 -0.766,-1.203 -0.766,-2.078 0,-0.894 0.239,-1.601 0.719,-2.125 0.488,-0.519 1.145,-0.781 1.969,-0.781 0.738,0 1.32,0.234 1.75,0.703 0.426,0.469 0.64,1.117 0.64,1.938 z m -0.906,-0.266 c 0,-0.488 -0.137,-0.879 -0.406,-1.172 -0.274,-0.301 -0.625,-0.453 -1.063,-0.453 -0.511,0 -0.918,0.148 -1.218,0.437 -0.293,0.282 -0.465,0.68 -0.516,1.188 l 3.203,0 z m 5.617,-2.094 0,0.86 c -0.25,-0.133 -0.511,-0.235 -0.781,-0.297 -0.273,-0.063 -0.559,-0.094 -0.859,-0.094 -0.438,0 -0.774,0.07 -1,0.203 -0.219,0.137 -0.328,0.34 -0.328,0.609 0,0.211 0.078,0.375 0.234,0.5 0.156,0.118 0.477,0.227 0.969,0.329 l 0.297,0.078 c 0.644,0.136 1.097,0.328 1.359,0.578 0.269,0.25 0.406,0.594 0.406,1.031 0,0.512 -0.203,0.918 -0.609,1.219 -0.399,0.293 -0.945,0.437 -1.641,0.437 -0.304,0 -0.617,-0.031 -0.937,-0.093 -0.313,-0.051 -0.641,-0.133 -0.985,-0.25 l 0,-0.922 c 0.332,0.168 0.657,0.297 0.969,0.39 0.32,0.086 0.645,0.125 0.969,0.125 0.414,0 0.738,-0.07 0.969,-0.218 0.226,-0.145 0.343,-0.348 0.343,-0.61 0,-0.25 -0.086,-0.437 -0.25,-0.562 -0.156,-0.133 -0.515,-0.258 -1.078,-0.375 l -0.312,-0.078 c -0.555,-0.114 -0.953,-0.29 -1.203,-0.532 -0.25,-0.25 -0.375,-0.582 -0.375,-1 0,-0.519 0.179,-0.914 0.546,-1.187 0.364,-0.281 0.883,-0.422 1.563,-0.422 0.32,0 0.629,0.027 0.922,0.078 0.301,0.043 0.57,0.109 0.812,0.203 z"
           style="fill:none;stroke:#000000;stroke-width:0.0534196;stroke-linecap:butt;stroke-linejoin:miter;stroke-miterlimit:4;stroke-dasharray:0.213678, 0.0534196;stroke-dashoffset:0;stroke-opacity:0.77403804"
           id="path408"
           inkscape:connector-curvature="0" /></g><text
         y="-537.83606"
         x="427.71014"
         transform="matrix(0.71662575,-0.69745791,-0.69745791,-0.71662575,0,0)"
         style="font-variant:normal;font-weight:normal;font-size:9.61552906px;font-family:'DejaVu Sans';-inkscape-font-specification:DejaVuSans;writing-mode:lr-tb;fill:#000000;fill-opacity:1;fill-rule:nonzero;stroke:none"
         id="text410"><tspan
           x="427.71014 430.37363 435.37372 438.42181"
           y="-537.83606"
           sodipodi:role="line"
           id="tspan412">is a</tspan></text>
<path
         d="m 114.309,335.621 45.414,0 c 1.515,0 2.734,-1.219 2.734,-2.734 l 0,-9.383 c 0,-1.516 -1.219,-2.738 -2.734,-2.738 l -45.414,0 c -1.516,0 -2.739,1.222 -2.739,2.738 l 0,9.383 c 0,1.515 1.223,2.734 2.739,2.734 z"
         style="fill:#ffffff;fill-opacity:0.75480801;fill-rule:nonzero;stroke:none"
         id="path414"
         inkscape:connector-curvature="0" /><g
         style="stroke:#000000;stroke-opacity:1;stroke-width:1.24;stroke-miterlimit:4;stroke-dasharray:1.24,2.48;stroke-dashoffset:0"
         id="g416"
         transform="matrix(1,0,0,-1,0,612)"><path
           d="m 114.309,276.379 45.414,0 c 1.515,0 2.734,1.219 2.734,2.734 l 0,9.383 c 0,1.516 -1.219,2.738 -2.734,2.738 l -45.414,0 c -1.516,0 -2.739,-1.222 -2.739,-2.738 l 0,-9.383 c 0,-1.515 1.223,-2.734 2.739,-2.734 z"
           style="fill:none;stroke:#000000;stroke-width:1.24;stroke-linecap:butt;stroke-linejoin:miter;stroke-miterlimit:4;stroke-dasharray:1.24,2.48;stroke-dashoffset:0;stroke-opacity:1"
           id="path418"
           inkscape:connector-curvature="0" /></g><text
         y="-324.73682"
         x="116.09554"
         transform="scale(1,-1)"
         style="font-variant:normal;font-weight:normal;font-size:9.61553001px;font-family:'DejaVu Sans';-inkscape-font-specification:DejaVuSans;writing-mode:lr-tb;fill:#000000;fill-opacity:1;fill-rule:nonzero;stroke:none"
         id="text420"><tspan
           x="116.09554 121.37447 127.24956 133.33618 137.10547 142.99017 145.65369 151.76915"
           y="-324.73682"
           sodipodi:role="line"
           id="tspan422">contains</tspan></text>
<g
         id="g424"
         transform="matrix(1,0,0,-1,0,612)"><path
           d="m 120.969,281.996 0,0.844 c -0.25,-0.133 -0.508,-0.238 -0.766,-0.313 -0.25,-0.07 -0.508,-0.109 -0.765,-0.109 -0.586,0 -1.04,0.187 -1.36,0.562 -0.324,0.368 -0.484,0.883 -0.484,1.547 0,0.668 0.16,1.188 0.484,1.563 0.32,0.367 0.774,0.547 1.36,0.547 0.257,0 0.515,-0.032 0.765,-0.094 0.258,-0.07 0.516,-0.18 0.766,-0.328 l 0,0.844 c -0.25,0.117 -0.512,0.199 -0.781,0.25 -0.262,0.062 -0.543,0.093 -0.844,0.093 -0.836,0 -1.496,-0.254 -1.985,-0.765 -0.48,-0.52 -0.718,-1.223 -0.718,-2.11 0,-0.882 0.242,-1.582 0.734,-2.093 0.488,-0.508 1.16,-0.766 2.016,-0.766 0.281,0 0.55,0.027 0.812,0.078 0.258,0.055 0.516,0.137 0.766,0.25 z m 3.484,0.422 c -0.48,0 -0.859,0.187 -1.141,0.562 -0.281,0.375 -0.421,0.891 -0.421,1.547 0,0.657 0.132,1.172 0.406,1.547 0.281,0.375 0.664,0.563 1.156,0.563 0.477,0 0.859,-0.188 1.141,-0.563 0.281,-0.375 0.422,-0.89 0.422,-1.547 0,-0.644 -0.141,-1.156 -0.422,-1.531 -0.282,-0.383 -0.664,-0.578 -1.141,-0.578 z m 0,-0.75 c 0.781,0 1.395,0.258 1.844,0.766 0.445,0.5 0.672,1.199 0.672,2.093 0,0.899 -0.227,1.602 -0.672,2.11 -0.449,0.511 -1.063,0.765 -1.844,0.765 -0.781,0 -1.398,-0.254 -1.844,-0.765 -0.449,-0.508 -0.671,-1.211 -0.671,-2.11 0,-0.894 0.222,-1.593 0.671,-2.093 0.446,-0.508 1.063,-0.766 1.844,-0.766 z m 8.301,2.297 0,3.297 -0.891,0 0,-3.266 c 0,-0.519 -0.105,-0.906 -0.312,-1.156 -0.199,-0.258 -0.5,-0.391 -0.906,-0.391 -0.481,0 -0.86,0.156 -1.141,0.469 -0.281,0.305 -0.422,0.719 -0.422,1.25 l 0,3.094 -0.906,0 0,-5.469 0.906,0 0,0.844 c 0.219,-0.321 0.473,-0.563 0.766,-0.719 0.289,-0.164 0.625,-0.25 1,-0.25 0.625,0 1.097,0.195 1.422,0.578 0.32,0.387 0.484,0.961 0.484,1.719 z m 2.449,-3.719 0,1.547 1.859,0 0,0.703 -1.859,0 0,2.969 c 0,0.437 0.063,0.726 0.188,0.859 0.125,0.125 0.375,0.188 0.75,0.188 l 0.921,0 0,0.75 -0.921,0 c -0.7,0 -1.184,-0.129 -1.453,-0.391 -0.262,-0.258 -0.391,-0.726 -0.391,-1.406 l 0,-2.969 -0.656,0 0,-0.703 0.656,0 0,-1.547 0.906,0 z m 5.367,4.266 c -0.718,0 -1.218,0.086 -1.5,0.25 -0.281,0.168 -0.422,0.449 -0.422,0.843 0,0.325 0.102,0.579 0.313,0.766 0.207,0.188 0.492,0.281 0.859,0.281 0.5,0 0.899,-0.175 1.203,-0.531 0.301,-0.351 0.454,-0.82 0.454,-1.406 l 0,-0.203 -0.907,0 z m 1.797,-0.375 0,3.125 -0.89,0 0,-0.828 c -0.211,0.336 -0.469,0.578 -0.782,0.734 -0.304,0.156 -0.672,0.234 -1.109,0.234 -0.563,0 -1.012,-0.156 -1.344,-0.468 -0.336,-0.313 -0.5,-0.735 -0.5,-1.266 0,-0.613 0.207,-1.078 0.625,-1.391 0.414,-0.312 1.031,-0.468 1.844,-0.468 l 1.266,0 0,-0.094 c 0,-0.406 -0.141,-0.723 -0.422,-0.953 -0.274,-0.227 -0.653,-0.344 -1.141,-0.344 -0.312,0 -0.621,0.043 -0.922,0.125 -0.293,0.074 -0.574,0.184 -0.844,0.328 l 0,-0.828 c 0.332,-0.125 0.649,-0.219 0.954,-0.281 0.312,-0.063 0.613,-0.094 0.906,-0.094 0.789,0 1.379,0.203 1.765,0.609 0.395,0.407 0.594,1.028 0.594,1.86 z m 1.617,-2.344 0.907,0 0,5.469 -0.907,0 0,-5.469 z m 0,-2.125 0.907,0 0,1.141 -0.907,0 0,-1.141 z m 7.211,4.297 0,3.297 -0.89,0 0,-3.266 c 0,-0.519 -0.106,-0.906 -0.313,-1.156 -0.199,-0.258 -0.5,-0.391 -0.906,-0.391 -0.481,0 -0.859,0.156 -1.141,0.469 -0.281,0.305 -0.422,0.719 -0.422,1.25 l 0,3.094 -0.906,0 0,-5.469 0.906,0 0,0.844 c 0.219,-0.321 0.473,-0.563 0.766,-0.719 0.289,-0.164 0.625,-0.25 1,-0.25 0.625,0 1.098,0.195 1.422,0.578 0.32,0.387 0.484,0.961 0.484,1.719 z m 5.043,-2.016 0,0.86 c -0.25,-0.133 -0.511,-0.235 -0.781,-0.297 -0.273,-0.063 -0.559,-0.094 -0.859,-0.094 -0.438,0 -0.774,0.07 -1,0.203 -0.219,0.137 -0.328,0.34 -0.328,0.609 0,0.211 0.078,0.375 0.234,0.5 0.156,0.118 0.476,0.227 0.969,0.329 l 0.297,0.078 c 0.644,0.136 1.097,0.328 1.359,0.578 0.269,0.25 0.406,0.594 0.406,1.031 0,0.512 -0.203,0.918 -0.609,1.219 -0.399,0.293 -0.946,0.437 -1.641,0.437 -0.305,0 -0.617,-0.031 -0.937,-0.093 -0.313,-0.051 -0.641,-0.133 -0.985,-0.25 l 0,-0.922 c 0.332,0.168 0.657,0.297 0.969,0.39 0.32,0.086 0.645,0.125 0.969,0.125 0.414,0 0.738,-0.07 0.969,-0.218 0.226,-0.145 0.343,-0.348 0.343,-0.61 0,-0.25 -0.086,-0.437 -0.25,-0.562 -0.156,-0.133 -0.515,-0.258 -1.078,-0.375 l -0.312,-0.078 c -0.555,-0.114 -0.953,-0.289 -1.203,-0.532 -0.25,-0.25 -0.375,-0.582 -0.375,-1 0,-0.519 0.179,-0.914 0.546,-1.187 0.364,-0.281 0.883,-0.422 1.563,-0.422 0.32,0 0.629,0.027 0.922,0.078 0.301,0.043 0.57,0.109 0.812,0.203 z"
           style="fill:none;stroke:#000000;stroke-width:0.0534196;stroke-linecap:butt;stroke-linejoin:miter;stroke-miterlimit:4;stroke-dasharray:0.213678, 0.0534196;stroke-dashoffset:0;stroke-opacity:0.77403804"
           id="path426"
           inkscape:connector-curvature="0" /></g><text
         y="-308.90732"
         x="-252.66718"
         transform="matrix(-0.01054364,-0.99994441,-0.99994441,0.01054364,0,0)"
         style="font-variant:normal;font-weight:normal;font-size:9.99085236px;font-family:'DejaVu Sans';-inkscape-font-specification:DejaVuSans;writing-mode:lr-tb;fill:#000000;fill-opacity:1;fill-rule:nonzero;stroke:none"
         id="text428"><tspan
           x="-252.66718 -247.47192 -241.13773 -238.37027 -235.6028 -231.68639"
           y="-308.90732"
           sodipodi:role="line"
           id="tspan430">splits</tspan></text>
<g
         id="g432"
         transform="matrix(-1,-0.972938,0.972938,-1,0,612)"><path
           d="m 28.11,331.764 38.566,5.845"
           style="fill:none;stroke:#000000;stroke-width:0.47859901;stroke-linecap:butt;stroke-linejoin:miter;stroke-miterlimit:10;stroke-dasharray:none;stroke-opacity:1"
           id="path434"
           inkscape:connector-curvature="0" /></g><path
         d="m 262.031,209.281 2.821,-0.984 -5.926,-1.57 1.734,5.878 0.906,-2.843 0.465,-0.481 z"
         style="fill:#000000;fill-opacity:1;fill-rule:nonzero;stroke:none"
         id="path436"
         inkscape:connector-curvature="0" /><text
         y="80.449501"
         x="318.80042"
         transform="matrix(0.59057316,0.80698411,0.80698411,-0.59057316,0,0)"
         style="font-variant:normal;font-weight:normal;font-size:9.61553001px;font-family:'DejaVu Sans';-inkscape-font-specification:DejaVuSans;writing-mode:lr-tb;fill:#000000;fill-opacity:1;fill-rule:nonzero;stroke:none"
         id="text438"><tspan
           x="318.80042 324.89664 330.81021 336.89682 342.81039 346.76236 352.64706 356.44519 362.35876"
           y="80.449501"
           sodipodi:role="line"
           id="tspan440">generates</tspan></text>
<path
         d="m 267.773,204.48 -26.742,0 c -2.195,0 -3.965,-1.765 -3.965,-3.96 l 0,-13.586 c 0,-2.196 1.77,-3.961 3.965,-3.961 l 26.742,0 c 2.196,0 3.961,1.765 3.961,3.961 l 0,13.586 c 0,2.195 -1.765,3.96 -3.961,3.96 z"
         style="fill:none;stroke:#000000;stroke-width:0.308328;stroke-linecap:butt;stroke-linejoin:miter;stroke-miterlimit:4;stroke-dasharray:none;stroke-opacity:1"
         id="path442"
         inkscape:connector-curvature="0" /><text
         y="-189.28285"
         x="238.83621"
         transform="scale(1,-1)"
         style="font-variant:normal;font-weight:bold;font-size:14.95749092px;font-family:'DejaVu Sans';-inkscape-font-specification:DejaVuSans-Bold;writing-mode:lr-tb;fill:#000000;fill-opacity:1;fill-rule:nonzero;stroke:none"
         id="text444"><tspan
           x="238.83621 249.21671 259.41772"
           y="-189.28285"
           sodipodi:role="line"
           id="tspan446">ATP</tspan></text>
</g></g></svg>