<?xml version="1.0" encoding="UTF-8" standalone="no"?>
<!-- Created with Inkscape (http://www.inkscape.org/) -->

<svg
   xmlns:dc="http://purl.org/dc/elements/1.1/"
   xmlns:cc="http://creativecommons.org/ns#"
   xmlns:rdf="http://www.w3.org/1999/02/22-rdf-syntax-ns#"
   xmlns:svg="http://www.w3.org/2000/svg"
   xmlns="http://www.w3.org/2000/svg"
   xmlns:sodipodi="http://sodipodi.sourceforge.net/DTD/sodipodi-0.dtd"
   xmlns:inkscape="http://www.inkscape.org/namespaces/inkscape"
   width="210mm"
   height="297mm"
   viewBox="0 0 744.09448819 1052.3622047"
   id="svg2"
   version="1.1"
   inkscape:version="0.91 r"
   sodipodi:docname="scientificmethod.svg">
  <title
     id="title5212">Scientific Method</title>
  <defs
     id="defs4" />
  <sodipodi:namedview
     id="base"
     pagecolor="#ffffff"
     bordercolor="#666666"
     borderopacity="1.0"
     inkscape:pageopacity="0.0"
     inkscape:pageshadow="2"
     inkscape:zoom="0.98994949"
     inkscape:cx="628.93323"
     inkscape:cy="664.39062"
     inkscape:document-units="px"
     inkscape:current-layer="layer1"
     showgrid="false"
     showguides="false"
     inkscape:window-width="1920"
     inkscape:window-height="1028"
     inkscape:window-x="0"
     inkscape:window-y="0"
     inkscape:window-maximized="1" />
  <metadata
     id="metadata7">
    <rdf:RDF>
      <cc:Work
         rdf:about="">
        <dc:format>image/svg+xml</dc:format>
        <dc:type
           rdf:resource="http://purl.org/dc/dcmitype/StillImage" />
        <dc:title>Scientific Method</dc:title>
        <cc:license
           rdf:resource="http://creativecommons.org/licenses/by-nc-sa/3.0/" />
        <dc:date>20180113</dc:date>
        <dc:creator>
          <cc:Agent>
            <dc:title>jeremy seto</dc:title>
          </cc:Agent>
        </dc:creator>
        <dc:rights>
          <cc:Agent>
            <dc:title>CC-BY-NC-SA</dc:title>
          </cc:Agent>
        </dc:rights>
        <dc:description>The Scientific Method as a reiterative process</dc:description>
        <dc:contributor>
          <cc:Agent>
            <dc:title>jeremy Seto jeremy.seto@gmail.com</dc:title>
          </cc:Agent>
        </dc:contributor>
      </cc:Work>
      <cc:License
         rdf:about="http://creativecommons.org/licenses/by-nc-sa/3.0/">
        <cc:permits
           rdf:resource="http://creativecommons.org/ns#Reproduction" />
        <cc:permits
           rdf:resource="http://creativecommons.org/ns#Distribution" />
        <cc:requires
           rdf:resource="http://creativecommons.org/ns#Notice" />
        <cc:requires
           rdf:resource="http://creativecommons.org/ns#Attribution" />
        <cc:prohibits
           rdf:resource="http://creativecommons.org/ns#CommercialUse" />
        <cc:permits
           rdf:resource="http://creativecommons.org/ns#DerivativeWorks" />
        <cc:requires
           rdf:resource="http://creativecommons.org/ns#ShareAlike" />
      </cc:License>
    </rdf:RDF>
  </metadata>
  <g
     inkscape:label="Layer 1"
     inkscape:groupmode="layer"
     id="layer1">
    <g
       id="g5148"
       inkscape:export-xdpi="150"
       inkscape:export-ydpi="150">
      <rect
         y="8.8746252"
         x="6.0609155"
         height="703.06616"
         width="737.41144"
         id="rect5146"
         style="opacity:0.98999999;fill:#ffffff;fill-opacity:1;stroke:none;stroke-width:90;stroke-miterlimit:4;stroke-dasharray:none;stroke-dashoffset:0;stroke-opacity:0.99215686" />
      <g
         transform="matrix(-0.16447238,0.01404754,0.01404754,0.16447238,192.51789,282.09614)"
         id="g5142"
         inkscape:label="Layer 1"
         style="fill:#56ffba;fill-opacity:0.99215686;stroke:#56ffba;stroke-opacity:0.99215686">
        <path
           inkscape:connector-curvature="0"
           id="path5144"
           d="m -82.887668,653.99555 c 0.74662,-40.86121 3.74657,-67.65258 11.78532,-105.25 27.75059,-129.79027 99.23568,-237.44077 208.337148,-313.73814 25.06981,-17.53194 55.13296,-33.89503 87.08703,-47.40066 7.7,-3.25446 15.01133,-6.34442 16.2474,-6.86658 l 2.24739,-0.94937 -2.57558,-5.77262 c -3.46386,-7.7635 -39.41921,-94.912466 -39.41921,-95.544706 0,-0.27459 3.2625,0.38026 7.25,1.45523 3.9875,1.07498 9.725,2.60208 12.75,3.39357 3.025,0.79149 9.1,2.51489 13.5,3.82976 4.4,1.31488 11.825,3.38167 16.5,4.59287 4.675,1.21119 9.625,2.5434 11,2.96047 9.15049,2.77551 14.4715,4.27708 32,9.030316 1.925,0.522 7.325,2.06603 12,3.43117 10.06614,2.9394 17.88119,5.07243 27.67975,7.55486 3.94887,1.00043 7.5694,2.05978 8.04562,2.3541 0.90426,0.55886 17.59518,5.15714 34.77463,9.58027 1.65,0.42482 4.575,1.29135 6.5,1.92562 1.925,0.63427 6.875,2.06484 11,3.17905 4.125,1.1142 9.075,2.45695 11,2.98388 5.31222,1.45411 28.09595,7.89355 31.5,8.90294 1.65,0.48927 6.0375,1.67826 9.75,2.6422 3.7125,0.96394 6.75,2.17736 6.75,2.6965 0,0.51914 -12.97009,23.73985 -28.82243,51.60158 -15.85234,27.86173 -29.14881,51.33269 -29.54771,52.15769 -0.3989,0.825 -1.82558,3.3 -3.1704,5.5 -1.34482,2.2 -3.15427,5.35 -4.02101,7 -0.86674,1.65 -2.66347,4.8 -3.99273,7 -1.32926,2.2 -3.32984,5.8 -4.44572,8 -1.11588,2.2 -3.11646,5.8 -4.44572,8 -1.32926,2.2 -3.12599,5.35 -3.99273,7 -0.86674,1.65 -2.66674,4.8 -4,7 -1.33326,2.2 -3.12099,5.35 -3.97273,7 -0.85174,1.65 -1.99814,3.675 -2.54757,4.5 -0.54943,0.825 -8.83423,15.37421 -18.41067,32.33158 -9.57644,16.95736 -17.64151,30.45736 -17.92238,30 -0.28087,-0.45737 -5.90501,-13.88158 -12.4981,-29.83158 -6.5931,-15.95 -15.69229,-37.325 -20.22043,-47.5 -4.52815,-10.175 -9.06194,-20.41177 -10.0751,-22.74837 l -1.8421,-4.24837 -9.28623,3.32144 c -25.84194,9.24297 -57.69728,24.17068 -82.05023,38.44949 -17.70071,10.37843 -23.4958,14.56104 -38.73693,27.95843 -70.539278,62.00606 -117.430788,147.23402 -134.393298,244.26738 -4.4414802,25.40733 -5.7799002,40.25795 -6.3313102,70.25 l -0.52857,28.75 -45.5086298,0 -45.50864,0 0.56187,-30.75 z"
           style="fill:#56ffba;fill-opacity:0.99215686;stroke:#56ffba;stroke-opacity:0.99215686" />
      </g>
      <g
         transform="matrix(0.78390418,0,0,0.78390418,184.44507,0.21226)"
         id="g5041">
        <path
           inkscape:transform-center-y="208.9738"
           inkscape:transform-center-x="-42.563727"
           id="path4993"
           style="opacity:0.98999999;fill:none;fill-opacity:1;stroke:#ffa5d1;stroke-width:90;stroke-miterlimit:4;stroke-dasharray:none;stroke-dashoffset:0;stroke-opacity:1"
           d="m 281.8473,249.92143 10.0085,26.14391 17.63704,-21.73958 z m -37.46923,24.86136 A 284.86301,284.86301 0 0 0 61.586871,563.0428"
           inkscape:connector-curvature="0" />
        <path
           inkscape:connector-curvature="0"
           d="m 46.677895,521.44594 27.81639,-3.14995 -16.636147,-22.51473 z m 14.697328,42.49728 a 284.86301,284.86301 0 0 0 233.366197,249.0917"
           style="opacity:0.98999999;fill:none;fill-opacity:1;stroke:#56ffba;stroke-width:90;stroke-miterlimit:4;stroke-dasharray:none;stroke-dashoffset:0;stroke-opacity:1"
           id="path4995" />
        <path
           inkscape:connector-curvature="0"
           d="m 269.35076,822.35236 4.63117,-27.60844 -26.2252,9.79352 z m 44.90143,-2.42737 A 284.86301,284.86301 0 0 0 617.97306,664.1685"
           style="opacity:0.98999999;fill:none;fill-opacity:1;stroke:#ffd4d1;stroke-width:90;stroke-miterlimit:4;stroke-dasharray:none;stroke-dashoffset:0;stroke-opacity:1"
           id="path4991"
           inkscape:transform-center-x="-42.563727"
           inkscape:transform-center-y="208.9738" />
        <path
           id="path4979"
           style="opacity:0.98999999;fill:none;fill-opacity:1;stroke:#ffd688;stroke-width:90;stroke-miterlimit:4;stroke-dasharray:none;stroke-dashoffset:0;stroke-opacity:1"
           d="m 605.36316,711.13365 -25.17147,-12.25034 1.97664,27.92431 z m 10.3708,-43.75474 A 284.86301,284.86301 0 0 0 552.23519,332.00694"
           inkscape:connector-curvature="0" />
        <path
           inkscape:connector-curvature="0"
           d="m 607.78672,382.37757 -28.11933,20.13515 27.95806,12.38175 z M 572.78079,354.15319 C 494.33547,255.07635 359.99275,219.52447 242.80917,266.83091"
           style="opacity:0.98999999;fill:none;fill-opacity:1;stroke:#8affff;stroke-width:90;stroke-miterlimit:4;stroke-dasharray:none;stroke-dashoffset:0;stroke-opacity:1"
           id="path5001"
           inkscape:transform-center-x="-69.341973"
           inkscape:transform-center-y="-210.14272"
           sodipodi:nodetypes="cccccc" />
        <path
           style="fill:#fda4cf;fill-opacity:1;fill-rule:evenodd;stroke:#ffa5d1;stroke-width:1px;stroke-linecap:butt;stroke-linejoin:miter;stroke-opacity:1"
           d="m 212.03281,193.32327 15.79408,41.439 -2.6971,1.5355 32.47129,74.74227 20.46568,53.18973 115.46834,-142.52696 z"
           id="path5011"
           inkscape:connector-curvature="0"
           sodipodi:nodetypes="ccccccc" />
      </g>
      <text
         sodipodi:linespacing="125%"
         id="text5049"
         y="73.952126"
         x="374.09363"
         style="font-style:normal;font-variant:normal;font-weight:bold;font-stretch:normal;font-size:35px;line-height:125%;font-family:'noto sans';-inkscape-font-specification:'noto sans, Bold';text-align:center;letter-spacing:0px;word-spacing:0px;writing-mode:lr-tb;text-anchor:middle;fill:#000000;fill-opacity:1;stroke:none;stroke-width:1px;stroke-linecap:butt;stroke-linejoin:miter;stroke-opacity:1"
         xml:space="preserve"><tspan
           style="font-size:40px"
           y="73.952126"
           x="374.09363"
           id="tspan5051"
           sodipodi:role="line">The Scientific Method</tspan><tspan
           style="font-size:40px"
           id="tspan5053"
           y="117.70213"
           x="374.09363"
           sodipodi:role="line">Revision and Extension of Knowledge</tspan></text>
      <text
         sodipodi:linespacing="125%"
         id="text5055"
         y="396.92511"
         x="448.57355"
         style="font-style:normal;font-variant:normal;font-weight:bold;font-stretch:normal;font-size:26.43509483px;line-height:125%;font-family:'noto sans';-inkscape-font-specification:'noto sans, Bold';text-align:center;letter-spacing:0px;word-spacing:0px;writing-mode:lr-tb;text-anchor:middle;fill:#000000;fill-opacity:1;stroke:none;stroke-width:1px;stroke-linecap:butt;stroke-linejoin:miter;stroke-opacity:1"
         xml:space="preserve"><tspan
           y="396.92511"
           x="448.57355"
           id="tspan5057"
           sodipodi:role="line">Refine, Alter,</tspan><tspan
           id="tspan5059"
           y="429.96896"
           x="448.57355"
           sodipodi:role="line">Expand or Reject</tspan><tspan
           id="tspan5061"
           y="463.01285"
           x="448.57355"
           sodipodi:role="line">Hypotheses</tspan></text>
      <text
         sodipodi:linespacing="125%"
         id="text5063"
         y="181.33972"
         x="424.9198"
         style="font-style:normal;font-variant:normal;font-weight:bold;font-stretch:normal;font-size:26.43509483px;line-height:125%;font-family:'noto sans';-inkscape-font-specification:'noto sans, Bold';text-align:center;letter-spacing:0px;word-spacing:0px;writing-mode:lr-tb;text-anchor:middle;fill:#000000;fill-opacity:1;stroke:none;stroke-width:1px;stroke-linecap:butt;stroke-linejoin:miter;stroke-opacity:1"
         xml:space="preserve"><tspan
           y="181.33972"
           x="424.9198"
           id="tspan5065"
           sodipodi:role="line">Make</tspan><tspan
           id="tspan5067"
           y="214.38359"
           x="424.9198"
           sodipodi:role="line">Observations</tspan></text>
      <text
         sodipodi:linespacing="125%"
         id="text5069"
         y="284.5809"
         x="645.17224"
         style="font-style:normal;font-variant:normal;font-weight:bold;font-stretch:normal;font-size:26.43509483px;line-height:125%;font-family:'noto sans';-inkscape-font-specification:'noto sans, Bold';text-align:center;letter-spacing:0px;word-spacing:0px;writing-mode:lr-tb;text-anchor:middle;fill:#000000;fill-opacity:1;stroke:none;stroke-width:1px;stroke-linecap:butt;stroke-linejoin:miter;stroke-opacity:1"
         xml:space="preserve"><tspan
           y="284.5809"
           x="648.60571"
           id="tspan5071"
           sodipodi:role="line">Think of </tspan><tspan
           id="tspan5073"
           y="317.62476"
           x="645.17224"
           sodipodi:role="line">Interesting</tspan><tspan
           id="tspan5075"
           y="350.66864"
           x="645.17224"
           sodipodi:role="line">Questions</tspan></text>
      <text
         sodipodi:linespacing="125%"
         id="text5077"
         y="539.40839"
         x="664.78015"
         style="font-style:normal;font-variant:normal;font-weight:bold;font-stretch:normal;font-size:26.43509483px;line-height:125%;font-family:'noto sans';-inkscape-font-specification:'noto sans, Bold';text-align:center;letter-spacing:0px;word-spacing:0px;writing-mode:lr-tb;text-anchor:middle;fill:#000000;fill-opacity:1;stroke:none;stroke-width:1px;stroke-linecap:butt;stroke-linejoin:miter;stroke-opacity:1"
         xml:space="preserve"><tspan
           y="539.40839"
           x="664.78015"
           id="tspan5079"
           sodipodi:role="line">Formulate</tspan><tspan
           id="tspan5081"
           y="572.45227"
           x="664.78015"
           sodipodi:role="line">Hypotheses</tspan></text>
      <text
         sodipodi:linespacing="125%"
         id="text5083"
         y="612.39172"
         x="396.28256"
         style="font-style:normal;font-variant:normal;font-weight:bold;font-stretch:normal;font-size:26.43509483px;line-height:125%;font-family:'noto sans';-inkscape-font-specification:'noto sans, Bold';text-align:center;letter-spacing:0px;word-spacing:0px;writing-mode:lr-tb;text-anchor:middle;fill:#000000;fill-opacity:1;stroke:none;stroke-width:1px;stroke-linecap:butt;stroke-linejoin:miter;stroke-opacity:1"
         xml:space="preserve"><tspan
           id="tspan5089"
           y="612.39172"
           x="396.28256"
           sodipodi:role="line">Experiment</tspan><tspan
           id="tspan5110"
           y="645.43555"
           x="396.28256"
           sodipodi:role="line">and</tspan><tspan
           id="tspan5112"
           y="678.47943"
           x="396.28256"
           sodipodi:role="line">Gather Data</tspan></text>
      <text
         sodipodi:linespacing="125%"
         id="text5091"
         y="381.36053"
         x="220.83682"
         style="font-style:normal;font-variant:normal;font-weight:bold;font-stretch:normal;font-size:26.43509483px;line-height:125%;font-family:'noto sans';-inkscape-font-specification:'noto sans, Bold';text-align:center;letter-spacing:0px;word-spacing:0px;writing-mode:lr-tb;text-anchor:middle;fill:#000000;fill-opacity:1;stroke:none;stroke-width:1px;stroke-linecap:butt;stroke-linejoin:miter;stroke-opacity:1"
         xml:space="preserve"><tspan
           id="tspan5095"
           y="381.36053"
           x="220.83682"
           sodipodi:role="line">Analyze Data</tspan><tspan
           id="tspan5116"
           y="414.40439"
           x="220.83682"
           sodipodi:role="line">and Make</tspan><tspan
           id="tspan5118"
           y="447.44824"
           x="220.83682"
           sodipodi:role="line">Conclusions</tspan></text>
      <text
         sodipodi:linespacing="125%"
         id="text5097"
         y="270.77774"
         x="70.004143"
         style="font-style:normal;font-variant:normal;font-weight:bold;font-stretch:normal;font-size:26.43509483px;line-height:125%;font-family:'noto sans';-inkscape-font-specification:'noto sans, Bold';text-align:center;letter-spacing:0px;word-spacing:0px;writing-mode:lr-tb;text-anchor:middle;fill:#000000;fill-opacity:1;stroke:none;stroke-width:1px;stroke-linecap:butt;stroke-linejoin:miter;stroke-opacity:1"
         xml:space="preserve"><tspan
           y="270.77774"
           x="70.004143"
           id="tspan5099"
           sodipodi:role="line">Develop</tspan><tspan
           id="tspan5101"
           y="303.82162"
           x="70.004143"
           sodipodi:role="line">General</tspan><tspan
           id="tspan5103"
           y="336.86548"
           x="70.004143"
           sodipodi:role="line">Theories</tspan></text>
      <g
         style="fill:#56ffba;fill-opacity:0.99215686;stroke:#56ffba;stroke-opacity:0.99215686"
         inkscape:label="Layer 1"
         id="layer1-3"
         transform="matrix(0.16507119,0,0,0.16507119,295.10638,421.84271)">
        <path
           style="fill:#56ffba;fill-opacity:0.99215686;stroke:#56ffba;stroke-opacity:0.99215686"
           d="m -82.887668,653.99555 c 0.74662,-40.86121 3.74657,-67.65258 11.78532,-105.25 27.75059,-129.79027 99.23568,-237.44077 208.337148,-313.73814 25.06981,-17.53194 55.13296,-33.89503 87.08703,-47.40066 7.7,-3.25446 15.01133,-6.34442 16.2474,-6.86658 l 2.24739,-0.94937 -2.57558,-5.77262 c -3.46386,-7.7635 -39.41921,-94.912466 -39.41921,-95.544706 0,-0.27459 3.2625,0.38026 7.25,1.45523 3.9875,1.07498 9.725,2.60208 12.75,3.39357 3.025,0.79149 9.1,2.51489 13.5,3.82976 4.4,1.31488 11.825,3.38167 16.5,4.59287 4.675,1.21119 9.625,2.5434 11,2.96047 9.15049,2.77551 14.4715,4.27708 32,9.030316 1.925,0.522 7.325,2.06603 12,3.43117 10.06614,2.9394 17.88119,5.07243 27.67975,7.55486 3.94887,1.00043 7.5694,2.05978 8.04562,2.3541 0.90426,0.55886 17.59518,5.15714 34.77463,9.58027 1.65,0.42482 4.575,1.29135 6.5,1.92562 1.925,0.63427 6.875,2.06484 11,3.17905 4.125,1.1142 9.075,2.45695 11,2.98388 5.31222,1.45411 28.09595,7.89355 31.5,8.90294 1.65,0.48927 6.0375,1.67826 9.75,2.6422 3.7125,0.96394 6.75,2.17736 6.75,2.6965 0,0.51914 -12.97009,23.73985 -28.82243,51.60158 -15.85234,27.86173 -29.14881,51.33269 -29.54771,52.15769 -0.3989,0.825 -1.82558,3.3 -3.1704,5.5 -1.34482,2.2 -3.15427,5.35 -4.02101,7 -0.86674,1.65 -2.66347,4.8 -3.99273,7 -1.32926,2.2 -3.32984,5.8 -4.44572,8 -1.11588,2.2 -3.11646,5.8 -4.44572,8 -1.32926,2.2 -3.12599,5.35 -3.99273,7 -0.86674,1.65 -2.66674,4.8 -4,7 -1.33326,2.2 -3.12099,5.35 -3.97273,7 -0.85174,1.65 -1.99814,3.675 -2.54757,4.5 -0.54943,0.825 -8.83423,15.37421 -18.41067,32.33158 -9.57644,16.95736 -17.64151,30.45736 -17.92238,30 -0.28087,-0.45737 -5.90501,-13.88158 -12.4981,-29.83158 -6.5931,-15.95 -15.69229,-37.325 -20.22043,-47.5 -4.52815,-10.175 -9.06194,-20.41177 -10.0751,-22.74837 l -1.8421,-4.24837 -9.28623,3.32144 c -25.84194,9.24297 -57.69728,24.17068 -82.05023,38.44949 -17.70071,10.37843 -23.4958,14.56104 -38.73693,27.95843 -70.539278,62.00606 -117.430788,147.23402 -134.393298,244.26738 -4.4414802,25.40733 -5.7799002,40.25795 -6.3313102,70.25 l -0.52857,28.75 -45.5086298,0 -45.50864,0 0.56187,-30.75 z"
           id="path3801"
           inkscape:connector-curvature="0" />
      </g>
      <g
         transform="matrix(0.04084318,0.15993853,-0.15993853,0.04084318,649.18671,394.50437)"
         id="g5138"
         inkscape:label="Layer 1"
         style="fill:#ffd688;fill-opacity:0.99215686;stroke:#56ffba;stroke-opacity:0.99215686">
        <path
           sodipodi:nodetypes="cssscsssssssssssssssssssssssssssssssssscssscc"
           inkscape:connector-curvature="0"
           id="path5140"
           d="M -61.488972,515.47249 C -33.738382,385.68222 28.133332,311.30478 137.2348,235.00741 c 25.06981,-17.53194 55.13296,-33.89503 87.08703,-47.40066 7.7,-3.25446 15.01133,-6.34442 16.2474,-6.86658 l 2.24739,-0.94937 -2.57558,-5.77262 c -3.46386,-7.7635 -39.41921,-94.912466 -39.41921,-95.544706 0,-0.27459 3.2625,0.38026 7.25,1.45523 3.9875,1.07498 9.725,2.60208 12.75,3.39357 3.025,0.79149 9.1,2.51489 13.5,3.82976 4.4,1.31488 11.825,3.38167 16.5,4.59287 4.675,1.21119 9.625,2.5434 11,2.96047 9.15049,2.77551 14.4715,4.27708 32,9.030316 1.925,0.522 7.325,2.06603 12,3.43117 10.06614,2.9394 17.88119,5.07243 27.67975,7.55486 3.94887,1.00043 7.5694,2.05978 8.04562,2.3541 0.90426,0.55886 17.59518,5.15714 34.77463,9.58027 1.65,0.42482 4.575,1.29135 6.5,1.92562 1.925,0.63427 6.875,2.06484 11,3.17905 4.125,1.1142 9.075,2.45695 11,2.98388 5.31222,1.45411 28.09595,7.89355 31.5,8.90294 1.65,0.48927 6.0375,1.67826 9.75,2.6422 3.7125,0.96394 6.75,2.17736 6.75,2.6965 0,0.51914 -12.97009,23.73985 -28.82243,51.60158 -15.85234,27.86173 -29.14881,51.33269 -29.54771,52.15769 -0.3989,0.825 -1.82558,3.3 -3.1704,5.5 -1.34482,2.2 -3.15427,5.35 -4.02101,7 -0.86674,1.65 -2.66347,4.8 -3.99273,7 -1.32926,2.2 -3.32984,5.8 -4.44572,8 -1.11588,2.2 -3.11646,5.8 -4.44572,8 -1.32926,2.2 -3.12599,5.35 -3.99273,7 -0.86674,1.65 -2.66674,4.8 -4,7 -1.33326,2.2 -3.12099,5.35 -3.97273,7 -0.85174,1.65 -1.99814,3.675 -2.54757,4.5 -0.54943,0.825 -8.83423,15.37421 -18.41067,32.33158 -9.57644,16.95736 -17.64151,30.45736 -17.92238,30 -0.28087,-0.45737 -5.90501,-13.88158 -12.4981,-29.83158 -6.5931,-15.95 -15.69229,-37.325 -20.22043,-47.5 -4.52815,-10.175 -9.06194,-20.41177 -10.0751,-22.74837 l -1.8421,-4.24837 -9.28623,3.32144 c -25.84194,9.24297 -57.69728,24.17068 -82.05023,38.44949 -17.70071,10.37843 -23.4958,14.56104 -38.73693,27.95843 C 78.281632,403.48423 36.633266,437.5756 19.670756,534.60896 Z"
           style="fill:#ffd688;fill-opacity:0.99215686;stroke:#56ffba;stroke-opacity:0.99215686" />
      </g>
    </g>
  </g>
</svg>
