<?xml version="1.0" encoding="UTF-8" standalone="no"?>
<!-- Created with Inkscape (http://www.inkscape.org/) -->

<svg
   xmlns:dc="http://purl.org/dc/elements/1.1/"
   xmlns:cc="http://creativecommons.org/ns#"
   xmlns:rdf="http://www.w3.org/1999/02/22-rdf-syntax-ns#"
   xmlns:svg="http://www.w3.org/2000/svg"
   xmlns="http://www.w3.org/2000/svg"
   xmlns:sodipodi="http://sodipodi.sourceforge.net/DTD/sodipodi-0.dtd"
   xmlns:inkscape="http://www.inkscape.org/namespaces/inkscape"
   width="272"
   height="272"
   viewBox="0 0 271.99999 272"
   id="svg10335"
   version="1.1"
   inkscape:version="0.91 r13725"
   sodipodi:docname="thread.svg">
  <defs
     id="defs10337" />
  <sodipodi:namedview
     id="base"
     pagecolor="#ffffff"
     bordercolor="#666666"
     borderopacity="1.0"
     inkscape:pageopacity="0.0"
     inkscape:pageshadow="2"
     inkscape:zoom="0.35"
     inkscape:cx="-767.73631"
     inkscape:cy="845.26842"
     inkscape:document-units="px"
     inkscape:current-layer="layer1"
     showgrid="false"
     units="px"
     inkscape:window-width="1680"
     inkscape:window-height="997"
     inkscape:window-x="0"
     inkscape:window-y="0"
     inkscape:window-maximized="1" />
  <metadata
     id="metadata10340">
    <rdf:RDF>
      <cc:Work
         rdf:about="">
        <dc:format>image/svg+xml</dc:format>
        <dc:type
           rdf:resource="http://purl.org/dc/dcmitype/StillImage" />
        <dc:title></dc:title>
        <cc:license
           rdf:resource="http://creativecommons.org/publicdomain/zero/1.0/" />
      </cc:Work>
      <cc:License
         rdf:about="http://creativecommons.org/publicdomain/zero/1.0/">
        <cc:permits
           rdf:resource="http://creativecommons.org/ns#Reproduction" />
        <cc:permits
           rdf:resource="http://creativecommons.org/ns#Distribution" />
        <cc:permits
           rdf:resource="http://creativecommons.org/ns#DerivativeWorks" />
      </cc:License>
    </rdf:RDF>
  </metadata>
  <g
     inkscape:label="Layer 1"
     inkscape:groupmode="layer"
     id="layer1"
     transform="translate(0,-780.36216)">
    <g
       id="g10895"
       transform="matrix(0.99999837,0,0,1,-147.87833,539.30712)">
      <circle
         r="134.28572"
         cy="375.21936"
         cx="285.71429"
         id="path10883"
         style="opacity:1;fill:#ffffff;fill-opacity:1;fill-rule:nonzero;stroke:#000000;stroke-width:3.0999999;stroke-miterlimit:4;stroke-dasharray:none;stroke-opacity:1" />
      <path
         inkscape:connector-curvature="0"
         id="path10885"
         d="m 173.74624,397.78336 c 1.34687,-1.34687 2.82121,-2.57734 4.04061,-4.04061 0.96402,-1.15683 1.18501,-2.78767 2.0203,-4.04062 0.26415,-0.39621 0.74601,-0.61393 1.01016,-1.01015 0.41764,-0.62647 0.5925,-1.39383 1.01015,-2.0203 0.58111,-0.87166 2.24144,-2.24144 3.03046,-3.03046 0.33671,-0.33672 0.67343,-0.67344 1.01015,-1.01015 0.33672,-0.33672 0.58423,-0.7972 1.01015,-1.01016 0.30117,-0.15058 0.70898,0.15059 1.01015,0 0.42592,-0.21295 0.58424,-0.79719 1.01016,-1.01015 0.30117,-0.15058 0.70898,0.15059 1.01015,0 0.42592,-0.21296 0.58423,-0.79719 1.01015,-1.01015 0.30117,-0.15059 0.70898,0.15058 1.01015,0 0.42592,-0.21296 0.58424,-0.79719 1.01016,-1.01015 0.30117,-0.15059 0.70898,0.15058 1.01015,0 0.42592,-0.21296 0.58423,-0.7972 1.01015,-1.01016 0.30117,-0.15058 0.69072,0.10648 1.01015,0 0.71429,-0.23809 1.30602,-0.77205 2.02031,-1.01015 0.90914,-0.30304 2.12132,0.30305 3.03046,0 0.71428,-0.23809 1.30602,-0.77206 2.0203,-1.01015 0.81307,-0.27102 3.3951,0.32275 4.04061,0 0.42592,-0.21296 0.58424,-0.79719 1.01015,-1.01015 0.30743,-0.15372 2.57553,0 3.03046,0 2.35702,0 4.71405,0 7.07107,0 0.52823,0 3.775,-0.13281 4.04061,0 0.42592,0.21296 0.61394,0.74601 1.01015,1.01015 0.62647,0.41765 1.39384,0.59251 2.02031,1.01015 0.39621,0.26414 0.67343,0.67344 1.01015,1.01015 1.01015,1.01016 2.02031,2.02031 3.03046,3.03046 0.53181,0.53181 2.49095,2.76071 3.03046,3.03046 0.60233,0.30117 1.41796,-0.30117 2.0203,0 0.85184,0.42592 1.16847,1.59439 2.02031,2.0203 0.30116,0.15059 0.70898,-0.15058 1.01015,0 0.42592,0.21296 0.58423,0.7972 1.01015,1.01016 0.80812,0.40406 2.22234,-0.40406 3.03046,0 0.42592,0.21296 0.58423,0.79719 1.01015,1.01015 0.80812,0.40406 2.22234,-0.40406 3.03046,0 0.42592,0.21296 0.5584,0.85957 1.01015,1.01015 0.46203,0.15401 3.59112,-0.22475 4.04061,0 0.42592,0.21296 0.58424,0.7972 1.01015,1.01015 0.30743,0.15372 2.57553,0 3.03046,0 2.02031,0 4.04061,0 6.06092,0 2.69374,0 5.38748,0 8.08122,0 0.45493,0 2.72303,0.15372 3.03045,0 0.42592,-0.21295 0.58424,-0.79719 1.01016,-1.01015 0.30117,-0.15058 0.70898,0.15059 1.01015,0 0.42592,-0.21296 0.58423,-0.79719 1.01015,-1.01015 0.60234,-0.30117 1.41797,0.30117 2.02031,0 0.42592,-0.21296 0.58423,-0.79719 1.01015,-1.01015 0.60234,-0.30117 1.41797,0.30117 2.02031,0 0.42591,-0.21296 0.61393,-0.74601 1.01015,-1.01016 0.5087,-2.22553 2.07807,-0.53396 3.03046,-1.01015 0.42591,-0.21296 0.58423,-0.79719 1.01015,-1.01015 0.30117,-0.15058 0.69071,0.10648 1.01015,0 1.42857,-0.47619 2.61204,-1.54411 4.04061,-2.02031 0.31944,-0.10647 0.70898,0.15059 1.01015,0 0.42592,-0.21295 0.61394,-0.746 1.01016,-1.01015 0.67343,-0.33672 1.34687,-0.67343 2.0203,-1.01015 0.33672,0 0.70898,0.15058 1.01015,0 4.62307,-2.31154 -4.28649,0.41868 3.03046,-2.02031 0.63888,-0.21295 1.41797,0.30117 2.02031,0 0.42591,-0.21295 0.58423,-0.79719 1.01015,-1.01015 0.30117,-0.15058 0.70898,0.15059 1.01015,0 0.42592,-0.21296 0.58424,-0.79719 1.01015,-1.01015 0.30117,-0.15059 0.70899,0.15058 1.01016,0 0.42591,-0.21296 0.58423,-0.79719 1.01015,-1.01015 0.60234,-0.30117 1.41797,0.30117 2.0203,0 0.42592,-0.21296 0.58424,-0.7972 1.01016,-1.01016 0.30117,-0.15058 0.67343,0 1.01015,0 0.33672,0 0.67343,0 1.01015,0 2.02031,0 4.04061,0 6.06092,0 2.69374,0 5.38748,0 8.08122,0 0.81321,0 3.40658,-0.21134 4.04061,0 0.71428,0.2381 1.30602,0.77206 2.0203,1.01016 0.31944,0.10648 0.70899,-0.15059 1.01015,0 0.42592,0.21296 0.58424,0.79719 1.01016,1.01015 0.60234,0.30117 1.41796,-0.30117 2.0203,0 0.42592,0.21296 0.58424,0.79719 1.01016,1.01015 0.30116,0.15059 0.70898,-0.15058 1.01015,0 0.42592,0.21296 0.58423,0.7972 1.01015,1.01015 0.30117,0.15059 0.69071,-0.10647 1.01015,0 0.71429,0.2381 1.30602,0.77206 2.02031,1.01016 0.63887,0.21296 1.41796,-0.30117 2.0203,0 0.42592,0.21296 0.58424,0.79719 1.01016,1.01015 0.3653,0.18265 4.34816,0 5.05076,0 0.91051,0 4.41497,0.21193 5.05076,0 0.71429,-0.2381 1.30602,-0.77206 2.02031,-1.01015 0.31943,-0.10648 0.70898,0.15058 1.01015,0 4.62307,-2.31154 -4.2865,0.41868 3.03046,-2.02031 0.63887,-0.21296 1.38142,0.21296 2.0203,0 0.71429,-0.23809 1.30602,-0.77206 2.02031,-1.01015 0.31943,-0.10648 0.69071,0.10648 1.01015,0 0.71428,-0.2381 1.30602,-0.77206 2.0203,-1.01015 0.31944,-0.10648 0.70899,0.15058 1.01016,0 0.42591,-0.21296 0.58423,-0.7972 1.01015,-1.01016 0.60234,-0.30117 1.41797,0.30117 2.0203,0 0.42592,-0.21295 0.58424,-0.79719 1.01016,-1.01015 0.30117,-0.15058 0.70898,0.15059 1.01015,0 0.42592,-0.21296 0.58423,-0.79719 1.01015,-1.01015 0.60234,-0.30117 1.41797,0.30117 2.02031,0 0.89533,-0.44767 2.1109,-2.41742 3.03045,-3.03046 0.62647,-0.41765 1.39384,-0.5925 2.02031,-1.01015 0.39621,-0.26414 0.58423,-0.79719 1.01015,-1.01015 2.97269,-1.48635 -1.32995,2.3401 2.02031,-1.01016 0.59411,-0.59411 3.57283,-3.80672 4.04061,-4.04061 0.30117,-0.15058 0.69071,0.10648 1.01015,0 0.71429,-0.23809 1.30602,-0.77205 2.02031,-1.01015 0.63887,-0.21296 1.41796,0.30117 2.0203,0 0.42592,-0.21296 0.61394,-0.74601 1.01015,-1.01015 7.3242,-3.6621 -1.59719,1.06479 3.03046,-2.02031 0.62647,-0.41764 1.30602,-0.77205 2.02031,-1.01015 0.31943,-0.10648 1.01015,-0.33672 1.01015,0 0,0.33672 -1.24825,0.2381 -1.01015,0 0.53239,-0.5324 1.34687,-0.67343 2.0203,-1.01015"
         style="fill:none;fill-rule:evenodd;stroke:#0000ff;stroke-width:12.19999981;stroke-linecap:butt;stroke-linejoin:miter;stroke-miterlimit:4;stroke-dasharray:none;stroke-opacity:0.72151902" />
      <path
         inkscape:connector-curvature="0"
         id="path10891"
         d="m 212.13203,267.47368 c 0.80984,4.25768 3.5151,0.24232 5.05077,1.01015 0.42591,0.21296 0.58423,0.79719 1.01015,1.01015 0.30117,0.15059 0.70898,-0.15058 1.01015,0 0.42592,0.21296 0.61394,0.74601 1.01015,1.01015 7.3242,3.6621 -1.59719,-1.06479 3.03046,2.02031 0.50871,2.22553 2.07808,0.53396 3.03046,1.01015 0.42592,0.21296 0.58423,0.7972 1.01015,1.01015 0.30117,0.15059 0.70899,-0.15058 1.01016,0 0.42591,0.21296 0.58423,0.7972 1.01015,1.01016 0.60234,0.30117 1.41796,-0.30117 2.0203,0 0.42592,0.21296 0.61394,0.74601 1.01016,1.01015 0.62647,0.41765 1.39383,0.59251 2.0203,1.01015 0.79243,0.52829 1.16847,1.59439 2.02031,2.02031 0.30116,0.15058 0.70898,-0.15059 1.01015,0 0.42592,0.21296 0.58423,0.79719 1.01015,1.01015 0.30117,0.15058 0.70898,-0.15058 1.01015,0 0.42592,0.21296 0.58424,0.79719 1.01016,1.01015 0.30117,0.15059 0.70898,-0.15058 1.01015,0 0.46778,0.23389 3.44649,3.4465 4.04061,4.04061 1.01015,1.01016 2.0203,2.02031 3.03046,3.03046 0.67343,0.67344 1.49202,1.22788 2.0203,2.02031 1.91366,-0.11504 0.67344,2.35702 1.01015,3.03045 0.42592,0.85184 1.59439,1.16847 2.02031,2.02031 0.32275,0.64551 -0.27102,3.22754 0,4.04061 0.23809,0.71428 0.77206,1.30602 1.01015,2.0203 0.29882,0.89645 -0.33073,4.3893 0,5.05077 0.21296,0.42591 0.7972,0.58423 1.01015,1.01015 0.0431,0.0861 0.0431,3.9545 0,4.04061 -0.21295,0.42592 -0.79719,0.58423 -1.01015,1.01015 -0.15371,0.30743 0,2.57553 0,3.03046 0,2.0203 0,4.04061 0,6.06091 0,2.02031 0,4.04061 0,6.06092 0,0.45493 -0.15371,2.72303 0,3.03046 0.21296,0.42592 0.7972,0.58423 1.01015,1.01015 0.15059,0.30117 -0.15058,0.70898 0,1.01015 0.21296,0.42592 0.67344,0.67344 1.01016,1.01015 1.34687,1.34688 2.69374,2.69375 4.04061,4.04062 1.01015,1.01015 2.0203,2.0203 3.03045,3.03045 0.33672,0.33672 0.61394,0.74601 1.01016,1.01016 0.62647,0.41764 1.39383,0.5925 2.0203,1.01015 0.39622,0.26414 0.58424,0.79719 1.01015,1.01015 0.66147,0.33073 4.15433,-0.29881 5.05077,0 0.71428,0.2381 1.30602,0.77206 2.0203,1.01015 0.31944,0.10648 0.70899,-0.15058 1.01015,0 0.42592,0.21296 0.58424,0.7972 1.01016,1.01016 0.59601,0.298 2.33564,-0.23161 3.03046,0 0.71428,0.23809 1.34687,0.67343 2.0203,1.01015 0.67344,0.33672 1.39384,0.5925 2.02031,1.01015 0.39621,0.26414 0.58423,0.79719 1.01015,1.01015 0.60234,0.30117 1.41796,-0.30117 2.0203,0 0.53951,0.26976 2.49865,2.49865 3.03046,3.03046 0.59412,0.59412 3.80672,3.57283 4.04061,4.04061 0.30117,0.60234 -0.30117,1.41797 0,2.02031 0.21296,0.42591 0.79719,0.58423 1.01015,1.01015 0.15059,0.30117 -0.10648,0.69071 0,1.01015 0.33672,0.67344 0.67344,1.34687 1.01016,2.02031 0,0.33671 -0.10648,0.69071 0,1.01015 2.43898,7.31695 -0.29123,-1.59262 2.0203,3.03046 0.15059,0.30117 0,0.67343 0,1.01015 0,0.33672 0,0.67343 0,1.01015 0,1.68359 0,3.36718 0,5.05076 0,2.69374 0,5.38748 0,8.08122 0,0.52823 0.13281,3.775 0,4.04061 -0.21296,0.42592 -0.79719,0.58424 -1.01015,1.01016 -0.32038,0.64075 0.32811,4.39454 0,5.05076 -0.21296,0.42592 -0.7972,0.58423 -1.01015,1.01015 -0.15059,0.30117 0,0.67344 0,1.01016 0,0.33671 0,0.67343 0,1.01015 0,1.06856 0.17346,6.55066 0,7.07107 -0.15059,0.45175 -0.85957,0.55839 -1.01016,1.01015 -0.21296,0.63887 0,1.34687 0,2.0203 0,0.33672 0.15059,0.70899 0,1.01016 -0.21296,0.42591 -0.79719,0.58423 -1.01015,1.01015 -0.28999,0.57998 0.27111,5.24757 0,6.06091 -0.15058,0.45176 -0.79719,0.58424 -1.01015,1.01016 -0.32364,0.64728 0.31367,5.43357 0,6.06091 -0.21296,0.42592 -0.7972,0.58424 -1.01015,1.01015 -0.15059,0.30117 0.15058,0.70899 0,1.01016 -0.21296,0.42591 -0.7972,0.58423 -1.01016,1.01015 -0.15058,0.30117 0.15059,0.70898 0,1.01015 -0.21296,0.42592 -0.79719,0.58424 -1.01015,1.01015 -0.15058,0.30117 0.15059,0.70899 0,1.01016 -0.8993,1.79859 -1.12101,0.22171 -2.0203,2.0203 -0.15059,0.30117 0,0.67344 0,1.01015 -0.33672,0.67344 -0.59251,1.39384 -1.01016,2.02031 -0.26414,0.39621 -0.67343,0.67343 -1.01015,1.01015 -1.01015,1.01015 -2.0203,2.02031 -3.03046,3.03046 -0.53181,0.53181 -2.49095,2.7607 -3.03045,3.03046 -0.30117,0.15058 -0.70899,-0.15059 -1.01016,0 -0.42592,0.21296 -0.58423,0.79719 -1.01015,1.01015 -0.30117,0.15058 -0.70898,-0.15058 -1.01015,0 -0.46778,0.23389 -3.4465,3.44649 -4.04061,4.04061 -0.53181,0.53181 -2.76071,2.49095 -3.03046,3.03046 -0.15059,0.30117 0.10648,0.69071 0,1.01015 -0.14012,0.42035 -1.46659,2.11759 -1.01015,3.03046 0.21296,0.42592 0.79719,0.58423 1.01015,1.01015 0.15058,0.30117 -0.15059,0.70898 0,1.01015 0.21296,0.42592 0.79719,0.58424 1.01015,1.01016 0.15059,0.30116 -0.15058,0.70898 0,1.01015 0.21296,0.42592 0.7972,0.58423 1.01015,1.01015 0.15059,0.30117 0,0.67344 0,1.01015 0.33672,0.67344 0.59251,1.39384 1.01016,2.02031 0.61304,0.91956 2.58279,2.13512 3.03045,3.03046 0.15059,0.30116 -0.15058,0.70898 0,1.01015 0.21296,0.42592 0.7972,0.58423 1.01016,1.01015 0.15058,0.30117 -0.15059,0.70898 0,1.01015 0.42592,0.85184 1.59438,1.16847 2.0203,2.02031 0.15059,0.30117 -0.15058,0.70898 0,1.01015 0.21296,0.42592 0.7972,0.58424 1.01016,1.01015 0.15058,0.30117 -0.15059,0.70899 0,1.01016 2.31153,4.62307 -0.41869,-4.2865 2.0203,3.03045 1.00235,3.00706 -2.39191,-2.07263 1.01015,3.03046 0.26415,0.39622 0.7972,0.58424 1.01016,1.01015 0.15058,0.30117 -0.15059,0.70899 0,1.01016 0.21295,0.42591 0.79719,0.58423 1.01015,1.01015 0.15371,0.30742 0,2.57553 0,3.03046 0,2.0203 0,4.04061 0,6.06091 0,0.33672 0,0.67344 0,1.01015 0,0.33672 -0.15059,0.70899 0,1.01016 0.21296,0.42591 0.79719,0.58423 1.01015,1.01015 0.15058,0.30117 -0.15058,0.70898 0,1.01015 0.21296,0.42592 0.79719,0.58424 1.01015,1.01015 0.15059,0.30117 -0.15058,0.70899 0,1.01016 0.21296,0.42591 0.7972,0.58423 1.01016,1.01015 0.15058,0.30117 -0.10648,0.69071 0,1.01015 0.23809,0.71429 0.67343,1.34687 1.01015,2.02031 0.33672,0.67343 1.68359,1.68358 1.01015,2.0203 -0.67343,0.33672 -1.34687,-2.69374 -1.01015,-2.0203 0.67343,1.34687 1.24555,2.74935 2.0203,4.04061 0.45179,0.75298 2.33991,2.33991 3.03046,3.03046"
         style="fill:none;fill-rule:evenodd;stroke:#ddea00;stroke-width:10.5;stroke-linecap:butt;stroke-linejoin:miter;stroke-miterlimit:4;stroke-dasharray:none;stroke-opacity:0.70886075" />
      <path
         sodipodi:nodetypes="ccssscssccccsssssssccccccsssccccccccccscssccccccsssssccccsssccssssscsssssscccsccccssccccssscccccsscccc"
         inkscape:connector-curvature="0"
         id="path10893"
         d="m 377.79705,283.63612 c -0.0368,0.22079 -2.54077,0.35724 -3.03046,1.01015 -0.45175,0.60234 -0.67343,1.34687 -1.01015,2.02031 -0.67343,1.34687 -1.24555,2.74935 -2.0203,4.04061 -0.245,0.40833 -0.67344,0.67343 -1.01016,1.01015 l -2.0203,2.0203 -11.11168,11.11168 c -0.79374,0.79375 -4.72904,4.40733 -5.05076,5.05076 -0.15059,0.30117 0.15058,0.70899 0,1.01016 -0.21296,0.42591 -0.67344,0.67343 -1.01015,1.01015 l -3.03046,3.03046 c -0.33672,0.33671 -0.74601,0.61393 -1.01015,1.01015 -0.41765,0.62647 -0.47776,1.48791 -1.01016,2.0203 -2.45346,2.45346 -1.48333,-0.30038 -3.03045,2.02031 -0.41765,0.62647 -0.59251,1.39383 -1.01016,2.0203 -0.52828,0.79243 -1.44887,1.2584 -2.0203,2.02031 -0.72843,0.97124 -1.29188,2.05922 -2.02031,3.03046 -0.83979,1.11972 -2.25489,1.86711 -3.03045,3.03045 -0.41765,0.62647 -0.59251,1.39384 -1.01016,2.02031 -0.26414,0.39621 -0.67343,0.67343 -1.01015,1.01015 -0.33672,0.67344 -0.59251,1.39384 -1.01015,2.02031 -0.26415,0.39621 -0.7972,0.58423 -1.01016,1.01015 -0.15058,0.30117 0.15059,0.70898 0,1.01015 -0.60609,1.21219 -2.42436,1.81828 -3.03045,3.03046 -0.15059,0.30117 0.15058,0.70898 0,1.01015 -0.32172,0.64344 -4.25702,4.25702 -5.05077,5.05077 l -2.0203,2.0203 c -0.33672,0.33672 -0.5584,0.85957 -1.01015,1.01015 -0.55864,0.18621 -5.04364,0 -6.06092,0 -5.89692,5.56377 -5.52532,4.48905 -9.97526,8.33377 -3.03046,6.43972 -4.16688,8.37584 -4.16688,8.71256 l -0.75761,8.08122 c 0,0.67343 -1.42853,2.01277 -1.64149,2.65164 l -5.68211,2.52539 c -0.21296,0.42592 -0.7972,0.58423 -1.01016,1.01015 -0.15058,0.30117 0.15059,0.70899 0,1.01015 -0.21296,0.42592 -0.79719,0.58424 -1.01015,1.01016 -0.15058,0.30117 0,0.67343 0,1.01015 -0.33672,0.33672 -0.74601,0.61394 -1.01015,1.01015 -1.54843,2.32265 -0.47188,2.72812 -2.02031,5.05076 -0.26414,0.39622 -0.67343,0.67344 -1.01015,1.01016 l -3.03046,3.03046 c -0.33671,0.33671 -0.79719,0.58423 -1.01015,1.01015 -0.15058,0.30117 0.15058,0.70898 0,1.01015 -0.21296,0.42592 -0.67343,0.67344 -1.01015,1.01015 l -1.01015,1.01016 c -0.53181,0.5318 -2.76071,2.49095 -3.03046,3.03045 -0.15059,0.30117 0.15058,0.70899 0,1.01016 -0.26976,0.5395 -2.49865,2.49864 -3.03046,3.03045 -0.53181,0.53181 -2.49095,2.76071 -3.03046,3.03046 -0.60234,0.30117 -1.41796,-0.30117 -2.0203,0 -0.42592,0.21296 -0.58424,0.79719 -1.01016,1.01015 -3.22237,1.61119 1.20208,-1.61119 -2.0203,0 -0.42592,0.21296 -0.58424,0.7972 -1.01015,1.01016 -0.30117,0.15058 -0.70899,-0.15059 -1.01016,0 -0.42591,0.21295 -0.58423,0.79719 -1.01015,1.01015 -0.30117,0.15058 -0.70898,-0.15059 -1.01015,0 -0.42592,0.21296 -0.58424,0.79719 -1.01015,1.01015 -0.30117,0.15059 -0.69072,-0.10648 -1.01016,0 -0.71428,0.2381 -1.30602,0.77206 -2.0203,1.01015 -0.31944,0.10648 -0.69072,-0.10648 -1.01015,0 l -2.02031,1.01016 c -0.33672,0 -0.69071,-0.10648 -1.01015,0 -0.71429,0.23809 -1.30602,0.77205 -2.02031,1.01015 -0.89644,0.29881 -4.38929,-0.33073 -5.05076,0 -0.42592,0.21296 -0.58423,0.79719 -1.01015,1.01015 -0.26118,0.13059 -5.34492,0 -6.06092,0 -0.33671,0 -0.70898,-0.15058 -1.01015,0 -0.42592,0.21296 -0.58423,0.79719 -1.01015,1.01015 -0.63728,0.31864 -4.41349,-0.31863 -5.05076,0 -0.42592,0.21296 -0.58424,0.7972 -1.01016,1.01016 -0.6349,0.31745 -3.4057,-0.31746 -4.04061,0 -0.5395,0.26975 -2.49865,2.49864 -3.03045,3.03045 -0.37097,0.37097 -4.04062,3.95931 -4.04062,4.04061 0,0.47619 0.7972,0.58424 1.01016,1.01016 0.15058,0.30117 -0.15059,0.70898 0,1.01015 0.21296,0.42592 0.79719,0.58423 1.01015,1.01015 0.15058,0.30117 -0.10648,0.69072 0,1.01015 2.43899,7.31696 -0.29123,-1.59261 2.02031,3.03046 0.15058,0.30117 -0.15059,0.70899 0,1.01015 0.42591,0.85184 1.59438,1.16847 2.0203,2.02031 0.15058,0.30117 0,0.67343 0,1.01015 0.33672,0.33672 0.79719,0.58424 1.01015,1.01015 0.30117,0.60234 -0.21296,1.38143 0,2.02031 0.2381,0.71429 0.77206,1.30602 1.01016,2.0203 0.0739,0.22181 0.0751,3.89044 0,4.04061 -0.21296,0.42592 -0.7972,0.58424 -1.01016,1.01016 -0.15058,0.30117 0.15059,0.70898 0,1.01015 -0.21296,0.42592 -0.74601,0.61394 -1.01015,1.01015 -0.77733,1.16599 -1.24298,2.87462 -2.0203,4.04061 -0.58111,0.87166 -2.24145,2.24144 -3.03046,3.03046 -0.53181,0.53181 -2.49095,2.7607 -3.03046,3.03046 -0.30117,0.15058 -0.70898,-0.15059 -1.01015,0 -0.42592,0.21296 -0.61394,0.74601 -1.01016,1.01015 -0.62647,0.41765 -1.39383,0.59251 -2.0203,1.01015 -0.39621,0.26415 -0.58424,0.7972 -1.01015,1.01016 -0.60234,0.30116 -1.41797,-0.30117 -2.02031,0 -0.85183,0.42591 -1.16847,1.59438 -2.0203,2.0203 -0.30117,0.15059 -0.70899,-0.15058 -1.01016,0 -0.42591,0.21296 -0.58423,0.79719 -1.01015,1.01015 -0.30117,0.15059 -0.70898,-0.15058 -1.01015,0 -0.42592,0.21296 -0.58424,0.7972 -1.01015,1.01016"
         style="fill:none;fill-rule:evenodd;stroke:#ff0000;stroke-width:10.39999962;stroke-linecap:butt;stroke-linejoin:miter;stroke-miterlimit:4;stroke-dasharray:none;stroke-opacity:0.73417723" />
    </g>
  </g>
</svg>
