<?xml version="1.0" encoding="UTF-8" standalone="no"?>
<svg
   xmlns:dc="http://purl.org/dc/elements/1.1/"
   xmlns:cc="http://creativecommons.org/ns#"
   xmlns:rdf="http://www.w3.org/1999/02/22-rdf-syntax-ns#"
   xmlns:svg="http://www.w3.org/2000/svg"
   xmlns="http://www.w3.org/2000/svg"
   xmlns:xlink="http://www.w3.org/1999/xlink"
   version="1.1"
   id="svg10920"
   viewBox="0 0 688.00001 288"
   height="288"
   width="688">
  <title
     id="title14372">Preparing a wet mount</title>
  <defs
     id="defs10922">
    <linearGradient
       y2="631.85999"
       x2="673.42999"
       gradientTransform="translate(-185.5,-232.82)"
       y1="601.53003"
       gradientUnits="userSpaceOnUse"
       x1="642.62"
       id="linearGradient4085">
      <stop
         offset="0"
         stop-opacity="0"
         stop-color="#fff"
         id="stop3680" />
      <stop
         offset=".35221"
         stop-opacity=".19608"
         stop-color="#b1b1b1"
         id="stop3682" />
      <stop
         offset=".72929"
         stop-opacity=".58824"
         stop-color="#8a8a8a"
         id="stop3684" />
      <stop
         offset="1"
         stop-color="#646464"
         id="stop3676" />
    </linearGradient>
    <linearGradient
       y2="580.78998"
       x2="618.42999"
       gradientTransform="translate(-185.5,-232.82)"
       y1="601.53003"
       gradientUnits="userSpaceOnUse"
       x1="642.62"
       id="linearGradient4087">
      <stop
         offset="0"
         stop-opacity="0"
         stop-color="#fff"
         id="stop3680-1" />
      <stop
         offset=".35221"
         stop-opacity=".19608"
         stop-color="#b1b1b1"
         id="stop3682-7" />
      <stop
         offset=".72929"
         stop-opacity=".58824"
         stop-color="#8a8a8a"
         id="stop3684-1" />
      <stop
         offset="1"
         stop-color="#646464"
         id="stop3676-1" />
    </linearGradient>
    <linearGradient
       y2="417.72"
       x2="308.45999"
       gradientTransform="translate(110.27,-1.7748)"
       y1="448.07999"
       gradientUnits="userSpaceOnUse"
       xlink:href="#linearGradient3799"
       x1="278.69"
       id="linearGradient4089" />
    <linearGradient
       id="linearGradient3799">
      <stop
         offset="0"
         stop-opacity=".6902"
         stop-color="#57534a"
         id="stop3801" />
      <stop
         offset="1"
         stop-opacity="0"
         stop-color="#feca79"
         id="stop3803" />
    </linearGradient>
    <linearGradient
       y2="407.35999"
       x2="262.85999"
       gradientTransform="translate(141.35,0.3681)"
       y1="447.35999"
       gradientUnits="userSpaceOnUse"
       xlink:href="#linearGradient3799"
       x1="247.25999"
       id="linearGradient4091" />
    <linearGradient
       y2="358.79999"
       x2="450.38"
       gradientTransform="translate(-32.364,19.908)"
       y1="403.06"
       gradientUnits="userSpaceOnUse"
       xlink:href="#linearGradient3799"
       x1="497.35001"
       id="linearGradient4093" />
    <radialGradient
       r="38.863998"
       gradientTransform="matrix(1,0,0,1.0075,33.864,-10.845)"
       cx="376.07001"
       cy="438.07999"
       gradientUnits="userSpaceOnUse"
       id="radialGradient4095">
      <stop
         offset="0"
         stop-color="#646464"
         id="stop3674-9" />
      <stop
         offset=".37063"
         stop-color="#fff"
         id="stop3680-4" />
      <stop
         offset=".61044"
         stop-color="#b1b1b1"
         id="stop3682-8" />
      <stop
         offset=".80526"
         stop-color="#8a8a8a"
         id="stop3684-8" />
      <stop
         offset="1"
         stop-color="#646464"
         id="stop3676-2" />
    </radialGradient>
    <linearGradient
       y2="612.81"
       x2="306.67999"
       gradientTransform="translate(6.9633,-43.674)"
       y1="580.48999"
       gradientUnits="userSpaceOnUse"
       x1="268.44"
       id="linearGradient4097">
      <stop
         offset="0"
         stop-color="#c8c8c8"
         id="stop3628" />
      <stop
         offset=".5"
         stop-color="#fff"
         id="stop3647" />
      <stop
         offset="1"
         stop-color="#c8c8c8"
         id="stop3630" />
    </linearGradient>
    <linearGradient
       y2="596.65002"
       x2="325.25"
       gradientTransform="translate(6.9633,-43.674)"
       y1="566.20001"
       gradientUnits="userSpaceOnUse"
       x1="288.57001"
       id="linearGradient4099">
      <stop
         offset="0"
         stop-color="#fff"
         id="stop3852" />
      <stop
         offset="1"
         stop-color="#959595"
         id="stop3854" />
    </linearGradient>
    <linearGradient
       y2="416.66"
       x2="457.88"
       gradientTransform="translate(-32.364,19.908)"
       y1="287.04001"
       gradientUnits="userSpaceOnUse"
       x1="519.84998"
       id="linearGradient4101">
      <stop
         offset="0"
         stop-opacity=".6902"
         stop-color="#57534a"
         id="stop3801-2" />
      <stop
         offset="1"
         stop-opacity="0"
         stop-color="#feca79"
         id="stop3803-3" />
    </linearGradient>
    <linearGradient
       y2="240.0674"
       x2="210.9595"
       y1="111.8271"
       x1="27.813499"
       gradientUnits="userSpaceOnUse"
       id="SVGID_1_">
      <stop
         id="stop4417"
         style="stop-color:#D7E1FF"
         offset="0" />
      <stop
         id="stop4419"
         style="stop-color:#D4DEFD"
         offset="0.1917" />
      <stop
         id="stop4421"
         style="stop-color:#C9D4F8"
         offset="0.3573" />
      <stop
         id="stop4423"
         style="stop-color:#B7C3EE"
         offset="0.5132" />
      <stop
         id="stop4425"
         style="stop-color:#9EABE1"
         offset="0.6632" />
      <stop
         id="stop4427"
         style="stop-color:#7E8CD0"
         offset="0.809" />
      <stop
         id="stop4429"
         style="stop-color:#5767BB"
         offset="0.9498" />
      <stop
         id="stop4431"
         style="stop-color:#4758B3"
         offset="1" />
    </linearGradient>
  </defs>
  <metadata
     id="metadata10925">
    <rdf:RDF>
      <cc:Work
         rdf:about="">
        <dc:format>image/svg+xml</dc:format>
        <dc:type
           rdf:resource="http://purl.org/dc/dcmitype/StillImage" />
        <dc:title>Preparing a wet mount</dc:title>
        <cc:license
           rdf:resource="http://creativecommons.org/publicdomain/zero/1.0/" />
        <dc:creator>
          <cc:Agent>
            <dc:title>jeremy seto</dc:title>
          </cc:Agent>
        </dc:creator>
      </cc:Work>
      <cc:License
         rdf:about="http://creativecommons.org/publicdomain/zero/1.0/">
        <cc:permits
           rdf:resource="http://creativecommons.org/ns#Reproduction" />
        <cc:permits
           rdf:resource="http://creativecommons.org/ns#Distribution" />
        <cc:permits
           rdf:resource="http://creativecommons.org/ns#DerivativeWorks" />
      </cc:License>
    </rdf:RDF>
  </metadata>
  <g
     transform="translate(0,-764.36216)"
     id="layer1">
    <g
       transform="translate(0.62629568,666.85106)"
       id="g14324">
      <rect
         style="opacity:1;fill:none;fill-opacity:1;fill-rule:nonzero;stroke:#000000;stroke-width:1.87491393;stroke-miterlimit:4;stroke-dasharray:none;stroke-opacity:1"
         id="rect11479"
         width="274.7948"
         height="22.038681"
         x="407.19119"
         y="361.535" />
      <text
         xml:space="preserve"
         style="font-style:normal;font-weight:normal;font-size:22.20904732px;line-height:125%;font-family:sans-serif;letter-spacing:0px;word-spacing:0px;fill:#000000;fill-opacity:1;stroke:none;stroke-width:1px;stroke-linecap:butt;stroke-linejoin:miter;stroke-opacity:1"
         x="510.44519"
         y="380.14819"
         id="text11483"><tspan
           id="tspan11485"
           x="510.44519"
           y="380.14819"
           style="font-style:normal;font-variant:normal;font-weight:normal;font-stretch:normal;font-family:'noto sans';-inkscape-font-specification:'noto sans'">slide</tspan></text>
      <path
         style="opacity:1;fill:#25b3d5;fill-opacity:0.70253164;fill-rule:nonzero;stroke:#000061;stroke-width:0.8009038;stroke-miterlimit:4;stroke-dasharray:none;stroke-opacity:1"
         d="m 493.32836,360.5312 a 38.863472,25.439803 0 0 1 38.86348,-25.43981 38.863472,25.439803 0 0 1 38.86346,25.43981"
         id="ellipse11494" />
      <rect
         style="opacity:1;fill:none;fill-opacity:1;fill-rule:nonzero;stroke:#000000;stroke-width:0.93515688;stroke-miterlimit:4;stroke-dasharray:none;stroke-opacity:1"
         id="rect11481"
         width="223.11649"
         height="5.3487329"
         x="297.39371"
         y="489.08215"
         transform="matrix(0.93794017,-0.3467971,0.34808879,0.93746157,0,0)" />
      <text
         xml:space="preserve"
         style="font-style:normal;font-weight:normal;font-size:14.85314369px;line-height:125%;font-family:sans-serif;letter-spacing:0px;word-spacing:0px;fill:#000000;fill-opacity:1;stroke:none;stroke-width:1px;stroke-linecap:butt;stroke-linejoin:miter;stroke-opacity:1"
         x="507.06268"
         y="354.70471"
         id="text11501"><tspan
           id="tspan11503"
           x="507.06268"
           y="354.70471"
           style="font-style:normal;font-variant:normal;font-weight:normal;font-stretch:normal;font-family:'noto sans';-inkscape-font-specification:'noto sans'">droplet</tspan></text>
      <text
         xml:space="preserve"
         style="font-style:normal;font-weight:normal;font-size:49.59108734px;line-height:125%;font-family:sans-serif;letter-spacing:0px;word-spacing:0px;fill:#000000;fill-opacity:1;stroke:none;stroke-width:1px;stroke-linecap:butt;stroke-linejoin:miter;stroke-opacity:1"
         x="359.8573"
         y="484.1412"
         id="text11505"
         transform="matrix(0.93938063,-0.34287612,0.34287612,0.93938063,0,0)"><tspan
           id="tspan11507"
           x="359.8573"
           y="484.1412"
           style="font-style:normal;font-variant:normal;font-weight:normal;font-stretch:normal;font-size:15.49721527px;font-family:'noto sans';-inkscape-font-specification:'noto sans'">cover slip</tspan></text>
      <path
         style="fill:#000000"
         d="m 606.11076,304.55238 c 1.4608,0.40044 2.40994,0.8777 3.72871,1.87492 4.5525,3.44254 8.16127,10.44318 10.51742,20.40281 0.54141,2.28857 1.02373,4.99457 1.3972,7.83877 0.09,0.68536 0.17544,1.33614 0.18988,1.44615 l 0.0263,0.20004 0.21562,-0.17273 c 0.28999,-0.23231 3.53509,-2.58963 3.55774,-2.58441 0.01,0.003 -0.0249,0.2759 -0.0771,0.60808 -0.0522,0.33219 -0.12674,0.81032 -0.16551,1.06252 -0.0388,0.2522 -0.12146,0.75758 -0.18372,1.12308 -0.0623,0.36548 -0.1619,0.9835 -0.2214,1.37337 -0.0595,0.38986 -0.12428,0.80224 -0.14396,0.91641 -0.13096,0.75976 -0.20309,1.20248 -0.43378,2.6625 -0.0253,0.16033 -0.0993,0.60947 -0.16427,0.99806 -0.14,0.83672 -0.24334,1.48754 -0.36604,2.30515 -0.0495,0.32949 -0.0999,0.63042 -0.11205,0.66873 -0.0231,0.0727 -0.24539,1.46239 -0.46305,2.89527 -0.0209,0.13762 -0.062,0.38065 -0.0914,0.54007 -0.0293,0.15941 -0.0977,0.57099 -0.1518,0.9146 -0.0541,0.34363 -0.11929,0.75593 -0.1448,0.91623 -0.0704,0.44237 -0.3796,2.33795 -0.42749,2.62078 -0.0232,0.13709 -0.0809,0.50255 -0.12826,0.81213 -0.0473,0.30959 -0.10126,0.55938 -0.11985,0.5551 -0.0186,-0.005 -0.80547,-1.30484 -1.74862,-2.89014 -0.94314,-1.58532 -1.73785,-2.91587 -1.76602,-2.95677 -0.0282,-0.0409 -0.11189,-0.18333 -0.18604,-0.31647 -0.0741,-0.13314 -0.18072,-0.31384 -0.23683,-0.40157 -0.0561,-0.0877 -0.16271,-0.26733 -0.23692,-0.39915 -0.0742,-0.1318 -0.19622,-0.33256 -0.27117,-0.44611 -0.0749,-0.11358 -0.19697,-0.31433 -0.27117,-0.44613 -0.0742,-0.13182 -0.18082,-0.31143 -0.23693,-0.39915 -0.0561,-0.0877 -0.1627,-0.26762 -0.23689,-0.39977 -0.0742,-0.13215 -0.18083,-0.311 -0.237,-0.39745 -0.0562,-0.0865 -0.12472,-0.20116 -0.15237,-0.25494 -0.0276,-0.0538 -0.52013,-0.88222 -1.0944,-1.84094 -0.57427,-0.95872 -1.02992,-1.7597 -1.01258,-1.77996 0.0173,-0.0202 0.51751,-0.3907 1.11148,-0.82321 0.59396,-0.4325 1.39086,-1.03467 1.77088,-1.33814 0.38001,-0.30347 0.76226,-0.60691 0.84944,-0.67432 l 0.1585,-0.12255 -0.0869,-0.82159 c -0.24189,-2.28632 -0.66663,-5.13378 -1.094,-7.33426 -0.31064,-1.59937 -0.44045,-2.12946 -0.86768,-3.54336 -1.97733,-6.54378 -4.86791,-11.25631 -8.28449,-13.50634 -0.8946,-0.58915 -1.42183,-0.82596 -2.49405,-1.12016 l -1.02781,-0.28201 0.15697,-3.89223 0.15697,-3.89225 1.09932,0.30136 z"
         id="path3801" />
      <text
         xml:space="preserve"
         style="font-style:normal;font-weight:normal;font-size:15.85303593px;line-height:125%;font-family:sans-serif;letter-spacing:0px;word-spacing:0px;fill:#000000;fill-opacity:1;stroke:none;stroke-width:1px;stroke-linecap:butt;stroke-linejoin:miter;stroke-opacity:1"
         x="626.23499"
         y="314.95779"
         id="text12130"><tspan
           id="tspan12132"
           x="626.23499"
           y="314.95779">lower </tspan><tspan
           x="626.23499"
           y="334.77408"
           id="tspan12134">slowly</tspan></text>
      <rect
         y="361.535"
         x="53.191193"
         height="22.038681"
         width="274.7948"
         id="rect12136"
         style="opacity:1;fill:none;fill-opacity:1;fill-rule:nonzero;stroke:#000000;stroke-width:1.87491393;stroke-miterlimit:4;stroke-dasharray:none;stroke-opacity:1" />
      <path
         id="path12138"
         d="m 139.32836,360.5312 a 38.863472,25.439803 0 0 1 38.86348,-25.43981 38.863472,25.439803 0 0 1 38.86346,25.43981"
         style="opacity:1;fill:#25b3d5;fill-opacity:0.70253164;fill-rule:nonzero;stroke:#000061;stroke-width:0.8009038;stroke-miterlimit:4;stroke-dasharray:none;stroke-opacity:1" />
      <g
         id="layer1-4"
         transform="matrix(-0.02698012,-0.4667309,0.4667309,-0.02698012,-129.41602,355.76883)">
        <g
           id="g4067">
          <path
             style="fill:#feca79"
             id="path3645-7-4"
             d="m 447.73,445.22 c -20.083,22.556 -73.875,-33.761 -55.641,-53.14 18.234,-19.379 36.171,-39.05 55.072,-57.783 7.2429,-7.1784 13.737,-15.272 22.199,-21.068 11.487,-7.8678 28.044,-8.6956 39.514,-0.46429 8.6119,6.1802 15.543,15.627 16.761,26.326 1.854,16.292 -7.7136,27.175 -17.654,38.461 -19.961,22.664 -40.167,45.112 -60.25,67.668 z" />
          <path
             style="opacity:0.63617997;fill:url(#linearGradient4085)"
             id="path3645-7"
             d="m 447.73,445.22 c -20.083,22.556 -73.875,-33.761 -55.641,-53.14 18.234,-19.379 36.171,-39.05 55.072,-57.783 7.2429,-7.1784 13.737,-15.272 22.199,-21.068 11.487,-7.8678 28.044,-8.6956 39.514,-0.46429 8.6119,6.1802 15.543,15.627 16.761,26.326 1.854,16.292 -7.7136,27.175 -17.654,38.461 -19.961,22.664 -40.167,45.112 -60.25,67.668 z" />
          <path
             style="opacity:0.63617997;fill:url(#linearGradient4087)"
             id="path3645-7-5"
             d="m 447.73,445.22 c -20.083,22.556 -73.875,-33.761 -55.641,-53.14 18.234,-19.379 36.171,-39.05 55.072,-57.783 7.2429,-7.1784 13.737,-15.272 22.199,-21.068 11.487,-7.8678 28.044,-8.6956 39.514,-0.46429 8.6119,6.1802 15.543,15.627 16.761,26.326 1.854,16.292 -7.7136,27.175 -17.654,38.461 -19.961,22.664 -40.167,45.112 -60.25,67.668 z" />
          <path
             style="fill:none;stroke:#000000;stroke-width:1px"
             id="path3645"
             d="m 391.68,392.08 c 18.234,-19.379 36.171,-39.05 55.072,-57.783 7.2429,-7.1784 13.737,-15.272 22.199,-21.068 11.487,-7.8678 28.044,-8.6956 39.514,-0.46429 8.6119,6.1802 15.543,15.627 16.761,26.326 1.854,16.292 -7.7136,27.175 -17.654,38.461 -19.961,22.664 -40.167,45.112 -60.25,67.668" />
          <path
             style="fill:#f4c57b"
             id="path3634-2"
             d="m 362.99,409.33 c -0.49369,-5.5198 1.0637,-10.935 5.6376,-14.167 10.148,-5.6413 21.158,-1.2708 30.29,4.118 7.2653,4.3311 14.055,9.373 20.565,14.78 11.862,10.196 22.271,22.198 25.368,37.825 0.97421,5.7497 2.6483,12.653 -1.4113,17.703 -14.499,13.058 -38.221,-8.5298 -49.174,-17.181 -7.8671,-6.3175 -15.191,-13.405 -21.945,-20.897 -5.7807,-6.0334 -8.2674,-14.056 -9.3294,-22.181 z" />
          <path
             style="opacity:0.6;fill:url(#linearGradient4089)"
             id="path3634-2-2"
             d="m 362.99,409.33 c -0.49369,-5.5198 1.0191,-11.002 5.593,-14.234 10.148,-5.6413 21.202,-1.2038 30.334,4.185 7.2653,4.3311 14.055,9.373 20.565,14.78 11.862,10.196 22.271,22.198 25.368,37.825 0.89625,5.7497 1.8038,12.832 -1.5898,17.882 -14.499,12.475 -38.042,-8.7094 -48.995,-17.36 -7.8671,-6.3175 -15.191,-13.405 -21.945,-20.897 -5.7807,-6.0334 -8.2674,-14.056 -9.3294,-22.181 z" />
          <path
             style="opacity:0.5;fill:url(#linearGradient4091)"
             id="path3634-2-8"
             d="m 362.99,409.33 c -0.49369,-5.5198 0.97445,-10.957 5.5483,-14.189 10.148,-5.6413 21.247,-1.2485 30.379,4.1403 7.2653,4.3311 14.055,9.373 20.565,14.78 11.862,10.196 22.271,22.198 25.368,37.825 0.89625,5.7497 2.2055,12.966 -1.1881,18.016 -14.499,12.475 -38.444,-8.8433 -49.397,-17.493 -7.8671,-6.3175 -15.191,-13.405 -21.945,-20.897 -5.7807,-6.0334 -8.2674,-14.056 -9.3294,-22.181 z" />
          <path
             style="fill:url(#linearGradient4093)"
             id="path3645-7-4-2"
             d="m 447.73,445.22 c -20.083,22.556 -73.875,-33.761 -55.641,-53.14 18.234,-19.379 36.171,-39.05 55.072,-57.783 7.2429,-7.1784 13.737,-15.272 22.199,-21.068 11.487,-7.8678 28.044,-8.6956 39.514,-0.46429 8.6119,6.1802 15.543,15.627 16.761,26.326 1.854,16.292 -7.7136,27.175 -17.654,38.461 -19.961,22.664 -40.167,45.112 -60.25,67.668 z" />
          <path
             style="fill:#feca79"
             id="path3639-9"
             d="m 371.07,394.28 c 8.4333,-4.1682 19.176,-3.7714 27.412,0.61357 14.144,7.5308 26.784,17.796 37.496,29.557 6.244,6.8551 11.297,16.575 12.559,26.271 0.83074,6.3799 -0.22146,13.709 -4.6108,18.782 l 0,0.17857 0.53572,-1.875 0.98214,-2.5893 0.80357,-4.1964 -0.80357,-8.8393 -1.6964,-6.3393 -1.9643,-3.9286 -2.6786,-5.5357 -4.375,-6.6071 -3.3928,-4.0179 -7.5,-7.8571 -9.4643,-7.9464 -7.2321,-5.1786 -8.75,-5.5357 -5.9821,-3.0357 -6.25,-2.0536 -5.2679,-1.4286 -4.1964,0.0893 -5.625,1.4732 z" />
          <path
             style="opacity:0.2;fill:url(#radialGradient4095)"
             id="path3639-9-9"
             d="m 371.07,394.28 c 8.4333,-4.1682 19.176,-3.7714 27.412,0.61357 14.144,7.5308 26.784,17.796 37.496,29.557 6.244,6.8551 11.297,16.575 12.559,26.271 0.83074,6.3799 -0.22146,13.709 -4.6108,18.782 l 0,0.17857 0.53572,-1.875 0.98214,-2.5893 0.80357,-4.1964 -0.80357,-8.8393 -1.6964,-6.3393 -1.9643,-3.9286 -2.6786,-5.5357 -4.375,-6.6071 -3.3928,-4.0179 -7.5,-7.8571 -9.4643,-7.9464 -7.2321,-5.1786 -8.75,-5.5357 -5.9821,-3.0357 -6.25,-2.0536 -5.2679,-1.4286 -4.1964,0.0893 -5.625,1.4732 z" />
          <path
             style="fill:none;stroke:#000000;stroke-width:1px"
             id="path3634"
             d="m 363.49,409.83 c -0.49369,-5.5198 0.72891,-11.27 5.3028,-14.502 10.148,-5.6413 21.493,-0.93597 30.624,4.4528 7.2653,4.3311 14.055,9.373 20.565,14.78 11.862,10.196 22.271,22.198 25.368,37.825 0.89625,5.7497 2.3263,13.161 -1.9916,17.391 -13.574,13.295 -37.64,-8.2183 -48.594,-16.868 -7.8671,-6.3175 -15.191,-13.405 -21.945,-20.897 -5.7807,-6.0334 -8.2674,-14.056 -9.3294,-22.181 z" />
          <path
             style="opacity:0.4;fill:url(#linearGradient4097)"
             id="path2830-1"
             d="m 385.71,416.65 c -1.9643,0.71428 -129.56,134.67 -186.43,208.57 -12.474,16.211 -23.151,33.756 -33.75,51.25 -0.31756,0.52414 -0.7921,1.0026 -0.89285,1.6072 -0.10075,0.6045 -0.38605,1.4193 -0.35715,2.1428 0.0392,0.98091 0.0357,2.1477 0.71429,2.8572 l 3.9286,4.1071 1.9643,1.6071 6.25,4.2857 c 0.68727,0.47127 1.7761,0.4092 2.5,0 17.096,-9.6637 32.707,-22.942 47.857,-35.536 71.466,-63.969 198.04,-208.75 198.04,-208.75 l 1.25,-3.75 -0.89286,-6.9643 -4.6429,-8.2143 -5.7143,-6.6071 -10.714,-7.3214 -9.1071,-3.3929 -6.6072,1.0714 -3.3928,3.0357 z" />
          <path
             style="opacity:0.3;fill:url(#linearGradient4099)"
             id="path2830-1-3"
             d="m 385.71,416.65 c -1.9643,0.71428 -129.56,134.67 -186.43,208.57 -12.474,16.211 -23.151,33.756 -33.75,51.25 -0.31756,0.52414 -0.7921,1.0026 -0.89285,1.6072 -0.10075,0.6045 -0.38605,1.4193 -0.35715,2.1428 0.0392,0.98091 0.0357,2.1477 0.71429,2.8572 l 3.9286,4.1071 1.9643,1.6071 6.25,4.2857 c 0.68727,0.47127 1.7761,0.4092 2.5,0 17.096,-9.6637 32.707,-22.942 47.857,-35.536 71.466,-63.969 198.04,-208.75 198.04,-208.75 l 1.25,-3.75 -0.89286,-6.9643 -4.6429,-8.2143 -5.7143,-6.6071 -10.714,-7.3214 -9.1071,-3.3929 -6.6072,1.0714 -3.3928,3.0357 z" />
          <path
             style="fill:none;stroke:#000000;stroke-width:1px"
             id="path2830"
             d="m 385.71,416.65 c -1.9643,0.71428 -129.56,134.67 -186.43,208.57 -12.474,16.211 -23.151,33.756 -33.75,51.25 -0.31756,0.52414 -0.7921,1.0026 -0.89285,1.6072 -0.10075,0.6045 -0.38605,1.4193 -0.35715,2.1428 0.0392,0.98091 0.0357,2.1477 0.71429,2.8572 l 3.9286,4.1071 1.9643,1.6071 6.25,4.2857 c 0.68727,0.47127 1.7761,0.4092 2.5,0 17.096,-9.6637 32.707,-22.942 47.857,-35.536 71.466,-63.969 198.04,-208.75 198.04,-208.75 3.0653,-6.9124 0.0614,-13.281 -3.8857,-18.929 -1.668,-2.3867 -3.9418,-4.6684 -6.1143,-6.6071 -8.5718,-7.2522 -19.514,-14.642 -29.821,-6.6071 z" />
          <path
             style="opacity:0.3;fill:url(#linearGradient4101)"
             id="path3645-7-4-2-8"
             d="m 447.73,445.22 c -20.083,22.556 -73.875,-33.761 -55.641,-53.14 18.234,-19.379 36.171,-39.05 55.072,-57.783 7.2429,-7.1784 13.737,-15.272 22.199,-21.068 11.487,-7.8678 28.044,-8.6956 39.514,-0.46429 8.6119,6.1802 15.543,15.627 16.761,26.326 1.854,16.292 -7.7136,27.175 -17.654,38.461 -19.961,22.664 -40.167,45.112 -60.25,67.668 z" />
          <path
             style="fill:none;stroke:#000000;stroke-width:1px"
             id="path3639"
             d="m 371.07,394.28 c 8.4333,-4.1682 19.176,-3.7714 27.412,0.61357 14.144,7.5308 26.784,17.796 37.496,29.557 6.244,6.8551 11.297,16.575 12.559,26.271 0.83074,6.3799 -0.62325,13.798 -5.0126,18.871" />
        </g>
      </g>
      <g
         transform="matrix(0.1549603,0,0,0.1549603,168.4721,258.81831)"
         id="Layer_1"
         style="fill:#25b3d5;fill-opacity:0.70253164">
        <linearGradient
           id="linearGradient4463"
           gradientUnits="userSpaceOnUse"
           x1="27.813499"
           y1="111.8271"
           x2="210.9595"
           y2="240.0674">
          <stop
             offset="0"
             style="stop-color:#D7E1FF"
             id="stop4465" />
          <stop
             offset="0.1917"
             style="stop-color:#D4DEFD"
             id="stop4467" />
          <stop
             offset="0.3573"
             style="stop-color:#C9D4F8"
             id="stop4469" />
          <stop
             offset="0.5132"
             style="stop-color:#B7C3EE"
             id="stop4471" />
          <stop
             offset="0.6632"
             style="stop-color:#9EABE1"
             id="stop4473" />
          <stop
             offset="0.809"
             style="stop-color:#7E8CD0"
             id="stop4475" />
          <stop
             offset="0.9498"
             style="stop-color:#5767BB"
             id="stop4477" />
          <stop
             offset="1"
             style="stop-color:#4758B3"
             id="stop4479" />
        </linearGradient>
        <path
           d="m 106.117,309.742 c 64.33,-1.896 114.535,-53.378 104.935,-120.58 C 206.479,157.148 181.159,119.634 164.419,90.714 144.492,56.292 124.429,27.628 106.117,0 l -0.001,0 C 87.803,27.628 67.74,56.292 47.814,90.714 31.073,119.633 5.754,157.148 1.181,189.162 c -9.6,67.202 40.605,118.685 104.936,120.58 l 0,0 z"
           id="path4433"
           style="fill:#25b3d5;fill-opacity:0.70253164" />
      </g>
      <g
         id="Ebene_1"
         transform="matrix(-0.09984793,0,0,0.09984793,405.16647,289.53069)">
        <polygon
           points="0,182.35938 233.17773,0 233.17773,141.73242 902.25049,141.73242 902.25049,222.98633 902.25049,222.98633 233.17773,222.98633 233.17773,364.71875 "
           id="path2050" />
      </g>
    </g>
  </g>
</svg>
