<?xml version="1.0" encoding="UTF-8" standalone="no"?>
<svg
   xmlns:dc="http://purl.org/dc/elements/1.1/"
   xmlns:cc="http://creativecommons.org/ns#"
   xmlns:rdf="http://www.w3.org/1999/02/22-rdf-syntax-ns#"
   xmlns:svg="http://www.w3.org/2000/svg"
   xmlns="http://www.w3.org/2000/svg"
   xmlns:xlink="http://www.w3.org/1999/xlink"
   version="1.1"
   id="svg4554"
   viewBox="0 0 422 375.00001"
   height="375"
   width="422">
  <defs
     id="defs4556">
    <linearGradient
       gradientTransform="matrix(-0.19135044,0.06520434,0.08159606,0.23945401,95.250802,680.62449)"
       gradientUnits="userSpaceOnUse"
       xlink:href="#linearGradient3848"
       id="linearGradient3409"
       y2="280.11896"
       x2="313.90347"
       y1="280.11896"
       x1="275.96164" />
    <linearGradient
       id="linearGradient3848">
      <stop
         offset="0"
         style="stop-color:#ffffff;stop-opacity:1"
         id="stop3852" />
      <stop
         offset="1"
         style="stop-color:#959595;stop-opacity:1"
         id="stop3854" />
    </linearGradient>
    <linearGradient
       gradientTransform="matrix(-0.19135044,0.06520435,0.08159606,0.23945401,95.250802,680.62449)"
       gradientUnits="userSpaceOnUse"
       xlink:href="#linearGradient3626"
       id="linearGradient3407"
       y2="293.92978"
       x2="294.69336"
       y1="293.92978"
       x1="255.14" />
    <linearGradient
       id="linearGradient3626">
      <stop
         offset="0"
         style="stop-color:#c8c8c8;stop-opacity:1"
         id="stop3628" />
      <stop
         offset="0.5"
         style="stop-color:#ffffff;stop-opacity:1"
         id="stop3647" />
      <stop
         offset="1"
         style="stop-color:#c8c8c8;stop-opacity:1"
         id="stop3630" />
    </linearGradient>
    <radialGradient
       gradientTransform="matrix(-0.1979306,0.06744659,0.07947687,0.23323498,70.19684,614.93245)"
       gradientUnits="userSpaceOnUse"
       xlink:href="#linearGradient3672-0"
       id="radialGradient3405"
       fy="438.07648"
       fx="376.07144"
       r="38.864445"
       cy="438.07648"
       cx="376.07144" />
    <linearGradient
       id="linearGradient3672-0">
      <stop
         offset="0"
         style="stop-color:#646464;stop-opacity:1"
         id="stop3674-9" />
      <stop
         offset="0.37062499"
         style="stop-color:#ffffff;stop-opacity:1"
         id="stop3680-4" />
      <stop
         offset="0.61044198"
         style="stop-color:#b1b1b1;stop-opacity:1"
         id="stop3682-8" />
      <stop
         offset="0.80526501"
         style="stop-color:#8a8a8a;stop-opacity:1"
         id="stop3684-8" />
      <stop
         offset="1"
         style="stop-color:#646464;stop-opacity:1"
         id="stop3676-2" />
    </linearGradient>
    <linearGradient
       gradientTransform="matrix(-0.20005314,0.06816987,0.07804647,0.22903727,95.250802,680.62449)"
       gradientUnits="userSpaceOnUse"
       xlink:href="#linearGradient3799"
       id="linearGradient3403"
       y2="172.74437"
       x2="238.51291"
       y1="172.74437"
       x1="223.07954" />
    <linearGradient
       id="linearGradient3799">
      <stop
         offset="0"
         style="stop-color:#57534a;stop-opacity:0.69019598"
         id="stop3801" />
      <stop
         offset="1"
         style="stop-color:#feca79;stop-opacity:0"
         id="stop3803" />
    </linearGradient>
    <linearGradient
       gradientTransform="matrix(-0.19992477,0.06812613,0.07809659,0.22918435,95.250802,680.62449)"
       gradientUnits="userSpaceOnUse"
       xlink:href="#linearGradient3799"
       id="linearGradient3401"
       y2="173.35522"
       x2="283.81314"
       y1="173.35522"
       x1="254.34129" />
    <linearGradient
       gradientTransform="matrix(-0.19373202,0.06601589,0.08059298,0.23651035,95.250802,680.62449)"
       gradientUnits="userSpaceOnUse"
       xlink:href="#linearGradient3672"
       id="linearGradient3399"
       y2="318.18097"
       x2="609.57593"
       y1="318.18097"
       x1="634.29034" />
    <linearGradient
       id="linearGradient3672">
      <stop
         offset="0"
         style="stop-color:#ffffff;stop-opacity:0"
         id="stop3680" />
      <stop
         offset="0.352211"
         style="stop-color:#b1b1b1;stop-opacity:0.196078"
         id="stop3682" />
      <stop
         offset="0.72928602"
         style="stop-color:#8a8a8a;stop-opacity:0.58823502"
         id="stop3684" />
      <stop
         offset="1"
         style="stop-color:#646464;stop-opacity:1"
         id="stop3676" />
    </linearGradient>
    <linearGradient
       gradientTransform="matrix(-0.19373202,0.06601589,0.08059298,0.23651035,95.250802,680.62449)"
       gradientUnits="userSpaceOnUse"
       xlink:href="#linearGradient3672"
       id="linearGradient3397"
       y2="318.18097"
       x2="665.76721"
       y1="318.18097"
       x1="634.29034" />
    <radialGradient
       gradientTransform="matrix(0.02916442,-0.03316794,0.02707431,0.03256446,70.794,806.06487)"
       gradientUnits="userSpaceOnUse"
       xlink:href="#linearGradient3534"
       id="radialGradient3411"
       fy="658.84564"
       fx="481.38342"
       r="189.35699"
       cy="658.84564"
       cx="481.38342" />
    <linearGradient
       id="linearGradient3534">
      <stop
         offset="0"
         style="stop-color:#ffffff;stop-opacity:1"
         id="stop3536" />
      <stop
         offset="1"
         style="stop-color:#ffffff;stop-opacity:0"
         id="stop3538" />
    </linearGradient>
    <radialGradient
       gradientTransform="matrix(0.02713295,0.01714523,-0.04645256,0.1005576,103.54619,757.7995)"
       gradientUnits="userSpaceOnUse"
       xlink:href="#linearGradient3534"
       id="radialGradient3413"
       fy="350.62665"
       fx="271.67026"
       r="197.2068"
       cy="350.62665"
       cx="271.67026" />
    <radialGradient
       gradientUnits="userSpaceOnUse"
       gradientTransform="matrix(0.41069085,0,0,0.67581775,12.40188,628.25292)"
       r="17.788445"
       fy="258.86252"
       fx="207.22127"
       cy="258.86252"
       cx="207.22127"
       id="radialGradient4892"
       xlink:href="#linearGradient4886" />
    <linearGradient
       id="linearGradient4886">
      <stop
         id="stop4888"
         offset="0"
         style="stop-color:#78dcfa;stop-opacity:1;" />
      <stop
         id="stop4890"
         offset="1"
         style="stop-color:#78dcfa;stop-opacity:0;" />
    </linearGradient>
    <filter
       style="color-interpolation-filters:sRGB"
       id="filter3537"
       height="1.5148996"
       width="1.6155015"
       y="-0.25744981"
       x="-0.30775076">
      <feGaussianBlur
         stdDeviation="13.005789"
         id="feGaussianBlur3539" />
    </filter>
  </defs>
  <metadata
     id="metadata4559">
    <rdf:RDF>
      <cc:Work
         rdf:about="">
        <dc:format>image/svg+xml</dc:format>
        <dc:type
           rdf:resource="http://purl.org/dc/dcmitype/StillImage" />
        <dc:title></dc:title>
        <cc:license
           rdf:resource="http://creativecommons.org/publicdomain/zero/1.0/" />
      </cc:Work>
      <cc:License
         rdf:about="http://creativecommons.org/publicdomain/zero/1.0/">
        <cc:permits
           rdf:resource="http://creativecommons.org/ns#Reproduction" />
        <cc:permits
           rdf:resource="http://creativecommons.org/ns#Distribution" />
        <cc:permits
           rdf:resource="http://creativecommons.org/ns#DerivativeWorks" />
      </cc:License>
    </rdf:RDF>
  </metadata>
  <g
     transform="translate(0,-677.36218)"
     id="layer1">
    <rect
       width="421.64252"
       height="374.95578"
       x="0.2221089"
       y="677.38434"
       id="rect5610"
       style="fill:#ffffff;fill-opacity:1;stroke:#000000;stroke-width:0.04421779;stroke-miterlimit:4;stroke-dasharray:none;stroke-opacity:1" />
    <path
       style="fill:#feca79"
       id="path3645-7-4"
       d="m 24.255197,748.42258 c 5.754423,3.86701 11.958951,-12.79804 6.821222,-16.05445 -5.137745,-3.2564 -10.239648,-6.60015 -15.458544,-9.66193 -1.999852,-1.17325 -3.923585,-2.60884 -6.0557244,-3.37981 -2.894313,-1.04659 -6.236644,-0.12153 -7.85761,2.55758 -1.21705901,2.01152 -1.84377701,4.66589 -1.24080701,7.22469 0.91818101,3.89643 3.67044201,5.77065 6.52820001,7.71288 5.7386014,3.9002 11.5088394,7.73403 17.2632634,11.60104 z" />
    <path
       style="opacity:0.63617799;fill:url(#linearGradient3397)"
       id="path3645-7"
       d="m 24.255197,748.42258 c 5.754423,3.86701 11.958951,-12.79804 6.821222,-16.05445 -5.137745,-3.2564 -10.239648,-6.60015 -15.458544,-9.66193 -1.999852,-1.17325 -3.923585,-2.60884 -6.0557244,-3.37981 -2.894313,-1.04659 -6.236635,-0.12154 -7.85761,2.55758 -1.21705901,2.01152 -1.84377701,4.66589 -1.24079501,7.2247 0.91816901,3.89642 3.67043001,5.77064 6.52819101,7.71288 5.7385984,3.90019 11.5088364,7.73402 17.2632604,11.60103 z" />
    <path
       style="opacity:0.63617799;fill:url(#linearGradient3399)"
       id="path3645-7-5"
       d="m 24.255197,748.42258 c 5.754423,3.86701 11.958951,-12.79804 6.821222,-16.05445 -5.137745,-3.2564 -10.239648,-6.60015 -15.458544,-9.66193 -1.999852,-1.17325 -3.923585,-2.60884 -6.0557244,-3.37981 -2.894313,-1.04659 -6.236635,-0.12154 -7.85761,2.55758 -1.21705901,2.01152 -1.84377701,4.66589 -1.24079501,7.2247 0.91816901,3.89642 3.67043001,5.77064 6.52819101,7.71288 5.7385984,3.90019 11.5088364,7.73402 17.2632604,11.60103 z" />
    <path
       style="fill:#4454c6;fill-opacity:0.79729728;stroke:#000000;stroke-width:0.22614165px"
       id="path3645"
       d="m 31.15822,732.34025 c -5.137735,-3.2564 -10.239638,-6.60015 -15.458534,-9.66193 -1.999853,-1.17325 -3.923595,-2.60884 -6.0557244,-3.37981 -2.894304,-1.04659 -6.236635,-0.12153 -7.857619,2.55759 -1.21704101,2.01151 -1.84376801,4.66588 -1.24079901,7.22469 0.91818101,3.89642 3.67044201,5.77064 6.52819101,7.71288 5.7386014,3.90019 11.5088494,7.73402 17.2632634,11.60104" />
    <path
       style="fill:#f4c57b"
       id="path3634-2"
       d="m 38.19767,734.39998 c -0.337699,-1.3111 -1.073131,-2.45964 -2.233381,-2.89929 -2.453689,-0.62145 -4.288025,1.13284 -5.670382,2.99622 -1.096366,1.49262 -2.042462,3.11772 -2.904448,4.80853 -1.54358,3.16041 -2.65712,6.64079 -2.03739,10.4673 0.260727,1.39673 0.473957,3.10779 1.675812,4.00295 3.899792,2.04495 6.892189,-4.55245 8.37775,-7.2939 1.058794,-1.99306 1.949348,-4.12787 2.695205,-6.31774 0.668248,-1.78659 0.527617,-3.81136 0.09683,-5.76407 z" />
    <path
       style="opacity:0.6;fill:url(#linearGradient3401)"
       id="path3634-2-2"
       d="m 38.19767,734.39998 c -0.337699,-1.3111 -1.069583,-2.47815 -2.229833,-2.9178 -2.453676,-0.62145 -4.291573,1.15135 -5.67393,3.01473 -1.096366,1.49262 -2.042453,3.11772 -2.904448,4.80853 -1.54358,3.16041 -2.65711,6.64079 -2.03739,10.4673 0.276165,1.39147 0.655204,3.09216 1.725236,4.03225 3.853803,1.90996 6.842687,-4.58197 8.328326,-7.3232 1.058794,-1.99306 1.949338,-4.12786 2.695205,-6.31774 0.668248,-1.78659 0.527617,-3.81136 0.09683,-5.76407 z" />
    <path
       style="opacity:0.5;fill:url(#linearGradient3403)"
       id="path3634-2-8"
       d="m 38.19767,734.39998 c -0.337699,-1.3111 -1.05722,-2.47083 -2.21747,-2.91048 -2.453686,-0.62145 -4.303936,1.14403 -5.686293,3.00741 -1.096366,1.49262 -2.042462,3.11772 -2.904448,4.80853 -1.54358,3.16041 -2.65712,6.64079 -2.03739,10.4673 0.276165,1.39147 0.586241,3.15027 1.65628,4.09035 3.853802,1.90996 6.911643,-4.64007 8.397282,-7.3813 1.058794,-1.99306 1.949338,-4.12786 2.695205,-6.31774 0.668248,-1.78659 0.527617,-3.81136 0.09683,-5.76407 z" />
    <path
       style="fill:#feca79"
       id="path3639-9"
       d="m 35.411086,731.46021 c -1.998026,-0.39612 -4.093102,0.42031 -5.377342,1.9909 -2.205521,2.6973 -3.897494,5.92616 -5.090087,9.37124 -0.695134,2.00804 -0.928503,4.59888 -0.413542,6.92865 0.338831,1.53293 1.125208,3.15852 2.394173,4.03685 l 0.01409,0.0414 -0.253939,-0.39792 -0.398647,-0.53316 -0.490075,-0.91724 -0.538225,-2.10044 -0.164296,-1.58192 0.07889,-1.04192 0.0935,-1.46215 0.344756,-1.82458 0.354607,-1.15895 0.864672,-2.32472 1.246434,-2.47789 1.022952,-1.68658 1.295223,-1.87164 0.944576,-1.10623 1.07508,-0.89692 0.929973,-0.68601 0.837632,-0.2624 1.229578,-0.0384 z" />
    <path
       style="opacity:0.2;fill:url(#radialGradient3405)"
       id="path3639-9-9"
       d="m 35.411086,731.46021 c -1.998026,-0.39612 -4.093102,0.42031 -5.377342,1.9909 -2.205521,2.6973 -3.897494,5.92616 -5.090087,9.37124 -0.695134,2.00804 -0.928503,4.59888 -0.413542,6.92865 0.338831,1.53293 1.125208,3.15852 2.394173,4.03685 l 0.01409,0.0414 -0.253939,-0.39792 -0.398647,-0.53316 -0.490075,-0.91724 -0.538225,-2.10044 -0.164296,-1.58192 0.07889,-1.04192 0.0935,-1.46215 0.344756,-1.82458 0.354607,-1.15895 0.864672,-2.32472 1.246434,-2.47789 1.022952,-1.68658 1.295223,-1.87164 0.944576,-1.10623 1.07508,-0.89692 0.929973,-0.68601 0.837632,-0.2624 1.229578,-0.0384 z" />
    <path
       style="fill:none;stroke:#000000;stroke-width:0.22614165px"
       id="path3634"
       d="m 38.138149,734.54944 c -0.337709,-1.31109 -1.033273,-2.55971 -2.193526,-2.99938 -2.453686,-0.62144 -4.32788,1.23294 -5.710237,3.09632 -1.096372,1.49263 -2.042462,3.11772 -2.904448,4.80852 -1.54358,3.16041 -2.65712,6.6408 -2.037399,10.46731 0.276174,1.39147 0.577783,3.20367 1.766036,3.89147 3.735579,2.16224 6.801896,-4.4412 8.287535,-7.18242 1.058794,-1.99307 1.949338,-4.12787 2.695195,-6.31774 0.668257,-1.78659 0.527627,-3.81137 0.09684,-5.76408 z" />
    <path
       style="opacity:0.4;fill:url(#linearGradient3407)"
       id="path2830-1"
       d="m 34.277124,737.62541 c 0.445143,0.0329 36.26729,22.43694 53.352748,35.70894 3.74784,2.91133 7.24498,6.25275 10.72294,9.58771 0.1042,0.0999 0.23587,0.17867 0.3035,0.31183 0.0677,0.13313 0.18834,0.30252 0.23974,0.47196 0.0698,0.22965 0.1628,0.49944 0.084,0.70959 l -0.45359,1.21574 -0.26202,0.50452 -0.899,1.41366 c -0.0988,0.15546 -0.31925,0.21452 -0.49482,0.16862 -4.14616,-1.084 -8.28353,-3.10494 -12.275577,-4.99849 -19.191344,-9.98839 -55.66424,-34.96741 -55.66424,-34.96741 l -0.543234,-0.78379 -0.372637,-1.67241 0.270992,-2.21469 0.609834,-1.91492 1.543149,-2.4175 1.534949,-1.39967 1.392265,-0.1976 0.91102,0.47391 z" />
    <path
       style="opacity:0.3;fill:url(#linearGradient3409)"
       id="path2830-1-3"
       d="m 34.277124,737.62541 c 0.445143,0.0329 36.2673,22.43694 53.352748,35.70894 3.74785,2.91133 7.24499,6.25275 10.72294,9.58771 0.1042,0.0999 0.23587,0.17867 0.3035,0.31183 0.0677,0.13313 0.18834,0.30252 0.23974,0.47196 0.0698,0.22965 0.1628,0.49944 0.084,0.70959 l -0.4536,1.21574 -0.26202,0.50452 -0.89899,1.41366 c -0.0988,0.15545 -0.31926,0.21452 -0.49483,0.16862 -4.14615,-1.084 -8.28353,-3.10494 -12.275568,-4.99849 C 65.403701,772.7311 28.930805,747.75208 28.930805,747.75208 l -0.543224,-0.78379 -0.372647,-1.67241 0.270992,-2.21469 0.609844,-1.91492 1.543139,-2.4175 1.534949,-1.39967 1.392265,-0.1976 0.91102,0.47391 z" />
    <path
       style="fill:none;stroke:#000000;stroke-width:0.22614165px"
       id="path2830"
       d="m 34.277124,737.62541 c 0.445143,0.0329 36.26729,22.43694 53.352748,35.70894 3.74784,2.91133 7.24498,6.25275 10.72293,9.58771 0.1042,0.0999 0.23588,0.17867 0.3035,0.31183 0.0677,0.13314 0.18834,0.30252 0.23974,0.47196 0.0698,0.22965 0.1628,0.49945 0.084,0.70959 l -0.45359,1.21574 -0.26202,0.50452 -0.899,1.41366 c -0.0988,0.15546 -0.31926,0.21453 -0.49482,0.16862 -4.14616,-1.084 -8.28353,-3.10494 -12.275576,-4.99849 C 65.403696,772.7311 28.9308,747.75208 28.9308,747.75208 c -1.151997,-1.39343 -1.059767,-3.07033 -0.724049,-4.64392 0.141891,-0.665 0.411939,-1.34656 0.689004,-1.94189 1.124544,-2.25697 2.707425,-4.70561 5.381383,-3.54086 z" />
    <path
       style="fill:none;stroke:#000000;stroke-width:0.22614165px"
       id="path3639"
       d="m 35.411086,731.46021 c -1.998026,-0.39612 -4.093102,0.42031 -5.377342,1.9909 -2.205521,2.6973 -3.897494,5.92616 -5.090087,9.37124 -0.695134,2.00804 -0.928503,4.59888 -0.413542,6.92865 0.338831,1.53293 1.211791,3.15208 2.480747,4.03042" />
    <path
       style="opacity:0.75;fill:#78dcfa;fill-opacity:1;stroke:#7f3f00;stroke-width:1.13070822"
       id="svg_3"
       d="m 98.094942,782.97437 -7.25247,-6.52614 -10.845828,-8.46295 -4.120455,9.42887 9.356725,5.32274 11.159758,4.46518 1.70227,-4.2277 z" />
    <path
       style="color:#000000;display:inline;overflow:visible;visibility:visible;opacity:0.69855071;fill:#0041f1;fill-opacity:0.52601157;fill-rule:evenodd;stroke:none;stroke-width:3;marker:none"
       id="path2530"
       d="m 104.81131,806.90679 c 0,4.58809 -3.27261,8.31175 -7.304938,8.31175 -4.03233,0 -7.37955,-3.72449 -7.30494,-8.31175 0.0991,-6.15324 4.1152,-8.65957 7.30494,-15.73174 3.387998,6.84029 7.304938,11.14365 7.304938,15.73174 z" />
    <path
       style="color:#000000;display:inline;overflow:visible;visibility:visible;opacity:0.69855071;fill:url(#radialGradient3411);fill-opacity:1;fill-rule:evenodd;stroke:none;stroke-width:3;marker:none"
       id="path3520"
       d="m 104.55911,806.8875 c 0,4.40546 -3.14235,7.98091 -7.014168,7.98091 -3.87183,0 -7.08581,-3.57624 -7.01417,-7.98091 0.0952,-5.90831 3.9514,-8.31488 7.01417,-15.10554 3.253128,6.56802 7.014168,10.70008 7.014168,15.10554 z" />
    <path
       style="color:#000000;display:inline;overflow:visible;visibility:visible;opacity:0.69855071;fill:url(#radialGradient3413);fill-opacity:1;fill-rule:evenodd;stroke:none;stroke-width:3;marker:none"
       id="path3542"
       d="m 104.4371,806.71675 c 0,4.35307 -3.10498,7.886 -6.930758,7.886 -3.82578,0 -7.00155,-3.53371 -6.93076,-7.886 0.0941,-5.83806 3.90441,-8.216 6.93076,-14.92591 2.07831,21.64648 6.930758,10.57284 6.930758,14.92591 z" />
    <path
       style="color:#000000;display:inline;overflow:visible;visibility:visible;opacity:0.69855071;fill:url(#radialGradient4892);fill-opacity:1;fill-rule:evenodd;stroke:none;stroke-width:3;marker:none"
       id="path3556"
       d="m 104.81131,806.90679 c 0,4.58809 -3.27261,8.31175 -7.304938,8.31175 -4.03233,0 -7.37955,-3.72449 -7.30494,-8.31175 0.0991,-6.15324 4.1152,-8.65957 7.30494,-15.73174 3.387998,6.84029 7.304938,11.14365 7.304938,15.73174 z" />
    <path
       style="color:#000000;display:inline;overflow:visible;visibility:visible;opacity:0.82318845;fill:#ffffff;fill-opacity:0.80057804;fill-rule:evenodd;stroke:none;stroke-width:3;marker:none;filter:url(#filter3537)"
       id="path3541"
       transform="matrix(0.01544851,-0.0213319,0.01797327,0.01807749,77.59343,808.50827)"
       d="m 735.71429,328.327 a 55,35 0 1 1 -110,0 55,35 0 1 1 110,0 z" />
    <path
       d="m 133.22458,786.29131 c -16.3612,5.028 -27.4082,19.24764 -25.5415,32.36274 l 6.2446,-1.91742 c -1.2462,-10.37798 7.5281,-21.5287 20.4515,-25.4999 12.9257,-3.97118 25.3847,0.65379 28.8317,10.3545 l 6.2447,-1.91742 c -4.1023,-12.42949 -19.8689,-18.40976 -36.231,-13.38251 z"
       style="fill:#000000;fill-opacity:1;fill-rule:nonzero;stroke:none"
       id="path80" />
    <path
       d="m 179.25628,793.8231 -25.1067,7.75297 8.2711,6.79164 8.2712,6.79468 4.2826,-10.67117 4.2818,-10.66812 z"
       style="fill:#000000;fill-opacity:1;fill-rule:nonzero;stroke:none"
       id="path82" />
    <path
       d="m 169.71238,813.78588 -7.5189,-6.17876 -1.1159,-0.87879 c 1.9325,-0.41741 3.7909,-0.21287 5.7704,-0.16893 4.8803,0.11287 5.1318,-3.09544 7.4545,-4.11287 l -0.6924,1.64243 -3.8977,9.69692 z"
       style="fill:#000000;fill-opacity:1;fill-rule:nonzero;stroke:none"
       id="path84" />
    <path
       d="m 228.54618,787.13826 c -16.3621,5.02725 -27.409,19.24689 -25.5416,32.36199 l 6.2439,-1.92045 c -1.2462,-10.37799 7.528,-21.52566 20.4545,-25.49686 12.9227,-3.97119 25.3847,0.65075 28.8294,10.3545 l 6.2439,-1.91742 c -4.1015,-12.42948 -19.8688,-18.40977 -36.2301,-13.38176 z"
       style="fill:#000000;fill-opacity:1;fill-rule:nonzero;stroke:none"
       id="path86" />
    <path
       d="m 274.58008,794.66929 -12.556,3.8765 -12.553,3.87651 16.5423,13.58327 4.2818,-10.66814 4.2849,-10.66813 z"
       style="fill:#000000;fill-opacity:1;fill-rule:nonzero;stroke:none"
       id="path88" />
    <path
       d="m 265.03388,814.62982 -7.5166,-6.17649 -1.119,-0.87879 c 1.9326,-0.41743 3.7909,-0.21287 5.7705,-0.16818 4.8802,0.10913 5.1318,-3.09545 7.4575,-4.11665 l -0.6954,1.64545 -3.897,9.69466 z"
       style="fill:#000000;fill-opacity:1;fill-rule:nonzero;stroke:none"
       id="path90" />
    <path
       d="m 322.40788,788.82765 c -16.3621,5.02801 -27.409,19.24689 -25.5416,32.36275 l 6.244,-1.91742 c -1.2455,-10.37876 7.5287,-21.5287 20.4544,-25.50065 12.9234,-3.9712 25.3848,0.65454 28.8294,10.35754 l 6.2439,-1.92045 c -4.1015,-12.42874 -19.865,-18.40977 -36.2301,-13.38176 z"
       style="fill:#000000;fill-opacity:1;fill-rule:nonzero;stroke:none"
       id="path92" />
    <path
       d="m 368.44248,796.35944 -12.5537,3.87651 -12.556,3.8765 8.2712,6.79163 8.2712,6.79467 4.2848,-10.66889 4.2825,-10.67041 z"
       style="fill:#000000;fill-opacity:1;fill-rule:nonzero;stroke:none"
       id="path94" />
    <text
       id="text4577"
       y="1052.1625"
       x="98.229912"
       style="font-style:normal;font-weight:bold;font-size:13.33327675px;line-height:125%;font-family:Sans;-inkscape-font-specification:'Sans Bold';text-align:center;letter-spacing:0px;word-spacing:0px;text-anchor:middle;fill:#000000;fill-opacity:1;stroke:none;stroke-width:1px;stroke-linecap:butt;stroke-linejoin:miter;stroke-opacity:1"
       xml:space="preserve"><tspan
         style="font-style:normal;font-variant:normal;font-weight:normal;font-stretch:normal;font-size:20.45445633px;font-family:'noto sans';-inkscape-font-specification:'noto sans'"
         y="1052.1625"
         x="98.229912"
         id="tspan4579">1/5</tspan></text>
    <text
       xml:space="preserve"
       style="font-style:normal;font-weight:bold;font-size:13.33327675px;line-height:125%;font-family:Sans;-inkscape-font-specification:'Sans Bold';text-align:center;letter-spacing:0px;word-spacing:0px;text-anchor:middle;fill:#000000;fill-opacity:1;stroke:none;stroke-width:1px;stroke-linecap:butt;stroke-linejoin:miter;stroke-opacity:1"
       x="192.46678"
       y="1052.1625"
       id="text4581"><tspan
         id="tspan4583"
         x="192.46678"
         y="1052.1625"
         style="font-style:normal;font-variant:normal;font-weight:normal;font-stretch:normal;font-size:20.45445633px;font-family:'noto sans';-inkscape-font-specification:'noto sans'">1/25</tspan></text>
    <text
       xml:space="preserve"
       style="font-style:normal;font-weight:bold;font-size:13.33327675px;line-height:125%;font-family:Sans;-inkscape-font-specification:'Sans Bold';text-align:center;letter-spacing:0px;word-spacing:0px;text-anchor:middle;fill:#000000;fill-opacity:1;stroke:none;stroke-width:1px;stroke-linecap:butt;stroke-linejoin:miter;stroke-opacity:1"
       x="287.33298"
       y="1052.1625"
       id="text4589"><tspan
         id="tspan4591"
         x="287.33298"
         y="1052.1625"
         style="font-style:normal;font-variant:normal;font-weight:normal;font-stretch:normal;font-size:20.45445633px;font-family:'noto sans';-inkscape-font-specification:'noto sans'">1/125</tspan></text>
    <path
       d="m 79.18698,934.86488 c 2.471201,5.29695 39.74907,4.53029 40.8377,0 l 0,68.93622 c -1.39999,27.2247 -35.68848,34.3656 -40.8377,0 l 0,-68.93622 z"
       style="fill:#78dcfa;fill-opacity:1;fill-rule:nonzero;stroke:none"
       id="path32" />
    <path
       d="m 79.230919,830.58882 c 0.884845,4.7174 41.560431,3.4568 41.012701,0 l 0,173.15838 c -3.86741,30.3831 -36.866507,31.3242 -41.012701,0 l 0,-173.15838 z"
       style="fill:none;stroke:#000000;stroke-width:1.26150966;stroke-linecap:round;stroke-linejoin:miter;stroke-miterlimit:4;stroke-dasharray:none;stroke-opacity:1"
       id="path34" />
    <path
       d="m 121.22922,830.57745 c 0,0.825 -2.29923,1.64469 -6.24997,2.23105 -3.95377,0.58258 -9.50526,0.92348 -15.092358,0.92348 -5.59013,0 -11.14162,-0.3409 -15.092361,-0.92348 -3.95074,-0.58636 -6.253003,-1.40605 -6.253003,-2.23105 0,-0.82575 2.302263,-1.64544 6.253003,-2.22878 3.950741,-0.58257 9.502231,-0.92348 15.092361,-0.92348 5.587098,0 11.138588,0.34091 15.092358,0.92348 3.95074,0.58334 6.24997,1.40303 6.24997,2.22878 z"
       style="fill:none;stroke:#000000;stroke-width:1.26150966;stroke-linecap:round;stroke-linejoin:miter;stroke-miterlimit:4;stroke-dasharray:none;stroke-opacity:1"
       id="path36" />
    <path
       d="m 120.17241,934.90049 c 0,0.98787 -2.19848,1.96741 -5.98028,2.6659 -3.77877,0.69848 -9.09087,1.10681 -14.438568,1.10681 -5.34392,0 -10.65602,-0.40833 -14.437821,-1.10681 -3.779529,-0.69849 -5.981035,-1.67803 -5.981035,-2.6659 0,-0.98863 2.201506,-1.96818 5.981035,-2.66666 3.781801,-0.69848 9.093901,-1.10681 14.437821,-1.10681 5.347698,0 10.659798,0.40833 14.438568,1.10681 3.7818,0.69848 5.98028,1.67803 5.98028,2.66666 z"
       style="fill:#44ddcf;fill-opacity:1;fill-rule:nonzero;stroke:none"
       id="path38" />
    <path
       d="m 120.17241,934.90049 c 0,0.98787 -2.19848,1.96741 -5.98028,2.6659 -3.77877,0.69848 -9.09087,1.10681 -14.438568,1.10681 -5.34392,0 -10.65602,-0.40833 -14.437821,-1.10681 -3.779529,-0.69849 -5.981035,-1.67803 -5.981035,-2.6659 0,-0.98863 2.201506,-1.96818 5.981035,-2.66666 3.781801,-0.69848 9.093901,-1.10681 14.437821,-1.10681 5.347698,0 10.659798,0.40833 14.438568,1.10681 3.7818,0.69848 5.98028,1.67803 5.98028,2.66666 z"
       style="fill:#78dcfa;fill-opacity:1;stroke:#000000;stroke-width:0.63075411;stroke-linecap:round;stroke-linejoin:miter;stroke-miterlimit:4;stroke-dasharray:none;stroke-opacity:1"
       id="path40" />
    <text
       id="text4597"
       y="957.55573"
       x="97.805832"
       style="font-style:normal;font-variant:normal;font-weight:normal;font-stretch:normal;font-size:15.15145016px;line-height:125%;font-family:'noto sans';-inkscape-font-specification:'noto sans, Normal';text-align:center;letter-spacing:0px;word-spacing:0px;writing-mode:lr-tb;text-anchor:middle;fill:#000000;fill-opacity:1;stroke:none;stroke-width:1px;stroke-linecap:butt;stroke-linejoin:miter;stroke-opacity:1"
       xml:space="preserve"><tspan
         y="957.55573"
         x="97.805832"
         id="tspan4599">H<tspan
   id="tspan4601"
   style="font-size:7.87875366px;baseline-shift:sub">2</tspan>O</tspan></text>
    <text
       id="text4603"
       y="989.09119"
       x="99.32354"
       style="font-style:normal;font-variant:normal;font-weight:normal;font-stretch:normal;font-size:15.15145016px;line-height:125%;font-family:'noto sans';-inkscape-font-specification:'noto sans, Normal';text-align:center;letter-spacing:0px;word-spacing:0px;writing-mode:lr-tb;text-anchor:middle;fill:#000000;fill-opacity:1;stroke:none;stroke-width:1px;stroke-linecap:butt;stroke-linejoin:miter;stroke-opacity:1"
       xml:space="preserve"><tspan
         y="989.09119"
         x="99.32354"
         id="tspan4605">4ml</tspan></text>
    <path
       id="path4621"
       style="fill:#78dcfa;fill-opacity:1;fill-rule:nonzero;stroke:none"
       d="m 172.92396,934.86488 c 2.4712,5.29695 39.74907,4.53029 40.8377,0 l 0,68.93622 c -1.39999,27.2247 -35.68848,34.3656 -40.8377,0 l 0,-68.93622 z" />
    <path
       id="path4623"
       style="fill:none;stroke:#000000;stroke-width:1.26150966;stroke-linecap:round;stroke-linejoin:miter;stroke-miterlimit:4;stroke-dasharray:none;stroke-opacity:1"
       d="m 172.9679,830.58882 c 0.88484,4.7174 41.56043,3.4568 41.0127,0 l 0,173.15838 c -3.86741,30.3831 -36.86651,31.3242 -41.0127,0 l 0,-173.15838 z" />
    <path
       id="path4625"
       style="fill:none;stroke:#000000;stroke-width:1.26150966;stroke-linecap:round;stroke-linejoin:miter;stroke-miterlimit:4;stroke-dasharray:none;stroke-opacity:1"
       d="m 214.9662,830.57745 c 0,0.825 -2.29923,1.64469 -6.24997,2.23105 -3.95377,0.58258 -9.50526,0.92348 -15.09236,0.92348 -5.59013,0 -11.14162,-0.3409 -15.09236,-0.92348 -3.95074,-0.58636 -6.253,-1.40605 -6.253,-2.23105 0,-0.82575 2.30226,-1.64544 6.253,-2.22878 3.95074,-0.58257 9.50223,-0.92348 15.09236,-0.92348 5.5871,0 11.13859,0.34091 15.09236,0.92348 3.95074,0.58334 6.24997,1.40303 6.24997,2.22878 z" />
    <path
       id="path4627"
       style="fill:#44ddcf;fill-opacity:1;fill-rule:nonzero;stroke:none"
       d="m 213.90939,934.90049 c 0,0.98787 -2.19848,1.96741 -5.98028,2.6659 -3.77877,0.69848 -9.09087,1.10681 -14.43857,1.10681 -5.34392,0 -10.65602,-0.40833 -14.43782,-1.10681 -3.77953,-0.69849 -5.98103,-1.67803 -5.98103,-2.6659 0,-0.98863 2.2015,-1.96818 5.98103,-2.66666 3.7818,-0.69848 9.0939,-1.10681 14.43782,-1.10681 5.3477,0 10.6598,0.40833 14.43857,1.10681 3.7818,0.69848 5.98028,1.67803 5.98028,2.66666 z" />
    <path
       id="path4629"
       style="fill:#78dcfa;fill-opacity:1;stroke:#000000;stroke-width:0.63075411;stroke-linecap:round;stroke-linejoin:miter;stroke-miterlimit:4;stroke-dasharray:none;stroke-opacity:1"
       d="m 213.90939,934.90049 c 0,0.98787 -2.19848,1.96741 -5.98028,2.6659 -3.77877,0.69848 -9.09087,1.10681 -14.43857,1.10681 -5.34392,0 -10.65602,-0.40833 -14.43782,-1.10681 -3.77953,-0.69849 -5.98103,-1.67803 -5.98103,-2.6659 0,-0.98863 2.2015,-1.96818 5.98103,-2.66666 3.7818,-0.69848 9.0939,-1.10681 14.43782,-1.10681 5.3477,0 10.6598,0.40833 14.43857,1.10681 3.7818,0.69848 5.98028,1.67803 5.98028,2.66666 z" />
    <text
       xml:space="preserve"
       style="font-style:normal;font-variant:normal;font-weight:normal;font-stretch:normal;font-size:15.15145016px;line-height:125%;font-family:'noto sans';-inkscape-font-specification:'noto sans, Normal';text-align:center;letter-spacing:0px;word-spacing:0px;writing-mode:lr-tb;text-anchor:middle;fill:#000000;fill-opacity:1;stroke:none;stroke-width:1px;stroke-linecap:butt;stroke-linejoin:miter;stroke-opacity:1"
       x="191.54282"
       y="957.55573"
       id="text4631"><tspan
         id="tspan4633"
         x="191.54282"
         y="957.55573">H<tspan
   style="font-size:7.87875366px;baseline-shift:sub"
   id="tspan4635">2</tspan>O</tspan></text>
    <text
       xml:space="preserve"
       style="font-style:normal;font-variant:normal;font-weight:normal;font-stretch:normal;font-size:15.15145016px;line-height:125%;font-family:'noto sans';-inkscape-font-specification:'noto sans, Normal';text-align:center;letter-spacing:0px;word-spacing:0px;writing-mode:lr-tb;text-anchor:middle;fill:#000000;fill-opacity:1;stroke:none;stroke-width:1px;stroke-linecap:butt;stroke-linejoin:miter;stroke-opacity:1"
       x="193.06052"
       y="989.09119"
       id="text4637"><tspan
         id="tspan4639"
         x="193.06052"
         y="989.09119">4ml</tspan></text>
    <path
       id="path4643"
       style="fill:#78dcfa;fill-opacity:1;fill-rule:nonzero;stroke:none"
       d="m 266.66095,934.86488 c 2.4712,5.29695 39.74907,4.53029 40.8377,0 l 0,68.93622 c -1.39999,27.2247 -35.68848,34.3656 -40.8377,0 l 0,-68.93622 z" />
    <path
       id="path4645"
       style="fill:none;stroke:#000000;stroke-width:1.26150966;stroke-linecap:round;stroke-linejoin:miter;stroke-miterlimit:4;stroke-dasharray:none;stroke-opacity:1"
       d="m 266.70489,830.58882 c 0.88484,4.7174 41.56043,3.4568 41.0127,0 l 0,173.15838 c -3.86741,30.3831 -36.86651,31.3242 -41.0127,0 l 0,-173.15838 z" />
    <path
       id="path4647"
       style="fill:none;stroke:#000000;stroke-width:1.26150966;stroke-linecap:round;stroke-linejoin:miter;stroke-miterlimit:4;stroke-dasharray:none;stroke-opacity:1"
       d="m 308.70319,830.57745 c 0,0.825 -2.29923,1.64469 -6.24997,2.23105 -3.95377,0.58258 -9.50526,0.92348 -15.09236,0.92348 -5.59013,0 -11.14162,-0.3409 -15.09236,-0.92348 -3.95074,-0.58636 -6.253,-1.40605 -6.253,-2.23105 0,-0.82575 2.30226,-1.64544 6.253,-2.22878 3.95074,-0.58257 9.50223,-0.92348 15.09236,-0.92348 5.5871,0 11.13859,0.34091 15.09236,0.92348 3.95074,0.58334 6.24997,1.40303 6.24997,2.22878 z" />
    <path
       id="path4649"
       style="fill:#44ddcf;fill-opacity:1;fill-rule:nonzero;stroke:none"
       d="m 307.64638,934.90049 c 0,0.98787 -2.19848,1.96741 -5.98028,2.6659 -3.77877,0.69848 -9.09087,1.10681 -14.43857,1.10681 -5.34392,0 -10.65602,-0.40833 -14.43782,-1.10681 -3.77953,-0.69849 -5.98103,-1.67803 -5.98103,-2.6659 0,-0.98863 2.2015,-1.96818 5.98103,-2.66666 3.7818,-0.69848 9.0939,-1.10681 14.43782,-1.10681 5.3477,0 10.6598,0.40833 14.43857,1.10681 3.7818,0.69848 5.98028,1.67803 5.98028,2.66666 z" />
    <path
       id="path4651"
       style="fill:#78dcfa;fill-opacity:1;stroke:#000000;stroke-width:0.63075411;stroke-linecap:round;stroke-linejoin:miter;stroke-miterlimit:4;stroke-dasharray:none;stroke-opacity:1"
       d="m 307.64638,934.90049 c 0,0.98787 -2.19848,1.96741 -5.98028,2.6659 -3.77877,0.69848 -9.09087,1.10681 -14.43857,1.10681 -5.34392,0 -10.65602,-0.40833 -14.43782,-1.10681 -3.77953,-0.69849 -5.98103,-1.67803 -5.98103,-2.6659 0,-0.98863 2.2015,-1.96818 5.98103,-2.66666 3.7818,-0.69848 9.0939,-1.10681 14.43782,-1.10681 5.3477,0 10.6598,0.40833 14.43857,1.10681 3.7818,0.69848 5.98028,1.67803 5.98028,2.66666 z" />
    <text
       xml:space="preserve"
       style="font-style:normal;font-variant:normal;font-weight:normal;font-stretch:normal;font-size:15.15145016px;line-height:125%;font-family:'noto sans';-inkscape-font-specification:'noto sans, Normal';text-align:center;letter-spacing:0px;word-spacing:0px;writing-mode:lr-tb;text-anchor:middle;fill:#000000;fill-opacity:1;stroke:none;stroke-width:1px;stroke-linecap:butt;stroke-linejoin:miter;stroke-opacity:1"
       x="285.27979"
       y="957.55573"
       id="text4653"><tspan
         id="tspan4655"
         x="285.27979"
         y="957.55573">H<tspan
   style="font-size:7.87875366px;baseline-shift:sub"
   id="tspan4657">2</tspan>O</tspan></text>
    <text
       xml:space="preserve"
       style="font-style:normal;font-variant:normal;font-weight:normal;font-stretch:normal;font-size:15.15145016px;line-height:125%;font-family:'noto sans';-inkscape-font-specification:'noto sans, Normal';text-align:center;letter-spacing:0px;word-spacing:0px;writing-mode:lr-tb;text-anchor:middle;fill:#000000;fill-opacity:1;stroke:none;stroke-width:1px;stroke-linecap:butt;stroke-linejoin:miter;stroke-opacity:1"
       x="286.79749"
       y="989.09119"
       id="text4659"><tspan
         id="tspan4661"
         x="286.79749"
         y="989.09119">4ml</tspan></text>
    <text
       transform="scale(1.0279122,0.97284573)"
       id="text4714"
       y="761.74438"
       x="154.01277"
       style="font-style:normal;font-variant:normal;font-weight:normal;font-stretch:normal;font-size:13.11071968px;line-height:125%;font-family:'noto sans';-inkscape-font-specification:'noto sans, Normal';text-align:center;letter-spacing:0px;word-spacing:0px;writing-mode:lr-tb;text-anchor:middle;fill:#000000;fill-opacity:1;stroke:none;stroke-width:1px;stroke-linecap:butt;stroke-linejoin:miter;stroke-opacity:1"
       xml:space="preserve"><tspan
         id="tspan4778"
         y="761.74438"
         x="154.01277">Add 25 drops</tspan><tspan
         id="tspan4784"
         y="778.13275"
         x="154.01277">of 1/5</tspan><tspan
         id="tspan4780"
         y="794.52118"
         x="154.01277">and shake</tspan></text>
    <text
       transform="scale(1.0279122,0.97284573)"
       xml:space="preserve"
       style="font-style:normal;font-variant:normal;font-weight:normal;font-stretch:normal;font-size:13.11071968px;line-height:125%;font-family:'noto sans';-inkscape-font-specification:'noto sans, Normal';text-align:center;letter-spacing:0px;word-spacing:0px;writing-mode:lr-tb;text-anchor:middle;fill:#000000;fill-opacity:1;stroke:none;stroke-width:1px;stroke-linecap:butt;stroke-linejoin:miter;stroke-opacity:1"
       x="261.83002"
       y="764.83221"
       id="text4722"><tspan
         x="261.83002"
         y="764.83221"
         id="tspan4728">Add 25 drops</tspan><tspan
         id="tspan4791"
         x="261.83002"
         y="781.22064">of 1/25</tspan><tspan
         id="tspan4793"
         x="261.83002"
         y="797.60901">and shake</tspan></text>
    <text
       xml:space="preserve"
       style="font-style:normal;font-weight:normal;font-size:25px;line-height:125%;font-family:sans-serif;text-align:center;letter-spacing:0px;word-spacing:0px;text-anchor:middle;fill:#000000;fill-opacity:1;stroke:none;stroke-width:1px;stroke-linecap:butt;stroke-linejoin:miter;stroke-opacity:1"
       x="69.417076"
       y="690.91638"
       id="text4439"><tspan
         id="tspan4441"
         x="69.417076"
         y="690.91638"
         style="font-style:normal;font-variant:normal;font-weight:normal;font-stretch:normal;font-size:13.0625px;font-family:'noto sans';-inkscape-font-specification:'noto sans'">Add 25 drops</tspan><tspan
         x="69.417076"
         y="707.24451"
         id="tspan4443"
         style="font-style:normal;font-variant:normal;font-weight:normal;font-stretch:normal;font-size:13.0625px;font-family:'noto sans';-inkscape-font-specification:'noto sans'">of 1X</tspan><tspan
         x="69.417076"
         y="723.57263"
         id="tspan4445"
         style="font-style:normal;font-variant:normal;font-weight:normal;font-stretch:normal;font-size:13.0625px;font-family:'noto sans';-inkscape-font-specification:'noto sans'">and shake</tspan></text>
    <text
       id="text4451"
       y="842.89349"
       x="381.61835"
       style="font-style:normal;font-weight:normal;font-size:28.46291733px;line-height:125%;font-family:sans-serif;text-align:center;letter-spacing:0px;word-spacing:0px;text-anchor:middle;fill:#000000;fill-opacity:1;stroke:none;stroke-width:1px;stroke-linecap:butt;stroke-linejoin:miter;stroke-opacity:1"
       xml:space="preserve"><tspan
         style="font-style:normal;font-variant:normal;font-weight:normal;font-stretch:normal;font-size:14.87187481px;font-family:'noto sans';-inkscape-font-specification:'noto sans'"
         y="842.89349"
         x="383.54996"
         id="tspan4453">Discard 25 </tspan><tspan
         style="font-style:normal;font-variant:normal;font-weight:normal;font-stretch:normal;font-size:14.87187481px;font-family:'noto sans';-inkscape-font-specification:'noto sans'"
         y="861.48334"
         x="381.61835"
         id="tspan4459">drops</tspan><tspan
         style="font-style:normal;font-variant:normal;font-weight:normal;font-stretch:normal;font-size:14.87187481px;font-family:'noto sans';-inkscape-font-specification:'noto sans'"
         id="tspan4455"
         y="880.07318"
         x="381.61835">of 1/125</tspan><tspan
         style="font-style:normal;font-variant:normal;font-weight:normal;font-stretch:normal;font-size:14.87187481px;font-family:'noto sans';-inkscape-font-specification:'noto sans'"
         id="tspan4457"
         y="898.66302"
         x="381.61835" /></text>
    <flowRoot
       transform="translate(0.19999959,677.36215)"
       xml:space="preserve"
       id="flowRoot4461"
       style="font-style:normal;font-weight:normal;font-size:25px;line-height:125%;font-family:sans-serif;letter-spacing:0px;word-spacing:0px;fill:#000000;fill-opacity:1;stroke:none;stroke-width:1px;stroke-linecap:butt;stroke-linejoin:miter;stroke-opacity:1"><flowRegion
         id="flowRegion4463"><rect
           id="rect4465"
           width="599.39758"
           height="502.00803"
           x="-137.5502"
           y="-47.690762" /></flowRegion><flowPara
         id="flowPara4467" /></flowRoot>  </g>
</svg>
