<?xml version="1.0" encoding="UTF-8" standalone="no"?>
<svg
   xmlns:dc="http://purl.org/dc/elements/1.1/"
   xmlns:cc="http://creativecommons.org/ns#"
   xmlns:rdf="http://www.w3.org/1999/02/22-rdf-syntax-ns#"
   xmlns:svg="http://www.w3.org/2000/svg"
   xmlns="http://www.w3.org/2000/svg"
   id="svg2"
   height="428.39999"
   width="1000"
   version="1.1">
  <metadata
     id="metadata10533">
    <rdf:RDF>
      <cc:Work
         rdf:about="">
        <dc:format>image/svg+xml</dc:format>
        <dc:type
           rdf:resource="http://purl.org/dc/dcmitype/StillImage" />
        <dc:title></dc:title>
        <cc:license
           rdf:resource="http://creativecommons.org/publicdomain/zero/1.0/" />
      </cc:Work>
      <cc:License
         rdf:about="http://creativecommons.org/publicdomain/zero/1.0/">
        <cc:permits
           rdf:resource="http://creativecommons.org/ns#Reproduction" />
        <cc:permits
           rdf:resource="http://creativecommons.org/ns#Distribution" />
        <cc:permits
           rdf:resource="http://creativecommons.org/ns#DerivativeWorks" />
      </cc:License>
    </rdf:RDF>
  </metadata>
  <defs
     id="defs4">
    <marker
       orient="auto"
       refY="0"
       refX="0"
       id="Arrow1Mend"
       style="overflow:visible">
      <path
         id="path3820"
         d="M 0,0 5,-5 -12.5,0 5,5 0,0 Z"
         style="fill-rule:evenodd;stroke:#000000;stroke-width:1pt;marker-start:none"
         transform="matrix(-0.4,0,0,-0.4,-4,0)" />
    </marker>
    <filter
       style="color-interpolation-filters:sRGB"
       id="filter4284"
       x="-0.19197313"
       width="1.3839463"
       y="-0.40451482"
       height="1.8090296">
      <feGaussianBlur
         stdDeviation="6.7419137"
         id="feGaussianBlur4286" />
    </filter>
  </defs>
  <style
     type="text/css"
     id="style6">
text {
	font-family: sans-serif;
	font-size: 102pt;
	text-anchor: middle;
}

line {
	stroke: #000;
	stroke-width: 9px;
}
</style>
  <g
     transform="matrix(0.48764805,0,0,0.48764805,455.30917,2.1560379)"
     id="g11562">
    <path
       style="fill:#000000"
       id="path2830"
       d="m -753.58476,336.55438 c -5.33466,-1.74403 -9.90985,-5.83505 -12.55917,-11.23009 -2.07223,-4.21986 -2.34838,-5.71815 -2.34838,-12.74152 0,-7.03048 0.27508,-8.51949 2.35726,-12.75967 5.04164,-10.26689 15.50192,-14.57979 27.02389,-11.1423 8.87817,2.64873 14.34697,10.41016 15.19009,21.5581 1.16885,15.45501 -7.1792,26.31708 -20.86434,27.1476 -3.09527,0.18785 -6.73115,-0.15598 -8.79935,-0.83212 z m 16.28845,-7.74044 c 4.05257,-3.23049 6.13725,-7.49189 6.69976,-13.69534 0.8624,-9.51066 -2.67726,-17.18966 -9.31256,-20.20287 -8.66142,-3.93331 -18.35263,0.49141 -21.0625,9.61651 -4.4638,15.03123 3.00283,27.90685 15.71599,27.10101 3.80532,-0.24121 5.46074,-0.82759 7.95931,-2.81931 z m 95.46907,7.68964 c -5.27769,-1.88226 -8.03493,-4.65506 -11.28977,-11.35348 -1.94127,-3.99508 -2.2411,-5.66673 -2.25424,-12.56733 -0.0167,-8.79841 1.70707,-14.08457 6.10399,-18.71826 4.99935,-5.26854 14.2839,-7.65598 21.83273,-5.61405 4.37597,1.18369 9.64235,5.91976 11.4096,10.26072 l 1.26355,3.10373 -3.13716,0.86715 c -1.72543,0.47694 -3.23291,0.58834 -3.34994,0.24756 -0.85042,-2.47642 -3.99101,-6.35447 -6.27268,-7.74563 -6.06074,-3.69528 -15.34149,-0.8386 -19.0681,5.86928 -1.82263,3.28074 -2.09455,4.80351 -2.09455,11.7295 0,6.926 0.27192,8.44877 2.09455,11.72951 2.79783,5.0361 7.97437,7.79647 13.67701,7.29324 5.03762,-0.44454 7.9297,-2.51525 10.61982,-7.60368 2.01639,-3.81405 2.20399,-3.94194 5.02693,-3.42666 1.61281,0.29439 3.05287,0.65353 3.20012,0.7981 0.88666,0.87042 -3.94746,9.31288 -6.66391,11.63805 -5.3595,4.58754 -14.01137,6.01964 -21.09795,3.49225 z m 109.4274,0.0508 c -5.33466,-1.74403 -9.90985,-5.83504 -12.55917,-11.23009 -2.07224,-4.21986 -2.34838,-5.71815 -2.34838,-12.74151 0,-7.03049 0.27508,-8.51949 2.35726,-12.75968 5.04165,-10.26689 15.50192,-14.57979 27.02389,-11.1423 8.87817,2.64873 15.39945,11.45841 15.19008,21.55811 -0.20937,10.0997 -7.17919,26.31707 -20.86432,27.1476 -3.09528,0.18785 -6.73116,-0.15599 -8.79936,-0.83213 z m 16.28845,-7.74043 c 4.05257,-3.2305 6.13725,-7.4919 6.69976,-13.69534 0.8624,-9.51066 -2.67725,-17.18967 -9.31256,-20.20287 -8.66142,-3.93332 -18.35264,0.4914 -21.0625,9.6165 -4.4638,15.03123 3.00283,27.90685 15.71599,27.10101 3.80532,-0.24121 5.46074,-0.82758 7.95931,-2.8193 z m -200.85489,-9.94749 0,-2.09455 27.22921,0 27.2292,0 0,2.09455 0,2.09456 -27.2292,0 -27.22921,0 z m 109.75464,0 0,-2.09455 26.8103,0 26.81029,0 0,2.09455 0,2.09456 -26.81029,0 -26.8103,0 z M -716.96628,302.11 l 0,-2.09455 27.22921,0 27.2292,0 0,2.09455 0,2.09456 -27.2292,0 -27.22921,0 z m 109.75464,0 0,-2.09455 26.8103,0 26.81029,0 0,2.09455 0,2.09456 -26.81029,0 -26.8103,0 z" />
    <g
       transform="matrix(0,-0.51406307,-0.51406307,0,-29.327714,492.551)"
       id="g3756">
      <line
         x1="279.21719"
         y1="90"
         x2="139.21719"
         y2="210"
         id="line10"
         style="fill:#000000;fill-opacity:1;stroke:#000000;stroke-width:9px" />
      <line
         x1="420.78284"
         y1="90"
         x2="560.78278"
         y2="210"
         id="line14"
         style="fill:#000000;fill-opacity:1;stroke:#000000;stroke-width:9px" />
      <path
         style="overflow:visible;fill:#000000;fill-opacity:1"
         d="m 304.44151,66.498056 c 0,-15.810815 4.24967,-28.191173 12.73877,-37.135959 8.49421,-8.94478 19.45631,-13.414612 32.88628,-13.414612 8.7963,0 16.72731,2.099234 23.7879,6.297702 7.0606,4.203583 12.44692,10.060963 16.14874,17.57724 3.70182,7.516278 5.55529,16.041219 5.55529,25.564567 0,9.661594 -1.95075,18.304297 -5.85226,25.922981 -3.9015,7.623801 -9.42095,13.394135 -16.56858,17.316115 -7.14764,3.92199 -14.8636,5.87786 -23.14277,5.87786 -8.97038,0 -16.98331,-2.16579 -24.0439,-6.49739 -7.06572,-4.3367 -12.4162,-10.245284 -16.05658,-17.741088 -3.63526,-7.485559 -5.45289,-15.406326 -5.45289,-23.767416 z m 13.04085,0.19995 c 0,11.468987 3.0874,20.50593 9.25199,27.11084 6.1697,6.599794 13.90614,9.902244 23.20421,9.902244 9.48239,0 17.28028,-3.32806 23.39877,-9.999534 6.12362,-6.666343 9.18543,-16.123132 9.18543,-28.375492 0,-7.746682 -1.31074,-14.510312 -3.9271,-20.290884 -2.62149,-5.780572 -6.4513,-10.260646 -11.48946,-13.445338 -5.03817,-3.17957 -10.70098,-4.771916 -16.97308,-4.771916 -8.91406,0 -16.58394,3.06693 -23.00964,9.190553 -6.42571,6.123616 -9.64112,16.348416 -9.64112,30.679527 z"
         id="path9" />
      <path
         style="overflow:visible;fill:#000000;fill-opacity:1"
         d="m 594.20438,280.658 0,-95.27959 12.64148,0 0,39.12254 49.43951,0 0,-39.12254 12.64148,0 0,95.27959 -12.64148,0 0,-44.87752 -49.43951,0 0,44.88265 -12.64148,0 0,-0.005 z"
         id="path15" />
      <path
         style="overflow:visible;fill:#000000;fill-opacity:1"
         d="m 31.07315,280.8137 0,-95.27959 12.64148,0 0,39.12254 49.43951,0 0,-39.12254 12.64148,0 0,95.27959 -12.64148,0 0,-44.87752 -49.43951,0 0,44.88265 -12.64148,0 0,-0.005 z"
         id="path15-8" />
    </g>
    <g
       id="g11219"
       transform="translate(674.14319,114.19402)">
      <path
         d="m 252.5705,179.6423 c 1.85649,2.14124 3.29829,4.79547 4.32542,7.96269 1.02654,3.16779 1.5401,6.78304 1.5401,10.8463 0,3.95415 -0.50282,7.52589 -1.50734,10.71523 -1.00508,3.18983 -2.45762,5.86552 -4.35818,8.02823 -1.98813,2.27232 -4.30903,3.94858 -6.96326,5.02993 -2.65423,1.08135 -5.57626,1.62203 -8.76551,1.62203 -3.29887,0 -6.27005,-0.55706 -8.91297,-1.67118 -2.6435,-1.11412 -4.91525,-2.774 -6.81581,-4.98078 -1.87909,-2.16271 -3.3209,-4.82775 -4.32541,-7.99546 -1.00508,-3.16722 -1.50734,-6.75027 -1.50734,-10.748 0,-4.10676 0.50791,-7.71127 1.52373,-10.81353 1.01581,-3.10168 2.4627,-5.76722 4.34179,-7.99546 1.87853,-2.16271 4.14519,-3.8062 6.79942,-4.93162 2.65423,-1.12486 5.61976,-1.68757 8.89659,-1.68757 3.32033,0 6.31297,0.5791 8.97851,1.73672 2.66496,1.15819 4.91524,2.7853 6.75026,4.88247 z m -0.88474,18.80899 c 0,-3.23275 -0.34972,-6.0949 -1.04859,-8.58529 -0.69943,-2.49039 -1.68248,-4.55479 -2.94914,-6.1932 -1.28927,-1.68192 -2.84576,-2.94349 -4.66948,-3.78474 -1.82429,-0.84067 -3.87231,-1.26158 -6.14405,-1.26158 -2.35932,0 -4.41864,0.40961 -6.17682,1.22881 -1.75876,0.81921 -3.31525,2.09209 -4.66948,3.81751 -1.28927,1.66045 -2.2774,3.74689 -2.96553,6.25874 -0.68814,2.51243 -1.0322,5.35253 -1.0322,8.51975 0,6.40112 1.3435,11.29998 4.03049,14.69658 2.687,3.39708 6.29151,5.09546 10.81354,5.09546 4.52202,0 8.12088,-1.69838 10.79714,-5.09546 2.6757,-3.3966 4.01412,-8.29546 4.01412,-14.69658 z"
         id="path11100" />
      <path
         d="m 303.13196,197.2061 -36.24172,0 0,-5.24293 36.24172,0 0,5.24293 z m 0,13.76267 -36.24172,0 0,-5.24292 36.24172,0 0,5.24292 z"
         id="path11102" />
      <path
         d="m 348.87648,179.6423 c 1.85648,2.14124 3.29829,4.79547 4.3254,7.96269 1.02664,3.16779 1.54011,6.78304 1.54011,10.8463 0,3.95415 -0.50281,7.52589 -1.50733,10.71523 -1.00501,3.18983 -2.45763,5.86552 -4.35818,8.02823 -1.98805,2.27232 -4.30903,3.94858 -6.96326,5.02993 -2.65423,1.08135 -5.57618,1.62203 -8.76552,1.62203 -3.29878,0 -6.27004,-0.55706 -8.91297,-1.67118 -2.64342,-1.11412 -4.91524,-2.774 -6.8158,-4.98078 -1.8791,-2.16271 -3.3209,-4.82775 -4.32542,-7.99546 -1.005,-3.16722 -1.50734,-6.75027 -1.50734,-10.748 0,-4.10676 0.50791,-7.71127 1.52373,-10.81353 1.01581,-3.10168 2.4627,-5.76722 4.3418,-7.99546 1.8786,-2.16271 4.14518,-3.8062 6.79941,-4.93162 2.65423,-1.12486 5.61976,-1.68757 8.89659,-1.68757 3.32041,0 6.31297,0.5791 8.97851,1.73672 2.66505,1.15819 4.91524,2.7853 6.75027,4.88247 z m -0.88474,18.80899 c 0,-3.23275 -0.34964,-6.0949 -1.0486,-8.58529 -0.69943,-2.49039 -1.68249,-4.55479 -2.94914,-6.1932 -1.28927,-1.68192 -2.84576,-2.94349 -4.66948,-3.78474 -1.82421,-0.84067 -3.87222,-1.26158 -6.14405,-1.26158 -2.35932,0 -4.41864,0.40961 -6.17682,1.22881 -1.75868,0.81921 -3.31517,2.09209 -4.66948,3.81751 -1.28927,1.66045 -2.2774,3.74689 -2.96553,6.25874 -0.68813,2.51243 -1.0322,5.35253 -1.0322,8.51975 0,6.40112 1.3435,11.29998 4.0305,14.69658 2.687,3.39708 6.29151,5.09546 10.81353,5.09546 4.52202,0 8.12096,-1.69838 10.79715,-5.09546 2.67569,-3.3966 4.01412,-8.29546 4.01412,-14.69658 z"
         id="path11104" />
    </g>
    <g
       style="overflow:visible"
       id="g11261"
       transform="matrix(3.0398714,0,0,3.0398714,263.06552,54.03771)">
      <path
         id="polygon3"
         d="m 92.65965,116.48157 2.755,2.4225 -0.80655,2.42155 -50.92,0 2.7075,-2.42155 0.80655,-2.4225 45.4575,0 z" />
      <path
         id="polygon5"
         d="m 12.52715,86.366575 -0.80655,-2.09095 1.1875,-0.04655 32.68,29.116545 0.8075,5.55845 -2.7075,2.42155 -31.16095,-34.959045 z" />
      <path
         id="polygon7"
         d="m 45.5881,49.269075 0.8075,0.33155 0.33155,0.8075 -33.81905,33.82095 -1.1875,0.04655 -0.8075,-0.33155 34.675,-34.675 z" />
      <g
         transform="matrix(0.95,0,0,0.95,3.9363,4.253325)"
         id="g9">
        <path
           id="path11"
           d="m 88.049,48.819 c 0,-2.852 0.766,-5.085 2.299,-6.699 1.531,-1.613 3.51,-2.42 5.932,-2.42 1.588,0 3.018,0.379 4.291,1.137 1.274,0.758 2.246,1.815 2.914,3.171 0.668,1.356 1.002,2.894 1.002,4.612 0,1.742 -0.352,3.302 -1.055,4.677 -0.703,1.376 -1.7,2.417 -2.99,3.124 -1.289,0.707 -2.681,1.061 -4.174,1.061 -1.617,0 -3.064,-0.391 -4.338,-1.172 -1.274,-0.781 -2.238,-1.848 -2.896,-3.2 -0.657,-1.352 -0.985,-2.783 -0.985,-4.291 z m 2.344,0.03 c 0,2.07 0.557,3.701 1.672,4.893 1.113,1.191 2.512,1.787 4.191,1.787 1.713,0 3.121,-0.602 4.229,-1.805 1.105,-1.203 1.658,-2.91 1.658,-5.121 0,-1.398 -0.236,-2.619 -0.709,-3.662 -0.473,-1.043 -1.165,-1.852 -2.076,-2.426 -0.91,-0.574 -1.932,-0.861 -3.066,-0.861 -1.609,0 -2.996,0.553 -4.156,1.658 -1.163,1.105 -1.743,2.951 -1.743,5.537 z" />
      </g>
      <path
         id="polygon13"
         d="m 85.43965,48.794075 0,1.61405 -38.7125,0 -0.33155,-0.8075 0.80655,-0.80655 38.2375,0 z" />
      <path
         id="polygon15"
         d="m 129.23465,82.329075 0.8075,1.94655 -1.1875,-0.04655 -26.26655,-26.2675 1.13905,-1.14095 25.5075,25.50845 z" />
      <path
         id="polygon17"
         d="m 96.22215,123.46312 -0.8075,-4.55905 -2.755,-2.4225 36.195,-32.252495 1.1875,0.04655 0.80845,0.28595 -34.62845,38.901545 z" />
      <g
         transform="matrix(0.95,0,0,0.95,3.9363,4.253325)"
         id="g19">
        <path
           id="path21"
           d="m 88.049,161.47 c 0,-2.852 0.766,-5.085 2.299,-6.699 1.531,-1.613 3.51,-2.42 5.932,-2.42 1.588,0 3.018,0.379 4.291,1.137 1.274,0.758 2.246,1.815 2.914,3.171 0.668,1.356 1.002,2.894 1.002,4.612 0,1.742 -0.352,3.302 -1.055,4.677 -0.703,1.376 -1.7,2.417 -2.99,3.124 -1.289,0.707 -2.681,1.061 -4.174,1.061 -1.617,0 -3.064,-0.391 -4.338,-1.172 -1.274,-0.781 -2.238,-1.848 -2.896,-3.2 -0.657,-1.353 -0.985,-2.783 -0.985,-4.291 z m 2.344,0.029 c 0,2.07 0.557,3.701 1.672,4.893 1.113,1.191 2.512,1.787 4.191,1.787 1.713,0 3.121,-0.602 4.229,-1.805 1.105,-1.203 1.658,-2.91 1.658,-5.121 0,-1.398 -0.236,-2.619 -0.709,-3.662 -0.473,-1.043 -1.165,-1.852 -2.076,-2.426 -0.91,-0.574 -1.932,-0.861 -3.066,-0.861 -1.609,0 -2.996,0.553 -4.156,1.658 -1.163,1.105 -1.743,2.951 -1.743,5.537 z" />
        <path
           id="path23"
           d="m 107.499,169.835 0,-17.188 2.281,0 0,7.063 8.891,0 0,-7.063 2.281,0 0,17.188 -2.281,0 0,-8.094 -8.891,0 0,8.094 -2.281,0 z" />
      </g>
      <path
         id="polygon25"
         d="m 96.22215,146.88157 -1.61405,0 0,-25.55595 0.80655,-2.42155 0.8075,4.55905 0,23.41845 z" />
      <g
         transform="matrix(0.95,0,0,0.95,3.9363,4.253325)"
         id="g27">
        <path
           id="path29"
           d="m 124.549,45.619 c 0,-2.852 0.766,-5.085 2.299,-6.699 1.531,-1.613 3.51,-2.42 5.932,-2.42 1.588,0 3.018,0.379 4.291,1.137 1.274,0.758 2.246,1.815 2.914,3.171 0.668,1.356 1.002,2.894 1.002,4.612 0,1.742 -0.352,3.302 -1.055,4.677 -0.703,1.376 -1.7,2.417 -2.99,3.124 -1.289,0.707 -2.681,1.061 -4.174,1.061 -1.617,0 -3.064,-0.391 -4.338,-1.172 -1.274,-0.781 -2.238,-1.848 -2.896,-3.2 -0.657,-1.352 -0.985,-2.783 -0.985,-4.291 z m 2.344,0.029 c 0,2.07 0.557,3.701 1.672,4.893 1.113,1.191 2.512,1.787 4.191,1.787 1.713,0 3.121,-0.602 4.229,-1.805 1.105,-1.203 1.658,-2.91 1.658,-5.121 0,-1.398 -0.236,-2.619 -0.709,-3.662 -0.473,-1.043 -1.165,-1.852 -2.076,-2.426 -0.91,-0.574 -1.932,-0.861 -3.066,-0.861 -1.609,0 -2.996,0.553 -4.156,1.658 -1.163,1.106 -1.743,2.952 -1.743,5.537 z" />
        <path
           id="path31"
           d="m 143.999,53.984 0,-17.187 2.281,0 0,7.063 8.891,0 0,-7.063 2.281,0 0,17.188 -2.281,0 0,-8.094 -8.891,0 0,8.094 -2.281,0 0,-10e-4 z" />
      </g>
      <path
         id="polygon33"
         d="m 129.23465,57.913125 1.61595,0 0,26.64845 -0.80845,-0.28595 -0.8075,-1.94655 0,-24.41595 z" />
      <g
         transform="matrix(0.95,0,0,0.95,3.9363,4.253325)"
         id="g35">
        <path
           id="path37"
           d="m 0,124.97 c 0,-2.852 0.766,-5.085 2.298,-6.699 1.532,-1.613 3.51,-2.42 5.933,-2.42 1.587,0 3.017,0.379 4.291,1.137 1.274,0.758 2.245,1.815 2.914,3.171 0.668,1.356 1.002,2.894 1.002,4.612 0,1.742 -0.352,3.302 -1.055,4.677 -0.704,1.376 -1.7,2.417 -2.99,3.124 -1.29,0.707 -2.681,1.061 -4.174,1.061 -1.618,0 -3.064,-0.391 -4.338,-1.172 -1.274,-0.781 -2.239,-1.848 -2.896,-3.2 C 0.328,127.908 0,126.478 0,124.97 Z m 2.344,0.029 c 0,2.07 0.557,3.701 1.671,4.893 1.114,1.192 2.512,1.787 4.192,1.787 1.712,0 3.121,-0.602 4.228,-1.805 1.106,-1.203 1.659,-2.91 1.659,-5.121 0,-1.398 -0.236,-2.619 -0.709,-3.662 -0.473,-1.043 -1.165,-1.852 -2.076,-2.426 -0.911,-0.574 -1.933,-0.861 -3.066,-0.861 -1.61,0 -2.996,0.553 -4.157,1.658 -1.161,1.105 -1.742,2.951 -1.742,5.537 z" />
        <path
           id="path39"
           d="m 19.449,133.335 0,-17.188 2.281,0 0,7.063 8.891,0 0,-7.063 2.281,0 0,17.188 -2.281,0 0,-8.094 -8.891,0 0,8.094 -2.281,0 z" />
      </g>
      <path
         id="polygon41"
         d="m 12.52715,112.20657 -1.61405,0 0,-28.262495 0.8075,0.33155 0.80655,2.09095 0,25.839995 z" />
      <g
         transform="matrix(0.95,0,0,0.95,3.9363,4.253325)"
         id="g43">
        <path
           id="path45"
           d="m 36.45,82.119 c 0,-2.852 0.766,-5.085 2.298,-6.699 C 40.28,73.807 42.257,73 44.68,73 c 1.587,0 3.017,0.379 4.291,1.137 1.274,0.758 2.245,1.815 2.914,3.171 0.668,1.356 1.002,2.894 1.002,4.612 0,1.742 -0.352,3.302 -1.055,4.677 -0.704,1.376 -1.7,2.417 -2.99,3.124 -1.29,0.707 -2.681,1.061 -4.174,1.061 -1.618,0 -3.064,-0.391 -4.338,-1.172 -1.274,-0.781 -2.239,-1.848 -2.896,-3.2 -0.656,-1.352 -0.984,-2.783 -0.984,-4.291 z m 2.343,0.029 c 0,2.07 0.557,3.701 1.671,4.893 1.114,1.192 2.512,1.787 4.192,1.787 1.712,0 3.121,-0.602 4.228,-1.805 1.106,-1.203 1.659,-2.91 1.659,-5.121 0,-1.398 -0.236,-2.619 -0.709,-3.662 -0.473,-1.043 -1.165,-1.852 -2.076,-2.426 -0.911,-0.574 -1.933,-0.861 -3.066,-0.861 -1.61,0 -2.996,0.553 -4.157,1.658 -1.161,1.105 -1.742,2.952 -1.742,5.537 z" />
        <path
           id="path47"
           d="m 55.899,90.484 0,-17.187 2.281,0 0,7.063 8.891,0 0,-7.063 2.281,0 0,17.188 -2.281,0 0,-8.094 -8.891,0 0,8.094 -2.281,0 0,-0.001 z" />
      </g>
      <path
         id="polygon49"
         d="m 45.5881,92.588125 1.61405,0 0,23.893445 -0.80655,2.4225 -0.8075,-5.55845 0,-20.757495 z" />
      <g
         transform="matrix(0.95,0,0,0.95,3.9363,4.253325)"
         id="g51">
        <path
           id="path53"
           d="m 50.137,11.457 2.281,0.574 c -0.476,1.87 -1.333,3.296 -2.569,4.277 -1.237,0.982 -2.75,1.473 -4.537,1.473 -1.85,0 -3.354,-0.377 -4.513,-1.132 C 39.64,15.894 38.758,14.802 38.153,13.371 37.548,11.94 37.246,10.404 37.246,8.762 37.246,6.971 37.587,5.409 38.27,4.076 38.953,2.742 39.924,1.73 41.185,1.038 42.445,0.346 43.832,0 45.345,0 c 1.717,0 3.16,0.438 4.33,1.314 1.171,0.877 1.986,2.109 2.446,3.697 l -2.234,0.527 c -0.398,-1.25 -0.975,-2.16 -1.731,-2.73 -0.757,-0.57 -1.709,-0.855 -2.855,-0.855 -1.318,0 -2.42,0.316 -3.306,0.949 C 41.11,3.535 40.488,4.384 40.129,5.451 39.77,6.518 39.59,7.617 39.59,8.75 c 0,1.461 0.212,2.736 0.637,3.826 0.425,1.09 1.085,1.904 1.982,2.443 0.897,0.539 1.867,0.809 2.912,0.809 1.271,0 2.346,-0.367 3.227,-1.102 0.881,-0.735 1.477,-1.824 1.789,-3.269 z" />
        <path
           id="path55"
           d="m 55.313,17.484 0,-17.187 2.281,0 0,7.063 8.891,0 0,-7.063 2.281,0 0,17.188 -2.281,0 0,-8.094 -8.891,0 0,8.094 -2.281,0 0,-10e-4 z" />
      </g>
      <g
         transform="matrix(0.95,0,0,0.95,3.9363,4.253325)"
         id="g57">
        <path
           id="path59"
           d="m 78.676,20.469 0,1.516 -8.531,0 c -0.012,-0.381 0.05,-0.747 0.186,-1.1 0.218,-0.58 0.567,-1.15 1.048,-1.712 0.48,-0.562 1.17,-1.211 2.07,-1.948 1.396,-1.152 2.342,-2.063 2.84,-2.733 0.498,-0.67 0.747,-1.304 0.747,-1.903 0,-0.626 -0.225,-1.154 -0.675,-1.584 -0.45,-0.43 -1.037,-0.645 -1.76,-0.645 -0.766,0 -1.377,0.229 -1.836,0.688 -0.459,0.458 -0.691,1.094 -0.697,1.905 l -1.625,-0.172 c 0.111,-1.215 0.531,-2.142 1.26,-2.779 0.728,-0.637 1.706,-0.955 2.934,-0.955 1.239,0 2.22,0.343 2.942,1.029 0.722,0.686 1.083,1.535 1.083,2.55 0,0.517 -0.106,1.023 -0.317,1.521 -0.211,0.498 -0.563,1.022 -1.053,1.574 -0.491,0.551 -1.304,1.308 -2.44,2.269 -0.951,0.797 -1.562,1.338 -1.833,1.621 -0.271,0.285 -0.496,0.57 -0.673,0.857 l 6.33,0 0,0.001 z" />
      </g>
      <g
         transform="matrix(0.95,0,0,0.95,3.9363,4.253325)"
         id="g61">
        <path
           id="path63"
           d="m 80.003,9.119 c 0,-2.852 0.766,-5.085 2.298,-6.699 C 83.833,0.807 85.811,0 88.234,0 c 1.587,0 3.017,0.379 4.291,1.137 1.274,0.758 2.245,1.815 2.913,3.171 0.669,1.356 1.003,2.894 1.003,4.612 0,1.742 -0.352,3.302 -1.056,4.677 -0.703,1.376 -1.699,2.417 -2.989,3.124 -1.29,0.707 -2.681,1.061 -4.174,1.061 -1.618,0 -3.064,-0.391 -4.338,-1.172 -1.274,-0.781 -2.239,-1.848 -2.896,-3.2 -0.656,-1.352 -0.985,-2.783 -0.985,-4.291 z m 2.344,0.029 c 0,2.07 0.557,3.701 1.671,4.893 1.114,1.192 2.512,1.787 4.192,1.787 1.712,0 3.121,-0.602 4.228,-1.805 1.105,-1.203 1.659,-2.91 1.659,-5.121 0,-1.398 -0.236,-2.619 -0.71,-3.662 C 92.914,4.197 92.223,3.388 91.312,2.814 90.401,2.24 89.379,1.953 88.246,1.953 c -1.61,0 -2.996,0.553 -4.157,1.658 -1.161,1.105 -1.742,2.952 -1.742,5.537 z" />
        <path
           id="path65"
           d="m 99.453,17.484 0,-17.187 2.281,0 0,7.063 8.891,0 0,-7.063 2.281,0 0,17.188 -2.281,0 0,-8.094 -8.891,0 0,8.094 -2.281,0 0,-10e-4 z" />
      </g>
      <path
         id="polygon67"
         d="m 45.5881,23.286575 1.61405,0 0,25.5075 -0.80655,0.80655 -0.8075,-0.33155 0,-25.9825 z" />
    </g>
    <rect
       id="rect2824"
       width="589.18451"
       height="227.68011"
       x="-930.20404"
       y="645.99091"
       style="fill:#e6e6e6" />
    <g
       id="g11535"
       transform="translate(249.12132,0)">
      <text
         id="text2816"
         y="741.6825"
         x="-907.10602"
         style="font-style:normal;font-variant:normal;font-weight:normal;font-stretch:normal;font-size:92.39192963px;font-family:Verdana;-inkscape-font-specification:Verdana;text-anchor:middle;fill:#000000;fill-opacity:1;stroke:none"
         xml:space="preserve"><tspan
           y="741.6825"
           x="-907.10602"
           id="tspan2818">6CO</tspan></text>
      <text
         xml:space="preserve"
         style="font-style:normal;font-variant:normal;font-weight:normal;font-stretch:normal;font-size:73.9135437px;font-family:Verdana;-inkscape-font-specification:Verdana;text-anchor:middle;fill:#000000;fill-opacity:1;stroke:none"
         x="-789.12335"
         y="754.88135"
         id="text2820"><tspan
           id="tspan2822"
           x="-789.12335"
           y="754.88135">2</tspan></text>
    </g>
    <text
       id="text2826"
       y="850.57288"
       x="-635.88245"
       style="font-style:normal;font-variant:normal;font-weight:normal;font-stretch:normal;font-size:73.9135437px;font-family:Verdana;-inkscape-font-specification:Verdana;text-anchor:middle;fill:#333333;fill-opacity:1;stroke:none"
       xml:space="preserve"><tspan
         y="850.57288"
         x="-635.88245"
         id="tspan2828">Carbon dioxide</tspan></text>
    <rect
       style="fill:#d7eef4"
       y="645.99091"
       x="-249.14349"
       height="227.68011"
       width="287.07495"
       id="rect2830" />
    <text
       xml:space="preserve"
       style="font-style:normal;font-weight:normal;font-size:73.9135437px;font-family:Verdana;-inkscape-font-specification:Verdana;text-anchor:middle;fill:#164450;fill-opacity:1;stroke:none"
       x="-114.64494"
       y="850.57288"
       id="text2840"><tspan
         id="tspan2842"
         x="-114.64494"
         y="850.57288">Water</tspan></text>
    <g
       id="g11527"
       transform="translate(54,0)">
      <text
         xml:space="preserve"
         style="font-style:normal;font-weight:normal;font-size:92.39192963px;font-family:Verdana;-inkscape-font-specification:Verdana;text-anchor:middle;fill:#000000;fill-opacity:1;stroke:none"
         x="-226.0455"
         y="741.6825"
         id="text2832"><tspan
           id="tspan2834"
           x="-226.0455"
           y="741.6825">6H</tspan></text>
      <text
         id="text2836"
         y="754.88135"
         x="-137.95624"
         style="font-style:normal;font-weight:normal;font-size:73.9135437px;font-family:Verdana;-inkscape-font-specification:Verdana;text-anchor:middle;fill:#000000;fill-opacity:1;stroke:none"
         xml:space="preserve"><tspan
           y="754.88135"
           x="-137.95624"
           id="tspan2838">2</tspan></text>
      <text
         id="text2844"
         y="741.6825"
         x="-73.760193"
         style="font-style:normal;font-weight:normal;font-size:92.39192963px;font-family:Verdana;-inkscape-font-specification:Verdana;text-anchor:middle;fill:#000000;fill-opacity:1;stroke:none"
         xml:space="preserve"><tspan
           y="741.6825"
           x="-73.760193"
           id="tspan2846">O</tspan></text>
    </g>
    <path
       style="font-style:normal;font-weight:normal;font-size:medium;font-family:'Bitstream Vera Sans';fill:#000000;fill-opacity:1;stroke:none"
       d="m -298.59405,780.48637 0,-18.13555 -18.00019,0 0,-7.57902 18.00019,0 0,-18.00019 7.66924,0 0,18.00019 18.00019,0 0,7.57902 -18.00019,0 0,18.13555 z"
       id="path4388" />
    <path
       style="fill:none;stroke:#000000;stroke-width:9.3604002;stroke-linecap:butt;stroke-linejoin:miter;stroke-miterlimit:4;stroke-dasharray:none;stroke-opacity:1;marker-start:none;marker-end:url(#Arrow1Mend)"
       d="m 71.484126,758.62893 153.912254,0"
       id="path2852" />
    <rect
       id="rect4256"
       width="431.73636"
       height="227.68011"
       x="274.92126"
       y="645.99091"
       style="fill:#f4d7d7" />
    <text
       id="text4266"
       y="850.57288"
       x="493.41986"
       style="font-style:normal;font-weight:normal;font-size:73.9135437px;font-family:Verdana;-inkscape-font-specification:Verdana;text-anchor:middle;fill:#501616;fill-opacity:1;stroke:none"
       xml:space="preserve"><tspan
         y="850.57288"
         x="493.41986"
         id="tspan4268">Sugar</tspan></text>
    <g
       id="g11547">
      <rect
         transform="matrix(1.9420538,0,0,1.7169908,-985.58908,-342.10748)"
         y="579.50507"
         x="545.71429"
         height="40"
         width="84.285713"
         id="rect4278"
         style="fill:#edf000;fill-opacity:1;stroke-width:3;stroke-miterlimit:4;stroke-dasharray:none;filter:url(#filter4284)" />
      <text
         xml:space="preserve"
         style="font-style:normal;font-weight:normal;font-size:64.67435455px;font-family:Verdana;-inkscape-font-specification:Verdana;text-anchor:middle;fill:#554400;fill-opacity:1;stroke:none"
         x="153.58217"
         y="708.68524"
         id="text4274"><tspan
           id="tspan4276"
           x="153.58217"
           y="708.68524">Light</tspan></text>
    </g>
    <g
       id="g11507"
       transform="translate(36,0)">
      <text
         id="text4258"
         y="741.6825"
         x="298.01923"
         style="font-style:normal;font-weight:normal;font-size:92.39192963px;font-family:Verdana;-inkscape-font-specification:Verdana;text-anchor:middle;fill:#000000;fill-opacity:1;stroke:none"
         xml:space="preserve"><tspan
           y="741.6825"
           x="298.01923"
           id="tspan4260">C</tspan></text>
      <text
         xml:space="preserve"
         style="font-style:normal;font-weight:normal;font-size:73.9135437px;font-family:Verdana;-inkscape-font-specification:Verdana;text-anchor:middle;fill:#000000;fill-opacity:1;stroke:none"
         x="360.61279"
         y="754.88135"
         id="text4262"><tspan
           id="tspan4264"
           x="360.61279"
           y="754.88135">6</tspan></text>
      <text
         xml:space="preserve"
         style="font-style:normal;font-weight:normal;font-size:92.39192963px;font-family:Verdana;-inkscape-font-specification:Verdana;text-anchor:middle;fill:#000000;fill-opacity:1;stroke:none"
         x="415.48904"
         y="741.6825"
         id="text4270"><tspan
           id="tspan4272"
           x="415.48904"
           y="741.6825">H</tspan></text>
      <text
         id="text4288"
         y="754.88135"
         x="481.48312"
         style="font-style:normal;font-weight:normal;font-size:73.9135437px;font-family:Verdana;-inkscape-font-specification:Verdana;text-anchor:middle;fill:#000000;fill-opacity:1;stroke:none"
         xml:space="preserve"><tspan
           y="754.88135"
           x="481.48312"
           id="tspan4290">12</tspan></text>
      <text
         xml:space="preserve"
         style="font-style:normal;font-weight:normal;font-size:92.39192963px;font-family:Verdana;-inkscape-font-specification:Verdana;text-anchor:middle;fill:#000000;fill-opacity:1;stroke:none"
         x="568.59564"
         y="741.6825"
         id="text4292"><tspan
           id="tspan4294"
           x="568.59564"
           y="741.6825">O</tspan></text>
      <text
         id="text4296"
         y="754.88135"
         x="625.18921"
         style="font-style:normal;font-weight:normal;font-size:73.9135437px;font-family:Verdana;-inkscape-font-specification:Verdana;text-anchor:middle;fill:#000000;fill-opacity:1;stroke:none"
         xml:space="preserve"><tspan
           y="754.88135"
           x="625.18921"
           id="tspan4298">6</tspan></text>
    </g>
    <path
       style="font-style:normal;font-weight:normal;font-size:medium;font-family:'Bitstream Vera Sans';fill:#000000;fill-opacity:1;stroke:none"
       d="m 752.03422,780.48637 0,-18.13555 -18.00019,0 0,-7.57902 18.00019,0 0,-18.00019 7.66924,0 0,18.00019 18.00019,0 0,7.57902 -18.00019,0 0,18.13555 z"
       id="path4385" />
    <rect
       style="fill:#e5ffd5"
       y="645.99091"
       x="802.56366"
       height="227.68011"
       width="313.18124"
       id="rect4304" />
    <g
       id="g11521"
       transform="translate(108.61615,0)">
      <text
         xml:space="preserve"
         style="font-style:normal;font-weight:normal;font-size:92.39192963px;font-family:Verdana;-inkscape-font-specification:Verdana;text-anchor:middle;fill:#000000;fill-opacity:1;stroke:none"
         x="825.66168"
         y="741.6825"
         id="text4306"><tspan
           id="tspan4308"
           x="825.66168"
           y="741.6825">6O</tspan></text>
      <text
         id="text4310"
         y="754.88135"
         x="916.35034"
         style="font-style:normal;font-weight:normal;font-size:73.9135437px;font-family:Verdana;-inkscape-font-specification:Verdana;text-anchor:middle;fill:#000000;fill-opacity:1;stroke:none"
         xml:space="preserve"><tspan
           y="754.88135"
           x="916.35034"
           id="tspan4312">2</tspan></text>
    </g>
    <text
       xml:space="preserve"
       style="font-style:normal;font-weight:normal;font-size:73.9135437px;font-family:Verdana;-inkscape-font-specification:Verdana;text-anchor:middle;fill:#225500;fill-opacity:1;stroke:none"
       x="961.06232"
       y="850.57288"
       id="text4314"><tspan
         id="tspan4316"
         x="961.06232"
         y="850.57288">Oxygen</tspan></text>
    <path
       id="path11541"
       d="m -298.59405,334.48637 0,-18.13555 -18.00019,0 0,-7.57902 18.00019,0 0,-18.00019 7.66924,0 0,18.00019 18.00019,0 0,7.57902 -18.00019,0 0,18.13555 z"
       style="font-style:normal;font-weight:normal;font-size:medium;font-family:'Bitstream Vera Sans';fill:#000000;fill-opacity:1;stroke:none" />
    <path
       id="path11543"
       d="m 71.484126,312.62893 153.912254,0"
       style="fill:none;stroke:#000000;stroke-width:9.3604002;stroke-linecap:butt;stroke-linejoin:miter;stroke-miterlimit:4;stroke-dasharray:none;stroke-opacity:1;marker-start:none;marker-end:url(#Arrow1Mend)" />
    <path
       id="path11545"
       d="m 752.03422,334.48637 0,-18.13555 -18.00019,0 0,-7.57902 18.00019,0 0,-18.00019 7.66924,0 0,18.00019 18.00019,0 0,7.57902 -18.00019,0 0,18.13555 z"
       style="font-style:normal;font-weight:normal;font-size:medium;font-family:'Bitstream Vera Sans';fill:#000000;fill-opacity:1;stroke:none" />
    <g
       id="g11552"
       transform="translate(0,-446)">
      <rect
         style="fill:#edf000;fill-opacity:1;stroke-width:3;stroke-miterlimit:4;stroke-dasharray:none;filter:url(#filter4284)"
         id="rect11554"
         width="84.285713"
         height="40"
         x="545.71429"
         y="579.50507"
         transform="matrix(1.9420538,0,0,1.7169908,-985.58908,-342.10748)" />
      <text
         id="text11556"
         y="708.68524"
         x="153.58217"
         style="font-style:normal;font-weight:normal;font-size:64.67435455px;font-family:Verdana;-inkscape-font-specification:Verdana;text-anchor:middle;fill:#554400;fill-opacity:1;stroke:none"
         xml:space="preserve"><tspan
           y="708.68524"
           x="153.58217"
           id="tspan11558">Light</tspan></text>
    </g>
    <rect
       style="opacity:1;fill:none;fill-opacity:0.51176471;stroke:#000000;stroke-width:1.5;stroke-miterlimit:4;stroke-dasharray:none;stroke-dashoffset:0;stroke-opacity:1"
       id="rect11560"
       width="2036.4675"
       height="606.82617"
       x="-932.52386"
       y="-2.9486864" />
  </g>
</svg>
