<?xml version="1.0" encoding="UTF-8" standalone="no"?>
<!-- Created with Inkscape (http://www.inkscape.org/) -->

<svg
   xmlns:dc="http://purl.org/dc/elements/1.1/"
   xmlns:cc="http://creativecommons.org/ns#"
   xmlns:rdf="http://www.w3.org/1999/02/22-rdf-syntax-ns#"
   xmlns:svg="http://www.w3.org/2000/svg"
   xmlns="http://www.w3.org/2000/svg"
   xmlns:xlink="http://www.w3.org/1999/xlink"
   xmlns:sodipodi="http://sodipodi.sourceforge.net/DTD/sodipodi-0.dtd"
   xmlns:inkscape="http://www.inkscape.org/namespaces/inkscape"
   id="svg2"
   version="1.1"
   inkscape:version="0.91 r13725"
   xml:space="preserve"
   width="505"
   height="464"
   viewBox="0 0 505 464"
   sodipodi:docname="starchdilution.svg"><title
     id="title4712">Starch Dilution</title><metadata
     id="metadata8"><rdf:RDF><cc:Work
         rdf:about=""><dc:format>image/svg+xml</dc:format><dc:type
           rdf:resource="http://purl.org/dc/dcmitype/StillImage" /><dc:title>Starch Dilution</dc:title><cc:license
           rdf:resource="http://creativecommons.org/licenses/by-nc-sa/3.0/" /><dc:creator><cc:Agent><dc:title>jeremy seto</dc:title></cc:Agent></dc:creator></cc:Work><cc:License
         rdf:about="http://creativecommons.org/licenses/by-nc-sa/3.0/"><cc:permits
           rdf:resource="http://creativecommons.org/ns#Reproduction" /><cc:permits
           rdf:resource="http://creativecommons.org/ns#Distribution" /><cc:requires
           rdf:resource="http://creativecommons.org/ns#Notice" /><cc:requires
           rdf:resource="http://creativecommons.org/ns#Attribution" /><cc:prohibits
           rdf:resource="http://creativecommons.org/ns#CommercialUse" /><cc:permits
           rdf:resource="http://creativecommons.org/ns#DerivativeWorks" /><cc:requires
           rdf:resource="http://creativecommons.org/ns#ShareAlike" /></cc:License></rdf:RDF></metadata><defs
     id="defs6"><clipPath
       clipPathUnits="userSpaceOnUse"
       id="clipPath18"><path
         d="m 0,0.5 7930,0 0,6130 -7930,0 0,-6130 z"
         id="path20"
         inkscape:connector-curvature="0" /></clipPath><clipPath
       clipPathUnits="userSpaceOnUse"
       id="clipPath186"><path
         d="m 470,3390.5 1990,0 0,1610 -1990,0 0,-1610 z"
         id="path188"
         inkscape:connector-curvature="0" /></clipPath><linearGradient
       x1="884.48639"
       y1="157.21288"
       x2="1009.924"
       y2="157.21288"
       id="linearGradient4839"
       xlink:href="#linearGradient3345"
       gradientUnits="userSpaceOnUse"
       gradientTransform="matrix(0.38103482,0,0,1.7031111,-706.05847,-29.660298)" /><linearGradient
       id="linearGradient3345"><stop
         id="stop3347"
         style="stop-color:#bcbcbc;stop-opacity:0"
         offset="0" /><stop
         id="stop3349"
         style="stop-color:#ffffff;stop-opacity:0.517241"
         offset="0.344262" /><stop
         id="stop3351"
         style="stop-color:#b0acac;stop-opacity:0"
         offset="1" /></linearGradient></defs><sodipodi:namedview
     pagecolor="#ffffff"
     bordercolor="#666666"
     borderopacity="1"
     objecttolerance="10"
     gridtolerance="10"
     guidetolerance="10"
     inkscape:pageopacity="0"
     inkscape:pageshadow="2"
     inkscape:window-width="1680"
     inkscape:window-height="1000"
     id="namedview4"
     showgrid="false"
     inkscape:zoom="1.2299674"
     inkscape:cx="352.24289"
     inkscape:cy="257.50677"
     inkscape:window-x="0"
     inkscape:window-y="0"
     inkscape:window-maximized="1"
     inkscape:current-layer="g10" /><g
     id="g10"
     inkscape:groupmode="layer"
     inkscape:label="ink_ext_XXXXXX"
     transform="matrix(1.25,0,0,-1.25,0,464)"><path
       inkscape:connector-curvature="0"
       id="path22"
       style="fill:#ffffff;fill-opacity:1;fill-rule:nonzero;stroke:none"
       d="m 0.03592288,1.034751 403.85349712,0 0,370.883859 -403.85349712,0 0,-370.883859 z"
       inkscape:export-xdpi="300.06"
       inkscape:export-ydpi="300.06" /><path
       inkscape:connector-curvature="0"
       id="path24"
       style="fill:none;stroke:#000000;stroke-width:0.04691955;stroke-linecap:butt;stroke-linejoin:miter;stroke-miterlimit:4;stroke-dasharray:none;stroke-opacity:1"
       d="m 0.03592288,1.034751 479.95307712,0 0,370.883859 -479.95307712,0 0,-370.883859 z"
       inkscape:export-xdpi="300.06"
       inkscape:export-ydpi="300.06" /><path
       inkscape:connector-curvature="0"
       id="path80"
       style="fill:#000000;fill-opacity:1;fill-rule:nonzero;stroke:none"
       d="m 173.00113,230.43982 c -13.08903,-4.0224 -21.92657,-15.39811 -20.43324,-25.89019 l 4.99573,1.53393 c -0.99696,8.30239 6.0224,17.22296 16.36115,20.39992 10.34056,3.17695 20.30779,-0.52303 23.06535,-8.2836 l 4.99574,1.53393 c -3.28181,9.94359 -15.89509,14.72781 -28.98473,10.70601 z"
       inkscape:export-xdpi="300.06"
       inkscape:export-ydpi="300.06" /><path
       inkscape:connector-curvature="0"
       id="path82"
       style="fill:#000000;fill-opacity:1;fill-rule:nonzero;stroke:none"
       d="m 209.82643,224.41439 -20.08537,-6.20239 6.61694,-5.43331 6.61694,-5.43574 3.42605,8.53694 3.42544,8.5345 z"
       inkscape:export-xdpi="300.06"
       inkscape:export-ydpi="300.06" /><path
       inkscape:connector-curvature="0"
       id="path84"
       style="fill:#000000;fill-opacity:1;fill-rule:nonzero;stroke:none"
       d="m 202.19131,208.44416 -6.01513,4.94301 -0.89272,0.70303 c 1.54606,0.33393 3.03272,0.1703 4.61635,0.13515 3.90422,-0.0903 4.10543,2.47635 5.96361,3.29029 l -0.55394,-1.31394 -3.11817,-7.75754 z"
       inkscape:export-xdpi="300.06"
       inkscape:export-ydpi="300.06" /><path
       inkscape:connector-curvature="0"
       id="path86"
       style="fill:#000000;fill-opacity:1;fill-rule:nonzero;stroke:none"
       d="m 249.25838,229.76225 c -13.08964,-4.0218 -21.92718,-15.39751 -20.43324,-25.88959 l 4.99512,1.53636 c -0.99696,8.30239 6.0224,17.22053 16.36357,20.39749 10.33814,3.17695 20.30779,-0.5206 23.06354,-8.2836 l 4.99513,1.53393 c -3.2812,9.94359 -15.89509,14.72782 -28.98412,10.70541 z"
       inkscape:export-xdpi="300.06"
       inkscape:export-ydpi="300.06" /><path
       inkscape:connector-curvature="0"
       id="path88"
       style="fill:#000000;fill-opacity:1;fill-rule:nonzero;stroke:none"
       d="m 286.08549,223.73743 -10.0448,-3.1012 -10.04238,-3.1012 13.23388,-10.86662 3.42544,8.53451 3.42786,8.53451 z"
       inkscape:export-xdpi="300.06"
       inkscape:export-ydpi="300.06" /><path
       inkscape:connector-curvature="0"
       id="path90"
       style="fill:#000000;fill-opacity:1;fill-rule:nonzero;stroke:none"
       d="m 278.44856,207.76901 -6.01331,4.94119 -0.89515,0.70303 c 1.54606,0.33394 3.03272,0.1703 4.61635,0.13454 3.90422,-0.0873 4.10543,2.47636 5.96603,3.29332 l -0.55636,-1.31635 -3.11756,-7.75573 z"
       inkscape:export-xdpi="300.06"
       inkscape:export-ydpi="300.06" /><path
       inkscape:connector-curvature="0"
       id="path92"
       style="fill:#000000;fill-opacity:1;fill-rule:nonzero;stroke:none"
       d="m 324.34775,228.41074 c -13.08964,-4.02241 -21.92717,-15.39751 -20.43324,-25.89019 l 4.99513,1.53393 c -0.99636,8.303 6.023,17.22296 16.36356,20.40052 10.33875,3.17696 20.3078,-0.52363 23.06354,-8.28603 l 4.99513,1.53636 c -3.2812,9.94299 -15.89205,14.72782 -28.98412,10.70541 z"
       inkscape:export-xdpi="300.06"
       inkscape:export-ydpi="300.06" /><path
       inkscape:connector-curvature="0"
       id="path94"
       style="fill:#000000;fill-opacity:1;fill-rule:nonzero;stroke:none"
       d="m 361.17547,222.38531 -10.04298,-3.1012 -10.04481,-3.1012 6.61694,-5.43331 6.61694,-5.43573 3.42787,8.53511 3.42604,8.53633 z"
       inkscape:export-xdpi="300.06"
       inkscape:export-ydpi="300.06" /><path
       inkscape:connector-curvature="0"
       id="path96"
       style="fill:#000000;fill-opacity:1;fill-rule:nonzero;stroke:none"
       d="m 353.53793,206.41508 -6.01331,4.94301 -0.89454,0.7006 c 1.54545,0.33394 3.03272,0.17333 4.61635,0.13757 3.90361,-0.0897 4.10483,2.47393 5.96603,3.2909 l -0.55636,-1.31393 -3.11817,-7.75815 z"
       inkscape:export-xdpi="300.06"
       inkscape:export-ydpi="300.06" /><text
       xml:space="preserve"
       style="font-style:normal;font-weight:bold;font-size:10.66662121px;line-height:125%;font-family:Sans;-inkscape-font-specification:'Sans Bold';text-align:center;letter-spacing:0px;word-spacing:0px;text-anchor:middle;fill:#000000;fill-opacity:1;stroke:none;stroke-width:1px;stroke-linecap:butt;stroke-linejoin:miter;stroke-opacity:1"
       x="145.00533"
       y="-17.742952"
       id="text4577"
       sodipodi:linespacing="125%"
       transform="scale(1,-1)"
       inkscape:export-xdpi="300.06"
       inkscape:export-ydpi="300.06"><tspan
         sodipodi:role="line"
         id="tspan4579"
         x="145.00533"
         y="-17.742952"
         style="font-style:normal;font-variant:normal;font-weight:normal;font-stretch:normal;font-size:16.36356544px;font-family:'noto sans';-inkscape-font-specification:'noto sans'">1/2</tspan></text>
<text
       transform="scale(1,-1)"
       sodipodi:linespacing="125%"
       id="text4581"
       y="-17.742952"
       x="220.3949"
       style="font-style:normal;font-weight:bold;font-size:10.66662121px;line-height:125%;font-family:Sans;-inkscape-font-specification:'Sans Bold';text-align:center;letter-spacing:0px;word-spacing:0px;text-anchor:middle;fill:#000000;fill-opacity:1;stroke:none;stroke-width:1px;stroke-linecap:butt;stroke-linejoin:miter;stroke-opacity:1"
       xml:space="preserve"
       inkscape:export-xdpi="300.06"
       inkscape:export-ydpi="300.06"><tspan
         style="font-style:normal;font-variant:normal;font-weight:normal;font-stretch:normal;font-size:16.36356544px;font-family:'noto sans';-inkscape-font-specification:'noto sans'"
         y="-17.742952"
         x="220.3949"
         id="tspan4583"
         sodipodi:role="line">1/4</tspan></text>
<text
       xml:space="preserve"
       style="font-style:normal;font-weight:bold;font-size:10.66662121px;line-height:125%;font-family:Sans;-inkscape-font-specification:'Sans Bold';text-align:center;letter-spacing:0px;word-spacing:0px;text-anchor:middle;fill:#000000;fill-opacity:1;stroke:none;stroke-width:1px;stroke-linecap:butt;stroke-linejoin:miter;stroke-opacity:1"
       x="220.64165"
       y="-17.742952"
       id="text4585"
       sodipodi:linespacing="125%"
       transform="scale(1,-1)"><tspan
         sodipodi:role="line"
         id="tspan4587"
         x="220.64165"
         y="-17.742952"
         style="font-style:normal;font-variant:normal;font-weight:normal;font-stretch:normal;font-size:16.36356544px;font-family:'noto sans';-inkscape-font-specification:'noto sans'" /></text>
<text
       transform="scale(1,-1)"
       sodipodi:linespacing="125%"
       id="text4589"
       y="-17.742952"
       x="296.28784"
       style="font-style:normal;font-weight:bold;font-size:10.66662121px;line-height:125%;font-family:Sans;-inkscape-font-specification:'Sans Bold';text-align:center;letter-spacing:0px;word-spacing:0px;text-anchor:middle;fill:#000000;fill-opacity:1;stroke:none;stroke-width:1px;stroke-linecap:butt;stroke-linejoin:miter;stroke-opacity:1"
       xml:space="preserve"
       inkscape:export-xdpi="300.06"
       inkscape:export-ydpi="300.06"><tspan
         style="font-style:normal;font-variant:normal;font-weight:normal;font-stretch:normal;font-size:16.36356544px;font-family:'noto sans';-inkscape-font-specification:'noto sans'"
         y="-17.742952"
         x="296.28784"
         id="tspan4591"
         sodipodi:role="line">1/8</tspan></text>
<g
       id="g4607"
       transform="matrix(0.60605799,0,0,0.60605799,3.8836809,0.39839009)"
       inkscape:export-xdpi="300.06"
       inkscape:export-ydpi="300.06"><path
         d="m 207.715,183.452 c 3.262,-6.992 52.469,-5.98 53.906,0 l 0,-90.9961 c -1.848,-35.9368 -47.109,-45.3629 -53.906,0 l 0,90.9961 z"
         style="fill:#78dcfa;fill-opacity:1;fill-rule:nonzero;stroke:none"
         id="path32"
         inkscape:connector-curvature="0" /><path
         d="m 207.773,321.097 c 1.168,-6.227 54.86,-4.563 54.137,0 l 0,-228.57 c -5.105,-40.1059 -48.664,-41.3481 -54.137,0 l 0,228.57 z"
         style="fill:none;stroke:#000000;stroke-width:1.6652;stroke-linecap:round;stroke-linejoin:miter;stroke-miterlimit:4;stroke-dasharray:none;stroke-opacity:1"
         id="path34"
         inkscape:connector-curvature="0" /><path
         d="m 263.211,321.112 c 0,-1.089 -3.035,-2.171 -8.25,-2.945 -5.219,-0.769 -12.547,-1.219 -19.922,-1.219 -7.379,0 -14.707,0.45 -19.922,1.219 -5.215,0.774 -8.254,1.856 -8.254,2.945 0,1.09 3.039,2.172 8.254,2.942 5.215,0.769 12.543,1.219 19.922,1.219 7.375,0 14.703,-0.45 19.922,-1.219 5.215,-0.77 8.25,-1.852 8.25,-2.942 z"
         style="fill:none;stroke:#000000;stroke-width:1.6652;stroke-linecap:round;stroke-linejoin:miter;stroke-miterlimit:4;stroke-dasharray:none;stroke-opacity:1"
         id="path36"
         inkscape:connector-curvature="0" /><path
         d="m 261.816,183.405 c 0,-1.304 -2.902,-2.597 -7.894,-3.519 -4.988,-0.922 -12,-1.461 -19.059,-1.461 -7.054,0 -14.066,0.539 -19.058,1.461 -4.989,0.922 -7.895,2.215 -7.895,3.519 0,1.305 2.906,2.598 7.895,3.52 4.992,0.922 12.004,1.461 19.058,1.461 7.059,0 14.071,-0.539 19.059,-1.461 4.992,-0.922 7.894,-2.215 7.894,-3.52 z"
         style="fill:#44ddcf;fill-opacity:1;fill-rule:nonzero;stroke:none"
         id="path38"
         inkscape:connector-curvature="0" /><path
         d="m 261.816,183.405 c 0,-1.304 -2.902,-2.597 -7.894,-3.519 -4.988,-0.922 -12,-1.461 -19.059,-1.461 -7.054,0 -14.066,0.539 -19.058,1.461 -4.989,0.922 -7.895,2.215 -7.895,3.519 0,1.305 2.906,2.598 7.895,3.52 4.992,0.922 12.004,1.461 19.058,1.461 7.059,0 14.071,-0.539 19.059,-1.461 4.992,-0.922 7.894,-2.215 7.894,-3.52 z"
         style="fill:#78dcfa;fill-opacity:1;stroke:#000000;stroke-width:0.83259898;stroke-linecap:round;stroke-linejoin:miter;stroke-miterlimit:4;stroke-dasharray:none;stroke-opacity:1"
         id="path40"
         inkscape:connector-curvature="0" /><text
         transform="scale(1,-1)"
         sodipodi:linespacing="125%"
         id="text4597"
         y="-153.5"
         x="232.29199"
         style="font-style:normal;font-variant:normal;font-weight:normal;font-stretch:normal;font-size:20px;line-height:125%;font-family:'noto sans';-inkscape-font-specification:'noto sans, Normal';text-align:center;letter-spacing:0px;word-spacing:0px;writing-mode:lr-tb;text-anchor:middle;fill:#000000;fill-opacity:1;stroke:none;stroke-width:1px;stroke-linecap:butt;stroke-linejoin:miter;stroke-opacity:1"
         xml:space="preserve"><tspan
           y="-153.5"
           x="232.29199"
           id="tspan4599"
           sodipodi:role="line">H<tspan
   id="tspan4601"
   style="font-size:51.99999809%;baseline-shift:sub">2</tspan>O</tspan></text>
<text
         transform="scale(1,-1)"
         sodipodi:linespacing="125%"
         id="text4603"
         y="-111.8729"
         x="234.29538"
         style="font-style:normal;font-variant:normal;font-weight:normal;font-stretch:normal;font-size:20px;line-height:125%;font-family:'noto sans';-inkscape-font-specification:'noto sans, Normal';text-align:center;letter-spacing:0px;word-spacing:0px;writing-mode:lr-tb;text-anchor:middle;fill:#000000;fill-opacity:1;stroke:none;stroke-width:1px;stroke-linecap:butt;stroke-linejoin:miter;stroke-opacity:1"
         xml:space="preserve"><tspan
           y="-111.8729"
           x="234.29538"
           id="tspan4605"
           sodipodi:role="line">4ml</tspan></text>
</g><g
       id="g4619"
       transform="matrix(0.60605799,0,0,0.60605799,78.873267,0.39839009)"
       inkscape:export-xdpi="300.06"
       inkscape:export-ydpi="300.06"><path
         inkscape:connector-curvature="0"
         id="path4621"
         style="fill:#78dcfa;fill-opacity:1;fill-rule:nonzero;stroke:none"
         d="m 207.715,183.452 c 3.262,-6.992 52.469,-5.98 53.906,0 l 0,-90.9961 c -1.848,-35.9368 -47.109,-45.3629 -53.906,0 l 0,90.9961 z" /><path
         inkscape:connector-curvature="0"
         id="path4623"
         style="fill:none;stroke:#000000;stroke-width:1.6652;stroke-linecap:round;stroke-linejoin:miter;stroke-miterlimit:4;stroke-dasharray:none;stroke-opacity:1"
         d="m 207.773,321.097 c 1.168,-6.227 54.86,-4.563 54.137,0 l 0,-228.57 c -5.105,-40.1059 -48.664,-41.3481 -54.137,0 l 0,228.57 z" /><path
         inkscape:connector-curvature="0"
         id="path4625"
         style="fill:none;stroke:#000000;stroke-width:1.6652;stroke-linecap:round;stroke-linejoin:miter;stroke-miterlimit:4;stroke-dasharray:none;stroke-opacity:1"
         d="m 263.211,321.112 c 0,-1.089 -3.035,-2.171 -8.25,-2.945 -5.219,-0.769 -12.547,-1.219 -19.922,-1.219 -7.379,0 -14.707,0.45 -19.922,1.219 -5.215,0.774 -8.254,1.856 -8.254,2.945 0,1.09 3.039,2.172 8.254,2.942 5.215,0.769 12.543,1.219 19.922,1.219 7.375,0 14.703,-0.45 19.922,-1.219 5.215,-0.77 8.25,-1.852 8.25,-2.942 z" /><path
         inkscape:connector-curvature="0"
         id="path4627"
         style="fill:#44ddcf;fill-opacity:1;fill-rule:nonzero;stroke:none"
         d="m 261.816,183.405 c 0,-1.304 -2.902,-2.597 -7.894,-3.519 -4.988,-0.922 -12,-1.461 -19.059,-1.461 -7.054,0 -14.066,0.539 -19.058,1.461 -4.989,0.922 -7.895,2.215 -7.895,3.519 0,1.305 2.906,2.598 7.895,3.52 4.992,0.922 12.004,1.461 19.058,1.461 7.059,0 14.071,-0.539 19.059,-1.461 4.992,-0.922 7.894,-2.215 7.894,-3.52 z" /><path
         inkscape:connector-curvature="0"
         id="path4629"
         style="fill:#78dcfa;fill-opacity:1;stroke:#000000;stroke-width:0.83259898;stroke-linecap:round;stroke-linejoin:miter;stroke-miterlimit:4;stroke-dasharray:none;stroke-opacity:1"
         d="m 261.816,183.405 c 0,-1.304 -2.902,-2.597 -7.894,-3.519 -4.988,-0.922 -12,-1.461 -19.059,-1.461 -7.054,0 -14.066,0.539 -19.058,1.461 -4.989,0.922 -7.895,2.215 -7.895,3.519 0,1.305 2.906,2.598 7.895,3.52 4.992,0.922 12.004,1.461 19.058,1.461 7.059,0 14.071,-0.539 19.059,-1.461 4.992,-0.922 7.894,-2.215 7.894,-3.52 z" /><text
         xml:space="preserve"
         style="font-style:normal;font-variant:normal;font-weight:normal;font-stretch:normal;font-size:20px;line-height:125%;font-family:'noto sans';-inkscape-font-specification:'noto sans, Normal';text-align:center;letter-spacing:0px;word-spacing:0px;writing-mode:lr-tb;text-anchor:middle;fill:#000000;fill-opacity:1;stroke:none;stroke-width:1px;stroke-linecap:butt;stroke-linejoin:miter;stroke-opacity:1"
         x="232.29199"
         y="-153.5"
         id="text4631"
         sodipodi:linespacing="125%"
         transform="scale(1,-1)"><tspan
           sodipodi:role="line"
           id="tspan4633"
           x="232.29199"
           y="-153.5">H<tspan
   style="font-size:51.99999809%;baseline-shift:sub"
   id="tspan4635">2</tspan>O</tspan></text>
<text
         xml:space="preserve"
         style="font-style:normal;font-variant:normal;font-weight:normal;font-stretch:normal;font-size:20px;line-height:125%;font-family:'noto sans';-inkscape-font-specification:'noto sans, Normal';text-align:center;letter-spacing:0px;word-spacing:0px;writing-mode:lr-tb;text-anchor:middle;fill:#000000;fill-opacity:1;stroke:none;stroke-width:1px;stroke-linecap:butt;stroke-linejoin:miter;stroke-opacity:1"
         x="234.29538"
         y="-111.8729"
         id="text4637"
         sodipodi:linespacing="125%"
         transform="scale(1,-1)"><tspan
           sodipodi:role="line"
           id="tspan4639"
           x="234.29538"
           y="-111.8729">4ml</tspan></text>
</g><g
       id="g4641"
       transform="matrix(0.60605799,0,0,0.60605799,153.86285,0.39839009)"
       inkscape:export-xdpi="300.06"
       inkscape:export-ydpi="300.06"><path
         inkscape:connector-curvature="0"
         id="path4643"
         style="fill:#78dcfa;fill-opacity:1;fill-rule:nonzero;stroke:none"
         d="m 207.715,183.452 c 3.262,-6.992 52.469,-5.98 53.906,0 l 0,-90.9961 c -1.848,-35.9368 -47.109,-45.3629 -53.906,0 l 0,90.9961 z" /><path
         inkscape:connector-curvature="0"
         id="path4645"
         style="fill:none;stroke:#000000;stroke-width:1.6652;stroke-linecap:round;stroke-linejoin:miter;stroke-miterlimit:4;stroke-dasharray:none;stroke-opacity:1"
         d="m 207.773,321.097 c 1.168,-6.227 54.86,-4.563 54.137,0 l 0,-228.57 c -5.105,-40.1059 -48.664,-41.3481 -54.137,0 l 0,228.57 z" /><path
         inkscape:connector-curvature="0"
         id="path4647"
         style="fill:none;stroke:#000000;stroke-width:1.6652;stroke-linecap:round;stroke-linejoin:miter;stroke-miterlimit:4;stroke-dasharray:none;stroke-opacity:1"
         d="m 263.211,321.112 c 0,-1.089 -3.035,-2.171 -8.25,-2.945 -5.219,-0.769 -12.547,-1.219 -19.922,-1.219 -7.379,0 -14.707,0.45 -19.922,1.219 -5.215,0.774 -8.254,1.856 -8.254,2.945 0,1.09 3.039,2.172 8.254,2.942 5.215,0.769 12.543,1.219 19.922,1.219 7.375,0 14.703,-0.45 19.922,-1.219 5.215,-0.77 8.25,-1.852 8.25,-2.942 z" /><path
         inkscape:connector-curvature="0"
         id="path4649"
         style="fill:#44ddcf;fill-opacity:1;fill-rule:nonzero;stroke:none"
         d="m 261.816,183.405 c 0,-1.304 -2.902,-2.597 -7.894,-3.519 -4.988,-0.922 -12,-1.461 -19.059,-1.461 -7.054,0 -14.066,0.539 -19.058,1.461 -4.989,0.922 -7.895,2.215 -7.895,3.519 0,1.305 2.906,2.598 7.895,3.52 4.992,0.922 12.004,1.461 19.058,1.461 7.059,0 14.071,-0.539 19.059,-1.461 4.992,-0.922 7.894,-2.215 7.894,-3.52 z" /><path
         inkscape:connector-curvature="0"
         id="path4651"
         style="fill:#78dcfa;fill-opacity:1;stroke:#000000;stroke-width:0.83259898;stroke-linecap:round;stroke-linejoin:miter;stroke-miterlimit:4;stroke-dasharray:none;stroke-opacity:1"
         d="m 261.816,183.405 c 0,-1.304 -2.902,-2.597 -7.894,-3.519 -4.988,-0.922 -12,-1.461 -19.059,-1.461 -7.054,0 -14.066,0.539 -19.058,1.461 -4.989,0.922 -7.895,2.215 -7.895,3.519 0,1.305 2.906,2.598 7.895,3.52 4.992,0.922 12.004,1.461 19.058,1.461 7.059,0 14.071,-0.539 19.059,-1.461 4.992,-0.922 7.894,-2.215 7.894,-3.52 z" /><text
         xml:space="preserve"
         style="font-style:normal;font-variant:normal;font-weight:normal;font-stretch:normal;font-size:20px;line-height:125%;font-family:'noto sans';-inkscape-font-specification:'noto sans, Normal';text-align:center;letter-spacing:0px;word-spacing:0px;writing-mode:lr-tb;text-anchor:middle;fill:#000000;fill-opacity:1;stroke:none;stroke-width:1px;stroke-linecap:butt;stroke-linejoin:miter;stroke-opacity:1"
         x="232.29199"
         y="-153.5"
         id="text4653"
         sodipodi:linespacing="125%"
         transform="scale(1,-1)"><tspan
           sodipodi:role="line"
           id="tspan4655"
           x="232.29199"
           y="-153.5">H<tspan
   style="font-size:51.99999809%;baseline-shift:sub"
   id="tspan4657">2</tspan>O</tspan></text>
<text
         xml:space="preserve"
         style="font-style:normal;font-variant:normal;font-weight:normal;font-stretch:normal;font-size:20px;line-height:125%;font-family:'noto sans';-inkscape-font-specification:'noto sans, Normal';text-align:center;letter-spacing:0px;word-spacing:0px;writing-mode:lr-tb;text-anchor:middle;fill:#000000;fill-opacity:1;stroke:none;stroke-width:1px;stroke-linecap:butt;stroke-linejoin:miter;stroke-opacity:1"
         x="234.29538"
         y="-111.8729"
         id="text4659"
         sodipodi:linespacing="125%"
         transform="scale(1,-1)"><tspan
           sodipodi:role="line"
           id="tspan4661"
           x="234.29538"
           y="-111.8729">4ml</tspan></text>
</g><text
       xml:space="preserve"
       style="font-style:normal;font-variant:normal;font-weight:normal;font-stretch:normal;font-size:12.12115955px;line-height:125%;font-family:'noto sans';-inkscape-font-specification:'noto sans, Normal';text-align:center;letter-spacing:0px;word-spacing:0px;writing-mode:lr-tb;text-anchor:middle;fill:#000000;fill-opacity:1;stroke:none;stroke-width:1px;stroke-linecap:butt;stroke-linejoin:miter;stroke-opacity:1"
       x="368.96207"
       y="-187.08498"
       id="text4685"
       sodipodi:linespacing="125%"
       transform="scale(1,-1)"
       inkscape:export-xdpi="300.06"
       inkscape:export-ydpi="300.06"><tspan
         sodipodi:role="line"
         id="tspan4687"
         x="368.96207"
         y="-187.08498">Discard 4ml</tspan><tspan
         sodipodi:role="line"
         x="368.96207"
         y="-171.93353"
         id="tspan4689">of 1/8</tspan></text>
<text
       xml:space="preserve"
       style="font-style:normal;font-variant:normal;font-weight:normal;font-stretch:normal;font-size:12.12115955px;line-height:125%;font-family:'noto sans';-inkscape-font-specification:'noto sans, Normal';text-align:center;letter-spacing:0px;word-spacing:0px;writing-mode:lr-tb;text-anchor:middle;fill:#000000;fill-opacity:1;stroke:none;stroke-width:1px;stroke-linecap:butt;stroke-linejoin:miter;stroke-opacity:1"
       x="218.11153"
       y="-274.70279"
       id="text4714"
       sodipodi:linespacing="125%"
       transform="scale(1,-1)"
       inkscape:export-xdpi="300.06"
       inkscape:export-ydpi="300.06"><tspan
         sodipodi:role="line"
         id="tspan4716"
         x="218.11153"
         y="-274.70279">Add 4ml</tspan><tspan
         sodipodi:role="line"
         x="218.11153"
         y="-259.55133"
         id="tspan4718">of 1/2</tspan><tspan
         sodipodi:role="line"
         x="218.11153"
         y="-244.39989"
         id="tspan4720">and shake</tspan></text>
<text
       transform="scale(1,-1)"
       sodipodi:linespacing="125%"
       id="text4722"
       y="-274.70279"
       x="295.68726"
       style="font-style:normal;font-variant:normal;font-weight:normal;font-stretch:normal;font-size:12.12115955px;line-height:125%;font-family:'noto sans';-inkscape-font-specification:'noto sans, Normal';text-align:center;letter-spacing:0px;word-spacing:0px;writing-mode:lr-tb;text-anchor:middle;fill:#000000;fill-opacity:1;stroke:none;stroke-width:1px;stroke-linecap:butt;stroke-linejoin:miter;stroke-opacity:1"
       xml:space="preserve"
       inkscape:export-xdpi="300.06"
       inkscape:export-ydpi="300.06"><tspan
         y="-274.70279"
         x="295.68726"
         id="tspan4724"
         sodipodi:role="line">Add 4ml</tspan><tspan
         id="tspan4726"
         y="-259.55133"
         x="295.68726"
         sodipodi:role="line">of 1/4</tspan><tspan
         id="tspan4728"
         y="-244.39989"
         x="295.68726"
         sodipodi:role="line">and shake</tspan></text>
<g
       id="g5990"
       transform="matrix(0.60605799,0,0,0.60605799,115.39835,0.39839009)"
       inkscape:export-xdpi="300.06"
       inkscape:export-ydpi="300.06"><rect
         transform="matrix(-0.44588623,-0.89508964,-0.83109782,0.55612625,0,0)"
         style="fill:#78dcfa;fill-opacity:1;stroke:#000000;stroke-width:0.11677863;stroke-linejoin:round;stroke-miterlimit:4"
         id="rect3664"
         y="268.76492"
         x="-368.82849"
         height="74.954437"
         width="47.293568" /><line
         id="svg_2"
         y2="475.50247"
         x2="-136.62906"
         y1="499.85556"
         x1="-124.49764"
         style="fill:none;stroke:#000000;stroke-width:2.33219242" /><rect
         transform="matrix(-0.44588623,-0.89508964,-0.83109782,0.55612625,0,0)"
         style="fill:url(#linearGradient4839);stroke:#000000;stroke-width:0.19655932;stroke-linejoin:round;stroke-miterlimit:4"
         id="rect3379"
         y="131.91432"
         x="-368.78717"
         height="212.35274"
         width="47.293568" /><rect
         transform="matrix(-0.44588623,-0.89508964,-0.83109782,0.55612625,0,0)"
         style="fill:#c00000;stroke:#000000;stroke-width:0.12083565;stroke-linejoin:round;stroke-miterlimit:4"
         id="rect3311"
         y="367.03552"
         x="-403.96771"
         height="3.4492691"
         width="116.47595" /><rect
         transform="matrix(-0.44588623,-0.89508964,-0.83109782,0.55612625,0,0)"
         style="fill:#9c0b0b;stroke:#c30505;stroke-width:0.12083565;stroke-linejoin:round;stroke-miterlimit:4"
         id="rect3313"
         y="344.51218"
         x="-375.98334"
         height="2.6075292"
         width="60.507122" /><path
         inkscape:connector-curvature="0"
         style="fill:#9c0b0b;stroke:#000000;stroke-width:0.12034382;stroke-linejoin:round;stroke-miterlimit:4"
         id="path3321"
         d="m -128.36333,539.03195 3.4071,26.536 -25.90677,-52.00628 -25.90677,-52.00626 18.12469,16.68776 30.28175,60.78878 z" /><rect
         transform="matrix(-0.44588623,-0.89508964,-0.83109782,0.55612625,0,0)"
         style="fill:#c00000;stroke:#000000;stroke-width:0.12083565;stroke-linejoin:round;stroke-miterlimit:4"
         id="rect3323"
         y="347.20651"
         x="-379.83655"
         height="10.864918"
         width="68.213516" /><line
         id="svg_4"
         y2="476.0629"
         x2="-136.60004"
         y1="500.41599"
         x1="-124.46862"
         style="fill:none;stroke:#000000;stroke-width:2.33219242" /><line
         id="svg_5"
         y2="466.96588"
         x2="-123.87164"
         y1="491.31894"
         x1="-111.74022"
         style="fill:none;stroke:#000000;stroke-width:2.33219242" /><line
         id="svg_6"
         y2="459.14438"
         x2="-110.88306"
         y1="483.49747"
         x1="-98.751656"
         style="fill:none;stroke:#000000;stroke-width:2.33219242" /><line
         id="svg_7"
         y2="450.04739"
         x2="-98.154671"
         y1="474.40042"
         x1="-86.023254"
         style="fill:none;stroke:#000000;stroke-width:2.33219242" /><line
         id="svg_8"
         y2="440.05252"
         x2="-83.434601"
         y1="464.40561"
         x1="-71.303185"
         style="fill:none;stroke:#000000;stroke-width:2.33219242" /><line
         id="svg_9"
         y2="430.95554"
         x2="-70.706207"
         y1="455.30862"
         x1="-58.574791"
         style="fill:none;stroke:#000000;stroke-width:2.33219242" /><line
         id="svg_10"
         y2="423.13403"
         x2="-57.717628"
         y1="447.48712"
         x1="-45.58622"
         style="fill:none;stroke:#000000;stroke-width:2.33219242" /><line
         id="svg_11"
         y2="414.03702"
         x2="-44.989235"
         y1="438.39011"
         x1="-32.857811"
         style="fill:none;stroke:#000000;stroke-width:2.33219242" /><line
         id="svg_12"
         y2="404.33246"
         x2="-29.186531"
         y1="428.68555"
         x1="-17.055107"
         style="fill:none;stroke:#000000;stroke-width:2.33219242" /><line
         id="svg_13"
         y2="395.23547"
         x2="-16.458122"
         y1="419.58853"
         x1="-4.3267136"
         style="fill:none;stroke:#000000;stroke-width:2.33219242" /><line
         id="svg_14"
         y2="387.41397"
         x2="-3.4695661"
         y1="411.76703"
         x1="8.6618576"
         style="fill:none;stroke:#000000;stroke-width:2.33219242" /><line
         id="svg_15"
         y2="378.31696"
         x2="9.2588425"
         y1="402.67004"
         x1="21.390251"
         style="fill:none;stroke:#000000;stroke-width:2.33219242" /><text
         xml:space="preserve"
         style="font-style:normal;font-variant:normal;font-weight:normal;font-stretch:normal;font-size:20px;line-height:125%;font-family:'noto sans';-inkscape-font-specification:'noto sans, Normal';text-align:center;letter-spacing:0px;word-spacing:0px;writing-mode:lr-tb;text-anchor:middle;fill:#000000;fill-opacity:1;stroke:none;stroke-width:1px;stroke-linecap:butt;stroke-linejoin:miter;stroke-opacity:1"
         x="-12.164902"
         y="-548.21649"
         id="text5982"
         sodipodi:linespacing="125%"
         transform="scale(1,-1)"><tspan
           sodipodi:role="line"
           id="tspan5984"
           x="-12.164902"
           y="-548.21649">Add 4ml</tspan><tspan
           sodipodi:role="line"
           x="-12.164902"
           y="-523.21649"
           id="tspan5986">of starch</tspan><tspan
           sodipodi:role="line"
           x="-12.164902"
           y="-498.21649"
           id="tspan5988">and shake</tspan></text>
</g></g></svg>