<?xml version="1.0" encoding="UTF-8" standalone="no"?>
<!-- Generator: Adobe Illustrator 19.2.1, SVG Export Plug-In . SVG Version: 6.00 Build 0)  -->

<svg
   xmlns:dc="http://purl.org/dc/elements/1.1/"
   xmlns:cc="http://creativecommons.org/ns#"
   xmlns:rdf="http://www.w3.org/1999/02/22-rdf-syntax-ns#"
   xmlns:svg="http://www.w3.org/2000/svg"
   xmlns="http://www.w3.org/2000/svg"
   xmlns:sodipodi="http://sodipodi.sourceforge.net/DTD/sodipodi-0.dtd"
   xmlns:inkscape="http://www.inkscape.org/namespaces/inkscape"
   version="1.1"
   id="Слой_1"
   x="0px"
   y="0px"
   viewBox="0 0 399.99999 350"
   xml:space="preserve"
   inkscape:version="0.91 r13725"
   sodipodi:docname="chitin.svg"
   width="400"
   height="350"><metadata
     id="metadata67"><rdf:RDF><cc:Work
         rdf:about=""><dc:format>image/svg+xml</dc:format><dc:type
           rdf:resource="http://purl.org/dc/dcmitype/StillImage" /><dc:title></dc:title><cc:license
           rdf:resource="http://creativecommons.org/publicdomain/zero/1.0/" /></cc:Work><cc:License
         rdf:about="http://creativecommons.org/publicdomain/zero/1.0/"><cc:permits
           rdf:resource="http://creativecommons.org/ns#Reproduction" /><cc:permits
           rdf:resource="http://creativecommons.org/ns#Distribution" /><cc:permits
           rdf:resource="http://creativecommons.org/ns#DerivativeWorks" /></cc:License></rdf:RDF></metadata><defs
     id="defs65" /><sodipodi:namedview
     pagecolor="#ffffff"
     bordercolor="#666666"
     borderopacity="1"
     objecttolerance="10"
     gridtolerance="10"
     guidetolerance="10"
     inkscape:pageopacity="0"
     inkscape:pageshadow="2"
     inkscape:window-width="1680"
     inkscape:window-height="1000"
     id="namedview63"
     showgrid="false"
     inkscape:zoom="0.71664985"
     inkscape:cx="352.22351"
     inkscape:cy="313.53836"
     inkscape:window-x="0"
     inkscape:window-y="0"
     inkscape:window-maximized="1"
     inkscape:current-layer="Слой_1" /><style
     type="text/css"
     id="style3">
	.st0{fill:#0066FF;}
</style><g
     id="g4230"
     transform="matrix(0.59108637,0,0,0.59108637,-4.1934265,55.211305)"
     inkscape:export-filename="/home/jeremy/bio-oer/figures/chemistry/macromolecules/chitin.png"
     inkscape:export-xdpi="150"
     inkscape:export-ydpi="150"><g
       id="g4199"><polygon
         points="37.4,172.6 58.6,193.5 60.3,191.8 37.4,169.2 37.4,16.6 62.5,16.6 62.5,14.2 35,14.2 35,166.9 15.9,148 14.2,149.7 35,170.2 35,455.9 62.5,455.9 62.5,453.5 37.4,453.5 "
         id="polygon5" /><path
         d="m 244.7,293 2.4,0 0,-34.2 40.6,-51.6 0,0 0.3,-0.3 0,-0.4 0,-2 0,-35.3 c 0,-3 1.7,-5.6 4.5,-6.7 2.8,-1.2 5.8,-0.6 7.9,1.5 l 29.9,29.5 1.7,-1.7 -29.9,-29.5 c -2.8,-2.8 -6.9,-3.6 -10.6,-2 -3.7,1.5 -6,5 -6,9 l 0,33.9 -25.8,-31.6 -1.9,1.5 27.3,33.4 -48,46 -55.8,0 -7.7,-7.4 0,-27.4 -2.4,0 0,25.1 -38,-36.3 0.6,-0.7 0,0 39.2,-47.9 55.5,0 0,-2.4 -54.9,0 0,-54.5 0,-2 0,-0.7 -2.3,-1.3 0,0 -32.8,-19 -1.2,2.1 33.9,19.6 0,1.3 0,55.2 -40.5,49.6 0,0 -0.3,0.3 0,0.4 -0.1,37.2 c 0,3 -1.7,5.6 -4.5,6.7 -2.8,1.1 -5.8,0.5 -7.9,-1.6 l -30,-29.9 -1.7,1.7 30,29.9 c 1.9,1.9 4.3,2.9 6.8,2.9 1.3,0 2.5,-0.2 3.8,-0.8 3.7,-1.5 6,-4.9 6,-8.9 l 0.1,-33.8 39.6,50.4 72.4,0 0,32.7 -0.2,0 z"
         id="path7"
         inkscape:connector-curvature="0" /><polygon
         points="299.8,341.8 299.8,379.1 302.2,379.1 302.2,340.4 346.3,315 345.1,312.9 295.8,341.4 294.7,340.7 294.7,340.7 263.3,322.6 262.1,324.7 289.5,340.5 289.5,379.1 291.9,379.1 291.9,341.8 295.2,343.8 295.2,343.8 295.8,344.1 296.4,343.8 296.4,343.8 298.2,342.8 298.2,342.8 "
         id="polygon9" /><polygon
         points="568,343.8 571.3,341.8 571.3,379.1 573.7,379.1 573.7,340.5 617.9,315 616.7,312.9 568.5,340.7 568.5,340.7 567.4,341.4 534.9,322.6 533.7,324.7 561,340.4 561,379.1 563.4,379.1 563.4,341.8 565,342.8 565,342.8 566.6,343.7 566.8,343.8 566.8,343.8 567.4,344.1 568,343.8 "
         id="polygon11" /><path
         d="m 650.8,238.2 0,-224 -27.6,0 0,2.4 25.2,0 0,219.2 -17.8,-17.7 -57,-55.9 c -2.8,-2.8 -6.9,-3.5 -10.6,-2 -3.7,1.5 -5.9,5 -5.9,8.9 l 0,34 -25.9,-31.6 -1.9,1.5 27.3,33.4 -48.1,46 -55.8,0 -7.7,-7.3 0,-27.4 -2.4,0 0,25.1 -38,-36.3 39.7,-48.6 55.5,0 0,-2.4 -54.8,0 0,-54.5 0,-2 0,-0.7 -0.6,-0.3 -34.4,-20 -1.2,2.1 32.7,18.9 1.2,0.7 0,1.3 0,55.2 -39.3,48 -1.2,1.5 -0.3,0.3 0,0.4 0,2 0,35.1 c 0,3 -1.7,5.6 -4.5,6.7 -2.8,1.2 -5.8,0.6 -8,-1.6 l -30,-29.9 -1.7,1.7 30,29.9 c 1.9,1.9 4.3,2.8 6.8,2.8 1.3,0 2.5,-0.2 3.8,-0.8 3.7,-1.5 6,-5 6,-9 l 0,-33.3 39.6,50.4 72.4,0 0,32.6 2.4,0 0,-34.2 40.4,-51.4 0.4,-0.5 0,-0.4 0,-2 0,-35.4 c 0,-3 1.7,-5.6 4.5,-6.7 2.8,-1.2 5.8,-0.6 7.9,1.5 l 57,55.9 19.5,19.4 0,214.3 -25.2,0 0,2.4 27.6,0 0,-214.4 22.6,22.5 1.7,-1.7 -24.3,-24.1 z"
         id="path13"
         inkscape:connector-curvature="0" /><path
         d="m 245.9,170.9 c 8,0 13,-5.6 13,-14.6 0,-8.9 -5,-14.6 -13,-14.6 -8,0 -13,5.6 -13,14.6 0.1,9 5.1,14.6 13,14.6 z m 0,-25.9 c 5.8,0 9.4,4.4 9.4,11.3 0,6.9 -3.6,11.3 -9.4,11.3 -5.8,0 -9.4,-4.4 -9.4,-11.3 0,-6.9 3.7,-11.3 9.4,-11.3 z"
         id="path15"
         inkscape:connector-curvature="0" /><polygon
         points="234.7,327.6 238.2,327.6 238.2,305.5 238.3,305.5 253.8,327.6 257.2,327.6 257.2,299.4 253.7,299.4 253.7,321.5 253.5,321.5 238.1,299.4 234.7,299.4 "
         id="polygon17" /><polygon
         points="208.2,327.6 211.7,327.6 211.7,314.7 227.2,314.7 227.2,327.6 230.7,327.6 230.7,299.4 227.2,299.4 227.2,311.6 211.7,311.6 211.7,299.4 208.2,299.4 "
         id="polygon19" /><path
         d="m 344.9,191.4 c -8,0 -13,5.6 -13,14.6 0,9 5,14.6 13,14.6 8,0 13,-5.6 13,-14.6 0,-8.9 -5,-14.6 -13,-14.6 z m 0,25.9 c -5.8,0 -9.4,-4.4 -9.4,-11.3 0,-6.9 3.6,-11.3 9.4,-11.3 5.8,0 9.4,4.4 9.4,11.3 0,6.9 -3.6,11.3 -9.4,11.3 z"
         id="path21"
         inkscape:connector-curvature="0" /><path
         d="m 159.4,198.5 c 0,9 5,14.6 13,14.6 8,0 13,-5.6 13,-14.6 0,-8.9 -5,-14.6 -13,-14.6 -8,0 -13,5.7 -13,14.6 z m 22.3,0 c 0,7 -3.6,11.3 -9.4,11.3 -5.8,0 -9.4,-4.4 -9.4,-11.3 0,-6.9 3.6,-11.3 9.4,-11.3 5.8,0 9.4,4.4 9.4,11.3 z"
         id="path23"
         inkscape:connector-curvature="0" /><polygon
         points="192.9,196.6 192.9,184.4 189.3,184.4 189.3,212.6 192.9,212.6 192.9,199.8 208.3,199.8 208.3,212.6 211.9,212.6 211.9,184.4 208.3,184.4 208.3,196.6 "
         id="polygon25" /><path
         d="m 295.8,385.5 c -8,0 -13,5.6 -13,14.6 0,9 5,14.6 13,14.6 8,0 13,-5.6 13,-14.6 0,-8.9 -5,-14.6 -13,-14.6 z m 0,25.9 c -5.8,0 -9.4,-4.4 -9.4,-11.3 0,-6.9 3.6,-11.3 9.4,-11.3 5.8,0 9.4,4.4 9.4,11.3 0,6.9 -3.6,11.3 -9.4,11.3 z"
         id="path27"
         inkscape:connector-curvature="0" /><path
         d="m 122.5,84.5 c 8,0 13,-5.6 13,-14.6 0,-8.9 -5,-14.6 -13,-14.6 -8,0 -13,5.6 -13,14.6 0,9 5,14.6 13,14.6 z m 0,-25.9 c 5.8,0 9.4,4.4 9.4,11.3 0,6.9 -3.6,11.3 -9.4,11.3 -5.8,0 -9.4,-4.4 -9.4,-11.3 0,-6.9 3.6,-11.3 9.4,-11.3 z"
         id="path29"
         inkscape:connector-curvature="0" /><polygon
         points="105.5,55.9 102,55.9 102,68 86.5,68 86.5,55.9 83,55.9 83,84 86.5,84 86.5,71.2 102,71.2 102,84 105.5,84 "
         id="polygon31" /><path
         d="m 73.2,191.4 c -8,0 -13,5.6 -13,14.6 0,9 5,14.6 13,14.6 8,0 13,-5.6 13,-14.6 0,-8.9 -5,-14.6 -13,-14.6 z m 0,25.9 c -5.8,0 -9.4,-4.4 -9.4,-11.3 0,-6.9 3.6,-11.3 9.4,-11.3 5.8,0 9.4,4.4 9.4,11.3 0,6.9 -3.7,11.3 -9.4,11.3 z"
         id="path33"
         inkscape:connector-curvature="0" /><path
         d="m 430.9,198.5 c 0,9 5,14.6 13,14.6 8,0 13,-5.6 13,-14.6 0,-8.9 -5,-14.6 -13,-14.6 -8,0 -13,5.7 -13,14.6 z m 22.4,0 c 0,7 -3.6,11.3 -9.4,11.3 -5.8,0 -9.4,-4.4 -9.4,-11.3 0,-7 3.6,-11.3 9.4,-11.3 5.8,0 9.4,4.3 9.4,11.3 z"
         id="path35"
         inkscape:connector-curvature="0" /><polygon
         points="464.4,196.6 464.4,184.4 460.9,184.4 460.9,212.6 464.4,212.6 464.4,199.8 479.9,199.8 479.9,212.6 483.4,212.6 483.4,184.4 479.9,184.4 479.9,196.6 "
         id="polygon37" /><path
         d="m 517.5,170.9 c 8,0 13,-5.6 13,-14.6 0,-8.9 -5,-14.6 -13,-14.6 -8,0 -13,5.6 -13,14.6 0,9 5,14.6 13,14.6 z m 0,-25.9 c 5.8,0 9.4,4.4 9.4,11.3 0,6.9 -3.6,11.3 -9.4,11.3 -5.8,0 -9.4,-4.4 -9.4,-11.3 0,-6.9 3.6,-11.3 9.4,-11.3 z"
         id="path39"
         inkscape:connector-curvature="0" /><polygon
         points="506.2,327.6 509.7,327.6 509.7,305.5 509.9,305.5 525.3,327.6 528.7,327.6 528.7,299.4 525.3,299.4 525.3,321.5 525.1,321.5 509.7,299.4 506.2,299.4 "
         id="polygon41" /><polygon
         points="479.7,327.6 483.3,327.6 483.3,314.7 498.7,314.7 498.7,327.6 502.2,327.6 502.2,299.4 498.7,299.4 498.7,311.6 483.3,311.6 483.3,299.4 479.7,299.4 "
         id="polygon43" /><path
         d="m 394,84.5 c 8,0 13,-5.6 13,-14.6 0,-8.9 -5,-14.6 -13,-14.6 -8,0 -13,5.6 -13,14.6 0,9 5,14.6 13,14.6 z m 0,-25.9 c 5.8,0 9.4,4.4 9.4,11.3 0,6.9 -3.6,11.3 -9.4,11.3 -5.8,0 -9.4,-4.4 -9.4,-11.3 0,-6.9 3.7,-11.3 9.4,-11.3 z"
         id="path45"
         inkscape:connector-curvature="0" /><polygon
         points="377,55.9 373.5,55.9 373.5,68 358,68 358,55.9 354.5,55.9 354.5,84 358,84 358,71.2 373.5,71.2 373.5,84 377,84 "
         id="polygon47" /><path
         d="m 567.4,385.5 c -8,0 -13,5.6 -13,14.6 0,9 5,14.6 13,14.6 8,0 13,-5.6 13,-14.6 -0.1,-8.9 -5.1,-14.6 -13,-14.6 z m 0,25.9 c -5.8,0 -9.4,-4.4 -9.4,-11.3 0,-6.9 3.6,-11.3 9.4,-11.3 5.8,0 9.4,4.4 9.4,11.3 0,6.9 -3.7,11.3 -9.4,11.3 z"
         id="path49"
         inkscape:connector-curvature="0" /><path
         d="m 674.5,453.5 c -3.3,0 -5.8,1.2 -7.6,3.6 l -0.1,0 0.7,-3.4 -3.2,0 -4.2,21 3.4,0 2.4,-12.2 c 0.7,-3.6 3.5,-6 6.9,-6 3.4,0 4.8,1.9 4.1,5.3 l -2.6,12.9 3.4,0 2.7,-13.5 c 1.1,-4.7 -1.2,-7.7 -5.9,-7.7 z"
         id="path51"
         inkscape:connector-curvature="0" /><g
         id="g53"><path
           class="st0"
           d="m 122.4,209.6 -1.8,0 c -0.2,0 -0.3,-0.1 -0.3,-0.3 l 0,-13.6 c 0,-0.2 -0.1,-0.3 -0.3,-0.3 l -2.3,0 c -0.2,0 -0.3,0.1 -0.4,0.2 l -6.2,13.4 -0.1,0.5 0,1.8 c 0,0.2 0.1,0.3 0.3,0.3 l 6.8,0 c 0.2,0 0.3,0 0.3,0.3 l 0,4.2 c 0,0.3 0.1,0.4 0.2,0.3 l 1.5,0 c 0.2,0 0.3,-0.1 0.3,-0.3 l 0,-4.2 c 0,-0.2 0.1,-0.3 0.3,-0.3 l 1.8,0 c 0.2,0 0.3,-0.1 0.3,-0.3 l 0,-1.4 c -0.1,-0.2 -0.2,-0.3 -0.4,-0.3 z m -4.4,0 -4.9,0 c -0.2,0 -0.3,-0.1 -0.2,-0.3 l 5.1,-11 c 0.1,-0.2 0.2,-0.1 0.2,0.1 l 0,10.9 0.1,0 c 0,0.2 -0.1,0.3 -0.3,0.3 z"
           id="path55"
           inkscape:connector-curvature="0"
           style="fill:#0066ff" /><path
           class="st0"
           d="m 306.7,214.5 -3.8,0 c -0.2,0 -0.3,-0.1 -0.2,-0.3 l 0,-18.5 c 0,-0.2 -0.1,-0.3 -0.3,-0.3 l -2.1,0 -0.4,0.3 c -0.8,1.5 -2.1,2.6 -3.7,3.3 -0.2,0.1 -0.2,0.1 -0.2,0.3 l 0,1.5 c 0,0.1 0.1,0.2 0.3,0.1 1.7,-0.7 3.1,-1.5 4,-2.3 0.2,-0.2 0.3,-0.2 0.3,0.1 l 0,15.6 c 0,0.2 -0.1,0.3 -0.3,0.3 l -3.9,0 c -0.2,-0.1 -0.3,0 -0.3,0.2 l 0,1.4 c 0,0.2 0.1,0.3 0.3,0.3 l 10.3,0 c 0.2,0 0.3,-0.1 0.3,-0.3 l 0,-1.4 c 0,-0.3 -0.1,-0.4 -0.3,-0.3 z"
           id="path57"
           inkscape:connector-curvature="0"
           style="fill:#0066ff" /><path
           class="st0"
           d="m 393,209.6 -1.7,0 c -0.2,0 -0.3,-0.1 -0.3,-0.3 l 0,-13.6 c 0,-0.2 -0.1,-0.3 -0.3,-0.3 l -2.3,0 c -0.2,0 -0.3,0.1 -0.4,0.2 l -6.2,13.4 -0.1,0.5 0,1.8 c 0,0.2 0.1,0.3 0.3,0.3 l 6.8,0 c 0.2,0 0.3,0 0.3,0.3 l 0,4.2 c 0,0.3 0.1,0.4 0.2,0.3 l 1.5,0 c 0.2,0 0.3,-0.1 0.3,-0.3 l 0,-4.2 c 0,-0.2 0.1,-0.3 0.3,-0.3 l 1.8,0 c 0.2,0 0.3,-0.1 0.3,-0.3 l 0,-1.4 c -0.2,-0.2 -0.2,-0.3 -0.5,-0.3 z m -4.3,0 -4.9,0 c -0.2,0 -0.3,-0.1 -0.2,-0.3 l 5.1,-11 c 0.1,-0.2 0.2,-0.1 0.2,0.1 l 0,10.9 0.1,0 c 0,0.2 -0.1,0.3 -0.3,0.3 z"
           id="path59"
           inkscape:connector-curvature="0"
           style="fill:#0066ff" /><path
           class="st0"
           d="m 577.4,214.5 -3.8,0 c -0.2,0 -0.3,-0.1 -0.2,-0.3 l 0,-18.5 c 0,-0.2 -0.1,-0.3 -0.3,-0.3 l -2.1,0 -0.4,0.3 c -0.8,1.5 -2.1,2.6 -3.7,3.3 -0.2,0.1 -0.2,0.1 -0.2,0.3 l 0,1.5 c 0,0.1 0.1,0.2 0.3,0.1 1.7,-0.7 3.1,-1.5 4,-2.3 0.2,-0.2 0.3,-0.2 0.3,0.1 l 0,15.6 c 0,0.2 -0.1,0.3 -0.3,0.3 l -3.9,0 c -0.2,-0.1 -0.3,0 -0.3,0.2 l 0,1.4 c 0,0.2 0.1,0.3 0.3,0.3 l 10.3,0 c 0.2,0 0.3,-0.1 0.3,-0.3 l 0,-1.4 c 0,-0.3 -0.1,-0.4 -0.3,-0.3 z"
           id="path61"
           inkscape:connector-curvature="0"
           style="fill:#0066ff" /></g></g><text
       sodipodi:linespacing="125%"
       id="text4195"
       y="-23.205046"
       x="66.987656"
       style="font-style:normal;font-variant:normal;font-weight:bold;font-stretch:normal;font-size:25px;line-height:125%;font-family:'Noto Sans';-inkscape-font-specification:'Noto Sans Bold';letter-spacing:0px;word-spacing:0px;fill:#000000;fill-opacity:1;stroke:none;stroke-width:1px;stroke-linecap:butt;stroke-linejoin:miter;stroke-opacity:1"
       xml:space="preserve"><tspan
         style="font-size:45px"
         y="-23.205046"
         x="66.987656"
         id="tspan4197"
         sodipodi:role="line">Chitin (animal and fungi)</tspan></text>
</g></svg>