<?xml version="1.0" encoding="UTF-8" standalone="no"?>
<svg
   xmlns:dc="http://purl.org/dc/elements/1.1/"
   xmlns:cc="http://creativecommons.org/ns#"
   xmlns:rdf="http://www.w3.org/1999/02/22-rdf-syntax-ns#"
   xmlns:svg="http://www.w3.org/2000/svg"
   xmlns="http://www.w3.org/2000/svg"
   id="svg2"
   viewBox="0 0 480 480"
   height="600"
   version="1.1"
   width="600">
  <metadata
     id="metadata111">
    <rdf:RDF>
      <cc:Work
         rdf:about="">
        <dc:format>image/svg+xml</dc:format>
        <dc:type
           rdf:resource="http://purl.org/dc/dcmitype/StillImage" />
        <cc:license
           rdf:resource="http://creativecommons.org/publicdomain/zero/1.0/" />
        <dc:title></dc:title>
      </cc:Work>
      <cc:License
         rdf:about="http://creativecommons.org/publicdomain/zero/1.0/">
        <cc:permits
           rdf:resource="http://creativecommons.org/ns#Reproduction" />
        <cc:permits
           rdf:resource="http://creativecommons.org/ns#Distribution" />
        <cc:permits
           rdf:resource="http://creativecommons.org/ns#DerivativeWorks" />
      </cc:License>
    </rdf:RDF>
  </metadata>
  <defs
     id="defs4">
    <clipPath
       id="Clip0">
      <path
         id="path7"
         d="M 0,0 471,0 471,234 0,234 0,0 Z" />
    </clipPath>
    <clipPath
       id="231">
      <rect
         x="0.30000001"
         y="0.30000001"
         width="539.40002"
         height="719.15002"
         id="rect3298" />
    </clipPath>
  </defs>
  <g
     transform="matrix(1.2365536,0,0,1.2365536,-23.867968,673.8611)"
     id="ObjectTag"
     style="font-size:medium;font-family:Helvetica;stroke-linecap:round">
    <g
       id="g3305">
      <g
         id="text3307"
         style="text-anchor:start;display:none">
        <path
           id="path3607"
           style="font-style:italic;font-size:7.5px;font-family:Arial;fill:#000000"
           d="m 310.59851,150.84837 c -0.3833,-0.83984 -0.57495,-1.70288 -0.57495,-2.58911 0,-0.59082 0.0775,-1.14074 0.23254,-1.64978 0.15503,-0.50903 0.39124,-1.01257 0.70862,-1.51062 0.20996,-0.33203 0.54565,-0.76171 1.00708,-1.28906 l 0.51636,0 c -0.28565,0.30518 -0.58777,0.73487 -0.90637,1.28906 -0.31861,0.5542 -0.54993,1.09864 -0.69397,1.6333 -0.14405,0.53467 -0.21607,1.07178 -0.21607,1.61133 0,0.80566 0.14038,1.64062 0.42115,2.50488 z" />
        <path
           id="path3609"
           style="font-style:italic;font-size:7.5px;font-family:Arial;fill:#000000"
           d="m 312.24646,149.27 1.12427,-5.36865 2.25219,0 c 0.44434,1e-5 0.78125,0.0372 1.01075,0.1117 0.22948,0.0745 0.40954,0.21423 0.54016,0.41931 0.13061,0.20508 0.19592,0.46387 0.19592,0.77636 0,0.43702 -0.14283,0.79957 -0.42847,1.08765 -0.28565,0.28809 -0.74707,0.47486 -1.38427,0.5603 0.19531,0.14405 0.34301,0.28565 0.44311,0.42481 0.22461,0.31494 0.40527,0.64087 0.54199,0.97778 l 0.41016,1.01074 -0.802,0 -0.38452,-0.99975 c -0.13917,-0.36133 -0.29786,-0.67383 -0.47608,-0.9375 -0.12207,-0.1831 -0.24658,-0.30334 -0.37353,-0.36072 -0.12696,-0.0574 -0.33326,-0.0861 -0.6189,-0.0861 l -0.83496,0 -0.49805,2.38403 z m 1.33667,-2.9663 0.99243,0 c 0.45898,0 0.75805,-0.006 0.89722,-0.0183 0.27099,-0.0269 0.49316,-0.0879 0.6665,-0.18311 0.17334,-0.0952 0.30761,-0.22339 0.40283,-0.38452 0.0952,-0.16113 0.14282,-0.33447 0.14283,-0.52002 -10e-6,-0.15625 -0.0354,-0.29236 -0.1062,-0.40833 -0.0708,-0.11596 -0.16358,-0.19469 -0.27832,-0.2362 -0.11476,-0.0415 -0.31007,-0.0623 -0.58594,-0.0623 l -1.75049,0 z" />
        <path
           id="path3611"
           style="font-style:italic;font-size:7.5px;font-family:Arial;fill:#000000"
           d="m 318.80164,143.8098 c 0.38574,0.83985 0.57861,1.70166 0.57861,2.58545 0,0.59326 -0.0775,1.1438 -0.23254,1.65161 -0.15504,0.50781 -0.39124,1.01196 -0.70862,1.51245 -0.21241,0.33203 -0.5481,0.76172 -1.00708,1.28906 l -0.51636,0 c 0.2832,-0.30762 0.58472,-0.73852 0.90454,-1.29272 0.31982,-0.5542 0.55115,-1.09802 0.69397,-1.63147 0.14282,-0.53345 0.21423,-1.07117 0.21423,-1.61316 0,-0.80566 -0.14038,-1.6394 -0.42114,-2.50122 z" />
      </g>
    </g>
  </g>
  <g
     transform="matrix(1.2365536,0,0,1.2365536,-23.867968,673.8611)"
     id="g3503"
     style="font-size:medium;font-family:Helvetica;stroke-linecap:round">
    <g
       id="g3505">
      <g
         id="text3507"
         style="text-anchor:start;display:none">
        <path
           id="path3652"
           style="font-style:italic;font-size:7.5px;font-family:Arial;fill:#000000"
           d="m 191.57849,117.14837 c -0.3833,-0.83985 -0.57495,-1.70288 -0.57495,-2.58911 0,-0.59082 0.0775,-1.14075 0.23254,-1.64978 0.15503,-0.50903 0.39124,-1.01257 0.70862,-1.51062 0.20996,-0.33203 0.54565,-0.76172 1.00708,-1.28907 l 0.51636,0 c -0.28565,0.30519 -0.58777,0.73487 -0.90637,1.28907 -0.31861,0.5542 -0.54993,1.09863 -0.69397,1.6333 -0.14405,0.53467 -0.21607,1.07178 -0.21607,1.61133 0,0.80566 0.14038,1.64062 0.42115,2.50488 z" />
        <path
           id="path3654"
           style="font-style:italic;font-size:7.5px;font-family:Arial;fill:#000000"
           d="m 193.05798,115.57 0.0696,-0.53833 2.68799,-3.21167 0.55664,-0.67383 c 0.1123,-0.13671 0.22095,-0.26244 0.32593,-0.3772 -0.22705,0.0269 -0.38575,0.0403 -0.47607,0.0403 l -0.17579,-0.004 -0.2124,0.004 -0.20874,0.004 -1.80542,0 0.12818,-0.61157 3.70239,0 -0.0623,0.5603 -2.88208,3.42407 c -0.354,0.42237 -0.57861,0.68726 -0.67383,0.79468 0.10743,-0.0147 0.17701,-0.022 0.20874,-0.022 l 2.92603,0 -0.12817,0.61157 z" />
        <path
           id="path3656"
           style="font-style:italic;font-size:7.5px;font-family:Arial;fill:#000000"
           d="m 198.94666,110.10979 c 0.38574,0.83985 0.57861,1.70167 0.57861,2.58545 0,0.59327 -0.0775,1.1438 -0.23255,1.65162 -0.15503,0.50781 -0.39123,1.01196 -0.70861,1.51245 -0.21241,0.33203 -0.5481,0.76171 -1.00708,1.28906 l -0.51636,0 c 0.2832,-0.30762 0.58472,-0.73853 0.90454,-1.29273 0.31982,-0.55419 0.55115,-1.09802 0.69397,-1.63147 0.14282,-0.53344 0.21423,-1.07116 0.21423,-1.61315 0,-0.80566 -0.14038,-1.6394 -0.42114,-2.50123 z" />
      </g>
    </g>
  </g>
  <g
     transform="matrix(1.2365536,0,0,1.2365536,-23.867968,673.8611)"
     id="g3519"
     style="font-size:medium;font-family:Helvetica;stroke-linecap:round" />
  <flowRoot
     transform="translate(0,360)"
     style="font-style:normal;font-variant:normal;font-weight:bold;font-stretch:normal;font-size:20px;line-height:125%;font-family:'noto sans';-inkscape-font-specification:'noto sans Bold';letter-spacing:0px;word-spacing:0px;fill:#000000;fill-opacity:1;stroke:none;stroke-width:1px;stroke-linecap:butt;stroke-linejoin:miter;stroke-opacity:1"
     id="flowRoot7506"
     xml:space="preserve"><flowRegion
       id="flowRegion7508"><rect
         style="font-style:normal;font-variant:normal;font-weight:bold;font-stretch:normal;font-family:'noto sans';-inkscape-font-specification:'noto sans Bold'"
         y="56.63253"
         x="276.16867"
         height="37.831326"
         width="78.5"
         id="rect7510" /></flowRegion><flowPara
       id="flowPara7512" /></flowRoot>  <g
     transform="translate(0,-163.78314)"
     id="g8302">
    <rect
       style="fill:#ffffff;fill-opacity:1;stroke:none;stroke-width:3.99440002;stroke-miterlimit:4;stroke-dasharray:3.9944, 7.9888;stroke-dashoffset:0;stroke-opacity:1"
       id="rect7844"
       width="476.67471"
       height="474.78314"
       x="1.8915663"
       y="169" />
    <g
       id="Background"
       transform="matrix(0.69844224,0,0,0.69844224,2.3943501,171.98204)">
      <g
         id="Group1"
         clip-path="url(#Clip0)">
        <path
           style="fill:#000000;fill-rule:evenodd;stroke:none"
           d="M 14.731,5.711 C 14.036,1.875 11.828,0 7.989,0 5.637,0 3.743,0.746 2.446,2.184 0.864,3.914 0,6.411 0,9.239 c 0,2.879 0.887,5.351 2.52,7.054 1.367,1.391 3.094,2.039 5.375,2.039 4.269,0 6.668,-2.3 7.195,-6.933 l -2.301,0 c -0.191,1.199 -0.433,2.015 -0.793,2.711 -0.718,1.441 -2.207,2.258 -4.078,2.258 -3.48,0 -5.687,-2.786 -5.687,-7.153 0,-4.484 2.086,-7.246 5.496,-7.246 1.414,0 2.734,0.41 3.453,1.106 0.648,0.597 1.008,1.32 1.273,2.636 l 2.278,0 z"
           transform="translate(132.152,103.068)"
           id="path11" />
        <path
           style="fill:#000000;fill-rule:evenodd;stroke:none"
           d="m 11.227,9.528 0,7.965 2.234,0 0,-17.493 -2.234,0 0,7.559 -8.996,0 L 2.231,0 0,0 l 0,17.493 2.254,0 0,-7.965 8.973,0 z"
           transform="translate(150.319,103.357)"
           id="path13" />
        <path
           style="fill:#000000;fill-rule:evenodd;stroke:none"
           d="m 3.407,6.926 0.199,0 0.668,-0.019 c 1.75,0 2.648,0.793 2.648,2.328 0,1.601 -0.988,2.558 -2.648,2.558 -1.731,0 -2.578,-0.867 -2.688,-2.722 L 0,9.071 c 0.071,1.027 0.25,1.695 0.559,2.273 0.648,1.227 1.91,1.856 3.66,1.856 2.633,0 4.328,-1.567 4.328,-3.985 C 8.547,7.59 7.914,6.692 6.383,6.168 7.575,5.68 8.168,4.797 8.168,3.516 8.168,1.317 6.707,0 4.274,0 1.696,0 0.325,1.407 0.27,4.129 l 1.586,0 C 1.875,3.356 1.946,2.922 2.145,2.524 2.504,1.821 3.301,1.387 4.289,1.387 c 1.411,0 2.258,0.813 2.258,2.184 0,0.902 -0.328,1.441 -1.031,1.73 -0.43,0.18 -0.992,0.254 -2.109,0.27 l 0,1.355 z"
           transform="translate(166.232,112.564)"
           id="path15" />
        <path
           style="fill:#000000;fill-rule:evenodd;stroke:none"
           d="m 11.2265,9.527 0,7.965 2.2344,0 0,-17.492 -2.2344,0 0,7.559 -8.99603,0 0,-7.559 L 0,0 l 0,17.492 2.25391,0 0,-7.965 8.97259,0 z"
           transform="translate(4.44238,213.958)"
           id="path17" />
        <path
           style="fill:#000000;fill-rule:evenodd;stroke:none"
           d="M 8.4219,0 C 3.4102,0 0,3.695 0,9.168 c 0,5.492 3.3828,9.164 8.4492,9.164 2.1328,0 4.0039,-0.648 5.4219,-1.848 1.8945,-1.605 3.0234,-4.316 3.0234,-7.172 C 16.8945,3.672 13.5586,0 8.4219,0 Z m 0,1.969 c 3.7929,0 6.2383,2.855 6.2383,7.293 0,4.226 -2.5196,7.105 -6.211,7.105 -3.7461,0 -6.2148,-2.879 -6.2148,-7.199 0,-4.32 2.4687,-7.199 6.1875,-7.199 z"
           transform="translate(20.6875,213.669)"
           id="path19" />
        <path
           style="fill:#000000;fill-rule:nonzero;stroke:none"
           d="m 0,0 1.7002,0.95 0,43.3 -0.8496,0.5 L 0,44.25 0,0 Z"
           transform="translate(65.0498,155.85)"
           id="path21" />
        <path
           style="fill:#000000;fill-rule:nonzero;stroke:none"
           d="m 37.7002,0 0,1.95 -36,21.6 L 0,22.6 37.7002,0 Z"
           transform="translate(65.0498,133.25)"
           id="path23" />
        <path
           style="fill:#000000;fill-rule:nonzero;stroke:none"
           d="m 36.8496,21.6 0,2 L 0,1.5 0,0.5 0.8496,0 l 36,21.6 z"
           transform="translate(65.9004,200.1)"
           id="path25" />
        <path
           style="fill:#000000;fill-rule:nonzero;stroke:none"
           d="m 36.05,0 0.85,0.5 0,1 L 0,23.6 0,21.6 36.05,0 Z"
           transform="translate(102.75,200.1)"
           id="path27" />
        <path
           style="fill:#000000;fill-rule:nonzero;stroke:none"
           d="m 36.85,21.6 0,2 L 0,1.5 0,0.5 0.85,0 l 36,21.6 z"
           transform="translate(139.65,200.1)"
           id="path29" />
        <path
           style="fill:#000000;fill-rule:nonzero;stroke:none"
           d="M 31.8,18.55 30.95,20 0,1.45 0.9,0 31.8,18.55 Z"
           transform="translate(145.15,196.5)"
           id="path31" />
        <path
           style="fill:#000000;fill-rule:nonzero;stroke:none"
           d="M 36.05,0 37.75,0.95 0,23.6 0,21.6 36.05,0 Z"
           transform="translate(176.5,200.1)"
           id="path33" />
        <path
           style="fill:#000000;fill-rule:nonzero;stroke:none"
           d="M 0,0.45 0.85,0 1.7,0.45 1.7,44.7 0,43.75 0,0.45 Z"
           transform="translate(212.55,156.35)"
           id="path35" />
        <path
           style="fill:#000000;fill-rule:nonzero;stroke:none"
           d="M 36,0 36.85,0.5 37.1,1.35 0.85,23.1 0,22.65 0,21.65 36,0 Z"
           transform="translate(213.4,133.7)"
           id="path37" />
        <path
           style="fill:#000000;fill-rule:nonzero;stroke:none"
           d="M 88.45,0 90.15,1.7 0.25,2.05 0,1.2 0.85,0.3 88.45,0 Z"
           transform="translate(250.25,133)"
           id="path39" />
        <path
           style="fill:#000000;fill-rule:nonzero;stroke:none"
           d="M 0,1.1504 1.7,0 1.7,43.45 0,41.75 0,1.1504 Z"
           transform="translate(338.7,91.25)"
           id="path41" />
        <path
           style="fill:#000000;fill-rule:nonzero;stroke:none"
           d="M 0,1.5 0,0.5498 0.85,0 46.25,17.7002 44.55,18.8506 0,1.5 Z"
           transform="translate(294.15,73.5498)"
           id="path43" />
        <path
           style="fill:#000000;fill-rule:nonzero;stroke:none"
           d="M 0.85,17.0498 0,16.4502 0.85,15.2002 43.05,0 l 0.85,0.5996 0,0.9502 -43.05,15.5 z"
           transform="translate(250.25,73.5)"
           id="path45" />
        <path
           style="fill:#000000;fill-rule:nonzero;stroke:none"
           d="M 0,0.4502 0.85,0 1.7,0.5996 l 0,42.7502 -0.85,0.9 L 0,43.7498 0,0.4502 Z"
           transform="translate(249.4,89.9502)"
           id="path47" />
        <path
           style="fill:#000000;fill-rule:nonzero;stroke:none"
           d="m 0,2 0,-2 36,21.6006 0.85,1.5 L 36,23.5508 0,2 Z"
           transform="translate(213.4,66.8496)"
           id="path49" />
        <path
           style="fill:#000000;fill-rule:nonzero;stroke:none"
           d="M 1.7,23.6006 0,22.6504 37.75,0 37.75,2 1.7,23.6006 Z"
           transform="translate(175.65,66.8496)"
           id="path51" />
        <path
           style="fill:#000000;fill-rule:nonzero;stroke:none"
           d="M 1.7,44.25 0.85,44.7 0,44.25 0,0 1.7,0.9502 1.7,44.25 Z"
           transform="translate(175.65,89.5)"
           id="path53" />
        <path
           style="fill:#000000;fill-rule:nonzero;stroke:none"
           d="M 0,1.45 0,0.45 0.85,0 36.9,21.6 l 0,1 -0.85,0.45 L 0,1.45 Z"
           transform="translate(176.5,133.75)"
           id="path55" />
        <path
           style="fill:#000000;fill-rule:nonzero;stroke:none"
           d="M 0.85,23.05 0,22.6 0.85,21.1 36,0 l 0.85,0.45 0,1 -36,21.6 z"
           transform="translate(139.65,133.75)"
           id="path57" />
        <path
           style="fill:#000000;fill-rule:nonzero;stroke:none"
           d="M 36.05,21.6 36.9,23.1 36.05,23.55 0,1.95 0,0 36.05,21.6 Z"
           transform="translate(102.75,133.25)"
           id="path59" />
        <path
           style="fill:#000000;fill-rule:nonzero;stroke:none"
           d="M 0,0.45 0.85,0 1.7,0.45 1.7,43.75 0.85,44.25 0,43.75 0,0.45 Z"
           transform="translate(138.8,156.35)"
           id="path61" />
        <path
           style="fill:#000000;fill-rule:nonzero;stroke:none"
           d="M 0,0 1.7,0 1.7,31.5 0.85,33 0,31.5 0,0 Z"
           transform="translate(138.8,123.35)"
           id="path63" />
        <path
           style="fill:#000000;fill-rule:nonzero;stroke:none"
           d="M 0.8496,17.75 0,16.3 27.1494,0 28,0.5 28,1.5 0.8496,17.75 Z"
           transform="translate(37.9004,200.1)"
           id="path65" />
        <path
           style="fill:#000000;fill-rule:evenodd;stroke:none"
           d="M 14.73,5.7109 C 14.035,1.875 11.828,0 7.988,0 5.636,0 3.742,0.746 2.445,2.1835 0.863,3.914 0,6.4101 0,9.2382 c 0,2.8789 0.886,5.3516 2.519,7.0547 1.367,1.3906 3.094,2.0391 5.375,2.0391 4.27,0 6.668,-2.3008 7.196,-6.9336 l -2.301,0 c -0.192,1.1992 -0.434,2.0156 -0.793,2.7109 -0.719,1.4414 -2.207,2.2578 -4.078,2.2578 -3.481,0 -5.688,-2.7851 -5.688,-7.1523 0,-4.4844 2.086,-7.2461 5.496,-7.2461 1.414,0 2.735,0.4102 3.453,1.1055 0.649,0.5976 1.008,1.3203 1.274,2.6367 l 2.277,0 z"
           transform="translate(242.803,41.2188)"
           id="path67" />
        <path
           style="fill:#000000;fill-rule:evenodd;stroke:none"
           d="m 11.226,9.5274 0,7.9648 2.235,0 0,-17.4922 -2.235,0 0,7.5586 -8.996,0 L 2.23,0 0,0 l 0,17.4922 2.254,0 0,-7.9648 8.972,0 z"
           transform="translate(260.97,41.5078)"
           id="path69" />
        <path
           style="fill:#000000;fill-rule:evenodd;stroke:none"
           d="m 3.406,6.9258 0.199,0 0.668,-0.0195 c 1.75,0 2.649,0.793 2.649,2.3281 0,1.6016 -0.989,2.5586 -2.649,2.5586 -1.73,0 -2.578,-0.8672 -2.687,-2.7226 l -1.586,0 c 0.07,1.0273 0.25,1.6953 0.558,2.2734 0.649,1.2266 1.911,1.8555 3.661,1.8555 2.632,0 4.328,-1.5664 4.328,-3.9844 C 8.547,7.5899 7.914,6.6915 6.383,6.168 7.574,5.6797 8.168,4.7969 8.168,3.5157 8.168,1.3165 6.707,0 4.273,0 1.695,0 0.324,1.4063 0.269,4.129 l 1.586,0 C 1.875,3.3555 1.945,2.9219 2.144,2.5235 2.504,1.8204 3.301,1.3868 4.289,1.3868 c 1.41,0 2.258,0.8125 2.258,2.1836 0,0.9023 -0.328,1.4414 -1.032,1.7304 C 5.086,5.4805 4.523,5.5547 3.406,5.5704 l 0,1.3554 z"
           transform="translate(276.883,50.7148)"
           id="path71" />
        <path
           style="fill:#000000;fill-rule:nonzero;stroke:none"
           d="m 0,0 1.7,0 0,27.2002 -0.85,1.25 L 0,26.9502 0,0 Z"
           transform="translate(249.4,61.5)"
           id="path73" />
        <path
           style="fill:#000000;fill-rule:nonzero;stroke:none"
           d="M 0.5,0.4502 1.4,0 2.2,0.5 1.7,39.0498 0.85,39.5996 0,39 0.5,0.4502 Z"
           transform="translate(293.3,34.5)"
           id="path75" />
        <path
           style="fill:#000000;fill-rule:nonzero;stroke:none"
           d="M 34.6,0 34.55,2 0.8,20.9004 l -0.8,-0.5 0,-1 L 34.6,0 Z"
           transform="translate(294.7,14.0996)"
           id="path77" />
        <path
           style="fill:#000000;fill-rule:evenodd;stroke:none"
           d="m 11.227,9.52739 0,7.96481 2.234,0 0,-17.4922 -2.234,0 0,7.55859 -8.997,0 L 2.23,0 0,0 l 0,17.4922 2.254,0 0,-7.96481 8.973,0 z"
           transform="translate(226.667,5.45801)"
           id="path79" />
        <path
           style="fill:#000000;fill-rule:evenodd;stroke:none"
           d="m 3.406,6.9258 0.2,0 0.668,-0.0195 c 1.75,0 2.648,0.793 2.648,2.3281 0,1.6016 -0.988,2.5586 -2.648,2.5586 -1.731,0 -2.579,-0.8672 -2.688,-2.7226 l -1.586,0 c 0.07,1.0273 0.25,1.6953 0.559,2.2734 0.648,1.2266 1.91,1.8555 3.66,1.8555 2.633,0 4.328,-1.5664 4.328,-3.9844 C 8.547,7.5899 7.914,6.6914 6.383,6.168 7.574,5.6797 8.168,4.7969 8.168,3.5157 8.168,1.3164 6.707,0 4.274,0 1.695,0 0.324,1.4063 0.27,4.1289 l 1.586,0 C 1.875,3.3555 1.945,2.9219 2.145,2.5235 2.504,1.8204 3.301,1.3868 4.289,1.3868 c 1.41,0 2.258,0.8125 2.258,2.1836 0,0.9023 -0.328,1.4414 -1.031,1.7304 -0.43,0.1797 -0.992,0.2539 -2.11,0.2696 l 0,1.3554 z"
           transform="translate(242.58,14.665)"
           id="path81" />
        <path
           style="fill:#000000;fill-rule:evenodd;stroke:none"
           d="M 14.731,5.71095 C 14.035,1.875 11.828,0 7.988,0 5.637,0 3.742,0.74609 2.445,2.18359 0.863,3.91406 0,6.41015 0,9.23825 0,12.1172 0.887,14.5899 2.52,16.293 c 1.367,1.3906 3.093,2.0391 5.375,2.0391 4.269,0 6.668,-2.3009 7.195,-6.9336 l -2.301,0 c -0.191,1.1991 -0.433,2.0155 -0.793,2.7109 -0.719,1.4414 -2.207,2.2578 -4.078,2.2578 -3.48,0 -5.687,-2.7851 -5.687,-7.15235 0,-4.48439 2.086,-7.2461 5.496,-7.2461 1.414,0 2.734,0.41015 3.453,1.10546 0.648,0.59766 1.008,1.32032 1.273,2.63674 l 2.278,0 z"
           transform="translate(253.162,5.16895)"
           id="path83" />
        <path
           style="fill:#000000;fill-rule:nonzero;stroke:none"
           d="M 0,1.4502 0.85,0 25.1,14.4004 l 0,1 -0.9,0.4502 L 0,1.4502 Z"
           transform="translate(269.6,19.0996)"
           id="path85" />
        <path
           style="fill:#000000;fill-rule:nonzero;stroke:none"
           d="m 35.25,20.3506 -1.7,1 L 0,2 0.05,0 35.25,20.3506 Z"
           transform="translate(329.25,14.0996)"
           id="path87" />
        <path
           style="fill:#000000;fill-rule:nonzero;stroke:none"
           d="m 1.7,39.6494 -1.7,1 L 0,1 1.7,0 l 0,39.6494 z"
           transform="translate(362.8,34.4502)"
           id="path89" />
        <path
           style="fill:#000000;fill-rule:nonzero;stroke:none"
           d="m 35.2,19.3506 0,1 -0.85,0.5 L 0,1 1.7,0 35.2,19.3506 Z"
           transform="translate(362.8,74.0996)"
           id="path91" />
        <path
           style="fill:#000000;fill-rule:evenodd;stroke:none"
           d="M 14.73,5.7109 C 14.035,1.875 11.828,0 7.988,0 5.636,0 3.742,0.7461 2.445,2.1836 0.863,3.914 0,6.4101 0,9.2382 c 0,2.8789 0.886,5.3516 2.519,7.0547 1.367,1.3907 3.094,2.0391 5.375,2.0391 4.27,0 6.668,-2.3008 7.195,-6.9336 l -2.3,0 c -0.192,1.1992 -0.434,2.0156 -0.793,2.7109 -0.719,1.4414 -2.207,2.2578 -4.078,2.2578 -3.481,0 -5.688,-2.7851 -5.688,-7.1523 0,-4.4844 2.086,-7.2461 5.496,-7.2461 1.414,0 2.734,0.4102 3.453,1.1055 0.649,0.5976 1.008,1.3203 1.274,2.6367 l 2.277,0 z"
           transform="translate(424.853,65.5684)"
           id="path93" />
        <path
           style="fill:#000000;fill-rule:evenodd;stroke:none"
           d="m 11.226,9.5274 0,7.9648 2.234,0 0,-17.4922 -2.234,0 0,7.5586 -8.996,0 L 2.23,0 0,0 l 0,17.4922 2.253,0 0,-7.9648 8.973,0 z"
           transform="translate(443.02,65.8574)"
           id="path95" />
        <path
           style="fill:#000000;fill-rule:evenodd;stroke:none"
           d="m 3.406,6.9257 0.199,0 0.668,-0.0195 c 1.75,0 2.648,0.793 2.648,2.3281 0,1.6016 -0.988,2.5586 -2.648,2.5586 -1.73,0 -2.578,-0.8672 -2.687,-2.7226 l -1.586,0 c 0.07,1.0273 0.25,1.6953 0.558,2.2734 0.649,1.2266 1.91,1.8555 3.66,1.8555 2.633,0 4.328,-1.5664 4.328,-3.9844 C 8.546,7.5898 7.914,6.6914 6.382,6.1679 7.574,5.6796 8.168,4.7968 8.168,3.5156 8.168,1.3164 6.707,0 4.273,0 1.695,0 0.324,1.4062 0.269,4.1289 l 1.586,0 C 1.875,3.3554 1.945,2.9218 2.144,2.5234 2.504,1.8203 3.3,1.3867 4.289,1.3867 c 1.41,0 2.257,0.8125 2.257,2.1836 0,0.9023 -0.328,1.4414 -1.031,1.7304 C 5.086,5.4804 4.523,5.5546 3.406,5.5703 l 0,1.3554 z"
           transform="translate(458.933,75.0645)"
           id="path97" />
        <path
           style="fill:#000000;fill-rule:nonzero;stroke:none"
           d="m 25,0 0.85,1.4502 -25,14.4502 -0.85,-0.5 0,-1 L 25,0 Z"
           transform="translate(398,79.0498)"
           id="path99" />
        <path
           style="fill:#000000;fill-rule:evenodd;stroke:none"
           d="M 14.73,5.711 C 14.035,1.875 11.828,0 7.988,0 5.636,0 3.742,0.746 2.445,2.184 0.863,3.914 0,6.411 0,9.239 c 0,2.879 0.886,5.351 2.519,7.054 1.367,1.391 3.094,2.039 5.375,2.039 4.27,0 6.668,-2.3 7.196,-6.933 l -2.301,0 c -0.192,1.199 -0.434,2.015 -0.793,2.711 -0.719,1.441 -2.207,2.258 -4.078,2.258 -3.481,0 -5.688,-2.786 -5.688,-7.153 0,-4.484 2.086,-7.246 5.496,-7.246 1.414,0 2.735,0.41 3.453,1.106 0.649,0.597 1.008,1.32 1.274,2.636 l 2.277,0 z"
           transform="translate(390.553,125.068)"
           id="path101" />
        <path
           style="fill:#000000;fill-rule:evenodd;stroke:none"
           d="m 11.226,9.528 0,7.965 2.235,0 0,-17.493 -2.235,0 0,7.559 -8.996,0 L 2.23,0 0,0 l 0,17.493 2.254,0 0,-7.965 8.972,0 z"
           transform="translate(408.72,125.357)"
           id="path103" />
        <path
           style="fill:#000000;fill-rule:evenodd;stroke:none"
           d="m 3.406,6.926 0.199,0 0.668,-0.019 c 1.75,0 2.649,0.793 2.649,2.328 0,1.601 -0.989,2.558 -2.649,2.558 -1.73,0 -2.578,-0.867 -2.687,-2.722 L 0,9.071 c 0.07,1.027 0.25,1.695 0.558,2.273 0.649,1.227 1.911,1.856 3.661,1.856 2.632,0 4.328,-1.567 4.328,-3.985 C 8.547,7.59 7.914,6.692 6.383,6.168 7.574,5.68 8.168,4.797 8.168,3.516 8.168,1.317 6.707,0 4.273,0 1.695,0 0.324,1.407 0.269,4.129 l 1.586,0 C 1.875,3.356 1.945,2.922 2.144,2.524 2.504,1.821 3.301,1.387 4.289,1.387 c 1.41,0 2.258,0.813 2.258,2.184 0,0.902 -0.328,1.441 -1.032,1.73 -0.429,0.18 -0.992,0.254 -2.109,0.27 l 0,1.355 z"
           transform="translate(424.633,134.564)"
           id="path105" />
        <path
           style="fill:#000000;fill-rule:nonzero;stroke:none"
           d="m 1.7,28.5998 -1.7,0 L 0,0.5 0.85,0 1.7,0.5 l 0,28.0998 z"
           transform="translate(397.15,94.4502)"
           id="path107" />
      </g>
    </g>
    <text
       xml:space="preserve"
       style="font-style:normal;font-weight:normal;font-size:13.96884441px;line-height:125%;font-family:sans-serif;letter-spacing:0px;word-spacing:0px;fill:#000000;fill-opacity:1;stroke:none;stroke-width:1px;stroke-linecap:butt;stroke-linejoin:miter;stroke-opacity:1"
       x="249.05574"
       y="303.1395"
       id="text7514"><tspan
         id="tspan7516"
         x="249.05574"
         y="303.1395"
         style="font-style:normal;font-variant:normal;font-weight:bold;font-stretch:normal;font-family:'Noto Sans';-inkscape-font-specification:'Noto Sans Bold'">Cholesterol</tspan></text>
    <g
       id="g7530"
       transform="matrix(0.69844224,0,0,0.69844224,155.61122,150.66224)">
      <g
         transform="matrix(0.23751016,0,0,0.23751016,19.022813,265.90827)"
         id="g6369">
        <polygon
           points="126.5,181.9 126.5,172.9 251,244.9 251,253.9 126.5,181.9 "
           id="polygon6371" />
        <polygon
           points="251,253.9 251,244.9 376,172.9 376,181.9 251,253.9 "
           id="polygon6373" />
        <polygon
           points="376,181.9 376,172.9 500.5,244.9 500.5,253.9 376,181.9 "
           id="polygon6375" />
        <polygon
           points="500.5,253.9 500.5,244.9 625.5,172.9 625.5,181.9 500.5,253.9 "
           id="polygon6377" />
        <polygon
           points="625.5,181.9 625.5,172.9 750,244.9 750,253.9 625.5,181.9 "
           id="polygon6379" />
        <polygon
           points="750,253.9 750,244.9 874.5,172.9 874.5,181.9 750,253.9 "
           id="polygon6381" />
        <polygon
           points="874.5,181.9 874.5,172.9 999.5,244.9 999.5,253.9 874.5,181.9 "
           id="polygon6383" />
        <polygon
           points="999.5,253.9 999.5,244.9 1124,172.9 1124,181.9 999.5,253.9 "
           id="polygon6385" />
        <polygon
           points="1124,181.9 1124,172.9 1249,244.9 1249,253.9 1124,181.9 "
           id="polygon6387" />
        <polygon
           points="1249,253.9 1249,244.9 1373.5,172.9 1373.5,181.9 1249,253.9 "
           id="polygon6389" />
        <polygon
           points="1373.5,181.9 1373.5,172.9 1498.5,244.9 1498.5,253.9 1373.5,181.9 "
           id="polygon6391" />
        <polygon
           points="1498.5,253.9 1498.5,244.9 1623,172.9 1623,181.9 1498.5,253.9 "
           id="polygon6393" />
        <polygon
           points="1623,181.9 1623,172.9 1707,221.4 1703,227.9 1623,181.9 "
           id="polygon6395" />
        <polygon
           points="126.5,181.9 4,252.4 4,252.4 2,249.4 0,245.9 126.5,172.9 "
           id="polygon6397" />
        <rect
           width="8"
           height="95.5"
           x="1606"
           y="89.400002"
           id="rect6399" />
        <rect
           width="8"
           height="95.5"
           x="1632"
           y="89.400002"
           id="rect6401" />
        <path
           d="m 1714.4,253.5 c 0,-11.9 3.2,-21.2 9.6,-27.9 6.4,-6.7 14.6,-10.1 24.7,-10.1 6.6,0 12.5,1.6 17.8,4.7 5.3,3.2 9.3,7.6 12.1,13.2 2.8,5.7 4.2,12.1 4.2,19.2 0,7.3 -1.5,13.8 -4.4,19.5 -2.9,5.7 -7.1,10.1 -12.4,13 -5.4,2.9 -11.2,4.4 -17.4,4.4 -6.7,0 -12.7,-1.6 -18,-4.9 -5.3,-3.3 -9.3,-7.7 -12,-13.3 -2.9,-5.5 -4.2,-11.5 -4.2,-17.8 z m 9.7,0.1 c 0,8.6 2.3,15.4 7,20.4 4.6,5 10.4,7.5 17.4,7.5 7.1,0 13,-2.5 17.6,-7.5 4.6,-5 6.9,-12.1 6.9,-21.4 0,-5.8 -1,-10.9 -3,-15.3 -2,-4.3 -4.8,-7.7 -8.6,-10.1 -3.8,-2.4 -8,-3.6 -12.8,-3.6 -6.7,0 -12.5,2.3 -17.3,6.9 -4.8,4.6 -7.2,12.3 -7.2,23.1 z"
           id="path6403" />
        <path
           d="m 1795.3,288.4 0,-71.6 9.5,0 0,29.4 37.3,0 0,-29.4 9.5,0 0,71.6 -9.5,0 0,-33.8 -37.3,0 0,33.8 -9.5,0 z"
           id="path6405" />
        <path
           d="m 1589.4,38 c 0,-11.9 3.2,-21.2 9.6,-27.9 6.4,-6.7 14.6,-10.1 24.7,-10.1 6.6,0 12.5,1.6 17.8,4.7 5.3,3.2 9.3,7.6 12.1,13.2 2.8,5.7 4.2,12.1 4.2,19.2 0,7.3 -1.5,13.8 -4.4,19.5 -2.9,5.7 -7.1,10.1 -12.4,13 -5.4,2.9 -11.2,4.4 -17.4,4.4 -6.7,0 -12.7,-1.6 -18,-4.9 -5.3,-3.3 -9.3,-7.7 -12,-13.3 -2.9,-5.5 -4.2,-11.5 -4.2,-17.8 z m 9.7,0.1 c 0,8.6 2.3,15.4 7,20.4 4.6,5 10.4,7.5 17.4,7.5 7.1,0 13,-2.5 17.6,-7.5 4.6,-5 6.9,-12.1 6.9,-21.4 0,-5.8 -1,-10.9 -3,-15.3 -2,-4.3 -4.8,-7.7 -8.6,-10.1 -3.8,-2.4 -8,-3.6 -12.8,-3.6 -6.7,0 -12.5,2.3 -17.3,6.9 -4.8,4.6 -7.2,12.4 -7.2,23.1 z"
           id="path6407" />
      </g>
      <text
         xml:space="preserve"
         style="font-style:normal;font-weight:normal;font-size:20px;line-height:125%;font-family:sans-serif;letter-spacing:0px;word-spacing:0px;fill:#000000;fill-opacity:1;stroke:none;stroke-width:1px;stroke-linecap:butt;stroke-linejoin:miter;stroke-opacity:1"
         x="151.3253"
         y="300.2048"
         id="text7518"><tspan
           id="tspan7520"
           x="151.3253"
           y="300.2048"
           style="font-style:normal;font-variant:normal;font-weight:bold;font-stretch:normal;font-family:'Noto Sans';-inkscape-font-specification:'Noto Sans Bold'">Free Fatty Acid</tspan></text>
    </g>
    <g
       id="g7554"
       transform="matrix(0.69844224,0,0,0.69844224,78.057001,158.74107)">
      <g
         transform="matrix(0.82910113,0,0,0.82910113,-81.590148,329.17373)"
         id="g6725"
         style="color-interpolation:auto;stroke:#000000;stroke-linecap:square;stroke-miterlimit:10">
        <g
           style="color-interpolation:linearRGB;color-rendering:optimizeQuality;image-rendering:optimizeQuality;text-rendering:geometricPrecision"
           transform="matrix(1.7489,0,0,1.7489,0.31819,-0.22921)"
           id="g6437">
          <g
             style="stroke-width:1.20000005;stroke-linecap:butt"
             transform="translate(-78,-114)"
             id="g6439">
            <path
               style="fill:none"
               d="m 102.64,154 13.25,0"
               id="path6441" />
            <path
               style="fill:none"
               d="m 97,160.37 0,22.12"
               id="path6443" />
            <path
               style="fill:none"
               d="m 127.45,150.86 16.2,-9.36"
               id="path6445" />
            <path
               style="fill:none"
               d="m 102.64,189 13.25,0"
               id="path6447" />
            <path
               style="fill:none"
               d="m 97,195.37 0,22.12"
               id="path6449" />
            <path
               style="fill:none"
               d="M 143.65,141.5 165.3,154"
               id="path6451" />
            <path
               style="fill:none"
               d="m 127.45,185.86 16.2,-9.36"
               id="path6453" />
            <path
               style="fill:none"
               d="m 102.64,224 13.25,0"
               id="path6455" />
            <path
               style="fill:none"
               d="m 165.3,154 21.65,-12.5"
               id="path6457" />
            <path
               style="fill:none"
               d="m 146.15,177.94 0,-15.06"
               id="path6459" />
            <path
               style="fill:none"
               d="m 141.15,177.94 0,-15.06"
               id="path6461" />
            <path
               style="fill:none"
               d="M 143.65,176.5 165.3,189"
               id="path6463" />
            <path
               style="fill:none"
               d="m 127.45,220.86 16.2,-9.36"
               id="path6465" />
            <path
               style="fill:none"
               d="M 186.95,141.5 208.6,154"
               id="path6467" />
            <path
               style="fill:none"
               d="m 165.3,189 21.65,-12.5"
               id="path6469" />
            <path
               style="fill:none"
               d="m 146.15,212.94 0,-15.06"
               id="path6471" />
            <path
               style="fill:none"
               d="m 141.15,212.94 0,-15.06"
               id="path6473" />
            <path
               style="fill:none"
               d="M 143.65,211.5 165.3,224"
               id="path6475" />
            <path
               style="fill:none"
               d="m 208.6,154 21.65,-12.5"
               id="path6477" />
            <path
               style="fill:none"
               d="M 186.95,176.5 208.6,189"
               id="path6479" />
            <path
               style="fill:none"
               d="m 165.3,224 21.65,-12.5"
               id="path6481" />
            <path
               style="fill:none"
               d="M 230.25,141.5 251.9,154"
               id="path6483" />
            <path
               style="fill:none"
               d="m 208.6,189 21.65,-12.5"
               id="path6485" />
            <path
               style="fill:none"
               d="M 186.95,211.5 208.6,224"
               id="path6487" />
            <path
               style="fill:none"
               d="m 251.9,154 21.65,-12.5"
               id="path6489" />
            <path
               style="fill:none"
               d="M 230.25,176.5 251.9,189"
               id="path6491" />
            <path
               style="fill:none"
               d="m 208.6,224 21.65,-12.5"
               id="path6493" />
            <path
               style="fill:none"
               d="M 273.55,141.5 295.21,154"
               id="path6495" />
            <path
               style="fill:none"
               d="m 251.9,189 21.65,-12.5"
               id="path6497" />
            <path
               style="fill:none"
               d="M 230.25,211.5 251.9,224"
               id="path6499" />
            <path
               style="fill:none"
               d="m 295.21,154 21.65,-12.5"
               id="path6501" />
            <path
               style="fill:none"
               d="M 273.55,176.5 295.21,189"
               id="path6503" />
            <path
               style="fill:none"
               d="m 251.9,224 21.65,-12.5"
               id="path6505" />
            <path
               style="fill:none"
               d="M 316.86,141.5 338.51,154"
               id="path6507" />
            <path
               style="fill:none"
               d="m 295.21,189 21.65,-12.5"
               id="path6509" />
            <path
               style="fill:none"
               d="M 273.55,211.5 295.21,224"
               id="path6511" />
            <path
               style="fill:none"
               d="m 338.51,154 21.65,-12.5"
               id="path6513" />
            <path
               style="fill:none"
               d="m 295.21,224 21.65,-12.5"
               id="path6515" />
            <path
               style="fill:none"
               d="M 360.16,141.5 381.81,154"
               id="path6517" />
            <path
               style="fill:none"
               d="m 381.81,154 21.65,-12.5"
               id="path6519" />
            <path
               style="fill:none"
               d="M 403.46,141.5 425.11,154"
               id="path6521" />
            <path
               style="fill:none"
               d="m 425.11,154 21.65,-12.5"
               id="path6523" />
            <path
               style="fill:none"
               d="M 446.76,141.5 468.41,154"
               id="path6525" />
            <path
               style="fill:none"
               d="m 146.15,142.94 0,-15.06"
               id="path6527" />
            <path
               style="fill:none"
               d="m 141.15,142.94 0,-15.06"
               id="path6529" />
            <path
               style="fill:none"
               d="m 316.86,211.5 25,0"
               id="path6531" />
            <path
               style="fill:none"
               d="m 319.74,216.5 19.23,0"
               id="path6533" />
            <path
               style="fill:none"
               d="m 316.86,176.5 25,0"
               id="path6535" />
            <path
               style="fill:none"
               d="m 319.74,181.5 19.23,0"
               id="path6537" />
            <path
               style="fill:none"
               d="M 341.86,176.5 363.51,189"
               id="path6539" />
            <path
               style="fill:none"
               d="m 363.51,189 21.65,-12.5"
               id="path6541" />
            <path
               style="fill:none"
               d="M 385.16,176.5 406.81,189"
               id="path6543" />
            <path
               style="fill:none"
               d="m 406.81,189 21.65,-12.5"
               id="path6545" />
            <path
               style="fill:none"
               d="M 428.46,176.5 450.11,189"
               id="path6547" />
            <path
               style="fill:none"
               d="m 450.11,189 21.65,-12.5"
               id="path6549" />
            <path
               style="fill:none"
               d="M 471.76,176.5 493.41,189"
               id="path6551" />
            <path
               style="fill:none"
               d="m 493.41,189 21.65,-12.5"
               id="path6553" />
            <path
               style="fill:none"
               d="M 341.86,211.5 363.51,224"
               id="path6555" />
            <path
               style="fill:none"
               d="m 363.51,224 21.65,-12.5"
               id="path6557" />
            <path
               style="fill:none"
               d="m 385.16,211.5 25,0"
               id="path6559" />
            <path
               style="fill:none"
               d="m 388.04,216.5 19.23,0"
               id="path6561" />
            <path
               style="fill:none"
               d="M 410.16,211.5 431.81,224"
               id="path6563" />
            <path
               style="fill:none"
               d="m 431.81,224 21.65,-12.5"
               id="path6565" />
            <path
               style="fill:none"
               d="m 453.46,211.5 25,0"
               id="path6567" />
            <path
               style="fill:none"
               d="m 456.35,216.5 19.22,0"
               id="path6569" />
            <path
               style="fill:none"
               d="M 478.46,211.5 500.11,224"
               id="path6571" />
            <path
               style="fill:none"
               d="m 500.11,224 21.65,-12.5"
               id="path6573" />
            <path
               style="stroke:none"
               d="m 99.664,155.22 1.136,0.29 q -0.36,1.4 -1.289,2.13 -0.925,0.74 -2.267,0.74 -1.389,0 -2.262,-0.57 -0.867,-0.56 -1.324,-1.64 -0.451,-1.07 -0.451,-2.3 0,-1.34 0.509,-2.34 0.516,-1 1.459,-1.51 0.95,-0.53 2.086,-0.53 1.289,0 2.168,0.66 0.881,0.66 1.221,1.85 l -1.115,0.26 q -0.299,-0.94 -0.867,-1.37 -0.569,-0.42 -1.43,-0.42 -0.99,0 -1.658,0.47 -0.662,0.48 -0.932,1.28 -0.269,0.8 -0.269,1.64 0,1.1 0.316,1.92 0.322,0.82 0.996,1.22 0.674,0.4 1.459,0.4 0.955,0 1.617,-0.55 0.662,-0.55 0.897,-1.63 z"
               id="path6575" />
            <path
               style="stroke:none"
               d="m 80.677,158.23 0,-8.59 1.137,0 0,3.53 4.465,0 0,-3.53 1.136,0 0,8.59 -1.136,0 0,-4.05 -4.465,0 0,4.05 z"
               id="path6577" />
          </g>
          <g
             style="stroke:none"
             transform="translate(-78,-114)"
             id="g6579">
            <path
               d="m 92.401,159.34 0,0.71 -3.975,0 q 0,-0.27 0.09,-0.51 0.152,-0.41 0.484,-0.8 0.337,-0.4 0.968,-0.91 0.981,-0.81 1.325,-1.27 0.345,-0.48 0.345,-0.89 0,-0.44 -0.316,-0.74 -0.312,-0.31 -0.816,-0.31 -0.534,0 -0.853,0.32 -0.32,0.32 -0.324,0.89 l -0.759,-0.1 q 0.08,-0.85 0.586,-1.29 0.509,-0.45 1.366,-0.45 0.866,0 1.37,0.48 0.505,0.48 0.505,1.19 0,0.36 -0.148,0.71 -0.148,0.35 -0.492,0.74 -0.341,0.38 -1.136,1.05 -0.665,0.56 -0.854,0.76 -0.188,0.2 -0.311,0.4 z"
               id="path6581" />
            <path
               d="m 117.89,154.05 q 0,-2.14 1.15,-3.35 1.15,-1.21 2.96,-1.21 1.19,0 2.15,0.57 0.95,0.56 1.45,1.58 0.5,1.02 0.5,2.31 0,1.3 -0.52,2.33 -0.53,1.04 -1.5,1.57 -0.96,0.53 -2.08,0.53 -1.22,0 -2.17,-0.59 -0.96,-0.59 -1.45,-1.6 -0.49,-1.01 -0.49,-2.14 z m 1.17,0 q 0,1.56 0.83,2.45 0.84,0.89 2.1,0.89 1.28,0 2.11,-0.9 0.83,-0.9 0.83,-2.56 0,-1.05 -0.35,-1.83 -0.36,-0.78 -1.04,-1.21 -0.68,-0.43 -1.53,-0.43 -1.21,0 -2.08,0.83 -0.87,0.82 -0.87,2.76 z"
               id="path6583" />
            <path
               d="m 99.664,190.22 1.136,0.29 q -0.36,1.4 -1.289,2.13 -0.925,0.74 -2.267,0.74 -1.389,0 -2.262,-0.57 -0.867,-0.56 -1.324,-1.64 -0.451,-1.07 -0.451,-2.3 0,-1.34 0.509,-2.34 0.516,-1 1.459,-1.51 0.95,-0.53 2.086,-0.53 1.289,0 2.168,0.66 0.881,0.66 1.221,1.85 l -1.115,0.26 q -0.299,-0.94 -0.867,-1.37 -0.569,-0.42 -1.43,-0.42 -0.99,0 -1.658,0.47 -0.662,0.48 -0.932,1.28 -0.269,0.8 -0.269,1.64 0,1.1 0.316,1.92 0.322,0.82 0.996,1.22 0.674,0.4 1.459,0.4 0.955,0 1.617,-0.55 0.662,-0.55 0.897,-1.63 z"
               id="path6585" />
            <path
               d="m 85.461,193.23 0,-8.59 1.137,0 0,3.53 4.465,0 0,-3.53 1.136,0 0,8.59 -1.136,0 0,-4.05 -4.465,0 0,4.05 z"
               id="path6587" />
          </g>
          <g
             style="stroke-width:1.20000005;stroke-linecap:butt;stroke-miterlimit:12"
             stroke-miterlimit="12"
             transform="translate(-78,-114)"
             id="g6589">
            <path
               style="fill:none"
               d="m 144.08,141.75 -0.43,-0.25 -0.43,0.25"
               id="path6591" />
            <path
               style="stroke:none"
               d="m 117.89,189.05 q 0,-2.14 1.15,-3.35 1.15,-1.21 2.96,-1.21 1.19,0 2.15,0.57 0.95,0.56 1.45,1.58 0.5,1.02 0.5,2.31 0,1.3 -0.52,2.33 -0.53,1.04 -1.5,1.57 -0.96,0.53 -2.08,0.53 -1.22,0 -2.17,-0.59 -0.96,-0.59 -1.45,-1.6 -0.49,-1.01 -0.49,-2.14 z m 1.17,0 q 0,1.56 0.83,2.45 0.84,0.89 2.1,0.89 1.28,0 2.11,-0.9 0.83,-0.9 0.83,-2.56 0,-1.05 -0.35,-1.83 -0.36,-0.78 -1.04,-1.21 -0.68,-0.43 -1.53,-0.43 -1.21,0 -2.08,0.83 -0.87,0.82 -0.87,2.76 z"
               id="path6593" />
            <path
               style="stroke:none"
               d="m 99.664,225.22 1.136,0.29 q -0.36,1.4 -1.289,2.13 -0.925,0.74 -2.267,0.74 -1.389,0 -2.262,-0.57 -0.867,-0.56 -1.324,-1.64 -0.451,-1.07 -0.451,-2.3 0,-1.34 0.509,-2.34 0.516,-1 1.459,-1.51 0.95,-0.53 2.086,-0.53 1.289,0 2.168,0.66 0.881,0.66 1.221,1.85 l -1.115,0.26 q -0.299,-0.94 -0.867,-1.37 -0.569,-0.42 -1.43,-0.42 -0.99,0 -1.658,0.47 -0.662,0.48 -0.932,1.28 -0.269,0.8 -0.269,1.64 0,1.1 0.316,1.92 0.322,0.82 0.996,1.22 0.674,0.4 1.459,0.4 0.955,0 1.617,-0.55 0.662,-0.55 0.897,-1.63 z"
               id="path6595" />
            <path
               style="stroke:none"
               d="m 80.677,228.23 0,-8.59 1.137,0 0,3.53 4.465,0 0,-3.53 1.136,0 0,8.59 -1.136,0 0,-4.05 -4.465,0 0,4.05 z"
               id="path6597" />
            <path
               style="stroke:none"
               d="m 92.401,229.34 0,0.71 -3.975,0 q 0,-0.27 0.09,-0.51 0.152,-0.41 0.484,-0.8 0.337,-0.4 0.968,-0.91 0.981,-0.81 1.325,-1.27 0.345,-0.48 0.345,-0.89 0,-0.44 -0.316,-0.74 -0.312,-0.31 -0.816,-0.31 -0.534,0 -0.853,0.32 -0.32,0.32 -0.324,0.89 l -0.759,-0.1 q 0.08,-0.85 0.586,-1.29 0.509,-0.45 1.366,-0.45 0.866,0 1.37,0.48 0.505,0.48 0.505,1.19 0,0.36 -0.148,0.71 -0.148,0.35 -0.492,0.74 -0.341,0.38 -1.136,1.05 -0.665,0.56 -0.854,0.76 -0.188,0.2 -0.311,0.4 z"
               id="path6599" />
            <path
               style="fill:none"
               d="m 164.87,153.75 0.43,0.25 0.43,-0.25"
               id="path6601" />
            <path
               style="fill:none"
               d="m 144.08,176.75 -0.43,-0.25 -0.43,0.25"
               id="path6603" />
            <path
               style="stroke:none"
               d="m 117.89,224.05 q 0,-2.14 1.15,-3.35 1.15,-1.21 2.96,-1.21 1.19,0 2.15,0.57 0.95,0.56 1.45,1.58 0.5,1.02 0.5,2.31 0,1.3 -0.52,2.33 -0.53,1.04 -1.5,1.57 -0.96,0.53 -2.08,0.53 -1.22,0 -2.17,-0.59 -0.96,-0.59 -1.45,-1.6 -0.49,-1.01 -0.49,-2.14 z m 1.17,0 q 0,1.56 0.83,2.45 0.84,0.89 2.1,0.89 1.28,0 2.11,-0.9 0.83,-0.9 0.83,-2.56 0,-1.05 -0.35,-1.83 -0.36,-0.78 -1.04,-1.21 -0.68,-0.43 -1.53,-0.43 -1.21,0 -2.08,0.83 -0.87,0.82 -0.87,2.76 z"
               id="path6605" />
            <path
               style="fill:none"
               d="m 187.38,141.75 -0.43,-0.25 -0.43,0.25"
               id="path6607" />
            <path
               style="stroke:none"
               d="m 139.54,156.55 q 0,-2.14 1.15,-3.35 1.15,-1.21 2.96,-1.21 1.19,0 2.15,0.57 0.95,0.56 1.45,1.58 0.5,1.02 0.5,2.31 0,1.3 -0.52,2.33 -0.53,1.04 -1.5,1.57 -0.96,0.53 -2.08,0.53 -1.22,0 -2.17,-0.59 -0.96,-0.59 -1.45,-1.6 -0.49,-1.01 -0.49,-2.14 z m 1.17,0 q 0,1.56 0.83,2.45 0.84,0.89 2.1,0.89 1.28,0 2.11,-0.9 0.83,-0.9 0.83,-2.56 0,-1.05 -0.35,-1.83 -0.36,-0.78 -1.04,-1.21 -0.68,-0.43 -1.53,-0.43 -1.21,0 -2.08,0.83 -0.87,0.82 -0.87,2.76 z"
               id="path6609" />
            <path
               style="fill:none"
               d="m 165.73,188.75 -0.43,0.25 -0.43,-0.25"
               id="path6611" />
            <path
               style="fill:none"
               d="m 143.22,211.75 0.43,-0.25 0.43,0.25"
               id="path6613" />
            <path
               style="fill:none"
               d="m 208.17,153.75 0.43,0.25 0.44,-0.25"
               id="path6615" />
            <path
               style="fill:none"
               d="m 186.52,176.75 0.43,-0.25 0.43,0.25"
               id="path6617" />
            <path
               style="stroke:none"
               d="m 139.54,191.55 q 0,-2.14 1.15,-3.35 1.15,-1.21 2.96,-1.21 1.19,0 2.15,0.57 0.95,0.56 1.45,1.58 0.5,1.02 0.5,2.31 0,1.3 -0.52,2.33 -0.53,1.04 -1.5,1.57 -0.96,0.53 -2.08,0.53 -1.22,0 -2.17,-0.59 -0.96,-0.59 -1.45,-1.6 -0.49,-1.01 -0.49,-2.14 z m 1.17,0 q 0,1.56 0.83,2.45 0.84,0.89 2.1,0.89 1.28,0 2.11,-0.9 0.83,-0.9 0.83,-2.56 0,-1.05 -0.35,-1.83 -0.36,-0.78 -1.04,-1.21 -0.68,-0.43 -1.53,-0.43 -1.21,0 -2.08,0.83 -0.87,0.82 -0.87,2.76 z"
               id="path6619" />
            <path
               style="fill:none"
               d="m 165.73,223.75 -0.43,0.25 -0.43,-0.25"
               id="path6621" />
            <path
               style="fill:none"
               d="m 230.69,141.75 -0.44,-0.25 -0.43,0.25"
               id="path6623" />
            <path
               style="fill:none"
               d="m 209.04,188.75 -0.44,0.25 -0.43,-0.25"
               id="path6625" />
            <path
               style="fill:none"
               d="m 186.52,211.75 0.43,-0.25 0.43,0.25"
               id="path6627" />
            <path
               style="fill:none"
               d="m 251.47,153.75 0.43,0.25 0.44,-0.25"
               id="path6629" />
            <path
               style="fill:none"
               d="m 229.82,176.75 0.43,-0.25 0.44,0.25"
               id="path6631" />
            <path
               style="fill:none"
               d="m 209.04,223.75 -0.44,0.25 -0.43,-0.25"
               id="path6633" />
            <path
               style="fill:none"
               d="m 273.12,141.75 0.43,-0.25 0.44,0.25"
               id="path6635" />
            <path
               style="fill:none"
               d="m 251.47,188.75 0.43,0.25 0.44,-0.25"
               id="path6637" />
            <path
               style="fill:none"
               d="m 230.69,211.75 -0.44,-0.25 -0.43,0.25"
               id="path6639" />
            <path
               style="fill:none"
               d="m 294.77,153.75 0.44,0.25 0.43,-0.25"
               id="path6641" />
            <path
               style="fill:none"
               d="m 273.99,176.75 -0.44,-0.25 -0.43,0.25"
               id="path6643" />
            <path
               style="fill:none"
               d="m 251.47,223.75 0.43,0.25 0.44,-0.25"
               id="path6645" />
            <path
               style="fill:none"
               d="m 317.29,141.75 -0.43,-0.25 -0.44,0.25"
               id="path6647" />
            <path
               style="fill:none"
               d="m 294.77,188.75 0.44,0.25 0.43,-0.25"
               id="path6649" />
            <path
               style="fill:none"
               d="m 273.12,211.75 0.43,-0.25 0.44,0.25"
               id="path6651" />
            <path
               style="fill:none"
               d="m 338.07,153.75 0.44,0.25 0.43,-0.25"
               id="path6653" />
            <path
               style="fill:none"
               d="m 316.42,176.75 0.44,-0.25 0.5,0"
               id="path6655" />
            <path
               style="fill:none"
               d="m 295.64,223.75 -0.43,0.25 -0.44,-0.25"
               id="path6657" />
            <path
               style="fill:none"
               d="m 360.59,141.75 -0.43,-0.25 -0.44,0.25"
               id="path6659" />
            <path
               style="fill:none"
               d="m 316.42,211.75 0.44,-0.25 0.5,0"
               id="path6661" />
            <path
               style="fill:none"
               d="m 382.24,153.75 -0.43,0.25 -0.44,-0.25"
               id="path6663" />
            <path
               style="fill:none"
               d="m 403.03,141.75 0.43,-0.25 0.43,0.25"
               id="path6665" />
            <path
               style="fill:none"
               d="m 424.68,153.75 0.43,0.25 0.43,-0.25"
               id="path6667" />
            <path
               style="fill:none"
               d="m 446.33,141.75 0.43,-0.25 0.43,0.25"
               id="path6669" />
            <path
               style="stroke:none"
               d="m 139.54,121.55 q 0,-2.14 1.15,-3.35 1.15,-1.21 2.96,-1.21 1.19,0 2.15,0.57 0.95,0.56 1.45,1.58 0.5,1.02 0.5,2.31 0,1.3 -0.52,2.33 -0.53,1.04 -1.5,1.57 -0.96,0.53 -2.08,0.53 -1.22,0 -2.17,-0.59 -0.96,-0.59 -1.45,-1.6 -0.49,-1.01 -0.49,-2.14 z m 1.17,0 q 0,1.56 0.83,2.45 0.84,0.89 2.1,0.89 1.28,0 2.11,-0.9 0.83,-0.9 0.83,-2.56 0,-1.05 -0.35,-1.83 -0.36,-0.78 -1.04,-1.21 -0.68,-0.43 -1.53,-0.43 -1.21,0 -2.08,0.83 -0.87,0.82 -0.87,2.76 z"
               id="path6671" />
            <path
               style="fill:none"
               d="m 342.29,211.75 -0.43,-0.25 -0.5,0"
               id="path6673" />
            <path
               style="fill:none"
               d="m 342.29,176.75 -0.43,-0.25 -0.5,0"
               id="path6675" />
            <path
               style="fill:none"
               d="m 363.07,188.75 0.44,0.25 0.43,-0.25"
               id="path6677" />
            <path
               style="fill:none"
               d="m 385.59,176.75 -0.43,-0.25 -0.44,0.25"
               id="path6679" />
            <path
               style="fill:none"
               d="m 407.24,188.75 -0.43,0.25 -0.44,-0.25"
               id="path6681" />
            <path
               style="fill:none"
               d="m 428.89,176.75 -0.43,-0.25 -0.43,0.25"
               id="path6683" />
            <path
               style="fill:none"
               d="m 449.68,188.75 0.43,0.25 0.43,-0.25"
               id="path6685" />
            <path
               style="fill:none"
               d="m 472.19,176.75 -0.43,-0.25 -0.43,0.25"
               id="path6687" />
            <path
               style="fill:none"
               d="m 492.98,188.75 0.43,0.25 0.43,-0.25"
               id="path6689" />
            <path
               style="fill:none"
               d="m 363.94,223.75 -0.43,0.25 -0.44,-0.25"
               id="path6691" />
            <path
               style="fill:none"
               d="m 384.72,211.75 0.44,-0.25 0.5,0"
               id="path6693" />
            <path
               style="fill:none"
               d="m 410.59,211.75 -0.43,-0.25 -0.5,0"
               id="path6695" />
            <path
               style="fill:none"
               d="m 431.37,223.75 0.44,0.25 0.43,-0.25"
               id="path6697" />
            <path
               style="fill:none"
               d="m 453.03,211.75 0.43,-0.25 0.5,0"
               id="path6699" />
            <path
               style="fill:none"
               d="m 477.96,211.5 0.5,0 0.43,0.25"
               id="path6701" />
            <path
               style="fill:none"
               d="m 500.54,223.75 -0.43,0.25 -0.43,-0.25"
               id="path6703" />
            <path
               style="stroke:none"
               d="m 311.84,205.18 1.01,-0.1 q 0.13,0.71 0.49,1.04 0.37,0.32 0.93,0.32 0.49,0 0.85,-0.22 0.37,-0.23 0.61,-0.6 0.23,-0.37 0.39,-1 0.16,-0.64 0.16,-1.29 0,-0.1 0,-0.21 -0.31,0.5 -0.87,0.82 -0.54,0.31 -1.18,0.31 -1.07,0 -1.8,-0.78 -0.74,-0.77 -0.74,-2.03 0,-1.31 0.77,-2.11 0.77,-0.8 1.93,-0.8 0.84,0 1.53,0.46 0.7,0.45 1.05,1.29 0.37,0.83 0.37,2.41 0,1.65 -0.36,2.62 -0.36,0.98 -1.07,1.49 -0.7,0.51 -1.65,0.51 -1.01,0 -1.65,-0.56 -0.63,-0.56 -0.76,-1.58 z m 4.31,-3.79 q 0,-0.91 -0.48,-1.44 -0.48,-0.53 -1.16,-0.53 -0.71,0 -1.23,0.57 -0.52,0.58 -0.52,1.49 0,0.82 0.49,1.34 0.5,0.51 1.23,0.51 0.73,0 1.2,-0.51 0.47,-0.52 0.47,-1.43 z"
               id="path6705" />
            <path
               style="stroke:none"
               d="m 379.08,207.17 -1.05,0 0,-6.72 q -0.38,0.36 -1.01,0.73 -0.61,0.36 -1.1,0.54 l 0,-1.02 q 0.88,-0.41 1.54,-1.01 0.67,-0.59 0.94,-1.15 l 0.68,0 z"
               id="path6707" />
            <path
               style="stroke:none"
               d="m 385.76,206.16 0,1.01 -5.68,0 q 0,-0.38 0.13,-0.73 0.21,-0.58 0.69,-1.15 0.48,-0.56 1.38,-1.3 1.4,-1.14 1.89,-1.81 0.5,-0.68 0.5,-1.27 0,-0.63 -0.46,-1.06 -0.44,-0.43 -1.16,-0.43 -0.76,0 -1.22,0.46 -0.46,0.45 -0.46,1.26 l -1.09,-0.11 q 0.11,-1.21 0.84,-1.85 0.73,-0.64 1.95,-0.64 1.24,0 1.96,0.69 0.72,0.69 0.72,1.7 0,0.52 -0.21,1.01 -0.21,0.5 -0.7,1.05 -0.49,0.55 -1.63,1.51 -0.95,0.8 -1.22,1.09 -0.27,0.28 -0.44,0.57 z"
               id="path6709" />
            <path
               style="stroke:none"
               d="m 449.08,207.09 -1.05,0 0,-6.72 q -0.38,0.36 -1.01,0.73 -0.61,0.36 -1.1,0.54 l 0,-1.02 q 0.88,-0.41 1.54,-1.01 0.67,-0.59 0.94,-1.15 l 0.68,0 z"
               id="path6711" />
            <path
               style="stroke:none"
               d="m 450.08,204.84 1.11,-0.1 q 0.12,0.8 0.56,1.21 0.45,0.41 1.09,0.41 0.76,0 1.29,-0.57 0.52,-0.58 0.52,-1.53 0,-0.9 -0.51,-1.42 -0.5,-0.52 -1.32,-0.52 -0.51,0 -0.92,0.23 -0.41,0.23 -0.64,0.6 l -0.99,-0.13 0.83,-4.41 4.27,0 0,1.01 -3.43,0 -0.46,2.3 q 0.77,-0.54 1.62,-0.54 1.13,0 1.9,0.78 0.77,0.78 0.77,2.01 0,1.16 -0.68,2.01 -0.82,1.05 -2.25,1.05 -1.17,0 -1.92,-0.66 -0.74,-0.66 -0.84,-1.74 z"
               id="path6713" />
            <path
               style="stroke:none"
               d="m 519.25,217.75 1.02,0 q -0.88,1.93 -0.88,3.26 0,1.02 0.38,1.65 0.37,0.62 0.95,0.62 0.38,0 0.71,-0.29 0.32,-0.29 0.43,-0.7 0.11,-0.41 0.11,-1.15 l 0,-1.82 1.05,0 0,1.82 q 0,0.72 0.1,1.14 0.12,0.42 0.44,0.72 0.34,0.28 0.71,0.28 0.58,0 0.95,-0.62 0.38,-0.62 0.38,-1.65 0,-1.33 -0.87,-3.26 l 1.01,0 q 0.93,1.64 0.93,3.19 0,1.55 -0.65,2.36 -0.63,0.81 -1.63,0.81 -1.32,0 -1.89,-1.4 -0.58,1.4 -1.9,1.4 -1.05,0 -1.67,-0.85 -0.61,-0.85 -0.61,-2.32 0,-1.55 0.93,-3.19 z"
               id="path6715" />
            <path
               style="stroke:none"
               d="m 166.96,227.82 1.08,0 q -0.41,1.29 -0.76,3.11 0.41,2.26 0.76,3.11 l -1.05,0 q -0.25,-0.59 -0.38,-1.14 -0.49,1.28 -2.04,1.28 -1.17,0 -1.88,-0.88 -0.72,-0.88 -0.72,-2.38 0,-1.55 0.72,-2.39 0.72,-0.85 1.9,-0.85 0.73,0 1.2,0.3 0.46,0.29 0.86,0.89 0,-0.2 0.31,-1.05 z m -2.19,0.73 q -0.76,0 -1.2,0.61 -0.44,0.61 -0.44,1.76 0,1.12 0.42,1.75 0.41,0.64 1.16,0.64 0.72,0 1.21,-0.62 0.49,-0.64 0.49,-1.82 0,-1.15 -0.46,-1.73 -0.45,-0.59 -1.18,-0.59 z"
               id="path6717" />
          </g>
        </g>
      </g>
      <text
         id="text7522"
         y="504.49396"
         x="174.02409"
         style="font-style:normal;font-weight:normal;font-size:20px;line-height:125%;font-family:sans-serif;letter-spacing:0px;word-spacing:0px;fill:#000000;fill-opacity:1;stroke:none;stroke-width:1px;stroke-linecap:butt;stroke-linejoin:miter;stroke-opacity:1"
         xml:space="preserve"><tspan
           style="font-style:normal;font-variant:normal;font-weight:bold;font-stretch:normal;font-family:'Noto Sans';-inkscape-font-specification:'Noto Sans Bold'"
           y="504.49396"
           x="174.02409"
           id="tspan7524">Tryglyceride</tspan></text>
    </g>
    <g
       id="g7700"
       transform="matrix(0.69844224,0,0,0.69844224,85.233162,187.26542)">
      <g
         transform="matrix(1.6771445,0,0,1.6771445,-254.66259,-400.86006)"
         id="g7365">
        <path
           id="rect3301"
           d="m 79.080467,543.95409 403.153573,0 0,81.5507 -403.153573,0 z"
           style="font-size:medium;font-family:Helvetica;fill:#ffffff;fill-opacity:0;stroke-linecap:round" />
        <g
           id="Solid"
           transform="matrix(1.2365536,0,0,1.2365536,-30.267967,421.4611)"
           style="font-size:medium;font-family:Helvetica;fill:#008000;stroke-linecap:round">
          <path
             d="m 302.42,147.21 0,0 0,-0.35 0,-0.35 12.16,-7.02 0.31,0.17 0,0.35 z"
             id="path3312"
             style="fill:#008000;fill-rule:evenodd;stroke:#000000;stroke-width:0;stroke-linejoin:miter;shape-rendering:geometricPrecision" />
        </g>
        <g
           id="g3314"
           transform="matrix(1.2365536,0,0,1.2365536,-30.267967,421.4611)"
           style="font-size:medium;font-family:Helvetica;fill:#008000;stroke-linecap:round">
          <path
             d="m 314.89,140.01 0,0 0,-0.35 0.31,-0.17 12.12,7 0,0.35 0,0.35 z"
             id="path3316"
             style="fill:#008000;fill-rule:evenodd;stroke:#000000;stroke-width:0;stroke-linejoin:miter;shape-rendering:geometricPrecision" />
        </g>
        <g
           id="g3318"
           transform="matrix(1.2365536,0,0,1.2365536,-30.267967,421.4611)"
           style="font-size:medium;font-family:Helvetica;fill:#008000;stroke-linecap:round">
          <g
             style="text-anchor:start;fill:#008000"
             id="text3320">
            <path
               d="m 336.32339,139.85367 c 0,-1.18815 0.31901,-2.11832 0.95704,-2.79053 0.63801,-0.67219 1.46158,-1.00829 2.4707,-1.0083 0.6608,10e-6 1.2565,0.15788 1.78711,0.47363 0.53059,0.31576 0.93505,0.75603 1.21338,1.3208 0.27831,0.56479 0.41747,1.20525 0.41748,1.92139 -1e-5,0.72591 -0.14649,1.37533 -0.43946,1.94824 -0.29297,0.57292 -0.70801,1.00668 -1.24511,1.30127 -0.53712,0.2946 -1.11654,0.4419 -1.73828,0.4419 -0.67384,0 -1.27605,-0.16276 -1.80664,-0.48828 -0.5306,-0.32552 -0.93262,-0.76986 -1.20606,-1.33301 -0.27344,-0.56315 -0.41016,-1.15885 -0.41016,-1.78711 z m 0.97657,0.0147 c 0,0.86263 0.23193,1.54215 0.6958,2.03857 0.46386,0.49642 1.04573,0.74463 1.7456,0.74463 0.71289,0 1.29964,-0.25065 1.76026,-0.75195 0.4606,-0.5013 0.69091,-1.21257 0.69092,-2.13379 -1e-5,-0.58268 -0.0985,-1.09131 -0.29541,-1.52588 -0.19695,-0.43457 -0.48504,-0.77148 -0.86426,-1.01074 -0.37924,-0.23925 -0.80486,-0.35888 -1.27686,-0.35889 -0.67057,1e-5 -1.24756,0.23031 -1.73096,0.69092 -0.4834,0.46062 -0.72509,1.22966 -0.72509,2.30713 z"
               style="font-size:10px;font-family:Arial;fill:#008000"
               id="path3614" />
          </g>
        </g>
        <g
           id="g3324"
           transform="matrix(1.2365536,0,0,1.2365536,-30.267967,421.4611)"
           style="font-size:medium;font-family:Helvetica;fill:#008000;stroke-linecap:round">
          <path
             d="m 327.32,147.19 0,0 0,-0.35 0,-0.35 7.74,-4.47 0.15,0.26 0.15,0.26 z"
             id="path3326"
             style="fill:#008000;fill-rule:evenodd;stroke:#000000;stroke-width:0;stroke-linejoin:miter;shape-rendering:geometricPrecision" />
        </g>
        <g
           id="g3328"
           transform="matrix(1.2365536,0,0,1.2365536,-30.267967,421.4611)"
           style="font-size:medium;font-family:Helvetica;fill:#008000;stroke-linecap:round">
          <g
             style="text-anchor:start;fill:#008000"
             id="text3330">
            <path
               d="m 311.47339,125.50368 c 0,-1.18815 0.31901,-2.11832 0.95703,-2.79053 0.63802,-0.67219 1.46159,-1.00829 2.4707,-1.0083 0.66081,1e-5 1.25651,0.15788 1.78711,0.47363 0.5306,0.31576 0.93505,0.75603 1.21338,1.3208 0.27831,0.56479 0.41747,1.20525 0.41748,1.92139 -1e-5,0.72591 -0.14649,1.37533 -0.43945,1.94824 -0.29298,0.57292 -0.70802,1.00668 -1.24512,1.30127 -0.53711,0.2946 -1.11654,0.4419 -1.73828,0.4419 -0.67383,0 -1.27604,-0.16276 -1.80664,-0.48829 -0.5306,-0.32552 -0.93262,-0.76985 -1.20606,-1.333 -0.27343,-0.56315 -0.41015,-1.15885 -0.41015,-1.78711 z m 0.97656,0.0147 c 0,0.86263 0.23193,1.54215 0.6958,2.03857 0.46387,0.49642 1.04573,0.74463 1.74561,0.74463 0.71288,0 1.29963,-0.25065 1.76025,-0.75195 0.46061,-0.5013 0.69091,-1.21257 0.69092,-2.13379 -1e-5,-0.58268 -0.0985,-1.09131 -0.29541,-1.52588 -0.19695,-0.43457 -0.48503,-0.77148 -0.86426,-1.01074 -0.37924,-0.23926 -0.80485,-0.35888 -1.27685,-0.35889 -0.67058,1e-5 -1.24757,0.23031 -1.73096,0.69092 -0.4834,0.46061 -0.7251,1.22966 -0.7251,2.30713 z"
               style="font-size:10px;font-family:Arial;fill:#008000"
               id="path3617" />
          </g>
        </g>
        <g
           id="WedgeBegin"
           transform="matrix(1.2365536,0,0,1.2365536,-30.267967,421.4611)"
           style="font-size:medium;font-family:Helvetica;fill:#008000;stroke-linecap:round">
          <path
             d="m 315.2,139.49 0,0 -0.31,0.17 -0.31,-0.17 -1.19,-8.69 1.5,0 1.5,0 z"
             id="path3335"
             style="fill:#008000;fill-rule:evenodd;stroke:#000000;stroke-width:0;stroke-linejoin:miter;shape-rendering:geometricPrecision" />
        </g>
        <g
           style="font-size:medium;font-family:Helvetica;stroke-linecap:round"
           id="g3337"
           transform="matrix(1.2365536,0,0,1.2365536,-30.267967,421.4611)">
          <path
             d="m 310.56,122.47 0,0 -0.15,0.26 -0.15,0.26 -7.79,-4.5 0,-0.35 0,-0.35 z"
             id="path3339"
             style="fill:#000000;fill-rule:evenodd;stroke:#000000;stroke-width:0;stroke-linejoin:miter;shape-rendering:geometricPrecision" />
        </g>
        <g
           style="font-size:medium;font-family:Helvetica;stroke-linecap:round"
           id="g3341"
           transform="matrix(1.2365536,0,0,1.2365536,-30.267967,421.4611)">
          <g
             style="text-anchor:start"
             id="text3343">
            <path
               d="m 299.0434,103.97367 c 0,-1.18815 0.31901,-2.11832 0.95703,-2.79053 0.63802,-0.67219 1.46158,-1.00829 2.4707,-1.0083 0.6608,1e-5 1.25651,0.15789 1.78711,0.47364 0.53059,0.31576 0.93505,0.75602 1.21338,1.3208 0.27831,0.56478 0.41747,1.20524 0.41748,1.92138 -10e-6,0.72592 -0.14649,1.37533 -0.43945,1.94825 -0.29298,0.57291 -0.70802,1.00667 -1.24512,1.30126 -0.53712,0.2946 -1.11654,0.4419 -1.73828,0.4419 -0.67383,0 -1.27605,-0.16276 -1.80664,-0.48828 -0.5306,-0.32552 -0.93262,-0.76986 -1.20606,-1.33301 -0.27344,-0.56315 -0.41015,-1.15885 -0.41015,-1.78711 z m 0.97656,0.0147 c 0,0.86263 0.23193,1.54216 0.6958,2.03857 0.46386,0.49642 1.04573,0.74463 1.7456,0.74463 0.71289,0 1.29964,-0.25065 1.76026,-0.75195 0.4606,-0.5013 0.69091,-1.21256 0.69092,-2.13379 -10e-6,-0.58268 -0.0985,-1.0913 -0.29541,-1.52588 -0.19695,-0.43456 -0.48504,-0.77148 -0.86426,-1.01074 -0.37924,-0.23925 -0.80486,-0.35888 -1.27686,-0.35889 -0.67057,1e-5 -1.24756,0.23031 -1.73095,0.69092 -0.4834,0.46062 -0.7251,1.22966 -0.7251,2.30713 z"
               style="font-size:10px;font-family:Arial;fill:#000000"
               id="path3620" />
          </g>
        </g>
        <g
           style="font-size:medium;font-family:Helvetica;stroke-linecap:round"
           id="g3347"
           transform="matrix(1.2365536,0,0,1.2365536,-30.267967,421.4611)">
          <path
             style="stroke:#000000;stroke-width:0.60000002"
             d="m 301.17999,118.14 0,-8.94"
             id="line3349" />
          <path
             d="m 303.46,118.37 0,0 0.6,0.34 0,-9.51 -0.6,0 z"
             id="path3351"
             style="fill:#000000;fill-rule:evenodd;stroke:#000000;stroke-width:0;stroke-linejoin:miter;shape-rendering:geometricPrecision" />
          <path
             d="m 300.88,118.71 0,0 0.6,-0.34 0,-9.17 -0.6,0 z"
             id="path3353"
             style="fill:#000000;fill-rule:evenodd;stroke:#000000;stroke-width:0;stroke-linejoin:miter;shape-rendering:geometricPrecision" />
        </g>
        <g
           style="font-size:medium;font-family:Helvetica;stroke-linecap:round"
           id="g3355"
           transform="matrix(1.2365536,0,0,1.2365536,-30.267967,421.4611)">
          <path
             d="m 302.47,117.79 0,0 0,0.35 0,0.35 -12.43,7.17 0,-0.35 0,-0.35 z"
             id="path3357"
             style="fill:#000000;fill-rule:evenodd;stroke:#000000;stroke-width:0;stroke-linejoin:miter;shape-rendering:geometricPrecision" />
        </g>
        <g
           id="g3359"
           transform="matrix(1.2365536,0,0,1.2365536,-30.267967,421.4611)"
           style="font-size:medium;font-family:Helvetica;fill:#008000;stroke-linecap:round">
          <g
             style="text-anchor:start;fill:#008000"
             id="text3361">
            <path
               d="m 286.57339,139.87367 c 0,-1.18814 0.31901,-2.11832 0.95704,-2.79052 0.63801,-0.6722 1.46158,-1.0083 2.4707,-1.00831 0.6608,1e-5 1.2565,0.15789 1.78711,0.47364 0.53059,0.31576 0.93505,0.75603 1.21338,1.3208 0.27831,0.56478 0.41747,1.20524 0.41748,1.92138 -1e-5,0.72592 -0.14649,1.37533 -0.43946,1.94825 -0.29297,0.57291 -0.70801,1.00667 -1.24511,1.30127 -0.53712,0.29459 -1.11654,0.44189 -1.73828,0.44189 -0.67384,0 -1.27605,-0.16276 -1.80664,-0.48828 -0.5306,-0.32552 -0.93262,-0.76986 -1.20606,-1.33301 -0.27344,-0.56315 -0.41016,-1.15885 -0.41016,-1.78711 z m 0.97657,0.0146 c 0,0.86263 0.23193,1.54216 0.6958,2.03858 0.46386,0.49642 1.04573,0.74462 1.7456,0.74462 0.71289,0 1.29964,-0.25065 1.76026,-0.75195 0.4606,-0.5013 0.69091,-1.21256 0.69092,-2.13379 -1e-5,-0.58268 -0.0985,-1.0913 -0.29541,-1.52588 -0.19695,-0.43456 -0.48504,-0.77148 -0.86426,-1.01074 -0.37924,-0.23925 -0.80486,-0.35888 -1.27686,-0.35889 -0.67057,1e-5 -1.24756,0.23032 -1.73096,0.69092 -0.4834,0.46062 -0.72509,1.22966 -0.72509,2.30713 z"
               style="font-size:10px;font-family:Arial;fill:#008000"
               id="path3624" />
          </g>
        </g>
        <g
           id="g3365"
           transform="matrix(1.2365536,0,0,1.2365536,-30.267967,421.4611)"
           style="font-size:medium;font-family:Helvetica;fill:#008000;stroke-linecap:round">
          <path
             d="m 302.42,146.51 0,0 0,0.35 0,0.35 -7.88,-4.55 0.15,-0.26 0.15,-0.26 z"
             id="path3367"
             style="fill:#008000;fill-rule:evenodd;stroke:#000000;stroke-width:0;stroke-linejoin:miter;shape-rendering:geometricPrecision" />
        </g>
        <g
           style="font-size:medium;font-family:Helvetica;stroke-linecap:round"
           id="g3369"
           transform="matrix(1.2365536,0,0,1.2365536,-30.267967,421.4611)">
          <path
             d="m 285.26,142.07 0,0 0.15,0.26 0.15,0.26 -7.99,4.62 0,-0.35 0,-0.35 z"
             id="path3371"
             style="fill:#000000;fill-rule:evenodd;stroke:#000000;stroke-width:0;stroke-linejoin:miter;shape-rendering:geometricPrecision" />
        </g>
        <g
           style="font-size:medium;font-family:Helvetica;stroke-linecap:round"
           id="g3373"
           transform="matrix(1.2365536,0,0,1.2365536,-30.267967,421.4611)">
          <path
             d="m 277.57,146.51 0,0 0,0.35 0,0.35 -12.43,-7.17 0,-0.35 0,-0.35 z"
             id="path3375"
             style="fill:#000000;fill-rule:evenodd;stroke:#000000;stroke-width:0;stroke-linejoin:miter;shape-rendering:geometricPrecision" />
        </g>
        <g
           style="font-size:medium;font-family:Helvetica;stroke-linecap:round"
           id="g3377"
           transform="matrix(1.2365536,0,0,1.2365536,-30.267967,421.4611)">
          <g
             style="text-anchor:start"
             id="text3379">
            <path
               d="m 274.1434,161.40367 c 0,-1.18815 0.31901,-2.11832 0.95703,-2.79053 0.63802,-0.67219 1.46159,-1.00829 2.47071,-1.0083 0.6608,1e-5 1.2565,0.15789 1.78711,0.47364 0.53059,0.31576 0.93505,0.75602 1.21337,1.3208 0.27832,0.56478 0.41748,1.20524 0.41749,1.92138 -10e-6,0.72592 -0.1465,1.37533 -0.43946,1.94825 -0.29297,0.57291 -0.70801,1.00667 -1.24512,1.30127 -0.53711,0.29459 -1.11654,0.44189 -1.73828,0.44189 -0.67383,0 -1.27604,-0.16276 -1.80664,-0.48828 -0.5306,-0.32552 -0.93262,-0.76986 -1.20605,-1.33301 -0.27344,-0.56315 -0.41016,-1.15885 -0.41016,-1.78711 z m 0.97656,0.0146 c 0,0.86263 0.23194,1.54216 0.69581,2.03857 0.46386,0.49642 1.04573,0.74463 1.7456,0.74463 0.71289,0 1.29964,-0.25065 1.76025,-0.75195 0.46061,-0.5013 0.69092,-1.21256 0.69092,-2.13379 0,-0.58268 -0.0985,-1.0913 -0.29541,-1.52588 -0.19694,-0.43456 -0.48503,-0.77148 -0.86426,-1.01074 -0.37923,-0.23925 -0.80485,-0.35888 -1.27685,-0.35889 -0.67058,1e-5 -1.24756,0.23032 -1.73096,0.69092 -0.4834,0.46062 -0.7251,1.22966 -0.7251,2.30713 z"
               style="font-size:10px;font-family:Arial;fill:#000000"
               id="path3627" />
          </g>
        </g>
        <g
           style="font-size:medium;font-family:Helvetica;stroke-linecap:round"
           id="g3383"
           transform="matrix(1.2365536,0,0,1.2365536,-30.267967,421.4611)">
          <path
             style="stroke:#000000;stroke-width:0.60000002"
             d="m 278.85999,146.86 0,9.24001"
             id="line3385" />
          <path
             d="m 276.58,146.63 0,0 -0.6,-0.34 0,9.81 0.6,0 z"
             id="path3387"
             style="fill:#000000;fill-rule:evenodd;stroke:#000000;stroke-width:0;stroke-linejoin:miter;shape-rendering:geometricPrecision" />
          <path
             d="m 279.16,146.29 0,0 -0.6,0.34 0,9.47 0.6,0 z"
             id="path3389"
             style="fill:#000000;fill-rule:evenodd;stroke:#000000;stroke-width:0;stroke-linejoin:miter;shape-rendering:geometricPrecision" />
        </g>
        <g
           id="g3391"
           transform="matrix(1.2365536,0,0,1.2365536,-30.267967,421.4611)"
           style="font-size:medium;font-family:Helvetica;fill:#ff0000;stroke-linecap:round">
          <g
             style="text-anchor:start;fill:#ff0000"
             id="text3393">
            <path
               d="m 349.43149,150.41 0,-7.1582 2.70019,0 c 0.47526,1e-5 0.83822,0.0228 1.08887,0.0684 0.35156,0.0586 0.64615,0.17009 0.88379,0.33447 0.23762,0.1644 0.42887,0.3947 0.57373,0.69092 0.14485,0.29623 0.21728,0.62175 0.21729,0.97656 -10e-6,0.60873 -0.1937,1.12387 -0.58106,1.54541 -0.38737,0.42156 -1.08724,0.63233 -2.09961,0.63233 l -1.83594,0 0,2.91015 z m 0.94726,-3.75488 1.85059,0 c 0.61197,0 1.04654,-0.11393 1.30371,-0.3418 0.25716,-0.22786 0.38574,-0.54849 0.38574,-0.96191 0,-0.29947 -0.0757,-0.55582 -0.22705,-0.76904 -0.15137,-0.21321 -0.35075,-0.354 -0.59814,-0.42237 -0.15951,-0.0423 -0.45411,-0.0635 -0.88379,-0.0635 l -1.83106,0 z"
               style="font-size:10px;font-family:Arial;fill:#ff0000"
               id="path3631" />
          </g>
        </g>
        <g
           id="g3397"
           transform="matrix(1.2365536,0,0,1.2365536,-30.267967,421.4611)"
           style="font-size:medium;font-family:Helvetica;fill:#ff0000;stroke-linecap:round">
          <path
             d="m 344.24,142.6 0,0 0.15,-0.26 0.15,-0.26 3.72,2.15 -0.15,0.26 -0.15,0.26 z"
             id="path3399"
             style="fill:#ff0000;fill-rule:evenodd;stroke:#000000;stroke-width:0;stroke-linejoin:miter;shape-rendering:geometricPrecision" />
        </g>
        <g
           id="g3401"
           transform="matrix(1.2365536,0,0,1.2365536,-30.267967,421.4611)"
           style="font-size:medium;font-family:Helvetica;fill:#ff0000;stroke-linecap:round">
          <g
             style="text-anchor:start;fill:#ff0000"
             id="text3403">
            <path
               d="m 361.18341,139.85367 c 0,-1.18815 0.31901,-2.11832 0.95703,-2.79053 0.63802,-0.67219 1.46159,-1.00829 2.47071,-1.0083 0.6608,10e-6 1.2565,0.15788 1.7871,0.47363 0.5306,0.31576 0.93506,0.75603 1.21338,1.3208 0.27832,0.56479 0.41748,1.20525 0.41748,1.92139 0,0.72591 -0.14649,1.37533 -0.43945,1.94824 -0.29297,0.57292 -0.70801,1.00668 -1.24512,1.30127 -0.53711,0.2946 -1.11654,0.4419 -1.73828,0.4419 -0.67383,0 -1.27604,-0.16276 -1.80664,-0.48828 -0.5306,-0.32552 -0.93262,-0.76986 -1.20605,-1.33301 -0.27344,-0.56315 -0.41016,-1.15885 -0.41016,-1.78711 z m 0.97656,0.0147 c 0,0.86263 0.23194,1.54215 0.6958,2.03857 0.46387,0.49642 1.04574,0.74463 1.74561,0.74463 0.71289,0 1.29964,-0.25065 1.76025,-0.75195 0.46061,-0.5013 0.69091,-1.21257 0.69092,-2.13379 -10e-6,-0.58268 -0.0985,-1.09131 -0.29541,-1.52588 -0.19694,-0.43457 -0.48503,-0.77148 -0.86426,-1.01074 -0.37923,-0.23925 -0.80485,-0.35888 -1.27685,-0.35889 -0.67058,1e-5 -1.24756,0.23031 -1.73096,0.69092 -0.4834,0.46062 -0.7251,1.22966 -0.7251,2.30713 z"
               style="font-size:10px;font-family:Arial;fill:#ff0000"
               id="path3634" />
          </g>
        </g>
        <g
           id="g3407"
           transform="matrix(1.2365536,0,0,1.2365536,-30.267967,421.4611)"
           style="font-size:medium;font-family:Helvetica;fill:#ff0000;stroke-linecap:round">
          <path
             d="m 356.44,144.73 0,0 -0.15,-0.26 -0.15,-0.26 3.82,-2.22 0.15,0.26 0.15,0.26 z"
             id="path3409"
             style="fill:#ff0000;fill-rule:evenodd;stroke:#000000;stroke-width:0;stroke-linejoin:miter;shape-rendering:geometricPrecision" />
        </g>
        <g
           id="g3411"
           transform="matrix(1.2365536,0,0,1.2365536,-30.267967,421.4611)"
           style="font-size:medium;font-family:Helvetica;fill:#ff0000;stroke-linecap:round">
          <g
             style="text-anchor:start;fill:#ff0000"
             id="text3413">
            <path
               d="m 341.55341,159.49367 c 0,-1.18815 0.31901,-2.11832 0.95703,-2.79053 0.63802,-0.67219 1.46158,-1.00829 2.4707,-1.0083 0.6608,1e-5 1.25651,0.15788 1.78711,0.47363 0.53059,0.31576 0.93505,0.75603 1.21338,1.3208 0.27831,0.56479 0.41747,1.20525 0.41748,1.92139 -1e-5,0.72591 -0.14649,1.37533 -0.43945,1.94824 -0.29298,0.57292 -0.70802,1.00668 -1.24512,1.30127 -0.53712,0.2946 -1.11654,0.4419 -1.73828,0.4419 -0.67383,0 -1.27605,-0.16276 -1.80664,-0.48829 -0.5306,-0.32552 -0.93262,-0.76985 -1.20606,-1.333 -0.27344,-0.56315 -0.41015,-1.15885 -0.41015,-1.78711 z m 0.97656,0.0146 c 0,0.86263 0.23193,1.54215 0.6958,2.03857 0.46386,0.49642 1.04573,0.74463 1.7456,0.74463 0.71289,0 1.29964,-0.25065 1.76026,-0.75195 0.4606,-0.5013 0.69091,-1.21257 0.69092,-2.13379 -10e-6,-0.58268 -0.0985,-1.09131 -0.29541,-1.52588 -0.19695,-0.43457 -0.48504,-0.77148 -0.86426,-1.01074 -0.37924,-0.23926 -0.80486,-0.35888 -1.27686,-0.35889 -0.67057,1e-5 -1.24756,0.23031 -1.73095,0.69092 -0.4834,0.46061 -0.7251,1.22966 -0.7251,2.30713 z"
               style="font-size:10px;font-family:Arial;fill:#ff0000"
               id="path3637" />
          </g>
        </g>
        <path
           style="font-size:medium;font-family:Helvetica;fill:#ff0000;fill-rule:evenodd;stroke:#000000;stroke-width:0;stroke-linecap:round;stroke-linejoin:miter;shape-rendering:geometricPrecision"
           id="path3421"
           d="m 400.70806,608.65058 0,0 -0.64301,-0.37097 -1.89193,3.27687 0.64301,0.37096 z" />
        <path
           style="font-size:medium;font-family:Helvetica;fill:#ff0000;fill-rule:evenodd;stroke:#000000;stroke-width:0;stroke-linecap:round;stroke-linejoin:miter;shape-rendering:geometricPrecision"
           id="path3423"
           d="m 403.2164,610.12207 0,0 -0.64301,-0.37096 -1.89192,3.27687 0.643,0.37096 z" />
        <g
           id="g3425"
           transform="matrix(1.2365536,0,0,1.2365536,-30.267967,421.4611)"
           style="font-size:medium;font-family:Helvetica;fill:#ff0000;stroke-linecap:round">
          <g
             style="text-anchor:start;fill:#ff0000"
             id="text3427">
            <path
               d="m 355.9534,159.49367 c 0,-1.18815 0.31901,-2.11832 0.95703,-2.79053 0.63802,-0.67219 1.46159,-1.00829 2.4707,-1.0083 0.66081,1e-5 1.25651,0.15788 1.78711,0.47363 0.5306,0.31576 0.93506,0.75603 1.21338,1.3208 0.27832,0.56479 0.41748,1.20525 0.41748,1.92139 0,0.72591 -0.14649,1.37533 -0.43945,1.94824 -0.29298,0.57292 -0.70801,1.00668 -1.24512,1.30127 -0.53711,0.2946 -1.11654,0.4419 -1.73828,0.4419 -0.67383,0 -1.27604,-0.16276 -1.80664,-0.48829 -0.5306,-0.32552 -0.93262,-0.76985 -1.20605,-1.333 -0.27344,-0.56315 -0.41016,-1.15885 -0.41016,-1.78711 z m 0.97656,0.0146 c 0,0.86263 0.23193,1.54215 0.6958,2.03857 0.46387,0.49642 1.04574,0.74463 1.74561,0.74463 0.71288,0 1.29964,-0.25065 1.76025,-0.75195 0.46061,-0.5013 0.69091,-1.21257 0.69092,-2.13379 -1e-5,-0.58268 -0.0985,-1.09131 -0.29541,-1.52588 -0.19695,-0.43457 -0.48503,-0.77148 -0.86426,-1.01074 -0.37923,-0.23926 -0.80485,-0.35888 -1.27685,-0.35889 -0.67058,1e-5 -1.24756,0.23031 -1.73096,0.69092 -0.4834,0.46061 -0.7251,1.22966 -0.7251,2.30713 z"
               style="font-size:10px;font-family:Arial;fill:#ff0000"
               id="path3641" />
            <path
               d="m 363.48148,157.29867 0,-0.66284 2.02514,0 0,0.66284 z"
               style="font-size:7.5px;font-family:Arial;fill:#ff0000"
               id="path3643" />
          </g>
        </g>
        <g
           id="g3433"
           transform="matrix(1.2365536,0,0,1.2365536,-30.267967,421.4611)"
           style="font-size:medium;font-family:Helvetica;fill:#ff0000;stroke-linecap:round">
          <path
             d="m 354.83,152.04 0,0 0.26,-0.15 0.26,-0.15 1.64,2.82 -0.26,0.15 -0.26,0.15 z"
             id="path3435"
             style="fill:#ff0000;fill-rule:evenodd;stroke:#000000;stroke-width:0;stroke-linejoin:miter;shape-rendering:geometricPrecision" />
        </g>
        <g
           id="g3437"
           transform="matrix(1.2365536,0,0,1.2365536,-30.267967,421.4611)"
           style="font-size:medium;font-family:Helvetica;fill:#000080;stroke-linecap:round">
          <path
             d="m 369.14,142.63 0,0 0.15,-0.26 0.15,-0.26 7.59,4.38 0,0.35 0,0.35 z"
             id="path3439"
             style="fill:#000080;fill-rule:evenodd;stroke:#000000;stroke-width:0;stroke-linejoin:miter;shape-rendering:geometricPrecision" />
        </g>
        <g
           id="g3441"
           transform="matrix(1.2365536,0,0,1.2365536,-30.267967,421.4611)"
           style="font-size:medium;font-family:Helvetica;fill:#000080;stroke-linecap:round">
          <path
             d="m 377.03,147.19 0,0 0,-0.35 0,-0.35 12.43,-7.18 0,0.35 0,0.35 z"
             id="path3443"
             style="fill:#000080;fill-rule:evenodd;stroke:#000000;stroke-width:0;stroke-linejoin:miter;shape-rendering:geometricPrecision" />
        </g>
        <g
           id="g3445"
           transform="matrix(1.2365536,0,0,1.2365536,-30.267967,421.4611)"
           style="font-size:medium;font-family:Helvetica;fill:#000080;stroke-linecap:round">
          <g
             style="text-anchor:start;fill:#000080"
             id="text3447">
            <path
               d="m 399.05173,150.41 0,-7.1582 0.97168,0 3.75976,5.62012 0,-5.62012 0.90821,0 0,7.1582 -0.97168,0 -3.75977,-5.625 0,5.625 z"
               style="font-size:10px;font-family:Arial;fill:#000080"
               id="path3646" />
            <path
               d="m 407.39523,145.47208 0,-1.47216 -1.46118,0 0,-0.61524 1.46118,0 0,-1.46118 0.62256,0 0,1.46118 1.46118,0 0,0.61524 -1.46118,0 0,1.47216 z"
               style="font-size:7.5px;font-family:Arial;fill:#000080"
               id="path3648" />
          </g>
        </g>
        <g
           id="g3453"
           transform="matrix(1.2365536,0,0,1.2365536,-30.267967,421.4611)"
           style="font-size:medium;font-family:Helvetica;fill:#000080;stroke-linecap:round">
          <path
             d="m 389.46,140.01 0,0 0,-0.35 0,-0.35 8.4,4.86 -0.15,0.26 -0.15,0.26 z"
             id="path3455"
             style="fill:#000080;fill-rule:evenodd;stroke:#000000;stroke-width:0;stroke-linejoin:miter;shape-rendering:geometricPrecision" />
        </g>
        <g
           id="g3457"
           transform="matrix(1.2365536,0,0,1.2365536,-30.267967,421.4611)"
           style="font-size:medium;font-family:Helvetica;fill:#000080;stroke-linecap:round">
          <path
             d="m 410.06,142.46 0,0 -0.15,-0.26 -0.15,-0.26 4.4,-2.54 0.15,0.26 0.15,0.26 z"
             id="path3459"
             style="fill:#000080;fill-rule:evenodd;stroke:#000000;stroke-width:0;stroke-linejoin:miter;shape-rendering:geometricPrecision" />
        </g>
        <g
           id="g3461"
           transform="matrix(1.2365536,0,0,1.2365536,-30.267967,421.4611)"
           style="font-size:medium;font-family:Helvetica;fill:#000080;stroke-linecap:round">
          <path
             d="m 398.71,151.74 0,0 0.26,0.15 0.26,0.15 -4.29,7.42 -0.26,-0.15 -0.26,-0.15 z"
             id="path3463"
             style="fill:#000080;fill-rule:evenodd;stroke:#000000;stroke-width:0;stroke-linejoin:miter;shape-rendering:geometricPrecision" />
        </g>
        <g
           id="g3465"
           transform="matrix(1.2365536,0,0,1.2365536,-30.267967,421.4611)"
           style="font-size:medium;font-family:Helvetica;fill:#000080;stroke-linecap:round">
          <path
             d="m 404.53,152.04 0,0 0.26,-0.15 0.26,-0.15 4.29,7.42 -0.26,0.15 -0.26,0.15 z"
             id="path3467"
             style="fill:#000080;fill-rule:evenodd;stroke:#000000;stroke-width:0;stroke-linejoin:miter;shape-rendering:geometricPrecision" />
        </g>
        <g
           style="font-size:medium;font-family:Helvetica;stroke-linecap:round"
           id="g3469"
           transform="matrix(1.2365536,0,0,1.2365536,-30.267967,421.4611)">
          <path
             d="m 290.04,124.96 0,0 0,0.35 0,0.35 -12.47,-7.2 0,-0.35 0,-0.35 z"
             id="path3471"
             style="fill:#000000;fill-rule:evenodd;stroke:#000000;stroke-width:0;stroke-linejoin:miter;shape-rendering:geometricPrecision" />
        </g>
        <g
           style="font-size:medium;font-family:Helvetica;stroke-linecap:round"
           id="g3473"
           transform="matrix(1.2365536,0,0,1.2365536,-30.267967,421.4611)">
          <path
             d="m 277.57,117.76 0,0 0,0.35 0,0.35 -12.47,7.2 0,-0.35 0,-0.35 z"
             id="path3475"
             style="fill:#000000;fill-rule:evenodd;stroke:#000000;stroke-width:0;stroke-linejoin:miter;shape-rendering:geometricPrecision" />
        </g>
        <g
           style="font-size:medium;font-family:Helvetica;stroke-linecap:round"
           id="g3477"
           transform="matrix(1.2365536,0,0,1.2365536,-30.267967,421.4611)">
          <path
             d="m 265.1,124.96 0,0 0,0.35 0,0.35 -12.47,-7.2 0,-0.35 0,-0.35 z"
             id="path3479"
             style="fill:#000000;fill-rule:evenodd;stroke:#000000;stroke-width:0;stroke-linejoin:miter;shape-rendering:geometricPrecision" />
        </g>
        <g
           style="font-size:medium;font-family:Helvetica;stroke-linecap:round"
           id="g3481"
           transform="matrix(1.2365536,0,0,1.2365536,-30.267967,421.4611)">
          <path
             d="m 252.63,117.76 0,0 0,0.35 0,0.35 -12.48,7.2 0,-0.35 0,-0.35 z"
             id="path3483"
             style="fill:#000000;fill-rule:evenodd;stroke:#000000;stroke-width:0;stroke-linejoin:miter;shape-rendering:geometricPrecision" />
        </g>
        <g
           style="font-size:medium;font-family:Helvetica;stroke-linecap:round"
           id="g3485"
           transform="matrix(1.2365536,0,0,1.2365536,-30.267967,421.4611)">
          <path
             d="m 240.15,124.96 0,0 0,0.35 0,0.35 -12.47,-7.2 0,-0.35 0,-0.35 z"
             id="path3487"
             style="fill:#000000;fill-rule:evenodd;stroke:#000000;stroke-width:0;stroke-linejoin:miter;shape-rendering:geometricPrecision" />
        </g>
        <g
           style="font-size:medium;font-family:Helvetica;stroke-linecap:round"
           id="g3489"
           transform="matrix(1.2365536,0,0,1.2365536,-30.267967,421.4611)">
          <path
             d="m 227.68,117.76 0,0 0,0.35 0,0.35 -12.47,7.2 0,-0.35 0,-0.35 z"
             id="path3491"
             style="fill:#000000;fill-rule:evenodd;stroke:#000000;stroke-width:0;stroke-linejoin:miter;shape-rendering:geometricPrecision" />
        </g>
        <g
           style="font-size:medium;font-family:Helvetica;stroke-linecap:round"
           id="g3493"
           transform="matrix(1.2365536,0,0,1.2365536,-30.267967,421.4611)">
          <path
             d="m 215.21,124.96 0,0 0,0.35 0,0.35 -12.55,-7.25 0.08,-0.3 0.08,-0.3 z"
             id="path3495"
             style="fill:#000000;fill-rule:evenodd;stroke:#000000;stroke-width:0;stroke-linejoin:miter;shape-rendering:geometricPrecision" />
        </g>
        <g
           style="font-size:medium;font-family:Helvetica;stroke-linecap:round"
           id="g3497"
           transform="matrix(1.2365536,0,0,1.2365536,-30.267967,421.4611)">
          <path
             d="m 202.82,117.81 0,0 -0.08,0.3 -0.08,0.3 -14.24,0 -0.08,-0.3 -0.08,-0.3 z"
             id="path3499"
             style="fill:#000000;fill-rule:evenodd;stroke:#000000;stroke-width:0;stroke-linejoin:miter;shape-rendering:geometricPrecision" />
          <path
             style="stroke:#000000;stroke-width:0.60000002"
             d="m 202.05,120.7 -13.02,0"
             id="line3501" />
        </g>
        <g
           style="font-size:medium;font-family:Helvetica;stroke-linecap:round"
           id="g3511"
           transform="matrix(1.2365536,0,0,1.2365536,-30.267967,421.4611)">
          <path
             d="m 188.26,117.81 0,0 0.08,0.3 0.08,0.3 -12.55,7.25 0,-0.35 0,-0.35 z"
             id="path3513"
             style="fill:#000000;fill-rule:evenodd;stroke:#000000;stroke-width:0;stroke-linejoin:miter;shape-rendering:geometricPrecision" />
        </g>
        <g
           style="font-size:medium;font-family:Helvetica;stroke-linecap:round"
           id="g3515"
           transform="matrix(1.2365536,0,0,1.2365536,-30.267967,421.4611)">
          <path
             d="m 175.87,124.96 0,0 0,0.35 0,0.35 -12.47,-7.2 0,-0.35 0,-0.35 z"
             id="path3517"
             style="fill:#000000;fill-rule:evenodd;stroke:#000000;stroke-width:0;stroke-linejoin:miter;shape-rendering:geometricPrecision" />
        </g>
        <path
           d="m 171.78489,567.07764 0,0 0,0.4328 0,0.43279 -15.41982,8.90319 0,-0.4328 0,-0.43279 z"
           id="path3521"
           style="font-size:15px;font-family:Helvetica;fill:#000000;fill-rule:evenodd;stroke:#000000;stroke-width:0;stroke-linecap:round;stroke-linejoin:miter;shape-rendering:geometricPrecision" />
        <g
           style="font-size:medium;font-family:Helvetica;stroke-linecap:round"
           id="g3523"
           transform="matrix(1.2365536,0,0,1.2365536,-30.267967,421.4611)">
          <path
             d="m 150.93,124.96 0,0 0,0.35 0,0.35 -12.47,-7.2 0,-0.35 0,-0.35 z"
             id="path3525"
             style="fill:#000000;fill-rule:evenodd;stroke:#000000;stroke-width:0;stroke-linejoin:miter;shape-rendering:geometricPrecision" />
        </g>
        <g
           style="font-size:medium;font-family:Helvetica;stroke-linecap:round"
           id="g3527"
           transform="matrix(1.2365536,0,0,1.2365536,-30.267967,421.4611)">
          <path
             d="m 138.46,117.76 0,0 0,0.35 0,0.35 -12.47,7.2 0,-0.35 0,-0.35 z"
             id="path3529"
             style="fill:#000000;fill-rule:evenodd;stroke:#000000;stroke-width:0;stroke-linejoin:miter;shape-rendering:geometricPrecision" />
        </g>
        <g
           style="font-size:medium;font-family:Helvetica;stroke-linecap:round"
           id="g3531"
           transform="matrix(1.2365536,0,0,1.2365536,-30.267967,421.4611)">
          <path
             d="m 125.99,124.96 0,0 0,0.35 0,0.35 -12.47,-7.2 0,-0.35 0,-0.35 z"
             id="path3533"
             style="fill:#000000;fill-rule:evenodd;stroke:#000000;stroke-width:0;stroke-linejoin:miter;shape-rendering:geometricPrecision" />
        </g>
        <g
           style="font-size:medium;font-family:Helvetica;stroke-linecap:round"
           id="g3535"
           transform="matrix(1.2365536,0,0,1.2365536,-30.267967,421.4611)">
          <path
             d="m 113.52,117.76 0,0 0,0.35 0,0.35 -12.47,7.2 0,-0.35 0,-0.35 z"
             id="path3537"
             style="fill:#000000;fill-rule:evenodd;stroke:#000000;stroke-width:0;stroke-linejoin:miter;shape-rendering:geometricPrecision" />
        </g>
        <g
           style="font-size:medium;font-family:Helvetica;stroke-linecap:round"
           id="g3539"
           transform="matrix(1.2365536,0,0,1.2365536,-30.267967,421.4611)">
          <path
             d="m 101.05,124.96 0,0 0,0.35 0,0.35 -12.62,-7.29 0.15,-0.26 0.15,-0.26 z"
             id="path3541"
             style="fill:#000000;fill-rule:evenodd;stroke:#000000;stroke-width:0;stroke-linejoin:miter;shape-rendering:geometricPrecision" />
        </g>
        <g
           style="font-size:medium;font-family:Helvetica;stroke-linecap:round"
           id="g3543"
           transform="matrix(1.2365536,0,0,1.2365536,-30.267967,421.4611)">
          <path
             d="m 265.14,139.34 0,0 0,0.35 0,0.35 -12.43,7.17 0,-0.35 0,-0.35 z"
             id="path3545"
             style="fill:#000000;fill-rule:evenodd;stroke:#000000;stroke-width:0;stroke-linejoin:miter;shape-rendering:geometricPrecision" />
        </g>
        <g
           style="font-size:medium;font-family:Helvetica;stroke-linecap:round"
           id="g3547"
           transform="matrix(1.2365536,0,0,1.2365536,-30.267967,421.4611)">
          <path
             d="m 252.71,146.51 0,0 0,0.35 0,0.35 -12.43,-7.17 0,-0.35 0,-0.35 z"
             id="path3549"
             style="fill:#000000;fill-rule:evenodd;stroke:#000000;stroke-width:0;stroke-linejoin:miter;shape-rendering:geometricPrecision" />
        </g>
        <g
           style="font-size:medium;font-family:Helvetica;stroke-linecap:round"
           id="g3551"
           transform="matrix(1.2365536,0,0,1.2365536,-30.267967,421.4611)">
          <path
             d="m 240.28,139.34 0,0 0,0.35 0,0.35 -12.42,7.17 0,-0.35 0,-0.35 z"
             id="path3553"
             style="fill:#000000;fill-rule:evenodd;stroke:#000000;stroke-width:0;stroke-linejoin:miter;shape-rendering:geometricPrecision" />
        </g>
        <g
           style="font-size:medium;font-family:Helvetica;stroke-linecap:round"
           id="g3555"
           transform="matrix(1.2365536,0,0,1.2365536,-30.267967,421.4611)">
          <path
             d="m 227.86,146.51 0,0 0,0.35 0,0.35 -12.43,-7.17 0,-0.35 0,-0.35 z"
             id="path3557"
             style="fill:#000000;fill-rule:evenodd;stroke:#000000;stroke-width:0;stroke-linejoin:miter;shape-rendering:geometricPrecision" />
        </g>
        <g
           style="font-size:medium;font-family:Helvetica;stroke-linecap:round"
           id="g3559"
           transform="matrix(1.2365536,0,0,1.2365536,-30.267967,421.4611)">
          <path
             d="m 215.43,139.34 0,0 0,0.35 0,0.35 -12.43,7.17 0,-0.35 0,-0.35 z"
             id="path3561"
             style="fill:#000000;fill-rule:evenodd;stroke:#000000;stroke-width:0;stroke-linejoin:miter;shape-rendering:geometricPrecision" />
        </g>
        <g
           style="font-size:medium;font-family:Helvetica;stroke-linecap:round"
           id="g3563"
           transform="matrix(1.2365536,0,0,1.2365536,-30.267967,421.4611)">
          <path
             d="m 203,146.51 0,0 0,0.35 0,0.35 -12.43,-7.17 0,-0.35 0,-0.35 z"
             id="path3565"
             style="fill:#000000;fill-rule:evenodd;stroke:#000000;stroke-width:0;stroke-linejoin:miter;shape-rendering:geometricPrecision" />
        </g>
        <g
           style="font-size:medium;font-family:Helvetica;stroke-linecap:round"
           id="g3567"
           transform="matrix(1.2365536,0,0,1.2365536,-30.267967,421.4611)">
          <path
             d="m 190.57,139.34 0,0 0,0.35 0,0.35 -12.42,7.17 0,-0.35 0,-0.35 z"
             id="path3569"
             style="fill:#000000;fill-rule:evenodd;stroke:#000000;stroke-width:0;stroke-linejoin:miter;shape-rendering:geometricPrecision" />
        </g>
        <g
           style="font-size:medium;font-family:Helvetica;stroke-linecap:round"
           id="g3571"
           transform="matrix(1.2365536,0,0,1.2365536,-30.267967,421.4611)">
          <path
             d="m 178.15,146.51 0,0 0,0.35 0,0.35 -12.43,-7.17 0,-0.35 0,-0.35 z"
             id="path3573"
             style="fill:#000000;fill-rule:evenodd;stroke:#000000;stroke-width:0;stroke-linejoin:miter;shape-rendering:geometricPrecision" />
        </g>
        <g
           style="font-size:medium;font-family:Helvetica;stroke-linecap:round"
           id="g3575"
           transform="matrix(1.2365536,0,0,1.2365536,-30.267967,421.4611)">
          <path
             d="m 165.72,139.34 0,0 0,0.35 0,0.35 -12.43,7.17 0,-0.35 0,-0.35 z"
             id="path3577"
             style="fill:#000000;fill-rule:evenodd;stroke:#000000;stroke-width:0;stroke-linejoin:miter;shape-rendering:geometricPrecision" />
        </g>
        <g
           style="font-size:medium;font-family:Helvetica;stroke-linecap:round"
           id="g3579"
           transform="matrix(1.2365536,0,0,1.2365536,-30.267967,421.4611)">
          <path
             d="m 153.29,146.51 0,0 0,0.35 0,0.35 -12.43,-7.17 0,-0.35 0,-0.35 z"
             id="path3581"
             style="fill:#000000;fill-rule:evenodd;stroke:#000000;stroke-width:0;stroke-linejoin:miter;shape-rendering:geometricPrecision" />
        </g>
        <g
           style="font-size:medium;font-family:Helvetica;stroke-linecap:round"
           id="g3583"
           transform="matrix(1.2365536,0,0,1.2365536,-30.267967,421.4611)">
          <path
             d="m 140.86,139.34 0,0 0,0.35 0,0.35 -12.42,7.17 0,-0.35 0,-0.35 z"
             id="path3585"
             style="fill:#000000;fill-rule:evenodd;stroke:#000000;stroke-width:0;stroke-linejoin:miter;shape-rendering:geometricPrecision" />
        </g>
        <g
           style="font-size:medium;font-family:Helvetica;stroke-linecap:round"
           id="g3587"
           transform="matrix(1.2365536,0,0,1.2365536,-30.267967,421.4611)">
          <path
             d="m 128.44,146.51 0,0 0,0.35 0,0.35 -12.43,-7.17 0,-0.35 0,-0.35 z"
             id="path3589"
             style="fill:#000000;fill-rule:evenodd;stroke:#000000;stroke-width:0;stroke-linejoin:miter;shape-rendering:geometricPrecision" />
        </g>
        <g
           style="font-size:medium;font-family:Helvetica;stroke-linecap:round"
           id="g3591"
           transform="matrix(1.2365536,0,0,1.2365536,-30.267967,421.4611)">
          <path
             d="m 116.01,139.34 0,0 0,0.35 0,0.35 -12.43,7.17 0,-0.35 0,-0.35 z"
             id="path3593"
             style="fill:#000000;fill-rule:evenodd;stroke:#000000;stroke-width:0;stroke-linejoin:miter;shape-rendering:geometricPrecision" />
        </g>
        <g
           style="font-size:medium;font-family:Helvetica;stroke-linecap:round"
           id="g3595"
           transform="matrix(1.2365536,0,0,1.2365536,-30.267967,421.4611)">
          <path
             d="m 103.58,146.51 0,0 0,0.35 0,0.35 -12.58,-7.26 0.15,-0.26 0.15,-0.26 z"
             id="path3597"
             style="fill:#000000;fill-rule:evenodd;stroke:#000000;stroke-width:0;stroke-linejoin:miter;shape-rendering:geometricPrecision" />
        </g>
      </g>
      <text
         xml:space="preserve"
         style="font-style:normal;font-weight:normal;font-size:20px;line-height:125%;font-family:sans-serif;letter-spacing:0px;word-spacing:0px;fill:#000000;fill-opacity:1;stroke:none;stroke-width:1px;stroke-linecap:butt;stroke-linejoin:miter;stroke-opacity:1"
         x="370.74698"
         y="568.80719"
         id="text7526"><tspan
           id="tspan7528"
           x="370.74698"
           y="568.80719"
           style="font-style:normal;font-variant:normal;font-weight:bold;font-stretch:normal;font-family:'Noto Sans';-inkscape-font-specification:'Noto Sans Bold'">Phospholipid</tspan></text>
    </g>
  </g>
</svg>
