<?xml version="1.0" encoding="UTF-8" standalone="no"?>
<svg
   xmlns:dc="http://purl.org/dc/elements/1.1/"
   xmlns:cc="http://creativecommons.org/ns#"
   xmlns:rdf="http://www.w3.org/1999/02/22-rdf-syntax-ns#"
   xmlns:svg="http://www.w3.org/2000/svg"
   xmlns="http://www.w3.org/2000/svg"
   viewBox="0 0 990 765"
   height="765"
   width="990"
   xml:space="preserve"
   version="1.1"
   id="svg2"><metadata
     id="metadata8"><rdf:RDF><cc:Work
         rdf:about=""><dc:format>image/svg+xml</dc:format><dc:type
           rdf:resource="http://purl.org/dc/dcmitype/StillImage" /><dc:title></dc:title></cc:Work></rdf:RDF></metadata><defs
     id="defs6" /><g
     transform="matrix(1.25,0,0,-1.25,0,765)"
     id="g10"><g
       id="g12"><path
         id="path14"
         style="fill:#000000;fill-opacity:1;fill-rule:nonzero;stroke:none"
         d="m 112.219,328.605 1.781,-4.144 38.496,7.496 1.024,-2.375 -38.497,-7.496 1.782,-4.145 -15.711,2.719 11.125,7.945 z" /><path
         id="path16"
         style="fill:#000000;fill-opacity:1;fill-rule:nonzero;stroke:none"
         d="m 156.949,346.602 -38.5,7.496 1.785,4.144 -15.711,-2.719 11.125,-7.945 1.782,4.145 38.496,-7.496 1.023,2.375 z" /><path
         id="path18"
         style="fill:#000000;fill-opacity:1;fill-rule:nonzero;stroke:none"
         d="m 375.086,377.113 -99.828,-39.66 2.39,-6.117 -37.867,-5.953 31.715,21.691 2.391,-6.117 99.828,39.664 1.371,-3.508 z" /><path
         id="path20"
         style="fill:#000000;fill-opacity:1;fill-rule:nonzero;stroke:none"
         d="m 177.027,321.844 1.274,-1.317 -50.727,-33.277 2.219,-2.301 -20.531,-8.637 14.824,14.555 2.219,-2.301 50.722,33.278 z" /><path
         id="path22"
         style="fill:#000000;fill-opacity:1;fill-rule:nonzero;stroke:none"
         d="m 129.09,257.727 10.242,17.472 2.285,-1.879 37.817,43.196 1.308,-1.078 -37.816,-43.196 2.281,-1.879 -16.117,-12.636 z" /><path
         id="path24"
         style="fill:#000000;fill-opacity:1;fill-rule:nonzero;stroke:none"
         d="m 707.43,174.316 -5.555,9.399 4.316,0 0,26.973 2.473,0 0,-26.973 4.316,0 -5.55,-9.399 z" /><path
         id="path26"
         style="fill:#000000;fill-opacity:1;fill-rule:nonzero;stroke:none"
         d="m 306.156,312.316 3.922,-3.316 -29.09,-18.527 18.996,27.058 3.922,-3.316 68.989,65.406 2.246,-1.898 -68.985,-65.407 z" /><path
         id="path28"
         style="fill:#000000;fill-opacity:1;fill-rule:nonzero;stroke:none"
         d="m 309.824,275.992 12.059,30.141 3.883,-2.574 48.933,76.98 2.227,-1.477 -48.934,-76.98 3.883,-2.574 -22.051,-23.516 z" /><path
         id="path30"
         style="fill:#000000;fill-opacity:1;fill-rule:nonzero;stroke:none"
         d="m 127.051,398.547 1.164,-0.805 26.152,37.793 2.028,-1.402 6.503,14.976 -11.726,-11.363 2.031,-1.402 -26.152,-37.797 z" /><path
         id="path32"
         style="fill:#000000;fill-opacity:1;fill-rule:nonzero;stroke:none"
         d="m 95.473,398.82 1.203,0.582 -18.906,39.153 2.105,1.015 -9.297,12.34 3.887,-14.949 2.101,1.016 18.907,-39.157 z" /><path
         id="path34"
         style="fill:#000000;fill-opacity:1;fill-rule:nonzero;stroke:none"
         d="m 117.105,456.914 -3.64,19.133 -3.637,-19.133 2.828,0 0,-54.906 1.621,0 0,54.906 2.828,0 z" /><path
         id="path36"
         style="fill:#000000;fill-opacity:1;fill-rule:nonzero;stroke:none"
         d="m 293.809,409.172 0,26.973 4.312,0 -5.551,9.398 -5.55,-9.398 4.316,0 0,-26.973 2.473,0 z" /><path
         id="path38"
         style="fill:#000000;fill-opacity:1;fill-rule:nonzero;stroke:none"
         d="m 467.363,139.656 3.207,-1.551 28.84,59.727 1.836,-0.887 -28.84,-59.726 3.207,-1.547 -14.175,-18.824 5.925,22.808 z" /><path
         id="path40"
         style="fill:#000000;fill-opacity:1;fill-rule:nonzero;stroke:none"
         d="m 521.305,143.434 4.316,0 0,52.394 2.473,0 0,-52.394 4.316,0 -5.555,-18.262 -5.55,18.262 z" /><path
         id="path42"
         style="fill:#000000;fill-opacity:1;fill-rule:nonzero;stroke:none"
         d="m 338.008,156.848 5.926,22.808 3.207,-1.551 28.839,59.727 1.836,-0.887 -28.839,-59.726 3.207,-1.547 -14.176,-18.824 z" /><path
         id="path44"
         style="fill:#000000;fill-opacity:1;fill-rule:nonzero;stroke:none"
         d="m 404.664,203.773 4.316,0 -5.55,-11.171 -5.555,11.171 4.316,0 0,32.055 2.473,0 0,-32.055 z" /><path
         id="path46"
         style="fill:#000000;fill-opacity:1;fill-rule:nonzero;stroke:none"
         d="m 595.84,385.281 65.683,-19.261 0.774,4.726 21.898,-12.789 -23.886,0.633 0.773,4.722 -65.684,19.258 0.442,2.711 z" /><path
         id="path48"
         style="fill:#000000;fill-opacity:1;fill-rule:nonzero;stroke:none"
         d="m 562.938,404.91 46.191,53.59 -2.469,2.891 19.274,14.961 -12.918,-22.395 -2.469,2.887 -46.192,-53.59 -1.417,1.656 z" /><path
         id="path50"
         style="fill:#000000;fill-opacity:1;fill-rule:nonzero;stroke:none"
         d="m 580.656,496.543 -0.968,-25.836 -3.536,1.402 -15.828,-68.957 -2.023,0.805 15.828,68.957 -3.535,1.398 10.062,22.231 z" /><path
         id="path52"
         style="fill:#000000;fill-opacity:1;fill-rule:nonzero;stroke:none"
         d="m 616.062,326.395 -27.675,39.992 1.23,0.851 27.676,-39.992 2.145,1.488 6.882,-15.851 -12.406,12.027 2.148,1.485 z" /><path
         id="path54"
         style="fill:#000000;fill-opacity:1;fill-rule:nonzero;stroke:none"
         d="m 534.625,295.969 9.922,-22.848 -17.887,17.336 3.098,2.141 -39.891,57.652 1.774,1.227 39.89,-57.653 3.094,2.145 z" /><path
         id="path56"
         style="fill:#000000;fill-opacity:1;fill-rule:nonzero;stroke:none"
         d="m 417.898,287.672 -14.175,-18.824 5.925,22.808 3.207,-1.551 28.84,59.727 1.836,-0.887 -28.84,-59.726 3.207,-1.547 z" /><path
         id="path58"
         style="fill:#000000;fill-opacity:1;fill-rule:nonzero;stroke:none"
         d="m 467.906,344.973 2.473,0 0,-83.754 4.316,0 -5.55,-29.192 -5.555,29.192 4.316,0 0,83.754 z" /><path
         id="path60"
         style="fill:#000000;fill-opacity:1;fill-rule:nonzero;stroke:none"
         d="m 468.68,519.617 2.023,1.457 38.969,-87.574 3.531,2.539 9.039,-33.789 -18.121,27.25 3.527,2.543 -38.968,87.574 z" /><path
         id="path62"
         style="fill:#000000;fill-opacity:1;fill-rule:nonzero;stroke:none"
         d="m 401.523,442.098 -16.406,-24.946 6.156,29.215 3.985,-1.66 32.371,77.703 2.281,-0.949 -32.371,-77.707 3.984,-1.656 z" /><path
         id="path64"
         style="fill:#000000;fill-opacity:1;fill-rule:nonzero;stroke:none"
         d="m 332.793,416.23 12.367,30.836 4.5,-2.418 52.102,79.555 2.582,-1.387 -52.102,-79.554 4.5,-2.418 -23.949,-24.614 z" /><path
         id="path66"
         style="fill:#000000;fill-opacity:1;fill-rule:nonzero;stroke:none"
         d="m 449.715,390.316 -5.551,33.028 4.313,0 0,94.769 2.472,0 0,-94.769 4.317,0 -5.551,-33.028 z" /><g
         transform="matrix(1,0,0,-0.863181,0,612)"
         id="g68"><path
           id="path70"
           style="fill:#ffffff;fill-opacity:1;fill-rule:nonzero;stroke:#000000;stroke-width:1.08781695;stroke-linecap:butt;stroke-linejoin:miter;stroke-miterlimit:4;stroke-dasharray:none;stroke-opacity:1"
           d="m 521.039,59.912 c 0,24.247 -37.051,43.901 -82.754,43.901 -45.703,0 -82.75,-19.654 -82.75,-43.901 0,-24.247 37.047,-43.901 82.75,-43.901 45.703,0 82.754,19.654 82.754,43.901 z" /></g><text
         id="text72"
         style="font-variant:normal;font-weight:bold;font-size:15.19999981px;font-family:'DejaVu Sans';-inkscape-font-specification:DejaVuSans-Bold;writing-mode:lr-tb;fill:#000000;fill-opacity:1;fill-rule:nonzero;stroke:none"
         transform="matrix(1,0,0,-1,389.43248,578.28571)"><tspan
           id="tspan74"
           y="0"
           x="0 11.5824 16.7808 27.2232 32.4216 42.863998 53.777599 58.976002 67.974403 78.264801 83.463203 88.661598">Biologically</tspan><tspan
           id="tspan76"
           y="19"
           x="6.3382783 11.992679 27.815878 38.729477 49.171879 56.665478 63.93108 74.221481 85.028679">Important</tspan><tspan
           id="tspan78"
           y="38"
           x="-19.979685 -4.8556857 5.3891144 14.433114 21.926714 32.369114 48.192314 58.680313 63.878716 74.184311 83.182716 93.989914 99.233917 109.53951">Macromolecules</tspan></text>
<g
         transform="matrix(1,0,0,-1,0,612)"
         id="g80"><path
           id="path82"
           style="fill:#ffffff;fill-opacity:1;fill-rule:nonzero;stroke:#000000;stroke-width:0.80000001;stroke-linecap:butt;stroke-linejoin:miter;stroke-miterlimit:4;stroke-dasharray:none;stroke-opacity:1"
           d="m 253.145,132.57 86.855,0 0,32.574 -86.855,0 0,-32.574 z" /></g><g
         transform="matrix(1,0,0,-1,0,612)"
         id="g84"><path
           id="path86"
           style="fill:#ffffff;fill-opacity:1;fill-rule:nonzero;stroke:#000000;stroke-width:0.80000001;stroke-linecap:butt;stroke-linejoin:miter;stroke-miterlimit:4;stroke-dasharray:none;stroke-opacity:1"
           d="m 2.285,128.57 86.859,0 0,32.574 -86.859,0 0,-32.574 z" /></g><g
         transform="matrix(1,0,0,-1,0,612)"
         id="g88"><path
           id="path90"
           style="fill:#ffffff;fill-opacity:1;fill-rule:nonzero;stroke:#000000;stroke-width:0.80000001;stroke-linecap:butt;stroke-linejoin:miter;stroke-miterlimit:4;stroke-dasharray:none;stroke-opacity:1"
           d="m 144.57,129.145 86.859,0 0,32.57 -86.859,0 0,-32.57 z" /></g><g
         transform="matrix(1,0,0,-1,0,612)"
         id="g92"><path
           id="path94"
           style="fill:#ffffff;fill-opacity:1;fill-rule:nonzero;stroke:#000000;stroke-width:0.80000001;stroke-linecap:butt;stroke-linejoin:miter;stroke-miterlimit:4;stroke-dasharray:none;stroke-opacity:1"
           d="m 525.715,85.145 86.855,0 0,32.57 -86.855,0 0,-32.57 z" /></g><g
         transform="matrix(1,0,0,-1,0,612)"
         id="g96"><path
           id="path98"
           style="fill:#ffffff;fill-opacity:1;fill-rule:nonzero;stroke:#000000;stroke-width:0.80000001;stroke-linecap:butt;stroke-linejoin:miter;stroke-miterlimit:4;stroke-dasharray:none;stroke-opacity:1"
           d="m 625.715,101.145 86.855,0 0,32.57 -86.855,0 0,-32.57 z" /></g><g
         transform="matrix(1,0,0,-1,0,612)"
         id="g100"><path
           id="path102"
           style="fill:#ffffff;fill-opacity:1;fill-rule:nonzero;stroke:#000000;stroke-width:0.80000001;stroke-linecap:butt;stroke-linejoin:miter;stroke-miterlimit:4;stroke-dasharray:none;stroke-opacity:1"
           d="m 65.715,204.57 86.855,0 0,32.574 -86.855,0 0,-32.574 z" /></g><g
         transform="matrix(1,0,0,-1,0,612)"
         id="g104"><path
           id="path106"
           style="fill:#ffffff;fill-opacity:1;fill-rule:nonzero;stroke:#000000;stroke-width:0.80000001;stroke-linecap:butt;stroke-linejoin:miter;stroke-miterlimit:4;stroke-dasharray:none;stroke-opacity:1"
           d="m 257.145,203.43 86.855,0 0,32.57 -86.855,0 0,-32.57 z" /></g><g
         transform="matrix(1,0,0,-1,0,612)"
         id="g108"><path
           id="path110"
           style="fill:#ffffff;fill-opacity:1;fill-rule:nonzero;stroke:#000000;stroke-width:0.80000001;stroke-linecap:butt;stroke-linejoin:miter;stroke-miterlimit:4;stroke-dasharray:none;stroke-opacity:1"
           d="m 349.145,194.285 86.855,0 0,32.57 -86.855,0 0,-32.57 z" /></g><g
         transform="matrix(1,0,0,-1,0,612)"
         id="g112"><path
           id="path114"
           style="fill:#ffffff;fill-opacity:1;fill-rule:nonzero;stroke:#000000;stroke-width:0.80000001;stroke-linecap:butt;stroke-linejoin:miter;stroke-miterlimit:4;stroke-dasharray:none;stroke-opacity:1"
           d="m 414.855,228.57 86.859,0 0,32.574 -86.859,0 0,-32.574 z" /></g><g
         transform="matrix(1,0,0,-1,0,612)"
         id="g116"><path
           id="path118"
           style="fill:#ffffff;fill-opacity:1;fill-rule:nonzero;stroke:#000000;stroke-width:0.80000001;stroke-linecap:butt;stroke-linejoin:miter;stroke-miterlimit:4;stroke-dasharray:none;stroke-opacity:1"
           d="m 504,210.285 86.855,0 0,32.57 -86.855,0 0,-32.57 z" /></g><g
         transform="matrix(1,0,0,-1,0,612)"
         id="g120"><path
           id="path122"
           style="fill:#ffffff;fill-opacity:1;fill-rule:nonzero;stroke:#000000;stroke-width:0.80000001;stroke-linecap:butt;stroke-linejoin:miter;stroke-miterlimit:4;stroke-dasharray:none;stroke-opacity:1"
           d="m 686.285,226.875 86.859,0 0,32.57 -86.859,0 0,-32.57 z" /></g><g
         transform="matrix(1,0,0,-1,0,612)"
         id="g124"><path
           id="path126"
           style="fill:#ffffff;fill-opacity:1;fill-rule:nonzero;stroke:#000000;stroke-width:0.80000001;stroke-linecap:butt;stroke-linejoin:miter;stroke-miterlimit:4;stroke-dasharray:none;stroke-opacity:1"
           d="m 618.742,309.699 86.855,0 0,32.57 -86.855,0 0,-32.57 z" /></g><g
         transform="matrix(1,0,0,-1,0,612)"
         id="g128"><path
           id="path130"
           style="fill:#ffffff;fill-opacity:1;fill-rule:nonzero;stroke:#000000;stroke-width:0.80000001;stroke-linecap:butt;stroke-linejoin:miter;stroke-miterlimit:4;stroke-dasharray:none;stroke-opacity:1"
           d="m 529.145,338.855 86.855,0 0,32.574 -86.855,0 0,-32.574 z" /></g><g
         transform="matrix(1,0,0,-1,0,612)"
         id="g132"><path
           id="path134"
           style="fill:#ffffff;fill-opacity:1;fill-rule:nonzero;stroke:#000000;stroke-width:0.80000001;stroke-linecap:butt;stroke-linejoin:miter;stroke-miterlimit:4;stroke-dasharray:none;stroke-opacity:1"
           d="m 662.855,372 86.859,0 0,32.57 -86.859,0 0,-32.57 z" /></g><g
         transform="matrix(1,0,0,-1,0,612)"
         id="g136"><path
           id="path138"
           style="fill:#ffffff;fill-opacity:1;fill-rule:nonzero;stroke:#000000;stroke-width:0.80000001;stroke-linecap:butt;stroke-linejoin:miter;stroke-miterlimit:4;stroke-dasharray:none;stroke-opacity:1"
           d="m 577.145,408 86.855,0 0,32.57 -86.855,0 0,-32.57 z" /></g><g
         transform="matrix(1,0,0,-1,0,612)"
         id="g140"><path
           id="path142"
           style="fill:#ffffff;fill-opacity:1;fill-rule:nonzero;stroke:#000000;stroke-width:0.80000001;stroke-linecap:butt;stroke-linejoin:miter;stroke-miterlimit:4;stroke-dasharray:none;stroke-opacity:1"
           d="m 676,439.43 86.855,0 0,32.57 -86.855,0 0,-32.57 z" /></g><g
         transform="matrix(1,0,0,-1,0,612)"
         id="g144"><path
           id="path146"
           style="fill:#ffffff;fill-opacity:1;fill-rule:nonzero;stroke:#000000;stroke-width:0.80000001;stroke-linecap:butt;stroke-linejoin:miter;stroke-miterlimit:4;stroke-dasharray:none;stroke-opacity:1"
           d="m 609.145,478.285 86.855,0 0,32.57 -86.855,0 0,-32.57 z" /></g><g
         transform="matrix(1,0,0,-1,0,612)"
         id="g148"><path
           id="path150"
           style="fill:#ffffff;fill-opacity:1;fill-rule:nonzero;stroke:#000000;stroke-width:0.80000001;stroke-linecap:butt;stroke-linejoin:miter;stroke-miterlimit:4;stroke-dasharray:none;stroke-opacity:1"
           d="m 516.57,488 86.859,0 0,32.57 -86.859,0 0,-32.57 z" /></g><g
         transform="matrix(1,0,0,-1,0,612)"
         id="g152"><path
           id="path154"
           style="fill:#ffffff;fill-opacity:1;fill-rule:nonzero;stroke:#000000;stroke-width:0.80000001;stroke-linecap:butt;stroke-linejoin:miter;stroke-miterlimit:4;stroke-dasharray:none;stroke-opacity:1"
           d="m 422.855,492 86.859,0 0,32.57 -86.859,0 0,-32.57 z" /></g><g
         transform="matrix(1,0,0,-1,0,612)"
         id="g156"><path
           id="path158"
           style="fill:#ffffff;fill-opacity:1;fill-rule:nonzero;stroke:#000000;stroke-width:0.80000001;stroke-linecap:butt;stroke-linejoin:miter;stroke-miterlimit:4;stroke-dasharray:none;stroke-opacity:1"
           d="m 450.285,382.855 86.859,0 0,32.574 -86.859,0 0,-32.574 z" /></g><g
         transform="matrix(1,0,0,-1,0,612)"
         id="g160"><path
           id="path162"
           style="fill:#ffffff;fill-opacity:1;fill-rule:nonzero;stroke:#000000;stroke-width:0.80000001;stroke-linecap:butt;stroke-linejoin:miter;stroke-miterlimit:4;stroke-dasharray:none;stroke-opacity:1"
           d="m 381.715,420.57 86.855,0 0,32.574 -86.855,0 0,-32.574 z" /></g><g
         transform="matrix(1,0,0,-1,0,612)"
         id="g164"><path
           id="path166"
           style="fill:#ffffff;fill-opacity:1;fill-rule:nonzero;stroke:#000000;stroke-width:0.80000001;stroke-linecap:butt;stroke-linejoin:miter;stroke-miterlimit:4;stroke-dasharray:none;stroke-opacity:1"
           d="m 321.145,457.145 86.855,0 0,32.57 -86.855,0 0,-32.57 z" /></g><g
         transform="matrix(1,0,0,-1,0,612)"
         id="g168"><path
           id="path170"
           style="fill:#ffffff;fill-opacity:1;fill-rule:nonzero;stroke:#000000;stroke-width:0.80000001;stroke-linecap:butt;stroke-linejoin:miter;stroke-miterlimit:4;stroke-dasharray:none;stroke-opacity:1"
           d="m 347.43,343.43 86.855,0 0,32.57 -86.855,0 0,-32.57 z" /></g><g
         transform="matrix(1,0,0,-1,0,612)"
         id="g172"><path
           id="path174"
           style="fill:#ffffff;fill-opacity:1;fill-rule:nonzero;stroke:#000000;stroke-width:0.80000001;stroke-linecap:butt;stroke-linejoin:miter;stroke-miterlimit:4;stroke-dasharray:none;stroke-opacity:1"
           d="m 245.715,338.855 86.855,0 0,32.574 -86.855,0 0,-32.574 z" /></g><g
         transform="matrix(1,0,0,-1,0,612)"
         id="g176"><path
           id="path178"
           style="fill:#ffffff;fill-opacity:1;fill-rule:nonzero;stroke:#000000;stroke-width:0.80000001;stroke-linecap:butt;stroke-linejoin:miter;stroke-miterlimit:4;stroke-dasharray:none;stroke-opacity:1"
           d="m 221.715,461.145 86.855,0 0,32.57 -86.855,0 0,-32.57 z" /></g><g
         transform="matrix(1,0,0,-1,0,612)"
         id="g180"><path
           id="path182"
           style="fill:#ffffff;fill-opacity:1;fill-rule:nonzero;stroke:#000000;stroke-width:0.80000001;stroke-linecap:butt;stroke-linejoin:miter;stroke-miterlimit:4;stroke-dasharray:none;stroke-opacity:1"
           d="m 144,412 86.855,0 0,32.57 -86.855,0 0,-32.57 z" /></g><g
         transform="matrix(1,0,0,-1,0,612)"
         id="g184"><path
           id="path186"
           style="fill:#ffffff;fill-opacity:1;fill-rule:nonzero;stroke:#000000;stroke-width:0.80000001;stroke-linecap:butt;stroke-linejoin:miter;stroke-miterlimit:4;stroke-dasharray:none;stroke-opacity:1"
           d="m 18.855,329.145 86.859,0 0,32.57 -86.859,0 0,-32.57 z" /></g><g
         transform="matrix(1,0,0,-1,0,612)"
         id="g188"><path
           id="path190"
           style="fill:#ffffff;fill-opacity:1;fill-rule:nonzero;stroke:#000000;stroke-width:0.80000001;stroke-linecap:butt;stroke-linejoin:miter;stroke-miterlimit:4;stroke-dasharray:none;stroke-opacity:1"
           d="m 9.715,286.285 86.855,0 0,32.57 -86.855,0 0,-32.57 z" /></g><g
         transform="matrix(1,0,0,-1,0,612)"
         id="g192"><path
           id="path194"
           style="fill:#ffffff;fill-opacity:1;fill-rule:nonzero;stroke:#000000;stroke-width:0.80000001;stroke-linecap:butt;stroke-linejoin:miter;stroke-miterlimit:4;stroke-dasharray:none;stroke-opacity:1"
           d="m 12.57,241.145 86.859,0 0,32.57 -86.859,0 0,-32.57 z" /></g><g
         transform="matrix(1,0,0,-1,0,612)"
         id="g196"><path
           id="path198"
           style="fill:#ffffff;fill-opacity:1;fill-rule:nonzero;stroke:#000000;stroke-width:0.80000001;stroke-linecap:butt;stroke-linejoin:miter;stroke-miterlimit:4;stroke-dasharray:none;stroke-opacity:1"
           d="m 650.285,571.43 86.859,0 0,32.57 -86.859,0 0,-32.57 z" /></g><g
         transform="matrix(1,0,0,-1,0,612)"
         id="g200"><path
           id="path202"
           style="fill:#ffffff;fill-opacity:1;fill-rule:nonzero;stroke:#000000;stroke-width:0.80000001;stroke-linecap:butt;stroke-linejoin:miter;stroke-miterlimit:4;stroke-dasharray:none;stroke-opacity:1"
           d="m 194.855,296.57 86.859,0 0,32.574 -86.859,0 0,-32.574 z" /></g><path
         id="path204"
         style="fill:#ffffff;fill-opacity:0.77011503;fill-rule:nonzero;stroke:none"
         d="m 275.77,365.117 124.796,0 c 4.106,0 7.411,-3.305 7.411,-7.41 l 0,-5.129 c 0,-4.105 -3.305,-7.41 -7.411,-7.41 l -124.796,0 c -4.106,0 -7.411,3.305 -7.411,7.41 l 0,5.129 c 0,4.105 3.305,7.41 7.411,7.41 z" /><g
         transform="matrix(1,0,0,-1,0,612)"
         id="g206"><path
           id="path208"
           style="fill:none;stroke:#000000;stroke-width:1.24904704;stroke-linecap:butt;stroke-linejoin:miter;stroke-miterlimit:4;stroke-dasharray:1.249047, 2.498095;stroke-dashoffset:0;stroke-opacity:1"
           d="m 275.77,246.883 124.796,0 c 4.106,0 7.411,3.305 7.411,7.41 l 0,5.129 c 0,4.105 -3.305,7.41 -7.411,7.41 l -124.796,0 c -4.106,0 -7.411,-3.305 -7.411,-7.41 l 0,-5.129 c 0,-4.105 3.305,-7.41 7.411,-7.41 z" /></g><text
         id="text210"
         style="font-variant:normal;font-weight:normal;font-size:10.49302673px;font-family:'DejaVu Sans';-inkscape-font-specification:DejaVuSans;writing-mode:lr-tb;fill:#000000;fill-opacity:1;fill-rule:nonzero;stroke:none"
         transform="matrix(1,0,0,-1,272.06785,352.18583)"><tspan
           id="tspan212"
           y="0"
           x="0 3.08495 9.7270365 15.487708 18.394276 25.036362 31.688942 38.142155 43.630005 46.956295 51.048576 57.722141 61.048431 71.268639 77.721848 80.628418 87.039658 91.352295 94.678581 101.33116 105.43394 111.84518 118.48726 125.13984 130.59621">Includes (3 major groups)</tspan></text>
<path
         id="path214"
         style="fill:#ffffff;fill-opacity:0.76436797;fill-rule:nonzero;stroke:none"
         d="m 369.719,498.836 123.988,0 c 4.109,0 7.414,-3.305 7.414,-7.414 l 0,-5.129 c 0,-4.109 -3.305,-7.414 -7.414,-7.414 l -123.988,0 c -4.106,0 -7.41,3.305 -7.41,7.414 l 0,5.129 c 0,4.109 3.304,7.414 7.41,7.414 z" /><g
         transform="matrix(1,0,0,-1,0,612)"
         id="g216"><path
           id="path218"
           style="fill:none;stroke:#000000;stroke-width:1.88320005;stroke-linecap:butt;stroke-linejoin:miter;stroke-miterlimit:4;stroke-dasharray:1.8832, 3.7664;stroke-dashoffset:0;stroke-opacity:1"
           d="m 369.719,113.164 123.988,0 c 4.109,0 7.414,3.305 7.414,7.414 l 0,5.129 c 0,4.109 -3.305,7.414 -7.414,7.414 l -123.988,0 c -4.106,0 -7.41,-3.305 -7.41,-7.414 l 0,-5.129 c 0,-4.109 3.304,-7.414 7.41,-7.414 z" /></g><text
         id="text220"
         style="font-variant:normal;font-weight:normal;font-size:15.84977913px;font-family:'DejaVu Sans';-inkscape-font-specification:DejaVuSans;writing-mode:lr-tb;fill:#000000;fill-opacity:1;fill-rule:nonzero;stroke:none"
         transform="matrix(1,0,0,-1,400.64436,483.47394)"><tspan
           id="tspan222"
           y="0"
           x="0 4.6598349 14.692745 23.394274 27.784662 37.817574 47.866333">Include</tspan></text>
<text
         id="text224"
         style="font-variant:normal;font-weight:normal;font-size:9.60000038px;font-family:'DejaVu Sans';-inkscape-font-specification:DejaVuSans;writing-mode:lr-tb;fill:#000000;fill-opacity:1;fill-rule:nonzero;stroke:none"
         transform="matrix(1,0,0,-1,185.71428,390.85717)"><tspan
           id="tspan226"
           y="0"
           x="0 9.4848003 15.5616 18.2208 23.491199 29.568001 32.611198 38.515202 42.259201">Which are</tspan><tspan
           id="tspan228"
           y="12"
           x="0 5.2704 11.3472 17.222401 19.881599 25.9872 30.9792 34.0224 39.888">chains of</tspan></text>
<text
         id="text230"
         style="font-variant:normal;font-weight:normal;font-size:9.59999943px;font-family:'DejaVu Sans';-inkscape-font-specification:DejaVuSans;writing-mode:lr-tb;fill:#000000;fill-opacity:1;fill-rule:nonzero;stroke:none"
         transform="matrix(0.96327765,-0.2685073,-0.2685073,-0.96327765,607.24632,382.93109)"><tspan
           id="tspan232"
           y="0"
           x="0 9.4847994 15.5616 18.220798 23.491199 29.567999 32.611198 38.515198 42.259197">Which are</tspan><tspan
           id="tspan234"
           y="11.999999"
           x="0 5.2703996 11.347199 17.222399 19.881599 25.987198 30.979198 34.0224 39.887997">chains of</tspan></text>
<path
         id="path236"
         style="fill:#ffffff;fill-opacity:0.77011503;fill-rule:nonzero;stroke:none"
         d="m 277.758,435.301 32.797,0 c 4.211,0 7.601,-3.387 7.601,-7.598 l 0,-5.262 c 0,-4.211 -3.39,-7.597 -7.601,-7.597 l -32.797,0 c -4.211,0 -7.602,3.386 -7.602,7.597 l 0,5.262 c 0,4.211 3.391,7.598 7.602,7.598 z" /><g
         transform="matrix(1,0,0,-1,0,612)"
         id="g238"><path
           id="path240"
           style="fill:none;stroke:#000000;stroke-width:0.74160898;stroke-linecap:butt;stroke-linejoin:miter;stroke-miterlimit:4;stroke-dasharray:0.741609, 1.483218;stroke-dashoffset:0;stroke-opacity:1"
           d="m 277.758,176.699 32.797,0 c 4.211,0 7.601,3.387 7.601,7.598 l 0,5.262 c 0,4.211 -3.39,7.597 -7.601,7.597 l -32.797,0 c -4.211,0 -7.602,-3.386 -7.602,-7.597 l 0,-5.262 c 0,-4.211 3.391,-7.598 7.602,-7.598 z" /></g><text
         id="text242"
         style="font-variant:normal;font-weight:normal;font-size:9.60000038px;font-family:'DejaVu Sans';-inkscape-font-specification:DejaVuSans;writing-mode:lr-tb;fill:#000000;fill-opacity:1;fill-rule:nonzero;stroke:none"
         transform="matrix(1,0,0,-1,274.28572,422.28573)"><tspan
           id="tspan244"
           y="0"
           x="0 6.0576 11.7312 17.6064 26.9568 33.043201 35.7024">Example</tspan></text>
<text
         id="text246"
         style="font-variant:normal;font-weight:normal;font-size:9.60000038px;font-family:'DejaVu Sans';-inkscape-font-specification:DejaVuSans;writing-mode:lr-tb;fill:#000000;fill-opacity:1;fill-rule:nonzero;stroke:none"
         transform="matrix(-0.01228469,-0.99992454,-0.99992454,0.01228469,284.94291,228.86912)"><tspan
           id="tspan248"
           y="0"
           x="0 6.0576005 11.7312 17.606401 26.9568 33.043201 35.7024">Example</tspan></text>
<text
         id="text250"
         style="font-variant:normal;font-weight:normal;font-size:9.59999943px;font-family:'DejaVu Sans';-inkscape-font-specification:DejaVuSans;writing-mode:lr-tb;fill:#000000;fill-opacity:1;fill-rule:nonzero;stroke:none"
         transform="matrix(0.5925946,-0.80550086,-0.80550086,-0.5925946,591.61965,365.78988)"><tspan
           id="tspan252"
           y="0"
           x="0 5.8751998 8.5344 13.5264 19.392 22.4352 27.993599 34.0704 39.935997 47.779198">also known</tspan><tspan
           id="tspan254"
           y="12"
           x="21.534374 27.409573">as</tspan></text>
<text
         id="text256"
         style="font-variant:normal;font-weight:normal;font-size:9.60000038px;font-family:'DejaVu Sans';-inkscape-font-specification:DejaVuSans;writing-mode:lr-tb;fill:#000000;fill-opacity:1;fill-rule:nonzero;stroke:none"
         transform="matrix(0.51398552,0.85779886,0.85779886,-0.51398552,696.75718,303.96463)"><tspan
           id="tspan258"
           y="0"
           x="0 5.8751998 8.5344 13.5264 19.392 22.4352 27.993599 34.0704 39.936001 47.779202">also known</tspan><tspan
           id="tspan260"
           y="12"
           x="21.534374 27.409575">as</tspan></text>
<text
         id="text262"
         style="font-variant:normal;font-weight:normal;font-size:9.59999943px;font-family:'DejaVu Sans';-inkscape-font-specification:DejaVuSans;writing-mode:lr-tb;fill:#000000;fill-opacity:1;fill-rule:nonzero;stroke:none"
         transform="matrix(0.47850845,0.87808295,0.87808295,-0.47850845,414.74209,302.73684)"><tspan
           id="tspan264"
           y="0"
           x="0 5.8655996 11.9424 17.846399 20.889599 26.966398 33.071999 35.731197">one unit</tspan><tspan
           id="tspan266"
           y="12"
           x="-13.274995 -8.0045948 -2.1293952 0.52980477 3.1890047 9.0930042 15.179404 18.222605 21.966604 26.958605 33.064205 39.150604 45.025803 48.971405">called (sugar)</tspan></text>
<text
         id="text268"
         style="font-variant:normal;font-weight:normal;font-size:9.60000038px;font-family:'DejaVu Sans';-inkscape-font-specification:DejaVuSans;writing-mode:lr-tb;fill:#000000;fill-opacity:1;fill-rule:nonzero;stroke:none"
         transform="matrix(1,0,0,-1,449.35425,286.28569)"><tspan
           id="tspan270"
           y="0"
           x="0 3.7632 11.6064 17.472 20.5152 26.591999 32.697601 35.3568">two unit</tspan><tspan
           id="tspan272"
           y="12"
           x="-13.462502 -8.1921024 -2.3169024 0.34229761 3.0014975 8.9054976 14.991898 18.035097 21.779099 26.771097 32.876698 38.963097 44.838299 48.783897">called (sugar)</tspan></text>
<text
         id="text274"
         style="font-variant:normal;font-weight:normal;font-size:9.59999943px;font-family:'DejaVu Sans';-inkscape-font-specification:DejaVuSans;writing-mode:lr-tb;fill:#000000;fill-opacity:1;fill-rule:nonzero;stroke:none"
         transform="matrix(0.59882077,-0.80088307,-0.80088307,-0.59882077,498.34143,344.039)"><tspan
           id="tspan276"
           y="0"
           x="0 9.350399 15.225599 21.302399 26.975998 30.019197 36.124798 42.201599 44.860798 48.623997">many units</tspan><tspan
           id="tspan278"
           y="11.999999"
           x="-6.1968765 -0.92647672 4.9487228 7.6079226 10.267122 16.171122 22.257523 25.300722 29.044722 34.03672 40.142323 46.228722 52.10392 56.049519">called (sugar)</tspan></text>
<path
         id="path280"
         style="fill:#ffffff;fill-opacity:0.80459798;fill-rule:nonzero;stroke:none"
         d="m 148.023,350.363 -0.625,-28.566 c -0.089,-4.113 -3.472,-7.356 -7.589,-7.266 l -3.997,0.09 c -4.117,0.09 -7.355,3.473 -7.265,7.59 l 0.625,28.562 c 0.09,4.118 3.476,7.356 7.59,7.266 l 4,-0.09 c 4.113,-0.09 7.351,-3.472 7.261,-7.586 z" /><g
         transform="matrix(-0.0218796,-1,-1,0.0218796,0,612)"
         id="g282"><path
           id="path284"
           style="fill:none;stroke:#000000;stroke-width:1.43965495;stroke-linecap:butt;stroke-linejoin:miter;stroke-miterlimit:4;stroke-dasharray:1.439655, 2.879311;stroke-dashoffset:0;stroke-opacity:1"
           d="m 258.274,-153.674 28.567,0 c 4.113,-0.001 7.428,3.31 7.428,7.427 l -0.002,3.996 c 0,4.117 -3.311,7.428 -7.428,7.428 l -28.562,0 c -4.117,0 -7.428,-3.314 -7.428,-7.427 l 0.002,-4 c 0,-4.114 3.31,-7.424 7.423,-7.424 z" /></g><text
         id="text286"
         style="font-variant:normal;font-weight:normal;font-size:9.60000038px;font-family:'DejaVu Sans';-inkscape-font-specification:DejaVuSans;writing-mode:lr-tb;fill:#000000;fill-opacity:1;fill-rule:nonzero;stroke:none"
         transform="matrix(-0.02187437,-0.99976073,-0.99976073,0.02187437,134.93481,352.93441)"><tspan
           id="tspan288"
           y="0"
           x="0 6.7007999 12.576 18.6528 21.7248 27.811199">Can be</tspan></text>
<path
         id="path290"
         style="fill:#ffffff;fill-opacity:0.72413803;fill-rule:nonzero;stroke:none"
         d="m 149.137,308.609 22.297,-25.289 c 1.886,-2.136 1.683,-5.375 -0.457,-7.258 l -2.571,-2.269 c -2.136,-1.883 -5.375,-1.68 -7.258,0.457 l -22.296,25.289 c -1.887,2.137 -1.68,5.375 0.457,7.258 l 2.57,2.265 c 2.137,1.887 5.375,1.684 7.258,-0.453 z" /><g
         transform="matrix(0.881713,-1,-1,-0.881713,0,612)"
         id="g292"><path
           id="path294"
           style="fill:none;stroke:#000000;stroke-width:0.96009701;stroke-linecap:butt;stroke-linejoin:miter;stroke-miterlimit:4;stroke-dasharray:0.960097, 1.920195;stroke-dashoffset:0;stroke-opacity:1"
           d="m 244.673,66.595 25.289,0 c 2.138,-0.001 3.859,1.719 3.856,3.858 l 0.002,2.572 c 0,2.136 -1.721,3.857 -3.857,3.856 l -25.289,0 c -2.138,0.001 -3.857,-1.722 -3.856,-3.858 l 0,-2.57 c -0.002,-2.138 1.719,-3.859 3.855,-3.858 z" /></g><text
         id="text296"
         style="font-variant:normal;font-weight:normal;font-size:9.59999943px;font-family:'DejaVu Sans';-inkscape-font-specification:DejaVuSans;writing-mode:lr-tb;fill:#000000;fill-opacity:1;fill-rule:nonzero;stroke:none"
         transform="matrix(0.66135158,-0.75007606,-0.75007606,-0.66135158,140.12301,304.31608)"><tspan
           id="tspan298"
           y="0"
           x="0 4.9920001 11.0688 17.155199 23.232 29.337599 31.996799 35.759998">subunits</tspan></text>
<path
         id="path300"
         style="fill:#000000;fill-opacity:1;fill-rule:nonzero;stroke:none"
         d="m 229.887,281.57 -13.68,-59.988 3.223,-0.516 -8.914,-20.242 0.621,21.574 3.222,-0.519 13.68,59.988 1.848,-0.297 z" /><text
         id="text302"
         style="font-variant:normal;font-weight:normal;font-size:9.59999943px;font-family:'DejaVu Sans';-inkscape-font-specification:DejaVuSans;writing-mode:lr-tb;fill:#000000;fill-opacity:1;fill-rule:nonzero;stroke:none"
         transform="matrix(0.27932543,0.96019649,0.96019649,-0.27932543,204.53214,210.42478)"><tspan
           id="tspan304"
           y="0"
           x="0 5.2704 11.136 20.486399 26.5728 32.4384 38.515198 44.419197 50.495998 54.287998 57.3312 63.196796">component of</tspan></text>
<path
         id="path306"
         style="fill:#ffffff;fill-opacity:0.74712596;fill-rule:nonzero;stroke:none"
         d="m 70.848,433.188 89.531,0 c 4.133,0 7.461,-3.329 7.461,-7.461 l 0,-5.168 c 0,-4.133 -3.328,-7.457 -7.461,-7.457 l -89.531,0 c -4.133,0 -7.461,3.324 -7.461,7.457 l 0,5.168 c 0,4.132 3.328,7.461 7.461,7.461 z" /><g
         transform="matrix(1,0,0,-1,0,612)"
         id="g308"><path
           id="path310"
           style="fill:none;stroke:#000000;stroke-width:1.75440001;stroke-linecap:butt;stroke-linejoin:miter;stroke-miterlimit:4;stroke-dasharray:1.7544, 3.5088;stroke-dashoffset:0;stroke-opacity:1"
           d="m 70.848,178.812 89.531,0 c 4.133,0 7.461,3.329 7.461,7.461 l 0,5.168 c 0,4.133 -3.328,7.457 -7.461,7.457 l -89.531,0 c -4.133,0 -7.461,-3.324 -7.461,-7.457 l 0,-5.168 c 0,-4.132 3.328,-7.461 7.461,-7.461 z" /></g><text
         id="text312"
         style="font-variant:normal;font-weight:normal;font-size:13.77674294px;font-family:'DejaVu Sans';-inkscape-font-specification:DejaVuSans;writing-mode:lr-tb;fill:#000000;fill-opacity:1;fill-rule:nonzero;stroke:none"
         transform="matrix(1,0,0,-1,80.617517,417.87148)"><tspan
           id="tspan314"
           y="0"
           x="0 7.1639066 15.884584 24.61904 33.339718 42.101727 45.917885 51.318367">subunits</tspan></text>
<text
         id="text316"
         style="font-variant:normal;font-weight:normal;font-size:9.60000038px;font-family:'DejaVu Sans';-inkscape-font-specification:DejaVuSans;writing-mode:lr-tb;fill:#000000;fill-opacity:1;fill-rule:nonzero;stroke:none"
         transform="matrix(1,0,0,-1,624.25454,157.14286)"><tspan
           id="tspan318"
           y="0"
           x="0 5.1936002 11.0592 17.136 23.212799">Found</tspan><tspan
           id="tspan320"
           y="12"
           x="10.293754 12.952953">in</tspan><tspan
           id="tspan322"
           y="-38.857182"
           x="89.714317 94.907913 100.77351 106.85031 112.92712">Found</tspan><tspan
           id="tspan324"
           y="-26.857182"
           x="100.00806 102.66727">in</tspan></text>
<text
         id="text326"
         style="font-variant:normal;font-weight:normal;font-size:9.60000038px;font-family:'DejaVu Sans';-inkscape-font-specification:DejaVuSans;writing-mode:lr-tb;fill:#000000;fill-opacity:1;fill-rule:nonzero;stroke:none"
         transform="matrix(0.78369444,-0.62114653,-0.62114653,-0.78369444,568.5793,233.81758)"><tspan
           id="tspan328"
           y="0"
           x="0 4.9920001 11.068801 16.339201 22.444801 25.488001 31.363201">such as</tspan></text>
<text
         id="text330"
         style="font-variant:normal;font-weight:normal;font-size:9.59999943px;font-family:'DejaVu Sans';-inkscape-font-specification:DejaVuSans;writing-mode:lr-tb;fill:#000000;fill-opacity:1;fill-rule:nonzero;stroke:none"
         transform="matrix(0.7467115,-0.66514806,-0.66514806,-0.7467115,624.61523,262.1099)"><tspan
           id="tspan332"
           y="0"
           x="0 4.9919996 11.068799 16.339199 22.444799 25.487999 31.363199">such as</tspan></text>
<path
         id="path334"
         style="fill:#ffffff;fill-opacity:0.76436797;fill-rule:nonzero;stroke:none"
         d="m 549.578,445.836 57.965,0 c 4.164,0 7.516,-3.356 7.516,-7.52 l 0,-5.203 c 0,-4.168 -3.352,-7.519 -7.516,-7.519 l -57.965,0 c -4.168,0 -7.519,3.351 -7.519,7.519 l 0,5.203 c 0,4.164 3.351,7.52 7.519,7.52 z" /><g
         transform="matrix(1,0,0,-1,0,612)"
         id="g336"><path
           id="path338"
           style="fill:none;stroke:#000000;stroke-width:1.36000001;stroke-linecap:butt;stroke-linejoin:miter;stroke-miterlimit:4;stroke-dasharray:1.36, 2.72;stroke-dashoffset:0;stroke-opacity:1"
           d="m 549.578,166.164 57.965,0 c 4.164,0 7.516,3.356 7.516,7.52 l 0,5.203 c 0,4.168 -3.352,7.519 -7.516,7.519 l -57.965,0 c -4.168,0 -7.519,-3.351 -7.519,-7.519 l 0,-5.203 c 0,-4.164 3.351,-7.52 7.519,-7.52 z" /></g><text
         id="text340"
         style="font-variant:normal;font-weight:normal;font-size:12.17152596px;font-family:'DejaVu Sans';-inkscape-font-specification:DejaVuSans;writing-mode:lr-tb;fill:#000000;fill-opacity:1;fill-rule:nonzero;stroke:none"
         transform="matrix(1,0,0,-1,547.81313,432.18456)"><tspan
           id="tspan342"
           y="0"
           x="0 7.680233 14.873605 22.322578 34.177647 41.894394 45.265903 52.751392">Examples</tspan></text>
<path
         id="path344"
         style="fill:#000000;fill-opacity:1;fill-rule:nonzero;stroke:none"
         d="m 705.656,314.883 18.168,27.933 0.942,-0.507 -18.168,-27.934 1.644,-0.891 -8.445,-8.589 4.215,10.878 1.644,-0.89 z" /><path
         id="path346"
         style="fill:#000000;fill-opacity:1;fill-rule:nonzero;stroke:none"
         d="m 653,232.246 2.57,1.035 8.227,-11.019 -14.836,8.359 2.566,1.035 -33.089,27.801 1.472,0.59 33.09,-27.801 z" /><path
         id="path348"
         style="fill:#000000;fill-opacity:1;fill-rule:nonzero;stroke:none"
         d="m 616.371,204.547 -13.902,8.234 2.406,1.02 -31.008,27.379 1.379,0.582 31.008,-27.379 2.406,1.015 7.711,-10.851 z" /><path
         id="path350"
         style="fill:#ffffff;fill-opacity:0.77011503;fill-rule:nonzero;stroke:none"
         d="m 354.344,230.984 62.008,0 c 4.168,0 7.519,-3.355 7.519,-7.523 l 0,-5.207 c 0,-4.168 -3.351,-7.524 -7.519,-7.524 l -62.008,0 c -4.168,0 -7.524,3.356 -7.524,7.524 l 0,5.207 c 0,4.168 3.356,7.523 7.524,7.523 z" /><g
         transform="matrix(1,0,0,-1,0,612)"
         id="g352"><path
           id="path354"
           style="fill:none;stroke:#000000;stroke-width:1.26955295;stroke-linecap:butt;stroke-linejoin:miter;stroke-miterlimit:4;stroke-dasharray:1.269553, 2.539107;stroke-dashoffset:0;stroke-opacity:1"
           d="m 354.344,381.016 62.008,0 c 4.168,0 7.519,3.355 7.519,7.523 l 0,5.207 c 0,4.168 -3.351,7.524 -7.519,7.524 l -62.008,0 c -4.168,0 -7.524,-3.356 -7.524,-7.524 l 0,-5.207 c 0,-4.168 3.356,-7.523 7.524,-7.523 z" /></g><text
         id="text356"
         style="font-variant:normal;font-weight:normal;font-size:12.17152596px;font-family:'DejaVu Sans';-inkscape-font-specification:DejaVuSans;writing-mode:lr-tb;fill:#000000;fill-opacity:1;fill-rule:nonzero;stroke:none"
         transform="matrix(1,0,0,-1,356.62129,217.16156)"><tspan
           id="tspan358"
           y="0"
           x="0 7.680233 14.873605 22.322578 34.177647 41.894394 45.265903 52.751392">Examples</tspan></text>
<path
         id="path360"
         style="fill:#ffffff;fill-opacity:0.80459798;fill-rule:nonzero;stroke:none"
         d="m 486.316,183.621 55.329,0 c 3.488,0 6.296,-2.809 6.296,-6.297 l 0,-4.363 c 0,-3.488 -2.808,-6.297 -6.296,-6.297 l -55.329,0 c -3.492,0 -6.3,2.809 -6.3,6.297 l 0,4.363 c 0,3.488 2.808,6.297 6.3,6.297 z" /><g
         transform="matrix(1,0,0,-1,0,612)"
         id="g362"><path
           id="path364"
           style="fill:none;stroke:#000000;stroke-width:1.31540501;stroke-linecap:butt;stroke-linejoin:miter;stroke-miterlimit:4;stroke-dasharray:1.315405, 2.63081;stroke-dashoffset:0;stroke-opacity:1"
           d="m 486.316,428.379 55.329,0 c 3.488,0 6.296,2.809 6.296,6.297 l 0,4.363 c 0,3.488 -2.808,6.297 -6.296,6.297 l -55.329,0 c -3.492,0 -6.3,-2.809 -6.3,-6.297 l 0,-4.363 c 0,-3.488 2.808,-6.297 6.3,-6.297 z" /></g><text
         id="text366"
         style="font-variant:normal;font-weight:normal;font-size:11.70065594px;font-family:'DejaVu Sans';-inkscape-font-specification:DejaVuSans;writing-mode:lr-tb;fill:#000000;fill-opacity:1;fill-rule:nonzero;stroke:none"
         transform="matrix(1,0,0,-0.93067278,485.00072,172.04859)"><tspan
           id="tspan368"
           y="0"
           x="0 7.3831139 14.298202 21.459003 32.855442 40.273659 43.51474 50.710644">Examples</tspan></text>
<g
         transform="matrix(1,0,0,-1,0,612)"
         id="g370"><path
           id="path372"
           style="fill:#ffffff;fill-opacity:1;fill-rule:nonzero;stroke:#000000;stroke-width:0.80000001;stroke-linecap:butt;stroke-linejoin:miter;stroke-miterlimit:4;stroke-dasharray:none;stroke-opacity:1"
           d="m 81.145,93.145 86.855,0 0,32.57 -86.855,0 0,-32.57 z" /></g><text
         id="text374"
         style="font-variant:normal;font-weight:bold;font-size:14.39999962px;font-family:'DejaVu Sans';-inkscape-font-specification:DejaVuSans-Bold;writing-mode:lr-tb;fill:#ff0000;fill-opacity:1;fill-rule:nonzero;stroke:none"
         transform="matrix(1,0,0,-1,81.142859,500.57142)"><tspan
           id="tspan376"
           y="0"
           x="0 10.5408 20.7792 30.672001 39.240002 49.535999 59.8176 69.523201 76.406403">Phosphate</tspan><tspan
           id="tspan378"
           y="315.42859"
           x="511.42856 521.79657 528.67975 538.38538 545.52777 554.05255">Starch</tspan></text>
<path
         id="path380"
         style="fill:#000000;fill-opacity:1;fill-rule:nonzero;stroke:none"
         d="m 254.609,386.844 0.36,2.726 -74.371,-0.101 0.632,4.75 -26.734,-6.149 25.109,-6.078 0.629,4.754 74.375,0.098 z" /><path
         id="path382"
         style="fill:#000000;fill-opacity:1;fill-rule:nonzero;stroke:none"
         d="m 278.168,239.359 -1.039,-66.316 3.562,-0.059 -4.945,-23.039 -4.219,23.184 3.563,-0.055 1.035,66.317 2.043,-0.032 z" /><g
         transform="matrix(1,0,0,-1,0,612)"
         id="g384"><path
           id="path386"
           style="fill:#ffffff;fill-opacity:1;fill-rule:nonzero;stroke:#000000;stroke-width:0.80000001;stroke-linecap:butt;stroke-linejoin:miter;stroke-miterlimit:4;stroke-dasharray:none;stroke-opacity:1"
           d="m 109.715,356 86.855,0 0,32.57 -86.855,0 0,-32.57 z" /></g><g
         transform="matrix(1,0,0,-1,0,612)"
         id="g388"><path
           id="path390"
           style="fill:#ffffff;fill-opacity:1;fill-rule:nonzero;stroke:#000000;stroke-width:0.80000001;stroke-linecap:butt;stroke-linejoin:miter;stroke-miterlimit:4;stroke-dasharray:none;stroke-opacity:1"
           d="m 157.715,256.57 86.855,0 0,32.574 -86.855,0 0,-32.574 z" /></g><text
         id="text392"
         style="font-variant:normal;font-weight:bold;font-size:14.39999962px;font-family:'DejaVu Sans';-inkscape-font-specification:DejaVuSans-Bold;writing-mode:lr-tb;fill:#ff0000;fill-opacity:1;fill-rule:nonzero;stroke:none"
         transform="matrix(1,0,0,-1,14.285715,350.28573)"><tspan
           id="tspan394"
           y="0"
           x="0 10.368 20.073601 26.9568 37.2384 44.337601 54.043201 60.926399 70.689598">Saturated</tspan><tspan
           id="tspan396"
           y="217.71431"
           x="211.42856 221.26376 229.83176 236.71497 243.81416 253.75017 264.04617 273.80936">Estrogen</tspan><tspan
           id="tspan398"
           y="-157.71426"
           x="525.14282 530.49963 540.73804 549.30603 559.58765 564.51245 569.43726">Insulin</tspan><tspan
           id="tspan400"
           y="162.28574"
           x="157.62321 168.17842 177.94162 182.86642">Cell</tspan><tspan
           id="tspan402"
           y="180.28574"
           x="129.5826 143.91058 153.6738 168.66418 178.96019 186.10258 195.8082 206.04659">Membrane</tspan></text>
<path
         id="path404"
         style="fill:#000000;fill-opacity:1;fill-rule:nonzero;stroke:none"
         d="m 616.734,145.43 4.317,0 0,26.968 2.472,0 0,-26.968 4.313,0 -5.551,-9.403 -5.551,9.403 z" /><path
         id="path406"
         style="fill:#000000;fill-opacity:1;fill-rule:nonzero;stroke:none"
         d="m 718.996,67.254 -3.133,0.047 0.664,71.019 -1.793,0.024 -0.664,-71.02 -3.132,0.043 3.796,-24.808 4.262,24.695 z" /><path
         id="path408"
         style="fill:#000000;fill-opacity:1;fill-rule:nonzero;stroke:none"
         d="m 669.801,102.926 0,-46.067 -3.793,0 4.883,-16.054 4.879,16.054 -3.793,0 0,46.067 -2.176,0 z" /><path
         id="path410"
         style="fill:#ffffff;fill-opacity:0.76436797;fill-rule:nonzero;stroke:none"
         d="m 664.52,93.273 57.343,0 c 4.168,0 7.524,-3.355 7.524,-7.527 l 0,-5.207 c 0,-4.172 -3.356,-7.527 -7.524,-7.527 l -57.343,0 c -4.168,0 -7.524,3.355 -7.524,7.527 l 0,5.207 c 0,4.172 3.356,7.527 7.524,7.527 z" /><g
         transform="matrix(1,0,0,-1,0,612)"
         id="g412"><path
           id="path414"
           style="fill:none;stroke:#000000;stroke-width:1.17952204;stroke-linecap:butt;stroke-linejoin:miter;stroke-miterlimit:4;stroke-dasharray:1.179522, 2.359044;stroke-dashoffset:0;stroke-opacity:1"
           d="m 664.52,518.727 57.343,0 c 4.168,0 7.524,3.355 7.524,7.527 l 0,5.207 c 0,4.172 -3.356,7.527 -7.524,7.527 l -57.343,0 c -4.168,0 -7.524,-3.355 -7.524,-7.527 l 0,-5.207 c 0,-4.172 3.356,-7.527 7.524,-7.527 z" /></g><text
         id="text416"
         style="font-variant:normal;font-weight:normal;font-size:13.2241621px;font-family:'DejaVu Sans';-inkscape-font-specification:DejaVuSans;writing-mode:lr-tb;fill:#000000;fill-opacity:1;fill-rule:nonzero;stroke:none"
         transform="matrix(1,0,0,-1,664.88428,78.565618)"><tspan
           id="tspan418"
           y="0"
           x="0 8.3708944 15.247458 23.380318 31.764437 35.956497 40.611401 48.691364">used for</tspan></text>
<text
         id="text420"
         style="font-variant:normal;font-weight:bold;font-size:14.39999962px;font-family:'DejaVu Sans';-inkscape-font-specification:DejaVuSans-Bold;writing-mode:lr-tb;fill:#fd0000;fill-opacity:1;fill-rule:nonzero;stroke:none"
         transform="matrix(1,0,0,-1,682.85713,153.71425)"><tspan
           id="tspan422"
           y="0"
           x="0 11.1312 21.3696 26.294399 41.284801 51.0336 55.958401">Animals</tspan><tspan
           id="tspan424"
           y="49.142822"
           x="-249.71426 -240.54146 -230.83586 -222.31107 -215.42786 -205.53506 -196.92386">Lactose</tspan></text>
<text
         id="text426"
         style="font-variant:normal;font-weight:bold;font-size:14.39999962px;font-family:'DejaVu Sans';-inkscape-font-specification:DejaVuSans-Bold;writing-mode:lr-tb;fill:#fe0000;fill-opacity:1;fill-rule:nonzero;stroke:none"
         transform="matrix(1,0,0,-1,270.28572,458.28571)"><tspan
           id="tspan428"
           y="0"
           x="0 11.088 23.1264">RNA</tspan></text>
</g></g></svg>