<?xml version="1.0" encoding="UTF-8" standalone="no"?>
<svg
   xmlns:dc="http://purl.org/dc/elements/1.1/"
   xmlns:cc="http://creativecommons.org/ns#"
   xmlns:rdf="http://www.w3.org/1999/02/22-rdf-syntax-ns#"
   xmlns:svg="http://www.w3.org/2000/svg"
   xmlns="http://www.w3.org/2000/svg"
   id="svg2"
   viewBox="0 0 25654.001 11641.667"
   style="clip-rule:evenodd;fill-rule:evenodd;image-rendering:optimizeQuality;shape-rendering:geometricPrecision;text-rendering:geometricPrecision"
   version="1.1"
   height="412.5"
   width="909"
   xml:space="preserve"><title
     id="title5103">DNA Fingerprinting</title><metadata
     id="metadata132"><rdf:RDF><cc:Work
         rdf:about=""><dc:format>image/svg+xml</dc:format><dc:type
           rdf:resource="http://purl.org/dc/dcmitype/StillImage" /><dc:title>DNA Fingerprinting</dc:title><cc:license
           rdf:resource="http://creativecommons.org/licenses/by-sa/3.0/" /><dc:contributor><cc:Agent><dc:title>https://commons.wikimedia.org/wiki/User:The_Photographer https://commons.wikimedia.org/wiki/User:Helixitta Jeremy Seto</dc:title></cc:Agent></dc:contributor><dc:creator><cc:Agent><dc:title> Jeremy Seto</dc:title></cc:Agent></dc:creator><dc:rights><cc:Agent><dc:title>CC-BY-SA</dc:title></cc:Agent></dc:rights></cc:Work><cc:License
         rdf:about="http://creativecommons.org/licenses/by-sa/3.0/"><cc:permits
           rdf:resource="http://creativecommons.org/ns#Reproduction" /><cc:permits
           rdf:resource="http://creativecommons.org/ns#Distribution" /><cc:requires
           rdf:resource="http://creativecommons.org/ns#Notice" /><cc:requires
           rdf:resource="http://creativecommons.org/ns#Attribution" /><cc:permits
           rdf:resource="http://creativecommons.org/ns#DerivativeWorks" /><cc:requires
           rdf:resource="http://creativecommons.org/ns#ShareAlike" /></cc:License></rdf:RDF></metadata><defs
     id="defs4"><style
       id="style6"
       type="text/css"><![CDATA[
    .fil1 {fill:#413E4A}
    .fil7 {fill:#B38184}
    .fil3 {fill:#F0B49E}
    .fil5 {fill:#F7E4BE}
    .fil0 {fill:black;fill-rule:nonzero}
    .fil6 {fill:#B38184;fill-rule:nonzero}
    .fil2 {fill:#F0B49E;fill-rule:nonzero}
    .fil4 {fill:#F7E4BE;fill-rule:nonzero}
   ]]></style></defs><g
     transform="translate(51.363243,-2409.4146)"
     id="g4979"><rect
       style="fill:#000000;fill-opacity:1;stroke:none;stroke-width:2.5999999;stroke-miterlimit:4;stroke-dasharray:none;stroke-dashoffset:0;stroke-opacity:1"
       id="rect4729"
       width="25645.443"
       height="11631.766"
       x="-45.436577"
       y="2413.6721" /><g
       id="g4920"
       transform="translate(-12236.656,353.41367)"
       style="opacity:0.85900005"><g
         id="g4841"><polyline
           style="fill:none;stroke:#217821;stroke-width:1.75636232;stroke-miterlimit:4;stroke-dasharray:none"
           id="polyline5"
           points="0.495,156.057 1.248,156.057 2.001,156.057 2.755,155.188 3.509,154.326    4.264,153.455 5.018,153.455 5.772,154.326 6.533,154.326 7.287,155.188 8.042,156.057 8.794,156.057 9.548,151.721    10.304,140.457 11.057,122.258 11.811,98.002 12.565,69.4 13.319,44.272 14.074,29.54 14.828,27.807 15.581,40.806 16.334,63.339    17.088,91.063 17.851,116.198 18.604,136.127 19.358,149.119 20.112,155.188 20.866,156.057 21.62,156.057 22.375,156.057    23.127,155.188 23.881,154.326 24.636,153.455 25.39,153.455 26.144,154.326 26.898,154.326 27.652,156.057 28.406,156.057    29.167,156.057 29.92,153.455 30.674,144.793 31.429,130.922 32.184,111.862 32.937,89.33 33.691,68.538 34.445,56.401    35.199,54.668 35.953,65.072 36.708,83.27 37.46,102.329 38.214,117.06 38.969,122.258 39.723,116.198 40.477,102.329    41.238,84.131 41.992,69.4 42.746,63.339 43.5,67.668 44.253,82.399 45.007,103.198 45.762,122.258 46.516,138.723 47.27,145.654    48.024,141.326 48.778,127.457 49.533,108.397 50.286,87.596 51.041,71.132 51.793,63.339 52.555,65.935 53.31,78.071    54.063,96.268 54.817,116.198 55.571,132.654 56.325,145.654 57.079,153.455 57.833,156.057 58.586,156.057 59.34,156.057    60.095,156.057 60.849,156.057 61.603,156.057 62.357,156.057 63.111,156.057 63.866,156.057 64.625,156.057 65.379,156.057    66.133,156.057 66.888,156.057 67.642,156.057 68.396,156.057 69.15,156.057 69.904,156.057 70.658,156.057 71.412,156.057    72.166,156.057 72.919,156.057 73.673,156.057 74.428,156.057 75.182,156.057 75.943,156.057 76.697,156.057 77.452,156.057    78.205,156.057 78.958,156.057 79.712,156.057 80.466,156.057 81.221,156.057 81.976,156.057 82.729,156.057 83.483,156.057    84.237,156.057 84.991,156.057 85.745,156.057 86.499,156.057 87.261,156.057 88.014,156.057 88.768,156.057 89.522,156.057    90.276,156.057 91.03,156.057 91.785,156.057 92.538,156.057 93.292,156.057 94.045,156.057 94.799,156.057 95.554,156.057    96.309,156.057 97.062,156.057 97.816,156.057 98.57,156.057 99.332,156.057 100.084,156.057 100.838,156.057 101.592,156.057    102.347,156.057 103.101,156.057 103.855,156.057 104.609,156.057 105.363,156.057 106.117,156.057 106.871,156.057    107.625,156.057 108.378,156.057 109.132,156.057 109.887,156.057 110.648,156.057 111.402,156.057 112.156,156.057    112.91,156.057 113.665,156.057 114.417,156.057 115.171,156.057 115.925,156.057 116.68,156.057 117.434,156.057 118.188,156.057    118.942,156.057 119.696,156.057 120.45,156.057 121.204,156.057 121.964,156.057 122.719,156.057 123.473,156.057    124.227,156.057 124.981,156.057 125.735,156.057 126.489,156.057 127.243,156.057 127.997,156.057 128.75,156.057    129.504,156.057 130.258,156.057 131.013,156.057 131.767,156.057 132.521,156.057 133.275,156.057 134.036,156.057    134.79,155.188 135.543,154.326 136.297,153.455 137.052,153.455 137.806,153.455 138.56,154.326 139.314,155.188 140.068,156.057    140.822,156.057 141.576,153.455 142.33,144.793 143.083,130.922 143.837,110.993 144.591,87.596 145.354,65.935 146.107,52.073    146.861,50.34 147.616,59.003 148.369,78.071 149.124,101.466 149.876,122.258 150.63,138.723 151.384,149.988 152.139,155.188    152.893,156.057 153.646,156.057 154.401,156.057 155.155,156.057 155.909,156.057 156.663,156.057 157.423,156.057    158.178,156.057 158.933,156.057 159.686,156.057 160.441,156.057 161.195,156.057 161.949,156.057 162.702,156.057    163.457,156.057 164.209,156.057 164.963,156.057 165.717,156.057 166.472,156.057 167.226,156.057 167.979,156.057    168.742,156.057 169.495,156.057 170.249,156.057 171.002,156.057 171.756,156.057 172.511,156.057 173.266,156.057    174.019,156.057 174.774,156.057 175.528,156.057 176.282,156.057 177.035,156.057 177.79,156.057 178.542,156.057    179.296,156.057 180.058,156.057 180.814,156.057 181.567,156.057 182.321,156.057 183.074,156.057 183.828,156.057    184.582,156.057 185.335,156.057 186.089,156.057 186.844,156.057 187.598,156.057 188.352,156.057 189.107,156.057    189.861,156.057 190.615,156.057 191.368,156.057 192.128,156.057 192.882,156.057 193.637,156.057 194.391,156.057    195.146,156.057 195.9,156.057  "
           transform="matrix(50.833644,0,0,32.120177,27558.833,8029.4586)" /><polyline
           style="fill:none;stroke:#0044aa;stroke-width:1.75636232;stroke-miterlimit:4;stroke-dasharray:none"
           id="polyline7"
           points="0.495,150.852 1.248,156.057 2.001,156.057 2.755,156.057 3.509,156.057    4.264,155.188 5.018,155.188 5.772,155.188 6.533,155.188 7.287,156.057 8.042,156.057 8.794,156.057 9.548,156.057    10.304,156.057 11.057,156.057 11.811,156.057 12.565,156.057 13.319,156.057 14.074,156.057 14.828,156.057 15.581,156.057    16.334,156.057 17.088,156.057 17.851,156.057 18.604,156.057 19.358,156.057 20.112,156.057 20.866,156.057 21.62,156.057    22.375,156.057 23.127,156.057 23.881,156.057 24.636,156.057 25.39,156.057 26.144,156.057 26.898,156.057 27.652,156.057    28.406,156.057 29.167,156.057 29.92,156.057 30.674,156.057 31.429,156.057 32.184,156.057 32.937,156.057 33.691,156.057    34.445,156.057 35.199,156.057 35.953,156.057 36.708,156.057 37.46,156.057 38.214,156.057 38.969,156.057 39.723,156.057    40.477,156.057 41.238,156.057 41.992,156.057 42.746,156.057 43.5,156.057 44.253,156.057 45.007,156.057 45.762,156.057    46.516,156.057 47.27,156.057 48.024,156.057 48.778,156.057 49.533,156.057 50.286,156.057 51.041,156.057 51.793,156.057    52.555,156.057 53.31,156.057 54.063,156.057 54.817,156.057 55.571,156.057 56.325,155.188 57.079,154.326 57.833,152.592    58.586,150.852 59.34,149.988 60.095,149.988 60.849,150.852 61.603,152.592 62.357,153.455 63.111,155.188 63.866,156.057    64.625,154.326 65.379,145.654 66.133,131.793 66.888,110.993 67.642,86.735 68.396,61.607 69.15,43.41 69.904,36.471    70.658,41.676 71.412,58.141 72.166,80.667 72.919,105.794 73.673,126.594 74.428,142.189 75.182,151.721 75.943,156.057    76.697,156.057 77.452,156.057 78.205,156.057 78.958,156.057 79.712,156.057 80.466,155.188 81.221,155.188 81.976,154.326    82.729,154.326 83.483,154.326 84.237,154.326 84.991,155.188 85.745,156.057 86.499,156.057 87.261,156.057 88.014,156.057    88.768,156.057 89.522,156.057 90.276,156.057 91.03,156.057 91.785,156.057 92.538,156.057 93.292,156.057 94.045,156.057    94.799,156.057 95.554,156.057 96.309,156.057 97.062,156.057 97.816,156.057 98.57,156.057 99.332,156.057 100.084,156.057    100.838,156.057 101.592,156.057 102.347,156.057 103.101,156.057 103.855,156.057 104.609,156.057 105.363,154.326    106.117,153.455 106.871,152.592 107.625,151.721 108.378,151.721 109.132,152.592 109.887,153.455 110.648,155.188    111.402,156.057 112.156,156.057 112.91,153.455 113.665,143.92 114.417,127.457 115.171,105.794 115.925,78.934 116.68,53.806    117.434,36.471 118.188,31.273 118.942,39.944 119.696,58.141 120.45,84.131 121.204,109.261 121.964,130.06 122.719,144.793    123.473,153.455 124.227,156.057 124.981,156.057 125.735,156.057 126.489,155.188 127.243,155.188 127.997,155.188    128.75,155.188 129.504,156.057 130.258,156.057 131.013,156.057 131.767,156.057 132.521,156.057 133.275,156.057    134.036,156.057 134.79,156.057 135.543,156.057 136.297,156.057 137.052,156.057 137.806,156.057 138.56,156.057 139.314,156.057    140.068,156.057 140.822,156.057 141.576,156.057 142.33,156.057 143.083,156.057 143.837,156.057 144.591,156.057    145.354,156.057 146.107,156.057 146.861,156.057 147.616,156.057 148.369,156.057 149.124,156.057 149.876,156.057    150.63,156.057 151.384,156.057 152.139,156.057 152.893,156.057 153.646,156.057 154.401,156.057 155.155,156.057    155.909,156.057 156.663,156.057 157.423,156.057 158.178,156.057 158.933,156.057 159.686,156.057 160.441,156.057    161.195,156.057 161.949,156.057 162.702,156.057 163.457,156.057 164.209,156.057 164.963,156.057 165.717,156.057    166.472,156.057 167.226,156.057 167.979,155.188 168.742,154.326 169.495,152.592 170.249,150.852 171.002,149.988    171.756,150.852 172.511,151.721 173.266,153.455 174.019,155.188 174.774,156.057 175.528,156.057 176.282,151.721    177.035,140.457 177.79,123.992 178.542,103.198 179.296,78.071 180.058,57.271 180.814,46.004 181.567,46.875 182.321,59.874    183.074,81.537 183.828,104.931 184.582,121.396 185.335,126.594 186.089,117.06 186.844,94.527 187.598,65.935 188.352,38.211    189.107,19.145 189.861,14.81 190.615,26.076 191.368,49.47 192.128,78.934 192.882,107.526 193.637,130.06 194.391,145.654    195.146,153.455 195.9,156.057  "
           transform="matrix(50.833644,0,0,32.120177,27558.833,8029.4586)" /><path
           style="fill:none;stroke:#ffffff;stroke-width:70.97063446;stroke-miterlimit:4;stroke-dasharray:none;stroke-opacity:1"
           id="path9"
           d="m 27583.996,13014.125 38.277,-166.993 38.329,-306.138 38.329,-417.562 38.328,-500.914 38.379,-500.914 38.329,-334.179 38.329,-138.984 38.735,138.984 38.278,361.866 38.379,500.915 38.278,501.203 38.328,389.585 38.431,306.138 38.277,166.993 38.329,27.88 38.328,0 38.329,0 38.329,0 38.43,0 38.278,0 38.328,0 38.329,0 38.786,0 38.277,0 38.329,0 38.329,0 38.379,0 38.329,0 38.379,0 38.278,0 38.328,0 38.38,0 38.328,0 38.329,0 38.328,0 38.329,-27.88 38.328,0 38.736,-27.656 38.328,0 38.329,0 38.379,27.656 38.38,27.88 38.277,0 38.329,0 38.329,0 38.379,0 38.329,0 38.379,0 38.278,0 38.328,0 38.38,0 38.328,0 38.329,0 38.684,0 38.38,0 38.328,0 38.329,0 38.328,0 38.329,0 38.379,0 38.329,0 38.328,0 38.329,0 38.328,0 38.38,0 38.328,0 38.38,0 37.922,0 38.735,0 38.379,0 38.278,0 38.329,0 38.328,0 38.38,0 38.328,0 38.329,0 38.328,0 38.329,0 38.379,0 38.329,0 38.328,0 38.329,0 38.329,0 38.379,-27.88 38.684,0 38.329,-27.656 38.329,-27.977 38.379,-27.719 38.329,0 38.328,0 38.329,0 38.328,27.719 38.38,27.977 38.328,27.656 38.329,27.88 38.328,0 38.329,0 38.379,0 38.329,0 38.684,0 38.329,-55.536 38.43,-83.673 38.278,-55.6 38.328,-83.609 38.329,-27.687 38.329,27.687 38.379,83.609 38.379,55.6 38.278,83.673 38.329,55.536 38.328,-111.296 38.38,-389.779 38.328,-640.219 38.329,-890.693 38.786,-1085.4047 38.278,-1029.7408 38.328,-668.0997 38.329,-194.6803 38.328,361.6089 38.329,863.0049 38.125,1085.4047 38.278,1029.773 38.328,834.996 38.329,389.682 38.328,-83.416 38.38,-528.858 38.379,-668.1 38.278,-779.171 38.329,-612.4358 38.328,-278.2571 38.786,111.3285 38.278,473.1624 38.328,695.819 38.329,723.475 38.379,612.436 38.329,445.217 38.329,250.57 38.328,83.577 38.329,0 38.379,0 38.329,0 38.328,0 38.329,0 38.328,0 38.38,0 38.684,0 38.329,0 38.379,-27.881 38.329,0 38.379,-27.655 38.278,0 38.328,0 38.329,27.655 38.379,0 38.329,27.881 37.515,0 38.329,0 38.328,0 38.38,0 38.328,0 38.685,0 38.379,0 38.329,0 38.328,0 38.329,0 38.328,0 38.329,0 38.379,0 38.329,0 38.329,0 38.328,0 38.329,-27.881 38.379,-27.655 38.329,0 38.328,-27.977 38.329,27.977 38.735,0 38.329,27.655 38.328,27.881 38.329,0 38.379,0 38.329,0 38.328,0 38.329,0 38.328,0 38.329,0 38.379,0 38.329,0 38.328,0 38.329,0 38.329,0 38.786,0 38.277,0 38.329,0 38.379,0 38.329,0 38.379,0 38.278,0 38.329,0 38.328,0 38.38,0 38.328,0 38.278,0 38.379,0 38.329,0 38.379,0 38.329,-27.881 38.684,-27.655 38.38,0 38.379,-27.977 38.278,0 38.379,27.977 38.329,27.655 38.328,27.881 38.329,0 38.379,0 38.278,0 38.329,0 38.328,0 38.38,0 38.328,0 38.278,0 38.837,0 38.277,0 38.329,0 38.329,0 38.328,0 38.38,0 38.379,0 38.278,0 38.379,0 38.329,0 38.328,0 38.329,0 38.379,-27.881 38.278,0 38.329,0 38.735,0 38.43,0 38.278,27.881 38.328,0 38.329,0 38.328,0 38.329,0 38.329,0 38.328,0 38.38,0 38.328,0 38.329,0 c 121.797,0 243.442,-2.088 365.341,-2.088" /><path
           style="fill:none;stroke:#aa0000;stroke-width:70.97063446;stroke-miterlimit:4;stroke-dasharray:none"
           id="path11"
           d="m 27583.996,13042.037 38.277,0 38.329,0 38.329,0 38.328,0 38.379,0 38.329,0 38.329,0 38.735,0 38.328,0 38.38,0 38.278,0 38.328,0 38.43,0 38.278,0 38.329,0 38.328,0 38.329,0 38.328,0 38.431,0 38.277,0 38.329,0 38.328,0 38.787,-55.536 38.277,-278.546 38.329,-473.194 38.328,-667.843 38.38,-779.428 38.328,-834.7716 38.38,-584.5229 38.278,-250.5374 38.328,139.2409 38.379,500.9463 38.329,723.6677 38.329,834.868 38.328,695.819 38.329,528.859 38.328,333.921 38.736,167.186 38.328,0 38.329,0 38.379,0 38.38,0 38.277,0 38.329,0 38.328,0 38.38,0 38.328,0 38.38,0 38.277,0 38.329,0 38.379,0 38.329,0 38.329,0 38.684,0 38.379,0 38.329,0 38.329,0 38.328,0 38.329,0 38.379,0 38.329,0 38.328,0 38.329,0 38.328,0 38.38,0 38.328,0 38.38,0 37.871,0 38.735,0 38.379,0 38.278,0 38.329,-222.85 38.328,-389.522 38.38,-612.274 38.277,-723.797 38.329,-835.092 38.329,-640.1872 37.921,-305.9768 38.38,27.6554 38.328,417.5623 38.329,640.1553 38.329,751.484 38.328,723.763 38.38,528.795 38.684,361.673 38.328,194.905 38.329,83.577 38.379,0 38.329,0 38.329,0 38.328,0 38.329,0 38.379,0 38.329,0 38.328,0 38.329,-83.577 38.328,-306.266 38.38,-473.098 38.328,-612.242 38.685,-751.452 38.328,-668.132 38.431,-445.2174 38.277,-139.241 38.329,222.625 38.328,501.1714 38.329,640.187 38.379,667.843 38.38,584.458 38.278,417.563 38.328,278.225 38.329,139.273 38.379,27.88 38.329,0 38.328,0 38.786,0 38.278,0 38.329,0 38.328,0 38.329,0 38.328,0 38.431,0 38.277,0 38.329,0 38.328,0 38.329,0 38.379,0 38.38,0 38.277,0 38.329,0 38.329,0 38.786,0 38.277,0 38.329,0 38.329,0 38.379,0 38.329,0 38.328,-27.88 38.329,-222.689 38.328,-473.099 38.38,-668.099 38.328,-834.836 38.329,-890.7244 38.328,-695.8194 38.329,-306.2016 38.379,139.3052 38.685,528.8266 38.328,779.2356 38.38,890.66 38.328,751.484 38.38,528.859 38.277,361.801 38.329,139.273 38.329,0 38.379,0 38.328,0 37.922,0 38.329,0 38.329,0 38.379,0 38.328,-55.535 38.685,-278.547 38.379,-500.946 38.329,-668.067 38.328,-834.836 38.329,-807.1478 38.278,-584.4909 38.328,-222.8498 38.38,167.2177 38.328,528.6017 38.329,779.4281 38.328,779.396 38.329,695.82 38.379,445.185 38.329,139.305 38.329,-166.992 38.328,-361.898 38.735,-501.107 38.329,-500.914 38.328,-361.931 38.329,-139.016 38.379,83.416 38.329,306.17 38.329,445.25 38.328,501.203 38.329,445.186 38.328,333.921 38.38,222.85 38.328,83.416 38.329,27.88 38.328,0 38.329,0 38.786,0 38.278,0 38.328,0 38.38,0 38.328,-27.88 38.38,-306.202 38.277,-556.514 38.329,-807.18 38.329,-1029.965 38.379,-1085.4055 38.329,-835.0283 38.277,-361.6089 38.38,138.984 38.328,640.1551 38.38,946.3889 38.328,1085.3407 38.685,918.734 38.379,667.906 38.379,333.89 38.278,-27.688 38.38,-278.289 38.328,-334.114 38.329,-361.641 38.328,-250.57 38.38,-83.641 38.277,111.361 38.329,278.482 38.328,361.673 38.38,306.17 38.328,250.601 38.329,55.6 38.786,-139.273 38.278,-278.225 38.328,-361.866 38.329,-389.617 38.329,-278.29 38.379,-111.328 38.379,83.416 38.278,250.569 38.379,361.931 38.329,389.585 38.329,306.202 38.328,222.593 38.38,166.992 38.277,27.881 c 0,0 38.329,0 38.38,0 266.368,0 532.685,-10.118 800.121,-10.118" /><text
           style="font-size:526.65771484px;font-family:CourierNewPSMT;fill:#ffffff;fill-opacity:1"
           id="text15"
           font-size="10.0569"
           transform="scale(0.97070425,1.0301799)"
           x="28529.812"
           y="13274.53">G</text>
<text
           style="font-size:526.65771484px;font-family:CourierNewPSMT;fill:#008000"
           id="text17"
           font-size="10.0569"
           transform="scale(0.97070425,1.0301799)"
           x="29004.061"
           y="13274.53">A</text>
<text
           style="font-size:526.65771484px;font-family:CourierNewPSMT;fill:#aa0000"
           id="text19"
           font-size="10.0569"
           transform="scale(0.97070425,1.0301799)"
           x="29478.031"
           y="13274.53">T</text>
<text
           style="font-size:526.65771484px;font-family:CourierNewPSMT;fill:#008000"
           id="text21"
           font-size="10.0569"
           transform="scale(0.97070425,1.0301799)"
           x="30070.645"
           y="13274.53">A</text>
<text
           style="font-size:526.65771484px;font-family:CourierNewPSMT;fill:#008000"
           id="text25"
           font-size="10.0569"
           transform="scale(0.97070425,1.0301799)"
           x="30505.01"
           y="13274.53">A</text>
<text
           style="font-size:526.65771484px;font-family:CourierNewPSMT;fill:#008000"
           id="text27"
           font-size="10.0569"
           transform="scale(0.97070425,1.0301799)"
           x="30979.363"
           y="13274.53">A</text>
<text
           style="font-size:526.65771484px;font-family:CourierNewPSMT;fill:#aa0000"
           id="text29"
           font-size="10.0569"
           transform="scale(0.97070425,1.0301799)"
           x="31374.27"
           y="13274.53">T</text>
<text
           style="font-size:526.65771484px;font-family:CourierNewPSMT;fill:#0044aa"
           id="text31"
           font-size="10.0569"
           transform="scale(0.97070425,1.0301799)"
           x="31927.582"
           y="13274.53">C</text>
<text
           style="font-size:526.65771484px;font-family:CourierNewPSMT;fill:#aa0000"
           id="text33"
           font-size="10.0569"
           transform="scale(0.97070425,1.0301799)"
           x="32362.305"
           y="13274.53">T</text>
<text
           style="font-size:526.65771484px;font-family:CourierNewPSMT;fill:#ffffff;fill-opacity:1"
           id="text35"
           font-size="10.0569"
           transform="scale(0.97070425,1.0301799)"
           x="32915.129"
           y="13274.53">G</text>
<text
           style="font-size:526.65771484px;font-family:CourierNewPSMT;fill:#ffffff;fill-opacity:1"
           id="text37"
           font-size="10.0569"
           transform="scale(0.97070425,1.0301799)"
           x="33428.934"
           y="13274.53">G</text>
<text
           style="font-size:526.65771484px;font-family:CourierNewPSMT;fill:#aa0000"
           id="text39"
           font-size="10.0569"
           transform="scale(0.97070425,1.0301799)"
           x="33982.07"
           y="13274.53">T</text>
<text
           style="font-size:526.65771484px;font-family:CourierNewPSMT;fill:#0044aa"
           id="text41"
           font-size="10.0569"
           transform="scale(0.97070425,1.0301799)"
           x="34416.457"
           y="13274.53">C</text>
<text
           style="font-size:526.65771484px;font-family:CourierNewPSMT;fill:#aa0000"
           id="text43"
           font-size="10.0569"
           transform="scale(0.97070425,1.0301799)"
           x="34890.789"
           y="13274.53">T</text>
<text
           style="font-size:526.65771484px;font-family:CourierNewPSMT;fill:#aa0000"
           id="text47"
           font-size="10.0569"
           transform="scale(0.97070425,1.0301799)"
           x="35404.391"
           y="13274.53">T</text>
<text
           style="font-size:526.65771484px;font-family:CourierNewPSMT;fill:#008000"
           id="text49"
           font-size="10.0569"
           transform="scale(0.97070425,1.0301799)"
           x="35917.992"
           y="13274.53">A</text>
<text
           style="font-size:526.65771484px;font-family:CourierNewPSMT;fill:#aa0000"
           id="text51"
           font-size="10.0569"
           transform="scale(0.97070425,1.0301799)"
           x="36313.105"
           y="13274.53">T</text>
<text
           style="font-size:526.65771484px;font-family:CourierNewPSMT;fill:#aa0000"
           id="text53"
           font-size="10.0569"
           transform="scale(0.97070425,1.0301799)"
           x="36787.18"
           y="13274.53">T</text>
<text
           style="font-size:526.65771484px;font-family:CourierNewPSMT;fill:#aa0000"
           id="text55"
           font-size="10.0569"
           transform="scale(0.97070425,1.0301799)"
           x="37300.828"
           y="13274.53">T</text>
<text
           style="font-size:526.65771484px;font-family:CourierNewPSMT;fill:#0044aa"
           id="text57"
           font-size="10.0569"
           transform="scale(0.97070425,1.0301799)"
           x="37735.422"
           y="13274.53">C</text>
<text
           style="font-size:526.65771484px;font-family:CourierNewPSMT;fill:#0044aa"
           id="text59"
           font-size="10.0569"
           transform="scale(0.97070425,1.0301799)"
           x="38170.012"
           y="13274.53">C</text>
</g><g
         transform="translate(0,-5700.8853)"
         id="g4868"><polyline
           transform="matrix(50.833644,0,0,32.120177,27558.833,8029.4586)"
           points="0.495,156.057 1.248,156.057 2.001,156.057 2.755,155.188 3.509,154.326    4.264,153.455 5.018,153.455 5.772,154.326 6.533,154.326 7.287,155.188 8.042,156.057 8.794,156.057 9.548,151.721    10.304,140.457 11.057,122.258 11.811,98.002 12.565,69.4 13.319,44.272 14.074,29.54 14.828,27.807 15.581,40.806 16.334,63.339    17.088,91.063 17.851,116.198 18.604,136.127 19.358,149.119 20.112,155.188 20.866,156.057 21.62,156.057 22.375,156.057    23.127,155.188 23.881,154.326 24.636,153.455 25.39,153.455 26.144,154.326 26.898,154.326 27.652,156.057 28.406,156.057    29.167,156.057 29.92,153.455 30.674,144.793 31.429,130.922 32.184,111.862 32.937,89.33 33.691,68.538 34.445,56.401    35.199,54.668 35.953,65.072 36.708,83.27 37.46,102.329 38.214,117.06 38.969,122.258 39.723,116.198 40.477,102.329    41.238,84.131 41.992,69.4 42.746,63.339 43.5,67.668 44.253,82.399 45.007,103.198 45.762,122.258 46.516,138.723 47.27,145.654    48.024,141.326 48.778,127.457 49.533,108.397 50.286,87.596 51.041,71.132 51.793,63.339 52.555,65.935 53.31,78.071    54.063,96.268 54.817,116.198 55.571,132.654 56.325,145.654 57.079,153.455 57.833,156.057 58.586,156.057 59.34,156.057    60.095,156.057 60.849,156.057 61.603,156.057 62.357,156.057 63.111,156.057 63.866,156.057 64.625,156.057 65.379,156.057    66.133,156.057 66.888,156.057 67.642,156.057 68.396,156.057 69.15,156.057 69.904,156.057 70.658,156.057 71.412,156.057    72.166,156.057 72.919,156.057 73.673,156.057 74.428,156.057 75.182,156.057 75.943,156.057 76.697,156.057 77.452,156.057    78.205,156.057 78.958,156.057 79.712,156.057 80.466,156.057 81.221,156.057 81.976,156.057 82.729,156.057 83.483,156.057    84.237,156.057 84.991,156.057 85.745,156.057 86.499,156.057 87.261,156.057 88.014,156.057 88.768,156.057 89.522,156.057    90.276,156.057 91.03,156.057 91.785,156.057 92.538,156.057 93.292,156.057 94.045,156.057 94.799,156.057 95.554,156.057    96.309,156.057 97.062,156.057 97.816,156.057 98.57,156.057 99.332,156.057 100.084,156.057 100.838,156.057 101.592,156.057    102.347,156.057 103.101,156.057 103.855,156.057 104.609,156.057 105.363,156.057 106.117,156.057 106.871,156.057    107.625,156.057 108.378,156.057 109.132,156.057 109.887,156.057 110.648,156.057 111.402,156.057 112.156,156.057    112.91,156.057 113.665,156.057 114.417,156.057 115.171,156.057 115.925,156.057 116.68,156.057 117.434,156.057 118.188,156.057    118.942,156.057 119.696,156.057 120.45,156.057 121.204,156.057 121.964,156.057 122.719,156.057 123.473,156.057    124.227,156.057 124.981,156.057 125.735,156.057 126.489,156.057 127.243,156.057 127.997,156.057 128.75,156.057    129.504,156.057 130.258,156.057 131.013,156.057 131.767,156.057 132.521,156.057 133.275,156.057 134.036,156.057    134.79,155.188 135.543,154.326 136.297,153.455 137.052,153.455 137.806,153.455 138.56,154.326 139.314,155.188 140.068,156.057    140.822,156.057 141.576,153.455 142.33,144.793 143.083,130.922 143.837,110.993 144.591,87.596 145.354,65.935 146.107,52.073    146.861,50.34 147.616,59.003 148.369,78.071 149.124,101.466 149.876,122.258 150.63,138.723 151.384,149.988 152.139,155.188    152.893,156.057 153.646,156.057 154.401,156.057 155.155,156.057 155.909,156.057 156.663,156.057 157.423,156.057    158.178,156.057 158.933,156.057 159.686,156.057 160.441,156.057 161.195,156.057 161.949,156.057 162.702,156.057    163.457,156.057 164.209,156.057 164.963,156.057 165.717,156.057 166.472,156.057 167.226,156.057 167.979,156.057    168.742,156.057 169.495,156.057 170.249,156.057 171.002,156.057 171.756,156.057 172.511,156.057 173.266,156.057    174.019,156.057 174.774,156.057 175.528,156.057 176.282,156.057 177.035,156.057 177.79,156.057 178.542,156.057    179.296,156.057 180.058,156.057 180.814,156.057 181.567,156.057 182.321,156.057 183.074,156.057 183.828,156.057    184.582,156.057 185.335,156.057 186.089,156.057 186.844,156.057 187.598,156.057 188.352,156.057 189.107,156.057    189.861,156.057 190.615,156.057 191.368,156.057 192.128,156.057 192.882,156.057 193.637,156.057 194.391,156.057    195.146,156.057 195.9,156.057  "
           id="polyline4870"
           style="fill:none;stroke:#217821;stroke-width:1.75636232;stroke-miterlimit:4;stroke-dasharray:none" /><polyline
           transform="matrix(50.833644,0,0,32.120177,27558.833,8029.4586)"
           points="0.495,150.852 1.248,156.057 2.001,156.057 2.755,156.057 3.509,156.057    4.264,155.188 5.018,155.188 5.772,155.188 6.533,155.188 7.287,156.057 8.042,156.057 8.794,156.057 9.548,156.057    10.304,156.057 11.057,156.057 11.811,156.057 12.565,156.057 13.319,156.057 14.074,156.057 14.828,156.057 15.581,156.057    16.334,156.057 17.088,156.057 17.851,156.057 18.604,156.057 19.358,156.057 20.112,156.057 20.866,156.057 21.62,156.057    22.375,156.057 23.127,156.057 23.881,156.057 24.636,156.057 25.39,156.057 26.144,156.057 26.898,156.057 27.652,156.057    28.406,156.057 29.167,156.057 29.92,156.057 30.674,156.057 31.429,156.057 32.184,156.057 32.937,156.057 33.691,156.057    34.445,156.057 35.199,156.057 35.953,156.057 36.708,156.057 37.46,156.057 38.214,156.057 38.969,156.057 39.723,156.057    40.477,156.057 41.238,156.057 41.992,156.057 42.746,156.057 43.5,156.057 44.253,156.057 45.007,156.057 45.762,156.057    46.516,156.057 47.27,156.057 48.024,156.057 48.778,156.057 49.533,156.057 50.286,156.057 51.041,156.057 51.793,156.057    52.555,156.057 53.31,156.057 54.063,156.057 54.817,156.057 55.571,156.057 56.325,155.188 57.079,154.326 57.833,152.592    58.586,150.852 59.34,149.988 60.095,149.988 60.849,150.852 61.603,152.592 62.357,153.455 63.111,155.188 63.866,156.057    64.625,154.326 65.379,145.654 66.133,131.793 66.888,110.993 67.642,86.735 68.396,61.607 69.15,43.41 69.904,36.471    70.658,41.676 71.412,58.141 72.166,80.667 72.919,105.794 73.673,126.594 74.428,142.189 75.182,151.721 75.943,156.057    76.697,156.057 77.452,156.057 78.205,156.057 78.958,156.057 79.712,156.057 80.466,155.188 81.221,155.188 81.976,154.326    82.729,154.326 83.483,154.326 84.237,154.326 84.991,155.188 85.745,156.057 86.499,156.057 87.261,156.057 88.014,156.057    88.768,156.057 89.522,156.057 90.276,156.057 91.03,156.057 91.785,156.057 92.538,156.057 93.292,156.057 94.045,156.057    94.799,156.057 95.554,156.057 96.309,156.057 97.062,156.057 97.816,156.057 98.57,156.057 99.332,156.057 100.084,156.057    100.838,156.057 101.592,156.057 102.347,156.057 103.101,156.057 103.855,156.057 104.609,156.057 105.363,154.326    106.117,153.455 106.871,152.592 107.625,151.721 108.378,151.721 109.132,152.592 109.887,153.455 110.648,155.188    111.402,156.057 112.156,156.057 112.91,153.455 113.665,143.92 114.417,127.457 115.171,105.794 115.925,78.934 116.68,53.806    117.434,36.471 118.188,31.273 118.942,39.944 119.696,58.141 120.45,84.131 121.204,109.261 121.964,130.06 122.719,144.793    123.473,153.455 124.227,156.057 124.981,156.057 125.735,156.057 126.489,155.188 127.243,155.188 127.997,155.188    128.75,155.188 129.504,156.057 130.258,156.057 131.013,156.057 131.767,156.057 132.521,156.057 133.275,156.057    134.036,156.057 134.79,156.057 135.543,156.057 136.297,156.057 137.052,156.057 137.806,156.057 138.56,156.057 139.314,156.057    140.068,156.057 140.822,156.057 141.576,156.057 142.33,156.057 143.083,156.057 143.837,156.057 144.591,156.057    145.354,156.057 146.107,156.057 146.861,156.057 147.616,156.057 148.369,156.057 149.124,156.057 149.876,156.057    150.63,156.057 151.384,156.057 152.139,156.057 152.893,156.057 153.646,156.057 154.401,156.057 155.155,156.057    155.909,156.057 156.663,156.057 157.423,156.057 158.178,156.057 158.933,156.057 159.686,156.057 160.441,156.057    161.195,156.057 161.949,156.057 162.702,156.057 163.457,156.057 164.209,156.057 164.963,156.057 165.717,156.057    166.472,156.057 167.226,156.057 167.979,155.188 168.742,154.326 169.495,152.592 170.249,150.852 171.002,149.988    171.756,150.852 172.511,151.721 173.266,153.455 174.019,155.188 174.774,156.057 175.528,156.057 176.282,151.721    177.035,140.457 177.79,123.992 178.542,103.198 179.296,78.071 180.058,57.271 180.814,46.004 181.567,46.875 182.321,59.874    183.074,81.537 183.828,104.931 184.582,121.396 185.335,126.594 186.089,117.06 186.844,94.527 187.598,65.935 188.352,38.211    189.107,19.145 189.861,14.81 190.615,26.076 191.368,49.47 192.128,78.934 192.882,107.526 193.637,130.06 194.391,145.654    195.146,153.455 195.9,156.057  "
           id="polyline4872"
           style="fill:none;stroke:#0044aa;stroke-width:1.75636232;stroke-miterlimit:4;stroke-dasharray:none" /><path
           d="m 27583.996,13014.125 38.277,-166.993 38.329,-306.138 38.329,-417.562 38.328,-500.914 38.379,-500.914 38.329,-334.179 38.329,-138.984 38.735,138.984 38.278,361.866 38.379,500.915 38.278,501.203 38.328,389.585 38.431,306.138 38.277,166.993 38.329,27.88 38.328,0 38.329,0 38.329,0 38.43,0 38.278,0 38.328,0 38.329,0 38.786,0 38.277,0 38.329,0 38.329,0 38.379,0 38.329,0 38.379,0 38.278,0 38.328,0 38.38,0 38.328,0 38.329,0 38.328,0 38.329,-27.88 38.328,0 38.736,-27.656 38.328,0 38.329,0 38.379,27.656 38.38,27.88 38.277,0 38.329,0 38.329,0 38.379,0 38.329,0 38.379,0 38.278,0 38.328,0 38.38,0 38.328,0 38.329,0 38.684,0 38.38,0 38.328,0 38.329,0 38.328,0 38.329,0 38.379,0 38.329,0 38.328,0 38.329,0 38.328,0 38.38,0 38.328,0 38.38,0 37.922,0 38.735,0 38.379,0 38.278,0 38.329,0 38.328,0 38.38,0 38.328,0 38.329,0 38.328,0 38.329,0 38.379,0 38.329,0 38.328,0 38.329,0 38.329,0 38.379,-27.88 38.684,0 38.329,-27.656 38.329,-27.977 38.379,-27.719 38.329,0 38.328,0 38.329,0 38.328,27.719 38.38,27.977 38.328,27.656 38.329,27.88 38.328,0 38.329,0 38.379,0 38.329,0 38.684,0 38.329,-55.536 38.43,-83.673 38.278,-55.6 38.328,-83.609 38.329,-27.687 38.329,27.687 38.379,83.609 38.379,55.6 38.278,83.673 38.329,55.536 38.328,-111.296 38.38,-389.779 38.328,-640.219 38.329,-890.693 38.786,-1085.4047 38.278,-1029.7408 38.328,-668.0997 38.329,-194.6803 38.328,361.6089 38.329,863.0049 38.125,1085.4047 38.278,1029.773 38.328,834.996 38.329,389.682 38.328,-83.416 38.38,-528.858 38.379,-668.1 38.278,-779.171 38.329,-612.4358 38.328,-278.2571 38.786,111.3285 38.278,473.1624 38.328,695.819 38.329,723.475 38.379,612.436 38.329,445.217 38.329,250.57 38.328,83.577 38.329,0 38.379,0 38.329,0 38.328,0 38.329,0 38.328,0 38.38,0 38.684,0 38.329,0 38.379,-27.881 38.329,0 38.379,-27.655 38.278,0 38.328,0 38.329,27.655 38.379,0 38.329,27.881 37.515,0 38.329,0 38.328,0 38.38,0 38.328,0 38.685,0 38.379,0 38.329,0 38.328,0 38.329,0 38.328,0 38.329,0 38.379,0 38.329,0 38.329,0 38.328,0 38.329,-27.881 38.379,-27.655 38.329,0 38.328,-27.977 38.329,27.977 38.735,0 38.329,27.655 38.328,27.881 38.329,0 38.379,0 38.329,0 38.328,0 38.329,0 38.328,0 38.329,0 38.379,0 38.329,0 38.328,0 38.329,0 38.329,0 38.786,0 38.277,0 38.329,0 38.379,0 38.329,0 38.379,0 38.278,0 38.329,0 38.328,0 38.38,0 38.328,0 38.278,0 38.379,0 38.329,0 38.379,0 38.329,-27.881 38.684,-27.655 38.38,0 38.379,-27.977 38.278,0 38.379,27.977 38.329,27.655 38.328,27.881 38.329,0 38.379,0 38.278,0 38.329,0 38.328,0 38.38,0 38.328,0 38.278,0 38.837,0 38.277,0 38.329,0 38.329,0 38.328,0 38.38,0 38.379,0 38.278,0 38.379,0 38.329,0 38.328,0 38.329,0 38.379,-27.881 38.278,0 38.329,0 38.735,0 38.43,0 38.278,27.881 38.328,0 38.329,0 38.328,0 38.329,0 38.329,0 38.328,0 38.38,0 38.328,0 38.329,0 c 121.797,0 243.442,-2.088 365.341,-2.088"
           id="path4874"
           style="fill:none;stroke:#ffffff;stroke-width:70.97063446;stroke-miterlimit:4;stroke-dasharray:none;stroke-opacity:1" /><path
           d="m 27583.996,13042.037 38.277,0 38.329,0 38.329,0 38.328,0 38.379,0 38.329,0 38.329,0 38.735,0 38.328,0 38.38,0 38.278,0 38.328,0 38.43,0 38.278,0 38.329,0 38.328,0 38.329,0 38.328,0 38.431,0 38.277,0 38.329,0 38.328,0 38.787,-55.536 38.277,-278.546 38.329,-473.194 38.328,-667.843 38.38,-779.428 38.328,-834.7716 38.38,-584.5229 38.278,-250.5374 38.328,139.2409 38.379,500.9463 38.329,723.6677 38.329,834.868 38.328,695.819 38.329,528.859 38.328,333.921 38.736,167.186 38.328,0 38.329,0 38.379,0 38.38,0 38.277,0 38.329,0 38.328,0 38.38,0 38.328,0 38.38,0 38.277,0 38.329,0 38.379,0 38.329,0 38.329,0 38.684,0 38.379,0 38.329,0 38.329,0 38.328,0 38.329,0 38.379,0 38.329,0 38.328,0 38.329,0 38.328,0 38.38,0 38.328,0 38.38,0 37.871,0 38.735,0 38.379,0 38.278,0 38.329,-222.85 38.328,-389.522 38.38,-612.274 38.277,-723.797 38.329,-835.092 38.329,-640.1872 37.921,-305.9768 38.38,27.6554 38.328,417.5623 38.329,640.1553 38.329,751.484 38.328,723.763 38.38,528.795 38.684,361.673 38.328,194.905 38.329,83.577 38.379,0 38.329,0 38.329,0 38.328,0 38.329,0 38.379,0 38.329,0 38.328,0 38.329,-83.577 38.328,-306.266 38.38,-473.098 38.328,-612.242 38.685,-751.452 38.328,-668.132 38.431,-445.2174 38.277,-139.241 38.329,222.625 38.328,501.1714 38.329,640.187 38.379,667.843 38.38,584.458 38.278,417.563 38.328,278.225 38.329,139.273 38.379,27.88 38.329,0 38.328,0 38.786,0 38.278,0 38.329,0 38.328,0 38.329,0 38.328,0 38.431,0 38.277,0 38.329,0 38.328,0 38.329,0 38.379,0 38.38,0 38.277,0 38.329,0 38.329,0 38.786,0 38.277,0 38.329,0 38.329,0 38.379,0 38.329,0 38.328,-27.88 38.329,-222.689 38.328,-473.099 38.38,-668.099 38.328,-834.836 38.329,-890.7244 38.328,-695.8194 38.329,-306.2016 38.379,139.3052 38.685,528.8266 38.328,779.2356 38.38,890.66 38.328,751.484 38.38,528.859 38.277,361.801 38.329,139.273 38.329,0 38.379,0 38.328,0 37.922,0 38.329,0 38.329,0 38.379,0 38.328,-55.535 38.685,-278.547 38.379,-500.946 38.329,-668.067 38.328,-834.836 38.329,-807.1478 38.278,-584.4909 38.328,-222.8498 38.38,167.2177 38.328,528.6017 38.329,779.4281 38.328,779.396 38.329,695.82 38.379,445.185 38.329,139.305 38.329,-166.992 38.328,-361.898 38.735,-501.107 38.329,-500.914 38.328,-361.931 38.329,-139.016 38.379,83.416 38.329,306.17 38.329,445.25 38.328,501.203 38.329,445.186 38.328,333.921 38.38,222.85 38.328,83.416 38.329,27.88 38.328,0 38.329,0 38.786,0 38.278,0 38.328,0 38.38,0 38.328,-27.88 38.38,-306.202 38.277,-556.514 38.329,-807.18 38.329,-1029.965 38.379,-1085.4055 38.329,-835.0283 38.277,-361.6089 38.38,138.984 38.328,640.1551 38.38,946.3889 38.328,1085.3407 38.685,918.734 38.379,667.906 38.379,333.89 38.278,-27.688 38.38,-278.289 38.328,-334.114 38.329,-361.641 38.328,-250.57 38.38,-83.641 38.277,111.361 38.329,278.482 38.328,361.673 38.38,306.17 38.328,250.601 38.329,55.6 38.786,-139.273 38.278,-278.225 38.328,-361.866 38.329,-389.617 38.329,-278.29 38.379,-111.328 38.379,83.416 38.278,250.569 38.379,361.931 38.329,389.585 38.329,306.202 38.328,222.593 38.38,166.992 38.277,27.881 c 0,0 38.329,0 38.38,0 266.368,0 532.685,-10.118 800.121,-10.118"
           id="path4876"
           style="fill:none;stroke:#aa0000;stroke-width:70.97063446;stroke-miterlimit:4;stroke-dasharray:none" /><text
           y="13274.53"
           x="28529.812"
           transform="scale(0.97070425,1.0301799)"
           font-size="10.0569"
           id="text4878"
           style="font-size:526.65771484px;font-family:CourierNewPSMT;fill:#ffffff;fill-opacity:1">G</text>
<text
           y="13274.53"
           x="29004.061"
           transform="scale(0.97070425,1.0301799)"
           font-size="10.0569"
           id="text4880"
           style="font-size:526.65771484px;font-family:CourierNewPSMT;fill:#008000">A</text>
<text
           y="13274.53"
           x="29478.031"
           transform="scale(0.97070425,1.0301799)"
           font-size="10.0569"
           id="text4882"
           style="font-size:526.65771484px;font-family:CourierNewPSMT;fill:#aa0000">T</text>
<text
           y="13274.53"
           x="30070.645"
           transform="scale(0.97070425,1.0301799)"
           font-size="10.0569"
           id="text4884"
           style="font-size:526.65771484px;font-family:CourierNewPSMT;fill:#008000">A</text>
<text
           y="13274.53"
           x="30505.01"
           transform="scale(0.97070425,1.0301799)"
           font-size="10.0569"
           id="text4886"
           style="font-size:526.65771484px;font-family:CourierNewPSMT;fill:#008000">A</text>
<text
           y="13274.53"
           x="30979.363"
           transform="scale(0.97070425,1.0301799)"
           font-size="10.0569"
           id="text4888"
           style="font-size:526.65771484px;font-family:CourierNewPSMT;fill:#008000">A</text>
<text
           y="13274.53"
           x="31374.27"
           transform="scale(0.97070425,1.0301799)"
           font-size="10.0569"
           id="text4890"
           style="font-size:526.65771484px;font-family:CourierNewPSMT;fill:#aa0000">T</text>
<text
           y="13274.53"
           x="31927.582"
           transform="scale(0.97070425,1.0301799)"
           font-size="10.0569"
           id="text4892"
           style="font-size:526.65771484px;font-family:CourierNewPSMT;fill:#0044aa">C</text>
<text
           y="13274.53"
           x="32362.305"
           transform="scale(0.97070425,1.0301799)"
           font-size="10.0569"
           id="text4894"
           style="font-size:526.65771484px;font-family:CourierNewPSMT;fill:#aa0000">T</text>
<text
           y="13274.53"
           x="32915.129"
           transform="scale(0.97070425,1.0301799)"
           font-size="10.0569"
           id="text4896"
           style="font-size:526.65771484px;font-family:CourierNewPSMT;fill:#ffffff;fill-opacity:1">G</text>
<text
           y="13274.53"
           x="33428.934"
           transform="scale(0.97070425,1.0301799)"
           font-size="10.0569"
           id="text4898"
           style="font-size:526.65771484px;font-family:CourierNewPSMT;fill:#ffffff;fill-opacity:1">G</text>
<text
           y="13274.53"
           x="33982.07"
           transform="scale(0.97070425,1.0301799)"
           font-size="10.0569"
           id="text4900"
           style="font-size:526.65771484px;font-family:CourierNewPSMT;fill:#aa0000">T</text>
<text
           y="13274.53"
           x="34416.457"
           transform="scale(0.97070425,1.0301799)"
           font-size="10.0569"
           id="text4902"
           style="font-size:526.65771484px;font-family:CourierNewPSMT;fill:#0044aa">C</text>
<text
           y="13274.53"
           x="34890.789"
           transform="scale(0.97070425,1.0301799)"
           font-size="10.0569"
           id="text4904"
           style="font-size:526.65771484px;font-family:CourierNewPSMT;fill:#aa0000">T</text>
<text
           y="13274.53"
           x="35404.391"
           transform="scale(0.97070425,1.0301799)"
           font-size="10.0569"
           id="text4906"
           style="font-size:526.65771484px;font-family:CourierNewPSMT;fill:#aa0000">T</text>
<text
           y="13274.53"
           x="35917.992"
           transform="scale(0.97070425,1.0301799)"
           font-size="10.0569"
           id="text4908"
           style="font-size:526.65771484px;font-family:CourierNewPSMT;fill:#008000">A</text>
<text
           y="13274.53"
           x="36313.105"
           transform="scale(0.97070425,1.0301799)"
           font-size="10.0569"
           id="text4910"
           style="font-size:526.65771484px;font-family:CourierNewPSMT;fill:#aa0000">T</text>
<text
           y="13274.53"
           x="36787.18"
           transform="scale(0.97070425,1.0301799)"
           font-size="10.0569"
           id="text4912"
           style="font-size:526.65771484px;font-family:CourierNewPSMT;fill:#aa0000">T</text>
<text
           y="13274.53"
           x="37300.828"
           transform="scale(0.97070425,1.0301799)"
           font-size="10.0569"
           id="text4914"
           style="font-size:526.65771484px;font-family:CourierNewPSMT;fill:#aa0000">T</text>
<text
           y="13274.53"
           x="37735.422"
           transform="scale(0.97070425,1.0301799)"
           font-size="10.0569"
           id="text4916"
           style="font-size:526.65771484px;font-family:CourierNewPSMT;fill:#0044aa">C</text>
<text
           y="13274.53"
           x="38170.012"
           transform="scale(0.97070425,1.0301799)"
           font-size="10.0569"
           id="text4918"
           style="font-size:526.65771484px;font-family:CourierNewPSMT;fill:#0044aa">C</text>
</g></g><polygon
       id="rect2985"
       class="fil1"
       points="2528,13804 2528,2793 150,2793 150,13804 "
       style="fill:#0f1f97;fill-opacity:0.79885062" /><polygon
       class="fil2"
       points="150,3505 2528,3505 2528,3777 2528,3777 150,3777 "
       id="polygon22"
       style="fill:#f0b49e;fill-rule:nonzero" /><polygon
       id="rect3026"
       class="fil3"
       points="2528,3702 2528,3580 150,3580 150,3702 "
       style="fill:#f0b49e" /><polygon
       class="fil2"
       points="150,8058 2528,8058 2528,8330 2528,8330 150,8330 "
       id="polygon25"
       style="fill:#f0b49e;fill-rule:nonzero" /><polygon
       id="rect3026-9"
       class="fil3"
       points="2528,8255 2528,8133 150,8133 150,8255 "
       style="fill:#f0b49e" /><polygon
       class="fil2"
       points="150,8625 2528,8625 2528,8897 2528,8897 150,8897 "
       id="polygon28"
       style="fill:#f0b49e;fill-rule:nonzero" /><polygon
       id="rect3026-4"
       class="fil3"
       points="2528,8822 2528,8700 150,8700 150,8822 "
       style="fill:#f0b49e" /><polygon
       class="fil2"
       points="150,11611 2528,11611 2528,11883 2528,11883 150,11883 "
       id="polygon31"
       style="fill:#f0b49e;fill-rule:nonzero" /><polygon
       id="rect3026-8"
       class="fil3"
       points="2528,11808 2528,11686 150,11686 150,11808 "
       style="fill:#f0b49e" /><polygon
       class="fil2"
       points="150,5412 2528,5412 2528,5684 2528,5684 150,5684 "
       id="polygon34"
       style="fill:#f0b49e;fill-rule:nonzero" /><polygon
       id="rect3026-82"
       class="fil3"
       points="2528,5609 2528,5487 150,5487 150,5609 "
       style="fill:#f0b49e" /><polygon
       class="fil2"
       points="150,10274 2528,10274 2528,10546 2528,10546 150,10546 "
       id="polygon37"
       style="fill:#f0b49e;fill-rule:nonzero" /><polygon
       id="rect3026-8-0"
       class="fil3"
       points="2528,10471 2528,10349 150,10349 150,10471 "
       style="fill:#f0b49e" /><polygon
       id="rect2985-1"
       class="fil1"
       points="3480,2793 3480,13804 5859,13804 5859,2793 "
       style="fill:#0f1f97;fill-opacity:0.79885062"
       transform="translate(-338.66664,0)" /><polygon
       class="fil4"
       points="5859,4352 5859,4624 5858,4624 3480,4624 3480,4352 "
       id="polygon42"
       style="fill:#f7e4be;fill-rule:nonzero"
       transform="translate(-338.66664,0)" /><polygon
       id="rect3026-45"
       class="fil5"
       points="3481,4427 3481,4549 5858,4549 5858,4427 "
       style="fill:#f7e4be"
       transform="translate(-338.66664,0)" /><polygon
       class="fil4"
       points="5859,6854 5859,7126 5858,7126 3480,7126 3480,6854 "
       id="polygon45"
       style="fill:#f7e4be;fill-rule:nonzero"
       transform="translate(-338.66664,0)" /><polygon
       id="rect3026-45-5"
       class="fil5"
       points="3481,6929 3481,7051 5858,7051 5858,6929 "
       style="fill:#f7e4be"
       transform="translate(-338.66664,0)" /><polygon
       class="fil4"
       points="5859,7403 5859,7675 5858,7675 3480,7675 3480,7403 "
       id="polygon48"
       style="fill:#f7e4be;fill-rule:nonzero"
       transform="translate(-338.66664,0)" /><polygon
       id="rect3026-45-1"
       class="fil5"
       points="3481,7478 3481,7600 5858,7600 5858,7478 "
       style="fill:#f7e4be"
       transform="translate(-338.66664,0)" /><polygon
       class="fil4"
       points="5859,9387 5859,9659 5858,9659 3480,9659 3480,9387 "
       id="polygon51"
       style="fill:#f7e4be;fill-rule:nonzero"
       transform="translate(-338.66664,0)" /><polygon
       id="rect3026-45-7"
       class="fil5"
       points="3481,9462 3481,9584 5858,9584 5858,9462 "
       style="fill:#f7e4be"
       transform="translate(-338.66664,0)" /><polygon
       class="fil4"
       points="5859,12950 5859,13222 5858,13222 3480,13222 3480,12950 "
       id="polygon54"
       style="fill:#f7e4be;fill-rule:nonzero"
       transform="translate(-338.66664,0)" /><polygon
       id="rect3026-45-11"
       class="fil5"
       points="3481,13025 3481,13147 5858,13147 5858,13025 "
       style="fill:#f7e4be"
       transform="translate(-338.66664,0)" /><polygon
       class="fil2"
       points="5859,10194 5859,10466 5858,10466 3480,10466 3480,10194 "
       id="polygon57"
       style="fill:#f0b49e;fill-rule:nonzero"
       transform="translate(-338.66664,0)" /><polygon
       id="rect3026-8-0_0"
       class="fil3"
       points="3481,10269 3481,10391 5858,10391 5858,10269 "
       style="fill:#f0b49e"
       transform="translate(-338.66664,0)" /><polygon
       class="fil2"
       points="5859,5332 5859,5604 5858,5604 3480,5604 3480,5332 "
       id="polygon60"
       style="fill:#f0b49e;fill-rule:nonzero"
       transform="translate(-338.66664,0)" /><polygon
       id="rect3026-82_1"
       class="fil3"
       points="3481,5407 3481,5529 5858,5529 5858,5407 "
       style="fill:#f0b49e"
       transform="translate(-338.66664,0)" /><polygon
       class="fil2"
       points="5859,3424 5859,3696 5858,3696 3480,3696 3480,3424 "
       id="polygon63"
       style="fill:#f0b49e;fill-rule:nonzero"
       transform="translate(-338.66664,0)" /><polygon
       id="rect3026_2"
       class="fil3"
       points="3481,3499 3481,3621 5858,3621 5858,3499 "
       style="fill:#f0b49e"
       transform="translate(-338.66664,0)" /><polygon
       style="fill:#0f1f97;fill-opacity:0.79885062"
       points="12520,13804 12520,2793 10141,2793 10141,13804 "
       class="fil1"
       id="rect2985-1-16"
       transform="translate(-1015.9999,0)" /><polygon
       style="fill:#f7e4be;fill-rule:nonzero"
       id="polygon70"
       points="10141,4348 12520,4348 12520,4620 12519,4620 10141,4620 "
       class="fil4"
       transform="translate(-1015.9999,0)" /><polygon
       style="fill:#f7e4be"
       points="12519,4545 12519,4423 10142,4423 10142,4545 "
       class="fil5"
       id="rect3026-45-8"
       transform="translate(-1015.9999,0)" /><polygon
       style="fill:#f7e4be;fill-rule:nonzero"
       id="polygon73"
       points="10141,7399 12520,7399 12520,7671 12519,7671 10141,7671 "
       class="fil4"
       transform="translate(-1015.9999,0)" /><polygon
       style="fill:#f7e4be"
       points="12519,7596 12519,7474 10142,7474 10142,7596 "
       class="fil5"
       id="rect3026-45-1-7"
       transform="translate(-1015.9999,0)" /><polygon
       style="fill:#b38184;fill-rule:nonzero"
       id="polygon76"
       points="10141,8691 12520,8691 12520,8963 12519,8963 10141,8963 "
       class="fil6"
       transform="translate(-1015.9999,0)" /><polygon
       style="fill:#b38184"
       points="12519,8888 12519,8766 10142,8766 10142,8888 "
       class="fil7"
       id="rect3026-4-8"
       transform="translate(-1015.9999,0)" /><polygon
       style="fill:#b38184;fill-rule:nonzero"
       id="polygon79"
       points="10141,10896 12520,10896 12520,11168 12519,11168 10141,11168 "
       class="fil6"
       transform="translate(-1015.9999,0)" /><polygon
       style="fill:#b38184"
       points="12519,11093 12519,10971 10142,10971 10142,11093 "
       class="fil7"
       id="rect3026-8-7"
       transform="translate(-1015.9999,0)" /><polygon
       style="fill:#b38184;fill-rule:nonzero"
       id="polygon82"
       points="10141,5478 12520,5478 12520,5750 12519,5750 10141,5750 "
       class="fil6"
       transform="translate(-1015.9999,0)" /><polygon
       style="fill:#b38184"
       points="12519,5675 12519,5553 10142,5553 10142,5675 "
       class="fil7"
       id="rect3026-82-4"
       transform="translate(-1015.9999,0)" /><polygon
       style="fill:#0f1f97;fill-opacity:0.79885062"
       points="13472,2793 13472,13804 15850,13804 15850,2793 "
       class="fil1"
       id="rect2985-1-8"
       transform="translate(-1354.6663,0)" /><polygon
       style="fill:#f7e4be;fill-rule:nonzero"
       id="polygon91"
       points="15850,6879 15850,7151 15849,7151 13472,7151 13472,6879 "
       class="fil4"
       transform="translate(-1354.6663,0)" /><polygon
       style="fill:#f7e4be"
       points="13473,6954 13473,7076 15849,7076 15849,6954 "
       class="fil5"
       id="rect3026-45-5-27"
       transform="translate(-1354.6663,0)" /><polygon
       style="fill:#f7e4be;fill-rule:nonzero"
       id="polygon94"
       points="15850,12974 15850,13246 15849,13246 13472,13246 13472,12974 "
       class="fil4"
       transform="translate(-1354.6663,0)" /><polygon
       style="fill:#f7e4be"
       points="13473,13049 13473,13171 15849,13171 15849,13049 "
       class="fil5"
       id="rect3026-45-11-4"
       transform="translate(-1354.6663,0)" /><polygon
       style="fill:#b38184;fill-rule:nonzero"
       id="polygon97"
       points="15850,3929 15850,4201 15849,4201 13472,4201 13472,3929 "
       class="fil6"
       transform="translate(-1354.6663,0)" /><polygon
       style="fill:#b38184"
       points="13473,4004 13473,4126 15849,4126 15849,4004 "
       class="fil7"
       id="rect3026-2"
       transform="translate(-1354.6663,0)" /><polygon
       style="fill:#b38184;fill-rule:nonzero"
       id="polygon100"
       points="15850,8163 15850,8435 15849,8435 13472,8435 13472,8163 "
       class="fil6"
       transform="translate(-1354.6663,0)" /><polygon
       style="fill:#b38184"
       points="13473,8238 13473,8360 15849,8360 15849,8238 "
       class="fil7"
       id="rect3026-9-7"
       transform="translate(-1354.6663,0)" /><polygon
       style="fill:#b38184;fill-rule:nonzero"
       id="polygon103"
       points="15850,10433 15850,10705 15849,10705 13472,10705 13472,10433 "
       class="fil6"
       transform="translate(-1354.6663,0)" /><polygon
       style="fill:#b38184"
       points="13473,10508 13473,10630 15849,10630 15849,10508 "
       class="fil7"
       id="rect3026-8-8"
       transform="translate(-1354.6663,0)" /><polygon
       style="fill:#0f1f97;fill-opacity:0.79885062"
       points="6811,2793 6811,13804 9189,13804 9189,2793 "
       class="fil1"
       id="rect2985-1-1"
       transform="translate(-677.33328,0)" /><polygon
       style="fill:#f7e4be;fill-rule:nonzero"
       id="polygon109"
       points="6811,7113 6811,6841 9189,6841 9189,7113 9189,7113 "
       class="fil4"
       transform="translate(-677.33328,0)" /><polygon
       style="fill:#f7e4be"
       points="6811,6916 6811,7038 9189,7038 9189,6916 "
       class="fil5"
       id="rect3026-45-5-2"
       transform="translate(-677.33328,0)" /><polygon
       style="fill:#f7e4be;fill-rule:nonzero"
       id="polygon112"
       points="6811,7662 6811,7390 9189,7390 9189,7662 9189,7662 "
       class="fil4"
       transform="translate(-677.33328,0)" /><polygon
       style="fill:#f7e4be"
       points="6811,7465 6811,7587 9189,7587 9189,7465 "
       class="fil5"
       id="rect3026-45-1-3"
       transform="translate(-677.33328,0)" /><polygon
       style="fill:#b38184;fill-rule:nonzero"
       id="polygon115"
       points="6811,3316 6811,3044 9189,3044 9189,3316 9189,3316 "
       class="fil6"
       transform="translate(-677.33328,0)" /><polygon
       style="fill:#b38184"
       points="6811,3119 6811,3241 9189,3241 9189,3119 "
       class="fil7"
       id="rect3026-3"
       transform="translate(-677.33328,0)" /><polygon
       style="fill:#b38184;fill-rule:nonzero"
       id="polygon118"
       points="6811,6615 6811,6343 9189,6343 9189,6615 9189,6615 "
       class="fil6"
       transform="translate(-677.33328,0)" /><polygon
       style="fill:#b38184"
       points="6811,6418 6811,6540 9189,6540 9189,6418 "
       class="fil7"
       id="rect3026-9-1"
       transform="translate(-677.33328,0)" /><polygon
       style="fill:#b38184;fill-rule:nonzero"
       id="polygon121"
       points="6811,11281 6811,11009 9189,11009 9189,11281 9189,11281 "
       class="fil6"
       transform="translate(-677.33328,0)" /><polygon
       style="fill:#b38184"
       points="6811,11084 6811,11206 9189,11206 9189,11084 "
       class="fil7"
       id="rect3026-8-3"
       transform="translate(-677.33328,0)" /><polygon
       style="fill:#f7e4be;fill-rule:nonzero"
       id="polygon124"
       points="6811,4611 6811,4339 9189,4339 9189,4611 9189,4611 "
       class="fil4"
       transform="translate(-677.33328,0)" /><polygon
       style="fill:#f7e4be"
       points="6811,4414 6811,4536 9189,4536 9189,4414 "
       class="fil5"
       id="rect3026-45_3"
       transform="translate(-677.33328,0)" /><polygon
       style="fill:#f7e4be;fill-rule:nonzero"
       id="polygon127"
       points="6811,13208 6811,12936 9189,12936 9189,13208 9189,13208 "
       class="fil4"
       transform="translate(-677.33328,0)" /><polygon
       style="fill:#f7e4be"
       points="6811,13011 6811,13133 9189,13133 9189,13011 "
       class="fil5"
       id="rect3026-45-11-1"
       transform="translate(-677.33328,0)" /><path
       style="fill:#45f0ff;fill-opacity:0.46551729"
       d="m 15873.392,12702.982 c -125.762,-227.221 -22.893,-726.997 74.754,-231.017 33.281,77.499 150.994,372.816 -74.754,231.017 z m 451.584,141.305 c -276.76,-346.699 -261.478,-823.135 -241.983,-1232.945 78.715,-502.904 337.825,-942.681 436.067,-1443.199 -29.047,-190.7806 372.704,-786.534 438.441,-543.9572 -398.996,497.6672 -432.775,1143.6972 -664.1,1709.1542 -66.679,439.534 -117.494,897.049 52.421,1325.051 52.751,96.507 98.5,448.486 -20.846,185.896 z m 802.808,325.33 c 25.817,-213.964 130.426,45.297 0,0 z m -583.658,-490.979 c -175.573,-471.373 -115.039,-997.545 -29.59,-1477.791 124.257,-474.23 230.157,-954.769 493.099,-1382.1796 206.857,-362.501 560.203,-794.211 973.571,-892.5184 -305.948,320.5859 -797.388,649.5352 -965.19,1117.337 -182.925,410.562 -310.924,814.944 -371.327,1261.091 -70.08,450.681 -99.982,913.165 1.38,1362.171 320.936,264.375 -128.082,330.617 -101.943,11.89 z m 474.074,348.638 c -263.464,-348.43 408.731,95.208 0,0 z m 372.238,82.743 c -346.483,-426.642 -220.53,-999.735 -235.245,-1480.873 368.67,-332.831 208.881,690.237 165.721,910.351 -59.741,257.324 246.652,592.884 271.337,699.345 -77.803,-22.394 -161.695,-58.759 -201.813,-128.823 z m 576.237,193.11 c 57.467,-85.31 65.744,95.108 0,0 z m -1138.825,-610.398 c -132.71,-441.763 -39.485,-898.043 11.292,-1335.838 128.623,-415.222 297.258,-6.537 128.69,193.135 -129.931,377.643 136.772,919.555 -109.927,1193.251 -10.018,-16.851 -20.037,-33.699 -30.055,-50.548 z m 963.999,433.013 c -195.435,-151.601 -486.35,-794.682 -207.838,-752.625 -58.295,243.884 360.486,596.018 207.838,752.625 z m 480.609,209.803 c -359.44,-301.485 -423.322,-781.534 -633.041,-1163.574 336.233,125.67 406.21,731.817 671.628,1038.42 34.47,56.656 67.532,298.502 -38.587,125.154 z m -2530.679,-1264.67 c 76.5,-609.674 354.633,367.815 0,0 z m 2838.38,1179.676 c -187.658,-141.515 -574.843,-757.833 -285.28,-701.093 145.785,229.84 372.245,639.076 405.419,789.593 -51.182,-9.364 -106.37,-37.813 -120.139,-88.5 z m -3071.375,-1339.384 c 75.708,-85.256 63.675,116.569 0,0 z m -62.239,-164.997 c -68.561,-428.736 84.181,-860.165 331.269,-1209.842 150.443,-376.581 518.428,-615.8532 697.612,-980.3048 330.75,-315.1486 547.232,-731.8306 954.493,-981.6587 239.643,-158.4413 563.202,-323.2162 823.898,-170.3175 93.755,-299.8107 269.949,80.5532 527.781,-128.3189 568.472,-57.6318 1131.325,65.1751 1676.998,199.6287 636.598,469.2831 904.76,1206.742 1047.358,1921.5062 172.384,467.959 127.937,980.148 323.646,1441.551 50.88,246.186 -229.618,475.308 -196.388,83.183 -80.163,-431.674 -300.377,-855.546 -277.174,-1290.59 -55.828,-489.335 -193.535,-938.7341 -388.74,-1391.1662 -271.655,-432.0672 -724.361,-817.2568 -1299.074,-817.8044 -647.188,-116.0323 -1329.282,-0.8446 -1868.679,355.1067 -336.44,-7.0888 663.13,-439.0321 35.059,-282.0845 -465.325,159.109 -722.735,592.1269 -1054.956,905.7639 -274.681,419.0229 -631.902,732.8585 -868.642,1158.4675 -224.561,393.081 -317.873,849.771 -361.409,1276.64 l -39.584,-12.562 -63.46,-77.194 0,0 z m 3572.43,1617.42 c -313.645,-371.842 -518.404,-812.465 -671.433,-1252.891 -90.263,-305.16 420.791,-462.303 283.041,-70.341 -21.333,528.903 459.869,897.535 530.528,1384.186 l -45.51,-3.762 -96.626,-57.192 0,0 z m 476.926,74.956 c 51.402,-318.33 298.51,172.538 0,0 z m -3617.623,-1739.636 c 14.232,-121.325 93.72,83.556 0,0 z m 3350.136,1325.52 c -268.778,-366.776 -432.368,-787.063 -418.687,-1231.093 -30.644,-546.774 77.528,-1133.192 348.643,-1634.967 256.037,-47.264 -93.35,494.403 -45.323,654.529 -173.461,436.519 -76.018,783.672 -127.428,1241.718 114.802,357.85 335.9,843.425 528.576,1200.933 -156.012,71.979 -261.019,-112.025 -285.781,-231.12 z m -3473.411,-1502.837 c 32.066,-459.804 343.815,-847.716 521.04,-1265.786 228.639,19.565 -244.552,552.089 -213.346,801.204 -101.093,94.12 -75.076,825.883 -307.694,464.582 z m 4049.989,1787.801 c -253.872,-378.587 -476.471,-755.567 -554.697,-1163.358 -32.942,-469.854 -80.131,-966.289 53.319,-1426.155 385.001,84.583 -136.735,733.468 163.71,975.509 -126.396,492.844 127.801,1117.787 483.482,1525.977 123.936,165.236 -8.265,259.512 -145.814,88.027 z m -1720.81,-892.784 c -247.744,-268.47 -274.635,-1025.687 88.175,-1087.959 71.332,346.06 -205.306,701.955 58.317,1039.88 -14.819,25.801 -154.125,141.123 -146.492,48.079 z M 15191.99,11099.714 c 50.093,-410.198 434.211,-703.518 573.259,-1078.695 208.555,-448.9204 610.12,-799.5471 974.846,-1167.751 286.414,-242.182 94.941,-338.4897 -124.754,-95.739 -294.171,291.5655 -598.738,565.4277 -842.367,906.1326 -338.697,154.1305 -40.519,723.4504 -546.84,741.3744 -230.583,-584.5566 647.412,-857.6708 910.106,-1308.4309 278.825,-336.8086 608.533,-672.1868 1089.522,-724.918 237.616,-94.06 821.651,-371.7366 881.838,-226.365 -519.708,192.6702 -1080.074,351.5121 -1356.3,845.9143 -345.516,404.7732 -730.491,769.0835 -981.827,1258.4616 -178.882,290.652 -322.224,608.979 -577.483,850.016 z m 195.771,-883.756 c 272.849,-264.162 -431.136,-14.731 0,0 z m 2184.362,1756.734 c -99.153,-425.467 72.377,-826.112 280.012,-1191.874 55.974,-229.369 492.394,-901.2347 266.108,-312.072 -175.874,422.546 -398.468,894.933 -342.722,1335.859 39.363,99.525 -179.14,472.68 -203.398,168.087 z m 2552.923,1193.264 c 309.494,-305.435 -195.471,-799.185 -135.364,-1194.648 -52.66,-430.17 -117.89,-843.188 -30.123,-1269.595 -43.288,-381.88 -62.191,-1103.8417 -652.372,-1024.1639 -590.397,65.1404 -754.39,675.2649 -948.038,1102.8699 20.44,212.077 -229.508,634.246 -279.029,233.241 193.078,-399.598 334.18,-833.931 627.023,-1184.9066 272.409,-269.5847 868.022,-437.229 1166.54,-118.5491 274.53,516.1257 218.061,1105.5777 221.557,1664.8557 33.088,494.684 83.951,982.741 252.978,1457.797 130.046,157.667 10.558,497.37 -223.172,333.099 z m -169.751,-172.441 c -438.629,-662.699 -365.163,-1481.172 -343.79,-2225.645 118.674,-353.156 -89.605,-1115.962 -573.34,-678.04 -340.155,385.538 -284.557,905.425 -499.577,1316.056 -275.03,-26.275 108.356,-605.825 92.082,-833.323 103.004,-396.569 645.381,-1058.4317 1041.584,-552.547 240.055,475.773 2.686,993.646 92.268,1491.617 -0.441,537.427 120.91,1079.437 354.877,1568.004 -56.637,35.587 -119.75,-69.494 -164.104,-86.122 z m 650.423,-71.286 c -98.955,-450.588 -336.678,-873.513 -304.842,-1345.017 -85.602,-548.863 37.485,-1122.497 -147.566,-1655.3955 -208.49,-322.0802 -438.267,-932.0937 -961.31,-758.8703 -367.772,-14.8837 -938.237,409.0661 -1093.717,346.2103 311.9,-370.9237 886.809,-513.6451 1375.791,-496.7986 469.548,94.99 601.26,577.2688 851.897,893.8416 280.458,863.4135 -27.273,1813.3605 354.366,2661.6785 4.716,96.177 175.048,756.038 -74.619,354.351 z m -5429.53,-2325.657 c 89.304,-48.362 -2.601,112.993 0,0 z m -41.591,-66.341 c 60.423,-145.972 67.182,123.442 0,0 z m 2051.277,883.854 c -2.22,-475.961 117.904,-938.3 360.385,-1365.882 -11.67,-276.2771 736.372,-622.959 320.268,-207.4283 -261.42,303.4623 -450.316,690.7823 -550.202,1060.0253 325.579,300.544 227.702,-798.588 530.316,-522.42 -149.463,294.941 -303.985,711.988 -458.887,939.888 65.676,136.379 -114.805,136.297 -201.88,95.817 z m -329.266,-407.373 c 143.424,-489.923 281.487,-1000.398 626.993,-1417.546 413.459,-435.796 1004.437,-745.3464 1621.414,-835.73 462.349,-11.7401 1018.658,12.0712 1275.396,435.2146 175.996,209.2227 418.46,779.4436 171.861,877.6644 -87.733,-320.0564 -339.031,-632.0028 -528.227,-843.1902 172.119,66.0579 446.866,287.2457 193.305,-25.539 -252.455,-278.2842 -679.548,-350.5895 -1058.891,-309.558 -403.051,-3.4917 -782.82,208.9748 -1111.284,413.9627 -477.364,203.9843 -700.959,750.1285 -858.948,1203.3165 -107.633,95.794 -123.686,825.502 -331.619,501.405 z m 1500.768,651.555 c 50.409,-418.719 463.021,237.071 26.991,52.616 -8.997,-17.539 -17.993,-35.078 -26.991,-52.616 z m 2530.976,991.563 c -105.72,-479.008 -201.545,-962.044 -266.546,-1440.419 9.797,-263.948 -131.028,-943.904 84,-973.38 137.613,416.736 95.202,865.724 145.18,1314.163 19.126,399.247 184.463,782.283 232.401,1174.129 -69.071,23.748 -136.559,-49.901 -195.035,-74.493 z m 340.095,2.577 c 49.954,-151.072 91.782,85.95 0,0 z M 15091.358,9821.0902 c 40.367,-338.6781 817.725,-666.0615 649.185,-853.6823 -173.072,177.8569 -602.288,335.6267 -232.99,6.6179 426.499,-95.3237 730.93,-440.5597 1099.759,-577.5946 -410.872,420.5518 -855.376,819.7128 -1239.489,1265.32 -76.954,70.1016 -161.136,152.1888 -276.465,159.339 z m 6166.927,2612.3228 c -0.02,-428.806 -232.299,-833.567 -205.436,-1248.16 -219.021,-442.023 -26.466,-933.382 -227.445,-1381.0936 -151.116,-434.5474 -333.293,-938.7539 -850.788,-1102.0158 -501.428,-126.7241 -1124.599,-144.0843 -1569.447,125.5465 -291.658,183.027 -400.538,-70.202 -60.757,-135.4645 571.518,-276.7892 1269.099,-212.5642 1857.656,-15.7084 495.903,306.2752 762.189,818.3449 869.608,1346.5368 112.914,445.921 70.285,910.811 209.665,1354.011 -97.819,282.546 375.019,967.004 -23.056,1056.348 z m -6013.27,-3089.3949 c 25.969,-120.738 83.501,68.3427 0,0 z m 2637.317,792.0989 c 34.342,-160.6394 497.017,-727.4498 281.51,-258.9418 -47.853,54.9005 -205.616,382.7968 -281.51,258.9418 z m 4148.518,1629.005 c -173.935,-751.155 -370.434,-1498.43 -583.577,-2239.9406 -209.374,-439.9291 -448.84,-925.4114 -942.488,-1147.7984 -338.945,-316.4705 -789.323,-481.3669 -1261.833,-503.0678 -503.296,-35.9253 -1003.32,-2.9206 -1486.077,143.1014 -326.368,25.3052 -894.668,454.1937 -1011.736,265.4471 657.428,-320.6709 1393.161,-532.329 2139.116,-541.9992 842.508,50.1323 1684.95,352.5268 2255.066,944.5375 287.298,301.1741 417.184,710.0498 568.334,1076.16 183.466,463.56 231.057,950.717 374.888,1417.063 -74.774,158.002 346.577,850.094 -51.693,586.497 z m -2685.935,-1219.433 c -58.42,-279.512 180.11,-441.002 125.277,-82.144 19.367,57.6 -91.254,230.385 -125.277,82.144 z M 15465.179,8739.3044 c 714.813,-306.4836 1266.179,-933.1735 2083.044,-1027.5772 -38.729,239.2174 -868.679,286.3238 -1136.877,585.2471 -282.561,184.3354 -551.525,543.4175 -946.167,442.3301 z m 1498.493,662.0478 c 83.481,-323.3664 311.651,203.2009 0,0 z m 1407.173,523.222 c -58.738,-247.2257 693.247,-731.4652 518.955,-398.3482 -190.458,112.6563 -311.926,308.6993 -518.955,398.3482 z m -1236.881,-688.1395 c 116.428,-202.2597 722.696,-621.9912 313.463,-177.6823 -76.203,71.2402 -177.522,257.4605 -313.463,177.6823 z m 5198.04,2146.7423 c -169.795,-854.944 -379.153,-1729.0136 -841.21,-2493.5628 -411.805,-589.8473 -1083.529,-1023.8945 -1833.069,-1140.8622 -267.382,-56.2652 -502.076,-244.2451 -96.307,-139.8839 421.8,147.6838 882.569,195.9082 1257.263,441.9321 619.246,407.074 1090.025,1031.191 1251.672,1722.2553 169.654,524.8835 360.124,1050.5995 438.236,1594.2415 29.1,161.519 -132.935,89 -176.585,15.88 z M 15655.011,8442.6327 c 212.592,-411.5119 759.888,-554.159 1152.121,-786.1465 665.687,-312.8875 1410.016,-494.512 2156.993,-494.6743 280.328,151.817 -548.211,153.8436 -759.587,178.7424 -455.916,51.6426 -851.326,294.1594 -1299.063,374.2071 -354.059,235.1067 -770.898,389.7414 -1077.136,680.3817 -35.343,41.0972 -116.661,90.0973 -173.328,47.4896 z m 2681.084,1123.3002 c 28.354,-280.8456 135.698,224.3147 0,0 z m 4345.714,1554.9171 c -160.631,-763.178 -418.655,-1519.6142 -801.229,-2212.5583 -301.968,-345.6877 -550.945,-764.4564 -998.036,-973.2274 -199.665,-299.6248 -755.885,-142.1424 -854.806,-398.4702 490.474,-100.2306 904.16,276.8441 1286.203,544.0686 428.143,393.3193 839.666,832.161 1012.675,1381.3179 292.108,482.1324 282.102,1062.8554 489.896,1572.6204 27.137,79.435 -54.332,178.203 -134.703,86.249 z m -6895.52,-3169.6038 c 36.156,-240.6709 916.993,-469.8612 447.746,-189.0647 -159.12,32.9983 -265.882,289.6148 -447.746,189.0647 z m 3290.919,1384.1471 c 220.25,-158.7468 870.942,134.3867 283.362,89.0239 -74.473,-7.6536 -355.167,63.6192 -283.362,-89.0239 z m 3836.211,1501.8737 c -7.557,-355.615 -230.141,-902.8407 -218.383,-1115.1902 289.983,239.7042 486.334,708.6612 576.523,1000.7702 -88.766,-177.064 -436.409,-467.947 -261.417,-76.193 45.307,125.529 94.653,526.75 -96.722,190.613 z M 15960.78,7522.4395 c -80.74,-317.2316 854.712,-297.7413 313.643,-101.5858 -80.762,41.8589 -245.972,287.6968 -313.643,101.5858 z m 541.424,61.7139 c -2.762,-256.9443 612.27,-194.8048 179.101,-18.8641 -44.736,31.5984 -137.503,85.3661 -179.101,18.8641 z m 6848.881,2764.5866 c -370.27,-510.1715 -378.618,-1158.692 -756.13,-1665.649 -171.41,-401.7051 -436.135,-730.9362 -782.841,-1019.1333 -380.31,-365.6067 -853.335,-621.5089 -1359.591,-811.2881 -403.482,-173.2134 -854.03,-292.5004 -1271.136,-382.8471 -711.757,-68.7974 -1392.577,171.3613 -2083.023,287.9995 -412.562,-91.1149 416.497,-247.9847 585.103,-246.4066 496.922,-170.6222 1043.394,-154.7036 1562.637,-163.7649 432.986,156.8814 880.83,262.391 1322.286,396.9094 438.367,120.5495 750.795,416.7855 1125.15,637.558 312.029,255.8499 636.183,508.9031 813.088,874.5456 312.93,373.1907 458.851,829.1899 676.296,1249.5911 -154.525,247.6474 567.628,925.6504 168.161,842.4854 l 0,0 z M 18212.704,8091.8841 c 359.087,-177.3342 783.945,-39.9395 1169.607,-66.8426 276.279,-76.5624 1072.644,327.5636 423.82,185.2869 -496.401,-157.9826 -1022.404,-46.5448 -1531.274,-103.4993 l -62.154,-14.9444 0,0 z M 16071.138,7067.3833 c 258.77,-229.9972 154.583,181.9638 0,0 z m 456.517,171.046 c 409.137,-420.9481 1080.688,-400.4574 1633.709,-522.8144 553.139,-184.2004 1167.288,-124.4128 1695.309,102.1289 608.992,92.4415 1152.587,398.2881 1615.505,762.6227 146.753,143.9723 761.929,541.6919 543.27,623.4398 -331.756,-252.7025 -597.455,-580.1919 -971.4,-781.368 -383.033,-360.8219 -921.842,-468.5892 -1434.861,-566.4034 -758.79,-252.294 -1551.333,-12.3254 -2302.753,129.0248 -257.944,74.6061 -493.595,310.3797 -778.779,253.3696 z m 399.851,92.736 c 434.085,-289.7726 994.679,-293.4912 1493.339,-424.9228 703.197,-80.1385 1417.587,71.3054 2060.68,329.7352 410.833,164.1788 736.05,453.5611 1064.779,714.5932 232.924,133.8378 446.052,612.3341 616.655,593.0514 -112.916,-604.5308 378.417,421.4433 448.262,602.9196 186.162,186.9486 231.549,706.8719 -77.467,350.6438 -82.635,-458.2168 -372.915,-809.4498 -729.528,-1120.1938 -488.441,-626.5391 -1258.688,-995.357 -2023.921,-1258.7481 -668.383,-199.2414 -1389.441,-124.8346 -2044.369,81.4515 -277.461,-108.704 -567.725,274.9408 -808.43,131.47 z m 735.058,361.5457 c 357.148,-291.4044 970.377,-165.9109 1337.377,-282.004 -90.794,222.2829 318.208,211.0079 -65.672,193.3296 -435.158,-86.3571 -872.425,149.8459 -1271.705,88.6744 z M 16272.3,6967.9743 c 359.938,-338.7582 236.436,387.4668 0,0 z m 7321.931,2988.459 c -242.291,-498.4209 -558.672,-1141.5612 -698.465,-1575.5573 477.192,187.4029 467.412,798.272 667.845,1197.3919 124.992,91.9458 298.558,814.9501 30.62,378.1654 z M 16297.452,6777.7857 c -28.652,-299.9486 607.57,-70.2282 120.184,-16.7403 l -55.92,8.7487 -64.264,7.9916 z m 377.884,106.0613 c 56.849,-301.5374 262.028,149.1828 0,0 z m -33.727,-302.0414 c -161.098,-349.4373 696.742,-197.7531 909.189,-411.2822 300.656,-125.4902 609.636,105.4308 135.99,164.4459 -353.827,-20.6254 -878.386,248.2637 -1045.179,246.8363 z m 7248.531,3115.0121 c -210.875,-391.3744 -297.144,-830.1791 -536.027,-1210.6477 -72.684,-445.404 -440.342,-719.1021 -705.469,-1062.0808 -109.509,-336.4726 -724.233,-528.507 -675.578,-817.822 396.265,237.2149 696.453,582.0688 975.31,929.2836 405.979,466.6602 631.825,1039.1665 889.742,1581.5139 66.228,71.791 261.314,1019.8953 52.022,579.753 z m -4812.5,-2314.0628 c 229.392,-135.9999 941.656,177.3061 751.133,167.4674 -244.57,-78.8785 -533.55,-14.4678 -751.133,-167.4674 z M 16630.913,6159.0652 c 118.472,-117.1579 124.754,140.3377 0,0 z m 162.604,-44.1954 c 112.807,-246.2479 1054.578,-149.0846 451.266,-30.3229 -126.948,-16.7781 -379.166,141.9038 -451.266,30.3229 z m 2381.86,1076.2167 c 277.452,-64.7813 1058.353,90.4213 897.708,204.9112 -307.741,-30.3173 -602.297,-124.6922 -897.708,-204.9112 z m 4927.017,2032.9251 c -137.508,-589.377 -496.143,-1113.7637 -859.654,-1605.0932 -463.976,-570.0587 -987.423,-1208.2289 -1801.117,-1331.8384 -474.866,-88.7883 -899.433,-372.157 -1398.854,-353.2856 -188.753,-50.3946 -941.299,-17.87 -749.998,-183.7465 521.601,31.9371 1062.614,1.1845 1547.321,215.0963 453.455,158.0753 945.683,231.7091 1364.661,460.7803 422.582,288.9793 799.379,630.4227 1096.649,1033.2421 378.118,377.2599 565.558,875.41 840.381,1313.6019 65.405,74.0291 186.337,660.5233 -39.389,451.2431 z M 16850.465,5863.2099 c 297.122,-377.5904 891.12,-268.2669 1331.534,-330.9633 698.798,-71.8378 1405.767,-61.3192 2105.356,-8.957 449.329,78.7156 907.381,209.8167 1282.517,453.1406 -241.812,75.0965 -743.78,-253.8395 -1107.721,-286.487 -866.151,-135.483 -1755.428,-80.4126 -2624.505,-11.8889 -318.499,85.469 -724.466,97.3483 -987.181,185.1556 z m 5741.032,2245.7954 c -73.063,-468.7572 437.477,554.175 23.205,60.0802 -7.735,-20.0271 -15.471,-40.0533 -23.205,-60.0802 z m -5042.61,-2165.4425 c 419.018,-187.9512 900.626,-155.2118 1348.871,-170.3924 422.898,200.1397 -438.638,113.3167 -614.603,156.1536 -233.336,6.3111 -530.668,122.9321 -734.268,14.2388 z m 485.638,211.4385 c 413.277,-126.258 858.929,-53.7395 1283.423,-123.921 535.478,10.8275 1075.253,38.9744 1572.125,245.8495 466.904,48.7547 783.99,337.4906 1100.255,634.4388 160.745,116.5997 686.317,645.1598 226.423,324.2999 -596.376,-572.3505 -1410.223,-913.0434 -2244.557,-1065.2649 -565.728,-35.7553 -1129.019,22.9783 -1691.445,48.6563 -85.325,-7.0173 -170.397,-26.3645 -246.224,-64.0586 z m 5049.213,2183.4006 c -206.966,-324.6296 -534.549,-538.0494 -862.599,-741.0714 -488.698,-394.9721 -1015.488,-778.2552 -1624.216,-997.8275 -325.939,-159.3167 -813.686,-92.0597 -1067.543,-307.7601 464.304,20.4807 928.792,138.0845 1359.409,289.868 645.803,232.0278 1132.018,699.1519 1675.052,1078.5784 118.696,89.8827 763.752,671.2438 519.897,678.2126 z M 17041.534,5487.6305 c 362.965,-382.8205 1001.639,-201.4156 1485.011,-265.8841 751.1,37.4426 1519.837,-108.1736 2251.463,119.1289 220.179,9.8617 953.937,395.3301 336.482,234.9658 -426.134,-142.5129 -863.542,-247.1299 -1323.529,-236.2233 -565.258,-87.4605 -1131.39,71.0833 -1699.573,26.3126 -353.983,15.724 -696.552,81.1005 -1049.854,121.7001 z m 7335.308,3134.1599 c -338.896,-502.659 -692.813,-993.7311 -1084.659,-1462.0084 -265.576,-340.2231 -648.881,-577.5235 -949.94,-885.4992 -346.101,-70.7628 -735.148,-420.7805 -833.808,-598.78 453.99,101.6295 828.402,472.8647 1203.664,736.6911 300.706,292.0924 631.324,574.0452 871.286,906.0192 31.289,178.1591 498.706,607.1978 324.607,174.9063 -464.54,-628.5569 -991.834,-1235.9946 -1684.522,-1665.9144 -724.748,-441.75 -1554.935,-789.0684 -2438.963,-771.4986 -215.405,-44.4275 -892.936,122.2705 -785.161,-165.0014 398.525,-7.8545 882.365,39.4719 1329.952,104.4265 836.788,90.4767 1659.555,401.5024 2270.18,946.5934 627.893,442.6812 1123.178,1020.4199 1496.015,1661.2153 -27,385.0517 569.366,836.8755 350.564,1126.3082 l -28.536,-32.498 -40.679,-74.96 0,0 z m 236.221,-424.8404 c -232.185,-422.6245 -436.725,-857.5835 -731.388,-1247.482 -345.876,-574.5641 -947.55,-944.6823 -1470.786,-1367.8235 -430.435,-278.0872 -893.884,-556.9609 -1420.005,-645.3407 -469.718,-120.8972 -974.273,-132.2189 -1450.193,-250.9153 -402.474,-14.4791 -965.227,125.4251 -1273.229,-15.7438 564.687,-115.1873 1156.017,-168.9301 1738.171,-61.004 502.622,53.5987 957.101,253.7941 1461.559,303.6457 388.176,218.6844 818.265,405.734 1171.876,676.6625 726.467,507.5831 1361.438,1156.5956 1783.473,1911.5922 186.141,106.1036 432.283,1011.4029 193.216,703.2319 l -2.693,-6.823 c 0,0 0,0 0,0 z M 17266.239,5043.4167 c 382.024,-239.0101 890.477,-24.8377 1315.059,-128.8124 404.864,-72.762 296.359,239.7017 -44.466,142.8312 -431.412,46.4346 -838.094,-51.9183 -1270.593,-14.0188 z m 402.591,-278.8468 c 122.46,-266.4327 251.708,263.0523 0,0 z m 331.38,-16.5584 c 189.707,-196.63 201.158,150.5222 0,0 z m -302.092,-209.9118 c 157.082,-203.8407 1113.857,-108.3604 483.242,16.8186 -155.288,40.15 -337.669,65.3435 -483.242,-16.8186 z m 7080.053,3064.1012 c -330.01,-296.4806 -416.807,-748.8393 -751.158,-1047.2559 -523.513,-642.6915 -1248.654,-1105.253 -1988.129,-1512.3272 -438.973,-350.9222 -1009.77,-356.8301 -1515.549,-565.123 -489.761,-85.6772 -993.992,-80.1731 -1486.584,-146.5997 121.313,-290.614 751.826,42.334 1080.238,-52.2384 429.113,3.5456 784.599,320.983 1226.053,304.5068 419.5,83.79 750.113,341.0874 1113.299,525.2594 283.262,336.5932 718.231,458.5036 1070.537,709.3946 495.04,414.7617 894.889,927.4037 1158.692,1492.0954 420.648,464.8527 -115.812,-536.4284 -204.91,-730.3716 -248.711,-540.4515 -784.045,-884.232 -1253.356,-1243.6889 -616.673,-223.3871 -1060.643,-783.2328 -1751.444,-836.6596 -141.409,-190.472 -956.652,-66.3 -730.952,-290.775 501.035,31.412 990.025,194.493 1445.287,382.7353 434.947,213.5708 755.018,570.3915 1220.396,739.528 628.531,280.3072 1046.955,822.8199 1303.933,1406.4316 128.097,112.7541 533.296,1254.0098 63.647,865.0882 z m -6747.786,-3377.628 c 375.209,-295.4388 1291.764,105.2592 408.19,52.999 -136.862,-12.3142 -271.663,-38.3821 -408.19,-52.999 z m 468.928,193.9464 c 391.265,-172.6592 327.048,317.4182 0,0 z m -450.174,-427.9308 c 252.541,-199.3557 163.642,189.2448 0,0 z m 6992.803,2979.3441 c 94.21,-333.2046 273.836,227.7712 0,0 z M 18325.599,3963.9895 c 415.554,-256.4823 1004.006,-46.5661 1467.283,-151.3691 12.092,74.7094 -211.001,244.1305 -322.524,254.7164 -261.853,-174.1158 -829.797,-51.0481 -1144.759,-103.3473 z m 6576.532,2802.6822 c 67.68,-447.8076 -419.743,-735.2591 -605.996,-1104.8171 -324.429,-266.7524 -607.65,-565.9219 -879.171,-878.0249 -323.831,-308.7831 -763.987,-471.7289 -1139.011,-718.8776 -428.165,-128.7008 -843.491,-281.0779 -1295.055,-354.4096 -526.453,-96.7805 -1080.988,-111.0201 -1603.652,-44.521 -177.061,-343.0836 712.648,-124.7291 982.48,-168.8863 522.386,60.236 1050.285,110.9939 1544.241,298.2039 525.7,142.3056 961.47,450.4861 1409.331,723.3352 560.4,498.4792 1098.597,1028.087 1521.667,1633.8174 155.577,99.0914 496.479,851.7771 65.166,614.18 z m -5155.543,-2665.699 c 203.73,-275.9913 658.855,240.363 174.192,21.9578 -46.518,-49.7427 -162.154,66.4227 -174.192,-21.9578 z m -988.547,-475.8107 c 75.128,-420.9012 760.539,184.3768 173.417,12.8099 -55.406,4.0562 -136.685,52.0467 -173.417,-12.8099 z m 1252.826,307.5585 c 342.18,-159.4478 874.947,-47.1771 1214.25,52.5231 -143.631,219.9578 -661.719,-74.2157 -971.113,42.7665 -88.586,-9.6398 -174.938,-41.4573 -243.137,-95.2896 z m 4986.065,2030.9026 c -414.002,-508.1313 -862.323,-989.6476 -1364.329,-1425.6576 -331.565,-327.149 -796.439,-521.9725 -1219.252,-732.9423 -468.032,-118.8877 -881.101,-387.0811 -1365.031,-440.0001 -261.347,-70.1092 -1098.527,40.1023 -998.569,-232.1414 444.501,107.3152 923.341,-35.4094 1354.408,151.377 489.527,160.1932 963.014,356.574 1445.2,524.8523 385.416,202.9025 736.154,417.0034 1011.393,740.6904 378.745,336.5939 696.179,729.5648 1093.885,1048.1866 4.744,88.4955 387.247,664.01 42.295,365.6351 z M 19028.72,3304.6603 c 170.957,-282.0717 1191.542,-89.884 505.413,21.5209 -168.827,12.478 -337.765,-4.3695 -505.413,-21.5209 z m 4412.677,1866.7128 c -507.316,-366.3638 -1046.065,-694.4559 -1650.402,-907.3831 -226.478,-53.9541 -522.358,-331.0802 -98.642,-186.671 489.799,188.4256 992.077,383.4842 1424.132,671.0928 83.603,23.048 631.142,577.1802 324.912,422.9613 z m 1382.894,58.4088 c -341.251,-433.1994 -789.191,-775.8231 -1189.152,-1158.777 -184.418,-113.822 -971.783,-537.2469 -344.097,-357.9912 511.789,235.0612 837.424,695.9959 1275.848,1022.8547 117.722,46.8414 736.789,856.4557 257.401,493.9135 z M 19853.925,2938.7153 c 357.192,-201.5463 805.086,-44.0249 1197.239,-67.4107 447.04,126.6825 1006.622,112.7007 1356.734,361.5766 -574.692,19.4274 -1081.887,-216.3725 -1638.999,-242.0538 -305.654,-6.5242 -612.835,0.4861 -914.974,-52.1121 z m 2307.686,531.6321 c 241.793,-224.9072 288.924,260.782 0,0 z m 637.951,59.8524 c 25.969,-120.7384 83.501,68.3421 0,0 z m -196.696,-144.777 c 162.761,-167.8429 -11.167,187.9154 0,0 z m 14.432,-174.4022 c 57.467,-85.3106 65.744,95.108 0,0 z"
       id="path2830" /></g></svg>