<?xml version="1.0" encoding="UTF-8" standalone="no"?>
<svg
   xmlns:dc="http://purl.org/dc/elements/1.1/"
   xmlns:cc="http://creativecommons.org/ns#"
   xmlns:rdf="http://www.w3.org/1999/02/22-rdf-syntax-ns#"
   xmlns:svg="http://www.w3.org/2000/svg"
   xmlns="http://www.w3.org/2000/svg"
   version="1.1"
   id="svg2"
   viewBox="0 0 735.71998 699.03004"
   height="699.03003"
   width="735.71997">
  <title
     id="title4914">Chain Termination  Sequencing Schemes</title>
  <defs
     id="defs4">
    <marker
       style="overflow:visible"
       id="Arrow1Lend"
       refX="0"
       refY="0"
       orient="auto">
      <path
         transform="matrix(-0.8,0,0,-0.8,-10,0)"
         style="fill:#000000;fill-opacity:1;fill-rule:evenodd;stroke:#000000;stroke-width:1pt;stroke-opacity:1"
         d="M 0,0 5,-5 -12.5,0 5,5 0,0 Z"
         id="path4367" />
    </marker>
  </defs>
  <metadata
     id="metadata7">
    <rdf:RDF>
      <cc:Work
         rdf:about="">
        <dc:format>image/svg+xml</dc:format>
        <dc:type
           rdf:resource="http://purl.org/dc/dcmitype/StillImage" />
        <dc:title>Chain Termination  Sequencing Schemes</dc:title>
        <cc:license
           rdf:resource="http://creativecommons.org/licenses/by-nc-sa/3.0/" />
        <dc:description>Chain Termination  Sequencing Schemes</dc:description>
        <dc:date>2018-04-13</dc:date>
        <dc:creator>
          <cc:Agent>
            <dc:title>Jeremy Seto</dc:title>
          </cc:Agent>
        </dc:creator>
        <dc:rights>
          <cc:Agent>
            <dc:title>CC-BY-NC-SA</dc:title>
          </cc:Agent>
        </dc:rights>
      </cc:Work>
      <cc:License
         rdf:about="http://creativecommons.org/licenses/by-nc-sa/3.0/">
        <cc:permits
           rdf:resource="http://creativecommons.org/ns#Reproduction" />
        <cc:permits
           rdf:resource="http://creativecommons.org/ns#Distribution" />
        <cc:requires
           rdf:resource="http://creativecommons.org/ns#Notice" />
        <cc:requires
           rdf:resource="http://creativecommons.org/ns#Attribution" />
        <cc:prohibits
           rdf:resource="http://creativecommons.org/ns#CommercialUse" />
        <cc:permits
           rdf:resource="http://creativecommons.org/ns#DerivativeWorks" />
        <cc:requires
           rdf:resource="http://creativecommons.org/ns#ShareAlike" />
      </cc:License>
    </rdf:RDF>
  </metadata>
  <g
     transform="translate(0,-353.33216)"
     id="layer1">
    <path
       d="m 5.1654615,358.72598 -1.2913715,0.004 1.2913229,0.0119 -1.2913716,-0.004 1.2912258,0.0198 -1.291323,-0.0119 1.2910799,0.0277 -1.2912257,-0.0198 1.2908854,0.0357 -1.2910799,-0.0277 1.2906424,0.0436 -1.2908855,-0.0357 1.2903507,0.0515 -1.2906423,-0.0436 1.2900105,0.0594 -1.2903507,-0.0515 1.2896216,0.0673 -1.2900104,-0.0594 1.2891843,0.0752 -1.2896217,-0.0673 1.2886984,0.0831 -1.2891843,-0.0752 1.288164,0.091 -1.2886984,-0.0831 1.2875811,0.099 -1.288164,-0.091 1.2869497,0.10685 -1.2875811,-0.099 1.2862699,0.11474 -1.2869497,-0.10684 1.2855416,0.12263 -1.2862699,-0.11474 1.284765,0.13051 -1.2855416,-0.12263 1.2839399,0.1384 -1.2847649,-0.13052 1.2830665,0.14628 -1.2839399,-0.1384 1.2821448,0.15414 -1.2830665,-0.14627 1.2811749,0.16201 -1.2821448,-0.15415 1.2801567,0.16987 -1.2811749,-0.16201 1.2790903,0.17772 -1.2801567,-0.16987 1.2779758,0.18557 -1.2790903,-0.17772 1.2768131,0.1934 -1.2779758,-0.18557 1.2756024,0.20124 -1.2768131,-0.19341 1.2743436,0.20906 -1.2756023,-0.20123 1.2730368,0.21687 -1.2743436,-0.20906 1.2716823,0.22468 -1.2730369,-0.21687 1.2702797,0.23248 -1.2716822,-0.22468 1.2688293,0.24027 -1.2702797,-0.23248 1.2673312,0.24805 -1.2688293,-0.24027 1.2657853,0.25582 -1.2673312,-0.24805 1.2641918,0.26358 -1.2657853,-0.25582 1.2625507,0.27134 -1.2641917,-0.26359 1.260862,0.27908 -1.2625507,-0.27133 1.259126,0.2868 -1.2608621,-0.27907 1.2573425,0.29452 -1.259126,-0.2868 1.2555116,0.30223 -1.2573424,-0.29452 1.2536335,0.30993 -1.2555116,-0.30224 1.2517081,0.31763 -1.2536334,-0.30994 1.2497357,0.3253 -1.2517081,-0.31763 1.2477162,0.33296 -1.2497357,-0.32529 1.2456497,0.3406 -1.2477162,-0.33295 1.2435364,0.34824 -1.2456497,-0.34061 1.2413761,0.35587 -1.2435363,-0.34824 1.2391692,0.36347 -1.2413761,-0.35586 1.2369156,0.37107 -1.2391692,-0.36348 1.2346155,0.37866 -1.2369156,-0.37107 1.2322689,0.38622 -1.2346155,-0.37866 1.2298758,0.39378 -1.2322688,-0.38622 1.2274365,0.40132 -1.2298758,-0.39378 1.2249509,0.40884 -1.2274365,-0.40132 1.2224193,0.41635 -1.2249509,-0.40884 1.2198416,0.42384 -1.2224193,-0.41635 1.217218,0.43132 -1.2198415,-0.42384 1.2145485,0.43878 -1.217218,-0.43132 1.2118334,0.44622 -1.2145485,-0.43878 1.2090726,0.45365 -1.2118334,-0.44622 1.2062663,0.46106 -1.2090726,-0.45365 1.2034146,0.46845 -1.2062663,-0.46106 1.2005175,0.47583 -1.2034145,-0.46845 1.1975753,0.48319 -1.2005175,-0.47583 1.194588,0.49052 -1.1975753,-0.48319 1.1915557,0.49785 -1.1945879,-0.49053 1.1884784,0.50515 -1.1915556,-0.49784 1.1853566,0.51243 -1.1884785,-0.50515 1.1821901,0.51969 -1.1853566,-0.51243 1.178979,0.52694 -1.18219,-0.51969 1.1757236,0.53416 -1.178979,-0.52694 1.1724239,0.54137 -1.1757235,-0.53417 1.16908,0.54856 -1.1724238,-0.54137 1.1656921,0.55571 -1.16908,-0.54855 1.1622605,0.56286 -1.1656922,-0.55572 1.158785,0.56998 -1.1622604,-0.56286 1.1552658,0.57708 -1.1587849,-0.56998 1.1517032,0.58416 -1.1552658,-0.57708 1.1480972,0.59121 -1.1517032,-0.58415 1.144448,0.59824 -1.1480971,-0.59121 1.1407557,0.60525 -1.144448,-0.59824 1.1370205,0.61224 -1.1407557,-0.60525 1.1332424,0.61921 -1.1370204,-0.61225 1.1294217,0.62615 -1.1332424,-0.6192 1.1255584,0.63306 -1.1294216,-0.62615 1.1216528,0.63997 -1.1255584,-0.63307 1.117705,0.64683 -1.1216528,-0.63996 1.1137151,0.65368 -1.117705,-0.64684 1.1096832,0.6605 -1.113715,-0.65367 1.1056095,0.66729 -1.1096831,-0.6605 1.1014943,0.67407 -1.1056095,-0.6673 1.0973375,0.68082 -1.1014942,-0.67407 1.0931395,0.68753 -1.0973375,-0.68081 1.0889003,0.69423 -1.0931395,-0.68754 1.0846201,0.7009 -1.0889003,-0.69423 1.0802991,0.70754 -1.0846201,-0.7009 1.0759374,0.71416 -1.080299,-0.70754 1.0715351,0.72074 -1.0759373,-0.71415 1.0670926,0.7273 -1.0715351,-0.72074 1.0626098,0.73384 -1.0670925,-0.72731 1.0580871,0.74035 -1.0626098,-0.73384 1.0535245,0.74682 -1.058087,-0.74034 1.0489222,0.75327 -1.0535244,-0.74682 1.0442805,0.75969 -1.0489222,-0.75327 1.0395995,0.76609 -1.0442805,-0.7597 1.0348793,0.77245 -1.0395995,-0.76608 1.0301202,0.77878 -1.0348793,-0.77245 1.0253222,0.78509 -1.0301201,-0.77878 1.0204857,0.79137 -1.0253222,-0.7851 1.0156107,0.79762 -1.0204856,-0.79137 1.0106975,0.80383 -1.0156106,-0.79761 1.0057462,0.81002 -1.0106974,-0.80384 1.0007571,0.81618 -1.0057462,-0.81002 0.9957304,0.8223 -1.0007572,-0.81618 0.9906661,0.8284 -0.9957303,-0.8223 0.9855645,0.83446 -0.990666,-0.8284 0.9804258,0.84049 -0.9855645,-0.83446 0.9752503,0.84649 -0.9804258,-0.84049 0.9700379,0.85246 -0.9752502,-0.84649 0.9647891,0.85839 -0.9700379,-0.85245 0.9595039,0.86429 -0.964789,-0.85839 0.9541826,0.87017 -0.9595038,-0.8643 0.9488254,0.87601 -0.9541826,-0.87017 0.9434325,0.88181 -0.9488253,-0.876 0.938004,0.88758 -0.9434324,-0.88181 0.9325402,0.89332 -0.938004,-0.88758 0.9270414,0.89902 -0.9325402,-0.89332 0.9215076,0.9047 -0.9270413,-0.89903 0.9159391,0.91034 -0.9215075,-0.9047 0.9103361,0.91594 -0.915939,-0.91034 0.9046989,0.92151 -0.9103361,-0.91594 0.8990276,0.92704 -0.9046989,-0.9215 0.8933225,0.93254 -0.8990276,-0.92705 0.8875838,0.93801 -0.8933225,-0.93254 0.8818115,0.94343 -0.8875836,-0.938 0.8760061,0.94882 -0.8818114,-0.94343 0.8701677,0.95418 -0.8760061,-0.94882 0.8642966,0.9595 -0.8701676,-0.95418 0.8583929,0.96479 -0.8642966,-0.95951 0.852457,0.97004 -0.8583929,-0.96479 0.8464889,0.97525 -0.8524569,-0.97004 0.8404889,0.98043 -0.8464888,-0.97525 0.8344573,0.98556 -0.8404889,-0.98042 0.8283943,0.99066 -0.8344572,-0.98556 0.8223,0.99573 -0.8283942,-0.99067 0.8161749,1.00076 -0.8223,-0.99573 0.810019,1.00575 -0.8161748,-1.00076 0.8038326,1.0107 -0.810019,-1.00575 0.797616,1.01561 -0.8038325,-1.0107 0.7913692,1.02049 -0.7976159,-1.01561 0.7850928,1.02532 -0.7913692,-1.02048 0.7787868,1.03012 -0.7850928,-1.02533 0.7724514,1.03488 -0.7787867,-1.03012 0.766087,1.0396 -0.7724513,-1.03488 0.7596936,1.04428 -0.7660869,-1.0396 0.7532718,1.04893 -0.7596936,-1.04429 0.7468216,1.05353 -0.7532718,-1.04892 0.7403432,1.05808 -0.7468215,-1.05352 0.733837,1.06261 -0.7403432,-1.05809 0.7273031,1.06709 -0.7338369,-1.06261 0.7207419,1.07154 -0.727303,-1.06709 0.7141534,1.07593 -0.7207418,-1.07153 0.7075382,1.0803 -0.7141534,-1.07594 0.7008963,1.08462 -0.7075381,-1.0803 0.694228,1.0889 -0.7008963,-1.08462 0.6875336,1.09314 -0.6942279,-1.0889 0.6808132,1.09734 -0.6875335,-1.09314 0.6740673,1.10149 -0.6808132,-1.09733 0.667296,1.10561 -0.6740672,-1.1015 0.6604994,1.10968 -0.6672958,-1.1056 0.6536781,1.11371 -0.6604994,-1.10968 0.6468322,1.1177 -0.653678,-1.11371 0.6399619,1.12165 -0.6468322,-1.11771 0.6330676,1.12556 -0.6399619,-1.12165 0.6261494,1.12942 -0.6330675,-1.12556 0.6192075,1.13325 -0.6261492,-1.12943 0.6122424,1.13702 -0.6192075,-1.13324 0.6052543,1.14076 -0.6122424,-1.13702 0.5982434,1.14445 -0.6052542,-1.14076 0.5912099,1.1481 -0.5982433,-1.14445 0.5841542,1.1517 -0.5912099,-1.1481 0.5770765,1.15527 -0.5841541,-1.1517 0.569977,1.15878 -0.5770764,-1.15526 0.5628561,1.16226 -0.5699769,-1.15879 0.555714,1.16569 -0.5628561,-1.16226 0.5485511,1.16908 -0.555714,-1.16569 0.5413674,1.17243 -0.548551,-1.16908 0.5341633,1.17572 -0.5413673,-1.17243 0.5269392,1.17898 -0.5341633,-1.17572 0.5196952,1.18219 -0.5269391,-1.17898 0.5124316,1.18536 -0.5196951,-1.18219 0.5051487,1.18848 -0.5124315,-1.18536 0.4978469,1.19156 -0.5051487,-1.18848 0.4905262,1.19458 -0.4978467,-1.19155 0.4831871,1.19757 -0.4905262,-1.19458 0.4758299,1.20051 -0.4831871,-1.19757 0.4684547,1.20341 -0.4758298,-1.20051 0.4610619,1.20626 -0.4684546,-1.20341 0.4536516,1.20907 -0.4610618,-1.20627 0.4462244,1.21184 -0.4536516,-1.20908 0.4387803,1.21455 -0.4462243,-1.21183 0.4313198,1.21722 -0.4387803,-1.21455 0.4238429,1.21984 -0.4313196,-1.21722 0.4163501,1.22242 -0.4238429,-1.21984 0.4088417,1.22495 -0.41635,-1.22242 0.4013178,1.22744 -0.4088416,-1.22495 0.3937788,1.22987 -0.4013177,-1.22743 0.386225,1.23227 -0.3937787,-1.22988 0.3786567,1.23462 -0.386225,-1.23227 0.3710741,1.23691 -0.3786566,-1.23461 0.3634776,1.23917 -0.3710741,-1.23692 0.3558673,1.24138 -0.3634775,-1.23917 0.3482437,1.24353 -0.3558672,-1.24137 0.3406069,1.24565 -0.3482436,-1.24354 0.3329574,1.24772 -0.3406069,-1.24565 0.3252953,1.24973 -0.3329573,-1.24771 0.3176209,1.2517 -0.3252952,-1.24973 0.3099346,1.25363 -0.3176209,-1.25171 0.3022366,1.25552 -0.3099345,-1.25364 0.2945273,1.25734 -0.3022366,-1.25551 0.2868068,1.25913 -0.2945271,-1.25734 0.2790755,1.26086 -0.2868067,-1.25913 0.2713338,1.26255 -0.2790755,-1.26086 0.2635818,1.26419 -0.2713337,-1.26255 0.2558199,1.26579 -0.2635817,-1.26419 0.2480483,1.26733 -0.2558198,-1.26579 0.2402675,1.26883 -0.2480483,-1.26733 0.2324776,1.27028 -0.2402674,-1.26883 0.2246789,1.27168 -0.2324775,-1.27028 0.2168718,1.27304 -0.2246788,-1.27168 0.2090565,1.27434 -0.2168718,-1.27304 0.2012334,1.27561 -0.2090564,-1.27435 0.1934026,1.27682 -0.2012333,-1.27561 0.1855646,1.27798 -0.1934026,-1.27681 0.1777196,1.27909 -0.1855645,-1.27798 0.1698679,1.28016 -0.1777195,-1.27909 0.1620098,1.28117 -0.1698678,-1.28015 0.1541456,1.28214 -0.1620097,-1.28117 0.1462756,1.28306 -0.1541456,-1.28214 0.1384002,1.28394 -0.1462756,-1.28307 0.1305194,1.28477 -0.1384,-1.28394 0.1226338,1.28554 -0.1305194,-1.28477 0.1147436,1.28627 -0.1226337,-1.28554 0.1068489,1.28695 -0.1147434,-1.28627 0.09895,1.28758 -0.1068489,-1.28695 0.091048,1.28817 -0.09895,-1.28759 0.083142,1.2887 -0.091048,-1.28816 0.075233,1.28918 -0.083142,-1.2887 0.067322,1.28963 -0.075233,-1.28919 0.059408,1.29001 -0.067322,-1.28962 0.051491,1.29035 -0.059407,-1.29001 0.043573,1.29064 -0.051491,-1.29035 0.035653,1.29089 -0.043572,-1.29064 0.027731,1.29108 -0.035652,-1.29089 0.019809,1.29123 -0.027731,-1.29108 0.011885,1.29132 -0.019809,-1.29123 0.00396,1.29137 -0.011885,-1.29132 -0.00396,1.29137 -0.00396,-1.29137 -0.011885,1.29132 0.00396,-1.29137 -0.019809,1.29123 0.011886,-1.29132 -0.027731,1.29108 0.019809,-1.29123 -0.035652,1.29089 0.027731,-1.29108 -0.043573,1.29064 0.035653,-1.29089 -0.051491,1.29035 0.043573,-1.29064 -0.059407,1.29001 0.051491,-1.29035 -0.067322,1.28962 0.059408,-1.29001 -0.075233,1.28919 0.067322,-1.28963 -0.083142,1.2887 0.075233,-1.28918 -0.091048,1.28816 0.083142,-1.2887 -0.09895,1.28759 0.091048,-1.28817 -0.1068489,1.28695 0.09895,-1.28758 -0.1147435,1.28627 0.106849,-1.28695 -0.1226337,1.28554 0.1147435,-1.28627 -0.1305193,1.28477 0.1226338,-1.28554 -0.1384001,1.28394 0.1305194,-1.28477 -0.1462755,1.28307 0.1384001,-1.28394 -0.1541455,1.28214 0.1462756,-1.28306 -0.1620097,1.28117 0.1541456,-1.28214 -0.1698679,1.28015 0.1620098,-1.28117 -0.1777195,1.27909 0.1698679,-1.28016 -0.1855645,1.27798 0.1777196,-1.27909 -0.1934025,1.27681 0.1855646,-1.27798 -0.2012333,1.27561 0.1934026,-1.27682 -0.2090564,1.27435 0.2012333,-1.27561 -0.2168717,1.27304 0.2090565,-1.27434 -0.2246789,1.27168 0.2168718,-1.27304 -0.2324775,1.27028 0.2246789,-1.27168 -0.2402674,1.26883 0.2324776,-1.27028 -0.2480483,1.26733 0.2402675,-1.26883 -0.2558198,1.26579 0.2480484,-1.26733 -0.2635818,1.26419 0.2558199,-1.26579 -0.2713337,1.26255 0.2635818,-1.26419 -0.2790754,1.26086 0.2713338,-1.26255 -0.2868067,1.25913 0.2790755,-1.26086 -0.2945272,1.25734 0.2868068,-1.25913 -0.3022365,1.25551 0.2945272,-1.25734 -0.3099345,1.25364 0.3022366,-1.25552 -0.3176208,1.25171 0.3099346,-1.25363 -0.3252952,1.24973 0.3176209,-1.2517 -0.3329573,1.24771 0.3252952,-1.24973 -0.3406068,1.24565 0.3329573,-1.24772 -0.3482436,1.24354 0.340607,-1.24565 -0.3558673,1.24137 0.3482437,-1.24353 -0.3634775,1.23917 0.3558673,-1.24138 -0.371074,1.23692 0.3634775,-1.23917 -0.3786566,1.23461 0.3710741,-1.23691 -0.3862249,1.23227 0.3786567,-1.23462 -0.3937788,1.22988 0.3862251,-1.23227 -0.4013178,1.22743 0.3937789,-1.22987 -0.4088416,1.22495 0.4013178,-1.22744 -0.4163501,1.22242 0.4088417,-1.22495 -0.4238428,1.21984 0.4163501,-1.22242 -0.4313197,1.21722 0.4238429,-1.21984 -0.4387802,1.21455 0.4313197,-1.21722 -0.4462243,1.21183 0.4387803,-1.21455 -0.4536516,1.20908 0.4462244,-1.21184 -0.4610618,1.20627 0.4536517,-1.20907 -0.4684546,1.20341 0.4610618,-1.20626 -0.4758298,1.20051 0.4684547,-1.20341 -0.4831871,1.19757 0.4758299,-1.20051 -0.4905262,1.19458 0.4831872,-1.19757 -0.4978468,1.19155 0.4905262,-1.19458 -0.5051486,1.18848 0.4978468,-1.19156 -0.5124315,1.18536 0.5051487,-1.18848 -0.519695,1.18219 0.5124315,-1.18536 -0.526939,1.17898 0.5196951,-1.18219 -0.5341632,1.17572 0.5269391,-1.17898 -0.5413673,1.17243 0.5341633,-1.17572 -0.5485509,1.16908 0.5413673,-1.17243 -0.5557139,1.16569 0.548551,-1.16908 -0.5628561,1.16226 0.5557141,-1.16569 -0.569977,1.15879 0.5628561,-1.16226 -0.5770764,1.15526 0.5699771,-1.15878 -0.5841541,1.1517 0.5770764,-1.15527 -0.5912098,1.1481 0.5841542,-1.1517 -0.5982433,1.14445 0.5912099,-1.1481 -0.6052543,1.14076 0.5982434,-1.14445 -0.6122424,1.13702 0.6052543,-1.14076 -0.6192075,1.13324 0.6122425,-1.13702 -0.6261493,1.12943 0.6192076,-1.13325 -0.6330675,1.12556 0.6261493,-1.12942 -0.6399619,1.12165 0.6330676,-1.12556 -0.6468322,1.11771 0.639962,-1.12165 -0.6536781,1.11371 0.6468322,-1.1177 -0.6604994,1.10968 0.6536782,-1.11371 -0.6672959,1.1056 0.6604995,-1.10968 -0.6740672,1.1015 0.6672959,-1.10561 -0.6808131,1.09733 0.6740672,-1.10149 -0.6875335,1.09314 0.6808133,-1.09734 -0.6942279,1.0889 0.6875335,-1.09314 -0.7008962,1.08462 0.694228,-1.0889 -0.7075382,1.0803 0.7008963,-1.08462 -0.7141534,1.07594 0.7075382,-1.0803 -0.7207418,1.07153 0.7141535,-1.07593 -0.727303,1.06709 0.7207418,-1.07154 -0.7338369,1.06261 0.7273031,-1.06709 -0.7403431,1.05809 0.7338369,-1.06261 -0.7468215,1.05352 0.7403432,-1.05808 -0.7532717,1.04892 0.7468215,-1.05353 -0.7596936,1.04429 0.7532718,-1.04893 -0.7660869,1.0396 0.7596937,-1.04428 -0.7724514,1.03488 0.766087,-1.0396 -0.7787867,1.03012 0.7724514,-1.03488 -0.7850927,1.02533 0.7787867,-1.03012 -0.7913692,1.02048 0.7850928,-1.02532 -0.79761589,1.01561 0.79136929,-1.02049 -0.80383257,1.0107 0.79761597,-1.01561 -0.81001896,1.00575 0.80383266,-1.0107 -0.81617488,1.00076 0.81001898,-1.00575 -0.82229999,0.99573 0.81617489,-1.00076 -0.8283942,0.99067 0.8223001,-0.99573 -0.83445727,0.98556 0.82839427,-0.99066 -0.84048883,0.98042 0.83445733,-0.98556 -0.84648883,0.97525 0.84048893,-0.98043 -0.85245692,0.97004 0.84648882,-0.97525 -0.85839284,0.96479 0.85245694,-0.97004 -0.86429655,0.95951 0.85839295,-0.96479 -0.87016771,0.95418 0.86429661,-0.9595 -0.87600606,0.94882 0.87016776,-0.95418 -0.88181147,0.94343 0.87600607,-0.94882 -0.8875836,0.938 0.8818115,-0.94343 -0.89332241,0.93254 0.88758371,-0.93801 -0.89902758,0.92705 0.89332248,-0.93254 -0.90469886,0.9215 0.89902766,-0.92704 -0.91033613,0.91594 0.90469893,-0.92151 -0.91593907,0.91034 0.91033617,-0.91594 -0.92150755,0.9047 0.91593915,-0.91034 -0.92704136,0.89903 0.92150756,-0.9047 -0.93254016,0.89332 0.92704136,-0.89902 -0.93800396,0.88758 0.93254026,-0.89332 -0.94343243,0.88181 0.93800403,-0.88758 -0.94882536,0.876 0.94343246,-0.88181 -0.95418255,0.87017 0.94882535,-0.87601 -0.9595038,0.8643 0.9541826,-0.87017 -0.964789,0.85839 0.9595039,-0.86429 -0.97003785,0.85245 0.96478905,-0.85839 -0.97525015,0.84649 0.97003785,-0.85246 -0.98042572,0.84049 0.97525022,-0.84649 -0.98556445,0.83446 0.98042585,-0.84049 -0.99066607,0.8284 0.98556447,-0.83446 -0.99573029,0.8223 0.99066609,-0.8284 -1.00075711,0.81618 0.99573031,-0.8223 -1.00574618,0.81002 1.00075718,-0.81618 -1.01069749,0.80384 1.00574629,-0.81002 -1.01561069,0.79761 1.01069749,-0.80383 -1.02048561,0.79137 1.01561071,-0.79762 -1.02532216,0.7851 1.02048566,-0.79137 -1.03012009,0.77878 1.02532219,-0.78509 -1.03487924,0.77245 1.03012014,-0.77878 -1.03959944,0.76608 1.03487934,-0.77245 -1.04428053,0.7597 1.03959953,-0.76609 -1.04892227,0.75327 1.04428057,-0.75969 -1.05352451,0.74682 1.04892231,-0.75327 -1.05808708,0.74034 1.05352448,-0.74682 -1.06260976,0.73384 1.05808706,-0.74035 -1.06709249,0.72731 1.06260989,-0.73384 -1.07153515,0.72074 1.06709255,-0.7273 -1.07593728,0.71415 1.07153518,-0.72074 -1.08029907,0.70754 1.07593737,-0.71416 -1.08462007,0.7009 1.08029907,-0.70754 -1.08890026,0.69423 1.08462006,-0.7009 -1.09313943,0.68754 1.08890033,-0.69423 -1.09733754,0.68081 1.09313954,-0.68753 -1.10149428,0.67407 1.09733758,-0.68082 -1.10560954,0.6673 1.10149424,-0.67407 -1.1096831,0.6605 1.1056095,-0.66729 -1.11371496,0.65367 1.10968316,-0.6605 -1.11770491,0.64684 1.11371501,-0.65368 -1.12165275,0.63996 1.11770495,-0.64683 -1.12555837,0.63307 1.12165277,-0.63997 -1.1294216,0.62615 1.1255584,-0.63306 -1.13324232,0.6192 1.12942172,-0.62615 -1.13702045,0.61225 1.13324235,-0.61921 -1.14075562,0.60525 1.13702042,-0.61224 -1.14444792,0.59824 1.14075572,-0.60525 -1.14809719,0.59121 1.14444799,-0.59824 -1.15170315,0.58415 1.14809725,-0.59121 -1.15526582,0.57708 1.15170322,-0.58416 -1.15878493,0.56998 1.15526583,-0.57708 -1.16226042,0.56286 1.15878492,-0.56998 -1.16569213,0.55572 1.16226043,-0.56286 -1.16907999,0.54855 1.16569219,-0.55571 -1.17242385,0.54137 1.16908005,-0.54856 -1.17572356,0.53417 1.17242386,-0.54137 -1.17897895,0.52694 1.17572355,-0.53416 -1.18219,0.51969 1.178979,-0.52694 -1.18535654,0.51243 1.18219004,-0.51969 -1.18847846,0.50515 1.18535656,-0.51243 -1.19155559,0.49784 1.18847849,-0.50515 -1.19458793,0.49053 1.19155563,-0.49785 -1.19757522,0.48319 1.19458792,-0.49052 -1.20051745,0.47583 1.19757525,-0.48319 -1.2034145,0.46845 1.2005175,-0.47583 -1.20626624,0.46106 1.20341454,-0.46845 -1.20907256,0.45365 1.20626626,-0.46106 -1.21183334,0.44622 1.20907254,-0.45365 -1.21454847,0.43878 1.21183337,-0.44622 -1.21721796,0.43132 1.21454856,-0.43878 -1.21984159,0.42384 1.21721799,-0.43132 -1.22241927,0.41635 1.21984157,-0.42384 -1.22495089,0.40884 1.22241929,-0.41635 -1.22743648,0.40132 1.22495098,-0.40884 -1.22987583,0.39378 1.22743653,-0.40132 -1.23226887,0.38622 1.22987587,-0.39378 -1.23461552,0.37866 1.23226882,-0.38622 -1.23691558,0.37107 1.23461548,-0.37866 -1.23916919,0.36348 1.23691559,-0.37107 -1.24137608,0.35586 1.23916918,-0.36347 -1.24353629,0.34824 1.24137619,-0.35587 -1.24564973,0.34061 1.24353633,-0.34824 -1.24771616,0.33295 1.24564976,-0.3406 -1.24973572,0.32529 1.24771622,-0.33296 -1.25170814,0.31763 1.24973564,-0.3253 -1.2536334,0.30994 1.2517081,-0.31763 -1.25551152,0.30224 1.25363342,-0.30993 -1.25734238,0.29452 1.25551158,-0.30223 -1.25912593,0.2868 1.25734243,-0.29452 -1.26086204,0.27907 1.25912594,-0.2868 -1.26255068,0.27133 1.26086208,-0.27908 -1.26419181,0.26359 1.26255071,-0.27134 -1.26578531,0.25582 1.26419181,-0.26358 -1.26733115,0.24805 1.26578535,-0.25582 -1.26882933,0.24027 1.26733113,-0.24805 -1.27027962,0.23248 1.26882932,-0.24027 -1.27168222,0.22468 1.27027972,-0.23248 -1.27303691,0.21687 1.27168221,-0.22468 -1.2743436,0.20906 1.2730369,-0.21687 -1.27560238,0.20123 1.27434358,-0.20906 -1.27681306,0.19341 1.27560236,-0.20124 -1.27797574,0.18557 1.27681314,-0.1934 -1.27909033,0.17772 1.27797573,-0.18557 -1.28015666,0.16987 1.27909036,-0.17772 -1.28117493,0.16201 1.28015673,-0.16987 -1.28214486,0.15415 1.28117486,-0.16201 -1.28306649,0.14627 1.28214489,-0.15414 -1.28393994,0.1384 1.28306654,-0.14628 -1.28476495,0.13052 1.28393995,-0.1384 -1.28554165,0.12263 1.28476495,-0.13051 -1.28626987,0.11474 1.28554157,-0.12263 -1.28694967,0.10684 1.28626987,-0.11474 -1.28758109,0.099 1.28694969,-0.10685 -1.28816398,0.091 1.28758108,-0.099 -1.28869839,0.0831 1.28816399,-0.091 -1.28918429,0.0752 1.28869839,-0.0831 -1.28962164,0.0673 1.28918434,-0.0752 -1.29001049,0.0594 1.28962169,-0.0673 -1.29035072,0.0515 1.29001052,-0.0594 -1.2906424,0.0436 1.2903507,-0.0515 -1.29088541,0.0357 1.29064231,-0.0436 -1.29107982978,0.0277 L 1.2916633,358.75371 4.3756161e-4,358.77352 1.2915174,358.74579 1.9447488e-4,358.75768 1.2914202,358.73787 4.8619177e-5,358.74183 1.2913716,358.72994 0,358.72598 1.2913716,358.72202 4.8619177e-5,358.71014 1.2914202,358.7141 1.9447488e-4,358.69429 1.2915174,358.70617 4.3756161e-4,358.67844 1.2916633,358.69825 7.7787022e-4,358.6626 1.2918577,358.69033 l -1.29064231,-0.0436 1.29088541,0.0357 -1.2903507,-0.0515 1.2906424,0.0436 -1.29001052,-0.0594 1.29035072,0.0515 -1.28962169,-0.0673 1.29001049,0.0594 -1.28918434,-0.0752 1.28962164,0.0673 -1.28869839,-0.0831 1.28918429,0.0752 -1.28816399,-0.091 1.28869839,0.0831 -1.28758108,-0.0989 1.28816398,0.091 -1.28694969,-0.10685 1.28758109,0.099 -1.28626987,-0.11474 1.28694967,0.10685 -1.28554157,-0.12263 1.28626987,0.11474 -1.28476495,-0.13052 1.28554165,0.12263 -1.28393995,-0.1384 1.28476495,0.13052 -1.28306654,-0.14627 1.28393994,0.1384 -1.28214489,-0.15415 1.28306649,0.14628 -1.28117486,-0.16201 1.28214486,0.15414 -1.28015673,-0.16986 1.28117493,0.16201 -1.27909036,-0.17772 1.28015666,0.16986 -1.27797573,-0.18556 1.27909033,0.17772 -1.27681314,-0.1934 1.27797574,0.18556 -1.27560236,-0.20123 1.27681306,0.1934 -1.27434358,-0.20906 1.27560238,0.20124 -1.2730369,-0.21687 1.2743436,0.20905 -1.27168221,-0.22468 1.27303691,0.21688 -1.27027972,-0.23248 1.27168222,0.22468 -1.26882932,-0.24027 1.27027962,0.23248 -1.26733113,-0.24805 1.26882933,0.24027 -1.26578535,-0.25582 1.26733115,0.24805 -1.26419181,-0.26359 1.26578531,0.25582 -1.26255071,-0.27133 1.26419181,0.26358 -1.26086208,-0.27907 1.26255068,0.27133 -1.25912594,-0.28681 1.26086204,0.27908 -1.25734243,-0.29453 1.25912593,0.28681 -1.25551158,-0.30224 1.25734238,0.29453 -1.25363342,-0.30994 1.25551152,0.30224 -1.2517081,-0.31762 1.2536334,0.30993 -1.24973564,-0.32529 1.25170814,0.31762 -1.24771622,-0.33296 1.24973572,0.3253 -1.24564976,-0.34061 1.24771616,0.33296 -1.24353633,-0.34824 1.24564973,0.3406 -1.24137619,-0.35586 1.24353629,0.34824 -1.23916918,-0.36348 1.24137608,0.35587 -1.23691559,-0.37108 1.23916919,0.36348 -1.23461548,-0.37865 1.23691558,0.37107 -1.23226882,-0.38623 1.23461552,0.37866 -1.22987587,-0.39378 1.23226887,0.38623 -1.22743653,-0.40132 1.22987583,0.39378 -1.22495098,-0.40884 1.22743648,0.40131 -1.22241929,-0.41635 1.22495089,0.40885 -1.21984157,-0.42385 1.22241927,0.41635 -1.21721799,-0.43132 1.21984159,0.42385 -1.21454856,-0.43878 1.21721796,0.43132 -1.21183337,-0.44623 1.21454847,0.43878 -1.20907254,-0.45365 1.21183334,0.44623 -1.20626626,-0.46107 1.20907256,0.45366 -1.20341454,-0.46846 1.20626624,0.46106 -1.2005175,-0.47583 1.2034145,0.46846 -1.19757525,-0.48319 1.20051745,0.47583 -1.19458792,-0.49053 1.19757522,0.48319 -1.19155563,-0.49785 1.19458793,0.49053 -1.18847849,-0.50515 1.19155559,0.49785 -1.18535656,-0.51243 1.18847846,0.50515 -1.18219004,-0.5197 1.18535654,0.51243 -1.178979,-0.52694 1.18219,0.5197 -1.17572355,-0.53416 1.17897895,0.52693 -1.17242386,-0.54136 1.17572356,0.53416 -1.16908005,-0.54855 1.17242385,0.54137 -1.16569219,-0.55572 1.16907999,0.54855 -1.16226043,-0.56285 1.16569213,0.55571 -1.15878492,-0.56997 1.16226042,0.56285 -1.15526583,-0.57708 1.15878493,0.56998 -1.15170322,-0.58415 1.15526582,0.57707 -1.14809725,-0.59121 1.15170315,0.58416 -1.14444799,-0.59824 1.14809719,0.59121 -1.14075572,-0.60526 1.14444792,0.59824 -1.13702042,-0.61224 1.14075562,0.60526 -1.13324235,-0.61921 1.13702045,0.61224 -1.12942172,-0.62615 1.13324232,0.61921 -1.1255584,-0.63307 1.1294216,0.62615 -1.12165277,-0.63996 1.12555837,0.63307 -1.11770495,-0.64684 1.12165275,0.63997 -1.11371501,-0.65368 1.11770491,0.64683 -1.10968316,-0.6605 1.11371496,0.65368 -1.1056095,-0.6673 1.1096831,0.6605 -1.10149424,-0.67406 1.10560954,0.66729 -1.09733758,-0.68081 1.10149428,0.67407 -1.09313954,-0.68754 1.09733754,0.68082 -1.08890033,-0.69423 1.09313943,0.68753 -1.08462006,-0.70089 1.08890026,0.69422 -1.08029907,-0.70753 1.08462007,0.70089 -1.07593737,-0.71415 1.08029907,0.70754 -1.07153518,-0.72075 1.07593728,0.71416 -1.06709255,-0.72731 1.07153515,0.72075 -1.06260989,-0.73384 1.06709249,0.7273 -1.05808706,-0.74034 1.06260976,0.73384 -1.05352448,-0.74682 1.05808708,0.74034 -1.04892231,-0.75327 1.05352451,0.74682 -1.04428057,-0.7597 1.04892227,0.75328 -1.03959953,-0.76609 1.04428053,0.75969 -1.03487934,-0.77245 1.03959944,0.76609 -1.03012014,-0.77879 1.03487924,0.77245 -1.02532219,-0.78509 1.03012009,0.77879 -1.02048566,-0.79137 1.02532216,0.78509 -1.01561071,-0.79761 1.02048561,0.79136 -1.01069749,-0.80383 1.01561069,0.79762 -1.00574629,-0.81002 1.01069749,0.80383 -1.00075718,-0.81617 1.00574618,0.81002 -0.99573031,-0.8223 1.00075711,0.81617 -0.99066609,-0.82839 0.99573029,0.8223 -0.98556447,-0.83446 0.99066607,0.82839 -0.98042585,-0.84049 0.98556445,0.83446 -0.97525022,-0.84649 0.98042572,0.84049 -0.97003785,-0.85245 0.97525015,0.84648 -0.96478905,-0.85839 0.97003785,0.85246 -0.9595039,-0.8643 0.964789,0.85839 -0.9541826,-0.87016 0.9595038,0.86429 -0.94882535,-0.876 0.95418255,0.87016 -0.94343246,-0.88181 0.94882536,0.87601 -0.93800403,-0.88758 0.94343243,0.88181 -0.93254026,-0.89332 0.93800396,0.88758 -0.92704136,-0.89903 0.93254016,0.89332 -0.92150756,-0.9047 0.92704136,0.89903 -0.91593915,-0.91033 0.92150755,0.9047 -0.91033617,-0.91594 0.91593907,0.91033 -0.90469893,-0.92151 0.91033613,0.91594 -0.89902766,-0.92704 0.90469886,0.92151 -0.89332248,-0.93254 0.89902758,0.92704 -0.88758371,-0.938 0.89332241,0.93254 -0.8818115,-0.94343 0.8875836,0.938 -0.87600607,-0.94883 0.88181147,0.94344 -0.87016776,-0.95419 0.87600606,0.94883 -0.86429661,-0.9595 0.87016771,0.95418 -0.85839295,-0.96479 0.86429655,0.9595 -0.85245694,-0.97003 0.85839284,0.96478 -0.84648882,-0.97525 0.85245692,0.97004 -0.84048893,-0.98042 0.84648883,0.97525 -0.83445733,-0.98557 0.84048883,0.98043 -0.82839427,-0.99067 0.83445727,0.98557 -0.8223001,-0.99573 0.8283942,0.99066 -0.81617489,-1.00076 0.82229999,0.99574 -0.81001898,-1.00575 0.81617488,1.00076 -0.80383266,-1.0107 0.81001896,1.00574 -0.79761597,-1.01561 0.80383257,1.0107 -0.79136929,-1.02048 0.79761589,1.01561 -0.7850928,-1.02533 0.7913692,1.02049 -0.7787867,-1.03012 0.7850927,1.02532 -0.7724514,-1.03488 0.7787867,1.03012 -0.766087,-1.0396 0.7724514,1.03488 -0.7596937,-1.04428 0.7660869,1.0396 -0.7532718,-1.04892 0.7596936,1.04428 -0.7468215,-1.05352 0.7532717,1.04892 -0.7403432,-1.05809 0.7468215,1.05353 -0.7338369,-1.06261 0.7403431,1.05808 -0.7273031,-1.06709 0.7338369,1.06261 -0.7207418,-1.07153 0.727303,1.06709 -0.7141535,-1.07594 0.7207418,1.07154 -0.7075382,-1.0803 0.7141534,1.07593 -0.7008963,-1.08462 0.7075382,1.0803 -0.694228,-1.0889 0.7008962,1.08462 -0.6875335,-1.09314 0.6942279,1.0889 -0.6808133,-1.09733 0.6875335,1.09314 -0.6740672,-1.1015 0.6808131,1.09734 -0.6672959,-1.10561 0.6740672,1.10149 -0.6604995,-1.10968 0.6672959,1.10561 -0.6536782,-1.11371 0.6604994,1.10968 -0.6468322,-1.11771 0.6536781,1.11372 -0.639962,-1.12165 0.6468322,1.1177 -0.6330676,-1.12556 0.6399619,1.12166 -0.6261493,-1.12943 0.6330675,1.12556 -0.6192076,-1.13324 0.6261493,1.12942 -0.6122425,-1.13702 0.6192075,1.13324 -0.6052543,-1.14075 0.6122424,1.13702 -0.5982434,-1.14445 0.6052543,1.14076 -0.5912099,-1.1481 0.5982433,1.14445 -0.5841542,-1.15171 0.5912098,1.1481 -0.5770764,-1.15527 0.5841541,1.15171 -0.5699771,-1.15879 0.5770764,1.15527 -0.5628561,-1.16226 0.569977,1.15878 -0.5557141,-1.16569 0.5628561,1.16226 -0.548551,-1.16908 0.5557139,1.16569 -0.5413673,-1.17242 0.5485509,1.16908 -0.5341633,-1.17572 0.5413673,1.17242 -0.5269391,-1.17898 0.5341632,1.17573 -0.5196951,-1.1822 0.526939,1.17898 -0.5124315,-1.18535 0.519695,1.18219 -0.5051487,-1.18848 0.5124315,1.18536 -0.4978468,-1.19156 0.5051486,1.18848 -0.4905262,-1.19459 0.4978468,1.19156 -0.4831872,-1.19758 0.4905262,1.19459 -0.4758299,-1.20052 0.4831871,1.19758 -0.4684547,-1.20342 0.4758298,1.20052 -0.4610618,-1.20627 0.4684546,1.20342 -0.4536517,-1.20907 0.4610618,1.20626 -0.4462244,-1.21183 0.4536516,1.20907 -0.4387803,-1.21455 0.4462243,1.21184 -0.4313197,-1.21722 0.4387802,1.21455 -0.4238429,-1.21985 0.4313197,1.21722 -0.4163501,-1.22242 0.4238428,1.21985 -0.4088417,-1.22496 0.4163501,1.22242 -0.4013178,-1.22743 0.4088416,1.22495 -0.3937789,-1.22988 0.4013178,1.22744 -0.3862251,-1.23227 0.3937788,1.22988 -0.3786567,-1.23462 0.3862249,1.23227 -0.3710741,-1.23692 0.3786566,1.23462 -0.3634775,-1.23917 0.371074,1.23692 -0.3558673,-1.24138 0.3634775,1.23917 -0.3482437,-1.24354 0.3558673,1.24138 -0.340607,-1.24565 0.3482436,1.24353 -0.3329573,-1.24771 0.3406068,1.24565 -0.3252952,-1.24974 0.3329573,1.24772 -0.3176209,-1.25171 0.3252952,1.24974 -0.3099346,-1.25364 0.3176208,1.25171 -0.3022366,-1.25551 0.3099345,1.25363 -0.2945272,-1.25734 0.3022365,1.25551 -0.2868068,-1.25912 0.2945272,1.25734 -0.2790755,-1.26086 0.2868067,1.25912 -0.2713338,-1.26255 0.2790754,1.26086 -0.2635818,-1.26419 0.2713337,1.26255 -0.2558199,-1.26578 0.2635818,1.26419 -0.2480484,-1.26733 0.2558198,1.26578 -0.2402675,-1.26883 0.2480483,1.26734 -0.2324776,-1.27028 0.2402674,1.26883 -0.2246789,-1.27169 0.2324775,1.27028 -0.2168718,-1.27303 0.2246789,1.27168 -0.2090565,-1.27435 0.2168717,1.27304 -0.2012333,-1.2756 0.2090564,1.27434 -0.1934026,-1.27681 0.2012333,1.2756 -0.1855646,-1.27797 0.1934025,1.27681 -0.1777196,-1.27909 0.1855645,1.27797 -0.1698679,-1.28015 0.1777195,1.27909 -0.1620098,-1.28118 0.1698679,1.28016 -0.1541456,-1.28214 0.1620097,1.28117 -0.1462756,-1.28307 0.1541455,1.28215 -0.1384001,-1.28394 0.1462755,1.28307 -0.1305194,-1.28477 0.1384001,1.28394 -0.1226338,-1.28554 0.1305193,1.28476 -0.1147435,-1.28627 0.1226337,1.28555 -0.106849,-1.28695 0.1147435,1.28627 -0.09895,-1.28759 0.1068489,1.28695 -0.091048,-1.28816 0.09895,1.28758 -0.083142,-1.2887 0.091048,1.28817 -0.075233,-1.28919 0.083142,1.2887 -0.067322,-1.28962 0.075233,1.28918 -0.059408,-1.29001 0.067322,1.28962 -0.051491,-1.29035 0.059407,1.29001 -0.043573,-1.29064 0.051491,1.29035 -0.035653,-1.29088 0.043573,1.29064 -0.027731,-1.29108 0.035652,1.29089 -0.019809,-1.29123 0.027731,1.29108 -0.011886,-1.29132 0.019809,1.29122 -0.00396,-1.29137 0.011885,1.29132 0.00396,-1.29137 0.00396,1.29137 0.011885,-1.29132 -0.00396,1.29137 0.019809,-1.29122 -0.011885,1.29132 0.027731,-1.29108 -0.019809,1.29123 0.035652,-1.29089 -0.027731,1.29108 0.043572,-1.29064 -0.035653,1.29088 0.051491,-1.29035 -0.043573,1.29064 0.059407,-1.29001 -0.051491,1.29035 0.067322,-1.28962 -0.059408,1.29001 0.075233,-1.28918 -0.067322,1.28962 0.083142,-1.2887 -0.075233,1.28919 0.091048,-1.28817 -0.083142,1.2887 0.09895,-1.28758 -0.091048,1.28816 0.1068489,-1.28695 -0.09895,1.28759 0.1147434,-1.28627 -0.1068489,1.28695 0.1226337,-1.28555 -0.1147436,1.28627 0.1305194,-1.28476 -0.1226338,1.28554 0.1384,-1.28394 -0.1305194,1.28477 0.1462756,-1.28307 -0.1384002,1.28394 0.1541456,-1.28215 -0.1462756,1.28307 0.1620097,-1.28117 -0.1541456,1.28214 0.1698678,-1.28016 -0.1620098,1.28118 0.1777195,-1.27909 -0.1698679,1.28015 0.1855645,-1.27797 -0.1777196,1.27909 0.1934026,-1.27681 -0.1855646,1.27797 0.2012333,-1.2756 -0.1934026,1.27681 0.2090564,-1.27434 -0.2012334,1.2756 0.2168718,-1.27304 -0.2090565,1.27435 0.2246788,-1.27168 -0.2168718,1.27303 0.2324775,-1.27028 -0.2246789,1.27169 0.2402674,-1.26883 -0.2324776,1.27028 0.2480483,-1.26734 -0.2402675,1.26883 0.2558198,-1.26578 -0.2480483,1.26733 0.2635817,-1.26419 -0.2558199,1.26578 0.2713337,-1.26255 -0.2635818,1.26419 0.2790755,-1.26086 -0.2713338,1.26255 0.2868067,-1.25912 -0.2790755,1.26086 0.2945271,-1.25734 -0.2868068,1.25912 0.3022366,-1.25551 -0.2945273,1.25734 0.3099345,-1.25363 -0.3022366,1.25551 0.3176209,-1.25171 -0.3099346,1.25364 0.3252952,-1.24974 -0.3176209,1.25171 0.3329573,-1.24772 -0.3252953,1.24974 0.3406069,-1.24565 -0.3329574,1.24771 0.3482436,-1.24353 -0.3406069,1.24565 0.3558672,-1.24138 -0.3482437,1.24354 0.3634775,-1.23917 -0.3558673,1.24138 0.3710741,-1.23692 -0.3634776,1.23917 0.3786566,-1.23462 -0.3710741,1.23692 0.386225,-1.23227 -0.3786567,1.23462 0.3937787,-1.22988 -0.386225,1.23227 0.4013177,-1.22744 -0.3937788,1.22988 0.4088416,-1.22495 -0.4013178,1.22743 0.41635,-1.22242 -0.4088417,1.22496 0.4238429,-1.21985 -0.4163501,1.22242 0.4313196,-1.21722 -0.4238429,1.21985 0.4387803,-1.21455 -0.4313198,1.21722 0.4462243,-1.21184 -0.4387803,1.21455 0.4536516,-1.20907 -0.4462244,1.21183 0.4610618,-1.20626 -0.4536516,1.20907 0.4684546,-1.20342 -0.4610619,1.20627 0.4758298,-1.20052 -0.4684547,1.20342 0.4831871,-1.19758 -0.4758299,1.20052 0.4905262,-1.19459 -0.4831871,1.19758 0.4978467,-1.19156 -0.4905262,1.19459 0.5051487,-1.18848 -0.4978469,1.19156 0.5124315,-1.18536 -0.5051487,1.18848 0.5196951,-1.18219 -0.5124316,1.18535 0.5269391,-1.17898 -0.5196952,1.1822 0.5341633,-1.17573 -0.5269392,1.17898 0.5413673,-1.17242 -0.5341633,1.17572 0.548551,-1.16908 -0.5413674,1.17242 0.555714,-1.16569 -0.5485511,1.16908 0.5628561,-1.16226 -0.555714,1.16569 0.5699769,-1.15878 -0.5628561,1.16226 0.5770764,-1.15527 -0.569977,1.15879 0.5841541,-1.15171 -0.5770765,1.15527 0.5912099,-1.1481 -0.5841542,1.15171 0.5982433,-1.14445 -0.5912099,1.1481 0.6052542,-1.14076 -0.5982434,1.14445 0.6122424,-1.13702 -0.6052543,1.14075 0.6192075,-1.13324 -0.6122424,1.13702 0.6261492,-1.12942 -0.6192075,1.13324 0.6330675,-1.12556 -0.6261494,1.12943 0.6399619,-1.12166 -0.6330676,1.12556 0.6468322,-1.1177 -0.6399619,1.12165 0.653678,-1.11372 -0.6468322,1.11771 0.6604994,-1.10968 -0.6536781,1.11371 0.6672958,-1.10561 -0.6604994,1.10968 0.6740672,-1.10149 -0.667296,1.10561 0.6808132,-1.09734 -0.6740673,1.1015 0.6875335,-1.09314 -0.6808132,1.09733 0.6942279,-1.0889 -0.6875336,1.09314 0.7008963,-1.08462 -0.694228,1.0889 0.7075381,-1.0803 -0.7008963,1.08462 0.7141534,-1.07593 -0.7075382,1.0803 0.7207418,-1.07154 -0.7141534,1.07594 0.727303,-1.06709 -0.7207419,1.07153 0.7338369,-1.06261 -0.7273031,1.06709 0.7403432,-1.05808 -0.733837,1.06261 0.7468215,-1.05353 -0.7403432,1.05809 0.7532718,-1.04892 -0.7468216,1.05352 0.7596936,-1.04428 -0.7532718,1.04892 0.7660869,-1.0396 -0.7596936,1.04428 0.7724513,-1.03488 -0.766087,1.0396 0.7787867,-1.03012 -0.7724514,1.03488 0.7850928,-1.02532 -0.7787868,1.03012 0.7913692,-1.02049 -0.7850928,1.02533 0.7976159,-1.01561 -0.7913692,1.02048 0.8038325,-1.0107 -0.797616,1.01561 0.810019,-1.00574 -0.8038326,1.0107 0.8161748,-1.00076 -0.810019,1.00575 0.8223,-0.99574 -0.8161749,1.00076 0.8283942,-0.99066 -0.8223,0.99573 0.8344572,-0.98557 -0.8283943,0.99067 0.8404889,-0.98043 -0.8344573,0.98557 0.8464888,-0.97525 -0.8404889,0.98042 0.8524569,-0.97004 -0.8464889,0.97525 0.8583929,-0.96478 -0.852457,0.97003 0.8642966,-0.9595 -0.8583929,0.96479 0.8701676,-0.95418 -0.8642966,0.9595 0.8760061,-0.94883 -0.8701677,0.95419 0.8818114,-0.94344 -0.8760061,0.94883 0.8875836,-0.938 -0.8818115,0.94343 0.8933225,-0.93254 -0.8875838,0.938 0.8990276,-0.92704 -0.8933225,0.93254 0.9046989,-0.92151 -0.8990276,0.92704 0.9103361,-0.91594 -0.9046989,0.92151 0.915939,-0.91033 -0.9103361,0.91594 0.9215075,-0.9047 -0.9159391,0.91033 0.9270413,-0.89903 -0.9215076,0.9047 0.9325402,-0.89332 -0.9270414,0.89903 0.938004,-0.88758 -0.9325402,0.89332 0.9434324,-0.88181 -0.938004,0.88758 0.9488253,-0.87601 -0.9434325,0.88181 0.9541826,-0.87016 -0.9488254,0.876 0.9595038,-0.86429 -0.9541826,0.87016 0.964789,-0.85839 -0.9595039,0.8643 0.9700379,-0.85246 -0.9647891,0.85839 0.9752502,-0.84648 -0.9700379,0.85245 0.9804258,-0.84049 -0.9752503,0.84649 0.9855645,-0.83446 -0.9804258,0.84049 0.990666,-0.82839 -0.9855645,0.83446 0.9957303,-0.8223 -0.9906661,0.82839 1.0007572,-0.81617 -0.9957304,0.8223 1.0057462,-0.81002 -1.0007571,0.81617 1.0106974,-0.80383 -1.0057462,0.81002 1.0156106,-0.79762 -1.0106975,0.80383 1.0204856,-0.79136 -1.0156107,0.79761 1.0253222,-0.78509 -1.0204857,0.79137 1.0301201,-0.77879 -1.0253222,0.78509 1.0348793,-0.77245 -1.0301202,0.77879 1.0395995,-0.76609 -1.0348793,0.77245 1.0442805,-0.75969 -1.0395995,0.76609 1.0489222,-0.75328 -1.0442805,0.7597 1.0535244,-0.74682 -1.0489222,0.75327 1.058087,-0.74034 -1.0535245,0.74682 1.0626098,-0.73384 -1.0580871,0.74034 1.0670925,-0.7273 -1.0626098,0.73384 1.0715351,-0.72075 -1.0670926,0.72731 1.0759373,-0.71416 -1.0715351,0.72075 1.080299,-0.70754 -1.0759374,0.71415 1.0846201,-0.70089 -1.0802991,0.70753 1.0889003,-0.69422 -1.0846201,0.70089 1.0931395,-0.68753 -1.0889003,0.69423 1.0973375,-0.68082 -1.0931395,0.68754 1.1014942,-0.67407 -1.0973375,0.68081 1.1056095,-0.66729 -1.1014943,0.67406 1.1096831,-0.6605 -1.1056095,0.6673 1.113715,-0.65368 -1.1096832,0.6605 1.117705,-0.64683 -1.1137151,0.65368 1.1216528,-0.63997 -1.117705,0.64684 1.1255584,-0.63307 -1.1216528,0.63996 1.1294216,-0.62615 -1.1255584,0.63307 1.1332424,-0.61921 -1.1294217,0.62615 1.1370204,-0.61224 -1.1332424,0.61921 1.1407557,-0.60526 -1.1370205,0.61224 1.144448,-0.59824 -1.1407557,0.60526 1.1480971,-0.59121 -1.144448,0.59824 1.1517032,-0.58416 -1.1480972,0.59121 1.1552658,-0.57707 -1.1517032,0.58415 1.1587849,-0.56998 -1.1552658,0.57708 1.1622604,-0.56285 -1.158785,0.56997 1.1656922,-0.55571 -1.1622605,0.56285 1.16908,-0.54855 -1.1656921,0.55572 1.1724238,-0.54137 -1.16908,0.54855 1.1757235,-0.53416 -1.1724239,0.54136 1.178979,-0.52693 -1.1757236,0.53416 1.18219,-0.5197 -1.178979,0.52694 1.1853566,-0.51243 -1.1821901,0.5197 1.1884785,-0.50515 -1.1853566,0.51243 1.1915556,-0.49785 -1.1884784,0.50515 1.1945879,-0.49053 -1.1915557,0.49785 1.1975753,-0.48319 -1.194588,0.49053 1.2005175,-0.47583 -1.1975753,0.48319 1.2034145,-0.46846 -1.2005175,0.47583 1.2062663,-0.46106 -1.2034146,0.46846 1.2090726,-0.45366 -1.2062663,0.46107 1.2118334,-0.44623 -1.2090726,0.45365 1.2145485,-0.43878 -1.2118334,0.44623 1.217218,-0.43132 -1.2145485,0.43878 1.2198415,-0.42385 -1.217218,0.43132 1.2224193,-0.41635 -1.2198416,0.42385 1.2249509,-0.40885 -1.2224193,0.41635 1.2274365,-0.40131 -1.2249509,0.40884 1.2298758,-0.39378 -1.2274365,0.40132 1.2322688,-0.38623 -1.2298758,0.39378 1.2346155,-0.37866 -1.2322689,0.38623 1.2369156,-0.37107 -1.2346155,0.37865 1.2391692,-0.36348 -1.2369156,0.37108 1.2413761,-0.35587 -1.2391692,0.36348 1.2435363,-0.34824 -1.2413761,0.35586 1.2456497,-0.3406 -1.2435364,0.34824 1.2477162,-0.33296 -1.2456497,0.34061 1.2497357,-0.3253 -1.2477162,0.33296 1.2517081,-0.31762 -1.2497357,0.32529 1.2536334,-0.30993 -1.2517081,0.31762 1.2555116,-0.30224 -1.2536335,0.30994 1.2573424,-0.29453 -1.2555116,0.30224 1.259126,-0.28681 -1.2573425,0.29453 1.2608621,-0.27908 -1.259126,0.28681 1.2625507,-0.27133 -1.260862,0.27907 1.2641917,-0.26358 -1.2625507,0.27133 1.2657853,-0.25582 -1.2641918,0.26359 1.2673312,-0.24805 -1.2657853,0.25582 1.2688293,-0.24027 -1.2673312,0.24805 1.2702797,-0.23248 -1.2688293,0.24027 1.2716822,-0.22468 -1.2702797,0.23248 1.2730369,-0.21688 -1.2716823,0.22468 1.2743436,-0.20905 -1.2730368,0.21687 1.2756023,-0.20124 -1.2743436,0.20906 1.2768131,-0.1934 -1.2756024,0.20123 1.2779758,-0.18556 -1.2768131,0.1934 1.2790903,-0.17772 -1.2779758,0.18556 1.2801567,-0.16986 -1.2790903,0.17772 1.2811749,-0.16201 -1.2801567,0.16986 1.2821448,-0.15414 -1.2811749,0.16201 1.2830665,-0.14628 -1.2821448,0.15415 1.2839399,-0.1384 -1.2830665,0.14627 1.2847649,-0.13052 -1.2839399,0.1384 1.2855416,-0.12263 -1.284765,0.13052 1.2862699,-0.11474 -1.2855416,0.12263 1.2869497,-0.10685 -1.2862699,0.11474 1.2875811,-0.099 -1.2869497,0.10685 1.288164,-0.091 -1.2875811,0.0989 1.2886984,-0.0831 -1.288164,0.091 1.2891843,-0.0752 -1.2886984,0.0831 1.2896217,-0.0673 -1.2891843,0.0752 1.2900104,-0.0594 -1.2896216,0.0673 1.2903507,-0.0515 -1.2900105,0.0594 1.2906423,-0.0436 -1.2903507,0.0515 1.2908855,-0.0357 -1.2906424,0.0436 1.2910799,-0.0277 -1.2908854,0.0356 1.2912257,-0.0198 -1.2910799,0.0277 1.291323,-0.0119 -1.2912258,0.0198 1.2913716,-0.004 -1.2913229,0.0119 z"
       id="path4153"
       style="opacity:1;fill:#5f5f5f;fill-opacity:1;stroke:none;stroke-width:1;stroke-miterlimit:4;stroke-dasharray:none;stroke-dashoffset:0;stroke-opacity:1" />
    <g
       transform="translate(-81.920944,0)"
       id="g4829">
      <rect
         style="opacity:1;fill:#ffffff;fill-opacity:1;stroke:none;stroke-width:2;stroke-miterlimit:4;stroke-dasharray:none;stroke-dashoffset:0;stroke-opacity:1"
         id="rect4657"
         width="735.39105"
         height="699.02557"
         x="81.920944"
         y="353.33664" />
      <g
         id="g4179"
         style="fill:#61c7e5;fill-opacity:1"
         transform="matrix(0.75563777,0,0,0.90395576,121.58399,295.37995)">
        <rect
           y="90.444443"
           x="179.80716"
           height="20.455589"
           width="146.72466"
           id="rect4175"
           style="opacity:1;fill:#61c7e5;fill-opacity:1;stroke:none;stroke-width:1;stroke-miterlimit:4;stroke-dasharray:none;stroke-dashoffset:0;stroke-opacity:1" />
        <path
           id="path4177"
           d="M 326.40554,99.914622 312.49786,75.825804 353.94185,99.753505 312.87698,123.46232 Z"
           style="fill:#61c7e5;fill-opacity:1;fill-rule:evenodd;stroke:none;stroke-width:1px;stroke-linecap:butt;stroke-linejoin:miter;stroke-opacity:1" />
      </g>
      <g
         id="g4203"
         transform="matrix(0.90395576,0,0,0.90395576,69.088049,306.22742)">
        <rect
           style="opacity:1;fill:#5f5f5f;fill-opacity:1;stroke:none;stroke-width:1;stroke-miterlimit:4;stroke-dasharray:none;stroke-dashoffset:0;stroke-opacity:1"
           id="rect4149"
           width="120.85248"
           height="26.31473"
           x="87.88327"
           y="75.646217" />
        <text
           id="text4195"
           y="97.005066"
           x="123.57143"
           style="font-style:normal;font-variant:normal;font-weight:normal;font-stretch:normal;font-size:25px;line-height:50%;font-family:'Noto Sans';-inkscape-font-specification:'Noto Sans, Normal';text-align:start;letter-spacing:0px;word-spacing:0px;writing-mode:lr-tb;text-anchor:start;fill:#000000;fill-opacity:1;stroke:none;stroke-width:1px;stroke-linecap:butt;stroke-linejoin:miter;stroke-opacity:1"
           xml:space="preserve"><tspan
             style="fill:#ffffff;fill-opacity:1"
             y="97.005066"
             x="123.57143"
             id="tspan4197">Primer</tspan></text>
      </g>
      <g
         id="g4169"
         transform="matrix(1.2459502,0,0,1.2459502,40.507647,261.58705)">
        <path
           d="m 99.848361,115.27819 -3.763349,-8.31292 -5.069249,7.58751 0.897307,-9.08089 -8.183852,4.03635 5.317532,-7.41562 -9.1056,-0.59634 8.312928,-3.76335 -7.587508,-5.069248 9.080881,0.897307 -4.03635,-8.183852 7.41562,5.317532 0.596344,-9.1056 3.76335,8.312928 5.069245,-7.587509 -0.8973,9.080882 8.18385,-4.036351 -5.31753,7.415621 9.1056,0.596344 -8.31293,3.763349 7.58751,5.069247 -9.08088,-0.89731 4.03635,8.18386 -7.41562,-5.31753 z"
           id="path4151"
           style="opacity:1;fill:#ffd629;fill-opacity:1;stroke:#ff0000;stroke-width:0.71461779;stroke-miterlimit:4;stroke-dasharray:none;stroke-dashoffset:0;stroke-opacity:1" />
        <text
           id="text4161"
           y="105.48721"
           x="88.268669"
           style="font-style:normal;font-variant:normal;font-weight:normal;font-stretch:normal;font-size:14.62843037px;line-height:50%;font-family:'Noto Sans';-inkscape-font-specification:'Noto Sans, Normal';text-align:start;letter-spacing:0px;word-spacing:0px;writing-mode:lr-tb;text-anchor:start;fill:#000000;fill-opacity:1;stroke:none;stroke-width:1px;stroke-linecap:butt;stroke-linejoin:miter;stroke-opacity:1"
           xml:space="preserve"><tspan
             y="105.48721"
             x="88.268669"
             id="tspan4163"><tspan
   id="tspan4165"
   style="font-size:7.31421518px;baseline-shift:super">32</tspan>P</tspan></text>
      </g>
      <g
         id="g4225"
         transform="matrix(0.90395576,0,0,0.90395576,69.088049,306.22742)">
        <rect
           y="121.00156"
           x="86.873116"
           height="31.31473"
           width="650.58392"
           id="rect4147"
           style="opacity:1;fill:#5f5f5f;fill-opacity:1;stroke:none;stroke-width:1;stroke-miterlimit:4;stroke-dasharray:none;stroke-dashoffset:0;stroke-opacity:1" />
        <text
           xml:space="preserve"
           style="font-style:normal;font-variant:normal;font-weight:normal;font-stretch:normal;font-size:25px;line-height:50%;font-family:'Noto Sans';-inkscape-font-specification:'Noto Sans, Normal';text-align:start;letter-spacing:0px;word-spacing:0px;writing-mode:lr-tb;text-anchor:start;fill:#000000;fill-opacity:1;stroke:none;stroke-width:1px;stroke-linecap:butt;stroke-linejoin:miter;stroke-opacity:1"
           x="123.57143"
           y="143.15306"
           id="text4199"><tspan
             id="tspan4201"
             x="123.57143"
             y="143.15306"
             style="fill:#ffffff;fill-opacity:1">Template DNA</tspan></text>
      </g>
      <g
         id="g4220"
         transform="matrix(0.90395576,0,0,0.90395576,69.088049,305.43297)">
        <rect
           y="76.112206"
           x="353.92856"
           height="24.821428"
           width="82.14286"
           id="rect4183"
           style="opacity:1;fill:#000000;fill-opacity:1;stroke:none;stroke-width:1;stroke-miterlimit:4;stroke-dasharray:none;stroke-dashoffset:0;stroke-opacity:1" />
        <text
           id="text4213"
           y="97.019058"
           x="356.13968"
           style="font-style:normal;font-variant:normal;font-weight:normal;font-stretch:normal;font-size:25px;line-height:50%;font-family:'Noto Sans';-inkscape-font-specification:'Noto Sans, Normal';text-align:start;letter-spacing:0px;word-spacing:0px;writing-mode:lr-tb;text-anchor:start;fill:#000000;fill-opacity:1;stroke:none;stroke-width:1px;stroke-linecap:butt;stroke-linejoin:miter;stroke-opacity:1"
           xml:space="preserve"><tspan
             style="fill:#ffffff;fill-opacity:1"
             y="97.019058"
             x="356.13968"
             id="tspan4215">ddNTP</tspan></text>
      </g>
      <g
         transform="matrix(0.75563777,0,0,0.90395576,121.58399,506.9056)"
         style="fill:#61c7e5;fill-opacity:1"
         id="g4230">
        <rect
           style="opacity:1;fill:#61c7e5;fill-opacity:1;stroke:none;stroke-width:1;stroke-miterlimit:4;stroke-dasharray:none;stroke-dashoffset:0;stroke-opacity:1"
           id="rect4232"
           width="146.72466"
           height="20.455589"
           x="179.80716"
           y="90.444443" />
        <path
           style="fill:#61c7e5;fill-opacity:1;fill-rule:evenodd;stroke:none;stroke-width:1px;stroke-linecap:butt;stroke-linejoin:miter;stroke-opacity:1"
           d="M 326.40554,99.914622 312.49786,75.825804 353.94185,99.753505 312.87698,123.46232 Z"
           id="path4234" />
      </g>
      <g
         id="g4236"
         transform="matrix(0.90395576,0,0,0.90395576,69.088049,517.75306)">
        <rect
           y="75.646217"
           x="87.88327"
           height="26.31473"
           width="120.85248"
           id="rect4238"
           style="opacity:1;fill:#5f5f5f;fill-opacity:1;stroke:none;stroke-width:1;stroke-miterlimit:4;stroke-dasharray:none;stroke-dashoffset:0;stroke-opacity:1" />
        <text
           xml:space="preserve"
           style="font-style:normal;font-variant:normal;font-weight:normal;font-stretch:normal;font-size:25px;line-height:50%;font-family:'Noto Sans';-inkscape-font-specification:'Noto Sans, Normal';text-align:start;letter-spacing:0px;word-spacing:0px;writing-mode:lr-tb;text-anchor:start;fill:#000000;fill-opacity:1;stroke:none;stroke-width:1px;stroke-linecap:butt;stroke-linejoin:miter;stroke-opacity:1"
           x="123.57143"
           y="97.005066"
           id="text4240"><tspan
             id="tspan4242"
             x="123.57143"
             y="97.005066"
             style="fill:#ffffff;fill-opacity:1">Primer</tspan></text>
      </g>
      <g
         id="g4244"
         transform="matrix(0.90395576,0,0,0.90395576,69.088049,517.75306)">
        <rect
           style="opacity:1;fill:#5f5f5f;fill-opacity:1;stroke:none;stroke-width:1;stroke-miterlimit:4;stroke-dasharray:none;stroke-dashoffset:0;stroke-opacity:1"
           id="rect4246"
           width="650.58392"
           height="31.31473"
           x="86.873116"
           y="121.00156" />
        <text
           id="text4248"
           y="143.15306"
           x="123.57143"
           style="font-style:normal;font-variant:normal;font-weight:normal;font-stretch:normal;font-size:25px;line-height:50%;font-family:'Noto Sans';-inkscape-font-specification:'Noto Sans, Normal';text-align:start;letter-spacing:0px;word-spacing:0px;writing-mode:lr-tb;text-anchor:start;fill:#000000;fill-opacity:1;stroke:none;stroke-width:1px;stroke-linecap:butt;stroke-linejoin:miter;stroke-opacity:1"
           xml:space="preserve"><tspan
             style="fill:#ffffff;fill-opacity:1"
             y="143.15306"
             x="123.57143"
             id="tspan4250">Template DNA</tspan></text>
      </g>
      <g
         transform="matrix(0.90395576,0,0,0.90395576,69.088049,516.95862)"
         id="g4252">
        <rect
           style="opacity:1;fill:#000000;fill-opacity:1;stroke:none;stroke-width:1;stroke-miterlimit:4;stroke-dasharray:none;stroke-dashoffset:0;stroke-opacity:1"
           id="rect4254"
           width="82.14286"
           height="24.821428"
           x="353.92856"
           y="76.112206" />
        <text
           xml:space="preserve"
           style="font-style:normal;font-variant:normal;font-weight:normal;font-stretch:normal;font-size:25px;line-height:50%;font-family:'Noto Sans';-inkscape-font-specification:'Noto Sans, Normal';text-align:start;letter-spacing:0px;word-spacing:0px;writing-mode:lr-tb;text-anchor:start;fill:#000000;fill-opacity:1;stroke:none;stroke-width:1px;stroke-linecap:butt;stroke-linejoin:miter;stroke-opacity:1"
           x="356.13968"
           y="97.019058"
           id="text4256"><tspan
             id="tspan4258"
             x="356.13968"
             y="97.019058"
             style="fill:#ffffff;fill-opacity:1">ddNTP</tspan></text>
      </g>
      <g
         transform="matrix(1.2459502,0,0,1.2459502,161.63772,474.92062)"
         id="g4260">
        <path
           style="opacity:1;fill:#ffd629;fill-opacity:1;stroke:#ff0000;stroke-width:0.71461779;stroke-miterlimit:4;stroke-dasharray:none;stroke-dashoffset:0;stroke-opacity:1"
           id="path4262"
           d="m 99.848361,115.27819 -3.763349,-8.31292 -5.069249,7.58751 0.897307,-9.08089 -8.183852,4.03635 5.317532,-7.41562 -9.1056,-0.59634 8.312928,-3.76335 -7.587508,-5.069248 9.080881,0.897307 -4.03635,-8.183852 7.41562,5.317532 0.596344,-9.1056 3.76335,8.312928 5.069245,-7.587509 -0.8973,9.080882 8.18385,-4.036351 -5.31753,7.415621 9.1056,0.596344 -8.31293,3.763349 7.58751,5.069247 -9.08088,-0.89731 4.03635,8.18386 -7.41562,-5.31753 z" />
        <text
           xml:space="preserve"
           style="font-style:normal;font-variant:normal;font-weight:normal;font-stretch:normal;font-size:14.62843037px;line-height:50%;font-family:'Noto Sans';-inkscape-font-specification:'Noto Sans, Normal';text-align:start;letter-spacing:0px;word-spacing:0px;writing-mode:lr-tb;text-anchor:start;fill:#000000;fill-opacity:1;stroke:none;stroke-width:1px;stroke-linecap:butt;stroke-linejoin:miter;stroke-opacity:1"
           x="88.268669"
           y="105.48721"
           id="text4264"><tspan
             id="tspan4266"
             x="88.268669"
             y="105.48721"><tspan
   style="font-size:7.31421518px;baseline-shift:super"
   id="tspan4268">32</tspan>P</tspan></text>
      </g>
      <g
         id="g4270"
         transform="matrix(1.2459502,0,0,1.2459502,208.64341,474.92062)">
        <path
           d="m 99.848361,115.27819 -3.763349,-8.31292 -5.069249,7.58751 0.897307,-9.08089 -8.183852,4.03635 5.317532,-7.41562 -9.1056,-0.59634 8.312928,-3.76335 -7.587508,-5.069248 9.080881,0.897307 -4.03635,-8.183852 7.41562,5.317532 0.596344,-9.1056 3.76335,8.312928 5.069245,-7.587509 -0.8973,9.080882 8.18385,-4.036351 -5.31753,7.415621 9.1056,0.596344 -8.31293,3.763349 7.58751,5.069247 -9.08088,-0.89731 4.03635,8.18386 -7.41562,-5.31753 z"
           id="path4272"
           style="opacity:1;fill:#ffd629;fill-opacity:1;stroke:#ff0000;stroke-width:0.71461779;stroke-miterlimit:4;stroke-dasharray:none;stroke-dashoffset:0;stroke-opacity:1" />
        <text
           id="text4274"
           y="105.48721"
           x="88.268669"
           style="font-style:normal;font-variant:normal;font-weight:normal;font-stretch:normal;font-size:14.62843037px;line-height:50%;font-family:'Noto Sans';-inkscape-font-specification:'Noto Sans, Normal';text-align:start;letter-spacing:0px;word-spacing:0px;writing-mode:lr-tb;text-anchor:start;fill:#000000;fill-opacity:1;stroke:none;stroke-width:1px;stroke-linecap:butt;stroke-linejoin:miter;stroke-opacity:1"
           xml:space="preserve"><tspan
             y="105.48721"
             x="88.268669"
             id="tspan4276"><tspan
   id="tspan4278"
   style="font-size:7.31421518px;baseline-shift:super">32</tspan>P</tspan></text>
      </g>
      <g
         id="g4290"
         style="fill:#61c7e5;fill-opacity:1"
         transform="matrix(0.75563777,0,0,0.90395576,121.58399,700.35214)">
        <rect
           y="90.444443"
           x="179.80716"
           height="20.455589"
           width="146.72466"
           id="rect4292"
           style="opacity:1;fill:#61c7e5;fill-opacity:1;stroke:none;stroke-width:1;stroke-miterlimit:4;stroke-dasharray:none;stroke-dashoffset:0;stroke-opacity:1" />
        <path
           id="path4294"
           d="M 326.40554,99.914622 312.49786,75.825804 353.94185,99.753505 312.87698,123.46232 Z"
           style="fill:#61c7e5;fill-opacity:1;fill-rule:evenodd;stroke:none;stroke-width:1px;stroke-linecap:butt;stroke-linejoin:miter;stroke-opacity:1" />
      </g>
      <g
         transform="matrix(0.90395576,0,0,0.90395576,69.088049,711.19961)"
         id="g4296">
        <rect
           style="opacity:1;fill:#5f5f5f;fill-opacity:1;stroke:none;stroke-width:1;stroke-miterlimit:4;stroke-dasharray:none;stroke-dashoffset:0;stroke-opacity:1"
           id="rect4298"
           width="120.85248"
           height="26.31473"
           x="87.88327"
           y="75.646217" />
        <text
           id="text4300"
           y="97.005066"
           x="123.57143"
           style="font-style:normal;font-variant:normal;font-weight:normal;font-stretch:normal;font-size:25px;line-height:50%;font-family:'Noto Sans';-inkscape-font-specification:'Noto Sans, Normal';text-align:start;letter-spacing:0px;word-spacing:0px;writing-mode:lr-tb;text-anchor:start;fill:#000000;fill-opacity:1;stroke:none;stroke-width:1px;stroke-linecap:butt;stroke-linejoin:miter;stroke-opacity:1"
           xml:space="preserve"><tspan
             style="fill:#ffffff;fill-opacity:1"
             y="97.005066"
             x="123.57143"
             id="tspan4302">Primer</tspan></text>
      </g>
      <g
         transform="matrix(0.90395576,0,0,0.90395576,69.088049,711.19961)"
         id="g4304">
        <rect
           y="121.00156"
           x="86.873116"
           height="31.31473"
           width="650.58392"
           id="rect4306"
           style="opacity:1;fill:#5f5f5f;fill-opacity:1;stroke:none;stroke-width:1;stroke-miterlimit:4;stroke-dasharray:none;stroke-dashoffset:0;stroke-opacity:1" />
        <text
           xml:space="preserve"
           style="font-style:normal;font-variant:normal;font-weight:normal;font-stretch:normal;font-size:25px;line-height:50%;font-family:'Noto Sans';-inkscape-font-specification:'Noto Sans, Normal';text-align:start;letter-spacing:0px;word-spacing:0px;writing-mode:lr-tb;text-anchor:start;fill:#000000;fill-opacity:1;stroke:none;stroke-width:1px;stroke-linecap:butt;stroke-linejoin:miter;stroke-opacity:1"
           x="123.57143"
           y="143.15306"
           id="text4308"><tspan
             id="tspan4310"
             x="123.57143"
             y="143.15306"
             style="fill:#ffffff;fill-opacity:1">Template DNA</tspan></text>
      </g>
      <g
         id="g4312"
         transform="matrix(0.90395576,0,0,0.90395576,69.088049,710.40516)">
        <rect
           y="76.112206"
           x="353.92856"
           height="24.821428"
           width="82.14286"
           id="rect4314"
           style="opacity:1;fill:#000000;fill-opacity:1;stroke:none;stroke-width:1;stroke-miterlimit:4;stroke-dasharray:none;stroke-dashoffset:0;stroke-opacity:1" />
        <text
           id="text4316"
           y="97.019058"
           x="356.13968"
           style="font-style:normal;font-variant:normal;font-weight:normal;font-stretch:normal;font-size:25px;line-height:50%;font-family:'Noto Sans';-inkscape-font-specification:'Noto Sans, Normal';text-align:start;letter-spacing:0px;word-spacing:0px;writing-mode:lr-tb;text-anchor:start;fill:#000000;fill-opacity:1;stroke:none;stroke-width:1px;stroke-linecap:butt;stroke-linejoin:miter;stroke-opacity:1"
           xml:space="preserve"><tspan
             style="fill:#ffffff;fill-opacity:1"
             y="97.019058"
             x="356.13968"
             id="tspan4318">ddNTP</tspan></text>
      </g>
      <g
         transform="matrix(1.2459502,0,0,1.2459502,355.08425,664.75133)"
         id="g4320">
        <path
           style="opacity:1;fill:#ffd629;fill-opacity:1;stroke:#ff0000;stroke-width:0.71461779;stroke-miterlimit:4;stroke-dasharray:none;stroke-dashoffset:0;stroke-opacity:1"
           id="path4322"
           d="m 99.848361,115.27819 -3.763349,-8.31292 -5.069249,7.58751 0.897307,-9.08089 -8.183852,4.03635 5.317532,-7.41562 -9.1056,-0.59634 8.312928,-3.76335 -7.587508,-5.069248 9.080881,0.897307 -4.03635,-8.183852 7.41562,5.317532 0.596344,-9.1056 3.76335,8.312928 5.069245,-7.587509 -0.8973,9.080882 8.18385,-4.036351 -5.31753,7.415621 9.1056,0.596344 -8.31293,3.763349 7.58751,5.069247 -9.08088,-0.89731 4.03635,8.18386 -7.41562,-5.31753 z" />
        <text
           xml:space="preserve"
           style="font-style:normal;font-variant:normal;font-weight:normal;font-stretch:normal;font-size:14.62843037px;line-height:50%;font-family:'Noto Sans';-inkscape-font-specification:'Noto Sans, Normal';text-align:start;letter-spacing:0px;word-spacing:0px;writing-mode:lr-tb;text-anchor:start;fill:#000000;fill-opacity:1;stroke:none;stroke-width:1px;stroke-linecap:butt;stroke-linejoin:miter;stroke-opacity:1"
           x="88.268669"
           y="105.48721"
           id="text4324"><tspan
             id="tspan4326"
             x="88.268669"
             y="105.48721"><tspan
   style="font-size:7.31421518px;baseline-shift:super"
   id="tspan4328">32</tspan>P</tspan></text>
      </g>
      <text
         xml:space="preserve"
         style="font-style:normal;font-variant:normal;font-weight:normal;font-stretch:normal;font-size:22.59889412px;line-height:50%;font-family:'Noto Sans';-inkscape-font-specification:'Noto Sans, Normal';text-align:start;letter-spacing:0px;word-spacing:0px;writing-mode:lr-tb;text-anchor:start;fill:#000000;fill-opacity:1;stroke:none;stroke-width:1px;stroke-linecap:butt;stroke-linejoin:miter;stroke-opacity:1"
         x="243.89569"
         y="472.31351"
         id="text4330"><tspan
           id="tspan4332"
           x="243.89569"
           y="472.31351">1) Labeled <tspan
   style="font-style:normal;font-variant:normal;font-weight:bold;font-stretch:normal;font-family:'Noto Sans';-inkscape-font-specification:'Noto Sans Bold'"
   id="tspan4334">Primer</tspan> with chain termination</tspan></text>
      <text
         id="text4336"
         y="683.83917"
         x="243.89569"
         style="font-style:normal;font-variant:normal;font-weight:normal;font-stretch:normal;font-size:22.59889412px;line-height:50%;font-family:'Noto Sans';-inkscape-font-specification:'Noto Sans, Normal';text-align:start;letter-spacing:0px;word-spacing:0px;writing-mode:lr-tb;text-anchor:start;fill:#000000;fill-opacity:1;stroke:none;stroke-width:1px;stroke-linecap:butt;stroke-linejoin:miter;stroke-opacity:1"
         xml:space="preserve"><tspan
           y="683.83917"
           x="243.89569"
           id="tspan4338">2) Labeled <tspan
   style="font-style:normal;font-variant:normal;font-weight:bold;font-stretch:normal;font-family:'Noto Sans';-inkscape-font-specification:'Noto Sans Bold'"
   id="tspan4342">dNTPs</tspan> with chain termination</tspan></text>
      <text
         xml:space="preserve"
         style="font-style:normal;font-variant:normal;font-weight:normal;font-stretch:normal;font-size:22.59889412px;line-height:50%;font-family:'Noto Sans';-inkscape-font-specification:'Noto Sans, Normal';text-align:start;letter-spacing:0px;word-spacing:0px;writing-mode:lr-tb;text-anchor:start;fill:#000000;fill-opacity:1;stroke:none;stroke-width:1px;stroke-linecap:butt;stroke-linejoin:miter;stroke-opacity:1"
         x="243.89569"
         y="888.21582"
         id="text4344"><tspan
           id="tspan4346"
           x="243.89569"
           y="888.21582">3) Labeled <tspan
   id="tspan4348"
   style="font-style:normal;font-variant:normal;font-weight:bold;font-stretch:normal;font-family:'Noto Sans';-inkscape-font-specification:'Noto Sans Bold'">ddNTPs</tspan> chain termination</tspan></text>
      <g
         id="g4646"
         transform="matrix(0.90395576,0,0,0.90395576,119.70957,958.88348)">
        <text
           id="text4350"
           y="34.128441"
           x="28.284271"
           style="font-style:normal;font-variant:normal;font-weight:normal;font-stretch:normal;font-size:25px;line-height:50%;font-family:'Noto Sans';-inkscape-font-specification:'Noto Sans, Normal';text-align:start;letter-spacing:0px;word-spacing:0px;writing-mode:lr-tb;text-anchor:start;fill:#000000;fill-opacity:1;stroke:none;stroke-width:1px;stroke-linecap:butt;stroke-linejoin:miter;stroke-opacity:1"
           xml:space="preserve"><tspan
             style="font-size:30px"
             y="34.128441"
             x="28.284271"
             id="tspan4352">5'</tspan></text>
        <text
           xml:space="preserve"
           style="font-style:normal;font-variant:normal;font-weight:normal;font-stretch:normal;font-size:25px;line-height:50%;font-family:'Noto Sans';-inkscape-font-specification:'Noto Sans, Normal';text-align:start;letter-spacing:0px;word-spacing:0px;writing-mode:lr-tb;text-anchor:start;fill:#000000;fill-opacity:1;stroke:none;stroke-width:1px;stroke-linecap:butt;stroke-linejoin:miter;stroke-opacity:1"
           x="658.2843"
           y="34.128441"
           id="text4354"><tspan
             id="tspan4356"
             x="658.2843"
             y="34.128441"
             style="font-size:30px">3'</tspan></text>
        <path
           id="path4358"
           d="m 54.548237,22.006609 587.908783,0"
           style="fill:none;fill-rule:evenodd;stroke:#000000;stroke-width:2;stroke-linecap:butt;stroke-linejoin:miter;stroke-miterlimit:4;stroke-dasharray:none;stroke-opacity:1;marker-end:url(#Arrow1Lend)" />
      </g>
      <text
         xml:space="preserve"
         style="font-style:normal;font-variant:normal;font-weight:normal;font-stretch:normal;font-size:22.59889412px;line-height:50%;font-family:'Noto Sans';-inkscape-font-specification:'Noto Sans, Normal';text-align:start;letter-spacing:0px;word-spacing:0px;writing-mode:lr-tb;text-anchor:start;fill:#000000;fill-opacity:1;stroke:none;stroke-width:1px;stroke-linecap:butt;stroke-linejoin:miter;stroke-opacity:1"
         x="85.010513"
         y="1043.9349"
         id="text4653"><tspan
           id="tspan4655"
           x="85.010513"
           y="1043.9349"
           style="font-style:normal;font-variant:normal;font-weight:bold;font-stretch:normal;font-size:31.63845444px;font-family:'Noto Sans';-inkscape-font-specification:'Noto Sans Bold'">3 schemes for sequencing with Sanger ddNTPs</tspan></text>
    </g>
  </g>
</svg>
