<?xml version="1.0" encoding="UTF-8" standalone="no"?>
<svg
   xmlns:dc="http://purl.org/dc/elements/1.1/"
   xmlns:cc="http://creativecommons.org/ns#"
   xmlns:rdf="http://www.w3.org/1999/02/22-rdf-syntax-ns#"
   xmlns:svg="http://www.w3.org/2000/svg"
   xmlns="http://www.w3.org/2000/svg"
   xmlns:sodipodi="http://sodipodi.sourceforge.net/DTD/sodipodi-0.dtd"
   xmlns:inkscape="http://www.inkscape.org/namespaces/inkscape"
   viewBox="0 0 700 478"
   height="478"
   width="700"
   xml:space="preserve"
   version="1.1"
   id="svg2"
   inkscape:version="0.91 r"
   sodipodi:docname="cellresp-concept-student.svg"><title
     id="title4622">Cellular Respiration Concept Map</title><sodipodi:namedview
     pagecolor="#ffffff"
     bordercolor="#666666"
     borderopacity="1"
     objecttolerance="10"
     gridtolerance="10"
     guidetolerance="10"
     inkscape:pageopacity="0"
     inkscape:pageshadow="2"
     inkscape:window-width="1920"
     inkscape:window-height="1028"
     id="namedview169"
     showgrid="false"
     inkscape:zoom="1.5314286"
     inkscape:cx="191.96333"
     inkscape:cy="246.91889"
     inkscape:window-x="0"
     inkscape:window-y="0"
     inkscape:window-maximized="1"
     inkscape:current-layer="svg2" /><metadata
     id="metadata8"><rdf:RDF><cc:Work
         rdf:about=""><dc:format>image/svg+xml</dc:format><dc:type
           rdf:resource="http://purl.org/dc/dcmitype/StillImage" /><dc:title>Cellular Respiration Concept Map</dc:title><cc:license
           rdf:resource="http://creativecommons.org/licenses/by-nc-sa/3.0/" /><dc:creator><cc:Agent><dc:title>Jeremy Seto</dc:title></cc:Agent></dc:creator></cc:Work><cc:License
         rdf:about="http://creativecommons.org/licenses/by-nc-sa/3.0/"><cc:permits
           rdf:resource="http://creativecommons.org/ns#Reproduction" /><cc:permits
           rdf:resource="http://creativecommons.org/ns#Distribution" /><cc:requires
           rdf:resource="http://creativecommons.org/ns#Notice" /><cc:requires
           rdf:resource="http://creativecommons.org/ns#Attribution" /><cc:prohibits
           rdf:resource="http://creativecommons.org/ns#CommercialUse" /><cc:permits
           rdf:resource="http://creativecommons.org/ns#DerivativeWorks" /><cc:requires
           rdf:resource="http://creativecommons.org/ns#ShareAlike" /></cc:License></rdf:RDF></metadata><defs
     id="defs6" /><rect
     style="opacity:0.98999999;fill:#ffffff;fill-opacity:1;stroke:none;stroke-width:1.57275164;stroke-miterlimit:4;stroke-dasharray:1.57275164, 4.71825493;stroke-dashoffset:0;stroke-opacity:0.42941176"
     id="rect4623"
     width="699"
     height="477.3735"
     x="0.39999989"
     y="0.22649612" /><g
     transform="matrix(0.94738742,0,0,1.1580906,-51.035205,-149.52164)"
     id="g14"><path
       id="path16"
       style="fill:#feffff;fill-opacity:1;fill-rule:nonzero;stroke:#a60000;stroke-width:1.99290502;stroke-linecap:butt;stroke-linejoin:miter;stroke-miterlimit:4;stroke-dasharray:1.992905, 3.98581;stroke-dashoffset:0;stroke-opacity:1"
       d="m 584.137,146.395 86.699,0 c 65.387,0 118.031,52.644 118.031,118.031 l 0,155.801 c 0,65.39 -52.644,118.031 -118.031,118.031 l -86.699,0 c -65.391,0 -118.032,-52.641 -118.032,-118.031 l 0,-155.801 c 0,-65.387 52.641,-118.031 118.032,-118.031 z"
       inkscape:connector-curvature="0" /></g><g
     transform="matrix(0.88545126,0,0,0.66741597,-2.023393,-2.6099311)"
     id="g18"><path
       id="path20"
       style="fill:#feffff;fill-opacity:1;fill-rule:nonzero;stroke:#000000;stroke-width:0.69498903;stroke-linecap:butt;stroke-linejoin:miter;stroke-miterlimit:4;stroke-dasharray:none;stroke-opacity:1"
       d="m 485.813,55.342 c 0,26.866 -47.118,48.647 -105.243,48.647 -58.121,0 -105.238,-21.781 -105.238,-48.647 0,-26.87 47.117,-48.652 105.238,-48.652 58.125,0 105.243,21.782 105.243,48.652 z"
       inkscape:connector-curvature="0" /></g><text
     id="text22"
     style="font-variant:normal;font-weight:bold;font-size:18.2828598px;font-family:'Arial Bold';-inkscape-font-specification:Arial-BoldMT;writing-mode:lr-tb;fill:#000000;fill-opacity:1;fill-rule:nonzero;stroke:none"
     x="248.08076"
     y="40.848255"><tspan
       id="tspan24"
       y="40.848255"
       x="248.08076 261.28098 271.44623 276.51062 281.57495 292.72748 297.79184 307.95709 315.06915 320.13348 333.33371 343.49899 353.66422 364.8168 369.88113 376.99319 387.15845 393.24664 398.31097 409.46356">Cellular Respiration</tspan></text>
<g
     transform="matrix(0.82761726,0,0,0.88569825,6.8001462,-2.6276644)"
     id="g26"><path
       id="path28"
       style="fill:#feffff;fill-opacity:1;fill-rule:nonzero;stroke:#000000;stroke-width:0.293733;stroke-linecap:butt;stroke-linejoin:miter;stroke-miterlimit:4;stroke-dasharray:none;stroke-opacity:1"
       d="m 163.129,54.383 57.91,0 c 5.809,0 10.488,4.68 10.488,10.492 l 0,13.848 c 0,5.808 -4.679,10.488 -10.488,10.488 l -57.91,0 c -5.809,0 -10.488,-4.68 -10.488,-10.488 l 0,-13.848 c 0,-5.812 4.679,-10.492 10.488,-10.492 z"
       inkscape:connector-curvature="0" /></g><text
     id="text30"
     style="font-variant:normal;font-weight:bold;font-size:12.75049782px;font-family:'Arial Bold';-inkscape-font-specification:Arial-BoldMT;writing-mode:lr-tb;fill:#ff0000;fill-opacity:1;fill-rule:nonzero;stroke:none"
     x="137.62491"
     y="64.684364"><tspan
       id="tspan32"
       y="64.684364"
       x="137.62491 147.53204 151.06393 158.84174 165.93102 173.70882 180.79811">Glucose</tspan></text>
<path
     id="path34"
     style="fill:#000000;fill-opacity:1;fill-rule:nonzero;stroke:none"
     d="m 164.43436,80.007099 3.68348,0 0,48.896391 6.42306,0 -8.26657,17.03874 -8.26657,-17.03874 6.4266,0 0,-48.896391 z"
     inkscape:connector-curvature="0" /><g
     transform="matrix(0.88545126,0,0,0.88545126,-2.023393,-2.6099311)"
     id="g36"><path
       id="path38"
       style="fill:#feffff;fill-opacity:1;fill-rule:nonzero;stroke:#000000;stroke-width:0.32196701;stroke-linecap:butt;stroke-linejoin:miter;stroke-miterlimit:4;stroke-dasharray:none;stroke-opacity:1"
       d="m 157.422,168.684 73.894,0 c 5.809,0 10.485,4.675 10.485,10.48 l 0,13.836 c 0,5.809 -4.676,10.484 -10.485,10.484 l -73.894,0 c -5.809,0 -10.481,-4.675 -10.481,-10.484 l 0,-13.836 c 0,-5.805 4.672,-10.48 10.481,-10.48 z"
       inkscape:connector-curvature="0" /></g><path
     id="path40"
     style="fill:#000000;fill-opacity:1;fill-rule:nonzero;stroke:none"
     d="m 250.95977,131.87506 -3.2133,-5.56506 17.77101,-0.71279 -9.50444,15.03231 -3.20976,-5.56595 -39.12898,22.59318 -1.8435,-3.19205 39.12897,-22.58964 z"
     inkscape:connector-curvature="0" /><path
     id="path42"
     style="fill:#000000;fill-opacity:1;fill-rule:nonzero;stroke:none"
     d="m 71.078578,193.50336 17.771006,-0.71545 -3.213302,-5.56506 39.128978,-22.58963 -1.83997,-3.1894 -39.128976,22.58963 -3.213303,-5.56506 -9.504433,15.03497 z"
     inkscape:connector-curvature="0" /><path
     id="path44"
     style="fill:#000000;fill-opacity:1;fill-rule:nonzero;stroke:none"
     d="m 85.636282,134.32688 39.128978,22.58963 -1.83997,3.19294 -39.128976,-22.59318 -3.213303,5.56506 -9.504433,-15.0323 17.771006,0.71279 -3.213302,5.56506 z"
     inkscape:connector-curvature="0" /><g
     transform="matrix(0,0.88545126,-0.88545126,0,-2.023393,-2.6099311)"
     id="g46"
     style="stroke:#000000;stroke-opacity:1;stroke-width:0.99949035;stroke-miterlimit:4;stroke-dasharray:0.99949035,1.9989807;stroke-dashoffset:0"><path
       id="path48"
       style="fill:#feffff;fill-opacity:1;fill-rule:nonzero;stroke:#000000;stroke-width:0.99949035;stroke-linecap:butt;stroke-linejoin:miter;stroke-miterlimit:4;stroke-dasharray:0.99949035,1.9989807;stroke-dashoffset:0;stroke-opacity:1"
       d="m 156.996,-138.492 42.578,0 c 9.324,0 16.832,7.504 16.832,16.828 0,9.324 -7.508,16.832 -16.832,16.832 l -42.578,0 c -9.324,0 -16.832,-7.508 -16.832,-16.832 0,-9.324 7.508,-16.828 16.832,-16.828 z"
       inkscape:connector-curvature="0" /></g><text
     id="text50"
     style="font-variant:normal;font-weight:normal;font-size:12.75049782px;font-family:Arial;-inkscape-font-specification:ArialMT;writing-mode:lr-tb;fill:#000000;fill-opacity:1;fill-rule:nonzero;stroke:none"
     transform="matrix(0,1,-1,0,0,0)"
     x="129.49414"
     y="-104.18539"><tspan
       id="tspan52"
       y="-104.18539"
       x="129.49414 136.58342 143.67268 147.20457 150.73645 157.82574 164.91502 167.74565">net gain</tspan></text>
<path
     id="path54"
     style="fill:#000000;fill-opacity:1;fill-rule:nonzero;stroke:none"
     d="m 118.28376,219.44088 -5.56507,-3.2133 -0.71278,17.77189 15.0323,-9.50532 -5.56506,-3.20976 22.59229,-39.12898 -3.18851,-1.84351 -22.59317,39.12898 z"
     inkscape:connector-curvature="0" /><g
     transform="matrix(0.88545126,0,0,0.88545126,-2.023393,-2.6099311)"
     id="g56"><path
       id="path58"
       style="fill:#feffff;fill-opacity:1;fill-rule:nonzero;stroke:#000000;stroke-width:0.32517201;stroke-linecap:butt;stroke-linejoin:miter;stroke-miterlimit:4;stroke-dasharray:none;stroke-opacity:1"
       d="m 313.09,103.969 64.105,0 c 6.434,0 11.614,5.179 11.614,11.613 l 0,15.328 c 0,6.434 -5.18,11.613 -11.614,11.613 l -64.105,0 c -6.434,0 -11.613,-5.179 -11.613,-11.613 l 0,-15.328 c 0,-6.434 5.179,-11.613 11.613,-11.613 z"
       inkscape:connector-curvature="0" /></g><text
     id="text60"
     style="font-variant:normal;font-weight:bold;font-size:12.75049782px;font-family:'Arial Bold';-inkscape-font-specification:Arial-BoldMT;writing-mode:lr-tb;fill:#ff0000;fill-opacity:1;fill-rule:nonzero;stroke:none"
     x="299.32986"
     y="102.12632"><tspan
       id="tspan62"
       y="102.12632"
       x="299.32986 306.41916">2 </tspan><tspan
       id="tspan64"
       y="118.06445"
       x="275.92075 284.41257 291.50186 296.46179 304.23959 311.32889 318.41818 322.70233">Pyruvate</tspan></text>
<g
     transform="matrix(0.52720972,0,0,0.88715044,19.743097,-2.8193477)"
     id="g66"><path
       id="path68"
       style="fill:#feffff;fill-opacity:1;fill-rule:nonzero;stroke:#000000;stroke-width:0.32517201;stroke-linecap:butt;stroke-linejoin:miter;stroke-miterlimit:4;stroke-dasharray:none;stroke-opacity:1"
       d="m 15.949,103.969 64.102,0 c 6.437,0 11.613,5.179 11.613,11.613 l 0,15.328 c 0,6.434 -5.176,11.613 -11.613,11.613 l -64.102,0 c -6.437,0 -11.613,-5.179 -11.613,-11.613 l 0,-15.328 c 0,-6.434 5.176,-11.613 11.613,-11.613 z"
       inkscape:connector-curvature="0" /></g><text
     id="text70"
     style="font-variant:normal;font-weight:bold;font-size:12.75049782px;font-family:'Arial Bold';-inkscape-font-specification:Arial-BoldMT;writing-mode:lr-tb;fill:#ff0000;fill-opacity:1;fill-rule:nonzero;stroke:none"
     x="38.956444"
     y="102.12632"><tspan
       id="tspan72"
       y="102.12632"
       x="38.956444">2</tspan><tspan
       id="tspan74"
       y="118.06445"
       x="29.742222 38.948082 46.725887">ATP</tspan></text>
<g
     transform="matrix(0.70633511,0,0,0.88624605,5.716467,-2.8041677)"
     id="g76"><path
       id="path78"
       style="fill:#feffff;fill-opacity:1;fill-rule:nonzero;stroke:#000000;stroke-width:0.32517201;stroke-linecap:butt;stroke-linejoin:miter;stroke-miterlimit:4;stroke-dasharray:none;stroke-opacity:1"
       d="m 14.805,225.109 64.105,0 c 6.434,0 11.613,5.18 11.613,11.614 l 0,15.328 c 0,6.437 -5.179,11.613 -11.613,11.613 l -64.105,0 c -6.434,0 -11.614,-5.176 -11.614,-11.613 l 0,-15.328 c 0,-6.434 5.18,-11.614 11.614,-11.614 z"
       inkscape:connector-curvature="0" /></g><text
     id="text80"
     style="font-variant:normal;font-weight:bold;font-size:12.75049782px;font-family:'Arial Bold';-inkscape-font-specification:Arial-BoldMT;writing-mode:lr-tb;fill:#ff0000;fill-opacity:1;fill-rule:nonzero;stroke:none"
     x="33.896725"
     y="208.38048"><tspan
       id="tspan82"
       y="208.38048"
       x="33.896725">2</tspan><tspan
       id="tspan84"
       y="224.3186"
       x="19.016996 28.222855 37.428715 46.634575">NADH</tspan></text>
<g
     transform="matrix(0.88545126,0,0,0.88545126,-2.023393,-2.6099311)"
     id="g86"><path
       id="path88"
       style="fill:#feffff;fill-opacity:1;fill-rule:nonzero;stroke:#000000;stroke-width:0.32517201;stroke-linecap:butt;stroke-linejoin:miter;stroke-miterlimit:4;stroke-dasharray:none;stroke-opacity:1"
       d="m 81.09,275.395 64.105,0 c 6.434,0 11.614,5.179 11.614,11.613 l 0,15.332 c 0,6.433 -5.18,11.613 -11.614,11.613 l -64.105,0 c -6.434,0 -11.613,-5.18 -11.613,-11.613 l 0,-15.332 c 0,-6.434 5.179,-11.613 11.613,-11.613 z"
       inkscape:connector-curvature="0" /></g><text
     id="text90"
     style="font-variant:normal;font-weight:bold;font-size:12.75049782px;font-family:'Arial Bold';-inkscape-font-specification:Arial-BoldMT;writing-mode:lr-tb;fill:#ff0000;fill-opacity:1;fill-rule:nonzero;stroke:none"
     x="63.7052"
     y="261.98956"><tspan
       id="tspan92"
       y="261.98956"
       x="63.7052 72.911064 80.000343 84.246262 92.024071 99.840118 103.372 110.46128 117.55056">Cytoplasm</tspan></text>
<path
     id="path94"
     style="fill:#000000;fill-opacity:1;fill-rule:nonzero;stroke:none"
     d="m 176.69609,261.08542 -9.21401,-17.30791 4.7416,-2.20035 -8.93775,-57.78898 2.71922,-1.26265 8.93686,57.78986 4.74248,-2.20389 -2.9884,22.97392 z"
     inkscape:connector-curvature="0" /><g
     transform="matrix(0.88545126,0,0,0.88545126,-2.023393,-2.6099311)"
     id="g96"><path
       id="path98"
       style="fill:#feffff;fill-opacity:1;fill-rule:nonzero;stroke:#000000;stroke-width:0.32517201;stroke-linecap:butt;stroke-linejoin:miter;stroke-miterlimit:4;stroke-dasharray:none;stroke-opacity:1"
       d="m 173.66,300.539 64.106,0 c 6.433,0 11.613,5.18 11.613,11.613 l 0,15.328 c 0,6.434 -5.18,11.614 -11.613,11.614 l -64.106,0 c -6.433,0 -11.613,-5.18 -11.613,-11.614 l 0,-15.328 c 0,-6.433 5.18,-11.613 11.613,-11.613 z"
       inkscape:connector-curvature="0" /></g><g
     transform="matrix(0.88545126,0,0,0.88545126,-2.023393,-2.6099311)"
     id="g100"><path
       id="path102"
       style="fill:#feffff;fill-opacity:1;fill-rule:nonzero;stroke:#000000;stroke-width:0.37793899;stroke-linecap:butt;stroke-linejoin:miter;stroke-miterlimit:4;stroke-dasharray:none;stroke-opacity:1"
       d="m 249.102,214.852 94.941,0 c 6.426,0 11.598,5.171 11.598,11.597 l 0,15.309 c 0,6.422 -5.172,11.597 -11.598,11.597 l -94.941,0 c -6.426,0 -11.598,-5.175 -11.598,-11.597 l 0,-15.309 c 0,-6.426 5.172,-11.597 11.598,-11.597 z"
       inkscape:connector-curvature="0" /></g><path
     id="path104"
     style="fill:#000000;fill-opacity:1;fill-rule:nonzero;stroke:none"
     d="m 287.88929,127.56557 3.68347,0 0,45.18192 6.42661,0 -8.26657,15.74775 -8.26658,-15.74775 6.42307,0 0,-45.18192 z"
     inkscape:connector-curvature="0" /><path
     id="path106"
     style="fill:#000000;fill-opacity:1;fill-rule:nonzero;stroke:none"
     d="m 208.54843,253.45106 15.45998,-27.32768 -2.18176,-1.28656 -15.46086,27.32768 -3.80833,-2.24108 -0.48788,12.41049 10.28629,-6.63734 -3.80744,-2.24551 z"
     inkscape:connector-curvature="0" /><path
     id="path108"
     style="fill:#000000;fill-opacity:1;fill-rule:nonzero;stroke:none"
     d="m 139.19192,322.33297 -31.94886,-31.94885 -4.54413,4.54148 -5.288803,-16.97853 16.979413,5.28792 -4.54148,4.54502 31.94885,31.94885 -2.60499,2.60411 z"
     inkscape:connector-curvature="0" /><g
     transform="matrix(0.88545126,0,0,0.88545126,-2.023393,-2.6099311)"
     id="g110"><path
       id="path112"
       style="fill:none;stroke:#000000;stroke-width:4;stroke-linecap:butt;stroke-linejoin:miter;stroke-miterlimit:4;stroke-dasharray:none;stroke-opacity:1"
       d="m 160,365.145 96,1.14 13.715,-105.14"
       inkscape:connector-curvature="0" /></g><g
     transform="matrix(0.88545126,0,0,0.88545126,-2.023393,-2.6099311)"
     id="g114"><path
       id="path116"
       style="fill:#feffff;fill-opacity:1;fill-rule:nonzero;stroke:#000000;stroke-width:0.34513801;stroke-linecap:butt;stroke-linejoin:miter;stroke-miterlimit:4;stroke-dasharray:none;stroke-opacity:1"
       d="m 213.793,387.949 86.699,0 c 5.867,0 10.594,4.723 10.594,10.59 l 0,13.981 c 0,5.867 -4.727,10.593 -10.594,10.593 l -86.699,0 c -5.867,0 -10.594,-4.726 -10.594,-10.593 l 0,-13.981 c 0,-5.867 4.727,-10.59 10.594,-10.59 z"
       inkscape:connector-curvature="0" /></g><g
     transform="matrix(0.78167521,0,0,0.88590601,30.557914,-2.794346)"
     id="g118"><path
       id="path120"
       style="fill:#feffff;fill-opacity:1;fill-rule:nonzero;stroke:#000000;stroke-width:0.30043399;stroke-linecap:butt;stroke-linejoin:miter;stroke-miterlimit:4;stroke-dasharray:none;stroke-opacity:1"
       d="m 324.641,387.926 60.433,0 c 5.875,0 10.606,4.73 10.606,10.605 l 0,14 c 0,5.875 -4.731,10.602 -10.606,10.602 l -60.433,0 c -5.875,0 -10.606,-4.727 -10.606,-10.602 l 0,-14 c 0,-5.875 4.731,-10.605 10.606,-10.605 z"
       inkscape:connector-curvature="0" /></g><text
     id="text122"
     style="font-variant:normal;font-weight:bold;font-size:12.75049782px;font-family:'Arial Bold';-inkscape-font-specification:Arial-BoldMT;writing-mode:lr-tb;fill:#ff0000;fill-opacity:1;fill-rule:nonzero;stroke:none"
     x="282.33298"
     y="359.16013"><tspan
       id="tspan124"
       y="359.16013"
       x="282.33298 290.8248 295.07074 302.84854 309.97607 317.75388 325.53168">Ethanol</tspan></text>
<path
     id="path126"
     style="fill:#000000;fill-opacity:1;fill-rule:nonzero;stroke:none"
     d="m 259.49287,225.88874 -7.8451,81.81746 -6.32921,-2.0507 5.40922,31.15283 10.87423,-25.872 -6.32566,-2.05425 7.84421,-81.81747 -3.62769,-1.17587 z"
     inkscape:connector-curvature="0" /><path
     id="path128"
     style="fill:#000000;fill-opacity:1;fill-rule:nonzero;stroke:none"
     d="m 282.09224,307.7062 6.32655,-2.0507 -5.40657,31.15283 -10.87422,-25.872 6.32566,-2.05425 -7.84421,-81.81747 3.62503,-1.17587 7.84776,81.81746 z"
     inkscape:connector-curvature="0" /><g
     transform="matrix(0.43765568,0,0,0.88766097,171.23608,-3.3343102)"
     id="g130"><path
       id="path132"
       style="fill:#feffff;fill-opacity:1;fill-rule:nonzero;stroke:#000000;stroke-width:0.32517201;stroke-linecap:butt;stroke-linejoin:miter;stroke-miterlimit:4;stroke-dasharray:none;stroke-opacity:1"
       d="m 351.949,308.539 64.102,0 c 6.437,0 11.613,5.18 11.613,11.613 l 0,15.328 c 0,6.434 -5.176,11.614 -11.613,11.614 l -64.102,0 c -6.437,0 -11.613,-5.18 -11.613,-11.614 l 0,-15.328 c 0,-6.433 5.176,-11.613 11.613,-11.613 z"
       inkscape:connector-curvature="0" /></g><text
     id="text134"
     style="font-variant:normal;font-weight:bold;font-size:12.75049782px;font-family:'Arial Bold';-inkscape-font-specification:Arial-BoldMT;writing-mode:lr-tb;fill:#ff0000;fill-opacity:1;fill-rule:nonzero;stroke:none"
     x="336.46808"
     y="283.26434"><tspan
       id="tspan136"
       y="283.26434"
       x="336.46808">2</tspan><tspan
       id="tspan138"
       y="299.20245"
       x="327.25385 336.45969 344.23749">ATP</tspan></text>
<path
     id="path140"
     style="fill:#000000;fill-opacity:1;fill-rule:nonzero;stroke:none"
     d="m 300.38566,226.86008 15.46087,27.33122 3.80832,-2.24462 0.48789,12.41049 -10.28629,-6.63735 3.80744,-2.24107 -15.46087,-27.33211 2.18264,-1.28656 z"
     inkscape:connector-curvature="0" /><text
     id="text142"
     style="font-variant:normal;font-weight:normal;font-size:9.93423176px;font-family:Arial;-inkscape-font-specification:ArialMT;writing-mode:lr-tb;fill:#000000;fill-opacity:1;fill-rule:nonzero;stroke:none"
     transform="matrix(0.64278759,0.76604446,-0.76604446,0.64278759,0,0)"
     x="369.27124"
     y="-86.928688"><tspan
       id="tspan144"
       y="-86.928688"
       x="369.27124 374.79468 380.31812 383.06989 385.82166 391.34509 396.86853 399.07394">net gain</tspan></text>
<g
     transform="matrix(0.88545126,0,0,0.88545126,-2.023393,-2.6099311)"
     id="g146"
     style="stroke:#000000;stroke-opacity:1;stroke-width:0.99949035;stroke-miterlimit:4;stroke-dasharray:0.99949035,1.9989807;stroke-dashoffset:0"><path
       id="path148"
       style="fill:#feffff;fill-opacity:1;fill-rule:nonzero;stroke:#000000;stroke-width:0.99949035;stroke-linecap:butt;stroke-linejoin:miter;stroke-miterlimit:4;stroke-dasharray:0.99949035,1.9989807;stroke-dashoffset:0;stroke-opacity:1"
       d="m 288.23,280.02 29.633,0 c 9.883,0 17.836,7.957 17.836,17.835 0,9.883 -7.953,17.836 -17.836,17.836 l -29.633,0 c -9.882,0 -17.835,-7.953 -17.835,-17.836 0,-9.878 7.953,-17.835 17.835,-17.835 z"
       inkscape:connector-curvature="0" /></g><text
     id="text150"
     style="font-variant:normal;font-weight:normal;font-size:10.92651558px;font-family:Arial;-inkscape-font-specification:ArialMT;writing-mode:lr-tb;fill:#000000;fill-opacity:1;fill-rule:nonzero;stroke:none"
     x="257.07733"
     y="256.96555"><tspan
       id="tspan152"
       y="256.96555"
       x="257.07733 262.54056 268.61572">can</tspan><tspan
       id="tspan154"
       y="270.62369"
       x="246.12946 252.20459 255.84312 261.91827 267.99341 274.10135 279.56461">produce</tspan></text>
<path
     id="path156"
     style="fill:#000000;fill-opacity:1;fill-rule:nonzero;stroke:none"
     d="m 388.88563,103.23957 0,-6.426606 15.74509,8.266576 -15.74509,8.26657 0,-6.42306 -45.18192,0 0,-3.68348 45.18192,0 z"
     inkscape:connector-curvature="0" /><g
     transform="matrix(0.88545126,0,0,0.88545126,-2.023393,-2.6099311)"
     id="g158"><path
       id="path160"
       style="fill:#feffff;fill-opacity:1;fill-rule:nonzero;stroke:#000000;stroke-width:0.32517201;stroke-linecap:butt;stroke-linejoin:miter;stroke-miterlimit:4;stroke-dasharray:none;stroke-opacity:1"
       d="m 468.297,102.352 64.105,0 c 6.434,0 11.614,5.179 11.614,11.613 l 0,15.328 c 0,6.434 -5.18,11.613 -11.614,11.613 l -64.105,0 c -6.434,0 -11.613,-5.179 -11.613,-11.613 l 0,-15.328 c 0,-6.434 5.179,-11.613 11.613,-11.613 z"
       inkscape:connector-curvature="0" /></g><text
     id="text176"
     style="font-variant:normal;font-weight:normal;font-size:12.75049782px;font-family:Arial;-inkscape-font-specification:ArialMT;writing-mode:lr-tb;fill:#000000;fill-opacity:1;fill-rule:nonzero;stroke:none"
     x="361.617"
     y="100.56616"><tspan
       id="tspan178"
       y="100.56616"
       x="361.617 364.4476">if</tspan><tspan
       id="tspan180"
       y="116.50429"
       x="344.23447 351.32376 357.69901 364.07425 371.16354 378.25281">oxygen</tspan></text>
<text
     id="text182"
     style="font-variant:normal;font-weight:normal;font-size:12.75049782px;font-family:Arial;-inkscape-font-specification:ArialMT;writing-mode:lr-tb;fill:#000000;fill-opacity:1;fill-rule:nonzero;stroke:none"
     transform="matrix(0,1,-1,0,0,0)"
     x="138.24034"
     y="-294.64249"><tspan
       id="tspan184"
       y="-294.64249"
       x="138.24034 141.07097 144.60286 148.13474 155.22403">if no</tspan><tspan
       id="tspan186"
       y="-278.70438"
       x="129.72342 136.8127 143.18794 149.5632 156.65248 163.74174">oxygen</tspan></text>
<text
     id="text188"
     style="font-variant:normal;font-weight:normal;font-size:11.33377647px;font-family:Arial;-inkscape-font-specification:ArialMT;writing-mode:lr-tb;fill:#000000;fill-opacity:1;fill-rule:nonzero;stroke:none"
     transform="matrix(0.90630778,-0.42261827,0.42261827,0.90630778,0,0)"
     x="129.04863"
     y="218.07484"><tspan
       id="tspan190"
       y="218.07484"
       x="129.04863 135.3502 139.12434 145.42595 151.72752 158.06311 163.73 170.03156">produces</tspan></text>
<text
     id="text192"
     style="font-variant:normal;font-weight:normal;font-size:12.75049782px;font-family:Arial;-inkscape-font-specification:ArialMT;writing-mode:lr-tb;fill:#000000;fill-opacity:1;fill-rule:nonzero;stroke:none"
     transform="matrix(0,1,-1,0,0,0)"
     x="80.723007"
     y="-170.13634"><tspan
       id="tspan194"
       y="-170.13634"
       x="80.723007 87.098244 94.187523 97.018143 99.848732 103.38062 106.91251 109.74313 116.83241">splitting</tspan><tspan
       id="tspan196"
       y="-154.19821"
       x="86.388512 92.763748 99.853027 106.94231 114.03157">sugar</tspan></text>
<path
     id="path198"
     style="fill:#feffff;fill-opacity:0.83653804;fill-rule:nonzero;stroke:#000000;stroke-opacity:1;stroke-width:1;stroke-miterlimit:4;stroke-dasharray:1,1;stroke-dashoffset:0"
     d="m 165.20559,223.34572 45.72913,0 c 6.87287,0 12.40694,5.53407 12.40694,12.40694 0,6.87288 -5.53407,12.40695 -12.40694,12.40695 l -45.72913,0 c -6.87199,0 -12.40606,-5.53407 -12.40606,-12.40695 0,-6.87287 5.53407,-12.40694 12.40606,-12.40694 z"
     inkscape:connector-curvature="0" /><g
     transform="matrix(0.88545126,0,0,0.88545126,-2.023393,-2.6099311)"
     id="g200"><path
       id="path202"
       style="fill:none;stroke:#000000;stroke-width:0.264768;stroke-linecap:butt;stroke-linejoin:miter;stroke-miterlimit:4;stroke-dasharray:0.264768, 2.118146;stroke-dashoffset:0;stroke-opacity:1"
       d="m 188.863,255.188 51.645,0 c 7.762,0 14.012,6.25 14.012,14.011 0,7.762 -6.25,14.012 -14.012,14.012 l -51.645,0 c -7.761,0 -14.011,-6.25 -14.011,-14.012 0,-7.761 6.25,-14.011 14.011,-14.011 z"
       inkscape:connector-curvature="0" /></g><text
     id="text204"
     style="font-variant:normal;font-weight:normal;font-size:10.62552452px;font-family:Arial;-inkscape-font-specification:ArialMT;writing-mode:lr-tb;fill:#000000;fill-opacity:1;fill-rule:nonzero;stroke:none"
     transform="matrix(0.99990252,0.01396219,-0.01396219,0.99990252,0,0)"
     x="183.41428"
     y="228.7816"><tspan
       id="tspan206"
       y="228.7816"
       x="183.41428 186.35754 191.6703 197.57811">type</tspan><tspan
       id="tspan208"
       y="242.06351"
       x="174.84329 180.75108 184.28938 190.19717 195.50993 201.41772 206.73048">process</tspan></text>
<text
     id="text210"
     style="font-variant:normal;font-weight:normal;font-size:12.75049877px;font-family:Arial;-inkscape-font-specification:ArialMT;writing-mode:lr-tb;fill:#000000;fill-opacity:1;fill-rule:nonzero;stroke:none"
     transform="matrix(0.49999999,-0.86602541,0.86602541,0.49999999,0,0)"
     x="-128.95618"
     y="209.91663"><tspan
       id="tspan212"
       y="209.91663"
       x="-128.95618 -121.86689 -115.49165 -109.11639 -102.02714 -97.781197">occurs</tspan><tspan
       id="tspan214"
       y="225.85475"
       x="-115.13483 -112.30424">in</tspan></text>
<path
     id="path222"
     style="fill:#000000;fill-opacity:1;fill-rule:nonzero;stroke:none"
     d="m 532.61296,65.943476 -11.9713,13.153379 -2.19592,-6.038778 -42.4565,15.453781 -1.26265,-3.462114 42.46004,-15.453781 -2.19946,-6.036121 17.62579,2.383634 z"
     inkscape:connector-curvature="0" /><text
     id="text224"
     style="font-variant:normal;font-weight:normal;font-size:11.33377647px;font-family:Arial;-inkscape-font-specification:ArialMT;writing-mode:lr-tb;fill:#000000;fill-opacity:1;fill-rule:nonzero;stroke:none"
     transform="matrix(0.96592583,-0.25881905,0.25881905,0.96592583,0,0)"
     x="438.88379"
     y="193.57959"><tspan
       id="tspan226"
       y="193.57959"
       x="438.88379 445.18539 448.95953 455.26111 461.56271 467.89825 473.56516 479.86676">produces</tspan></text>
<g
     transform="matrix(0.88545126,0,0,0.88545126,-2.023393,-2.6099311)"
     id="g228"><path
       id="path230"
       style="fill:#feffff;fill-opacity:1;fill-rule:nonzero;stroke:#000000;stroke-width:0.32517201;stroke-linecap:butt;stroke-linejoin:miter;stroke-miterlimit:4;stroke-dasharray:none;stroke-opacity:1"
       d="m 615.375,42.551 64.105,0 c 6.434,0 11.614,5.179 11.614,11.613 l 0,15.328 c 0,6.434 -5.18,11.613 -11.614,11.613 l -64.105,0 c -6.434,0 -11.613,-5.179 -11.613,-11.613 l 0,-15.328 c 0,-6.434 5.179,-11.613 11.613,-11.613 z"
       inkscape:connector-curvature="0" /></g><text
     id="text232"
     style="font-variant:normal;font-weight:bold;font-size:12.75049782px;font-family:'Arial Bold';-inkscape-font-specification:Arial-BoldMT;writing-mode:lr-tb;fill:#ff0000;fill-opacity:1;fill-rule:nonzero;stroke:none"
     x="546.07092"
     y="47.744328"><tspan
       id="tspan234"
       y="47.744328"
       x="546.07092 553.16022 556.69208 565.89801 572.98724 580.07648 584.32245 591.44995">2 Acetyl</tspan><tspan
       id="tspan236"
       y="63.682449"
       x="557.42688 566.63269 574.41052">CoA</tspan></text>
<path
     id="path238"
     style="fill:#000000;fill-opacity:1;fill-rule:nonzero;stroke:none"
     d="m 516.58098,145.46408 2.38364,32.87238 13.15338,-22.32577 -6.03878,-4.09875 15.45378,-79.196532 -3.46212,-2.351759 -15.45378,79.199191 -6.03612,-4.09876 z"
     inkscape:connector-curvature="0" /><g
     transform="matrix(0.88545126,0,0,0.88545126,-2.023393,-2.6099311)"
     id="g240"><path
       id="path242"
       style="fill:#feffff;fill-opacity:1;fill-rule:nonzero;stroke:#000000;stroke-width:0.32517201;stroke-linecap:butt;stroke-linejoin:miter;stroke-miterlimit:4;stroke-dasharray:none;stroke-opacity:1"
       d="m 538.672,209.246 64.101,0 c 6.438,0 11.614,5.18 11.614,11.613 l 0,15.329 c 0,6.433 -5.176,11.613 -11.614,11.613 l -64.101,0 c -6.438,0 -11.617,-5.18 -11.617,-11.613 l 0,-15.329 c 0,-6.433 5.179,-11.613 11.617,-11.613 z"
       inkscape:connector-curvature="0" /></g><text
     id="text244"
     style="font-variant:normal;font-weight:normal;font-size:11.33377647px;font-family:Arial;-inkscape-font-specification:ArialMT;writing-mode:lr-tb;fill:#000000;fill-opacity:1;fill-rule:nonzero;stroke:none"
     transform="matrix(0.25881905,-0.96592583,0.96592583,0.25881905,0,0)"
     x="22.360033"
     y="556.95337"><tspan
       id="tspan246"
       y="556.95337"
       x="22.360033 28.661633 34.328541 40.630085 46.931683 50.071133 52.587246">used in</tspan></text>
<path
     id="path248"
     style="fill:#000000;fill-opacity:1;fill-rule:nonzero;stroke:none"
     d="m 587.15145,190.74695 15.74775,8.27011 -15.74775,8.26657 0,-6.4266 -45.18281,0 0,-3.68348 45.18281,0 0,-6.4266 z"
     inkscape:connector-curvature="0" /><text
     id="text250"
     style="font-variant:normal;font-weight:normal;font-size:12.75049782px;font-family:Arial;-inkscape-font-specification:ArialMT;writing-mode:lr-tb;fill:#000000;fill-opacity:1;fill-rule:nonzero;stroke:none"
     x="546.25134"
     y="195.91801"><tspan
       id="tspan252"
       y="195.91801"
       x="546.25134 553.34064 559.71588 566.09113 573.18042 577.42633">occurs</tspan><tspan
       id="tspan254"
       y="211.85612"
       x="560.07269 562.90332">in</tspan></text>
<g
     transform="matrix(0.84331944,0,0,0.8856507,26.747829,-2.6553472)"
     id="g256"><path
       id="path258"
       style="fill:#feffff;fill-opacity:1;fill-rule:nonzero;stroke:#000000;stroke-width:0.36194801;stroke-linecap:butt;stroke-linejoin:miter;stroke-miterlimit:4;stroke-dasharray:none;stroke-opacity:1"
       d="m 694.578,208.457 85.106,0 c 6.425,0 11.601,5.176 11.601,11.602 l 0,15.316 c 0,6.426 -5.176,11.602 -11.601,11.602 l -85.106,0 c -6.426,0 -11.601,-5.176 -11.601,-11.602 l 0,-15.316 c 0,-6.426 5.175,-11.602 11.601,-11.602 z"
       inkscape:connector-curvature="0" /></g><text
     id="text260"
     style="font-variant:normal;font-weight:bold;font-size:12.75049782px;font-family:'Arial Bold';-inkscape-font-specification:Arial-BoldMT;writing-mode:lr-tb;fill:#ff0000;fill-opacity:1;fill-rule:nonzero;stroke:none"
     x="605.00269"
     y="201.714"><tspan
       id="tspan262"
       y="201.714"
       x="605.00269 616.33789 619.86981 624.11566 631.89349 638.98279 646.76056 654.53839 662.31616 670.13226 675.09222 678.62408">mitochondria</tspan></text>
<path
     id="path264"
     style="fill:#000000;fill-opacity:1;fill-rule:nonzero;stroke:none"
     d="m 461.67946,263.11576 15.45467,-42.45739 -3.463,-1.25911 -15.45378,42.45739 -6.03524,-2.20035 2.37921,17.62668 13.15781,-11.9713 -6.03967,-2.19592 z"
     inkscape:connector-curvature="0" /><path
     id="path266"
     style="fill:#000000;fill-opacity:1;fill-rule:nonzero;stroke:none"
     d="m 497.57477,281.38085 -8.26569,-15.74775 6.42572,0 0,-45.18192 3.68437,0 0,45.18192 6.42217,0 -8.26657,15.74775 z"
     inkscape:connector-curvature="0" /><path
     id="path268"
     style="fill:#000000;fill-opacity:1;fill-rule:nonzero;stroke:none"
     d="m 538.35777,260.42399 6.03524,-2.19592 -2.38275,17.62225 -13.15338,-11.96687 6.03878,-2.20035 -15.45378,-42.4565 3.46211,-1.25911 15.45378,42.4565 z"
     inkscape:connector-curvature="0" /><g
     transform="matrix(0.88545126,0,0,0.88545126,-2.023393,-2.6099311)"
     id="g270"><path
       id="path272"
       style="fill:#feffff;fill-opacity:1;fill-rule:nonzero;stroke:#000000;stroke-width:0.27132401;stroke-linecap:butt;stroke-linejoin:miter;stroke-miterlimit:4;stroke-dasharray:none;stroke-opacity:1"
       d="m 482.832,319.707 37.461,0 c 6.441,0 11.629,5.188 11.629,11.633 l 0,15.348 c 0,6.445 -5.188,11.632 -11.629,11.632 l -37.461,0 c -6.441,0 -11.629,-5.187 -11.629,-11.632 l 0,-15.348 c 0,-6.445 5.188,-11.633 11.629,-11.633 z"
       inkscape:connector-curvature="0" /></g><g
     transform="matrix(0.88545126,0,0,0.88545126,-2.023393,-2.6099311)"
     id="g274"><path
       id="path276"
       style="fill:#feffff;fill-opacity:1;fill-rule:nonzero;stroke:#000000;stroke-width:0.27132401;stroke-linecap:butt;stroke-linejoin:miter;stroke-miterlimit:4;stroke-dasharray:none;stroke-opacity:1"
       d="m 549.906,319.934 37.461,0 c 6.442,0 11.629,5.183 11.629,11.629 l 0,15.351 c 0,6.441 -5.187,11.629 -11.629,11.629 l -37.461,0 c -6.441,0 -11.629,-5.188 -11.629,-11.629 l 0,-15.351 c 0,-6.446 5.188,-11.629 11.629,-11.629 z"
       inkscape:connector-curvature="0" /></g><g
     transform="matrix(0.88545126,0,0,0.88545126,-2.023393,-2.6099311)"
     id="g278"><path
       id="path280"
       style="fill:#feffff;fill-opacity:1;fill-rule:nonzero;stroke:#000000;stroke-width:0.23679601;stroke-linecap:butt;stroke-linejoin:miter;stroke-miterlimit:4;stroke-dasharray:none;stroke-opacity:1"
       d="m 612.324,313.449 22.926,0 c 6.449,0 11.641,5.192 11.641,11.641 l 0,15.363 c 0,6.449 -5.192,11.641 -11.641,11.641 l -22.926,0 c -6.449,0 -11.64,-5.192 -11.64,-11.641 l 0,-15.363 c 0,-6.449 5.191,-11.641 11.64,-11.641 z"
       inkscape:connector-curvature="0" /></g><text
     id="text282"
     style="font-variant:normal;font-weight:bold;font-size:12.75049782px;font-family:'Arial Bold';-inkscape-font-specification:Arial-BoldMT;writing-mode:lr-tb;fill:#ff0000;fill-opacity:1;fill-rule:nonzero;stroke:none"
     x="546.28333"
     y="287.65225"><tspan
       id="tspan284"
       y="287.65225"
       x="546.28333">2</tspan><tspan
       id="tspan286"
       y="303.59036"
       x="537.06909 546.27496 554.05273">ATP</tspan></text>
<path
     id="path288"
     style="fill:#000000;fill-opacity:1;fill-rule:nonzero;stroke:none"
     d="m 472.12513,358.40537 -2.38275,17.62225 -13.15426,-11.96776 6.03612,-2.19946 -15.45378,-42.4565 3.46211,-1.25911 15.45378,42.4565 6.03878,-2.19592 z"
     inkscape:connector-curvature="0" /><path
     id="path290"
     style="fill:#000000;fill-opacity:1;fill-rule:nonzero;stroke:none"
     d="m 499.31468,318.68757 -3.46211,-1.25911 -15.45378,42.45739 -6.03524,-2.19681 2.38275,17.62225 13.15427,-11.96687 -6.03967,-2.19681 15.45378,-42.46004 z"
     inkscape:connector-curvature="0" /><g
     transform="matrix(0.68394563,0,0,0.88635221,106.45843,-3.0152211)"
     id="g292"><path
       id="path294"
       style="fill:#feffff;fill-opacity:1;fill-rule:nonzero;stroke:#000000;stroke-width:0.32517201;stroke-linecap:butt;stroke-linejoin:miter;stroke-miterlimit:4;stroke-dasharray:none;stroke-opacity:1"
       d="m 504.684,430.566 64.105,0 c 6.434,0 11.613,5.18 11.613,11.614 l 0,15.328 c 0,6.433 -5.179,11.613 -11.613,11.613 l -64.105,0 c -6.434,0 -11.614,-5.18 -11.614,-11.613 l 0,-15.328 c 0,-6.434 5.18,-11.614 11.614,-11.614 z"
       inkscape:connector-curvature="0" /></g><text
     id="text296"
     style="font-variant:normal;font-weight:bold;font-size:12.75049782px;font-family:'Arial Bold';-inkscape-font-specification:Arial-BoldMT;writing-mode:lr-tb;fill:#ff0000;fill-opacity:1;fill-rule:nonzero;stroke:none"
     x="461.77774"
     y="398.66608"><tspan
       id="tspan298"
       y="398.66608"
       x="461.77774 470.26956 478.04736">ETC</tspan></text>
<text
     id="text300"
     style="font-variant:normal;font-weight:bold;font-size:28.33444023px;font-family:'Arial Bold';-inkscape-font-specification:Arial-BoldMT;writing-mode:lr-tb;fill:#000000;fill-opacity:1;fill-rule:nonzero;stroke:none"
     x="523.90778"
     y="361.82919"><tspan
       id="tspan302"
       y="361.82919"
       x="523.90778 544.3653 560.1192 571.1413 588.42535 605.70935 613.55792 629.31195">Aerobic </tspan><tspan
       id="tspan304"
       y="397.24725"
       x="523.90778 542.77856 553.80066 571.08466 586.83862 602.59253 618.3465">Process</tspan></text>
<path
     id="path306"
     style="fill:#000000;fill-opacity:1;fill-rule:nonzero;stroke:none"
     d="m 528.40707,445.97827 3.2133,-5.56152 -39.12986,-22.59317 1.84351,-3.18851 39.12986,22.58875 3.2133,-5.56507 9.5009,15.03585 -17.77101,-0.71633 z"
     inkscape:connector-curvature="0" /><g
     transform="matrix(0.88545126,0,0,0.88545126,-2.023393,-2.6099311)"
     id="g308"><path
       id="path310"
       style="fill:#feffff;fill-opacity:1;fill-rule:nonzero;stroke:#000000;stroke-width:0.23679601;stroke-linecap:butt;stroke-linejoin:miter;stroke-miterlimit:4;stroke-dasharray:none;stroke-opacity:1"
       d="m 630.91,486.387 22.926,0 c 6.449,0 11.641,5.191 11.641,11.64 l 0,15.364 c 0,6.449 -5.192,11.64 -11.641,11.64 l -22.926,0 c -6.449,0 -11.64,-5.191 -11.64,-11.64 l 0,-15.364 c 0,-6.449 5.191,-11.64 11.64,-11.64 z"
       inkscape:connector-curvature="0" /></g><path
     id="path312"
     style="fill:#feffff;fill-opacity:0.83653804;fill-rule:nonzero;stroke:#000000;stroke-opacity:1;stroke-width:1;stroke-miterlimit:4;stroke-dasharray:1,2;stroke-dashoffset:0"
     d="m 469.67332,223.37051 54.87672,0 c 8.24621,0 14.8871,6.64089 14.8871,14.88621 0,8.24975 -6.64089,14.88709 -14.8871,14.88709 l -54.87672,0 c -8.24975,0 -14.8871,-6.63734 -14.8871,-14.88709 0,-8.24532 6.63735,-14.88621 14.8871,-14.88621 z"
     inkscape:connector-curvature="0" /><g
     transform="matrix(0.88545126,0,0,0.88545126,-2.023393,-2.6099311)"
     id="g314"><path
       id="path316"
       style="fill:none;stroke:#000000;stroke-width:0.31771901;stroke-linecap:butt;stroke-linejoin:miter;stroke-miterlimit:4;stroke-dasharray:0.317719, 2.541749;stroke-dashoffset:0;stroke-opacity:1"
       d="m 532.719,255.215 61.976,0 c 9.313,0 16.813,7.5 16.813,16.812 0,9.317 -7.5,16.813 -16.813,16.813 l -61.976,0 c -9.317,0 -16.813,-7.496 -16.813,-16.813 0,-9.312 7.496,-16.812 16.813,-16.812 z"
       inkscape:connector-curvature="0" /></g><text
     id="text318"
     style="font-variant:normal;font-weight:normal;font-size:14.86661339px;font-family:Arial;-inkscape-font-specification:ArialMT;writing-mode:lr-tb;fill:#000000;fill-opacity:1;fill-rule:nonzero;stroke:none"
     x="468.34973"
     y="242.00572"><tspan
       id="tspan320"
       y="242.00572"
       x="468.34973 476.61551 481.5661 489.83197 498.09781 506.40823 513.84155 522.10736">produces</tspan></text>
<path
     id="path322"
     style="fill:#feffff;fill-opacity:0.79807697;fill-rule:nonzero;stroke:none"
     d="m 454.64455,324.24289 32.69618,0 c 8.25594,0 14.90745,6.65063 14.90745,14.90746 0,8.25949 -6.65151,14.90746 -14.90745,14.90746 l -32.69618,0 c -8.25595,0 -14.90391,-6.64797 -14.90391,-14.90746 0,-8.25683 6.64796,-14.90746 14.90391,-14.90746 z"
     inkscape:connector-curvature="0" /><g
     transform="matrix(0.88545126,0,0,0.88545126,-2.023393,-2.6099311)"
     id="g324"
     style="stroke:#000000;stroke-opacity:1;stroke-width:0.99949035;stroke-miterlimit:4;stroke-dasharray:0.99949035,1.9989807;stroke-dashoffset:0"><path
       id="path326"
       style="fill:none;stroke:#000000;stroke-width:0.99949035;stroke-linecap:butt;stroke-linejoin:miter;stroke-miterlimit:4;stroke-dasharray:0.99949035,1.9989807;stroke-dashoffset:0;stroke-opacity:1"
       d="m 515.746,369.137 36.926,0 c 9.324,0 16.836,7.511 16.836,16.836 0,9.328 -7.512,16.836 -16.836,16.836 l -36.926,0 c -9.324,0 -16.832,-7.508 -16.832,-16.836 0,-9.325 7.508,-16.836 16.832,-16.836 z"
       inkscape:connector-curvature="0" /></g><text
     id="text328"
     style="font-variant:normal;font-weight:normal;font-size:12.75049782px;font-family:Arial;-inkscape-font-specification:ArialMT;writing-mode:lr-tb;fill:#000000;fill-opacity:1;fill-rule:nonzero;stroke:none"
     x="449.09732"
     y="344.97604"><tspan
       id="tspan330"
       y="344.97604"
       x="449.09732 456.18661 462.56186 469.65115 476.74045 480.27231 483.10287">used in</tspan></text>
<text
     id="text332"
     style="font-variant:normal;font-weight:normal;font-size:12.75049877px;font-family:Arial;-inkscape-font-specification:ArialMT;writing-mode:lr-tb;fill:#000000;fill-opacity:1;fill-rule:nonzero;stroke:none"
     transform="matrix(0.93969262,0.34202014,-0.34202014,0.93969262,0,0)"
     x="591.7359"
     y="243.60919"><tspan
       id="tspan334"
       y="243.60919"
       x="591.7359 598.8252 603.07111 610.1604 617.24969 624.3772 630.7525 637.84174">produces</tspan></text>
</svg>