<?xml version="1.0" encoding="UTF-8" standalone="no"?>
<svg
   xmlns:dc="http://purl.org/dc/elements/1.1/"
   xmlns:cc="http://creativecommons.org/ns#"
   xmlns:rdf="http://www.w3.org/1999/02/22-rdf-syntax-ns#"
   xmlns:svg="http://www.w3.org/2000/svg"
   xmlns="http://www.w3.org/2000/svg"
   viewBox="0 0 700 478"
   height="478"
   width="700"
   xml:space="preserve"
   version="1.1"
   id="svg2"><metadata
     id="metadata8"><rdf:RDF><cc:Work
         rdf:about=""><dc:format>image/svg+xml</dc:format><dc:type
           rdf:resource="http://purl.org/dc/dcmitype/StillImage" /><dc:title></dc:title></cc:Work></rdf:RDF></metadata><defs
     id="defs6" /><g
     transform="matrix(1.25,0,0,-1.25,0,478)"
     id="g10"><g
       transform="matrix(0.70836101,0,0,0.70836101,-1.6187144,-49.028992)"
       id="g4625"><rect
         style="opacity:0.98999999;fill:#ffffff;fill-opacity:1;stroke:none;stroke-width:1.57275164;stroke-miterlimit:4;stroke-dasharray:1.57275164, 4.71825493;stroke-dashoffset:0;stroke-opacity:0.42941176"
         id="rect4623"
         width="789.42798"
         height="539.13019"
         x="2.7369015"
         y="-608.79663"
         transform="scale(1,-1)" /><g
         transform="matrix(1.0699487,0,0,-1.30791,-55.352354,777.91733)"
         id="g14"><path
           id="path16"
           style="fill:#feffff;fill-opacity:1;fill-rule:nonzero;stroke:#a60000;stroke-width:1.99290502;stroke-linecap:butt;stroke-linejoin:miter;stroke-miterlimit:4;stroke-dasharray:1.992905, 3.98581;stroke-dashoffset:0;stroke-opacity:1"
           d="m 584.137,146.395 86.699,0 c 65.387,0 118.031,52.644 118.031,118.031 l 0,155.801 c 0,65.39 -52.644,118.031 -118.031,118.031 l -86.699,0 c -65.391,0 -118.032,-52.641 -118.032,-118.031 l 0,-155.801 c 0,-65.387 52.641,-118.031 118.032,-118.031 z" /></g><g
         transform="matrix(1,0,0,-0.753758,0,612)"
         id="g18"><path
           id="path20"
           style="fill:#feffff;fill-opacity:1;fill-rule:nonzero;stroke:#000000;stroke-width:0.69498903;stroke-linecap:butt;stroke-linejoin:miter;stroke-miterlimit:4;stroke-dasharray:none;stroke-opacity:1"
           d="m 485.813,55.342 c 0,26.866 -47.118,48.647 -105.243,48.647 -58.121,0 -105.238,-21.781 -105.238,-48.647 0,-26.87 47.117,-48.652 105.238,-48.652 58.125,0 105.243,21.782 105.243,48.652 z" /></g><text
         id="text22"
         style="font-variant:normal;font-weight:bold;font-size:17.60000038px;font-family:'Arial Bold';-inkscape-font-specification:Arial-BoldMT;writing-mode:lr-tb;fill:#000000;fill-opacity:1;fill-rule:nonzero;stroke:none"
         transform="scale(1,-1)"
         x="281.14285"
         y="-562.28571"><tspan
           id="tspan24"
           y="-562.28571"
           x="281.14285 293.85004 303.63565 308.51086 313.38605 324.12204 328.99725 338.78284 345.62924 350.50446 363.21164 372.99725 382.78284 393.51886 398.39404 405.24045 415.02603 420.88684 425.76205 436.49805">Cellular Respiration</tspan></text>
<g
         transform="matrix(1,0,0,-1,0,612)"
         id="g26"><path
           id="path28"
           style="fill:#feffff;fill-opacity:1;fill-rule:nonzero;stroke:#000000;stroke-width:0.293733;stroke-linecap:butt;stroke-linejoin:miter;stroke-miterlimit:4;stroke-dasharray:none;stroke-opacity:1"
           d="m 163.129,54.383 57.91,0 c 5.809,0 10.488,4.68 10.488,10.492 l 0,13.848 c 0,5.808 -4.679,10.488 -10.488,10.488 l -57.91,0 c -5.809,0 -10.488,-4.68 -10.488,-10.488 l 0,-13.848 c 0,-5.812 4.679,-10.492 10.488,-10.492 z" /></g><text
         id="text30"
         style="font-variant:normal;font-weight:bold;font-size:14.39999962px;font-family:'Arial Bold';-inkscape-font-specification:Arial-BoldMT;writing-mode:lr-tb;fill:#ff0000;fill-opacity:1;fill-rule:nonzero;stroke:none"
         transform="scale(1,-1)"
         x="157.71428"
         y="-536"><tspan
           id="tspan32"
           y="-536"
           x="157.71428 168.90308 172.89188 181.67587 189.68228 198.46628 206.47269">Glucose</tspan></text>
<path
         id="path34"
         style="fill:#000000;fill-opacity:1;fill-rule:nonzero;stroke:none"
         d="m 187.992,518.695 4.16,0 0,-55.222 7.254,0 -9.336,-19.243 -9.336,19.243 7.258,0 0,55.222 z" /><g
         transform="matrix(1,0,0,-1,0,612)"
         id="g36"><path
           id="path38"
           style="fill:#feffff;fill-opacity:1;fill-rule:nonzero;stroke:#000000;stroke-width:0.32196701;stroke-linecap:butt;stroke-linejoin:miter;stroke-miterlimit:4;stroke-dasharray:none;stroke-opacity:1"
           d="m 157.422,168.684 73.894,0 c 5.809,0 10.485,4.675 10.485,10.48 l 0,13.836 c 0,5.809 -4.676,10.484 -10.485,10.484 l -73.894,0 c -5.809,0 -10.481,-4.675 -10.481,-10.484 l 0,-13.836 c 0,-5.805 4.672,-10.48 10.481,-10.48 z" /></g><path
         id="path40"
         style="fill:#000000;fill-opacity:1;fill-rule:nonzero;stroke:none"
         d="m 285.711,460.117 -3.629,6.285 20.07,0.805 -10.734,-16.977 -3.625,6.286 -44.191,-25.516 -2.082,3.605 44.191,25.512 z" /><path
         id="path42"
         style="fill:#000000;fill-opacity:1;fill-rule:nonzero;stroke:none"
         d="m 82.559,390.516 20.07,0.808 -3.629,6.285 44.191,25.512 -2.078,3.602 -44.191,-25.512 -3.629,6.285 -10.734,-16.98 z" /><path
         id="path44"
         style="fill:#000000;fill-opacity:1;fill-rule:nonzero;stroke:none"
         d="m 99,457.348 44.191,-25.512 -2.078,-3.606 -44.191,25.516 -3.629,-6.285 -10.734,16.977 20.07,-0.805 L 99,457.348 Z" /><g
         transform="matrix(0,-1,-1,0,0,612)"
         id="g46"><path
           id="path48"
           style="fill:#feffff;fill-opacity:1;fill-rule:nonzero;stroke:#000000;stroke-width:0.283871;stroke-linecap:butt;stroke-linejoin:miter;stroke-miterlimit:4;stroke-dasharray:0.283871, 2.270968;stroke-dashoffset:0;stroke-opacity:1"
           d="m 156.996,-138.492 42.578,0 c 9.324,0 16.832,7.504 16.832,16.828 0,9.324 -7.508,16.832 -16.832,16.832 l -42.578,0 c -9.324,0 -16.832,-7.508 -16.832,-16.832 0,-9.324 7.508,-16.828 16.832,-16.828 z" /></g><text
         id="text50"
         style="font-variant:normal;font-weight:normal;font-size:14.39999962px;font-family:Arial;-inkscape-font-specification:ArialMT;writing-mode:lr-tb;fill:#000000;fill-opacity:1;fill-rule:nonzero;stroke:none"
         transform="matrix(0,-1,-1,0,0,0)"
         x="-462.80594"
         y="-119.94877"><tspan
           id="tspan52"
           y="-119.94877"
           x="-462.80594 -454.79953 -446.79315 -442.80435 -438.81555 -430.80914 -422.80273 -419.60593">net gain</tspan></text>
<path
         id="path54"
         style="fill:#000000;fill-opacity:1;fill-rule:nonzero;stroke:none"
         d="m 135.871,361.223 -6.285,3.629 -0.805,-20.071 16.977,10.735 -6.285,3.625 25.515,44.191 -3.601,2.082 -25.516,-44.191 z" /><g
         transform="matrix(1,0,0,-1,0,612)"
         id="g56"><path
           id="path58"
           style="fill:#feffff;fill-opacity:1;fill-rule:nonzero;stroke:#000000;stroke-width:0.32517201;stroke-linecap:butt;stroke-linejoin:miter;stroke-miterlimit:4;stroke-dasharray:none;stroke-opacity:1"
           d="m 313.09,103.969 64.105,0 c 6.434,0 11.614,5.179 11.614,11.613 l 0,15.328 c 0,6.434 -5.18,11.613 -11.614,11.613 l -64.105,0 c -6.434,0 -11.613,-5.179 -11.613,-11.613 l 0,-15.328 c 0,-6.434 5.179,-11.613 11.613,-11.613 z" /></g><text
         id="text60"
         style="font-variant:normal;font-weight:bold;font-size:14.39999962px;font-family:'Arial Bold';-inkscape-font-specification:Arial-BoldMT;writing-mode:lr-tb;fill:#ff0000;fill-opacity:1;fill-rule:nonzero;stroke:none"
         transform="scale(1,-1)"
         x="340.33862"
         y="-493.71426"><tspan
           id="tspan62"
           y="-493.71426"
           x="340.33862 348.34503">2 </tspan><tspan
           id="tspan64"
           y="-475.71426"
           x="313.90112 323.49152 331.49792 337.09952 345.88351 353.88992 361.89633 366.73474">Pyruvate</tspan></text>
<g
         transform="matrix(1,0,0,-1,0,612)"
         id="g66"><path
           id="path68"
           style="fill:#feffff;fill-opacity:1;fill-rule:nonzero;stroke:#000000;stroke-width:0.32517201;stroke-linecap:butt;stroke-linejoin:miter;stroke-miterlimit:4;stroke-dasharray:none;stroke-opacity:1"
           d="m 15.949,103.969 64.102,0 c 6.437,0 11.613,5.179 11.613,11.613 l 0,15.328 c 0,6.434 -5.176,11.613 -11.613,11.613 l -64.102,0 c -6.437,0 -11.613,-5.179 -11.613,-11.613 l 0,-15.328 c 0,-6.434 5.176,-11.613 11.613,-11.613 z" /></g><text
         id="text70"
         style="font-variant:normal;font-weight:bold;font-size:14.39999962px;font-family:'Arial Bold';-inkscape-font-specification:Arial-BoldMT;writing-mode:lr-tb;fill:#ff0000;fill-opacity:1;fill-rule:nonzero;stroke:none"
         transform="scale(1,-1)"
         x="46.281303"
         y="-493.71426"><tspan
           id="tspan72"
           y="-493.71426"
           x="46.281303">2</tspan><tspan
           id="tspan74"
           y="-475.71426"
           x="35.875057 46.271858 55.055859">ATP</tspan></text>
<g
         transform="matrix(1,0,0,-1,0,612)"
         id="g76"><path
           id="path78"
           style="fill:#feffff;fill-opacity:1;fill-rule:nonzero;stroke:#000000;stroke-width:0.32517201;stroke-linecap:butt;stroke-linejoin:miter;stroke-miterlimit:4;stroke-dasharray:none;stroke-opacity:1"
           d="m 14.805,225.109 64.105,0 c 6.434,0 11.613,5.18 11.613,11.614 l 0,15.328 c 0,6.437 -5.179,11.613 -11.613,11.613 l -64.105,0 c -6.434,0 -11.614,-5.176 -11.614,-11.613 l 0,-15.328 c 0,-6.434 5.18,-11.614 11.614,-11.614 z" /></g><text
         id="text80"
         style="font-variant:normal;font-weight:bold;font-size:14.39999962px;font-family:'Arial Bold';-inkscape-font-specification:Arial-BoldMT;writing-mode:lr-tb;fill:#ff0000;fill-opacity:1;fill-rule:nonzero;stroke:none"
         transform="scale(1,-1)"
         x="40.56702"
         y="-373.71426"><tspan
           id="tspan82"
           y="-373.71426"
           x="40.56702">2</tspan><tspan
           id="tspan84"
           y="-355.71426"
           x="23.762335 34.159134 44.555935 54.952736">NADH</tspan></text>
<g
         transform="matrix(1,0,0,-1,0,612)"
         id="g86"><path
           id="path88"
           style="fill:#feffff;fill-opacity:1;fill-rule:nonzero;stroke:#000000;stroke-width:0.32517201;stroke-linecap:butt;stroke-linejoin:miter;stroke-miterlimit:4;stroke-dasharray:none;stroke-opacity:1"
           d="m 81.09,275.395 64.105,0 c 6.434,0 11.614,5.179 11.614,11.613 l 0,15.332 c 0,6.433 -5.18,11.613 -11.614,11.613 l -64.105,0 c -6.434,0 -11.613,-5.18 -11.613,-11.613 l 0,-15.332 c 0,-6.434 5.179,-11.613 11.613,-11.613 z" /></g><text
         id="text90"
         style="font-variant:normal;font-weight:bold;font-size:14.39999962px;font-family:'Arial Bold';-inkscape-font-specification:Arial-BoldMT;writing-mode:lr-tb;fill:#ff0000;fill-opacity:1;fill-rule:nonzero;stroke:none"
         transform="scale(1,-1)"
         x="69.714279"
         y="-315.42862"><tspan
           id="tspan92"
           y="-315.42862"
           x="69.714279 80.111084 88.117485 92.912682 101.69669 110.52388 114.51268 122.51908 130.52548">Cytoplasm</tspan></text>
<path
         id="path94"
         style="fill:#000000;fill-opacity:1;fill-rule:nonzero;stroke:none"
         d="m 201.84,314.191 -10.406,19.547 5.355,2.485 -10.094,65.265 3.071,1.426 10.093,-65.266 5.356,2.489 -3.375,-25.946 z" /><g
         transform="matrix(1,0,0,-1,0,612)"
         id="g96"><path
           id="path98"
           style="fill:#feffff;fill-opacity:1;fill-rule:nonzero;stroke:#000000;stroke-width:0.32517201;stroke-linecap:butt;stroke-linejoin:miter;stroke-miterlimit:4;stroke-dasharray:none;stroke-opacity:1"
           d="m 173.66,300.539 64.106,0 c 6.433,0 11.613,5.18 11.613,11.613 l 0,15.328 c 0,6.434 -5.18,11.614 -11.613,11.614 l -64.106,0 c -6.433,0 -11.613,-5.18 -11.613,-11.614 l 0,-15.328 c 0,-6.433 5.18,-11.613 11.613,-11.613 z" /></g><g
         transform="matrix(1,0,0,-1,0,612)"
         id="g100"><path
           id="path102"
           style="fill:#feffff;fill-opacity:1;fill-rule:nonzero;stroke:#000000;stroke-width:0.37793899;stroke-linecap:butt;stroke-linejoin:miter;stroke-miterlimit:4;stroke-dasharray:none;stroke-opacity:1"
           d="m 249.102,214.852 94.941,0 c 6.426,0 11.598,5.171 11.598,11.597 l 0,15.309 c 0,6.422 -5.172,11.597 -11.598,11.597 l -94.941,0 c -6.426,0 -11.598,-5.175 -11.598,-11.597 l 0,-15.309 c 0,-6.426 5.172,-11.597 11.598,-11.597 z" /></g><path
         id="path104"
         style="fill:#000000;fill-opacity:1;fill-rule:nonzero;stroke:none"
         d="m 327.418,464.984 4.16,0 0,-51.027 7.258,0 -9.336,-17.785 -9.336,17.785 7.254,0 0,51.027 z" /><path
         id="path106"
         style="fill:#000000;fill-opacity:1;fill-rule:nonzero;stroke:none"
         d="m 237.813,322.813 17.46,30.863 -2.464,1.453 -17.461,-30.863 -4.301,2.531 -0.551,-14.016 11.617,7.496 -4.3,2.536 z" /><path
         id="path108"
         style="fill:#000000;fill-opacity:1;fill-rule:nonzero;stroke:none"
         d="m 159.484,245.02 -36.082,36.082 -5.132,-5.129 -5.973,19.175 19.176,-5.972 -5.129,-5.133 36.082,-36.082 -2.942,-2.941 z" /><g
         transform="matrix(1,0,0,-1,0,612)"
         id="g110"><path
           id="path112"
           style="fill:none;stroke:#000000;stroke-width:4;stroke-linecap:butt;stroke-linejoin:miter;stroke-miterlimit:4;stroke-dasharray:none;stroke-opacity:1"
           d="m 160,365.145 96,1.14 13.715,-105.14" /></g><g
         transform="matrix(1,0,0,-1,0,612)"
         id="g114"><path
           id="path116"
           style="fill:#feffff;fill-opacity:1;fill-rule:nonzero;stroke:#000000;stroke-width:0.34513801;stroke-linecap:butt;stroke-linejoin:miter;stroke-miterlimit:4;stroke-dasharray:none;stroke-opacity:1"
           d="m 213.793,387.949 86.699,0 c 5.867,0 10.594,4.723 10.594,10.59 l 0,13.981 c 0,5.867 -4.727,10.593 -10.594,10.593 l -86.699,0 c -5.867,0 -10.594,-4.726 -10.594,-10.593 l 0,-13.981 c 0,-5.867 4.727,-10.59 10.594,-10.59 z" /></g><g
         transform="matrix(1,0,0,-1,0,612)"
         id="g118"><path
           id="path120"
           style="fill:#feffff;fill-opacity:1;fill-rule:nonzero;stroke:#000000;stroke-width:0.30043399;stroke-linecap:butt;stroke-linejoin:miter;stroke-miterlimit:4;stroke-dasharray:none;stroke-opacity:1"
           d="m 324.641,387.926 60.433,0 c 5.875,0 10.606,4.73 10.606,10.605 l 0,14 c 0,5.875 -4.731,10.602 -10.606,10.602 l -60.433,0 c -5.875,0 -10.606,-4.727 -10.606,-10.602 l 0,-14 c 0,-5.875 4.731,-10.605 10.606,-10.605 z" /></g><text
         id="text122"
         style="font-variant:normal;font-weight:bold;font-size:14.39999962px;font-family:'Arial Bold';-inkscape-font-specification:Arial-BoldMT;writing-mode:lr-tb;fill:#ff0000;fill-opacity:1;fill-rule:nonzero;stroke:none"
         transform="scale(1,-1)"
         x="321.14288"
         y="-203.42859"><tspan
           id="tspan124"
           y="-203.42859"
           x="321.14288 330.73328 335.5285 344.3125 352.36209 361.14609 369.93008">Ethanol</tspan></text>
<path
         id="path126"
         style="fill:#000000;fill-opacity:1;fill-rule:nonzero;stroke:none"
         d="m 295.348,353.941 -8.86,-92.402 -7.148,2.316 6.109,-35.183 12.281,29.219 -7.144,2.32 8.859,92.402 -4.097,1.328 z" /><path
         id="path128"
         style="fill:#000000;fill-opacity:1;fill-rule:nonzero;stroke:none"
         d="m 320.871,261.539 7.145,2.316 -6.106,-35.183 -12.281,29.219 7.144,2.32 -8.859,92.402 4.094,1.328 8.863,-92.402 z" /><g
         transform="matrix(1,0,0,-1,0,612)"
         id="g130"><path
           id="path132"
           style="fill:#feffff;fill-opacity:1;fill-rule:nonzero;stroke:#000000;stroke-width:0.32517201;stroke-linecap:butt;stroke-linejoin:miter;stroke-miterlimit:4;stroke-dasharray:none;stroke-opacity:1"
           d="m 351.949,308.539 64.102,0 c 6.437,0 11.613,5.18 11.613,11.613 l 0,15.328 c 0,6.434 -5.176,11.614 -11.613,11.614 l -64.102,0 c -6.437,0 -11.613,-5.18 -11.613,-11.614 l 0,-15.328 c 0,-6.433 5.176,-11.613 11.613,-11.613 z" /></g><text
         id="text134"
         style="font-variant:normal;font-weight:bold;font-size:14.39999962px;font-family:'Arial Bold';-inkscape-font-specification:Arial-BoldMT;writing-mode:lr-tb;fill:#ff0000;fill-opacity:1;fill-rule:nonzero;stroke:none"
         transform="scale(1,-1)"
         x="382.28131"
         y="-289.14285"><tspan
           id="tspan136"
           y="-289.14285"
           x="382.28131">2</tspan><tspan
           id="tspan138"
           y="-271.14285"
           x="371.87506 382.27185 391.05585">ATP</tspan></text>
<path
         id="path140"
         style="fill:#000000;fill-opacity:1;fill-rule:nonzero;stroke:none"
         d="m 341.531,352.844 17.461,-30.867 4.301,2.535 0.551,-14.016 -11.617,7.496 4.3,2.531 -17.461,30.868 2.465,1.453 z" /><text
         id="text142"
         style="font-variant:normal;font-weight:normal;font-size:11.21939945px;font-family:Arial;-inkscape-font-specification:ArialMT;writing-mode:lr-tb;fill:#000000;fill-opacity:1;fill-rule:nonzero;stroke:none"
         transform="matrix(0.64278759,-0.76604446,-0.76604446,-0.64278759,0,0)"
         x="-48.049385"
         y="-491.41632"><tspan
           id="tspan144"
           y="-491.41632"
           x="-48.049385 -41.811401 -35.573414 -32.465641 -29.357866 -23.119881 -16.881895 -14.391188">net gain</tspan></text>
<g
         transform="matrix(1,0,0,-1,0,612)"
         id="g146"><path
           id="path148"
           style="fill:#feffff;fill-opacity:1;fill-rule:nonzero;stroke:#000000;stroke-width:0.270473;stroke-linecap:butt;stroke-linejoin:miter;stroke-miterlimit:4;stroke-dasharray:0.270473, 2.163781;stroke-dashoffset:0;stroke-opacity:1"
           d="m 288.23,280.02 29.633,0 c 9.883,0 17.836,7.957 17.836,17.835 0,9.883 -7.953,17.836 -17.836,17.836 l -29.633,0 c -9.882,0 -17.835,-7.953 -17.835,-17.836 0,-9.878 7.953,-17.835 17.835,-17.835 z" /></g><text
         id="text150"
         style="font-variant:normal;font-weight:normal;font-size:12.34005356px;font-family:Arial;-inkscape-font-specification:ArialMT;writing-mode:lr-tb;fill:#000000;fill-opacity:1;fill-rule:nonzero;stroke:none"
         transform="scale(1,-1)"
         x="292.61996"
         y="-318.84384"><tspan
           id="tspan152"
           y="-318.84384"
           x="292.61996 298.78998 305.65106">can</tspan><tspan
           id="tspan154"
           y="-303.41879"
           x="280.2558 287.11685 291.2261 298.08719 304.94824 311.84634 318.01636">produce</tspan></text>
<path
         id="path156"
         style="fill:#000000;fill-opacity:1;fill-rule:nonzero;stroke:none"
         d="m 441.48,492.457 0,7.258 17.782,-9.336 -17.782,-9.336 0,7.254 -51.027,0 0,4.16 51.027,0 z" /><g
         transform="matrix(1,0,0,-1,0,612)"
         id="g158"><path
           id="path160"
           style="fill:#feffff;fill-opacity:1;fill-rule:nonzero;stroke:#000000;stroke-width:0.32517201;stroke-linecap:butt;stroke-linejoin:miter;stroke-miterlimit:4;stroke-dasharray:none;stroke-opacity:1"
           d="m 468.297,102.352 64.105,0 c 6.434,0 11.614,5.179 11.614,11.613 l 0,15.328 c 0,6.434 -5.18,11.613 -11.614,11.613 l -64.105,0 c -6.434,0 -11.613,-5.179 -11.613,-11.613 l 0,-15.328 c 0,-6.434 5.179,-11.613 11.613,-11.613 z" /></g><path
         id="path162"
         style="fill:#000000;fill-opacity:1;fill-rule:nonzero;stroke:none"
         d="m 87.145,290.23 17.847,-9.21 -5.941,-4.165 29.265,-41.796 -3.406,-2.387 -29.269,41.797 -5.942,-4.16 -2.554,19.921 z" /><g
         transform="matrix(1,0,0,-1,0,612)"
         id="g164"><path
           id="path166"
           style="fill:none;stroke:#000000;stroke-width:4;stroke-linecap:butt;stroke-linejoin:miter;stroke-miterlimit:4;stroke-dasharray:none;stroke-opacity:1"
           d="m 319.449,481.512 96,1.144 13.715,-105.144" /></g><g
         transform="matrix(1,0,0,-1,0,612)"
         id="g168"><path
           id="path170"
           style="fill:none;stroke:#000000;stroke-width:4;stroke-linecap:butt;stroke-linejoin:miter;stroke-miterlimit:4;stroke-dasharray:none;stroke-opacity:1"
           d="M 429.113,377.645 465.477,142.48" /></g><g
         transform="matrix(1,0,0,-1,0,612)"
         id="g172"><path
           id="path174"
           style="fill:none;stroke:#000000;stroke-width:4;stroke-linecap:butt;stroke-linejoin:miter;stroke-miterlimit:4;stroke-dasharray:none;stroke-opacity:1"
           d="m 124.449,375.203 69.297,103.899 128.695,2.437" /></g><text
         id="text176"
         style="font-variant:normal;font-weight:normal;font-size:14.39999962px;font-family:Arial;-inkscape-font-specification:ArialMT;writing-mode:lr-tb;fill:#000000;fill-opacity:1;fill-rule:nonzero;stroke:none"
         transform="scale(1,-1)"
         x="410.68369"
         y="-495.47626"><tspan
           id="tspan178"
           y="-495.47626"
           x="410.68369 413.88049">if</tspan><tspan
           id="tspan180"
           y="-477.47626"
           x="391.05243 399.05884 406.25885 413.45883 421.46524 429.47165">oxygen</tspan></text>
<text
         id="text182"
         style="font-variant:normal;font-weight:normal;font-size:14.39999962px;font-family:Arial;-inkscape-font-specification:ArialMT;writing-mode:lr-tb;fill:#000000;fill-opacity:1;fill-rule:nonzero;stroke:none"
         transform="matrix(0,-1,-1,0,0,0)"
         x="-452.92825"
         y="-335.04486"><tspan
           id="tspan184"
           y="-335.04486"
           x="-452.92825 -449.73145 -445.74265 -441.75385 -433.74744">if no</tspan><tspan
           id="tspan186"
           y="-317.04486"
           x="-462.547 -454.54059 -447.34061 -440.14059 -432.13419 -424.12781">oxygen</tspan></text>
<text
         id="text188"
         style="font-variant:normal;font-weight:normal;font-size:12.80000019px;font-family:Arial;-inkscape-font-specification:ArialMT;writing-mode:lr-tb;fill:#000000;fill-opacity:1;fill-rule:nonzero;stroke:none"
         transform="matrix(0.90630778,0.42261827,0.42261827,-0.90630778,0,0)"
         x="405.21109"
         y="-304.73654"><tspan
           id="tspan190"
           y="-304.73654"
           x="405.21109 412.32788 416.59027 423.70709 430.82388 437.9791 444.37909 451.49588">produces</tspan></text>
<text
         id="text192"
         style="font-variant:normal;font-weight:normal;font-size:14.39999962px;font-family:Arial;-inkscape-font-specification:ArialMT;writing-mode:lr-tb;fill:#000000;fill-opacity:1;fill-rule:nonzero;stroke:none"
         transform="matrix(0,-1,-1,0,0,0)"
         x="-517.88647"
         y="-194.43163"><tspan
           id="tspan194"
           y="-194.43163"
           x="-517.88647 -510.68649 -502.68008 -499.48328 -496.2865 -492.2977 -488.3089 -485.11209 -477.10568">splitting</tspan><tspan
           id="tspan196"
           y="-176.43163"
           x="-511.48804 -504.28806 -496.28165 -488.27524 -480.26886">sugar</tspan></text>
<path
         id="path198"
         style="fill:#feffff;fill-opacity:0.83653804;fill-rule:nonzero;stroke:none"
         d="m 188.863,356.813 51.645,0 c 7.762,0 14.012,-6.25 14.012,-14.012 0,-7.762 -6.25,-14.012 -14.012,-14.012 l -51.645,0 c -7.761,0 -14.011,6.25 -14.011,14.012 0,7.762 6.25,14.012 14.011,14.012 z" /><g
         transform="matrix(1,0,0,-1,0,612)"
         id="g200"><path
           id="path202"
           style="fill:none;stroke:#000000;stroke-width:0.264768;stroke-linecap:butt;stroke-linejoin:miter;stroke-miterlimit:4;stroke-dasharray:0.264768, 2.118146;stroke-dashoffset:0;stroke-opacity:1"
           d="m 188.863,255.188 51.645,0 c 7.762,0 14.012,6.25 14.012,14.011 0,7.762 -6.25,14.012 -14.012,14.012 l -51.645,0 c -7.761,0 -14.011,-6.25 -14.011,-14.012 0,-7.761 6.25,-14.011 14.011,-14.011 z" /></g><text
         id="text204"
         style="font-variant:normal;font-weight:normal;font-size:12.00012302px;font-family:Arial;-inkscape-font-specification:ArialMT;writing-mode:lr-tb;fill:#000000;fill-opacity:1;fill-rule:nonzero;stroke:none"
         transform="matrix(0.99990252,-0.01396219,-0.01396219,-0.99990252,0,0)"
         x="200.92337"
         y="-350.64642"><tspan
           id="tspan206"
           y="-350.64642"
           x="200.92337 204.24741 210.24747 216.91954">type</tspan><tspan
           id="tspan208"
           y="-335.64627"
           x="191.24358 197.91565 201.9117 208.58376 214.58382 221.25589 227.25595">process</tspan></text>
<text
         id="text210"
         style="font-variant:normal;font-weight:normal;font-size:14.40000057px;font-family:Arial;-inkscape-font-specification:ArialMT;writing-mode:lr-tb;fill:#000000;fill-opacity:1;fill-rule:nonzero;stroke:none"
         transform="matrix(0.49999999,0.86602541,0.86602541,-0.49999999,0,0)"
         x="382.95853"
         y="-65.474159"><tspan
           id="tspan212"
           y="-65.474159"
           x="382.95853 390.96494 398.16492 405.36493 413.37131 418.16653">occurs</tspan><tspan
           id="tspan214"
           y="-47.474159"
           x="398.5679 401.76468">in</tspan></text>
<text
         id="text216"
         style="font-variant:normal;font-weight:normal;font-size:14.40000057px;font-family:Arial;-inkscape-font-specification:ArialMT;writing-mode:lr-tb;fill:#000000;fill-opacity:1;fill-rule:nonzero;stroke:none"
         transform="matrix(0.9961947,-0.08715576,-0.08715576,-0.9961947,0,0)"
         x="251.80833"
         y="-163.35091"><tspan
           id="tspan218"
           y="-163.35091"
           x="251.80833 259.81473 267.01474 274.21472 282.22113 287.01633">occurs</tspan><tspan
           id="tspan220"
           y="-145.35091"
           x="267.41769 270.6145">in</tspan></text>
<path
         id="path222"
         style="fill:#000000;fill-opacity:1;fill-rule:nonzero;stroke:none"
         d="m 603.801,534.578 -13.52,-14.855 -2.48,6.82 -47.949,-17.453 -1.426,3.91 47.953,17.453 -2.484,6.817 19.906,-2.692 z" /><text
         id="text224"
         style="font-variant:normal;font-weight:normal;font-size:12.80000019px;font-family:Arial;-inkscape-font-specification:ArialMT;writing-mode:lr-tb;fill:#000000;fill-opacity:1;fill-rule:nonzero;stroke:none"
         transform="matrix(0.96592582,0.25881905,0.25881905,-0.96592582,0,0)"
         x="655.50281"
         y="-369.08551"><tspan
           id="tspan226"
           y="-369.08551"
           x="655.50281 662.61963 666.88202 673.99884 681.11566 688.27081 694.67084 701.78766">produces</tspan></text>
<g
         transform="matrix(1,0,0,-1,0,612)"
         id="g228"><path
           id="path230"
           style="fill:#feffff;fill-opacity:1;fill-rule:nonzero;stroke:#000000;stroke-width:0.32517201;stroke-linecap:butt;stroke-linejoin:miter;stroke-miterlimit:4;stroke-dasharray:none;stroke-opacity:1"
           d="m 615.375,42.551 64.105,0 c 6.434,0 11.614,5.179 11.614,11.613 l 0,15.328 c 0,6.434 -5.18,11.613 -11.614,11.613 l -64.105,0 c -6.434,0 -11.613,-5.179 -11.613,-11.613 l 0,-15.328 c 0,-6.434 5.179,-11.613 11.613,-11.613 z" /></g><text
         id="text232"
         style="font-variant:normal;font-weight:bold;font-size:14.39999962px;font-family:'Arial Bold';-inkscape-font-specification:Arial-BoldMT;writing-mode:lr-tb;fill:#ff0000;fill-opacity:1;fill-rule:nonzero;stroke:none"
         transform="scale(1,-1)"
         x="619"
         y="-555.13153"><tspan
           id="tspan234"
           y="-555.13153"
           x="619 627.00641 630.99518 641.39203 649.39838 657.40479 662.20001 670.24957">2 Acetyl</tspan><tspan
           id="tspan236"
           y="-537.13153"
           x="631.82501 642.2218 651.0058">CoA</tspan></text>
<path
         id="path238"
         style="fill:#000000;fill-opacity:1;fill-rule:nonzero;stroke:none"
         d="m 585.695,444.77 2.692,-37.125 14.855,25.214 -6.82,4.629 17.453,89.442 -3.91,2.656 -17.453,-89.445 -6.817,4.629 z" /><g
         transform="matrix(1,0,0,-1,0,612)"
         id="g240"><path
           id="path242"
           style="fill:#feffff;fill-opacity:1;fill-rule:nonzero;stroke:#000000;stroke-width:0.32517201;stroke-linecap:butt;stroke-linejoin:miter;stroke-miterlimit:4;stroke-dasharray:none;stroke-opacity:1"
           d="m 538.672,209.246 64.101,0 c 6.438,0 11.614,5.18 11.614,11.613 l 0,15.329 c 0,6.433 -5.176,11.613 -11.614,11.613 l -64.101,0 c -6.438,0 -11.617,-5.18 -11.617,-11.613 l 0,-15.329 c 0,-6.433 5.179,-11.613 11.617,-11.613 z" /></g><text
         id="text244"
         style="font-variant:normal;font-weight:normal;font-size:12.80000019px;font-family:Arial;-inkscape-font-specification:ArialMT;writing-mode:lr-tb;fill:#000000;fill-opacity:1;fill-rule:nonzero;stroke:none"
         transform="matrix(0.25881905,0.96592582,0.96592582,-0.25881905,0,0)"
         x="614.14362"
         y="473.578"><tspan
           id="tspan246"
           y="473.578"
           x="614.14362 621.26044 627.66046 634.77722 641.89404 645.43964 648.28125">used in</tspan></text>
<path
         id="path248"
         style="fill:#000000;fill-opacity:1;fill-rule:nonzero;stroke:none"
         d="m 665.395,393.629 17.785,-9.34 -17.785,-9.336 0,7.258 -51.028,0 0,4.16 51.028,0 0,7.258 z" /><text
         id="text250"
         style="font-variant:normal;font-weight:normal;font-size:14.39999962px;font-family:Arial;-inkscape-font-specification:ArialMT;writing-mode:lr-tb;fill:#000000;fill-opacity:1;fill-rule:nonzero;stroke:none"
         transform="scale(1,-1)"
         x="619.20374"
         y="-387.78897"><tspan
           id="tspan252"
           y="-387.78897"
           x="619.20374 627.21014 634.41016 641.61017 649.61658 654.41174">occurs</tspan><tspan
           id="tspan254"
           y="-369.78897"
           x="634.81311 638.00995">in</tspan></text>
<g
         transform="matrix(1,0,0,-1,0,612)"
         id="g256"><path
           id="path258"
           style="fill:#feffff;fill-opacity:1;fill-rule:nonzero;stroke:#000000;stroke-width:0.36194801;stroke-linecap:butt;stroke-linejoin:miter;stroke-miterlimit:4;stroke-dasharray:none;stroke-opacity:1"
           d="m 694.578,208.457 85.106,0 c 6.425,0 11.601,5.176 11.601,11.602 l 0,15.316 c 0,6.426 -5.176,11.602 -11.601,11.602 l -85.106,0 c -6.426,0 -11.601,-5.176 -11.601,-11.602 l 0,-15.316 c 0,-6.426 5.175,-11.602 11.601,-11.602 z" /></g><text
         id="text260"
         style="font-variant:normal;font-weight:bold;font-size:14.39999962px;font-family:'Arial Bold';-inkscape-font-specification:Arial-BoldMT;writing-mode:lr-tb;fill:#ff0000;fill-opacity:1;fill-rule:nonzero;stroke:none"
         transform="scale(1,-1)"
         x="692.33185"
         y="-381.24316"><tspan
           id="tspan262"
           y="-381.24316"
           x="692.33185 705.13342 709.12225 713.91742 722.70142 730.70782 739.49182 748.27582 757.05981 765.88702 771.48865 775.47742">mitochondria</tspan></text>
<path
         id="path264"
         style="fill:#000000;fill-opacity:1;fill-rule:nonzero;stroke:none"
         d="m 523.691,311.898 17.454,47.95 -3.911,1.422 -17.453,-47.95 -6.816,2.485 2.687,-19.907 14.86,13.52 -6.821,2.48 z" /><path
         id="path266"
         style="fill:#000000;fill-opacity:1;fill-rule:nonzero;stroke:none"
         d="m 564.23,291.27 -9.335,17.785 7.257,0 0,51.027 4.161,0 0,-51.027 7.253,0 -9.336,-17.785 z" /><path
         id="path268"
         style="fill:#000000;fill-opacity:1;fill-rule:nonzero;stroke:none"
         d="m 610.289,314.938 6.816,2.48 -2.691,-19.902 -14.855,13.515 6.82,2.485 -17.453,47.949 3.91,1.422 17.453,-47.949 z" /><g
         transform="matrix(1,0,0,-1,0,612)"
         id="g270"><path
           id="path272"
           style="fill:#feffff;fill-opacity:1;fill-rule:nonzero;stroke:#000000;stroke-width:0.27132401;stroke-linecap:butt;stroke-linejoin:miter;stroke-miterlimit:4;stroke-dasharray:none;stroke-opacity:1"
           d="m 482.832,319.707 37.461,0 c 6.441,0 11.629,5.188 11.629,11.633 l 0,15.348 c 0,6.445 -5.188,11.632 -11.629,11.632 l -37.461,0 c -6.441,0 -11.629,-5.187 -11.629,-11.632 l 0,-15.348 c 0,-6.445 5.188,-11.633 11.629,-11.633 z" /></g><g
         transform="matrix(1,0,0,-1,0,612)"
         id="g274"><path
           id="path276"
           style="fill:#feffff;fill-opacity:1;fill-rule:nonzero;stroke:#000000;stroke-width:0.27132401;stroke-linecap:butt;stroke-linejoin:miter;stroke-miterlimit:4;stroke-dasharray:none;stroke-opacity:1"
           d="m 549.906,319.934 37.461,0 c 6.442,0 11.629,5.183 11.629,11.629 l 0,15.351 c 0,6.441 -5.187,11.629 -11.629,11.629 l -37.461,0 c -6.441,0 -11.629,-5.188 -11.629,-11.629 l 0,-15.351 c 0,-6.446 5.188,-11.629 11.629,-11.629 z" /></g><g
         transform="matrix(1,0,0,-1,0,612)"
         id="g278"><path
           id="path280"
           style="fill:#feffff;fill-opacity:1;fill-rule:nonzero;stroke:#000000;stroke-width:0.23679601;stroke-linecap:butt;stroke-linejoin:miter;stroke-miterlimit:4;stroke-dasharray:none;stroke-opacity:1"
           d="m 612.324,313.449 22.926,0 c 6.449,0 11.641,5.192 11.641,11.641 l 0,15.363 c 0,6.449 -5.192,11.641 -11.641,11.641 l -22.926,0 c -6.449,0 -11.64,-5.192 -11.64,-11.641 l 0,-15.363 c 0,-6.449 5.191,-11.641 11.64,-11.641 z" /></g><text
         id="text282"
         style="font-variant:normal;font-weight:bold;font-size:14.39999962px;font-family:'Arial Bold';-inkscape-font-specification:Arial-BoldMT;writing-mode:lr-tb;fill:#ff0000;fill-opacity:1;fill-rule:nonzero;stroke:none"
         transform="scale(1,-1)"
         x="619.23987"
         y="-284.18729"><tspan
           id="tspan284"
           y="-284.18729"
           x="619.23987">2</tspan><tspan
           id="tspan286"
           y="-266.18729"
           x="608.83362 619.23041 628.0144">ATP</tspan></text>
<path
         id="path288"
         style="fill:#000000;fill-opacity:1;fill-rule:nonzero;stroke:none"
         d="m 535.488,204.281 -2.691,-19.902 -14.856,13.516 6.817,2.484 -17.453,47.949 3.91,1.422 17.453,-47.949 6.82,2.48 z" /><path
         id="path290"
         style="fill:#000000;fill-opacity:1;fill-rule:nonzero;stroke:none"
         d="m 566.195,249.137 -3.91,1.422 -17.453,-47.95 -6.816,2.481 2.691,-19.902 14.856,13.515 -6.821,2.481 17.453,47.953 z" /><g
         transform="matrix(1,0,0,-1,0,612)"
         id="g292"><path
           id="path294"
           style="fill:#feffff;fill-opacity:1;fill-rule:nonzero;stroke:#000000;stroke-width:0.32517201;stroke-linecap:butt;stroke-linejoin:miter;stroke-miterlimit:4;stroke-dasharray:none;stroke-opacity:1"
           d="m 504.684,430.566 64.105,0 c 6.434,0 11.613,5.18 11.613,11.614 l 0,15.328 c 0,6.433 -5.179,11.613 -11.613,11.613 l -64.105,0 c -6.434,0 -11.614,-5.18 -11.614,-11.613 l 0,-15.328 c 0,-6.434 5.18,-11.614 11.614,-11.614 z" /></g><text
         id="text296"
         style="font-variant:normal;font-weight:bold;font-size:14.39999962px;font-family:'Arial Bold';-inkscape-font-specification:Arial-BoldMT;writing-mode:lr-tb;fill:#ff0000;fill-opacity:1;fill-rule:nonzero;stroke:none"
         transform="scale(1,-1)"
         x="523.802"
         y="-158.81186"><tspan
           id="tspan298"
           y="-158.81186"
           x="523.802 533.3924 542.17639">ETC</tspan></text>
<text
         id="text300"
         style="font-variant:normal;font-weight:bold;font-size:32px;font-family:'Arial Bold';-inkscape-font-specification:Arial-BoldMT;writing-mode:lr-tb;fill:#000000;fill-opacity:1;fill-rule:nonzero;stroke:none"
         transform="scale(1,-1)"
         x="593.96967"
         y="-200.41425"><tspan
           id="tspan302"
           y="-200.41425"
           x="593.96967 617.07367 634.86566 647.31366 666.83368 686.3537 695.21765 713.0097">Aerobic </tspan><tspan
           id="tspan304"
           y="-160.41425"
           x="593.96967 615.28168 627.72968 647.24969 665.04169 682.83368 700.62567">Process</tspan></text>
<path
         id="path306"
         style="fill:#000000;fill-opacity:1;fill-rule:nonzero;stroke:none"
         d="m 599.051,105.379 3.629,6.281 -44.192,25.516 2.082,3.601 44.192,-25.511 3.629,6.285 10.73,-16.981 -20.07,0.809 z" /><g
         transform="matrix(1,0,0,-1,0,612)"
         id="g308"><path
           id="path310"
           style="fill:#feffff;fill-opacity:1;fill-rule:nonzero;stroke:#000000;stroke-width:0.23679601;stroke-linecap:butt;stroke-linejoin:miter;stroke-miterlimit:4;stroke-dasharray:none;stroke-opacity:1"
           d="m 630.91,486.387 22.926,0 c 6.449,0 11.641,5.191 11.641,11.64 l 0,15.364 c 0,6.449 -5.192,11.64 -11.641,11.64 l -22.926,0 c -6.449,0 -11.64,-5.191 -11.64,-11.64 l 0,-15.364 c 0,-6.449 5.191,-11.64 11.64,-11.64 z" /></g><path
         id="path312"
         style="fill:#feffff;fill-opacity:0.83653804;fill-rule:nonzero;stroke:none"
         d="m 532.719,356.785 61.976,0 c 9.313,0 16.813,-7.5 16.813,-16.812 0,-9.317 -7.5,-16.813 -16.813,-16.813 l -61.976,0 c -9.317,0 -16.813,7.496 -16.813,16.813 0,9.312 7.496,16.812 16.813,16.812 z" /><g
         transform="matrix(1,0,0,-1,0,612)"
         id="g314"><path
           id="path316"
           style="fill:none;stroke:#000000;stroke-width:0.31771901;stroke-linecap:butt;stroke-linejoin:miter;stroke-miterlimit:4;stroke-dasharray:0.317719, 2.541749;stroke-dashoffset:0;stroke-opacity:1"
           d="m 532.719,255.215 61.976,0 c 9.313,0 16.813,7.5 16.813,16.812 0,9.317 -7.5,16.813 -16.813,16.813 l -61.976,0 c -9.317,0 -16.813,-7.496 -16.813,-16.813 0,-9.312 7.496,-16.812 16.813,-16.812 z" /></g><text
         id="text318"
         style="font-variant:normal;font-weight:normal;font-size:14.39999962px;font-family:Arial;-inkscape-font-specification:ArialMT;writing-mode:lr-tb;fill:#000000;fill-opacity:1;fill-rule:nonzero;stroke:none"
         transform="scale(1,-1)"
         x="531.38171"
         y="-337.44971"><tspan
           id="tspan320"
           y="-337.44971"
           x="531.38171 539.38806 544.18329 552.1897 560.19611 568.24567 575.44568 583.45209">produces</tspan></text>
<path
         id="path322"
         style="fill:#feffff;fill-opacity:0.79807697;fill-rule:nonzero;stroke:none"
         d="m 515.746,242.863 36.926,0 c 9.324,0 16.836,-7.511 16.836,-16.836 0,-9.328 -7.512,-16.836 -16.836,-16.836 l -36.926,0 c -9.324,0 -16.832,7.508 -16.832,16.836 0,9.325 7.508,16.836 16.832,16.836 z" /><g
         transform="matrix(1,0,0,-1,0,612)"
         id="g324"><path
           id="path326"
           style="fill:none;stroke:#000000;stroke-width:0.27320099;stroke-linecap:butt;stroke-linejoin:miter;stroke-miterlimit:4;stroke-dasharray:0.273201, 2.185605;stroke-dashoffset:0;stroke-opacity:1"
           d="m 515.746,369.137 36.926,0 c 9.324,0 16.836,7.511 16.836,16.836 0,9.328 -7.512,16.836 -16.836,16.836 l -36.926,0 c -9.324,0 -16.832,-7.508 -16.832,-16.836 0,-9.325 7.508,-16.836 16.832,-16.836 z" /></g><text
         id="text328"
         style="font-variant:normal;font-weight:normal;font-size:14.39999962px;font-family:Arial;-inkscape-font-specification:ArialMT;writing-mode:lr-tb;fill:#000000;fill-opacity:1;fill-rule:nonzero;stroke:none"
         transform="scale(1,-1)"
         x="509.48114"
         y="-219.44765"><tspan
           id="tspan330"
           y="-219.44765"
           x="509.48114 517.48755 524.68756 532.69397 540.70038 544.68915 547.88593">used in</tspan></text>
<text
         id="text332"
         style="font-variant:normal;font-weight:normal;font-size:14.40000057px;font-family:Arial;-inkscape-font-specification:ArialMT;writing-mode:lr-tb;fill:#000000;fill-opacity:1;fill-rule:nonzero;stroke:none"
         transform="matrix(0.93969262,-0.34202013,-0.34202013,-0.93969262,0,0)"
         x="462.12656"
         y="-297.97931"><tspan
           id="tspan334"
           y="-297.97931"
           x="462.12656 470.13297 474.92816 482.93457 490.94098 498.99057 506.19058 514.19696">produces</tspan></text>
</g></g></svg>