<?xml version="1.0" encoding="UTF-8" standalone="no"?>
<!-- Created with Inkscape (http://www.inkscape.org/) -->

<svg
   xmlns:dc="http://purl.org/dc/elements/1.1/"
   xmlns:cc="http://creativecommons.org/ns#"
   xmlns:rdf="http://www.w3.org/1999/02/22-rdf-syntax-ns#"
   xmlns:svg="http://www.w3.org/2000/svg"
   xmlns="http://www.w3.org/2000/svg"
   xmlns:xlink="http://www.w3.org/1999/xlink"
   xmlns:sodipodi="http://sodipodi.sourceforge.net/DTD/sodipodi-0.dtd"
   xmlns:inkscape="http://www.inkscape.org/namespaces/inkscape"
   width="744.09448819"
   height="1052.3622047"
   id="svg10061"
   version="1.1"
   inkscape:version="0.48.4 r9939"
   sodipodi:docname="fermentationtube.svg">
  <defs
     id="defs10063">
    <filter
       id="filter3952"
       color-interpolation-filters="sRGB">
      <feGaussianBlur
         id="feGaussianBlur3954"
         stdDeviation="0.15357269" />
    </filter>
    <filter
       id="filter3982"
       color-interpolation-filters="sRGB">
      <feGaussianBlur
         id="feGaussianBlur3984"
         stdDeviation="1.819617" />
    </filter>
    <filter
       id="filter4003"
       height="1.1983"
       width="1.248"
       y="-0.099170998"
       x="-0.124"
       color-interpolation-filters="sRGB">
      <feGaussianBlur
         id="feGaussianBlur4005"
         stdDeviation="3.0391778" />
    </filter>
    <radialGradient
       inkscape:collect="always"
       xlink:href="#linearGradient4009"
       id="radialGradient11643"
       gradientUnits="userSpaceOnUse"
       gradientTransform="matrix(2.2447,0.017486,-0.0073404,0.94231,-511.96,4.923)"
       cx="415.54999"
       cy="180.05"
       r="33.841" />
    <linearGradient
       id="linearGradient4009">
      <stop
         id="stop4011"
         stop-color="#6e3204"
         offset="0" />
      <stop
         id="stop4013"
         stop-color="#a05a2c"
         stop-opacity="0"
         offset="1" />
    </linearGradient>
    <filter
       id="filter4021"
       height="1.2807"
       width="1.0922"
       y="-0.14037"
       x="-0.046084002"
       color-interpolation-filters="sRGB">
      <feGaussianBlur
         id="feGaussianBlur4023"
         stdDeviation="1.29962" />
    </filter>
    <filter
       id="filter12207"
       color-interpolation-filters="sRGB">
      <feGaussianBlur
         id="feGaussianBlur12209"
         stdDeviation="0.15357269" />
    </filter>
    <filter
       id="filter12211"
       color-interpolation-filters="sRGB">
      <feGaussianBlur
         id="feGaussianBlur12213"
         stdDeviation="1.819617" />
    </filter>
    <filter
       id="filter12215"
       height="1.1983"
       width="1.248"
       y="-0.099170998"
       x="-0.124"
       color-interpolation-filters="sRGB">
      <feGaussianBlur
         id="feGaussianBlur12217"
         stdDeviation="3.0391778" />
    </filter>
    <filter
       id="filter12219"
       height="1.2807"
       width="1.0922"
       y="-0.14037"
       x="-0.046084002"
       color-interpolation-filters="sRGB">
      <feGaussianBlur
         id="feGaussianBlur12221"
         stdDeviation="1.29962" />
    </filter>
  </defs>
  <sodipodi:namedview
     id="base"
     pagecolor="#ffffff"
     bordercolor="#666666"
     borderopacity="1.0"
     inkscape:pageopacity="0.0"
     inkscape:pageshadow="2"
     inkscape:zoom="1.4"
     inkscape:cx="112.81024"
     inkscape:cy="674.5845"
     inkscape:document-units="px"
     inkscape:current-layer="layer1"
     showgrid="false"
     inkscape:window-width="1920"
     inkscape:window-height="1030"
     inkscape:window-x="0"
     inkscape:window-y="0"
     inkscape:window-maximized="1" />
  <metadata
     id="metadata10066">
    <rdf:RDF>
      <cc:Work
         rdf:about="">
        <dc:format>image/svg+xml</dc:format>
        <dc:type
           rdf:resource="http://purl.org/dc/dcmitype/StillImage" />
        <dc:title />
      </cc:Work>
    </rdf:RDF>
  </metadata>
  <g
     inkscape:label="Layer 1"
     inkscape:groupmode="layer"
     id="layer1">
    <path
       sodipodi:type="arc"
       style="fill:#ffffff;fill-opacity:1;stroke:#000000;stroke-width:2;stroke-miterlimit:4;stroke-opacity:1;stroke-dasharray:none;stroke-dashoffset:0"
       id="path10078"
       sodipodi:cx="319.71329"
       sodipodi:cy="670.01947"
       sodipodi:rx="72.225906"
       sodipodi:ry="11.616755"
       d="m 391.93919,670.01947 a 72.225906,11.616755 0 1 1 -144.45181,0 72.225906,11.616755 0 1 1 144.45181,0 z"
       transform="translate(47.47717,-89.903577)" />
    <path
       style="fill:#ffffff;fill-opacity:1;stroke:#000000;stroke-width:2;stroke-miterlimit:4;stroke-opacity:1;stroke-dasharray:none;stroke-dashoffset:0"
       d="m 399.84979,187.75974 c -23.73991,0.52415 -25.48872,25.63367 -25.54464,37.48661 l -0.35269,6.25 c -0.0138,2.22182 0.19914,6.52442 0.19198,11.25 -0.26489,13.10733 0.30329,13.95558 -0.0134,20.91964 l 2.33597,203.00427 c -0.11051,6.2383 -14.20227,-17.83471 -29.49618,-12.49107 -13.2138,4.61685 -7.60061,3.15184 -16.95613,9.12429 -9.28276,5.926 -8.87916,13.3312 -12.56021,7.14279 -6.07128,-10.20678 -19.56814,-26.93319 -19.56814,-26.93319 -13.03403,9.59163 -49.13797,18.28937 -48.09631,20.2162 2.08333,3.85366 27.92096,70.77537 50.44107,87.02346 26.29543,18.97195 33.35681,20.05578 57.54681,20.93923 22.37056,0.81701 61.03387,8.20892 68.05839,-36.76664 6.14324,-39.33311 1.51481,-86.86949 1.64086,-93.25635 l -2.33598,-172.9692 c -0.14193,-5.94419 -0.64639,-28.77533 -1.01415,-38.98914 -0.35715,-9.90648 -0.27696,-41.9509 -24.27679,-41.9509 z"
       id="path10071"
       inkscape:connector-curvature="0"
       sodipodi:nodetypes="ccccccssssssssccssc" />
    <path
       sodipodi:type="arc"
       style="fill:#ffffff;fill-opacity:1;stroke:#000000;stroke-width:2;stroke-miterlimit:4;stroke-opacity:1;stroke-dasharray:none;stroke-dashoffset:0"
       id="path10069"
       sodipodi:cx="217.14285"
       sodipodi:cy="385.21933"
       sodipodi:rx="28.571428"
       sodipodi:ry="12.857142"
       d="m 245.71428,385.21933 a 28.571428,12.857142 0 1 1 -57.14286,0 28.571428,12.857142 0 1 1 57.14286,0 z"
       transform="matrix(0.88135409,-0.29209158,0.32537081,0.83043019,-41.607892,198.78612)" />
    <g
       transform="matrix(0.77096182,-0.37089172,0.4287884,0.72271606,-113.23295,510.80702)"
       id="g12170">
      <g
         id="g4025"
         transform="translate(-137.79987,-169.16336)">
        <path
           id="path3929"
           d="m 399.61,184.74 9.75,82.938 c 15.694,8.9932 33.37,10.477 54.188,0 l 11.656,-82.688 c -1.7881,4.6012 -8.1798,6.2115 -12.531,7.7188 -17.975,4.4565 -37.703,4.9581 -55.188,-1.6875 -2.7392,-1.0858 -6.6431,-3.3632 -7.875,-6.2812 z"
           inkscape:connector-curvature="0"
           style="fill:#a05a2c" />
        <path
           id="path3933"
           d="m 433.89,170.79 c -11.51,0.70516 -24.733,1.0343 -33.78,9.1202 -3.4061,5.0543 3.2659,9.3152 7.3369,10.929 17.485,6.6456 37.205,6.1378 55.18,1.6814 4.9731,-1.7226 12.641,-3.5828 13.018,-9.8844 -1.797,-6.2297 -9.5354,-7.9444 -14.98,-9.6042 -8.743,-2.0823 -17.816,-2.4214 -26.775,-2.2418 z"
           inkscape:connector-curvature="0"
           style="fill:#a05a2c" />
        <path
           id="path3922"
           d="m 399.25,182.76 c -0.70672,4.1202 4.689,7.4569 8.1875,8.8438 17.485,6.6456 37.213,6.144 55.188,1.6875 4.9731,-1.7226 12.623,-3.5733 13,-9.875 -0.0409,-0.14166 -0.10934,-0.26921 -0.15625,-0.40625 -1.171,5.4031 -8.1814,7.1351 -12.844,8.75 -17.975,4.4565 -37.703,4.9581 -55.188,-1.6875 -3.0532,-1.2103 -7.5571,-3.9062 -8.1875,-7.3125 z"
           inkscape:connector-curvature="0"
           style="opacity:0.98276002;fill:#784421;filter:url(#filter3952)" />
        <path
           id="path3960"
           d="m 403.29,197.77 c 2.6827,22.987 5.3981,45.97 8.1038,68.954 9.1197,4.9824 19.725,7.6272 30.074,6.1495 7.0516,-0.86231 13.887,-3.1525 20.245,-6.2457 3.5681,-25.059 7.0632,-50.13 10.599,-75.195 -6.1041,3.4851 -13.147,4.7254 -20.001,5.8434 -5.4555,0.91596 -10.963,1.1895 -16.496,1.0789 -5.7746,0.0606 -11.552,-0.3935 -17.202,-1.6276 -5.5415,-1.2444 -11.219,-2.62 -16.103,-5.6433 0.2605,2.2283 0.52101,4.4567 0.78152,6.685 z m 28.243,75.453 c -0.18047,0.60609 0.74518,-0.46548 0,0 z m -0.61921,0.18636 c -0.28127,1.0683 1.3689,-0.73031 0,0 z m -0.69134,0.72141 c 1.0138,-0.35938 0.76889,-1.1251 0,0 z"
           inkscape:connector-curvature="0"
           style="opacity:0.98276002;fill:#784421;filter:url(#filter3982)" />
        <path
           id="path3986"
           d="m 408.02,200.09 c -0.14157,0.81876 0.43124,1.3517 0.58376,2.0255 0.33983,0.89608 -0.58118,1.6069 -6.3e-4,2.4231 0.21998,1.482 0.12318,2.9991 0.66129,4.4246 -0.1603,0.88058 -0.18489,2.0304 0.31261,2.6812 0.62248,0.96494 -0.30446,2.0167 0.22845,2.9998 0.58577,1.1139 -0.36492,2.4558 0.5651,3.4567 0.27303,0.8808 0.12668,1.7946 0.26499,2.6858 -0.15477,0.76412 0.47915,1.5509 0.0115,2.322 -0.0215,1.1184 1.0324,1.9567 0.60718,3.1201 0.25577,0.83144 0.0871,1.7032 0.27358,2.561 -0.26003,0.93997 0.005,1.8785 0.50193,2.6933 0.0655,1.3051 0.11019,2.543 0.26757,3.8475 -0.26003,0.93998 0.005,1.8785 0.50193,2.6933 0.0655,1.3051 0.11019,2.543 0.26757,3.8475 -0.26003,0.93998 0.005,1.8785 0.50193,2.6933 0.0655,1.3051 0.11018,2.543 0.26757,3.8475 -0.26003,0.93998 0.005,1.8785 0.50193,2.6933 0.0655,1.3051 0.11018,2.543 0.26757,3.8475 -0.22637,0.9437 -0.0208,2.0239 0.52598,2.7594 0.1933,0.65063 -0.0361,1.2978 -0.18036,1.8516 0.63589,1.5255 0.10395,3.2426 0.75147,4.7673 -0.0229,1.1572 1.3986,1.2412 2.1522,1.7494 1.1081,0.0805 1.8424,1.0366 2.946,1.1124 0.94365,0.63337 2.2053,0.19505 3.0177,1.0758 0.7608,0.33583 1.7423,0.12496 2.4588,0.6673 1.2789,0.35727 2.5916,0.57418 3.8956,0.83563 1.2298,0.10042 2.4189,0.19272 3.6371,0.16232 1.2543,0.52781 2.6314,0.13893 3.9196,-0.0421 1.7252,0.33118 3.5093,-0.0153 5.1761,-0.49898 0.90479,-0.26273 1.8659,-0.18893 2.7594,-0.32463 1.266,-0.58901 2.7058,-0.60329 3.9437,-1.2745 1.651,-0.39051 3.3212,-1.0042 4.8875,-1.5811 0.58105,-0.24021 1.2667,-0.59262 1.9478,-0.75748 0.5523,-0.44626 1.0641,-0.70705 1.2504,-1.4308 0.55382,-1.0249 0.0223,-2.3213 0.68534,-3.3485 -0.39853,-0.83139 -0.43394,-2.157 0.34266,-2.6932 0.0382,-1.0606 0.0582,-2.1557 0.41481,-3.1501 -0.0397,-1.2638 0.32284,-2.4669 0.17625,-3.7101 0.3173,-0.88575 0.45093,-1.7463 0.38475,-2.6932 0.3173,-0.88575 0.45093,-1.7463 0.38475,-2.6932 0.34331,-0.80191 0.33581,-1.542 0.5056,-2.391 0.29754,-1.0694 0.004,-2.2172 0.61668,-3.205 0.41092,-2.9524 0.82858,-5.8787 1.1963,-8.8432 0.4545,-1.0592 -0.0753,-2.3111 0.57713,-3.3425 -0.14237,-1.1285 0.26243,-2.2287 0.37272,-3.3185 0.004,-1.2005 0.33912,-2.3376 0.19429,-3.5238 0.3173,-0.88575 0.45093,-1.7464 0.38475,-2.6932 0.33948,-0.8879 0.40626,-1.7246 0.3607,-2.6752 0.24038,-0.73775 0.34407,-1.2714 0.32272,-2.0491 0.7543,-1.8226 0.83051,-3.7976 1.1062,-5.7352 0.2445,-1.0618 0.45096,-2.1176 0.0902,-3.1562 0.0236,-0.98268 0.93335,-1.6277 0.71876,-2.6509 -0.0549,-0.61636 0.27995,-1.389 0.29121,-1.8819 -0.85606,1.016 -2.3205,0.25543 -3.3,1.0241 -0.96392,0.24981 -1.9608,0.183 -2.8681,0.67121 -1.7684,0.30181 -3.6637,0.52 -5.2478,1.1493 -1.149,0.0742 -2.421,0.18669 -3.6676,0.17929 -1.4362,0.69688 -3.1411,0.14002 -4.599,0.73343 -1.1133,0.30132 -2.2215,-0.17041 -3.3602,0.0959 -4.1755,0.24968 -8.3979,0.0646 -12.553,0.15056 -1.0931,0.51058 -2.1061,-0.60727 -3.1201,-0.0241 -1.2699,0.21907 -2.3476,-0.76722 -3.6245,-0.65801 -1.0982,-0.16476 -2.1972,-0.0444 -3.2598,-0.0172 -1.0904,-0.30341 -2.0859,-0.76806 -3.2394,-0.8758 -1.1857,-0.40768 -2.4476,-0.51831 -3.6366,-0.90377 -0.90032,-0.16474 -1.722,-0.54075 -2.6517,-0.59916 -1.2084,-0.47217 -2.4862,-0.67834 -3.6792,-1.1663 l 0.006,0.0601 z m 46.098,1.2264 c -0.0865,-0.49695 -0.15355,-0.44719 0,0 z m -22.297,2.5971 c -0.142,0.25938 1.4761,-1.4803 0,0 z m -0.47492,69.189 c -0.29848,-1.0343 -0.45908,-1.2265 0,0 z m 4.112,-0.88372 c 0.36714,1.1273 0.4287,1.05 0,0 z m -0.75146,1.3346 c -0.14201,0.25938 1.4761,-1.4803 0,0 z m 4.4246,0 c -0.142,0.25938 1.4761,-1.4803 0,0 z"
           inkscape:connector-curvature="0"
           style="opacity:0.63793;fill:#502d16;filter:url(#filter4003)" />
        <path
           id="path4007"
           d="m 434.29,172.32 c -10.187,0.62412 -21.89,0.91539 -29.898,8.072 -3.0146,4.4734 2.8906,8.2445 6.4936,9.6728 15.475,5.8818 32.929,5.4324 48.838,1.4881 4.4016,-1.5246 11.188,-3.171 11.522,-8.7484 -1.5905,-5.5137 -8.4394,-7.0313 -13.258,-8.5004 -7.7381,-1.843 -15.768,-2.143 -23.697,-1.9842 z"
           style="fill:url(#radialGradient11643);filter:url(#filter4021)"
           inkscape:connector-curvature="0" />
      </g>
      <path
         id="path4180"
         d="m 261.81013,15.57634 9.75,82.938 c 15.694,8.9932 33.37,10.477 54.188,0 l 11.656,-82.688 c -1.7881,4.6012 -8.1798,6.2115 -12.531,7.7188 -17.975,4.4565 -37.703,4.9581 -55.188,-1.6875 -2.7392,-1.0858 -6.6431,-3.3632 -7.875,-6.2812 z"
         inkscape:connector-curvature="0"
         style="fill:#a05a2c" />
      <path
         id="path4182"
         d="m 296.09013,1.62634 c -11.51,0.70516 -24.733,1.0343 -33.78,9.1202 -3.4061,5.0543 3.2659,9.3152 7.3369,10.929 17.485,6.6456 37.205,6.1378 55.18,1.6814 4.9731,-1.7226 12.641,-3.5828 13.018,-9.8844 -1.797,-6.2297 -9.5354,-7.9444 -14.98,-9.6042 -8.743,-2.0823 -17.816,-2.4214 -26.775,-2.2418 z"
         inkscape:connector-curvature="0"
         style="fill:#a05a2c" />
      <path
         id="path4184"
         d="m 261.45013,13.59634 c -0.70672,4.1202 4.689,7.4569 8.1875,8.8438 17.485,6.6456 37.213,6.144 55.188,1.6875 4.9731,-1.7226 12.623,-3.5733 13,-9.875 -0.0409,-0.14166 -0.10934,-0.26921 -0.15625,-0.40625 -1.171,5.4031 -8.1814,7.1351 -12.844,8.75 -17.975,4.4565 -37.703,4.9581 -55.188,-1.6875 -3.0532,-1.2103 -7.5571,-3.9062 -8.1875,-7.3125 z"
         inkscape:connector-curvature="0"
         style="opacity:0.98276002;fill:#784421;filter:url(#filter3952)" />
      <path
         id="path4186"
         d="m 540.82,195.56 c 2.6827,22.987 5.3981,45.97 8.1038,68.954 9.1197,4.9824 19.725,7.6272 30.074,6.1495 7.0516,-0.86231 13.887,-3.1525 20.245,-6.2457 3.5681,-25.059 7.0632,-50.13 10.599,-75.195 -6.1041,3.4851 -13.147,4.7254 -20.001,5.8434 -5.4555,0.91596 -10.963,1.1895 -16.496,1.0789 -5.7746,0.0606 -11.552,-0.3935 -17.202,-1.6276 -5.5415,-1.2444 -11.219,-2.62 -16.103,-5.6433 0.2605,2.2283 0.52101,4.4567 0.78152,6.685 z m 28.243,75.453 c -0.18047,0.60609 0.74518,-0.46548 0,0 z m -0.61921,0.18636 c -0.28127,1.0683 1.3689,-0.73031 0,0 z m -0.69134,0.72141 c 1.0138,-0.35938 0.76889,-1.1251 0,0 z"
         transform="matrix(1,0,0,1.0251,-275.32987,-173.88046)"
         inkscape:connector-curvature="0"
         style="opacity:0.98276002;fill:#784421;filter:url(#filter3982)" />
      <path
         id="path4188"
         d="m 542.67,193.85 c -0.14157,0.81876 0.43124,1.3517 0.58376,2.0255 0.33983,0.89608 -0.58118,1.6069 -6.3e-4,2.4231 0.21998,1.482 0.12318,2.9991 0.66129,4.4246 -0.1603,0.88058 -0.18489,2.0304 0.31261,2.6812 0.62248,0.96494 -0.30446,2.0167 0.22845,2.9998 0.58577,1.1139 -0.36492,2.4558 0.5651,3.4567 0.27303,0.8808 0.12668,1.7946 0.26499,2.6858 -0.15477,0.76412 0.47915,1.5509 0.0115,2.322 -0.0215,1.1184 1.0324,1.9567 0.60718,3.1201 0.25577,0.83144 0.0871,1.7032 0.27358,2.561 -0.26003,0.93997 0.005,1.8785 0.50193,2.6933 0.0655,1.3051 0.11019,2.543 0.26757,3.8475 -0.26003,0.93998 0.005,1.8785 0.50193,2.6933 0.0655,1.3051 0.11019,2.543 0.26757,3.8475 -0.26003,0.93998 0.005,1.8785 0.50193,2.6933 0.0655,1.3051 0.11018,2.543 0.26757,3.8475 -0.26003,0.93998 0.005,1.8785 0.50193,2.6933 0.0655,1.3051 0.11018,2.543 0.26757,3.8475 -0.22637,0.9437 -0.0208,2.0239 0.52598,2.7594 0.1933,0.65063 -0.0361,1.2978 -0.18036,1.8516 0.63589,1.5255 0.10395,3.2426 0.75147,4.7673 -0.0229,1.1572 1.3986,1.2412 2.1522,1.7494 1.1081,0.0805 1.8424,1.0366 2.946,1.1124 0.94365,0.63337 2.2053,0.19505 3.0177,1.0758 0.7608,0.33583 1.7423,0.12496 2.4588,0.6673 1.2789,0.35727 2.5916,0.57418 3.8956,0.83563 1.2298,0.10042 2.4189,0.19272 3.6371,0.16232 1.2543,0.52781 2.6314,0.13893 3.9196,-0.0421 1.7252,0.33118 3.5093,-0.0153 5.1761,-0.49898 0.90479,-0.26273 1.8659,-0.18893 2.7594,-0.32463 1.266,-0.58901 2.7058,-0.60329 3.9437,-1.2745 1.651,-0.39051 3.3212,-1.0042 4.8875,-1.5811 0.58105,-0.24021 1.2667,-0.59262 1.9478,-0.75748 0.5523,-0.44626 1.0641,-0.70705 1.2504,-1.4308 0.55382,-1.0249 0.0223,-2.3213 0.68534,-3.3485 -0.39853,-0.83139 -0.43394,-2.157 0.34266,-2.6932 0.0382,-1.0606 0.0582,-2.1557 0.41481,-3.1501 -0.0397,-1.2638 0.32284,-2.4669 0.17625,-3.7101 0.3173,-0.88575 0.45093,-1.7463 0.38475,-2.6932 0.3173,-0.88575 0.45093,-1.7463 0.38475,-2.6932 0.34331,-0.80191 0.33581,-1.542 0.5056,-2.391 0.29754,-1.0694 0.004,-2.2172 0.61668,-3.205 0.41092,-2.9524 0.82858,-5.8787 1.1963,-8.8432 0.4545,-1.0592 -0.0753,-2.3111 0.57713,-3.3425 -0.14237,-1.1285 0.26243,-2.2287 0.37272,-3.3185 0.004,-1.2005 0.33912,-2.3376 0.19429,-3.5238 0.3173,-0.88575 0.45093,-1.7464 0.38475,-2.6932 0.33948,-0.8879 0.40626,-1.7246 0.3607,-2.6752 0.24038,-0.73775 0.34407,-1.2714 0.32272,-2.0491 0.7543,-1.8226 0.83051,-3.7976 1.1062,-5.7352 0.2445,-1.0618 0.45096,-2.1176 0.0902,-3.1562 0.0236,-0.98268 0.93335,-1.6277 0.71876,-2.6509 -0.0549,-0.61636 0.27995,-1.389 0.29121,-1.8819 -0.85606,1.016 -2.3205,0.25543 -3.3,1.0241 -0.96392,0.24981 -1.9608,0.183 -2.8681,0.67121 -1.7684,0.30181 -3.6637,0.52 -5.2478,1.1493 -1.149,0.0742 -2.421,0.18669 -3.6676,0.17929 -1.4362,0.69688 -3.1411,0.14002 -4.599,0.73343 -1.1133,0.30132 -2.2215,-0.17041 -3.3602,0.0959 -4.1755,0.24968 -8.3979,0.0646 -12.553,0.15056 -1.0931,0.51058 -2.1061,-0.60727 -3.1201,-0.0241 -1.2699,0.21907 -2.3476,-0.76722 -3.6245,-0.65801 -1.0982,-0.16476 -2.1972,-0.0444 -3.2598,-0.0172 -1.0904,-0.30341 -2.0859,-0.76806 -3.2394,-0.8758 -1.1857,-0.40768 -2.4476,-0.51831 -3.6366,-0.90377 -0.90032,-0.16474 -1.722,-0.54075 -2.6517,-0.59916 -1.2084,-0.47217 -2.4862,-0.67834 -3.6792,-1.1663 l 0.006,0.0601 z m 46.098,1.2264 c -0.0865,-0.49695 -0.15355,-0.44719 0,0 z m -22.297,2.5971 c -0.142,0.25938 1.4761,-1.4803 0,0 z m -0.47492,69.189 c -0.29848,-1.0343 -0.45908,-1.2265 0,0 z m 4.112,-0.88372 c 0.36714,1.1273 0.4287,1.05 0,0 z m -0.75146,1.3346 c -0.14201,0.25938 1.4761,-1.4803 0,0 z m 4.4246,0 c -0.142,0.25938 1.4761,-1.4803 0,0 z"
         transform="matrix(1,0,0,1.1697,-275.32987,-206.07966)"
         style="opacity:0.63793;fill:#000000;fill-opacity:1;filter:url(#filter4003)"
         inkscape:connector-curvature="0" />
      <path
         id="path4190"
         d="m 571.82,170.11 c -10.187,0.62412 -21.89,0.91539 -29.898,8.072 -3.0146,4.4734 2.8906,8.2445 6.4936,9.6728 15.475,5.8818 32.929,5.4324 48.838,1.4881 4.4016,-1.5246 11.188,-3.171 11.522,-8.7484 -1.5905,-5.5137 -8.4394,-7.0313 -13.258,-8.5004 -7.7381,-1.843 -15.768,-2.143 -23.697,-1.9842 z"
         transform="matrix(1.0233,0,0,1.0202,-289.61487,-170.32836)"
         style="fill:#000000;fill-opacity:0.625;filter:url(#filter4021)"
         inkscape:connector-curvature="0" />
    </g>
  </g>
</svg>
