<?xml version="1.0" encoding="UTF-8" standalone="no"?>
<svg
   xmlns:dc="http://purl.org/dc/elements/1.1/"
   xmlns:cc="http://creativecommons.org/ns#"
   xmlns:rdf="http://www.w3.org/1999/02/22-rdf-syntax-ns#"
   xmlns:svg="http://www.w3.org/2000/svg"
   xmlns="http://www.w3.org/2000/svg"
   xmlns:xlink="http://www.w3.org/1999/xlink"
   version="1.1"
   id="svg17361"
   viewBox="0 0 545 618"
   height="618"
   width="545">
  <title
     id="title21131">Amoeba</title>
  <defs
     id="defs17363">
    <linearGradient
       gradientUnits="userSpaceOnUse"
       y2="961.05505"
       x2="-132.53282"
       y1="1005.3706"
       x1="-782.87469"
       id="linearGradient11226"
       xlink:href="#linearGradient11218" />
    <linearGradient
       id="linearGradient11218">
      <stop
         id="stop11220"
         offset="0"
         style="stop-color:#57c6d3;stop-opacity:0.84313726" />
      <stop
         id="stop11222"
         offset="1"
         style="stop-color:#57a6c9;stop-opacity:0;" />
    </linearGradient>
  </defs>
  <metadata
     id="metadata17366">
    <rdf:RDF>
      <cc:Work
         rdf:about="">
        <dc:format>image/svg+xml</dc:format>
        <dc:type
           rdf:resource="http://purl.org/dc/dcmitype/StillImage" />
        <dc:title>Amoeba</dc:title>
        <cc:license
           rdf:resource="http://creativecommons.org/licenses/by-nc-sa/3.0/" />
        <dc:contributor>
          <cc:Agent>
            <dc:title />
          </cc:Agent>
        </dc:contributor>
        <dc:creator>
          <cc:Agent>
            <dc:title>Jeremy Seto</dc:title>
          </cc:Agent>
        </dc:creator>
        <dc:description>Amoeba diagram</dc:description>
        <dc:rights>
          <cc:Agent>
            <dc:title>CC-BY-NC-SA</dc:title>
          </cc:Agent>
        </dc:rights>
        <dc:subject>
          <rdf:Bag>
            <rdf:li>protist</rdf:li>
            <rdf:li>protozoa</rdf:li>
            <rdf:li>amoeba</rdf:li>
            <rdf:li>labeling</rdf:li>
          </rdf:Bag>
        </dc:subject>
        <dc:date>2018-07-01</dc:date>
      </cc:Work>
      <cc:License
         rdf:about="http://creativecommons.org/licenses/by-nc-sa/3.0/">
        <cc:permits
           rdf:resource="http://creativecommons.org/ns#Reproduction" />
        <cc:permits
           rdf:resource="http://creativecommons.org/ns#Distribution" />
        <cc:requires
           rdf:resource="http://creativecommons.org/ns#Notice" />
        <cc:requires
           rdf:resource="http://creativecommons.org/ns#Attribution" />
        <cc:prohibits
           rdf:resource="http://creativecommons.org/ns#CommercialUse" />
        <cc:permits
           rdf:resource="http://creativecommons.org/ns#DerivativeWorks" />
        <cc:requires
           rdf:resource="http://creativecommons.org/ns#ShareAlike" />
      </cc:License>
    </rdf:RDF>
  </metadata>
  <g
     transform="translate(0,-434.3622)"
     id="layer1">
    <rect
       y="435.81927"
       x="1.2798477"
       height="615.26312"
       width="542.44031"
       id="rect19160"
       style="opacity:1;fill:#ffffff;fill-opacity:1;stroke:#ffffff;stroke-width:2.15969419;stroke-miterlimit:4;stroke-dasharray:none;stroke-dashoffset:0;stroke-opacity:0.99215686" />
    <g
       transform="matrix(-0.57949836,0.57407682,-0.57407682,-0.57949836,588.86146,1600.0595)"
       id="g13701">
      <g
         id="g12589">
        <path
           style="fill:#ffffff;fill-opacity:1;fill-rule:evenodd;stroke:#ffffff;stroke-width:2;stroke-linecap:butt;stroke-linejoin:miter;stroke-miterlimit:4;stroke-dasharray:none;stroke-opacity:1"
           d="m -431.78918,1140.6959 c 2.79417,2.1675 5.07112,5.341 5.99067,8.7556 1.08141,4.0157 0.55314,8.5537 -0.92164,12.4422 -1.4381,3.7918 -4.24982,7.0906 -7.37313,9.6772 -5.02618,4.1625 -12.36734,4.7394 -17.5112,8.7556 -3.34873,2.6146 -7.0354,5.6196 -8.29477,9.6772 -1.28222,4.1312 0,10.1381 1.38246,12.903 1.38246,2.7649 12.44216,9.6773 15.20709,9.6773 2.76492,0 20.27612,-3.2258 23.04104,-3.6866 2.76493,-0.4608 17.86878,-8.4992 26.72761,-12.903 13.28753,-6.6054 25.87009,-14.7229 39.6306,-20.2761 4.91177,-1.9822 10.13806,-4.6082 15.20709,-4.6082 5.06903,0 19.36874,3.8256 29.03172,2.7649 5.93921,-0.652 15.20711,-3.6866 17.05037,-5.5298 1.84331,-1.8433 8.7556,-10.1381 7.83396,-13.8247 -0.92165,-3.6865 -1.57732,-17.5152 -5.89242,-22.5282 -4.01091,-4.6597 -28.54813,-18.1944 -26.17979,-30.3216 2.44816,-12.5359 17.85623,-11.6323 22.46444,-13.4756 4.60821,-1.8433 23.76781,4.1106 24.68947,0.8848 0.92163,-3.2257 -24.77212,-19.2596 -18.74114,-29.0932 5.64601,-9.2058 21.67313,5.5652 32.23033,3.2913 5.38289,-1.1594 11.40682,-3.6008 14.28545,-8.2948 2.89537,-4.7213 -2.19157,-12.009 0.92164,-16.5895 3.70882,-5.4569 12.55988,-4.521 17.97202,-8.2948 5.8803,-4.1003 15.42623,-8.0418 15.20709,-15.2071 -0.163,-5.3297 -6.87143,-9.0755 -11.98135,-10.5989 -12.83437,-3.8264 -31.88176,16.6279 -39.75762,5.7958 -7.61228,-10.46949 18.79642,-27.75421 17.1774,-34.82751 -1.13929,-4.97741 -27.74502,17.64142 -34.29724,7.90905 -4.83944,-7.18826 15.1772,-12.61051 14.94276,-21.27285 -0.21015,-7.76512 -6.79474,-16.7688 -14.40685,-18.31705 -8.33006,-1.69427 -16.05205,6.57663 -22.34304,12.29362 -5.40563,4.91243 -28.16578,45.57034 -43.31318,34.88346 -15.50566,-10.93967 19.55845,-34.78424 18.77389,-53.74436 -0.51897,-12.54179 -4.69828,-27.70361 -15.31328,-34.40344 -8.28629,-5.23001 -20.31764,-2.94784 -29.38635,0.76351 -2.91693,1.19375 -5.05002,3.90878 -6.91231,6.4515 -2.11108,2.88241 -2.63373,6.69959 -4.60821,9.67724 -1.0222,1.54155 -1.87456,3.776 -3.68656,4.14738 -5.65449,1.15892 -11.58291,-3.29526 -15.66792,-7.37313 -6.61356,-6.60199 -8.83604,-16.54557 -11.98134,-25.34515 -2.77122,-7.75301 -4.60821,-21.65858 -5.99067,-23.96269 -1.38246,-2.3041 -2.3041,-5.06903 -5.52985,-9.21641 -3.22575,-4.14739 -12.50512,-9.83168 -19.35448,-13.82463 -6.29329,-3.66878 -13.71978,-5.22769 -19.8153,-9.21642 -10.2899,-6.73341 -18.19767,-16.55657 -27.64925,-24.42351 -5.55016,-4.61962 -10.22445,-11.00753 -17.05037,-13.3638 -3.62999,-1.25305 -8.46872,-2.33096 -11.52053,0 -2.78368,2.12616 -2.29999,6.66628 -2.76492,10.13806 -0.61166,4.56743 -1.38093,9.42819 0,13.82462 1.85157,5.89479 9.35721,9.15439 10.59888,15.20709 0.91415,4.45615 -0.87875,9.22433 -2.76493,13.36381 -1.68151,3.6903 -5.20454,6.25043 -7.37313,9.67724 -2.68188,4.23791 -6.75271,8.35113 -6.91231,13.3638 -0.21888,6.87461 5.06903,17.5112 8.29477,18.89366 3.22575,1.38246 15.38582,16.25872 23.04105,24.42351 6.31868,6.73927 13.40116,12.84806 18.89365,20.27612 2.74131,3.70735 5.71968,7.52749 6.91232,11.98134 0.87412,3.26434 1.91762,7.35548 0,10.13806 -1.95878,2.84231 -6.3168,4.47587 -9.67724,3.68657 -5.29117,-1.24279 -7.93991,-7.53072 -11.0597,-11.98134 -2.87874,-4.10674 -3.90043,-9.35371 -6.91232,-13.36381 -2.54479,-3.3882 -5.44614,-6.82146 -9.21641,-8.7556 -2.92172,-1.49884 -6.98441,0.036 -9.67724,-1.84328 -2.20349,-1.53776 -3.19357,-4.40027 -4.14739,-6.91231 -0.88762,-2.3377 0.0137,-5.29869 -1.38246,-7.37314 -1.42746,-2.1209 -4.01733,-3.36592 -6.4515,-4.14739 -2.92875,-0.94025 -6.14045,-0.46934 -9.21641,-0.46082 -2.76918,0.008 -5.62317,1.18944 -8.29478,0.46082 -2.13729,-0.5829 -3.84754,-2.24517 -5.52985,-3.68656 -1.89888,-1.62695 -3.45528,-3.61974 -5.06903,-5.52985 -1.13028,-1.33785 -1.74963,-3.20483 -3.22575,-4.14739 -1.72727,-1.10293 -3.9586,-1.64824 -5.99067,-1.38247 -2.92974,0.38317 -5.54464,2.27944 -7.83395,4.14739 -2.62105,2.13863 -5.30914,4.64983 -6.4515,7.83396 -1.24492,3.47001 0,7.37313 0,11.0597 0,3.53296 1.35201,7.33485 0,10.59888 -1.24697,3.01046 -3.68531,6.46035 -6.91231,6.91231 -6.26478,0.87741 -11.41529,-5.57714 -16.58955,-9.21641 -5.34238,-3.75751 -9.80243,-8.63468 -14.74627,-12.90299 -4.12387,-3.56038 -8.27571,-7.08843 -12.44217,-10.59888 -4.58735,-3.86507 -8.35649,-9.05434 -13.82462,-11.52052 -5.52521,-2.49193 -11.94194,-2.15196 -17.97202,-2.76493 -3.06021,-0.31108 -6.27834,-1.37148 -9.21642,-0.46082 -3.87354,1.2006 -7.41095,4.01015 -9.67723,7.37314 -1.95749,2.90477 -2.47351,6.64742 -2.76493,10.13805 -0.3853,4.61514 -0.60076,9.63956 1.38246,13.82463 2.23262,4.71137 7.23776,7.51367 11.0597,11.0597 6.38779,5.92665 13.47191,11.07623 19.8153,17.05038 5.2983,4.98989 9.689,10.92221 15.20709,15.66791 5.00918,4.30802 10.97702,7.384 16.12873,11.52052 1.61141,1.29387 3.94576,2.18987 4.60821,4.14739 0.80156,2.36858 0.31274,5.53492 -1.38246,7.37313 -2.37465,2.57498 -7.83395,2.76493 -10.13806,2.76493 -2.3041,0 -10.82276,-1.4947 -15.66791,0.46082 -2.11756,0.85466 -4.18135,2.50428 -5.06903,4.60821 -1.73269,4.1067 -1.05348,9.17175 0.46082,13.36385 2.04593,5.6639 5.83006,10.5766 11.0597,14.2854 5.22964,3.7088 17.05038,5.9907 19.35448,6.4515 2.3041,0.4608 9.91038,2.5011 13.82463,5.069 3.91425,2.5679 9.14638,5.6009 9.21642,9.6773 0.07,4.0764 -2.6756,6.519 -7.37314,8.2947 -4.69754,1.7757 -14.13184,-2.3041 -18.89366,-2.3041 -4.76182,0 -13.26009,-0.5929 -20.27612,0 -7.01603,0.5929 -15.23045,1.5055 -21.65858,3.6866 -6.42813,2.1811 -13.18799,5.2109 -16.58955,8.7556 -3.40156,3.5447 -3.86557,3.8711 -4.60821,9.6772 -0.74264,5.8061 0.59576,18.0118 4.60821,23.9627 4.01245,5.9509 9.73025,8.2833 15.66791,10.1381 4.69413,1.4663 9.84278,0.8359 14.74627,0.4608 6.69887,-0.5125 17.05037,-2.3041 19.8153,-3.6866 2.76493,-1.3825 13.24113,-5.8265 17.97201,-4.6082 4.73088,1.2183 7.59179,3.7954 7.83396,7.3732 0.56054,8.2815 -9.22753,14.1181 -15.66791,19.3544 -9.38161,7.6276 -26.23284,6.1063 -32.25747,16.5896 -4.36868,7.6018 -4.45179,19.722 1.38247,26.2668 7.98185,8.9539 23.71699,8.3229 35.48321,5.9907 18.47914,-3.6627 33.21826,-18.1808 47.92537,-29.9534 13.99154,-11.1998 23.90049,-26.9187 37.78731,-38.2481 6.10733,-4.9826 11.95242,-13.4517 19.8153,-12.903 6.29939,0.4396 11.53668,6.757 14.28545,12.4421 2.87829,5.9529 0.92164,17.9721 0.92164,19.8153 0,1.8433 -10.13806,17.5112 -10.13806,22.1194 0,4.6083 -2.55568,16.4779 3.68657,17.9721 6.24225,1.4942 27.64925,-10.1381 29.49254,-12.4422 1.84328,-2.3041 11.98134,-10.1381 14.28544,-11.0597 2.30411,-0.9216 9.22931,-1.9578 13.82463,-1.3825 3.568,0.4467 7.29684,1.4826 10.13806,3.6866 z"
           id="path12587" />
        <path
           id="path9808"
           d="m -431.78918,1140.6959 c 2.79417,2.1675 5.07112,5.341 5.99067,8.7556 1.08141,4.0157 0.55314,8.5537 -0.92164,12.4422 -1.4381,3.7918 -4.24982,7.0906 -7.37313,9.6772 -5.02618,4.1625 -12.36734,4.7394 -17.5112,8.7556 -3.34873,2.6146 -7.0354,5.6196 -8.29477,9.6772 -1.28222,4.1312 0,10.1381 1.38246,12.903 1.38246,2.7649 12.44216,9.6773 15.20709,9.6773 2.76492,0 20.27612,-3.2258 23.04104,-3.6866 2.76493,-0.4608 17.86878,-8.4992 26.72761,-12.903 13.28753,-6.6054 25.87009,-14.7229 39.6306,-20.2761 4.91177,-1.9822 10.13806,-4.6082 15.20709,-4.6082 5.06903,0 19.36874,3.8256 29.03172,2.7649 5.93921,-0.652 15.20711,-3.6866 17.05037,-5.5298 1.84331,-1.8433 8.7556,-10.1381 7.83396,-13.8247 -0.92165,-3.6865 -1.57732,-17.5152 -5.89242,-22.5282 -4.01091,-4.6597 -28.54813,-18.1944 -26.17979,-30.3216 2.44816,-12.5359 17.85623,-11.6323 22.46444,-13.4756 4.60821,-1.8433 23.76781,4.1106 24.68947,0.8848 0.92163,-3.2257 -24.77212,-19.2596 -18.74114,-29.0932 5.64601,-9.2058 21.67313,5.5652 32.23033,3.2913 5.38289,-1.1594 11.40682,-3.6008 14.28545,-8.2948 2.89537,-4.7213 -2.19157,-12.009 0.92164,-16.5895 3.70882,-5.4569 12.55988,-4.521 17.97202,-8.2948 5.8803,-4.1003 15.42623,-8.0418 15.20709,-15.2071 -0.163,-5.3297 -6.87143,-9.0755 -11.98135,-10.5989 -12.83437,-3.8264 -31.88176,16.6279 -39.75762,5.7958 -7.61228,-10.46949 18.79642,-27.75421 17.1774,-34.82751 -1.13929,-4.97741 -27.74502,17.64142 -34.29724,7.90905 -4.83944,-7.18826 15.1772,-12.61051 14.94276,-21.27285 -0.21015,-7.76512 -6.79474,-16.7688 -14.40685,-18.31705 -8.33006,-1.69427 -16.05205,6.57663 -22.34304,12.29362 -5.40563,4.91243 -28.16578,45.57034 -43.31318,34.88346 -15.50566,-10.93967 19.55845,-34.78424 18.77389,-53.74436 -0.51897,-12.54179 -4.69828,-27.70361 -15.31328,-34.40344 -8.28629,-5.23001 -20.31764,-2.94784 -29.38635,0.76351 -2.91693,1.19375 -5.05002,3.90878 -6.91231,6.4515 -2.11108,2.88241 -2.63373,6.69959 -4.60821,9.67724 -1.0222,1.54155 -1.87456,3.776 -3.68656,4.14738 -5.65449,1.15892 -11.58291,-3.29526 -15.66792,-7.37313 -6.61356,-6.60199 -8.83604,-16.54557 -11.98134,-25.34515 -2.77122,-7.75301 -4.60821,-21.65858 -5.99067,-23.96269 -1.38246,-2.3041 -2.3041,-5.06903 -5.52985,-9.21641 -3.22575,-4.14739 -12.50512,-9.83168 -19.35448,-13.82463 -6.29329,-3.66878 -13.71978,-5.22769 -19.8153,-9.21642 -10.2899,-6.73341 -18.19767,-16.55657 -27.64925,-24.42351 -5.55016,-4.61962 -10.22445,-11.00753 -17.05037,-13.3638 -3.62999,-1.25305 -8.46872,-2.33096 -11.52053,0 -2.78368,2.12616 -2.29999,6.66628 -2.76492,10.13806 -0.61166,4.56743 -1.38093,9.42819 0,13.82462 1.85157,5.89479 9.35721,9.15439 10.59888,15.20709 0.91415,4.45615 -0.87875,9.22433 -2.76493,13.36381 -1.68151,3.6903 -5.20454,6.25043 -7.37313,9.67724 -2.68188,4.23791 -6.75271,8.35113 -6.91231,13.3638 -0.21888,6.87461 5.06903,17.5112 8.29477,18.89366 3.22575,1.38246 15.38582,16.25872 23.04105,24.42351 6.31868,6.73927 13.40116,12.84806 18.89365,20.27612 2.74131,3.70735 5.71968,7.52749 6.91232,11.98134 0.87412,3.26434 1.91762,7.35548 0,10.13806 -1.95878,2.84231 -6.3168,4.47587 -9.67724,3.68657 -5.29117,-1.24279 -7.93991,-7.53072 -11.0597,-11.98134 -2.87874,-4.10674 -3.90043,-9.35371 -6.91232,-13.36381 -2.54479,-3.3882 -5.44614,-6.82146 -9.21641,-8.7556 -2.92172,-1.49884 -6.98441,0.036 -9.67724,-1.84328 -2.20349,-1.53776 -3.19357,-4.40027 -4.14739,-6.91231 -0.88762,-2.3377 0.0137,-5.29869 -1.38246,-7.37314 -1.42746,-2.1209 -4.01733,-3.36592 -6.4515,-4.14739 -2.92875,-0.94025 -6.14045,-0.46934 -9.21641,-0.46082 -2.76918,0.008 -5.62317,1.18944 -8.29478,0.46082 -2.13729,-0.5829 -3.84754,-2.24517 -5.52985,-3.68656 -1.89888,-1.62695 -3.45528,-3.61974 -5.06903,-5.52985 -1.13028,-1.33785 -1.74963,-3.20483 -3.22575,-4.14739 -1.72727,-1.10293 -3.9586,-1.64824 -5.99067,-1.38247 -2.92974,0.38317 -5.54464,2.27944 -7.83395,4.14739 -2.62105,2.13863 -5.30914,4.64983 -6.4515,7.83396 -1.24492,3.47001 0,7.37313 0,11.0597 0,3.53296 1.35201,7.33485 0,10.59888 -1.24697,3.01046 -3.68531,6.46035 -6.91231,6.91231 -6.26478,0.87741 -11.41529,-5.57714 -16.58955,-9.21641 -5.34238,-3.75751 -9.80243,-8.63468 -14.74627,-12.90299 -4.12387,-3.56038 -8.27571,-7.08843 -12.44217,-10.59888 -4.58735,-3.86507 -8.35649,-9.05434 -13.82462,-11.52052 -5.52521,-2.49193 -11.94194,-2.15196 -17.97202,-2.76493 -3.06021,-0.31108 -6.27834,-1.37148 -9.21642,-0.46082 -3.87354,1.2006 -7.41095,4.01015 -9.67723,7.37314 -1.95749,2.90477 -2.47351,6.64742 -2.76493,10.13805 -0.3853,4.61514 -0.60076,9.63956 1.38246,13.82463 2.23262,4.71137 7.23776,7.51367 11.0597,11.0597 6.38779,5.92665 13.47191,11.07623 19.8153,17.05038 5.2983,4.98989 9.689,10.92221 15.20709,15.66791 5.00918,4.30802 10.97702,7.384 16.12873,11.52052 1.61141,1.29387 3.94576,2.18987 4.60821,4.14739 0.80156,2.36858 0.31274,5.53492 -1.38246,7.37313 -2.37465,2.57498 -7.83395,2.76493 -10.13806,2.76493 -2.3041,0 -10.82276,-1.4947 -15.66791,0.46082 -2.11756,0.85466 -4.18135,2.50428 -5.06903,4.60821 -1.73269,4.1067 -1.05348,9.17175 0.46082,13.36385 2.04593,5.6639 5.83006,10.5766 11.0597,14.2854 5.22964,3.7088 17.05038,5.9907 19.35448,6.4515 2.3041,0.4608 9.91038,2.5011 13.82463,5.069 3.91425,2.5679 9.14638,5.6009 9.21642,9.6773 0.07,4.0764 -2.6756,6.519 -7.37314,8.2947 -4.69754,1.7757 -14.13184,-2.3041 -18.89366,-2.3041 -4.76182,0 -13.26009,-0.5929 -20.27612,0 -7.01603,0.5929 -15.23045,1.5055 -21.65858,3.6866 -6.42813,2.1811 -13.18799,5.2109 -16.58955,8.7556 -3.40156,3.5447 -3.86557,3.8711 -4.60821,9.6772 -0.74264,5.8061 0.59576,18.0118 4.60821,23.9627 4.01245,5.9509 9.73025,8.2833 15.66791,10.1381 4.69413,1.4663 9.84278,0.8359 14.74627,0.4608 6.69887,-0.5125 17.05037,-2.3041 19.8153,-3.6866 2.76493,-1.3825 13.24113,-5.8265 17.97201,-4.6082 4.73088,1.2183 7.59179,3.7954 7.83396,7.3732 0.56054,8.2815 -9.22753,14.1181 -15.66791,19.3544 -9.38161,7.6276 -26.23284,6.1063 -32.25747,16.5896 -4.36868,7.6018 -4.45179,19.722 1.38247,26.2668 7.98185,8.9539 23.71699,8.3229 35.48321,5.9907 18.47914,-3.6627 33.21826,-18.1808 47.92537,-29.9534 13.99154,-11.1998 23.90049,-26.9187 37.78731,-38.2481 6.10733,-4.9826 11.95242,-13.4517 19.8153,-12.903 6.29939,0.4396 11.53668,6.757 14.28545,12.4421 2.87829,5.9529 0.92164,17.9721 0.92164,19.8153 0,1.8433 -10.13806,17.5112 -10.13806,22.1194 0,4.6083 -2.55568,16.4779 3.68657,17.9721 6.24225,1.4942 27.64925,-10.1381 29.49254,-12.4422 1.84328,-2.3041 11.98134,-10.1381 14.28544,-11.0597 2.30411,-0.9216 9.22931,-1.9578 13.82463,-1.3825 3.568,0.4467 7.29684,1.4826 10.13806,3.6866 z"
           style="fill:url(#linearGradient11226);fill-opacity:1;fill-rule:evenodd;stroke:#009ad8;stroke-width:2;stroke-linecap:butt;stroke-linejoin:miter;stroke-miterlimit:4;stroke-dasharray:none;stroke-opacity:1" />
        <g
           style="stroke:#009ad8;stroke-opacity:1"
           transform="matrix(0.52491737,0.11246322,-0.11246322,0.52491737,-190.63035,294.42332)"
           id="g11162">
          <ellipse
             style="opacity:1;fill:#ffffff;fill-opacity:0.58823529;stroke:#009ad8;stroke-width:1.6713202;stroke-miterlimit:4;stroke-dasharray:none;stroke-dashoffset:0;stroke-opacity:1"
             id="path5205"
             cx="757.4801"
             cy="1112.6554"
             rx="17.364113"
             ry="16.206505"
             transform="matrix(0.80928518,0.58741595,-0.58741595,0.80928518,0,0)" />
          <path
             style="opacity:1;fill:#ffffff;fill-opacity:0.58823529;stroke:#009ad8;stroke-width:1.6713202;stroke-miterlimit:4;stroke-dasharray:none;stroke-dashoffset:0;stroke-opacity:1"
             d="m -33.557952,1321.8895 c 2.327878,-3.4103 2.931254,-4.9223 4.645969,-7.4442 2.566516,-3.7747 8.933508,-26.3151 8.933508,-26.3151 l -2.713611,26.9008 c 0,0 1.946198,15.129 -7.647304,13.2904 -6.198296,-1.188 -3.305771,-4.5465 -3.218562,-6.4319 z"
             id="path5207" />
          <path
             style="opacity:1;fill:#ffffff;fill-opacity:0.58823529;stroke:#009ad8;stroke-width:1.6713202;stroke-miterlimit:4;stroke-dasharray:none;stroke-dashoffset:0;stroke-opacity:1"
             d="m -49.143456,1324.3749 c -0.530288,-3.1906 1.069374,-2.4653 1.626196,-6.474 1.286861,-9.2652 -3.611869,-24.467 -3.611869,-24.467 l 9.328921,25.2932 c 0,0 2.388963,3.054 0.659174,5.9616 -2.569729,1.9312 -7.451251,2.6896 -8.002422,-0.3138 z"
             id="path5210" />
          <path
             style="opacity:1;fill:#ffffff;fill-opacity:0.58823529;stroke:#009ad8;stroke-width:1.6713202;stroke-miterlimit:4;stroke-dasharray:none;stroke-dashoffset:0;stroke-opacity:1"
             d="m -19.423224,1346.8172 c -1.988708,-1.1201 0.752906,-4.6458 0.144887,-6.8459 -0.512227,-1.8531 -4.148969,-3.2966 -3.066194,-4.8853 1.92191,-2.8201 4.840793,0.8326 8.251824,0.9387 5.8057312,0.1803 19.1012664,-1.1993 19.1012664,-1.1993 0,0 -13.6732641,5.2875 -18.8418804,7.9809 -2.903867,1.5132 -2.736779,5.6177 -5.589903,4.0109 z"
             id="path5213" />
          <path
             style="opacity:1;fill:#ffffff;fill-opacity:0.58823529;stroke:#009ad8;stroke-width:1.6713202;stroke-miterlimit:4;stroke-dasharray:none;stroke-dashoffset:0;stroke-opacity:1"
             d="m 6.6186217,1380.1186 c 0,0 -20.2847557,-4.3425 -27.7627447,-7.7213 -2.363773,-1.0681 -5.946202,-3.5352 -6.967583,-5.9196 -1.021414,-2.3842 1.435581,-4.4073 1.435581,-4.4073 0,0 2.89053,-4.6558 5.466084,-4.3481 2.575562,0.3076 2.687662,3.6102 3.872002,5.9179 4.026742,7.8464 23.9566607,16.4784 23.9566607,16.4784 z"
             id="path5215" />
          <path
             style="opacity:1;fill:#ffffff;fill-opacity:0.58823529;stroke:#009ad8;stroke-width:1.6713202;stroke-miterlimit:4;stroke-dasharray:none;stroke-dashoffset:0;stroke-opacity:1"
             d="m -41.412517,1396.8391 c 0,0 -6.510694,-8.5574 -9.698238,-16.9541 -5.310567,-9.741 -2.822114,-17.3042 6.410206,-15.756 4.776615,2.336 1.714523,4.1344 -1.271747,11.3778 -2.641679,7.6043 4.559779,21.3323 4.559779,21.3323 z"
             id="path5217" />
          <path
             style="opacity:1;fill:#ffffff;fill-opacity:0.58823529;stroke:#009ad8;stroke-width:1.6713202;stroke-miterlimit:4;stroke-dasharray:none;stroke-dashoffset:0;stroke-opacity:1"
             d="m -93.889832,1359.3385 c 0,0 12.518659,0.8459 23.540602,-5.6797 7.240553,-6.5281 8.862408,-9.3291 11.560981,-1.5 0.259531,10.5157 -23.772228,7.4775 -35.101583,7.1797 z"
             id="path5219" />
          <path
             style="opacity:1;fill:#ffffff;fill-opacity:0.58823529;stroke:#009ad8;stroke-width:1.6713202;stroke-miterlimit:4;stroke-dasharray:none;stroke-dashoffset:0;stroke-opacity:1"
             d="m -77.197485,1317.0404 c 0,0 9.849117,9.4016 15.821766,11.3915 2.066854,0.6886 6.77942,-3.8444 7.511176,-1.7925 0.731814,2.052 -2.448448,2.8697 -3.659238,4.6807 -5.538721,13.672 -9.428063,-5.3308 -19.673528,-14.2799 z"
             id="path5221" />
        </g>
        <g
           transform="matrix(0.82232649,0,0,0.82232649,-213.79472,161.50672)"
           id="g11232">
          <ellipse
             style="opacity:1;fill:#429aff;fill-opacity:0.58823529;stroke:#000000;stroke-width:1.42537856;stroke-miterlimit:4;stroke-dasharray:none;stroke-dashoffset:0;stroke-opacity:1"
             id="path5253"
             cx="-149.58434"
             cy="1184.1053"
             rx="18.305214"
             ry="17.627106" />
          <ellipse
             style="opacity:1;fill:#d69d00;fill-opacity:1;stroke:#371919;stroke-width:0.8356601;stroke-miterlimit:4;stroke-dasharray:none;stroke-dashoffset:0;stroke-opacity:1"
             id="path5310"
             cx="-1096.8379"
             cy="-491.01187"
             rx="7.8138499"
             ry="1.7364112"
             transform="matrix(-0.28654089,-0.95806801,0.95806801,-0.28654089,0,0)" />
          <ellipse
             style="opacity:1;fill:#d69d00;fill-opacity:1;stroke:#371919;stroke-width:0.8356601;stroke-miterlimit:4;stroke-dasharray:none;stroke-dashoffset:0;stroke-opacity:1"
             id="path5312-7"
             cx="-152.62029"
             cy="1177.0461"
             rx="5.2092338"
             ry="5.4986353" />
          <path
             id="path11195"
             d="m -137.6759,1188.6784 c -0.67768,5.1103 -2.76789,8.4043 -4.85666,7.9126 -8.21561,-1.0895 -0.54886,-4.0735 0.4122,-9.1461 0.95961,-5.0649 -3.26877,-9.8491 2.04185,-9.3596 4.10019,-0.1005 3.08026,5.483 2.40261,10.5931 z"
             style="opacity:1;fill:#d69d00;fill-opacity:1;stroke:#371919;stroke-width:1;stroke-miterlimit:4;stroke-dasharray:none;stroke-dashoffset:0;stroke-opacity:1" />
        </g>
        <g
           id="g11261"
           transform="matrix(0.41900571,-0.70756984,0.70756984,0.41900571,-1338.0983,393.77603)">
          <ellipse
             ry="17.627106"
             rx="18.305214"
             cy="1184.1053"
             cx="-149.58434"
             id="ellipse11263"
             style="opacity:1;fill:#429aff;fill-opacity:0.58823529;stroke:#000000;stroke-width:1.42537856;stroke-miterlimit:4;stroke-dasharray:none;stroke-dashoffset:0;stroke-opacity:1" />
          <ellipse
             transform="matrix(-0.28654089,-0.95806801,0.95806801,-0.28654089,0,0)"
             ry="1.7364112"
             rx="7.8138499"
             cy="-491.01187"
             cx="-1096.8379"
             id="ellipse11265"
             style="opacity:1;fill:#d69d00;fill-opacity:1;stroke:#371919;stroke-width:0.8356601;stroke-miterlimit:4;stroke-dasharray:none;stroke-dashoffset:0;stroke-opacity:1" />
          <ellipse
             ry="5.4986353"
             rx="5.2092338"
             cy="1177.0461"
             cx="-152.62029"
             id="ellipse11267"
             style="opacity:1;fill:#d69d00;fill-opacity:1;stroke:#371919;stroke-width:0.8356601;stroke-miterlimit:4;stroke-dasharray:none;stroke-dashoffset:0;stroke-opacity:1" />
          <path
             style="opacity:1;fill:#d69d00;fill-opacity:1;stroke:#371919;stroke-width:1;stroke-miterlimit:4;stroke-dasharray:none;stroke-dashoffset:0;stroke-opacity:1"
             d="m -137.6759,1188.6784 c -0.67768,5.1103 -2.76789,8.4043 -4.85666,7.9126 -8.21561,-1.0895 -0.54886,-4.0735 0.4122,-9.1461 0.95961,-5.0649 -3.26877,-9.8491 2.04185,-9.3596 4.10019,-0.1005 3.08026,5.483 2.40261,10.5931 z"
             id="path11269" />
        </g>
        <g
           transform="matrix(0.24589413,0.78470181,-0.78470181,0.24589413,474.02585,810.72157)"
           id="g11271">
          <ellipse
             style="opacity:1;fill:#429aff;fill-opacity:0.58823529;stroke:#000000;stroke-width:1.42537856;stroke-miterlimit:4;stroke-dasharray:none;stroke-dashoffset:0;stroke-opacity:1"
             id="ellipse11273"
             cx="-149.58434"
             cy="1184.1053"
             rx="18.305214"
             ry="17.627106" />
          <ellipse
             style="opacity:1;fill:#d69d00;fill-opacity:1;stroke:#371919;stroke-width:0.8356601;stroke-miterlimit:4;stroke-dasharray:none;stroke-dashoffset:0;stroke-opacity:1"
             id="ellipse11275"
             cx="-1096.8379"
             cy="-491.01187"
             rx="7.8138499"
             ry="1.7364112"
             transform="matrix(-0.28654089,-0.95806801,0.95806801,-0.28654089,0,0)" />
          <ellipse
             style="opacity:1;fill:#d69d00;fill-opacity:1;stroke:#371919;stroke-width:0.8356601;stroke-miterlimit:4;stroke-dasharray:none;stroke-dashoffset:0;stroke-opacity:1"
             id="ellipse11277"
             cx="-152.62029"
             cy="1177.0461"
             rx="5.2092338"
             ry="5.4986353" />
          <path
             id="path11279"
             d="m -137.6759,1188.6784 c -0.67768,5.1103 -2.76789,8.4043 -4.85666,7.9126 -8.21561,-1.0895 -0.54886,-4.0735 0.4122,-9.1461 0.95961,-5.0649 -3.26877,-9.8491 2.04185,-9.3596 4.10019,-0.1005 3.08026,5.483 2.40261,10.5931 z"
             style="opacity:1;fill:#d69d00;fill-opacity:1;stroke:#371919;stroke-width:1;stroke-miterlimit:4;stroke-dasharray:none;stroke-dashoffset:0;stroke-opacity:1" />
        </g>
        <g
           transform="matrix(0.95285823,0.30341589,-0.30341589,0.95285823,390.50048,432.6708)"
           id="g11318">
          <path
             style="fill:#da7e79;fill-opacity:1;stroke:#a32300;stroke-width:1.61629999;stroke-opacity:1"
             d="m -618.2406,724.63687 c -0.107,-0.009 -0.215,-0.019 -0.322,-0.025 -3.429,-0.28 -6.933,0.102 -10.32,-0.604 -2.649,-0.555 -5.234,-1.016 -7.983,-0.916 -5.136,0.183 -8.362,3.003 -8.384,8.301 -0.054,12.9 13.426,21.414 27.191,21.46 8.858,0.023 23.233,2.896 30.308,-4.174 5.85,-5.853 -1.08,-13.784 -6.095,-17.064 -3.972,-2.603 -8.002,-4.543 -12.672,-5.504 -3.889,-0.801 -7.813,-1.155 -11.723,-1.474 z"
             id="path11320" />
          <path
             style="fill:#91204d;fill-opacity:1"
             d="m -613.7757,727.82494 c -1.702,-0.183 -3.405,-0.342 -5.088,-0.504 -3.97,-0.394 -7.667,-0.817 -11.487,-1.913 -2.953,-0.852 -7.265,-1.474 -9.475,1.235 -3.384,4.141 -0.775,11.236 4.036,14.499 4.749,3.22 10.39,4.382 15.915,5.511 6.424,1.316 13.105,1.932 19.567,0.507 3.389,-0.752 12.003,-3.727 11.219,-8.498 -0.381,-2.328 -3.109,-3.843 -4.996,-4.877 -2.477,-1.36 -5.28,-3.015 -7.97,-3.829 -3.773,-1.143 -7.751,-1.708 -11.721,-2.131 z"
             id="path11322" />
          <path
             style="fill:#b5657c;fill-opacity:1"
             d="m -612.59706,732.38818 c -1.177,1.557 -1.614,4.142 -2.859,5.67 -2.771,3.41 -2.107,-0.615 -1.265,-2.57 0.608,-1.409 2.448,-4.215 1.109,-5.497 -2.029,-1.939 -6.736,-0.858 -9.219,-0.581 -1.846,0.206 -2.331,2.073 -3.231,3.445 -0.298,0.454 -1.923,3.255 -2.729,2.318 -0.921,-1.069 1.474,-4.438 1.513,-5.705 0.082,-2.547 -4.453,-3.179 -6.379,-2.291 -4.935,2.279 -1.511,9.243 1.368,11.729 1.406,1.215 3.967,2.867 5.816,2.429 1.667,-0.393 2.1,-2.17 2.729,-3.514 0.168,-0.356 2.501,-3.845 2.678,-3.498 1.364,2.674 -2.202,6.055 0.801,8.017 3.279,2.145 9.966,4.729 12.998,1.073 1.08,-1.3 2.349,-6.779 4.06,-7.135 3.323,-0.694 -1.254,7.192 -0.979,8.15 0.568,1.974 4.812,0.523 6.01,0.183 2.468,-0.703 5.451,-0.921 6.811,-3.433 1.086,-2.013 -0.706,-7.949 -3.237,-5.569 -0.421,0.4 -2.006,4.581 -2.789,3.461 -0.718,-1.032 0.436,-3.124 -0.153,-4.403 -1.472,-3.197 -7.85,-3.84 -10.826,-3.579 -0.998,0.091 -1.689,0.591 -2.227,1.3 z"
             id="path11324" />
        </g>
        <g
           id="g11326"
           transform="matrix(-0.24431357,0.96969628,-0.96969628,-0.24431357,195.37894,1838.9609)">
          <path
             id="path11328"
             d="m -618.2406,724.63687 c -0.107,-0.009 -0.215,-0.019 -0.322,-0.025 -3.429,-0.28 -6.933,0.102 -10.32,-0.604 -2.649,-0.555 -5.234,-1.016 -7.983,-0.916 -5.136,0.183 -8.362,3.003 -8.384,8.301 -0.054,12.9 13.426,21.414 27.191,21.46 8.858,0.023 23.233,2.896 30.308,-4.174 5.85,-5.853 -1.08,-13.784 -6.095,-17.064 -3.972,-2.603 -8.002,-4.543 -12.672,-5.504 -3.889,-0.801 -7.813,-1.155 -11.723,-1.474 z"
             style="fill:#da7e79;fill-opacity:1;stroke:#a32300;stroke-width:1.61629999;stroke-opacity:1" />
          <path
             id="path11330"
             d="m -613.7757,727.82494 c -1.702,-0.183 -3.405,-0.342 -5.088,-0.504 -3.97,-0.394 -7.667,-0.817 -11.487,-1.913 -2.953,-0.852 -7.265,-1.474 -9.475,1.235 -3.384,4.141 -0.775,11.236 4.036,14.499 4.749,3.22 10.39,4.382 15.915,5.511 6.424,1.316 13.105,1.932 19.567,0.507 3.389,-0.752 12.003,-3.727 11.219,-8.498 -0.381,-2.328 -3.109,-3.843 -4.996,-4.877 -2.477,-1.36 -5.28,-3.015 -7.97,-3.829 -3.773,-1.143 -7.751,-1.708 -11.721,-2.131 z"
             style="fill:#91204d;fill-opacity:1" />
          <path
             id="path11332"
             d="m -612.59706,732.38818 c -1.177,1.557 -1.614,4.142 -2.859,5.67 -2.771,3.41 -2.107,-0.615 -1.265,-2.57 0.608,-1.409 2.448,-4.215 1.109,-5.497 -2.029,-1.939 -6.736,-0.858 -9.219,-0.581 -1.846,0.206 -2.331,2.073 -3.231,3.445 -0.298,0.454 -1.923,3.255 -2.729,2.318 -0.921,-1.069 1.474,-4.438 1.513,-5.705 0.082,-2.547 -4.453,-3.179 -6.379,-2.291 -4.935,2.279 -1.511,9.243 1.368,11.729 1.406,1.215 3.967,2.867 5.816,2.429 1.667,-0.393 2.1,-2.17 2.729,-3.514 0.168,-0.356 2.501,-3.845 2.678,-3.498 1.364,2.674 -2.202,6.055 0.801,8.017 3.279,2.145 9.966,4.729 12.998,1.073 1.08,-1.3 2.349,-6.779 4.06,-7.135 3.323,-0.694 -1.254,7.192 -0.979,8.15 0.568,1.974 4.812,0.523 6.01,0.183 2.468,-0.703 5.451,-0.921 6.811,-3.433 1.086,-2.013 -0.706,-7.949 -3.237,-5.569 -0.421,0.4 -2.006,4.581 -2.789,3.461 -0.718,-1.032 0.436,-3.124 -0.153,-4.403 -1.472,-3.197 -7.85,-3.84 -10.826,-3.579 -0.998,0.091 -1.689,0.591 -2.227,1.3 z"
             style="fill:#b5657c;fill-opacity:1" />
        </g>
        <g
           transform="matrix(0.11935546,0.99285159,-0.99285159,0.11935546,654.76752,1355.3846)"
           id="g11990">
          <ellipse
             style="opacity:1;fill:#e76f00;fill-opacity:1;stroke:#9c3f00;stroke-width:2;stroke-miterlimit:4;stroke-dasharray:none;stroke-dashoffset:0;stroke-opacity:1"
             id="path11257"
             cx="62.340271"
             cy="1130.2726"
             rx="41.473881"
             ry="34.100746"
             transform="matrix(0.89866765,0.4386302,-0.4386302,0.89866765,0,0)" />
          <ellipse
             style="opacity:1;fill:#782f00;fill-opacity:1;stroke:none;stroke-width:2;stroke-miterlimit:4;stroke-dasharray:none;stroke-dashoffset:0;stroke-opacity:1"
             id="path11259"
             cx="-266.75049"
             cy="1109.8964"
             rx="15.667911"
             ry="7.3731341"
             transform="matrix(0.98703039,0.16053353,-0.16053353,0.98703039,0,0)" />
          <path
             style="fill:#e76f00;fill-opacity:1;fill-rule:evenodd;stroke:#9c3f00;stroke-width:1px;stroke-linecap:butt;stroke-linejoin:miter;stroke-opacity:1"
             d="m -444.69216,1077.5634 c -3.19861,-0.4769 -6.45291,-0.4417 -9.67724,-0.6912 -2.76624,-0.214 -5.52813,-0.8999 -8.29478,-0.6912 -1.65326,0.1247 -3.67034,-0.024 -4.83862,1.152 -0.72206,0.7271 -1.24419,2.1327 -0.69123,2.9954 1.22737,1.9149 4.44398,0.9763 6.6819,1.3824 2.44757,0.4441 4.89882,0.896 7.37314,1.1521 2.98334,0.3087 7.01237,-1.7976 8.986,0.4608 0.60857,0.6964 0.36301,2.0556 -0.23041,2.7649 -0.76506,0.9145 -2.268,0.8222 -3.45615,0.9217 -2.45988,0.206 -4.92232,-0.3964 -7.37314,-0.6913 -2.6205,-0.3153 -5.24087,-0.6597 -7.83395,-1.152 -2.32448,-0.4413 -4.56255,-1.8896 -6.91232,-1.6129 -1.02336,0.1205 -2.44831,0.4019 -2.76492,1.3825 -0.55944,1.7327 1.06312,3.7662 2.53451,4.8386 3.27547,2.3873 7.96482,1.53 11.98135,2.0737 3.90018,0.528 7.83433,0.7642 11.75093,1.152 1.53622,0.1521 3.78292,-0.8437 4.60821,0.4609 0.61039,0.9649 -0.20135,2.5934 -1.15205,3.2257 -2.36968,1.576 -5.68539,-0.2748 -8.52519,-0.4608 -2.99777,-0.1963 -5.98225,-0.7422 -8.98601,-0.6913 -2.08616,0.035 -4.58466,-0.6031 -6.22108,0.6913 -0.89548,0.7083 -1.71459,2.2321 -1.15205,3.2257 1.35065,2.3855 5.33408,1.3667 8.06436,1.6129 4.36078,0.3932 8.76185,0.016 13.1334,-0.2304 4.85283,-0.2732 9.73363,-0.5137 14.51586,-1.3825 3.75786,-0.6827 7.6446,-1.2851 11.0597,-2.9953 2.0057,-1.0044 4.832,-1.9535 5.29944,-4.1474 0.30786,-1.4449 -0.68677,-3.4081 -2.07369,-3.917 -2.32971,-0.8549 -4.55109,2.0015 -6.91232,2.765 -2.71177,0.8769 -5.4583,1.7961 -8.29477,2.0736 -1.53068,0.1497 -3.369,0.6805 -4.60821,-0.2304 -1.25304,-0.9211 -2.31684,-2.9911 -1.61288,-4.3778 1.26551,-2.4929 5.3148,-1.7984 8.06437,-2.3041 2.65347,-0.4881 5.40314,-0.2474 8.06437,-0.6912 2.18649,-0.3646 6.35608,0.6017 6.45149,-1.6129 0.11186,-2.5965 -4.80981,-2.1062 -7.37314,-2.5345 -1.28781,-0.2152 -2.62287,0.1733 -3.91697,0 -2.60384,-0.3487 -5.05522,-1.4353 -7.60355,-2.0737 -2.67478,-0.6701 -5.33706,-1.4367 -8.06436,-1.8433 z"
             id="path11920" />
        </g>
        <path
           id="path11922"
           d="m -530.07986,1036.7045 c -0.0898,2.659 -0.50974,5.4751 0.12942,7.9834 0.94975,3.7268 3.3979,6.3404 5.21917,9.3732 1.168,1.9452 2.85547,3.3732 3.65619,5.651 0.7732,2.1996 0.66288,4.8119 0.93038,7.2328 0.32852,2.9728 0.4633,5.9848 0.82805,8.9495 0.17566,1.4279 1.30607,3.121 0.65433,4.2495 -0.58183,1.0074 -1.95213,0.5889 -2.78372,0.015 -1.03951,-0.7173 -1.71333,-2.3437 -2.09877,-3.8686 -0.68208,-2.6987 0.25317,-5.7844 -0.18462,-8.5799 -0.50324,-3.2132 -1.57886,-6.2376 -2.75574,-9.0882 -0.61058,-1.4788 -1.45711,-2.7427 -2.20639,-4.0919 -1.4618,-2.6327 -3.57017,-4.7243 -4.46526,-7.8104 -0.65815,-2.2695 -0.58829,-4.8649 -0.50228,-7.3098 0.0802,-2.2801 -0.20294,-5.092 0.9448,-6.7206 0.72837,-1.0335 2.28,-1.8868 3.04893,-0.9119 0.87767,1.1125 -0.35865,3.2751 -0.41449,4.9268 z"
           style="fill:#dc6e44;fill-opacity:0.90588235;fill-rule:evenodd;stroke:#810000;stroke-width:0.98901474px;stroke-linecap:butt;stroke-linejoin:miter;stroke-opacity:1" />
        <path
           id="path11924"
           d="m -536.05647,1043.6018 c 0.5027,3.0118 0.96731,6.0979 1.95211,8.8688 0.94289,2.653 2.47029,4.8174 3.71412,7.2175 1.01803,1.9641 2.30413,3.7016 3.06796,5.8782 0.83143,2.3691 1.26073,5.001 1.5738,7.6021 0.24824,2.0629 0.80123,4.3314 0.2317,6.2665 -0.49383,1.6781 -1.58859,3.8873 -2.88062,3.672 -0.95823,-0.1598 -1.32876,-2.0646 -1.6154,-3.349 -0.73134,-3.2775 0.53475,-6.9737 -0.0824,-10.2965 -0.50215,-2.704 -1.74807,-5.0463 -2.85805,-7.3715 -0.82182,-1.7247 -2.05163,-3.0443 -2.79733,-4.8349 -1.1912,-2.8602 -1.83623,-6.1051 -2.59556,-9.2383 -0.80096,-3.3049 -1.1029,-6.8405 -2.06253,-10.0621 -0.59418,-1.9945 -1.73117,-3.6307 -2.26431,-5.6583 -0.45619,-1.7361 -1.03777,-3.6338 -0.76472,-5.4429 0.25579,-1.695 1.0866,-3.323 2.12945,-4.2649 0.8225,-0.7427 1.94521,-1.1307 2.88882,-0.7619 0.76624,0.2996 1.30507,1.3314 1.77287,2.2289 0.88269,1.6938 1.69454,3.6512 1.83618,5.7355 0.23222,3.4112 -1.59772,6.5833 -1.68501,10.0077 -0.0327,1.2833 0.23015,2.5524 0.4389,3.8031 z"
           style="fill:#dc6e44;fill-opacity:0.90588235;fill-rule:evenodd;stroke:#810000;stroke-width:0.98901474px;stroke-linecap:butt;stroke-linejoin:miter;stroke-opacity:1" />
        <path
           id="path11926"
           d="m -551.94104,1029.9588 c 1.24195,-1.0665 3.04381,-0.1392 4.33854,0.7972 1.50231,1.0865 2.61851,3.1425 3.44087,5.2045 0.98856,2.4785 0.82537,5.5936 1.62901,8.1989 0.50891,1.6498 1.36033,3.0515 1.99373,4.6154 1.49498,3.6911 2.96478,7.4095 4.26072,11.244 0.8388,2.4819 1.79728,4.935 2.26979,7.5983 0.54606,3.0779 0.94568,6.336 0.61539,9.473 -0.28244,2.6825 -2.51451,4.879 -2.17383,7.5481 0.23903,1.873 2.76022,2.336 2.74221,4.2382 -0.0235,2.4802 -1.96049,4.7471 -3.67881,5.3924 -0.97045,0.3645 -2.2578,-0.094 -2.89423,-1.178 -1.67787,-2.8584 -1.14818,-7.4063 -0.6733,-11.0396 0.29465,-2.2545 1.78512,-3.9624 2.12397,-6.2048 0.42308,-2.7998 0.39189,-5.8338 -0.18463,-8.5799 -0.68755,-3.2751 -2.66415,-5.7412 -3.77207,-8.7842 -1.06775,-2.9329 -1.45113,-6.3477 -2.75568,-9.0882 -0.79576,-1.6706 -2.00152,-2.8815 -3.01011,-4.3114 -1.19418,-1.6932 -2.38797,-3.3873 -3.60094,-5.0542 -0.65593,-0.9016 -1.68884,-1.4612 -1.98829,-2.6755 -0.28134,-1.141 0.16047,-2.4112 0.36465,-3.5837 0.22769,-1.3071 0.13128,-3.1049 0.95301,-3.8105 z"
           style="fill:#dc6e44;fill-opacity:0.90588235;fill-rule:evenodd;stroke:#810000;stroke-width:0.98901474px;stroke-linecap:butt;stroke-linejoin:miter;stroke-opacity:1" />
        <path
           id="path11928"
           d="m -553.61529,1043.8466 c 1.92354,1.4014 3.35541,3.9153 4.67529,6.3169 1.37439,2.5009 2.17682,5.522 3.2887,8.2645 1.36436,3.3655 3.34922,6.3501 4.1504,10.0507 0.5164,2.3855 1.01607,5.1521 0.3421,7.4597 -0.34308,1.1748 -1.11848,2.4825 -2.0272,2.5482 -1.50418,0.1084 -3.05031,-1.7857 -3.65082,-3.711 -0.74573,-2.3908 1.06179,-5.2135 0.67424,-7.7639 -0.49402,-3.2507 -2.31957,-5.8171 -3.66439,-8.5608 -1.05531,-2.1523 -1.93706,-4.6297 -3.44351,-6.1745 -0.8916,-0.9144 -2.50936,-0.3282 -3.10957,-1.6246 -0.97009,-2.0948 -1.06407,-5.9436 0.35383,-7.4637 0.64914,-0.6959 1.68517,0.1297 2.41093,0.6585 z"
           style="fill:#dc6e44;fill-opacity:0.90588235;fill-rule:evenodd;stroke:#810000;stroke-width:0.98901474px;stroke-linecap:butt;stroke-linejoin:miter;stroke-opacity:1" />
        <path
           id="path11930"
           d="m -551.93671,1081.654 c -0.0344,-1.2307 -1.18491,-2.3098 -2.24807,-2.9308 -0.89218,-0.5212 -2.08256,-0.7425 -3.06913,-0.4354 -0.96455,0.3003 -1.90494,1.0968 -2.22872,2.0537 -0.48493,1.4331 -0.38267,3.5076 0.78438,4.4703 1.19963,0.9896 3.29623,0.6566 4.66466,-0.082 1.09189,-0.5895 2.13161,-1.8354 2.09688,-3.0757 z"
           style="fill:#dc6e44;fill-opacity:0.90588235;fill-rule:evenodd;stroke:#810000;stroke-width:1px;stroke-linecap:butt;stroke-linejoin:miter;stroke-opacity:1" />
        <path
           id="path11932"
           d="m -557.86367,1097.3203 c 0.19946,-1.9928 -1.93073,-3.8243 -3.72491,-4.7143 -1.67973,-0.8332 -3.88648,-0.8105 -5.62406,-0.1059 -1.08878,0.4415 -2.31309,1.3394 -2.48244,2.502 -0.22252,1.5276 0.92427,3.1957 2.18863,4.0814 1.78151,1.2479 4.36746,1.5334 6.4581,0.9333 1.33702,-0.3838 3.04614,-1.3124 3.18468,-2.6965 z"
           style="fill:#dc6e44;fill-opacity:0.90588235;fill-rule:evenodd;stroke:#810000;stroke-width:1px;stroke-linecap:butt;stroke-linejoin:miter;stroke-opacity:1" />
        <ellipse
           style="opacity:1;fill:#000000;fill-opacity:0.81568627;stroke:#000000;stroke-width:2;stroke-miterlimit:4;stroke-dasharray:none;stroke-dashoffset:0;stroke-opacity:1"
           id="ellipse12053-9"
           cx="-478.3472"
           cy="1050.4407"
           rx="0.65169919"
           ry="0.73316157" />
        <ellipse
           ry="0.73316157"
           rx="0.65169919"
           cy="1056.4407"
           cx="-476.3472"
           id="ellipse12070"
           style="opacity:1;fill:#000000;fill-opacity:0.81568627;stroke:#000000;stroke-width:2;stroke-miterlimit:4;stroke-dasharray:none;stroke-dashoffset:0;stroke-opacity:1" />
        <ellipse
           style="opacity:1;fill:#000000;fill-opacity:0.81568627;stroke:#000000;stroke-width:2;stroke-miterlimit:4;stroke-dasharray:none;stroke-dashoffset:0;stroke-opacity:1"
           id="ellipse12072"
           cx="-474.3472"
           cy="1064.4407"
           rx="0.65169919"
           ry="0.73316157" />
        <ellipse
           ry="0.73316157"
           rx="0.65169919"
           cy="1060.4407"
           cx="-480.3472"
           id="ellipse12074"
           style="opacity:1;fill:#000000;fill-opacity:0.81568627;stroke:#000000;stroke-width:2;stroke-miterlimit:4;stroke-dasharray:none;stroke-dashoffset:0;stroke-opacity:1" />
        <ellipse
           style="opacity:1;fill:#000000;fill-opacity:0.81568627;stroke:#000000;stroke-width:2;stroke-miterlimit:4;stroke-dasharray:none;stroke-dashoffset:0;stroke-opacity:1"
           id="ellipse12076"
           cx="-490.3472"
           cy="1054.4407"
           rx="0.65169919"
           ry="0.73316157" />
        <ellipse
           ry="0.73316157"
           rx="0.65169919"
           cy="1060.4407"
           cx="-488.3472"
           id="ellipse12078"
           style="opacity:1;fill:#000000;fill-opacity:0.81568627;stroke:#000000;stroke-width:2;stroke-miterlimit:4;stroke-dasharray:none;stroke-dashoffset:0;stroke-opacity:1" />
        <ellipse
           style="opacity:1;fill:#000000;fill-opacity:0.81568627;stroke:#000000;stroke-width:2;stroke-miterlimit:4;stroke-dasharray:none;stroke-dashoffset:0;stroke-opacity:1"
           id="ellipse12080"
           cx="-486.3472"
           cy="1066.4407"
           rx="0.65169919"
           ry="0.73316157" />
        <ellipse
           ry="0.73316157"
           rx="0.65169919"
           cy="1072.4407"
           cx="-480.3472"
           id="ellipse12082"
           style="opacity:1;fill:#000000;fill-opacity:0.81568627;stroke:#000000;stroke-width:2;stroke-miterlimit:4;stroke-dasharray:none;stroke-dashoffset:0;stroke-opacity:1" />
        <ellipse
           style="opacity:1;fill:#000000;fill-opacity:0.81568627;stroke:#000000;stroke-width:2;stroke-miterlimit:4;stroke-dasharray:none;stroke-dashoffset:0;stroke-opacity:1"
           id="ellipse12084"
           cx="-470.3472"
           cy="1070.4407"
           rx="0.65169919"
           ry="0.73316157" />
        <ellipse
           ry="0.73316157"
           rx="0.65169919"
           cy="1036.4407"
           cx="-494.3472"
           id="ellipse12086"
           style="opacity:1;fill:#000000;fill-opacity:0.81568627;stroke:#000000;stroke-width:2;stroke-miterlimit:4;stroke-dasharray:none;stroke-dashoffset:0;stroke-opacity:1" />
        <ellipse
           style="opacity:1;fill:#000000;fill-opacity:0.81568627;stroke:#000000;stroke-width:2;stroke-miterlimit:4;stroke-dasharray:none;stroke-dashoffset:0;stroke-opacity:1"
           id="ellipse12088"
           cx="-494.3472"
           cy="1028.4407"
           rx="0.65169919"
           ry="0.73316157" />
        <ellipse
           ry="0.73316157"
           rx="0.65169919"
           cy="1020.4407"
           cx="-494.3472"
           id="ellipse12090"
           style="opacity:1;fill:#000000;fill-opacity:0.81568627;stroke:#000000;stroke-width:2;stroke-miterlimit:4;stroke-dasharray:none;stroke-dashoffset:0;stroke-opacity:1" />
        <ellipse
           style="opacity:1;fill:#000000;fill-opacity:0.81568627;stroke:#000000;stroke-width:2;stroke-miterlimit:4;stroke-dasharray:none;stroke-dashoffset:0;stroke-opacity:1"
           id="ellipse12092"
           cx="-486.3472"
           cy="1044.4407"
           rx="0.65169919"
           ry="0.73316157" />
        <ellipse
           ry="0.73316157"
           rx="0.65169919"
           cy="1016.4407"
           cx="-484.3472"
           id="ellipse12094"
           style="opacity:1;fill:#000000;fill-opacity:0.81568627;stroke:#000000;stroke-width:2;stroke-miterlimit:4;stroke-dasharray:none;stroke-dashoffset:0;stroke-opacity:1" />
        <ellipse
           style="opacity:1;fill:#000000;fill-opacity:0.81568627;stroke:#000000;stroke-width:2;stroke-miterlimit:4;stroke-dasharray:none;stroke-dashoffset:0;stroke-opacity:1"
           id="ellipse12096"
           cx="-476.3472"
           cy="1014.4407"
           rx="0.65169919"
           ry="0.73316157" />
        <ellipse
           ry="0.73316157"
           rx="0.65169919"
           cy="1040.4407"
           cx="-476.3472"
           id="ellipse12098"
           style="opacity:1;fill:#000000;fill-opacity:0.81568627;stroke:#000000;stroke-width:2;stroke-miterlimit:4;stroke-dasharray:none;stroke-dashoffset:0;stroke-opacity:1" />
        <ellipse
           style="opacity:1;fill:#000000;fill-opacity:0.81568627;stroke:#000000;stroke-width:2;stroke-miterlimit:4;stroke-dasharray:none;stroke-dashoffset:0;stroke-opacity:1"
           id="ellipse12100"
           cx="-470.3472"
           cy="1018.4407"
           rx="0.65169919"
           ry="0.73316157" />
      </g>
    </g>
    <g
       transform="matrix(0.95978506,-0.2807359,0.2807359,0.95978506,-174.64159,111.45845)"
       id="g21001">
      <path
         style="fill:none;fill-rule:evenodd;stroke:#ff0000;stroke-width:1.79999995;stroke-linecap:butt;stroke-linejoin:miter;stroke-miterlimit:4;stroke-dasharray:none;stroke-opacity:1"
         d="M 225.26402,714.97125 190.91883,584.66157"
         id="path20997" />
      <circle
         style="opacity:1;fill:#ff0000;fill-opacity:1;stroke:#ff0000;stroke-width:1.79999995;stroke-miterlimit:4;stroke-dasharray:none;stroke-dashoffset:0;stroke-opacity:1"
         id="path20999"
         cx="225.89287"
         cy="716.55859"
         r="1.9642857" />
    </g>
    <g
       id="g21005"
       transform="matrix(0.77562706,-0.63119146,-0.63119146,-0.77562706,504.00646,1510.9625)">
      <path
         id="path21007"
         d="M 225.26402,714.97125 190.91883,584.66157"
         style="fill:none;fill-rule:evenodd;stroke:#ff0000;stroke-width:1.79999995;stroke-linecap:butt;stroke-linejoin:miter;stroke-miterlimit:4;stroke-dasharray:none;stroke-opacity:1" />
      <circle
         r="1.9642857"
         cy="716.55859"
         cx="225.89287"
         id="circle21009"
         style="opacity:1;fill:#ff0000;fill-opacity:1;stroke:#ff0000;stroke-width:1.79999995;stroke-miterlimit:4;stroke-dasharray:none;stroke-dashoffset:0;stroke-opacity:1" />
    </g>
    <g
       transform="matrix(0.83840072,0.54505432,0.54505432,-0.83840072,-387.56773,1258.9859)"
       id="g21011">
      <path
         style="fill:none;fill-rule:evenodd;stroke:#ff0000;stroke-width:1.79999995;stroke-linecap:butt;stroke-linejoin:miter;stroke-miterlimit:4;stroke-dasharray:none;stroke-opacity:1"
         d="M 225.26402,714.97125 190.91883,584.66157"
         id="path21013" />
      <circle
         style="opacity:1;fill:#ff0000;fill-opacity:1;stroke:#ff0000;stroke-width:1.79999995;stroke-miterlimit:4;stroke-dasharray:none;stroke-dashoffset:0;stroke-opacity:1"
         id="circle21015"
         cx="225.89287"
         cy="716.55859"
         r="1.9642857" />
    </g>
    <g
       id="g21017"
       transform="matrix(0.61857544,-0.78572541,0.78572541,0.61857544,-483.82155,464.63706)">
      <path
         id="path21019"
         d="M 225.26402,714.97125 190.91883,584.66157"
         style="fill:none;fill-rule:evenodd;stroke:#ff0000;stroke-width:1.79999995;stroke-linecap:butt;stroke-linejoin:miter;stroke-miterlimit:4;stroke-dasharray:none;stroke-opacity:1" />
      <circle
         r="1.9642857"
         cy="716.55859"
         cx="225.89287"
         id="circle21021"
         style="opacity:1;fill:#ff0000;fill-opacity:1;stroke:#ff0000;stroke-width:1.79999995;stroke-miterlimit:4;stroke-dasharray:none;stroke-dashoffset:0;stroke-opacity:1" />
    </g>
    <g
       id="g21023"
       transform="matrix(0.99683312,-0.07952194,0.07952194,0.99683312,-25.039826,9.5101673)">
      <path
         id="path21025"
         d="M 225.26402,714.97125 190.91883,584.66157"
         style="fill:none;fill-rule:evenodd;stroke:#ff0000;stroke-width:1.79999995;stroke-linecap:butt;stroke-linejoin:miter;stroke-miterlimit:4;stroke-dasharray:none;stroke-opacity:1" />
      <circle
         r="1.9642857"
         cy="716.55859"
         cx="225.89287"
         id="circle21027"
         style="opacity:1;fill:#ff0000;fill-opacity:1;stroke:#ff0000;stroke-width:1.79999995;stroke-miterlimit:4;stroke-dasharray:none;stroke-dashoffset:0;stroke-opacity:1" />
    </g>
    <g
       transform="matrix(0.99683312,-0.07952194,0.07952194,0.99683312,-5.039826,-38.489833)"
       id="g21029">
      <path
         style="fill:none;fill-rule:evenodd;stroke:#ff0000;stroke-width:1.79999995;stroke-linecap:butt;stroke-linejoin:miter;stroke-miterlimit:4;stroke-dasharray:none;stroke-opacity:1"
         d="M 225.26402,714.97125 190.91883,584.66157"
         id="path21031" />
      <circle
         style="opacity:1;fill:#ff0000;fill-opacity:1;stroke:#ff0000;stroke-width:1.79999995;stroke-miterlimit:4;stroke-dasharray:none;stroke-dashoffset:0;stroke-opacity:1"
         id="circle21033"
         cx="225.89287"
         cy="716.55859"
         r="1.9642857" />
    </g>
    <g
       id="g21039">
      <path
         style="fill:none;fill-rule:evenodd;stroke:#ff0000;stroke-width:1.79999995;stroke-linecap:butt;stroke-linejoin:miter;stroke-miterlimit:4;stroke-dasharray:none;stroke-opacity:1"
         d="m 436.91069,806.53935 15.82452,8.27418 -31.77282,60.76617 -17.09049,-8.93611"
         id="path21035" />
      <path
         style="fill:none;fill-rule:evenodd;stroke:#ff0000;stroke-width:1.8;stroke-linecap:butt;stroke-linejoin:miter;stroke-opacity:1;stroke-miterlimit:4;stroke-dasharray:none"
         d="m 437.14286,845.93363 23.57143,62.14286"
         id="path21037" />
    </g>
    <g
       id="g21043"
       transform="matrix(-0.67569678,0.73717967,-0.73717967,-0.67569678,1024.8763,1018.0524)">
      <path
         id="path21045"
         d="M 225.26402,714.97125 190.91883,584.66157"
         style="fill:none;fill-rule:evenodd;stroke:#ff0000;stroke-width:1.79999995;stroke-linecap:butt;stroke-linejoin:miter;stroke-miterlimit:4;stroke-dasharray:none;stroke-opacity:1" />
      <circle
         r="1.9642857"
         cy="716.55859"
         cx="225.89287"
         id="circle21047"
         style="opacity:1;fill:#ff0000;fill-opacity:1;stroke:#ff0000;stroke-width:1.79999995;stroke-miterlimit:4;stroke-dasharray:none;stroke-dashoffset:0;stroke-opacity:1" />
    </g>
    <g
       transform="matrix(0.35898012,0.93334521,-0.93334521,0.35898012,931.56997,201.44179)"
       id="g21049">
      <path
         style="fill:none;fill-rule:evenodd;stroke:#ff0000;stroke-width:1.79999995;stroke-linecap:butt;stroke-linejoin:miter;stroke-miterlimit:4;stroke-dasharray:none;stroke-opacity:1"
         d="M 225.26402,714.97125 190.91883,584.66157"
         id="path21051" />
      <circle
         style="opacity:1;fill:#ff0000;fill-opacity:1;stroke:#ff0000;stroke-width:1.79999995;stroke-miterlimit:4;stroke-dasharray:none;stroke-dashoffset:0;stroke-opacity:1"
         id="circle21053"
         cx="225.89287"
         cy="716.55859"
         r="1.9642857" />
    </g>
    <text
       id="text21055"
       y="529.505"
       x="220"
       style="font-style:normal;font-variant:normal;font-weight:normal;font-stretch:normal;font-size:22.5px;line-height:125%;font-family:'Noto Sans';-inkscape-font-specification:'Noto Sans, Normal';text-align:center;letter-spacing:0px;word-spacing:0px;writing-mode:lr-tb;text-anchor:middle;fill:#000000;fill-opacity:1;stroke:none;stroke-width:1px;stroke-linecap:butt;stroke-linejoin:miter;stroke-opacity:1"
       xml:space="preserve"><tspan
         y="529.505"
         x="220"
         id="tspan21057">1.</tspan></text>
    <text
       xml:space="preserve"
       style="font-style:normal;font-variant:normal;font-weight:normal;font-stretch:normal;font-size:22.5px;line-height:125%;font-family:'Noto Sans';-inkscape-font-specification:'Noto Sans, Normal';text-align:center;letter-spacing:0px;word-spacing:0px;writing-mode:lr-tb;text-anchor:middle;fill:#000000;fill-opacity:1;stroke:none;stroke-width:1px;stroke-linecap:butt;stroke-linejoin:miter;stroke-opacity:1"
       x="466"
       y="591.505"
       id="text21059"><tspan
         id="tspan21061"
         x="466"
         y="591.505">2.</tspan></text>
    <text
       id="text21063"
       y="771.505"
       x="472"
       style="font-style:normal;font-variant:normal;font-weight:normal;font-stretch:normal;font-size:22.5px;line-height:125%;font-family:'Noto Sans';-inkscape-font-specification:'Noto Sans, Normal';text-align:center;letter-spacing:0px;word-spacing:0px;writing-mode:lr-tb;text-anchor:middle;fill:#000000;fill-opacity:1;stroke:none;stroke-width:1px;stroke-linecap:butt;stroke-linejoin:miter;stroke-opacity:1"
       xml:space="preserve"><tspan
         y="771.505"
         x="472"
         id="tspan21065">3.</tspan></text>
    <text
       xml:space="preserve"
       style="font-style:normal;font-variant:normal;font-weight:normal;font-stretch:normal;font-size:22.5px;line-height:125%;font-family:'Noto Sans';-inkscape-font-specification:'Noto Sans, Normal';text-align:center;letter-spacing:0px;word-spacing:0px;writing-mode:lr-tb;text-anchor:middle;fill:#000000;fill-opacity:1;stroke:none;stroke-width:1px;stroke-linecap:butt;stroke-linejoin:miter;stroke-opacity:1"
       x="458"
       y="927.505"
       id="text21067"><tspan
         id="tspan21069"
         x="458"
         y="927.505">4.</tspan></text>
    <text
       id="text21071"
       y="943.505"
       x="294"
       style="font-style:normal;font-variant:normal;font-weight:normal;font-stretch:normal;font-size:22.5px;line-height:125%;font-family:'Noto Sans';-inkscape-font-specification:'Noto Sans, Normal';text-align:center;letter-spacing:0px;word-spacing:0px;writing-mode:lr-tb;text-anchor:middle;fill:#000000;fill-opacity:1;stroke:none;stroke-width:1px;stroke-linecap:butt;stroke-linejoin:miter;stroke-opacity:1"
       xml:space="preserve"><tspan
         y="943.505"
         x="294"
         id="tspan21073">5.</tspan></text>
    <text
       xml:space="preserve"
       style="font-style:normal;font-variant:normal;font-weight:normal;font-stretch:normal;font-size:22.5px;line-height:125%;font-family:'Noto Sans';-inkscape-font-specification:'Noto Sans, Normal';text-align:center;letter-spacing:0px;word-spacing:0px;writing-mode:lr-tb;text-anchor:middle;fill:#000000;fill-opacity:1;stroke:none;stroke-width:1px;stroke-linecap:butt;stroke-linejoin:miter;stroke-opacity:1"
       x="84"
       y="893.505"
       id="text21075"><tspan
         id="tspan21077"
         x="84"
         y="893.505">6.</tspan></text>
    <text
       id="text21079"
       y="681.505"
       x="84"
       style="font-style:normal;font-variant:normal;font-weight:normal;font-stretch:normal;font-size:22.5px;line-height:125%;font-family:'Noto Sans';-inkscape-font-specification:'Noto Sans, Normal';text-align:center;letter-spacing:0px;word-spacing:0px;writing-mode:lr-tb;text-anchor:middle;fill:#000000;fill-opacity:1;stroke:none;stroke-width:1px;stroke-linecap:butt;stroke-linejoin:miter;stroke-opacity:1"
       xml:space="preserve"><tspan
         y="681.505"
         x="84"
         id="tspan21081">7.</tspan></text>
    <text
       xml:space="preserve"
       style="font-style:normal;font-variant:normal;font-weight:normal;font-stretch:normal;font-size:22.5px;line-height:125%;font-family:'Noto Sans';-inkscape-font-specification:'Noto Sans, Normal';text-align:center;letter-spacing:0px;word-spacing:0px;writing-mode:lr-tb;text-anchor:middle;fill:#000000;fill-opacity:1;stroke:none;stroke-width:1px;stroke-linecap:butt;stroke-linejoin:miter;stroke-opacity:1"
       x="162"
       y="621.505"
       id="text21083"><tspan
         id="tspan21085"
         x="162"
         y="621.505">8.</tspan></text>
    <text
       id="text21087"
       y="579.505"
       x="200"
       style="font-style:normal;font-variant:normal;font-weight:normal;font-stretch:normal;font-size:22.5px;line-height:125%;font-family:'Noto Sans';-inkscape-font-specification:'Noto Sans, Normal';text-align:center;letter-spacing:0px;word-spacing:0px;writing-mode:lr-tb;text-anchor:middle;fill:#000000;fill-opacity:1;stroke:none;stroke-width:1px;stroke-linecap:butt;stroke-linejoin:miter;stroke-opacity:1"
       xml:space="preserve"><tspan
         y="579.505"
         x="200"
         id="tspan21089">9.</tspan></text>
  </g>
</svg>
