<?xml version="1.0" encoding="UTF-8" standalone="no"?>
<!-- Created with Inkscape (http://www.inkscape.org/) -->

<svg
   xmlns:dc="http://purl.org/dc/elements/1.1/"
   xmlns:cc="http://creativecommons.org/ns#"
   xmlns:rdf="http://www.w3.org/1999/02/22-rdf-syntax-ns#"
   xmlns:svg="http://www.w3.org/2000/svg"
   xmlns="http://www.w3.org/2000/svg"
   xmlns:sodipodi="http://sodipodi.sourceforge.net/DTD/sodipodi-0.dtd"
   xmlns:inkscape="http://www.inkscape.org/namespaces/inkscape"
   version="1.0"
   width="600"
   height="363"
   viewBox="-120.5 -155.297 600.00001 363.00001"
   id="Beakers"
   xml:space="preserve"
   inkscape:version="0.91 r"
   sodipodi:docname="beaker bag.svg"><title
     id="title4424">Osmosis set-up</title><sodipodi:namedview
     pagecolor="#ffffff"
     bordercolor="#666666"
     borderopacity="1"
     objecttolerance="10"
     gridtolerance="10"
     guidetolerance="10"
     inkscape:pageopacity="0"
     inkscape:pageshadow="2"
     inkscape:window-width="1920"
     inkscape:window-height="1028"
     id="namedview3533"
     showgrid="false"
     inkscape:zoom="0.79954956"
     inkscape:cx="365.44299"
     inkscape:cy="156.44478"
     inkscape:window-x="0"
     inkscape:window-y="0"
     inkscape:window-maximized="1"
     inkscape:current-layer="Beakers" /><metadata
     id="metadata93"><rdf:RDF><cc:Work
         rdf:about=""><dc:format>image/svg+xml</dc:format><dc:type
           rdf:resource="http://purl.org/dc/dcmitype/StillImage" /><dc:title>Osmosis set-up</dc:title><cc:license
           rdf:resource="http://creativecommons.org/licenses/by-nc-sa/3.0/" /><dc:creator><cc:Agent><dc:title></dc:title></cc:Agent></dc:creator></cc:Work><cc:License
         rdf:about="http://creativecommons.org/licenses/by-nc-sa/3.0/"><cc:permits
           rdf:resource="http://creativecommons.org/ns#Reproduction" /><cc:permits
           rdf:resource="http://creativecommons.org/ns#Distribution" /><cc:requires
           rdf:resource="http://creativecommons.org/ns#Notice" /><cc:requires
           rdf:resource="http://creativecommons.org/ns#Attribution" /><cc:prohibits
           rdf:resource="http://creativecommons.org/ns#CommercialUse" /><cc:permits
           rdf:resource="http://creativecommons.org/ns#DerivativeWorks" /><cc:requires
           rdf:resource="http://creativecommons.org/ns#ShareAlike" /></cc:License></rdf:RDF></metadata><defs
     id="defs174" /><g
     id="g4359"
     transform="matrix(0.68119892,0,0,0.68119892,-38.41553,-49.451628)"><rect
       style="fill:none"
       id="Wrapper"
       y="-155.297"
       x="-120.5"
       height="532.79999"
       width="880.79999" /><path
       inkscape:connector-curvature="0"
       id="path3113"
       d="m -69.081338,12.427472 0,303.687498 0.9375,0 a 159.5268,49.81016 0 0 0 -0.71875,4.40625 159.53125,49.811549 0 0 0 319.062498,0 159.5268,49.81016 0 0 0 -0.8125,-4.40625 l 0.15625,0 0,-303.687498 -318.624998,0 z"
       style="fill:#78dcfa;fill-opacity:0.87058824;stroke:#00e5ff;stroke-width:3.71262336;stroke-miterlimit:4;stroke-dasharray:none;stroke-opacity:1" /><path
       style="fill:none;stroke:#161413;stroke-width:1.12805855;stroke-linecap:round;stroke-linejoin:round"
       id="path120"
       d="m 190.33007,-134.28285 c 26.67181,4.78297 50.96681,12.84408 60.65683,19.16685 4.45019,2.90475 7.02668,6.25508 7.02668,10.1999"
       inkscape:connector-curvature="0" /><path
       style="fill:none;stroke:#161413;stroke-width:1.12805855;stroke-linecap:round;stroke-linejoin:round"
       id="path122"
       d="m -91.999284,-83.940979 c 5.04355,-3.74177 9.414777,-12.355625 10.036337,-13.807436 4.982634,-11.632535 10.758294,-21.407165 38.980061,-29.476165 32.758819,-9.36515 79.849621,-15.23895 132.180255,-15.23895 25.931811,0 50.579891,1.44279 72.831971,4.03733"
       inkscape:connector-curvature="0" /><path
       style="fill:none;stroke:#161413;stroke-width:2.25611711;stroke-linecap:round;stroke-linejoin:round"
       id="path140"
       d="m -99.012423,-74.514922 c 2.174897,-1.521751 7.124817,-3.081856 9.446362,-3.561281 18.737051,-3.871497 31.679267,-3.092008 54.066716,2.46368 32.2444237,8.002447 76.789198,12.951239 125.992853,12.951239 72.166412,0 129.784262,-11.268176 157.929322,-26.034462 6.79429,-3.564665 10.50673,-8.423213 11.23095,-11.938244"
       inkscape:connector-curvature="0" /><path
       style="fill:none;stroke:#161413;stroke-width:4.51223421;stroke-linecap:round;stroke-linejoin:round"
       id="path142"
       d="m 252.20408,-62.029571 0,375.927751 c 0,22.16409 -20.90293,59.32121 -161.710572,59.32121 -140.806518,0 -161.71057,-37.15599 -161.71057,-59.32121 l 0,-342.24054 c 0,0 1.931236,-31.423198 -26.182238,-35.769607 -1.546568,-0.239148 -5.66624,1.123546 -7.40006,1.058119 -7.928,-0.298936 -9.06508,-11.223054 3.2928,-22.836416 16.845297,-15.828916 8.935351,-33.212296 42.417255,-45.028716 32.063935,-11.31555 86.889834,-20.18322 149.582813,-20.18322 98.407312,0 178.181352,20.11893 178.181352,44.2199 -0.001,17.461213 -16.47078,19.240161 -16.47078,44.852729 z"
       inkscape:connector-curvature="0" /><text
       sodipodi:linespacing="125%"
       id="text4408"
       y="45.311455"
       x="97.660896"
       style="font-style:normal;font-weight:bold;font-size:18px;line-height:125%;font-family:Sans;-inkscape-font-specification:'Sans Bold';text-align:center;letter-spacing:0px;word-spacing:0px;text-anchor:middle;fill:#000000;fill-opacity:1;stroke:none"
       xml:space="preserve"><tspan
         style="font-style:normal;font-variant:normal;font-weight:bold;font-stretch:normal;font-size:32px;font-family:'noto Sans';-inkscape-font-specification:'noto Sans Bold'"
         y="45.311455"
         x="97.660896"
         id="tspan4410"
         sodipodi:role="line">50%</tspan><tspan
         style="font-style:normal;font-variant:normal;font-weight:bold;font-stretch:normal;font-size:32px;font-family:'noto Sans';-inkscape-font-specification:'noto Sans Bold'"
         id="tspan4412"
         y="85.311455"
         x="97.660896"
         sodipodi:role="line">Sucrose</tspan></text>
<g
       transform="matrix(0.68890664,-0.72485009,0.72485009,0.68890664,-131.0702,154.80725)"
       id="g4352"><path
         d="m 83.201695,141.49898 c 0,0 -6.548537,14.70644 -9.592208,22.13238 -2.597994,6.33858 -5.38974,12.63681 -7.397796,19.13373 -5.428967,17.56502 -9.170702,35.51047 -12.51161,53.46116 -2.061179,11.07472 -4.638074,33.41189 -4.638074,33.41189 0,0 6.397011,6.87104 10.445912,9.47528 4.62595,2.9754 15.42204,6.77007 15.42204,6.77007 l 24.070036,1.51423 c 0,0 10.060765,1.31746 11.935905,5.18957 1.87513,3.8721 -4.83473,12.97698 -4.83473,12.97698 l -7.785937,15.34471 16.302027,-21.93873 c 0,0 5.9281,-14.96468 8.53362,-22.54385 4.13259,-12.02121 11.25116,-36.34375 11.25116,-36.34375 0,0 5.79104,-20.28638 7.62951,-30.59847 2.64735,-14.84913 2.74701,-29.96461 4.86978,-44.87663 0.88311,-6.20369 3.27053,-18.53703 3.27053,-18.53703 l -3.03881,7.07228 -3.54443,1.9237 -11.75156,-6.7686 -20.88035,-7.5657 -21.617667,-1.24954 z"
         id="path3001"
         style="fill:none;stroke:#000000;stroke-width:1.47128117;stroke-linecap:butt;stroke-linejoin:miter;stroke-miterlimit:4;stroke-dasharray:none;stroke-opacity:1"
         inkscape:connector-curvature="0"
         sodipodi:nodetypes="cssscsccscccscssccccccc" /><path
         inkscape:connector-curvature="0"
         d="m 38.476125,265.52354 c -5.210743,3.19772 3.237702,11.31781 5.751163,17.09159 2.51348,5.77376 6.52598,12.66135 9.402677,17.41042 2.876697,4.74907 3.685892,8.29334 7.547065,11.18689 3.861183,2.89354 9.344154,3.61847 14.528817,5.09693 5.184663,1.47847 13.133107,2.87462 16.538904,3.67733 3.405797,0.80271 3.942936,0.98234 3.942936,0.98234 l 8.409003,-8.83657 c 0,0 2.84074,-6.11286 3.69889,-9.56686 0.85816,-3.454 5.37542,-5.01936 1.2903,-11.05328 -4.08511,-6.03393 -28.869518,-3.87692 -38.263658,-7.1694 -9.39414,-3.29249 -12.92886,-6.74794 -18.394517,-9.90087 -5.465656,-3.15293 -9.240836,-12.11624 -14.45158,-8.91852 z"
         id="path3003"
         style="fill:none;stroke:#000000;stroke-width:1.47128117;stroke-linecap:butt;stroke-linejoin:miter;stroke-miterlimit:4;stroke-dasharray:none;stroke-opacity:1" /><path
         d="m 57.546436,309.48857 c -6.02017,7.63242 -4.86895,7.75429 -6.021324,11.72801 -1.152373,3.97372 -0.998883,11.71678 -0.998883,11.71678 0,0 5.963248,6.25995 11.382909,9.92668 5.41966,3.66674 15.39615,8.99285 21.570281,11.13525 6.174132,2.1424 14.421731,2.8544 14.421731,2.8544 l 6.32167,-3.59536 c 0,0 1.87459,-7.22393 1.29031,-11.05329 -0.58429,-3.82936 -4.95414,-11.2795 -4.95414,-11.2795 l -1.813969,-9.80938 c 0,0 -7.952177,2.40287 -12.054778,2.21786 -3.360641,-0.15155 -6.427217,-1.73155 -9.602657,-2.69509 -3.728248,-1.1313 -11.158288,-2.27683 -14.367221,-4.27047 -2.513116,-1.56133 -2.694321,-10.01955 -5.173929,-6.87589 z"
         id="path3005"
         style="fill:none;stroke:#000000;stroke-width:1.47128117;stroke-linecap:butt;stroke-linejoin:miter;stroke-miterlimit:4;stroke-dasharray:none;stroke-opacity:1"
         inkscape:connector-curvature="0"
         sodipodi:nodetypes="szczzcczccssss" /><path
         d="m 145.89013,154.31038 c -4.36168,0.99335 -10.24378,-4.31822 -15.07607,-6.65968 -4.89667,-2.37267 -8.09114,-4.06935 -13.51224,-5.3272 -6.62105,-1.53627 -13.08896,-2.32574 -19.93877,-2.56036 -5.446203,-0.18655 -8.648561,-0.51443 -13.979191,0.46865 -2.407831,0.44406 -8.294253,2.57798 -10.078118,0.72213 -1.783864,-1.85585 4.864575,-6.91287 4.864575,-6.91287 l 7.74892,-6.34198 12.167609,-6.27518 4.971665,-4.67032 -4.341441,-3.88838 -4.739958,-6.79442 -2.622779,-5.9715 c 0,0 -1.411234,-5.020341 1.213062,-7.23171 2.624296,-2.211369 13.440376,-1.378638 13.440376,-1.378638 l 15.08181,0.359823 14.60605,1.27536 13.65456,3.106439 10.11014,5.030136 c 0,0 4.22259,1.77625 5.10861,3.63635 0.88602,1.86009 -0.73731,6.31616 -0.73731,6.31616 l -4.28174,8.23986 -7.74892,6.34198 -6.13735,2.01632 2.72987,8.21405 1.77837,10.04512 c 0,0 0.0799,7.24652 -4.28173,8.23986 z"
         id="path3007"
         style="fill:none;stroke:#000000;stroke-width:1.47128117;stroke-linecap:butt;stroke-linejoin:miter;stroke-miterlimit:4;stroke-dasharray:none;stroke-opacity:1"
         inkscape:connector-curvature="0"
         sodipodi:nodetypes="sssssscccccccscccccsccccccs" /><path
         inkscape:connector-curvature="0"
         d="m 146.72221,128.22282 c 0,0 -6.97927,-4.89981 -10.9844,-7.02065 -4.00513,-2.12084 -8.74908,-4.47877 -12.99448,-5.60102 -4.24541,-1.12225 -12.01313,-1.36798 -12.01313,-1.36798 l -8.54595,0.5299 -0.18433,1.57904 6.82728,1.55322 c 0,0 7.75037,-0.5611 11.4303,0.041 3.67992,0.60208 10.29446,3.4511 10.29446,3.4511 z"
         id="path3009"
         style="fill:none;stroke:#000000;stroke-width:1.47128117;stroke-linecap:butt;stroke-linejoin:miter;stroke-miterlimit:4;stroke-dasharray:none;stroke-opacity:1" /></g><text
       sodipodi:linespacing="125%"
       id="text4420"
       y="202.65794"
       x="83.367958"
       style="font-style:normal;font-weight:bold;font-size:18px;line-height:125%;font-family:Sans;-inkscape-font-specification:'Sans Bold';text-align:center;letter-spacing:0px;word-spacing:0px;text-anchor:middle;fill:#000000;fill-opacity:1;stroke:none"
       xml:space="preserve"><tspan
         style="font-style:normal;font-variant:normal;font-weight:bold;font-stretch:normal;font-family:'noto sans';-inkscape-font-specification:'noto sans Bold'"
         id="tspan4424"
         y="202.65794"
         x="83.367958"
         sodipodi:role="line">1%</tspan><tspan
         style="font-style:normal;font-variant:normal;font-weight:bold;font-stretch:normal;font-family:'noto sans';-inkscape-font-specification:'noto sans Bold'"
         id="tspan4426"
         y="225.15794"
         x="83.367958"
         sodipodi:role="line">Sucrose</tspan></text>
<text
       sodipodi:linespacing="125%"
       id="text4448"
       y="270.43256"
       x="84.11409"
       style="font-style:normal;font-weight:bold;font-size:18px;line-height:125%;font-family:Sans;-inkscape-font-specification:'Sans Bold';letter-spacing:0px;word-spacing:0px;fill:#000000;fill-opacity:1;stroke:none"
       xml:space="preserve"><tspan
         style="font-size:36px"
         y="270.43256"
         x="84.11409"
         id="tspan4450"
         sodipodi:role="line">A</tspan></text>
<path
       style="fill:#78ddfb;fill-opacity:0.81176471;stroke:#00e5ff;stroke-width:3.71262336;stroke-miterlimit:4;stroke-dasharray:none;stroke-opacity:1"
       d="m 384.5919,14.427472 0,303.687498 0.9375,0 a 159.5268,49.81016 0 0 0 -0.71875,4.40625 159.53125,49.811549 0 0 0 319.0625,0 159.5268,49.81016 0 0 0 -0.8125,-4.40625 l 0.15625,0 0,-303.687498 -318.625,0 z"
       id="path4406"
       inkscape:connector-curvature="0" /><path
       d="m 644.29079,-133.03214 c 26.67182,4.78297 50.96681,12.84407 60.65683,19.16684 4.4502,2.90475 7.02668,6.25508 7.02668,10.19991"
       id="path3613"
       style="fill:none;stroke:#161413;stroke-width:1.12805855;stroke-linecap:round;stroke-linejoin:round"
       inkscape:connector-curvature="0" /><path
       d="m 361.96144,-82.690275 c 5.04355,-3.74177 9.41477,-12.355625 10.03633,-13.807436 4.98264,-11.632539 10.7583,-21.407169 38.98007,-29.476169 32.75881,-9.36514 79.84962,-15.23894 132.18025,-15.23894 25.93181,0 50.57989,1.44278 72.83197,4.03732"
       id="path3615"
       style="fill:none;stroke:#161413;stroke-width:1.12805855;stroke-linecap:round;stroke-linejoin:round"
       inkscape:connector-curvature="0" /><path
       d="m 354.9483,-73.264218 c 2.17489,-1.521751 7.12482,-3.081856 9.44636,-3.561281 18.73705,-3.871497 31.67927,-3.092008 54.06672,2.46368 32.24442,8.002447 76.78919,12.951239 125.99285,12.951239 72.16641,0 129.78426,-11.268176 157.92932,-26.034462 6.79429,-3.564665 10.50673,-8.423213 11.23095,-11.938243"
       id="path3617"
       style="fill:none;stroke:#161413;stroke-width:2.25611711;stroke-linecap:round;stroke-linejoin:round"
       inkscape:connector-curvature="0" /><path
       d="m 706.1648,-60.778867 0,375.927747 c 0,22.1641 -20.90292,59.32122 -161.71057,59.32122 -140.80652,0 -161.71057,-37.15599 -161.71057,-59.32122 l 0,-342.240536 c 0,0 1.93124,-31.423198 -26.18224,-35.769607 -1.54657,-0.239148 -5.66624,1.123546 -7.40006,1.058119 -7.928,-0.298936 -9.06508,-11.223054 3.2928,-22.836416 16.8453,-15.82892 8.93535,-33.2123 42.41726,-45.02871 32.06393,-11.31556 86.88983,-20.18322 149.58281,-20.18322 98.40731,0 178.18135,20.11892 178.18135,44.21989 -10e-4,17.461217 -16.47078,19.240165 -16.47078,44.852733 z"
       id="path3619"
       style="fill:none;stroke:#161413;stroke-width:4.51223421;stroke-linecap:round;stroke-linejoin:round"
       inkscape:connector-curvature="0" /><text
       xml:space="preserve"
       style="font-style:normal;font-weight:bold;font-size:18px;line-height:125%;font-family:Sans;-inkscape-font-specification:'Sans Bold';text-align:center;letter-spacing:0px;word-spacing:0px;text-anchor:middle;fill:#000000;fill-opacity:1;stroke:none"
       x="531.33978"
       y="46.56216"
       id="text4414"
       sodipodi:linespacing="125%"><tspan
         sodipodi:role="line"
         id="tspan4416"
         x="531.33978"
         y="46.56216"
         style="font-style:normal;font-variant:normal;font-weight:bold;font-stretch:normal;font-size:32px;font-family:'noto Sans';-inkscape-font-specification:'noto Sans Bold'">1%</tspan><tspan
         sodipodi:role="line"
         x="531.33978"
         y="86.562164"
         id="tspan4418"
         style="font-style:normal;font-variant:normal;font-weight:bold;font-stretch:normal;font-size:32px;font-family:'noto Sans';-inkscape-font-specification:'noto Sans Bold'">Sucrose</tspan></text>
<g
       transform="matrix(0.98469209,-0.17430284,0.17430284,0.98469209,-31.782207,93.497187)"
       id="g4331"><path
         d="m 413.87598,140.69867 c 0,0 -4.69094,15.21789 -6.80051,22.87831 -1.80068,6.53871 -3.79707,13.05482 -4.99757,19.69769 -3.24566,17.9596 -4.78348,36.145 -5.92577,54.29939 -0.70473,11.20039 -0.56911,33.64816 -0.56911,33.64816 0,0 7.12512,6.25508 11.42598,8.47902 4.91382,2.5409 16.00466,5.33878 16.00466,5.33878 l 23.89555,-0.67008 c 0,0 10.06979,0.40072 12.38082,4.08209 2.31102,3.68138 -3.20953,13.34297 -3.20953,13.34297 l -5.83363,15.96452 13.43434,-23.2923 c 0,0 4.04875,-15.41862 5.70831,-23.19182 2.6322,-12.32896 6.73342,-37.1618 6.73342,-37.1618 0,0 3.27655,-20.69878 3.85318,-31.12058 0.83033,-15.00712 -0.88125,-30.0488 -0.57528,-45.07104 0.12729,-6.24954 1.00275,-18.73115 1.00275,-18.73115 l -2.14713,7.30826 -3.26171,2.23359 -12.38827,-5.66914 -21.47755,-5.6366 -21.44773,0.71161 z"
         id="path3574"
         style="fill:none;stroke:#000000;stroke-width:1.46438348;stroke-linecap:butt;stroke-linejoin:miter;stroke-miterlimit:4;stroke-dasharray:none;stroke-opacity:1"
         inkscape:connector-curvature="0"
         sodipodi:nodetypes="cssscsccscccscssccccccc" /><path
         inkscape:connector-curvature="0"
         d="m 384.66097,268.08715 c -4.75086,3.65127 4.54492,10.96312 7.71253,16.47804 3.16762,5.51491 7.94546,12.00202 11.34824,16.46501 3.40278,4.46299 4.62437,7.91469 8.77491,10.44332 4.15056,2.52863 9.63928,2.75391 14.92432,3.75557 5.28504,1.00165 13.28316,1.67159 16.73472,2.162 3.45157,0.49042 4.00227,0.6205 4.00227,0.6205 l 7.22671,-9.54835 c 0,0 2.06686,-6.33619 2.49878,-9.84885 0.43192,-3.51266 4.69499,-5.47782 -0.0522,-11.10939 -4.74718,-5.63155 -28.90698,-1.24576 -38.55647,-3.67095 -9.64949,-2.42519 -13.54568,-5.54216 -19.30805,-8.1837 -5.76237,-2.64154 -10.55492,-11.21447 -15.30578,-7.5632 z"
         id="path3576"
         style="fill:none;stroke:#000000;stroke-width:1.46438348;stroke-linecap:butt;stroke-linejoin:miter;stroke-miterlimit:4;stroke-dasharray:none;stroke-opacity:1" /><path
         d="m 408.71333,310.08732 c -5.01736,8.13486 -3.86856,8.15198 -4.52813,12.20811 -0.65957,4.05613 0.41873,11.7429 0.41873,11.7429 0,0 6.62461,5.68656 12.40318,8.84325 5.77856,3.15669 16.24528,7.55171 22.58466,9.12421 6.33938,1.57251 14.55032,1.535 14.55032,1.535 l 5.79776,-4.14717 c 0,0 0.98196,-7.35382 -0.0522,-11.10938 -1.03414,-3.75556 -6.23141,-10.76984 -6.23141,-10.76984 l -2.96163,-9.59166 c 0,0 -7.54693,3.10861 -11.61104,3.2955 -3.32912,0.1531 -6.53954,-1.14101 -9.78341,-1.81221 -3.80858,-0.78805 -11.26595,-1.25561 -14.66615,-2.94822 -2.66291,-1.32559 -3.85414,-9.7211 -5.9207,-6.37049 z"
         id="path3578"
         style="fill:none;stroke:#000000;stroke-width:1.46438348;stroke-linecap:butt;stroke-linejoin:miter;stroke-miterlimit:4;stroke-dasharray:none;stroke-opacity:1"
         inkscape:connector-curvature="0"
         sodipodi:nodetypes="szczzcczccssss" /><path
         d="m 477.17171,147.77264 c -4.17828,1.38221 -10.60939,-3.36849 -15.65059,-5.26028 -5.10837,-1.91699 -8.45877,-3.31559 -13.95034,-4.07646 -6.70711,-0.92929 -13.17395,-1.12971 -19.9506,-0.7438 -5.38803,0.30683 -8.58231,0.27025 -13.71644,1.72985 -2.31908,0.6593 -7.863,3.31368 -9.84269,1.62927 -1.9797,-1.68442 3.96499,-7.31477 3.96499,-7.31477 l 6.87505,-7.00777 11.23643,-7.3408 4.33901,-5.09419 -4.74283,-3.4746 -5.48339,-6.32869 -3.29898,-5.701682 c 0,0 -1.99146,-4.865254 0.32928,-7.301754 2.32074,-2.436501 13.07665,-2.586143 13.07665,-2.586143 l 14.90195,-1.005595 14.54286,-0.05206 13.82466,1.855002 10.56296,4.088593 c 0,0 4.37284,1.384783 5.46848,3.154587 1.09563,1.769805 0.0298,6.348212 0.0298,6.348212 l -3.2319,8.58181 -6.87505,7.00777 -5.80522,2.56011 3.67299,7.92226 2.95478,9.82932 c 0,0 0.94639,7.19959 -3.23188,8.58181 z"
         id="path3580"
         style="fill:none;stroke:#000000;stroke-width:1.46438348;stroke-linecap:butt;stroke-linejoin:miter;stroke-miterlimit:4;stroke-dasharray:none;stroke-opacity:1"
         inkscape:connector-curvature="0"
         sodipodi:nodetypes="sssssscccccccscccccsccccccs" /><path
         inkscape:connector-curvature="0"
         d="m 474.86803,121.75276 c 0,0 -7.46276,-4.24202 -11.66262,-5.98916 -4.19986,-1.74714 -9.156,-3.66329 -13.47302,-4.39559 -4.31701,-0.73231 -11.99935,-0.27446 -11.99935,-0.27446 l -8.35617,1.29958 0.007,1.58705 6.91233,0.92751 c 0,0 7.56863,-1.25869 11.26624,-0.99259 3.69762,0.26611 10.55551,2.50155 10.55551,2.50155 z"
         id="path3582"
         style="fill:none;stroke:#000000;stroke-width:1.46438348;stroke-linecap:butt;stroke-linejoin:miter;stroke-miterlimit:4;stroke-dasharray:none;stroke-opacity:1" /></g><text
       xml:space="preserve"
       style="font-style:normal;font-weight:bold;font-size:18px;line-height:125%;font-family:Sans;-inkscape-font-specification:'Sans Bold';text-align:center;letter-spacing:0px;word-spacing:0px;text-anchor:middle;fill:#000000;fill-opacity:1;stroke:none"
       x="437.82428"
       y="205.4185"
       id="text4430"
       sodipodi:linespacing="125%"><tspan
         style="font-style:normal;font-variant:normal;font-weight:bold;font-stretch:normal;font-family:'noto sans';-inkscape-font-specification:'noto sans Bold'"
         sodipodi:role="line"
         x="437.82428"
         y="205.4185"
         id="tspan4432">1%</tspan><tspan
         style="font-style:normal;font-variant:normal;font-weight:bold;font-stretch:normal;font-family:'noto sans';-inkscape-font-specification:'noto sans Bold'"
         sodipodi:role="line"
         x="437.82428"
         y="227.9185"
         id="tspan4434">Sucrose</tspan></text>
<text
       xml:space="preserve"
       style="font-style:normal;font-weight:bold;font-size:18px;line-height:125%;font-family:Sans;-inkscape-font-specification:'Sans Bold';letter-spacing:0px;word-spacing:0px;fill:#000000;fill-opacity:1;stroke:none"
       x="424.8183"
       y="268.69171"
       id="text4452"
       sodipodi:linespacing="125%"><tspan
         sodipodi:role="line"
         id="tspan4454"
         x="424.8183"
         y="268.69171"
         style="font-size:36px">B</tspan></text>
<g
       transform="matrix(0.99772639,0.06739469,-0.06739469,0.99772639,15.017154,-33.433847)"
       id="g4338"><path
         sodipodi:nodetypes="cssscsccscccscssccccccc"
         inkscape:connector-curvature="0"
         style="fill:none;stroke:#000000;stroke-width:1.42381549;stroke-linecap:butt;stroke-linejoin:miter;stroke-miterlimit:4;stroke-dasharray:none;stroke-opacity:1"
         id="path3562"
         d="m 503.53426,178.55794 c 0,0 3.47154,15.42978 5.43149,23.09776 1.67296,6.54517 3.16973,13.1472 5.39998,19.54909 6.02967,17.30808 13.61069,34.14544 21.51032,50.79944 4.8737,10.27471 15.94781,30.25788 15.94781,30.25788 0,0 9.06621,2.77852 13.78114,3.07063 5.3869,0.33373 16.11154,-1.53464 16.11154,-1.53464 l 19.8363,-10.00415 c 0,0 8.69269,-3.60612 12.44013,-1.22988 3.74743,2.37625 3.80618,13.17312 3.80618,13.17312 l 2.87185,16.54601 -0.0359,-26.07857 c 0,0 -4.11143,-15.35616 -6.50618,-22.94766 -3.79827,-12.04077 -12.46173,-35.82059 -12.46173,-35.82059 0,0 -7.34095,-19.76519 -11.94262,-29.29452 -6.62628,-13.72199 -15.41434,-26.47425 -22.49046,-40.00333 -2.9438,-5.62836 -8.29897,-17.11387 -8.29897,-17.11387 l 1.75633,7.36843 -1.66178,3.27758 -13.22126,-0.18377 -20.87506,3.42311 -17.75051,9.07769 z" /><path
         style="fill:none;stroke:#000000;stroke-width:1.42381549;stroke-linecap:butt;stroke-linejoin:miter;stroke-miterlimit:4;stroke-dasharray:none;stroke-opacity:1"
         id="path3564"
         d="m 541.07703,303.76307 c -2.22619,5.12916 9.1876,7.99649 14.55302,11.67216 5.36543,3.67566 12.56425,7.58525 17.61454,10.22941 5.05029,2.64415 7.76631,5.24424 12.50316,5.86747 4.73685,0.62322 9.47831,-1.33623 14.42695,-2.52253 4.94864,-1.1863 12.02467,-3.73664 15.17658,-4.65755 3.15192,-0.92091 3.68013,-1.02157 3.68013,-1.02157 l 1.43622,-11.36739 c 0,0 -1.34947,-6.46918 -2.69999,-9.77455 -1.35053,-3.30536 1.28727,-6.73752 -5.46797,-9.89553 -6.75524,-3.15801 -25.00039,10.26675 -34.32683,11.90042 -9.32645,1.63366 -14.13591,0.38516 -20.28797,0.29561 -6.15206,-0.0895 -14.38165,-5.85512 -16.60784,-0.72595 z"
         inkscape:connector-curvature="0" /><path
         sodipodi:nodetypes="szczzcczccssss"
         inkscape:connector-curvature="0"
         style="fill:none;stroke:#000000;stroke-width:1.42381549;stroke-linecap:butt;stroke-linejoin:miter;stroke-miterlimit:4;stroke-dasharray:none;stroke-opacity:1"
         id="path3566"
         d="m 581.87853,331.78404 c -0.26205,9.23605 0.71568,8.79913 2.13946,12.6792 1.42377,3.88008 6.08656,10.31672 6.08656,10.31672 0,0 8.3663,2.46809 14.78354,3.01107 6.41724,0.54299 17.395,0.34589 23.51202,-0.7459 6.11701,-1.09179 13.02721,-4.35736 13.02721,-4.35736 l 2.86748,-5.98389 c 0,0 -2.76176,-6.95045 -5.46796,-9.89554 -2.70621,-2.94509 -10.51632,-7.16012 -10.51632,-7.16012 l -7.18201,-7.39559 c 0,0 -4.85051,5.74542 -8.18862,7.51201 -2.73441,1.44709 -6.07524,1.55571 -9.14017,2.2335 -3.5985,0.79578 -10.11942,3.3139 -13.81495,3.14153 -2.89419,-0.13499 -7.99831,-7.1598 -8.10624,-3.35563 z" /><path
         sodipodi:nodetypes="sssssscccccccscccccsccccccs"
         inkscape:connector-curvature="0"
         style="fill:none;stroke:#000000;stroke-width:1.42381549;stroke-linecap:butt;stroke-linejoin:miter;stroke-miterlimit:4;stroke-dasharray:none;stroke-opacity:1"
         id="path3568"
         d="m 560.39793,159.95684 c -2.85086,2.87844 -10.59697,1.16952 -15.77444,1.46532 -5.24646,0.29974 -8.75641,0.3702 -13.76177,1.85271 -6.11328,1.81067 -11.66794,4.17733 -17.19778,7.18929 -4.39671,2.39478 -7.10995,3.6195 -10.72959,6.94328 -1.63499,1.50134 -5.01708,6.05287 -7.50997,5.32866 -2.49288,-0.72421 -0.22556,-8.0898 -0.22556,-8.0898 l 2.37988,-8.96128 5.89748,-10.97532 1.17419,-6.25497 -5.69848,-1.23445 -7.71683,-3.49046 -5.56746,-3.79066 c 0,0 -4.05579,-3.55875 -3.28709,-6.64706 0.76871,-3.0883 9.77166,-7.45574 9.77166,-7.45574 l 12.08354,-6.76347 12.24608,-5.77101 12.57114,-3.78608 10.90936,-0.5085 c 0,0 4.36597,-0.48526 6.15456,0.66317 1.78858,1.14843 3.12455,5.65459 3.12455,5.65459 l 1.46277,8.93218 -2.37988,8.96128 -3.64861,4.57024 6.96721,5.62549 7.29226,7.61041 c 0,0 4.31364,6.05373 1.46278,8.93218 z" /><path
         style="fill:none;stroke:#000000;stroke-width:1.42381549;stroke-linecap:butt;stroke-linejoin:miter;stroke-miterlimit:4;stroke-dasharray:none;stroke-opacity:1"
         id="path3570"
         d="m 545.75036,137.63866 c 0,0 -8.36827,-0.84878 -12.76518,-0.75505 -4.39692,0.0937 -9.51451,0.3343 -13.51481,1.37997 -4.0003,1.04567 -10.25924,4.47835 -10.25924,4.47835 l -6.41658,4.44925 0.78113,1.41364 6.28557,-1.89304 c 0,0 5.772,-4.10274 9.02203,-5.32072 3.25003,-1.21798 10.12823,-1.92214 10.12823,-1.92214 z"
         inkscape:connector-curvature="0" /></g><text
       sodipodi:linespacing="125%"
       id="text4436"
       y="225.4185"
       x="561.82428"
       style="font-style:normal;font-weight:bold;font-size:18px;line-height:125%;font-family:Sans;-inkscape-font-specification:'Sans Bold';text-align:center;letter-spacing:0px;word-spacing:0px;text-anchor:middle;fill:#000000;fill-opacity:1;stroke:none"
       xml:space="preserve"><tspan
         style="font-style:normal;font-variant:normal;font-weight:bold;font-stretch:normal;font-family:'noto sans';-inkscape-font-specification:'noto sans Bold'"
         id="tspan4438"
         y="225.4185"
         x="561.82428"
         sodipodi:role="line">25%</tspan><tspan
         style="font-style:normal;font-variant:normal;font-weight:bold;font-stretch:normal;font-family:'noto sans';-inkscape-font-specification:'noto sans Bold'"
         id="tspan4440"
         y="247.9185"
         x="561.82428"
         sodipodi:role="line">Sucrose</tspan></text>
<text
       sodipodi:linespacing="125%"
       id="text4456"
       y="288.19592"
       x="550.89716"
       style="font-style:normal;font-weight:bold;font-size:18px;line-height:125%;font-family:Sans;-inkscape-font-specification:'Sans Bold';letter-spacing:0px;word-spacing:0px;fill:#000000;fill-opacity:1;stroke:none"
       xml:space="preserve"><tspan
         style="font-size:36px"
         y="288.19592"
         x="550.89716"
         id="tspan4458"
         sodipodi:role="line">C</tspan></text>
<g
       transform="matrix(0.99722199,0.07448698,-0.07448698,0.99722199,19.284858,-7.5922)"
       id="g4345"><path
         sodipodi:nodetypes="cssscsccscccscssccccccc"
         inkscape:connector-curvature="0"
         style="fill:none;stroke:#000000;stroke-width:1.45317578;stroke-linecap:butt;stroke-linejoin:miter;stroke-miterlimit:4;stroke-dasharray:none;stroke-opacity:1"
         id="path3586"
         d="m 600.35692,84.972071 c 0,0 -0.51565,15.752689 -0.53404,23.631379 -0.0157,6.72502 -0.22481,13.46766 0.36165,20.17257 1.58553,18.12734 4.86611,36.1288 8.51747,54.02006 2.25272,11.03805 8.25055,32.84726 8.25055,32.84726 0,0 8.46055,4.64321 13.16187,5.93644 5.37135,1.47754 16.72712,1.9553 16.72712,1.9553 l 22.7154,-5.48648 c 0,0 9.75103,-1.64756 12.92718,1.46602 3.17615,3.11358 0.41335,13.62909 0.41335,13.62909 l -1.41511,16.71018 6.78065,-25.37628 c 0,0 -0.152,-15.81803 -0.59418,-23.71538 -0.70133,-12.52587 -3.26397,-37.51243 -3.26397,-37.51243 0,0 -2.27197,-20.7982 -4.44389,-31.05294 -3.12749,-14.76656 -8.69903,-29.05245 -12.33278,-43.727633 -1.51171,-6.105157 -3.9358,-18.424086 -3.9358,-18.424086 l -0.14643,7.543714 -2.54066,2.832705 -13.34918,-3.008357 -22.04768,-1.137722 -20.35968,5.031639 z" /><path
         style="fill:none;stroke:#000000;stroke-width:1.45317578;stroke-linecap:butt;stroke-linejoin:miter;stroke-miterlimit:4;stroke-dasharray:none;stroke-opacity:1"
         id="path3588"
         d="m 605.67034,214.80342 c -3.5966,4.51308 7.21956,9.7451 11.69556,14.469 4.47601,4.72389 10.74866,10.06772 15.17497,13.72075 4.4263,3.65302 6.4988,6.7636 11.13577,8.38363 4.63699,1.62003 9.95375,0.72868 15.27836,0.63377 5.3246,-0.0949 13.16146,-1.06142 16.59605,-1.28269 3.4346,-0.22127 3.99615,-0.20615 3.99615,-0.20615 l 4.4268,-10.75054 c 0,0 0.32363,-6.58187 -0.18083,-10.08629 -0.50447,-3.50442 3.06561,-6.2786 -2.95402,-10.79638 -6.01962,-4.51778 -28.01686,4.63672 -37.89447,4.22988 -9.87761,-0.40684 -14.42472,-2.65065 -20.63524,-4.05441 -6.21053,-1.40377 -13.04251,-8.77365 -16.6391,-4.26057 z"
         inkscape:connector-curvature="0" /><path
         sodipodi:nodetypes="szczzcczccssss"
         inkscape:connector-curvature="0"
         style="fill:none;stroke:#000000;stroke-width:1.45317578;stroke-linecap:butt;stroke-linejoin:miter;stroke-miterlimit:4;stroke-dasharray:none;stroke-opacity:1"
         id="path3590"
         d="m 639.69008,250.7938 c -2.67986,8.92852 -1.57491,8.71275 -1.14645,12.7919 0.42845,4.07915 3.47075,11.33849 3.47075,11.33849 0,0 7.83247,4.19143 14.19318,6.09304 6.3607,1.9016 17.53609,4.05931 24.0199,4.30639 6.48382,0.24708 14.33962,-1.45068 14.33962,-1.45068 l 4.46984,-5.20729 c 0,0 -0.98165,-7.35229 -2.95401,-10.79638 -1.97236,-3.44409 -8.7846,-9.21588 -8.7846,-9.21588 l -5.34435,-8.73132 c 0,0 -6.41694,4.55091 -10.26127,5.55498 -3.14907,0.82249 -6.56276,0.21315 -9.84565,0.21654 -3.85441,0.004 -11.12036,1.05795 -14.82001,0.0994 -2.89742,-0.75073 -6.23316,-8.67666 -7.33695,-4.99915 z" /><path
         sodipodi:nodetypes="sssssscccccccscccccsccccccs"
         inkscape:connector-curvature="0"
         style="fill:none;stroke:#000000;stroke-width:1.45317578;stroke-linecap:butt;stroke-linejoin:miter;stroke-miterlimit:4;stroke-dasharray:none;stroke-opacity:1"
         id="path3592"
         d="m 662.83974,79.047203 c -3.64124,2.189951 -11.04372,-1.130252 -16.36741,-1.950576 -5.39464,-0.831255 -8.96972,-1.513913 -14.42923,-1.142994 -6.66795,0.453021 -12.91519,1.566457 -19.30595,3.312939 -5.08123,1.388602 -8.15072,1.999305 -12.68738,4.457929 -2.0492,1.110552 -6.66609,4.814342 -9.00284,3.576325 -2.33675,-1.238018 1.88613,-7.917844 1.88613,-7.917844 l 4.75406,-8.207979 8.84495,-9.414355 2.82488,-5.833391 -5.45163,-2.420419 -6.90711,-5.046977 -4.65067,-4.878993 c 0,0 -3.17949,-4.329882 -1.59327,-7.169592 1.58623,-2.83971 11.85065,-5.161459 11.85065,-5.161459 l 14.01235,-3.993246 13.91762,-2.993018 13.72813,-0.992562 11.18747,1.840143 c 0,0 4.55092,0.462351 6.06311,1.962301 1.51218,1.49995 1.68801,6.169358 1.68801,6.169358 l -0.85266,9.002066 -4.75406,8.207979 -4.89184,3.664951 5.58941,6.963449 5.39993,8.963903 c 0,0 2.78858,6.812111 -0.85265,9.002062 z" /><path
         style="fill:none;stroke:#000000;stroke-width:1.45317578;stroke-linecap:butt;stroke-linejoin:miter;stroke-miterlimit:4;stroke-dasharray:none;stroke-opacity:1"
         id="path3594"
         d="m 653.83127,54.201784 c 0,0 -8.25776,-2.616638 -12.7377,-3.466481 -4.47993,-0.849843 -9.72851,-1.711075 -14.05539,-1.550008 -4.32688,0.161066 -11.56643,2.160774 -11.56643,2.160774 l -7.66503,2.954856 0.422,1.54234 6.86407,-0.496281 c 0,0 6.92129,-2.755734 10.53295,-3.244993 3.61166,-0.48926 10.76547,0.297807 10.76547,0.297807 z"
         inkscape:connector-curvature="0" /></g><text
       xml:space="preserve"
       style="font-style:normal;font-weight:bold;font-size:18px;line-height:125%;font-family:Sans;-inkscape-font-specification:'Sans Bold';text-align:center;letter-spacing:0px;word-spacing:0px;text-anchor:middle;fill:#000000;fill-opacity:1;stroke:none"
       x="647.82428"
       y="173.4185"
       id="text4442"
       sodipodi:linespacing="125%"><tspan
         style="font-style:normal;font-variant:normal;font-weight:bold;font-stretch:normal;font-family:'noto sans';-inkscape-font-specification:'noto sans Bold'"
         sodipodi:role="line"
         x="647.82428"
         y="173.4185"
         id="tspan4444">50%</tspan><tspan
         style="font-style:normal;font-variant:normal;font-weight:bold;font-stretch:normal;font-family:'noto sans';-inkscape-font-specification:'noto sans Bold'"
         sodipodi:role="line"
         x="647.82428"
         y="195.9185"
         id="tspan4446">Sucrose</tspan></text>
<text
       xml:space="preserve"
       style="font-style:normal;font-weight:bold;font-size:18px;line-height:125%;font-family:Sans;-inkscape-font-specification:'Sans Bold';letter-spacing:0px;word-spacing:0px;fill:#000000;fill-opacity:1;stroke:none"
       x="641.19574"
       y="232.41"
       id="text4460"
       sodipodi:linespacing="125%"><tspan
         sodipodi:role="line"
         id="tspan4462"
         x="641.19574"
         y="232.41"
         style="font-size:36px">D</tspan></text>
<ellipse
       ry="5.6281691"
       rx="160.09013"
       cy="11.418485"
       cx="88.869019"
       id="path4327"
       style="opacity:0.98999999;fill:#78dcfa;fill-opacity:1;stroke:#000000;stroke-width:1.29999995;stroke-miterlimit:4;stroke-dasharray:none;stroke-dashoffset:0;stroke-opacity:0.59615383" /><ellipse
       style="opacity:0.98999999;fill:#78dcfa;fill-opacity:1;stroke:#000000;stroke-width:1.29999995;stroke-miterlimit:4;stroke-dasharray:none;stroke-dashoffset:0;stroke-opacity:0.59615383"
       id="ellipse4329"
       cx="544.86902"
       cy="11.418485"
       rx="160.09013"
       ry="5.6281691" /></g></svg>