<?xml version="1.0" encoding="UTF-8" standalone="no"?>
<!-- Generator: Adobe Illustrator 18.0.0, SVG Export Plug-In . SVG Version: 6.00 Build 0)  -->

<svg
   xmlns:dc="http://purl.org/dc/elements/1.1/"
   xmlns:cc="http://creativecommons.org/ns#"
   xmlns:rdf="http://www.w3.org/1999/02/22-rdf-syntax-ns#"
   xmlns:svg="http://www.w3.org/2000/svg"
   xmlns="http://www.w3.org/2000/svg"
   xmlns:sodipodi="http://sodipodi.sourceforge.net/DTD/sodipodi-0.dtd"
   xmlns:inkscape="http://www.inkscape.org/namespaces/inkscape"
   version="1.1"
   id="svg3494"
   sodipodi:docname="gummybear-osmosis revised.svg"
   inkscape:version="0.48.4 r9939"
   sodipodi:version="0.32"
   inkscape:output_extension="org.inkscape.output.svg.inkscape"
   x="0px"
   y="0px"
   viewBox="0 0 713 252"
   enable-background="new 0 0 400 250"
   xml:space="preserve"
   width="100%"
   height="100%"
   inkscape:export-filename="/home/jeremy/Dropbox/City Tech/grants/REED-Graphics/exercises/osmosis/gummybear-osmosis.png"
   inkscape:export-xdpi="300"
   inkscape:export-ydpi="300"><metadata
     id="metadata170"><rdf:RDF><cc:Work
         rdf:about=""><dc:format>image/svg+xml</dc:format><dc:type
           rdf:resource="http://purl.org/dc/dcmitype/StillImage" /><dc:title></dc:title></cc:Work></rdf:RDF></metadata><filter
     width="1.1200063"
     height="1.2190895"
     id="filter3585"
     x="-0.060003161"
     y="-0.10954477"
     color-interpolation-filters="sRGB"><feGaussianBlur
       stdDeviation="6.3281542"
       id="feGaussianBlur3587"
       inkscape:collect="always" /></filter><filter
     width="1.355006"
     height="1.355006"
     id="filter3581"
     x="-0.17750297"
     y="-0.17750297"
     color-interpolation-filters="sRGB"><feGaussianBlur
       stdDeviation="7.9616138"
       id="feGaussianBlur3583"
       inkscape:collect="always" /></filter><filter
     width="1.3268805"
     height="1.3268805"
     id="filter3577"
     x="-0.16344026"
     y="-0.16344026"
     color-interpolation-filters="sRGB"><feGaussianBlur
       stdDeviation="7.3308529"
       id="feGaussianBlur3579"
       inkscape:collect="always" /></filter><filter
     id="filter3542"
     color-interpolation-filters="sRGB"><feGaussianBlur
       stdDeviation="3.3786083"
       id="feGaussianBlur3544"
       inkscape:collect="always" /></filter><filter
     width="1.1858597"
     height="1.2327586"
     id="filter3314"
     x="-0.092929855"
     y="-0.1163793"
     color-interpolation-filters="sRGB"><feGaussianBlur
       stdDeviation="2.900428"
       id="feGaussianBlur3316"
       inkscape:collect="always" /></filter><filter
     id="filter3310"
     color-interpolation-filters="sRGB"><feGaussianBlur
       stdDeviation="2.900428"
       id="feGaussianBlur3312"
       inkscape:collect="always" /></filter><filter
     id="filter3306"
     color-interpolation-filters="sRGB"><feGaussianBlur
       stdDeviation="2.900428"
       id="feGaussianBlur3308"
       inkscape:collect="always" /></filter><filter
     width="1.1956547"
     height="1.2327616"
     id="filter3302"
     x="-0.097827345"
     y="-0.11638081"
     color-interpolation-filters="sRGB"><feGaussianBlur
       stdDeviation="2.900428"
       id="feGaussianBlur3304"
       inkscape:collect="always" /></filter><filter
     width="1.4513324"
     height="1.4513324"
     id="filter3298"
     x="-0.22566627"
     y="-0.22566627"
     color-interpolation-filters="sRGB"><feGaussianBlur
       stdDeviation="2.900428"
       id="feGaussianBlur3300"
       inkscape:collect="always" /></filter><filter
     width="1.4513324"
     height="1.4513324"
     id="filter3294"
     x="-0.22566627"
     y="-0.22566627"
     color-interpolation-filters="sRGB"><feGaussianBlur
       stdDeviation="2.900428"
       id="feGaussianBlur3296"
       inkscape:collect="always" /></filter><filter
     width="1.2174053"
     height="1.3086705"
     id="filter3288"
     x="-0.10870267"
     y="-0.15433526"
     color-interpolation-filters="sRGB"><feGaussianBlur
       stdDeviation="1.7880077"
       id="feGaussianBlur3290"
       inkscape:collect="always" /></filter><filter
     id="filter3286"
     color-interpolation-filters="sRGB"><feGaussianBlur
       stdDeviation="2.586684"
       id="feGaussianBlur3288"
       inkscape:collect="always" /></filter><filter
     width="1.2174053"
     height="1.3086705"
     id="filter3284"
     x="-0.10870267"
     y="-0.15433526"
     color-interpolation-filters="sRGB"><feGaussianBlur
       stdDeviation="1.7880077"
       id="feGaussianBlur3286"
       inkscape:collect="always" /></filter><filter
     width="1.3159972"
     height="1.3159972"
     id="filter3282"
     x="-0.15799861"
     y="-0.15799861"
     color-interpolation-filters="sRGB"><feGaussianBlur
       stdDeviation="5.9678119"
       id="feGaussianBlur3284"
       inkscape:collect="always" /></filter><filter
     width="1.3159972"
     height="1.3159972"
     id="filter3278"
     x="-0.15799861"
     y="-0.15799861"
     color-interpolation-filters="sRGB"><feGaussianBlur
       stdDeviation="5.9678119"
       id="feGaussianBlur3280"
       inkscape:collect="always" /></filter><defs
     id="defs33"><inkscape:perspective
       sodipodi:type="inkscape:persp3d"
       inkscape:vp_y="0 : 1000 : 0"
       inkscape:vp_x="0 : 526.18109 : 1"
       inkscape:vp_z="744.09448 : 526.18109 : 1"
       id="perspective3502"
       inkscape:persp3d-origin="372.04724 : 350.78739 : 1" /><inkscape:perspective
       sodipodi:type="inkscape:persp3d"
       inkscape:vp_y="0 : 1000 : 0"
       inkscape:vp_x="0 : 526.18109 : 1"
       inkscape:vp_z="744.09448 : 526.18109 : 1"
       id="perspective3511"
       inkscape:persp3d-origin="372.04724 : 350.78739 : 1" /><filter
       width="1.1200063"
       height="1.2190895"
       id="filter3585-2"
       x="-0.060003161"
       y="-0.10954477"
       color-interpolation-filters="sRGB"><feGaussianBlur
         stdDeviation="6.3281542"
         id="feGaussianBlur3587-8"
         inkscape:collect="always" /></filter><filter
       width="1.3268805"
       height="1.3268805"
       id="filter3577-3"
       x="-0.16344026"
       y="-0.16344026"
       color-interpolation-filters="sRGB"><feGaussianBlur
         stdDeviation="7.3308529"
         id="feGaussianBlur3579-3"
         inkscape:collect="always" /></filter><filter
       width="1.355006"
       height="1.355006"
       id="filter3581-9"
       x="-0.17750297"
       y="-0.17750297"
       color-interpolation-filters="sRGB"><feGaussianBlur
         stdDeviation="7.9616138"
         id="feGaussianBlur3583-7"
         inkscape:collect="always" /></filter><filter
       id="filter3542-0"
       color-interpolation-filters="sRGB"><feGaussianBlur
         stdDeviation="3.3786083"
         id="feGaussianBlur3544-7"
         inkscape:collect="always" /></filter><filter
       id="filter3286-3"
       color-interpolation-filters="sRGB"><feGaussianBlur
         stdDeviation="2.586684"
         id="feGaussianBlur3288-3"
         inkscape:collect="always" /></filter><filter
       width="1.3268805"
       height="1.3268805"
       id="filter3167"
       x="-0.16344026"
       y="-0.16344026"
       color-interpolation-filters="sRGB"><feGaussianBlur
         stdDeviation="7.3308529"
         id="feGaussianBlur3169"
         inkscape:collect="always" /></filter><filter
       width="1.3268805"
       height="1.3268805"
       id="filter3171"
       x="-0.16344026"
       y="-0.16344026"
       color-interpolation-filters="sRGB"><feGaussianBlur
         stdDeviation="7.3308529"
         id="feGaussianBlur3173"
         inkscape:collect="always" /></filter><filter
       width="1.3159972"
       height="1.3159972"
       id="filter3278-9"
       x="-0.15799861"
       y="-0.15799861"
       color-interpolation-filters="sRGB"><feGaussianBlur
         stdDeviation="5.9678119"
         id="feGaussianBlur3280-6"
         inkscape:collect="always" /></filter><filter
       width="1.3159972"
       height="1.3159972"
       id="filter3282-9"
       x="-0.15799861"
       y="-0.15799861"
       color-interpolation-filters="sRGB"><feGaussianBlur
         stdDeviation="5.9678119"
         id="feGaussianBlur3284-4"
         inkscape:collect="always" /></filter><filter
       width="1.1858597"
       height="1.2327586"
       id="filter3314-2"
       x="-0.092929855"
       y="-0.1163793"
       color-interpolation-filters="sRGB"><feGaussianBlur
         stdDeviation="2.900428"
         id="feGaussianBlur3316-9"
         inkscape:collect="always" /></filter><filter
       width="1.1956547"
       height="1.2327616"
       id="filter3302-6"
       x="-0.097827345"
       y="-0.11638081"
       color-interpolation-filters="sRGB"><feGaussianBlur
         stdDeviation="2.900428"
         id="feGaussianBlur3304-2"
         inkscape:collect="always" /></filter><filter
       id="filter3310-5"
       color-interpolation-filters="sRGB"><feGaussianBlur
         stdDeviation="2.900428"
         id="feGaussianBlur3312-5"
         inkscape:collect="always" /></filter><filter
       id="filter3306-0"
       color-interpolation-filters="sRGB"><feGaussianBlur
         stdDeviation="2.900428"
         id="feGaussianBlur3308-9"
         inkscape:collect="always" /></filter><filter
       width="1.4513324"
       height="1.4513324"
       id="filter3294-9"
       x="-0.22566627"
       y="-0.22566627"
       color-interpolation-filters="sRGB"><feGaussianBlur
         stdDeviation="2.900428"
         id="feGaussianBlur3296-9"
         inkscape:collect="always" /></filter><filter
       width="1.4513324"
       height="1.4513324"
       id="filter3298-9"
       x="-0.22566627"
       y="-0.22566627"
       color-interpolation-filters="sRGB"><feGaussianBlur
         stdDeviation="2.900428"
         id="feGaussianBlur3300-3"
         inkscape:collect="always" /></filter><filter
       width="1.2174053"
       height="1.3086705"
       id="filter3288-4"
       x="-0.10870267"
       y="-0.15433526"
       color-interpolation-filters="sRGB"><feGaussianBlur
         stdDeviation="1.7880077"
         id="feGaussianBlur3290-1"
         inkscape:collect="always" /></filter><filter
       width="1.2174053"
       height="1.3086705"
       id="filter3284-6"
       x="-0.10870267"
       y="-0.15433526"
       color-interpolation-filters="sRGB"><feGaussianBlur
         stdDeviation="1.7880077"
         id="feGaussianBlur3286-6"
         inkscape:collect="always" /></filter></defs><sodipodi:namedview
     bordercolor="#666666"
     showgrid="false"
     pagecolor="#ffffff"
     inkscape:cy="21.715449"
     borderopacity="1.0"
     inkscape:zoom="0.98994949"
     inkscape:cx="360.76908"
     id="base"
     inkscape:window-width="1920"
     inkscape:pageopacity="0.0"
     inkscape:current-layer="layer1"
     inkscape:window-x="0"
     inkscape:document-units="px"
     inkscape:window-y="0"
     inkscape:window-maximized="1"
     inkscape:pageshadow="2"
     inkscape:window-height="1030" /><g
     id="layer1"
     transform="translate(-5.2746644,-0.6897639)"
     inkscape:label="Camada 1"
     inkscape:groupmode="layer"><path
       id="path4060"
       sodipodi:nodetypes="ccccccc"
       inkscape:connector-curvature="0"
       d="m 185.40956,145.58924 -13.3,24.3 c -6.7,22.9 -21.3,45 1.6,70.8 29.1,17.1 131,14 159.2,2.7 25.3,-21.2 16.1,-41.2 10.2,-61.4 -4.2,-11.2 -11.1,-23.8 -17.2,-36 l -140.5,-0.4 z"
       style="fill:#00b5e6;fill-opacity:0.65380004"
       inkscape:export-filename="/home/jeremy/Dropbox/City Tech/grants/REED-Graphics/exercises/osmosis/text4170.png"
       inkscape:export-xdpi="300"
       inkscape:export-ydpi="300" /><path
       id="path3517"
       sodipodi:nodetypes="cssssc"
       inkscape:connector-curvature="0"
       d="m 209.00956,6.7892363 c 0,0 11.1,8.0999997 13.3,13.2999997 5.7,13.4 3.6,34.2 0.8,48.5 -9.1,45.500004 -62.6,95.300004 -61.8,141.600004 0.2,10.3 6.2,25.4 14.9,30.9 20,12.7 79.8,9.8 79.8,9.8"
       style="fill:none;stroke:#000000;stroke-width:2.5"
       inkscape:export-filename="/home/jeremy/Dropbox/City Tech/grants/REED-Graphics/exercises/osmosis/text4170.png"
       inkscape:export-xdpi="300"
       inkscape:export-ydpi="300" /><path
       id="path4028"
       sodipodi:nodetypes="cssssc"
       inkscape:connector-curvature="0"
       d="m 301.90956,6.7892363 c 0,0 -11.1,8.0999997 -13.3,13.2999997 -5.7,13.4 -3.6,34.2 -0.8,48.5 9.1,45.500004 62.7,95.300004 61.8,141.600004 -0.2,10.3 -6.2,25.4 -14.9,30.9 -20,12.7 -79.8,9.8 -79.8,9.8"
       style="fill:none;stroke:#000000;stroke-width:2.5"
       inkscape:export-filename="/home/jeremy/Dropbox/City Tech/grants/REED-Graphics/exercises/osmosis/text4170.png"
       inkscape:export-xdpi="300"
       inkscape:export-ydpi="300" /><g
       id="g4820"
       transform="matrix(1.640801,0,0,1.640801,162.29791,-164.17835)"
       inkscape:export-filename="/home/jeremy/Dropbox/City Tech/grants/REED-Graphics/exercises/osmosis/text4170.png"
       inkscape:export-xdpi="300"
       inkscape:export-ydpi="300"><text
         transform="matrix(0.6095,0,0,0.6095,39.4662,175.7503)"
         font-size="29.5344"
         id="text43"
         style="font-size:29.53440094px;font-family:MyriadPro-Regular">H</text>
<text
         transform="matrix(0.6095,0,0,0.6095,59.1643,175.4955)"
         font-size="29.5344"
         id="text45"
         style="font-size:29.53440094px;font-family:MyriadPro-Regular">O</text>
<text
         transform="matrix(0.6095,0,0,0.6095,53.1634,181.5585)"
         font-size="17.8101"
         id="text47"
         style="font-size:17.81010056px;font-family:MyriadPro-Regular">2</text>
</g><g
       id="g3423"
       transform="translate(153.30956,4.9892363)"
       style="fill:#00b400;fill-opacity:1"
       inkscape:export-filename="/home/jeremy/Dropbox/City Tech/grants/REED-Graphics/exercises/osmosis/text4170.png"
       inkscape:export-xdpi="300"
       inkscape:export-ydpi="300"><path
         id="path4836"
         inkscape:connector-curvature="0"
         d="m 62.515912,204.14731 c -1.031367,3.98587 1.357522,8.03163 5.343392,9.063 3.631158,0.9377 7.31446,-0.95664 8.728107,-4.31457 2.161491,1.79338 4.728953,3.16695 7.611272,3.90693 2.744376,0.70356 5.501704,0.79921 8.127731,0.35427 -0.284744,0.59938 -0.515573,1.23408 -0.692486,1.90409 -1.525685,5.85797 1.994433,11.84668 7.872106,13.37757 4.320876,1.11982 8.712496,-0.50318 11.326346,-3.77608 2.04458,3.91269 5.66257,6.97602 10.27904,8.17389 8.64175,2.23965 17.45566,-2.95871 19.69531,-11.60047 1.3956,-5.36531 -0.0803,-10.79317 -3.47971,-14.68416 4.84818,-1.75541 8.78224,-5.79697 10.17784,-11.16228 2.23965,-8.64175 -2.95871,-17.45566 -11.60047,-19.69531 -4.59676,-1.19267 -9.26582,-0.27533 -12.94647,2.16781 -0.70201,-4.12736 -3.75006,-7.67261 -8.07094,-8.79243 -5.85796,-1.52569 -11.84668,1.99443 -13.37756,7.87211 -0.14049,0.53207 -0.23637,1.05484 -0.28763,1.56831 -2.07447,-1.64393 -4.510298,-2.87734 -7.215261,-3.57049 -2.862613,-0.73478 -5.753789,-0.80253 -8.479455,-0.29958 0.03642,-0.13794 0.09255,-0.27068 0.128977,-0.40863 1.031367,-3.98587 -1.352318,-8.05134 -5.338189,-9.08271 -3.985871,-1.03136 -8.031635,1.35753 -9.063002,5.3434 -0.974131,3.7691 1.130677,7.61337 4.737701,8.88199 -2.741829,2.48022 -4.80689,5.75047 -5.801834,9.5984 -0.844048,3.27644 -0.822902,6.54945 -0.05258,9.61976 -3.492771,-0.18444 -6.726149,2.08167 -7.62223,5.55518 z"
         style="fill:#00b400;fill-opacity:1" /><g
         transform="matrix(0.19706275,0.05203336,-0.05203336,0.19706275,83.004772,141.32071)"
         id="path4838"
         inkscape:connector-curvature="0"
         style="fill:#00b400;fill-opacity:1;filter:url(#filter3585)"><path
           d="m 212.6,302.8 c 0.2,40.6 34.3,73.5 76.2,73.3 41.9,-0.2 75.7,-33.3 75.5,-74 -0.1,-25.2 -13.3,-47.4 -33.3,-60.6 19.9,-13.4 32.9,-35.7 32.8,-60.9 -0.2,-40.6 -34.3,-73.4 -76.2,-73.2 -41.9,0.2 -75.7,33.3 -75.5,73.9 0.1,25.2 13.3,47.4 33.3,60.6 -19.9,13.4 -32.9,35.7 -32.8,60.9 z"
           id="path52"
           inkscape:connector-curvature="0"
           style="fill:#00b400;fill-opacity:1" /></g><g
         transform="matrix(0.19706275,0.05203336,-0.05203336,0.19706275,83.004772,141.32071)"
         id="path4840"
         inkscape:connector-curvature="0"
         style="fill:#00b400;fill-opacity:1;filter:url(#filter3577)"><path
           d="m 186.9,292.4 c 25.7,-0.1 46.6,20.6 46.7,46.2 0.1,25.7 -20.6,46.6 -46.2,46.7 0,0 0,0 0,0 -25.7,0.1 -46.6,-20.6 -46.7,-46.2 -0.2,-25.7 20.5,-46.6 46.2,-46.7 0,0 0,0 0,0 z"
           id="path55"
           inkscape:connector-curvature="0"
           style="fill:#00b400;fill-opacity:1" /></g><g
         transform="matrix(0.19706275,0.05203336,-0.05203336,0.19706275,83.004772,141.32071)"
         id="path4842"
         inkscape:connector-curvature="0"
         style="fill:#00b400;fill-opacity:1;filter:url(#filter3581)"><path
           d="m 186.4,188.4 c 23.6,-0.1 42.7,-19.3 42.6,-43 -0.1,-23.6 -19.3,-42.7 -43,-42.6 0,0 0,0 0,0 -23.6,0.1 -42.7,19.3 -42.6,43 0.1,23.6 19.4,42.7 43,42.6 0,0 0,0 0,0 z"
           id="path58"
           inkscape:connector-curvature="0"
           style="fill:#00b400;fill-opacity:1" /></g><g
         transform="matrix(0.19706275,0.05203336,-0.05203336,0.19706275,83.004772,141.32071)"
         id="path4844"
         inkscape:connector-curvature="0"
         style="fill:#00b400;fill-opacity:1;filter:url(#filter3542)"><path
           d="m 96.5,154.2 c 49.3,-0.2 89.5,39.5 89.7,88.8 0.2,49.3 -39.5,89.5 -88.8,89.7 0,0 -0.1,0 -0.1,0 C 48,332.9 7.9,293.1 7.6,243.8 7.4,194.5 47.2,154.4 96.5,154.2 l 0,0 z"
           id="path61"
           inkscape:connector-curvature="0"
           style="fill:#00b400;fill-opacity:1" /></g><g
         transform="matrix(0.19706275,0.05203336,-0.05203336,0.19706275,83.004772,141.32071)"
         id="path4848"
         inkscape:connector-curvature="0"
         style="fill:#00b400;fill-opacity:1;filter:url(#filter3577)"><path
           d="m -14.8,323.8 c 0.1,17.4 14.3,31.5 31.7,31.4 17.3,-0.1 31.2,-14 31.4,-31.2 -13.1,-8 -24.1,-18.9 -32.2,-31.9 -17.2,0.3 -31,14.4 -30.9,31.7 z"
           id="path67"
           inkscape:connector-curvature="0"
           style="fill:#00b400;fill-opacity:1" /></g><g
         transform="matrix(0.19706275,0.05203336,-0.05203336,0.19706275,83.004772,141.32071)"
         id="path4850"
         inkscape:connector-curvature="0"
         style="fill:#00b400;fill-opacity:1;filter:url(#filter3577)"><path
           d="m -16.4,153.8 c 0.1,17.4 14.3,31.5 31.7,31.4 1.5,0 3.1,-0.1 4.5,-0.4 7.1,-9.9 16,-18.4 26.3,-25 0,0 0,0 0,0 0.4,-2.1 0.6,-4.2 0.6,-6.4 C 46.6,136 32.4,121.9 15,122 c -17.3,0.2 -31.4,14.4 -31.4,31.8 l 0,0 z"
           id="path70"
           inkscape:connector-curvature="0"
           style="fill:#00b400;fill-opacity:1" /></g><g
         transform="matrix(0.19706275,0.05203336,-0.05203336,0.19706275,83.004772,141.32071)"
         id="path4854"
         inkscape:connector-curvature="0"
         style="fill:#00b400;fill-opacity:1;filter:url(#filter3278)"><path
           d="m 8.7,322.2 c 0.1,10.9 7.1,19.7 15.6,19.7 8.5,0 15.5,-8.9 15.4,-19.8 0,-0.3 0,-0.5 0,-0.8 -7.3,-5 -13.6,-11.3 -18.8,-18.4 -7,1.9 -12.3,9.8 -12.2,19.3 z"
           id="path74"
           inkscape:connector-curvature="0"
           style="fill:#00b400;fill-opacity:1" /></g><g
         transform="matrix(0.19706275,0.05203336,-0.05203336,0.19706275,83.004772,141.32071)"
         id="path4856"
         inkscape:connector-curvature="0"
         style="fill:#00b400;fill-opacity:1;filter:url(#filter3282)"><path
           d="m 3.9,151.8 c 0.1,11 8.4,19.8 18.6,19.8 1.6,0 3.1,-0.3 4.6,-0.7 0,0 0,0 0,0 3.4,-3.1 7,-5.9 10.9,-8.5 1.9,-3.1 2.9,-6.8 2.9,-10.8 -0.1,-11 -8.4,-19.8 -18.6,-19.8 -10.2,0 -18.5,9.1 -18.4,20 l 0,0 z"
           id="path77"
           inkscape:connector-curvature="0"
           style="fill:#00b400;fill-opacity:1" /></g><g
         transform="matrix(0.19706275,0.05203336,-0.05203336,0.19706275,83.004772,141.32071)"
         id="path4858"
         inkscape:connector-curvature="0"
         style="fill:#00b400;fill-opacity:1;filter:url(#filter3314)"><path
           d="m 143.4,339.6 c 0.1,21 13.6,38.1 30.1,38 16.5,-0.1 29.8,-17.2 29.7,-38.3 -0.1,-17.6 -9.5,-32.4 -22.3,-36.7 -7,17.2 -20.6,30.6 -37.5,36.5 0,0.2 0,0.4 0,0.5 z"
           id="path80"
           inkscape:connector-curvature="0"
           style="fill:#00b400;fill-opacity:1" /></g><g
         transform="matrix(0.19706275,0.05203336,-0.05203336,0.19706275,83.004772,141.32071)"
         id="path4860"
         inkscape:connector-curvature="0"
         style="fill:#00b400;fill-opacity:1;filter:url(#filter3302)"><path
           d="m 142.5,145.8 c 0,0.9 0.1,1.8 0.1,2.7 3.6,-1.4 7.6,-2.3 11.7,-2.3 17.7,-0.1 32.3,14.3 33.1,32.4 9,-6.6 15,-19 14.9,-33.1 -0.1,-21 -13.6,-38.1 -30.1,-38 -16.5,0.1 -29.8,17.2 -29.7,38.3 z"
           id="path83"
           inkscape:connector-curvature="0"
           style="fill:#00b400;fill-opacity:1" /></g><g
         transform="matrix(0.19706275,0.05203336,-0.05203336,0.19706275,83.004772,141.32071)"
         id="path4866"
         inkscape:connector-curvature="0"
         style="fill:#00b400;fill-opacity:1;filter:url(#filter3294)"><path
           d="m 67.5,195.2 c 8.5,0 15.5,6.8 15.5,15.4 0,8.5 -6.8,15.4 -15.3,15.5 -8.5,0 -15.5,-6.8 -15.5,-15.3 -0.1,-8.6 6.8,-15.6 15.3,-15.6 0,0 0,0 0,0 z"
           id="path92"
           inkscape:connector-curvature="0"
           style="fill:#00b400;fill-opacity:1" /></g><g
         transform="matrix(0.19706275,0.05203336,-0.05203336,0.19706275,83.004772,141.32071)"
         id="path4868"
         inkscape:connector-curvature="0"
         style="fill:#00b400;fill-opacity:1;filter:url(#filter3298)"><path
           d="m 67.8,255.2 c 8.5,0 15.5,6.8 15.5,15.4 0,8.5 -6.8,15.4 -15.3,15.5 -8.5,0 -15.5,-6.8 -15.5,-15.3 -0.1,-8.6 6.7,-15.6 15.3,-15.6 0,0 0,0 0,0 z"
           id="path95"
           inkscape:connector-curvature="0"
           style="fill:#00b400;fill-opacity:1" /></g><g
         transform="matrix(0.19706275,0.05203336,-0.05203336,0.19706275,83.004772,141.32071)"
         id="path4870"
         inkscape:connector-curvature="0"
         style="fill:#00b400;fill-opacity:1;filter:url(#filter3288)"><path
           d="m 12.2,354.7 c -30.8,-8.3 -25.6,-37.4 -25.6,-37.4"
           id="path98"
           inkscape:connector-curvature="0"
           style="fill:#00b400;fill-opacity:1" /><path
           d="m 12.2,354.7 c -30.8,-8.3 -25.6,-37.4 -25.6,-37.4"
           id="path100"
           inkscape:connector-curvature="0"
           style="fill:#00b400;fill-opacity:1;stroke:#ffffff;stroke-width:2" /></g><g
         transform="matrix(0.19706275,0.05203336,-0.05203336,0.19706275,83.004772,141.32071)"
         id="path4872"
         inkscape:connector-curvature="0"
         style="fill:#00b400;fill-opacity:1;filter:url(#filter3284)"><path
           d="m 11.4,183.6 c -30.8,-8.3 -25.6,-37.4 -25.6,-37.4"
           id="path103"
           inkscape:connector-curvature="0"
           style="fill:#00b400;fill-opacity:1" /><path
           d="m 11.4,183.6 c -30.8,-8.3 -25.6,-37.4 -25.6,-37.4"
           id="path105"
           inkscape:connector-curvature="0"
           style="fill:#00b400;fill-opacity:1;stroke:#ffffff;stroke-width:2" /></g></g><path
       id="path3958"
       sodipodi:ry="3.5714285"
       sodipodi:cy="-0.71428573"
       sodipodi:rx="48.57143"
       sodipodi:cx="99.285713"
       sodipodi:type="arc"
       d="m 147.85714,-0.71428573 a 48.57143,3.5714285 0 1 1 -97.142857,0 48.57143,3.5714285 0 1 1 97.142857,0 z"
       transform="matrix(0.94905766,0,0,1.0071841,161.5817,7.1372249)"
       style="fill:none;stroke:#000000;stroke-width:2.29999995"
       inkscape:export-filename="/home/jeremy/Dropbox/City Tech/grants/REED-Graphics/exercises/osmosis/text4170.png"
       inkscape:export-xdpi="300"
       inkscape:export-ydpi="300" /><path
       id="path4728"
       sodipodi:nodetypes="ccccccc"
       inkscape:connector-curvature="0"
       d="m 391.60956,145.58924 -13.3,24.2 c -6.7,22.9 -21.3,45 1.6,70.8 29.1,17.1 131,14 159.2,2.7 25.3,-21.2 16.1,-41.2 10.2,-61.4 -4.2,-11.2 -11.1,-23.8 -17.2,-36 l -140.5,-0.3 0,0 z"
       style="fill:#00b5e6;fill-opacity:0.65380004"
       inkscape:export-filename="/home/jeremy/Dropbox/City Tech/grants/REED-Graphics/exercises/osmosis/text4170.png"
       inkscape:export-xdpi="300"
       inkscape:export-ydpi="300" /><path
       id="path4730"
       sodipodi:nodetypes="cssssc"
       inkscape:connector-curvature="0"
       d="m 415.20956,6.7892363 c 0,0 11.1,8.0999997 13.3,13.2999997 5.7,13.4 3.6,34.2 0.8,48.5 -9.1,45.500004 -62.7,95.300004 -61.8,141.600004 0.2,10.3 6.2,25.4 14.9,30.9 20,12.7 79.8,9.8 79.8,9.8"
       style="fill:none;stroke:#000000;stroke-width:2.5"
       inkscape:export-filename="/home/jeremy/Dropbox/City Tech/grants/REED-Graphics/exercises/osmosis/text4170.png"
       inkscape:export-xdpi="300"
       inkscape:export-ydpi="300" /><path
       id="path4732"
       sodipodi:nodetypes="cssssc"
       inkscape:connector-curvature="0"
       d="m 508.10956,6.7892363 c 0,0 -11.1,8.0999997 -13.3,13.2999997 -5.7,13.4 -3.6,34.2 -0.8,48.5 9.1,45.500004 62.7,95.300004 61.8,141.600004 -0.2,10.3 -6.2,25.4 -14.9,30.9 -20,12.7 -79.8,9.8 -79.8,9.8"
       style="fill:none;stroke:#000000;stroke-width:2.5"
       inkscape:export-filename="/home/jeremy/Dropbox/City Tech/grants/REED-Graphics/exercises/osmosis/text4170.png"
       inkscape:export-xdpi="300"
       inkscape:export-ydpi="300" /><text
       font-size="29.5344"
       id="text111"
       x="425.88239"
       y="102.49834"
       style="font-size:29.53440094px;font-family:MyriadPro-Regular"
       inkscape:export-filename="/home/jeremy/Dropbox/City Tech/grants/REED-Graphics/exercises/osmosis/text4170.png"
       inkscape:export-xdpi="300"
       inkscape:export-ydpi="300">40%</text>
<text
       font-size="29.5344"
       id="text113"
       x="425.88239"
       y="139.41644"
       style="font-size:29.53440094px;font-family:MyriadPro-Regular"
       inkscape:export-filename="/home/jeremy/Dropbox/City Tech/grants/REED-Graphics/exercises/osmosis/text4170.png"
       inkscape:export-xdpi="300"
       inkscape:export-ydpi="300">Salt</text>
<path
       id="path3960"
       sodipodi:ry="3.5714285"
       sodipodi:cy="-0.71428573"
       sodipodi:rx="48.57143"
       sodipodi:cx="99.285713"
       sodipodi:type="arc"
       d="m 147.85714,-0.71428573 a 48.57143,3.5714285 0 1 1 -97.142857,0 48.57143,3.5714285 0 1 1 97.142857,0 z"
       transform="matrix(0.94762248,0,0,1.1376658,366.36704,7.4089975)"
       style="fill:none;stroke:#000000;stroke-width:2.29999995"
       inkscape:export-filename="/home/jeremy/Dropbox/City Tech/grants/REED-Graphics/exercises/osmosis/text4170.png"
       inkscape:export-xdpi="300"
       inkscape:export-ydpi="300" /><g
       style="fill:#00b400;fill-opacity:1"
       transform="matrix(-0.30202078,0.95330134,-0.95330134,-0.30202078,686.45344,161.63662)"
       id="g3894"
       inkscape:export-filename="/home/jeremy/Dropbox/City Tech/grants/REED-Graphics/exercises/osmosis/text4170.png"
       inkscape:export-xdpi="300"
       inkscape:export-ydpi="300"><path
         style="fill:#00b400;fill-opacity:1"
         d="m 62.515912,204.14731 c -1.031367,3.98587 1.357522,8.03163 5.343392,9.063 3.631158,0.9377 7.31446,-0.95664 8.728107,-4.31457 2.161491,1.79338 4.728953,3.16695 7.611272,3.90693 2.744376,0.70356 5.501704,0.79921 8.127731,0.35427 -0.284744,0.59938 -0.515573,1.23408 -0.692486,1.90409 -1.525685,5.85797 1.994433,11.84668 7.872106,13.37757 4.320876,1.11982 8.712496,-0.50318 11.326346,-3.77608 2.04458,3.91269 5.66257,6.97602 10.27904,8.17389 8.64175,2.23965 17.45566,-2.95871 19.69531,-11.60047 1.3956,-5.36531 -0.0803,-10.79317 -3.47971,-14.68416 4.84818,-1.75541 8.78224,-5.79697 10.17784,-11.16228 2.23965,-8.64175 -2.95871,-17.45566 -11.60047,-19.69531 -4.59676,-1.19267 -9.26582,-0.27533 -12.94647,2.16781 -0.70201,-4.12736 -3.75006,-7.67261 -8.07094,-8.79243 -5.85796,-1.52569 -11.84668,1.99443 -13.37756,7.87211 -0.14049,0.53207 -0.23637,1.05484 -0.28763,1.56831 -2.07447,-1.64393 -4.510298,-2.87734 -7.215261,-3.57049 -2.862613,-0.73478 -5.753789,-0.80253 -8.479455,-0.29958 0.03642,-0.13794 0.09255,-0.27068 0.128977,-0.40863 1.031367,-3.98587 -1.352318,-8.05134 -5.338189,-9.08271 -3.985871,-1.03136 -8.031635,1.35753 -9.063002,5.3434 -0.974131,3.7691 1.130677,7.61337 4.737701,8.88199 -2.741829,2.48022 -4.80689,5.75047 -5.801834,9.5984 -0.844048,3.27644 -0.822902,6.54945 -0.05258,9.61976 -3.492771,-0.18444 -6.726149,2.08167 -7.62223,5.55518 z"
         inkscape:connector-curvature="0"
         id="path3896" /><g
         style="fill:#00b400;fill-opacity:1;filter:url(#filter3585)"
         inkscape:connector-curvature="0"
         id="g3898"
         transform="matrix(0.19706275,0.05203336,-0.05203336,0.19706275,83.004772,141.32071)"><path
           style="fill:#00b400;fill-opacity:1"
           inkscape:connector-curvature="0"
           id="path3900"
           d="m 212.6,302.8 c 0.2,40.6 34.3,73.5 76.2,73.3 41.9,-0.2 75.7,-33.3 75.5,-74 -0.1,-25.2 -13.3,-47.4 -33.3,-60.6 19.9,-13.4 32.9,-35.7 32.8,-60.9 -0.2,-40.6 -34.3,-73.4 -76.2,-73.2 -41.9,0.2 -75.7,33.3 -75.5,73.9 0.1,25.2 13.3,47.4 33.3,60.6 -19.9,13.4 -32.9,35.7 -32.8,60.9 z" /></g><g
         style="fill:#00b400;fill-opacity:1;filter:url(#filter3577)"
         inkscape:connector-curvature="0"
         id="g3902"
         transform="matrix(0.19706275,0.05203336,-0.05203336,0.19706275,83.004772,141.32071)"><path
           style="fill:#00b400;fill-opacity:1"
           inkscape:connector-curvature="0"
           id="path3904"
           d="m 186.9,292.4 c 25.7,-0.1 46.6,20.6 46.7,46.2 0.1,25.7 -20.6,46.6 -46.2,46.7 0,0 0,0 0,0 -25.7,0.1 -46.6,-20.6 -46.7,-46.2 -0.2,-25.7 20.5,-46.6 46.2,-46.7 0,0 0,0 0,0 z" /></g><g
         style="fill:#00b400;fill-opacity:1;filter:url(#filter3581)"
         inkscape:connector-curvature="0"
         id="g3906"
         transform="matrix(0.19706275,0.05203336,-0.05203336,0.19706275,83.004772,141.32071)"><path
           style="fill:#00b400;fill-opacity:1"
           inkscape:connector-curvature="0"
           id="path3908"
           d="m 186.4,188.4 c 23.6,-0.1 42.7,-19.3 42.6,-43 -0.1,-23.6 -19.3,-42.7 -43,-42.6 0,0 0,0 0,0 -23.6,0.1 -42.7,19.3 -42.6,43 0.1,23.6 19.4,42.7 43,42.6 0,0 0,0 0,0 z" /></g><g
         style="fill:#00b400;fill-opacity:1;filter:url(#filter3542)"
         inkscape:connector-curvature="0"
         id="g3910"
         transform="matrix(0.19706275,0.05203336,-0.05203336,0.19706275,83.004772,141.32071)"><path
           style="fill:#00b400;fill-opacity:1"
           inkscape:connector-curvature="0"
           id="path3912"
           d="m 96.5,154.2 c 49.3,-0.2 89.5,39.5 89.7,88.8 0.2,49.3 -39.5,89.5 -88.8,89.7 0,0 -0.1,0 -0.1,0 C 48,332.9 7.9,293.1 7.6,243.8 7.4,194.5 47.2,154.4 96.5,154.2 l 0,0 z" /></g><g
         style="fill:#00b400;fill-opacity:1;filter:url(#filter3577)"
         inkscape:connector-curvature="0"
         id="g3914"
         transform="matrix(0.19706275,0.05203336,-0.05203336,0.19706275,83.004772,141.32071)"><path
           style="fill:#00b400;fill-opacity:1"
           inkscape:connector-curvature="0"
           id="path3916"
           d="m -14.8,323.8 c 0.1,17.4 14.3,31.5 31.7,31.4 17.3,-0.1 31.2,-14 31.4,-31.2 -13.1,-8 -24.1,-18.9 -32.2,-31.9 -17.2,0.3 -31,14.4 -30.9,31.7 z" /></g><g
         style="fill:#00b400;fill-opacity:1;filter:url(#filter3577)"
         inkscape:connector-curvature="0"
         id="g3918"
         transform="matrix(0.19706275,0.05203336,-0.05203336,0.19706275,83.004772,141.32071)"><path
           style="fill:#00b400;fill-opacity:1"
           inkscape:connector-curvature="0"
           id="path3920"
           d="m -16.4,153.8 c 0.1,17.4 14.3,31.5 31.7,31.4 1.5,0 3.1,-0.1 4.5,-0.4 7.1,-9.9 16,-18.4 26.3,-25 0,0 0,0 0,0 0.4,-2.1 0.6,-4.2 0.6,-6.4 C 46.6,136 32.4,121.9 15,122 c -17.3,0.2 -31.4,14.4 -31.4,31.8 l 0,0 z" /></g><g
         style="fill:#00b400;fill-opacity:1;filter:url(#filter3278)"
         inkscape:connector-curvature="0"
         id="g3922"
         transform="matrix(0.19706275,0.05203336,-0.05203336,0.19706275,83.004772,141.32071)"><path
           style="fill:#00b400;fill-opacity:1"
           inkscape:connector-curvature="0"
           id="path3924"
           d="m 8.7,322.2 c 0.1,10.9 7.1,19.7 15.6,19.7 8.5,0 15.5,-8.9 15.4,-19.8 0,-0.3 0,-0.5 0,-0.8 -7.3,-5 -13.6,-11.3 -18.8,-18.4 -7,1.9 -12.3,9.8 -12.2,19.3 z" /></g><g
         style="fill:#00b400;fill-opacity:1;filter:url(#filter3282)"
         inkscape:connector-curvature="0"
         id="g3926"
         transform="matrix(0.19706275,0.05203336,-0.05203336,0.19706275,83.004772,141.32071)"><path
           style="fill:#00b400;fill-opacity:1"
           inkscape:connector-curvature="0"
           id="path3928"
           d="m 3.9,151.8 c 0.1,11 8.4,19.8 18.6,19.8 1.6,0 3.1,-0.3 4.6,-0.7 0,0 0,0 0,0 3.4,-3.1 7,-5.9 10.9,-8.5 1.9,-3.1 2.9,-6.8 2.9,-10.8 -0.1,-11 -8.4,-19.8 -18.6,-19.8 -10.2,0 -18.5,9.1 -18.4,20 l 0,0 z" /></g><g
         style="fill:#00b400;fill-opacity:1;filter:url(#filter3314)"
         inkscape:connector-curvature="0"
         id="g3930"
         transform="matrix(0.19706275,0.05203336,-0.05203336,0.19706275,83.004772,141.32071)"><path
           style="fill:#00b400;fill-opacity:1"
           inkscape:connector-curvature="0"
           id="path3932"
           d="m 143.4,339.6 c 0.1,21 13.6,38.1 30.1,38 16.5,-0.1 29.8,-17.2 29.7,-38.3 -0.1,-17.6 -9.5,-32.4 -22.3,-36.7 -7,17.2 -20.6,30.6 -37.5,36.5 0,0.2 0,0.4 0,0.5 z" /></g><g
         style="fill:#00b400;fill-opacity:1;filter:url(#filter3302)"
         inkscape:connector-curvature="0"
         id="g3934"
         transform="matrix(0.19706275,0.05203336,-0.05203336,0.19706275,83.004772,141.32071)"><path
           style="fill:#00b400;fill-opacity:1"
           inkscape:connector-curvature="0"
           id="path3936"
           d="m 142.5,145.8 c 0,0.9 0.1,1.8 0.1,2.7 3.6,-1.4 7.6,-2.3 11.7,-2.3 17.7,-0.1 32.3,14.3 33.1,32.4 9,-6.6 15,-19 14.9,-33.1 -0.1,-21 -13.6,-38.1 -30.1,-38 -16.5,0.1 -29.8,17.2 -29.7,38.3 z" /></g><g
         style="fill:#00b400;fill-opacity:1;filter:url(#filter3294)"
         inkscape:connector-curvature="0"
         id="g3938"
         transform="matrix(0.19706275,0.05203336,-0.05203336,0.19706275,83.004772,141.32071)"><path
           style="fill:#00b400;fill-opacity:1"
           inkscape:connector-curvature="0"
           id="path3940"
           d="m 67.5,195.2 c 8.5,0 15.5,6.8 15.5,15.4 0,8.5 -6.8,15.4 -15.3,15.5 -8.5,0 -15.5,-6.8 -15.5,-15.3 -0.1,-8.6 6.8,-15.6 15.3,-15.6 0,0 0,0 0,0 z" /></g><g
         style="fill:#00b400;fill-opacity:1;filter:url(#filter3298)"
         inkscape:connector-curvature="0"
         id="g3942"
         transform="matrix(0.19706275,0.05203336,-0.05203336,0.19706275,83.004772,141.32071)"><path
           style="fill:#00b400;fill-opacity:1"
           inkscape:connector-curvature="0"
           id="path3944"
           d="m 67.8,255.2 c 8.5,0 15.5,6.8 15.5,15.4 0,8.5 -6.8,15.4 -15.3,15.5 -8.5,0 -15.5,-6.8 -15.5,-15.3 -0.1,-8.6 6.7,-15.6 15.3,-15.6 0,0 0,0 0,0 z" /></g><g
         style="fill:#00b400;fill-opacity:1;filter:url(#filter3288)"
         inkscape:connector-curvature="0"
         id="g3946"
         transform="matrix(0.19706275,0.05203336,-0.05203336,0.19706275,83.004772,141.32071)"><path
           style="fill:#00b400;fill-opacity:1"
           inkscape:connector-curvature="0"
           id="path3948"
           d="m 12.2,354.7 c -30.8,-8.3 -25.6,-37.4 -25.6,-37.4" /><path
           style="fill:#00b400;fill-opacity:1;stroke:#ffffff;stroke-width:2"
           inkscape:connector-curvature="0"
           id="path3950"
           d="m 12.2,354.7 c -30.8,-8.3 -25.6,-37.4 -25.6,-37.4" /></g><g
         style="fill:#00b400;fill-opacity:1;filter:url(#filter3284)"
         inkscape:connector-curvature="0"
         id="g3952"
         transform="matrix(0.19706275,0.05203336,-0.05203336,0.19706275,83.004772,141.32071)"><path
           style="fill:#00b400;fill-opacity:1"
           inkscape:connector-curvature="0"
           id="path3954"
           d="m 11.4,183.6 c -30.8,-8.3 -25.6,-37.4 -25.6,-37.4" /><path
           style="fill:#00b400;fill-opacity:1;stroke:#ffffff;stroke-width:2"
           inkscape:connector-curvature="0"
           id="path3956"
           d="m 11.4,183.6 c -30.8,-8.3 -25.6,-37.4 -25.6,-37.4" /></g></g><text
       xml:space="preserve"
       style="font-size:18px;font-style:normal;font-weight:normal;line-height:125%;letter-spacing:0px;word-spacing:0px;fill:#000000;fill-opacity:1;stroke:none;font-family:Sans;-inkscape-font-specification:Sans"
       x="10.3951"
       y="208.92615"
       id="text3958"
       sodipodi:linespacing="125%"
       inkscape:export-filename="/home/jeremy/Dropbox/City Tech/grants/REED-Graphics/exercises/osmosis/text4170.png"
       inkscape:export-xdpi="300"
       inkscape:export-ydpi="300"><tspan
         sodipodi:role="line"
         id="tspan3960"
         x="10.3951"
         y="208.92615"
         style="font-size:28px">_____tonic</tspan></text>
<text
       sodipodi:linespacing="125%"
       id="text3962"
       y="107.317"
       x="5.5480995"
       style="font-size:18px;font-style:normal;font-weight:normal;line-height:125%;letter-spacing:0px;word-spacing:0px;fill:#000000;fill-opacity:1;stroke:none;font-family:Sans;-inkscape-font-specification:Sans"
       xml:space="preserve"
       inkscape:export-filename="/home/jeremy/Dropbox/City Tech/grants/REED-Graphics/exercises/osmosis/text4170.png"
       inkscape:export-xdpi="300"
       inkscape:export-ydpi="300"><tspan
         style="font-size:28px"
         y="107.317"
         x="5.5480995"
         id="tspan3964"
         sodipodi:role="line">_____tonic</tspan></text>
<text
       sodipodi:linespacing="125%"
       id="text3966"
       y="210.32898"
       x="567.22882"
       style="font-size:18px;font-style:normal;font-weight:normal;line-height:125%;letter-spacing:0px;word-spacing:0px;fill:#000000;fill-opacity:1;stroke:none;font-family:Sans;-inkscape-font-specification:Sans"
       xml:space="preserve"
       inkscape:export-filename="/home/jeremy/Dropbox/City Tech/grants/REED-Graphics/exercises/osmosis/text4170.png"
       inkscape:export-xdpi="300"
       inkscape:export-ydpi="300"><tspan
         style="font-size:28px"
         y="210.32898"
         x="567.22882"
         id="tspan3968"
         sodipodi:role="line">_____tonic</tspan></text>
<text
       xml:space="preserve"
       style="font-size:18px;font-style:normal;font-weight:normal;line-height:125%;letter-spacing:0px;word-spacing:0px;fill:#000000;fill-opacity:1;stroke:none;font-family:Sans;-inkscape-font-specification:Sans"
       x="580.38184"
       y="88.29126"
       id="text3970"
       sodipodi:linespacing="125%"
       inkscape:export-filename="/home/jeremy/Dropbox/City Tech/grants/REED-Graphics/exercises/osmosis/text4170.png"
       inkscape:export-xdpi="300"
       inkscape:export-ydpi="300"><tspan
         sodipodi:role="line"
         id="tspan3972"
         x="580.38184"
         y="88.29126"
         style="font-size:28px">_____tonic</tspan></text>
<path
       style="fill:none;stroke:#000000;stroke-width:2;stroke-linecap:butt;stroke-linejoin:miter;stroke-miterlimit:4;stroke-opacity:1;stroke-dasharray:none"
       d="m 217.19354,213.40405 -70.71429,0.71428"
       id="path3974"
       inkscape:connector-curvature="0"
       inkscape:export-filename="/home/jeremy/Dropbox/City Tech/grants/REED-Graphics/exercises/osmosis/text4170.png"
       inkscape:export-xdpi="300"
       inkscape:export-ydpi="300" /><path
       style="fill:none;stroke:#000000;stroke-width:2;stroke-linecap:butt;stroke-linejoin:miter;stroke-miterlimit:4;stroke-opacity:1;stroke-dasharray:none"
       d="M 194.33639,166.26119 146.47925,104.83262"
       id="path3976"
       inkscape:connector-curvature="0"
       inkscape:export-filename="/home/jeremy/Dropbox/City Tech/grants/REED-Graphics/exercises/osmosis/text4170.png"
       inkscape:export-xdpi="300"
       inkscape:export-ydpi="300" /><path
       style="fill:none;stroke:#000000;stroke-width:2;stroke-linecap:butt;stroke-linejoin:miter;stroke-miterlimit:4;stroke-opacity:1;stroke-dasharray:none"
       d="M 525.76497,159.11833 581.47925,97.689764"
       id="path3978"
       inkscape:connector-curvature="0"
       inkscape:export-filename="/home/jeremy/Dropbox/City Tech/grants/REED-Graphics/exercises/osmosis/text4170.png"
       inkscape:export-xdpi="300"
       inkscape:export-ydpi="300" /><path
       style="fill:none;stroke:#000000;stroke-width:2;stroke-linecap:butt;stroke-linejoin:miter;stroke-miterlimit:4;stroke-opacity:1;stroke-dasharray:none"
       d="m 480.32428,221.13734 86.03112,-3.32372"
       id="path3980"
       inkscape:connector-curvature="0"
       inkscape:export-filename="/home/jeremy/Dropbox/City Tech/grants/REED-Graphics/exercises/osmosis/text4170.png"
       inkscape:export-xdpi="300"
       inkscape:export-ydpi="300" /><path
       style="fill:none;stroke:#000000;stroke-width:2;stroke-linecap:butt;stroke-linejoin:miter;stroke-opacity:1;stroke-miterlimit:4;stroke-dasharray:none"
       d="M 352.54324,253.01015 351.78571,-0.14285728"
       id="path4164"
       inkscape:connector-curvature="0"
       transform="translate(5.2746644,0.6897639)"
       inkscape:export-filename="/home/jeremy/Dropbox/City Tech/grants/REED-Graphics/exercises/osmosis/text4170.png"
       inkscape:export-xdpi="300"
       inkscape:export-ydpi="300" /><text
       xml:space="preserve"
       style="font-size:32px;font-style:normal;font-weight:bold;line-height:125%;letter-spacing:0px;word-spacing:0px;fill:#000000;fill-opacity:1;stroke:none;font-family:Sans;-inkscape-font-specification:Sans Bold"
       x="26.487867"
       y="35.506966"
       id="text4166"
       sodipodi:linespacing="125%"
       inkscape:export-filename="/home/jeremy/Dropbox/City Tech/grants/REED-Graphics/exercises/osmosis/text4170.png"
       inkscape:export-xdpi="300"
       inkscape:export-ydpi="300"><tspan
         sodipodi:role="line"
         id="tspan4168"
         x="26.487867"
         y="35.506966">A</tspan></text>
<text
       sodipodi:linespacing="125%"
       id="text4170"
       y="35.506966"
       x="681.06671"
       style="font-size:32px;font-style:normal;font-weight:bold;line-height:125%;letter-spacing:0px;word-spacing:0px;fill:#000000;fill-opacity:1;stroke:none;font-family:Sans;-inkscape-font-specification:Sans Bold"
       xml:space="preserve"
       inkscape:export-xdpi="300"
       inkscape:export-ydpi="300"><tspan
         y="35.506966"
         x="681.06671"
         id="tspan4172"
         sodipodi:role="line">B</tspan></text>
</g></svg>