<?xml version="1.0" encoding="UTF-8" standalone="no"?>
<svg
   xmlns:dc="http://purl.org/dc/elements/1.1/"
   xmlns:cc="http://creativecommons.org/ns#"
   xmlns:rdf="http://www.w3.org/1999/02/22-rdf-syntax-ns#"
   xmlns:svg="http://www.w3.org/2000/svg"
   xmlns="http://www.w3.org/2000/svg"
   xmlns:sodipodi="http://sodipodi.sourceforge.net/DTD/sodipodi-0.dtd"
   xmlns:inkscape="http://www.inkscape.org/namespaces/inkscape"
   width="299.42856"
   height="1182.9558"
   id="svg5209"
   version="1.1"
   inkscape:version="0.48.4 r9939"
   sodipodi:docname="tube-with-dark-liquid.svg">
  <defs
     id="defs5273" />
  <sodipodi:namedview
     pagecolor="#ffffff"
     bordercolor="#666666"
     borderopacity="1"
     objecttolerance="10"
     gridtolerance="10"
     guidetolerance="10"
     inkscape:pageopacity="0"
     inkscape:pageshadow="2"
     inkscape:window-width="1920"
     inkscape:window-height="1030"
     id="namedview5271"
     showgrid="false"
     inkscape:zoom="0.28213598"
     inkscape:cx="820.45939"
     inkscape:cy="193.5023"
     inkscape:window-x="0"
     inkscape:window-y="0"
     inkscape:window-maximized="1"
     inkscape:current-layer="svg5209" />
  <title
     id="title5211">Chemistry Flask with dark liquid</title>
  <metadata
     id="metadata7">image/svg+xml<rdf:RDF>
  <cc:Work
     rdf:about="">
    <dc:format>image/svg+xml</dc:format>
    <dc:type
       rdf:resource="http://purl.org/dc/dcmitype/StillImage" />
    <dc:title>Chemistry Flask with dark liquid</dc:title>
  </cc:Work>
</rdf:RDF>
</metadata>
  <g
     id="g5960"
     transform="matrix(0.60805169,0,0,0.60805169,-9.7245208,463.65752)">
    <path
       style="fill:#f7db7a;fill-opacity:1;stroke-width:8;stroke-linecap:round;stroke-miterlimit:4"
       inkscape:connector-curvature="0"
       id="path5870"
       d="m 450.40677,636.87878 c 16.86974,31.20935 271.36081,26.69806 278.80209,0 l 0,406.08132 c -9.56234,160.3733 -243.65193,202.4259 -278.80209,0 l 0,-406.08132 z"
       stroke-miterlimit="4" />
    <path
       stroke-miterlimit="4"
       d="m 8.406769,636.87878 c 16.869736,31.20935 271.360811,26.69806 278.802091,0 l 0,406.08132 c -9.56234,160.3733 -243.651929,202.4259 -278.802091,0 l 0,-406.08132 z"
       id="rect2388"
       inkscape:connector-curvature="0"
       style="fill:#f7db7a;fill-opacity:1;stroke-width:8;stroke-linecap:round;stroke-miterlimit:4" />
    <path
       sodipodi:nodetypes="ccccc"
       style="fill:#128145;fill-opacity:1;stroke-width:8;stroke-linecap:round;stroke-miterlimit:4"
       inkscape:connector-curvature="0"
       id="path5897"
       d="m 289.29606,642.5424 c -16.8698,-26.17764 -271.3609,-22.39368 -278.8021,0 l 0,-340.611 c 137.1603,-0.73452 144.409,1.15456 278.802,0 z"
       stroke-miterlimit="4" />
    <path
       stroke-miterlimit="4"
       id="path5901"
       d="m 9.71156,303.49831 a 139.40105,18.640407 0 1 1 278.8021,0 139.40105,18.640407 0 0 1 -278.8021,0 z"
       inkscape:connector-curvature="0"
       style="fill:#097740;fill-opacity:1;stroke:#09612f;stroke-width:3.66338706;stroke-linecap:round;stroke-miterlimit:4;stroke-opacity:1" />
    <path
       stroke-miterlimit="4"
       id="path2391"
       d="m 288.21902,632.5012 a 139.40105,31.246606 0 1 1 -278.802089,0 139.40105,31.246606 0 1 1 278.802089,0 z"
       inkscape:connector-curvature="0"
       style="fill:#177c55;fill-opacity:1;stroke:#106b37;stroke-width:4.7430377;stroke-linecap:round;stroke-miterlimit:4;stroke-opacity:1" />
    <path
       stroke-miterlimit="4"
       d="m 8.704132,22.643217 c 6.034546,27.777559 283.725468,20.35018 279.999998,0 l 0,1019.999983 c -26.40869,178.9698 -251.694044,184.5093 -279.999998,0 l 0,-1019.999983 z"
       id="rect2383"
       inkscape:connector-curvature="0"
       style="fill:none;stroke:#000000;stroke-width:8;stroke-linecap:round;stroke-miterlimit:4" />
    <path
       stroke-miterlimit="4"
       id="path2386"
       d="m 295.42856,22.571423 a 145.71428,18.57143 0 0 1 -291.428561,0 145.71428,18.57143 0 1 1 291.428561,0 z"
       inkscape:connector-curvature="0"
       style="fill:none;stroke:#000000;stroke-width:8;stroke-linecap:round;stroke-miterlimit:4" />
    <g
       transform="translate(64,0)"
       id="g5931">
      <path
         sodipodi:nodetypes="ccccc"
         style="fill:#9f0fbf;fill-opacity:1;stroke-width:8;stroke-linecap:round;stroke-miterlimit:4"
         inkscape:connector-curvature="0"
         id="path5856"
         d="m 668.54581,642.05719 c -16.8698,-24.51315 -271.3609,-20.9698 -278.8021,0 l 0,-318.95343 c 137.1603,-0.68782 144.409,1.08114 278.802,0 z"
         stroke-miterlimit="4" />
      <path
         stroke-miterlimit="4"
         id="path5846"
         d="m 668.21902,636.07554 a 139.40105,30.459775 0 1 1 -278.80209,0 139.40105,30.459775 0 1 1 278.80209,0 z"
         inkscape:connector-curvature="0"
         style="fill:#940aa9;fill-opacity:1;stroke:#681993;stroke-width:4.68293858;stroke-linecap:round;stroke-miterlimit:4;stroke-opacity:1" />
      <path
         style="fill:#940aa9;fill-opacity:1;stroke:#681993;stroke-width:4.68293858;stroke-linecap:round;stroke-miterlimit:4;stroke-opacity:1"
         inkscape:connector-curvature="0"
         d="m 666.21902,321.05673 a 139.40105,30.459775 0 1 1 -278.80209,0 139.40105,30.459775 0 1 1 278.80209,0 z"
         id="path5915"
         stroke-miterlimit="4" />
    </g>
    <path
       style="fill:none;stroke:#000000;stroke-width:8;stroke-linecap:round;stroke-miterlimit:4"
       inkscape:connector-curvature="0"
       id="path5848"
       d="m 450.70413,22.643217 c 6.03455,27.777559 283.72547,20.35018 280,0 l 0,1019.999983 c -26.40869,178.9698 -251.69404,184.5093 -280,0 l 0,-1019.999983 z"
       stroke-miterlimit="4" />
    <path
       style="fill:none;stroke:#000000;stroke-width:8;stroke-linecap:round;stroke-miterlimit:4"
       inkscape:connector-curvature="0"
       d="m 737.42856,22.571423 a 145.71428,18.57143 0 0 1 -291.42856,0 145.71428,18.57143 0 1 1 291.42856,0 z"
       id="path5850"
       stroke-miterlimit="4" />
    <text
       sodipodi:linespacing="125%"
       id="text5936"
       y="924.21533"
       x="12.988293"
       style="font-size:18px;font-style:normal;font-weight:bold;line-height:125%;letter-spacing:0px;word-spacing:0px;fill:#000000;fill-opacity:1;stroke:none;font-family:Sans;-inkscape-font-specification:Sans Bold"
       xml:space="preserve"><tspan
         style="font-size:100px"
         y="924.21533"
         x="12.988293"
         id="tspan5938"
         sodipodi:role="line">Agar</tspan></text>
    <text
       xml:space="preserve"
       style="font-size:18px;font-style:normal;font-weight:bold;line-height:125%;letter-spacing:0px;word-spacing:0px;fill:#000000;fill-opacity:1;stroke:none;font-family:Sans;-inkscape-font-specification:Sans Bold"
       x="458.98828"
       y="924.21533"
       id="text5940"
       sodipodi:linespacing="125%"><tspan
         sodipodi:role="line"
         id="tspan5942"
         x="458.98828"
         y="924.21533"
         style="font-size:100px">Agar</tspan></text>
    <rect
       style="fill:#ffffff;fill-opacity:0.7307692;stroke:none"
       id="rect5958"
       width="340.26147"
       height="113.42049"
       x="-24.810722"
       y="441.72266" />
    <text
       xml:space="preserve"
       style="font-size:18px;font-style:normal;font-weight:bold;text-align:center;line-height:125%;letter-spacing:0px;word-spacing:0px;text-anchor:middle;fill:#000000;fill-opacity:1;stroke:none;font-family:Sans;-inkscape-font-specification:Sans Bold"
       x="144.45367"
       y="484.60706"
       id="text5944"
       sodipodi:linespacing="125%"><tspan
         sodipodi:role="line"
         id="tspan5946"
         x="144.45367"
         y="484.60706"
         style="font-size:50px;text-align:center;text-anchor:middle">Malachite</tspan><tspan
         id="tspan5954"
         sodipodi:role="line"
         x="144.45367"
         y="547.10706"
         style="font-size:50px;text-align:center;text-anchor:middle">Green</tspan></text>
    <rect
       y="445.49484"
       x="386.33853"
       height="113.42049"
       width="411.14926"
       id="rect5956"
       style="fill:#ffffff;fill-opacity:0.7307692;stroke:none" />
    <text
       sodipodi:linespacing="125%"
       id="text5948"
       y="484.27875"
       x="588.49402"
       style="font-size:18px;font-style:normal;font-weight:bold;text-align:center;line-height:125%;letter-spacing:0px;word-spacing:0px;text-anchor:middle;fill:#000000;fill-opacity:1;stroke:none;font-family:Sans;-inkscape-font-specification:Sans Bold"
       xml:space="preserve"><tspan
         style="font-size:50px;text-align:center;text-anchor:middle"
         y="484.27875"
         x="588.49402"
         id="tspan5950"
         sodipodi:role="line">Potassium</tspan><tspan
         id="tspan5952"
         style="font-size:50px;text-align:center;text-anchor:middle"
         y="546.77875"
         x="588.49402"
         sodipodi:role="line">Permanganate</tspan></text>
  </g>
</svg>
