<?xml version="1.0" encoding="UTF-8" standalone="no"?>
<svg
   xmlns:dc="http://purl.org/dc/elements/1.1/"
   xmlns:cc="http://creativecommons.org/ns#"
   xmlns:rdf="http://www.w3.org/1999/02/22-rdf-syntax-ns#"
   xmlns:svg="http://www.w3.org/2000/svg"
   xmlns="http://www.w3.org/2000/svg"
   version="1.0"
   id="svg3506"
   height="240"
   width="400">
  <defs
     id="defs3508" />
  <metadata
     id="metadata3511">
    <rdf:RDF>
      <cc:Work
         rdf:about="">
        <dc:format>image/svg+xml</dc:format>
        <dc:type
           rdf:resource="http://purl.org/dc/dcmitype/StillImage" />
        <dc:title></dc:title>
        <cc:license
           rdf:resource="http://creativecommons.org/publicdomain/zero/1.0/" />
      </cc:Work>
      <cc:License
         rdf:about="http://creativecommons.org/publicdomain/zero/1.0/">
        <cc:permits
           rdf:resource="http://creativecommons.org/ns#Reproduction" />
        <cc:permits
           rdf:resource="http://creativecommons.org/ns#Distribution" />
        <cc:permits
           rdf:resource="http://creativecommons.org/ns#DerivativeWorks" />
      </cc:License>
    </rdf:RDF>
  </metadata>
  <g
     transform="translate(0,-826.36214)"
     id="layer1">
    <rect
       y="828.66669"
       x="0.2"
       height="237.23305"
       width="395.38837"
       id="rect4219"
       style="opacity:1;fill:#ffffff;fill-opacity:1;stroke:none;stroke-width:0.625;stroke-miterlimit:4;stroke-dasharray:none;stroke-dashoffset:0;stroke-opacity:1" />
    <path
       id="path2398"
       d="m 160.86386,914.26934 c 26.76522,0 26.76522,0 26.76522,0"
       style="fill:none;fill-rule:evenodd;stroke:#000000;stroke-width:1.33826065px;stroke-linecap:butt;stroke-linejoin:miter;stroke-opacity:1" />
    <g
       transform="matrix(1.3382607,0,0,1.3382607,40.420398,-351.54066)"
       id="g4166">
      <path
         style="fill:none;fill-rule:evenodd;stroke:#000000;stroke-width:1px;stroke-linecap:butt;stroke-linejoin:miter;stroke-opacity:1"
         d="m 90,913.86212 c 0,10 0,86.66668 0,129.99998 0,15 10,15 10,15 0,0 10,0 10,-15 0,-24.4133 0,-119.99998 0,-129.99998"
         id="path2394" />
      <ellipse
         cx="100"
         cy="913.86218"
         rx="10.134969"
         ry="4.2421088"
         id="ellipse4149"
         style="opacity:1;fill:#ffffff;fill-opacity:1;stroke:#000000;stroke-width:0.773;stroke-miterlimit:4;stroke-dasharray:none;stroke-dashoffset:0;stroke-opacity:1" />
    </g>
    <g
       transform="translate(-3.8382247,-8.932554e-5)"
       id="g4225">
      <path
         style="fill:none;fill-rule:evenodd;stroke:#000000;stroke-width:1.22449422px;stroke-linecap:butt;stroke-linejoin:miter;stroke-opacity:1"
         d="M 39.616942,1025.3433 66.430727,913.50648"
         id="path2400" />
      <ellipse
         style="opacity:1;fill:#ffffff;fill-opacity:1;stroke:#000000;stroke-width:1.46726489;stroke-miterlimit:4;stroke-dasharray:none;stroke-dashoffset:0;stroke-opacity:1"
         id="path4151"
         ry="54.899773"
         rx="12.123229"
         cy="969.42499"
         cx="96.506462" />
      <g
         id="g4158"
         transform="matrix(1.3382607,0,0,1.3382607,26.258623,-351.54057)">
        <path
           id="path2387"
           d="m 10,913.86214 c 0,10 0,86.66666 0,130.00006 0,15 10,15 10,15 0,0 10,0 10,-15 0,-24.4133 0,-120.00006 0,-130.00006"
           style="fill:none;fill-rule:evenodd;stroke:#000000;stroke-width:1px;stroke-linecap:butt;stroke-linejoin:miter;stroke-opacity:1" />
        <ellipse
           style="opacity:1;fill:#ffffff;fill-opacity:1;stroke:#000000;stroke-width:0.773;stroke-miterlimit:4;stroke-dasharray:none;stroke-dashoffset:0;stroke-opacity:1"
           id="ellipse4145"
           ry="4.2421088"
           rx="10.134969"
           cy="913.86218"
           cx="19.964291" />
      </g>
      <g
         id="g4162"
         transform="matrix(1.3382607,0,0,1.3382607,16.258623,-351.54057)">
        <path
           id="path2388"
           d="m 50,913.86212 c 0,10 0,86.66668 0,129.99998 0,15 10,15 10,15 0,0 10,0 10,-15 0,-24.4133 0,-119.99998 0,-129.99998"
           style="fill:none;fill-rule:evenodd;stroke:#000000;stroke-width:1px;stroke-linecap:butt;stroke-linejoin:miter;stroke-opacity:1" />
        <ellipse
           cx="60"
           cy="913.86218"
           rx="10.134969"
           ry="4.2421088"
           id="ellipse4147"
           style="opacity:1;fill:#ffffff;fill-opacity:1;stroke:#000000;stroke-width:0.773;stroke-miterlimit:4;stroke-dasharray:none;stroke-dashoffset:0;stroke-opacity:1" />
      </g>
      <path
         style="opacity:1;fill:#faf9f4;fill-opacity:0.46470588;stroke:#000000;stroke-width:1.16973877;stroke-miterlimit:4;stroke-dasharray:none;stroke-dashoffset:0;stroke-opacity:1"
         d="m 52.795758,861.295 a 17.55114,5.6094153 0 0 0 -17.5333,5.5151 l -0.122853,0 0,24.66895 0.104545,0 a 17.55114,5.6094153 0 0 0 17.546379,5.58305 17.55114,5.6094153 0 0 0 17.548989,-5.58305 l 0.0758,0 0,-24.66895 -0.07841,0 A 17.55114,5.6094153 0 0 0 52.795762,861.295 Z m -17.548985,5.61442 a 17.55114,5.6094153 0 0 0 17.548985,5.60397 17.55114,5.6094153 0 0 0 17.462732,-5.04201 17.55114,5.6094153 0 0 1 -17.467961,5.09952 17.55114,5.6094153 0 0 1 -17.551598,-5.60921 17.55114,5.6094153 0 0 1 0.0078,-0.0523 z"
         id="ellipse4150" />
      <path
         id="path4163"
         d="m 96.57256,861.295 a 17.55114,5.6094153 0 0 0 -17.533305,5.5151 l -0.122851,0 0,24.66895 0.104545,0 a 17.55114,5.6094153 0 0 0 17.546381,5.58305 17.55114,5.6094153 0 0 0 17.54899,-5.58305 l 0.0759,0 0,-24.66895 -0.0785,0 A 17.55114,5.6094153 0 0 0 96.57257,861.295 Z m -17.548989,5.61442 a 17.55114,5.6094153 0 0 0 17.548989,5.60397 17.55114,5.6094153 0 0 0 17.46273,-5.04201 17.55114,5.6094153 0 0 1 -17.46796,5.09952 17.55114,5.6094153 0 0 1 -17.5516,-5.60921 17.55114,5.6094153 0 0 1 0.0079,-0.0523 z"
         style="opacity:1;fill:#faf9f4;fill-opacity:0.46470588;stroke:#000000;stroke-width:1.16973877;stroke-miterlimit:4;stroke-dasharray:none;stroke-dashoffset:0;stroke-opacity:1" />
    </g>
    <path
       id="path4165"
       d="m 174.26477,861.29491 a 17.55114,5.6094153 0 0 0 -17.53331,5.5151 l -0.12285,0 0,24.66895 0.10454,0 a 17.55114,5.6094153 0 0 0 17.54639,5.58305 17.55114,5.6094153 0 0 0 17.54898,-5.58305 l 0.0758,0 0,-24.66895 -0.0785,0 a 17.55114,5.6094153 0 0 0 -17.54113,-5.5151 z m -17.54899,5.61442 a 17.55114,5.6094153 0 0 0 17.54899,5.60397 17.55114,5.6094153 0 0 0 17.46272,-5.04201 17.55114,5.6094153 0 0 1 -17.46795,5.09952 17.55114,5.6094153 0 0 1 -17.5516,-5.60921 17.55114,5.6094153 0 0 1 0.008,-0.0523 z"
       style="opacity:1;fill:#faf9f4;fill-opacity:0.46470588;stroke:#000000;stroke-width:1.16973877;stroke-miterlimit:4;stroke-dasharray:none;stroke-dashoffset:0;stroke-opacity:1" />
    <g
       style="stroke-width:0.53146386;stroke-miterlimit:4;stroke-dasharray:none"
       transform="matrix(1.3852016,0,0,1.7880552,424.0468,-692.14021)"
       id="g4207">
      <path
         style="opacity:1;fill:#eee169;fill-opacity:0.46470588;stroke:#000000;stroke-width:0.53146386;stroke-miterlimit:4;stroke-dasharray:none;stroke-dashoffset:0;stroke-opacity:1"
         d="m -155.399,98.878648 -0.0619,8.853772 c 0,0 -0.004,-1.30153 0.10352,0.55274 0.30872,4.38752 29.02116,7.85748 64.822264,7.85742 35.800343,-7e-5 64.387972,-3.78191 64.820312,-7.85742 -0.08255,-0.15921 -0.07166,-0.54732 -0.07227,-0.55274 l 0,-8.589842 -0.341797,0 c -3.605694,3.982432 -31.353951,6.998252 -64.40625,7.000002 -33.034379,-0.005 -61.467999,-3.25967 -64.359369,-7.000002 z"
         transform="translate(0,866.36214)"
         id="ellipse4186" />
      <ellipse
         ry="7.8571429"
         rx="64.821426"
         cy="964.64783"
         cx="-90.535713"
         id="ellipse4204"
         style="opacity:1;fill:#eee169;fill-opacity:0.46470588;stroke:#000000;stroke-width:0.53146386;stroke-miterlimit:4;stroke-dasharray:none;stroke-dashoffset:0;stroke-opacity:1" />
    </g>
    <g
       style="fill:#f4f9f6;fill-opacity:0.46470588;stroke-width:0.89592236;stroke-miterlimit:4;stroke-dasharray:none"
       transform="matrix(1.434065,0,0,1.5558647,428.12331,-476.14726)"
       id="g4211">
      <path
         id="path4213"
         transform="translate(0,866.36214)"
         d="m -155.46094,99.142578 0,8.589842 c 0.0436,-2.47564 0,0 0.10352,0.55274 -0.001,4.33953 29.02116,7.85748 64.822264,7.85742 35.800343,-7e-5 64.821575,-3.51798 64.820312,-7.85742 0,0 -0.04801,-0.36851 -0.07227,-0.55274 l 0,-8.589842 -0.341797,0 c -3.605694,3.982432 -31.353951,6.998252 -64.40625,7.000002 -33.034379,-0.005 -60.755649,-3.01973 -64.359369,-7.000002 z"
         style="opacity:1;fill:#f4f9f6;fill-opacity:0.46470588;stroke:#000000;stroke-width:0.89592236;stroke-miterlimit:4;stroke-dasharray:none;stroke-dashoffset:0;stroke-opacity:1" />
      <ellipse
         style="opacity:1;fill:#f4f9f6;fill-opacity:0.46470588;stroke:#000000;stroke-width:0.89592236;stroke-miterlimit:4;stroke-dasharray:none;stroke-dashoffset:0;stroke-opacity:1"
         id="ellipse4215"
         cx="-90.535713"
         cy="964.64783"
         rx="64.821426"
         ry="7.8571429" />
    </g>
    <text
       id="text4221"
       y="845.70459"
       x="71.024216"
       style="font-style:normal;font-variant:normal;font-weight:normal;font-stretch:normal;font-size:22.5px;line-height:125%;font-family:'Noto Sans';-inkscape-font-specification:'Noto Sans, Normal';text-align:center;letter-spacing:0px;word-spacing:0px;writing-mode:lr-tb;text-anchor:middle;fill:#000000;fill-opacity:1;stroke:none;stroke-width:1px;stroke-linecap:butt;stroke-linejoin:miter;stroke-opacity:1"
       xml:space="preserve"><tspan
         style="font-size:17.5px"
         y="845.70459"
         x="71.024216"
         id="tspan4223">Agar Slant</tspan></text>
    <text
       xml:space="preserve"
       style="font-style:normal;font-variant:normal;font-weight:normal;font-stretch:normal;font-size:22.5px;line-height:125%;font-family:'Noto Sans';-inkscape-font-specification:'Noto Sans, Normal';text-align:center;letter-spacing:0px;word-spacing:0px;writing-mode:lr-tb;text-anchor:middle;fill:#000000;fill-opacity:1;stroke:none;stroke-width:1px;stroke-linecap:butt;stroke-linejoin:miter;stroke-opacity:1"
       x="171.02422"
       y="845.70459"
       id="text4237"><tspan
         id="tspan4239"
         x="171.02422"
         y="845.70459"
         style="font-size:17.5px">Agar Deep</tspan></text>
    <text
       id="text4241"
       y="992.99768"
       x="298.69757"
       style="font-style:normal;font-variant:normal;font-weight:normal;font-stretch:normal;font-size:22.5px;line-height:125%;font-family:'Noto Sans';-inkscape-font-specification:'Noto Sans, Normal';text-align:center;letter-spacing:0px;word-spacing:0px;writing-mode:lr-tb;text-anchor:middle;fill:#000000;fill-opacity:1;stroke:none;stroke-width:1px;stroke-linecap:butt;stroke-linejoin:miter;stroke-opacity:1"
       xml:space="preserve"><tspan
         style="font-size:17.5px"
         y="992.99768"
         x="298.69757"
         id="tspan4243">Agar Plate</tspan></text>
  </g>
</svg>
