<?xml version="1.0" encoding="UTF-8" standalone="no"?>
<!-- Created with Inkscape (http://www.inkscape.org/) -->

<svg
   xmlns:dc="http://purl.org/dc/elements/1.1/"
   xmlns:cc="http://creativecommons.org/ns#"
   xmlns:rdf="http://www.w3.org/1999/02/22-rdf-syntax-ns#"
   xmlns:svg="http://www.w3.org/2000/svg"
   xmlns="http://www.w3.org/2000/svg"
   xmlns:sodipodi="http://sodipodi.sourceforge.net/DTD/sodipodi-0.dtd"
   xmlns:inkscape="http://www.inkscape.org/namespaces/inkscape"
   id="svg3480"
   version="1.1"
   inkscape:version="0.48.4 r9939"
   width="765"
   height="990"
   xml:space="preserve"
   sodipodi:docname="4_celld.pdf"><metadata
     id="metadata3486"><rdf:RDF><cc:Work
         rdf:about=""><dc:format>image/svg+xml</dc:format><dc:type
           rdf:resource="http://purl.org/dc/dcmitype/StillImage" /><dc:title></dc:title></cc:Work></rdf:RDF></metadata><defs
     id="defs3484"><clipPath
       clipPathUnits="userSpaceOnUse"
       id="clipPath3496"><path
         d="m 18,40.0801 576,0 0,733.92 -576,0 0,-733.92 z"
         id="path3498"
         inkscape:connector-curvature="0" /></clipPath><clipPath
       clipPathUnits="userSpaceOnUse"
       id="clipPath3506"><path
         d="m 302.88,40.0801 6.23999,0 0,9.84 -6.23999,0 0,-9.84 z"
         id="path3508"
         inkscape:connector-curvature="0" /></clipPath><clipPath
       clipPathUnits="userSpaceOnUse"
       id="clipPath3520"><path
         d="m 302.88,40.0801 6.23999,0 0,9.84 -6.23999,0 0,-9.84 z"
         id="path3522"
         inkscape:connector-curvature="0" /></clipPath><clipPath
       clipPathUnits="userSpaceOnUse"
       id="clipPath3530"><path
         d="m 18,40.0801 576,0 0,733.92 -576,0 0,-733.92 z"
         id="path3532"
         inkscape:connector-curvature="0" /></clipPath><clipPath
       clipPathUnits="userSpaceOnUse"
       id="clipPath3620"><path
         d="m 18,40.0801 576,0 0,733.92 -576,0 0,-733.92 z"
         id="path3622"
         inkscape:connector-curvature="0" /></clipPath><clipPath
       clipPathUnits="userSpaceOnUse"
       id="clipPath3634"><path
         d="m 18,40.0801 576,0 0,733.92 -576,0 0,-733.92 z"
         id="path3636"
         inkscape:connector-curvature="0" /></clipPath><clipPath
       clipPathUnits="userSpaceOnUse"
       id="clipPath3644"><path
         d="m 18,40.0801 576,0 0,733.92 -576,0 0,-733.92 z"
         id="path3646"
         inkscape:connector-curvature="0" /></clipPath><clipPath
       clipPathUnits="userSpaceOnUse"
       id="clipPath3706"><path
         d="m 18,40.0801 576,0 0,733.92 -576,0 0,-733.92 z"
         id="path3708"
         inkscape:connector-curvature="0" /></clipPath><clipPath
       clipPathUnits="userSpaceOnUse"
       id="clipPath3720"><path
         d="m 18,40.0801 576,0 0,733.92 -576,0 0,-733.92 z"
         id="path3722"
         inkscape:connector-curvature="0" /></clipPath><clipPath
       clipPathUnits="userSpaceOnUse"
       id="clipPath3822"><path
         d="m 18,40.0801 576,0 0,733.92 -576,0 0,-733.92 z"
         id="path3824"
         inkscape:connector-curvature="0" /></clipPath><clipPath
       clipPathUnits="userSpaceOnUse"
       id="clipPath3928"><path
         d="m 18,40.0801 576,0 0,733.92 -576,0 0,-733.92 z"
         id="path3930"
         inkscape:connector-curvature="0" /></clipPath><clipPath
       clipPathUnits="userSpaceOnUse"
       id="clipPath4110"><path
         d="m 18,40.0801 576,0 0,733.92 -576,0 0,-733.92 z"
         id="path4112"
         inkscape:connector-curvature="0" /></clipPath><clipPath
       clipPathUnits="userSpaceOnUse"
       id="clipPath4280"><path
         d="m 18,40.0801 576,0 0,733.92 -576,0 0,-733.92 z"
         id="path4282"
         inkscape:connector-curvature="0" /></clipPath><clipPath
       clipPathUnits="userSpaceOnUse"
       id="clipPath4294"><path
         d="m 18,40.0801 576,0 0,733.92 -576,0 0,-733.92 z"
         id="path4296"
         inkscape:connector-curvature="0" /></clipPath><clipPath
       clipPathUnits="userSpaceOnUse"
       id="clipPath4316"><path
         d="m 18,40.0801 576,0 0,733.92 -576,0 0,-733.92 z"
         id="path4318"
         inkscape:connector-curvature="0" /></clipPath><clipPath
       clipPathUnits="userSpaceOnUse"
       id="clipPath4326"><path
         d="m 18,40.0801 576,0 0,733.92 -576,0 0,-733.92 z"
         id="path4328"
         inkscape:connector-curvature="0" /></clipPath><clipPath
       clipPathUnits="userSpaceOnUse"
       id="clipPath4336"><path
         d="m 18,40.0801 576,0 0,733.92 -576,0 0,-733.92 z"
         id="path4338"
         inkscape:connector-curvature="0" /></clipPath><clipPath
       clipPathUnits="userSpaceOnUse"
       id="clipPath4466"><path
         d="m 18,40.0801 576,0 0,733.92 -576,0 0,-733.92 z"
         id="path4468"
         inkscape:connector-curvature="0" /></clipPath><clipPath
       clipPathUnits="userSpaceOnUse"
       id="clipPath4476"><path
         d="m 18,40.0801 576,0 0,733.92 -576,0 0,-733.92 z"
         id="path4478"
         inkscape:connector-curvature="0" /></clipPath><clipPath
       clipPathUnits="userSpaceOnUse"
       id="clipPath4486"><path
         d="m 66.96,40.0801 499.2,0 0,611.76 -499.2,0 0,-611.76 z"
         id="path4488"
         inkscape:connector-curvature="0" /></clipPath><clipPath
       clipPathUnits="userSpaceOnUse"
       id="clipPath4496"><path
         d="M 0,0 587,0 587,762 0,762 0,0 z"
         id="path4498"
         inkscape:connector-curvature="0" /></clipPath><clipPath
       clipPathUnits="userSpaceOnUse"
       id="clipPath4506"><path
         d="M 0,0 587,0 587,762 0,762 0,0 z"
         id="path4508"
         inkscape:connector-curvature="0" /></clipPath><clipPath
       clipPathUnits="userSpaceOnUse"
       id="clipPath4604"><path
         d="m 107,705 86,0 0,23 -86,0 0,-23 z"
         id="path4606"
         inkscape:connector-curvature="0" /></clipPath><clipPath
       clipPathUnits="userSpaceOnUse"
       id="clipPath4618"><path
         d="m 21,621 52,0 0,14 -52,0 0,-14 z"
         id="path4620"
         inkscape:connector-curvature="0" /></clipPath><clipPath
       clipPathUnits="userSpaceOnUse"
       id="clipPath4632"><path
         d="m 21,462 60,0 0,14 -60,0 0,-14 z"
         id="path4634"
         inkscape:connector-curvature="0" /></clipPath><clipPath
       clipPathUnits="userSpaceOnUse"
       id="clipPath4646"><path
         d="m 21,296 55,0 0,14 -55,0 0,-14 z"
         id="path4648"
         inkscape:connector-curvature="0" /></clipPath><clipPath
       clipPathUnits="userSpaceOnUse"
       id="clipPath4660"><path
         d="m 21,150 57,0 0,14 -57,0 0,-14 z"
         id="path4662"
         inkscape:connector-curvature="0" /></clipPath><clipPath
       clipPathUnits="userSpaceOnUse"
       id="clipPath4674"><path
         d="m 379,718 86,0 0,23 -86,0 0,-23 z"
         id="path4676"
         inkscape:connector-curvature="0" /></clipPath><clipPath
       clipPathUnits="userSpaceOnUse"
       id="clipPath4688"><path
         d="M 0,0 587,0 587,762 0,762 0,0 z"
         id="path4690"
         inkscape:connector-curvature="0" /></clipPath><clipPath
       clipPathUnits="userSpaceOnUse"
       id="clipPath4994"><path
         d="m 268,666 59,0 0,14 -59,0 0,-14 z"
         id="path4996"
         inkscape:connector-curvature="0" /></clipPath><clipPath
       clipPathUnits="userSpaceOnUse"
       id="clipPath5008"><path
         d="m 268,578 67,0 0,14 -67,0 0,-14 z"
         id="path5010"
         inkscape:connector-curvature="0" /></clipPath><clipPath
       clipPathUnits="userSpaceOnUse"
       id="clipPath5022"><path
         d="m 268,486 61,0 0,14 -61,0 0,-14 z"
         id="path5024"
         inkscape:connector-curvature="0" /></clipPath><clipPath
       clipPathUnits="userSpaceOnUse"
       id="clipPath5036"><path
         d="m 268,396 63,0 0,14 -63,0 0,-14 z"
         id="path5038"
         inkscape:connector-curvature="0" /></clipPath><clipPath
       clipPathUnits="userSpaceOnUse"
       id="clipPath5050"><path
         d="m 387,312 62,0 0,14 -62,0 0,-14 z"
         id="path5052"
         inkscape:connector-curvature="0" /></clipPath><clipPath
       clipPathUnits="userSpaceOnUse"
       id="clipPath5064"><path
         d="m 383,225 70,0 0,14 -70,0 0,-14 z"
         id="path5066"
         inkscape:connector-curvature="0" /></clipPath><clipPath
       clipPathUnits="userSpaceOnUse"
       id="clipPath5078"><path
         d="m 385,151 65,0 0,14 -65,0 0,-14 z"
         id="path5080"
         inkscape:connector-curvature="0" /></clipPath><clipPath
       clipPathUnits="userSpaceOnUse"
       id="clipPath5092"><path
         d="m 381,97 67,0 0,14 -67,0 0,-14 z"
         id="path5094"
         inkscape:connector-curvature="0" /></clipPath><clipPath
       clipPathUnits="userSpaceOnUse"
       id="clipPath5106"><path
         d="m 196,689 36,0 0,14 -36,0 0,-14 z"
         id="path5108"
         inkscape:connector-curvature="0" /></clipPath><clipPath
       clipPathUnits="userSpaceOnUse"
       id="clipPath5120"><path
         d="m 477,707 36,0 0,14 -36,0 0,-14 z"
         id="path5122"
         inkscape:connector-curvature="0" /></clipPath><clipPath
       clipPathUnits="userSpaceOnUse"
       id="clipPath5134"><path
         d="m 80,36 26,0 0,14 -26,0 0,-14 z"
         id="path5136"
         inkscape:connector-curvature="0" /></clipPath><clipPath
       clipPathUnits="userSpaceOnUse"
       id="clipPath5148"><path
         d="m 181,36 26,0 0,14 -26,0 0,-14 z"
         id="path5150"
         inkscape:connector-curvature="0" /></clipPath><clipPath
       clipPathUnits="userSpaceOnUse"
       id="clipPath5162"><path
         d="m 279,362 20,0 0,14 -20,0 0,-14 z"
         id="path5164"
         inkscape:connector-curvature="0" /></clipPath><clipPath
       clipPathUnits="userSpaceOnUse"
       id="clipPath5176"><path
         d="m 508,362 20,0 0,14 -20,0 0,-14 z"
         id="path5178"
         inkscape:connector-curvature="0" /></clipPath><clipPath
       clipPathUnits="userSpaceOnUse"
       id="clipPath5190"><path
         d="m 283,23 23,0 0,14 -23,0 0,-14 z"
         id="path5192"
         inkscape:connector-curvature="0" /></clipPath><clipPath
       clipPathUnits="userSpaceOnUse"
       id="clipPath5204"><path
         d="m 353,23 23,0 0,14 -23,0 0,-14 z"
         id="path5206"
         inkscape:connector-curvature="0" /></clipPath><clipPath
       clipPathUnits="userSpaceOnUse"
       id="clipPath5218"><path
         d="m 451,23 23,0 0,14 -23,0 0,-14 z"
         id="path5220"
         inkscape:connector-curvature="0" /></clipPath><clipPath
       clipPathUnits="userSpaceOnUse"
       id="clipPath5232"><path
         d="m 518,23 24,0 0,14 -24,0 0,-14 z"
         id="path5234"
         inkscape:connector-curvature="0" /></clipPath></defs><sodipodi:namedview
     pagecolor="#ffffff"
     bordercolor="#666666"
     borderopacity="1"
     objecttolerance="10"
     gridtolerance="10"
     guidetolerance="10"
     inkscape:pageopacity="0"
     inkscape:pageshadow="2"
     inkscape:window-width="1920"
     inkscape:window-height="1030"
     id="namedview3482"
     showgrid="false"
     units="in"
     inkscape:zoom="0.60854038"
     inkscape:cx="305.94876"
     inkscape:cy="587.44182"
     inkscape:window-x="0"
     inkscape:window-y="0"
     inkscape:window-maximized="1"
     inkscape:current-layer="g3488" /><g
     id="g3488"
     inkscape:groupmode="layer"
     inkscape:label="4_celld"
     transform="matrix(1.25,0,0,-1.25,0,990)"><g
       id="g3490" /><g
       id="g3492"><g
         id="g3494"
         clip-path="url(#clipPath3496)"><g
           id="g3500"
           transform="matrix(0.24,0,0,0.24,54,39.1201)" /></g></g><g
       id="g3516"><g
         id="g3518"
         clip-path="url(#clipPath3520)"><g
           id="g3524"
           transform="matrix(0.24,0,0,0.24,308.88,41.0401)" /></g></g><g
       id="g3630"><g
         id="g3632"
         clip-path="url(#clipPath3634)"><g
           id="g3638"
           transform="matrix(0.24,0,0,0.24,243.84,732)" /></g></g><g
       id="g4312"><g
         id="g4314"
         clip-path="url(#clipPath4316)"><g
           id="g4320"
           transform="matrix(0.24,0,0,0.24,422.16,704.64)" /></g></g><g
       id="g4322"><g
         id="g4324"
         clip-path="url(#clipPath4326)"><g
           id="g4330"
           transform="matrix(0.24,0,0,0.24,306,691.2)" /></g></g><g
       id="g4462"><g
         id="g4464"
         clip-path="url(#clipPath4466)"><g
           id="g4470"
           transform="matrix(0.24,0,0,0.24,432,677.28)" /></g></g><g
       id="g4472"><g
         id="g4474"
         clip-path="url(#clipPath4476)"><g
           id="g4480"
           transform="matrix(0.24,0,0,0.24,54,663.36)" /></g></g><path
       sodipodi:type="arc"
       style="fill:#ffffff;fill-opacity:1;stroke:#000000;stroke-width:2;stroke-miterlimit:4;stroke-opacity:1;stroke-dasharray:none;stroke-dashoffset:0"
       id="path5887"
       sodipodi:cx="258.40521"
       sodipodi:cy="352.81961"
       sodipodi:rx="65.320236"
       sodipodi:ry="65.320236"
       d="m 323.72545,352.81961 c 0,36.07537 -29.24487,65.32024 -65.32024,65.32024 -36.07537,0 -65.32023,-29.24487 -65.32023,-65.32024 0,-36.07537 29.24486,-65.32024 65.32023,-65.32024 36.07537,0 65.32024,29.24487 65.32024,65.32024 z"
       transform="matrix(0.8,0,0,-0.8,-39.316968,864.65731)" /><path
       transform="matrix(0.8,0,0,-0.8,-41.94621,722.02093)"
       d="m 323.72545,352.81961 c 0,36.07537 -29.24487,65.32024 -65.32024,65.32024 -36.07537,0 -65.32023,-29.24487 -65.32023,-65.32024 0,-36.07537 29.24486,-65.32024 65.32023,-65.32024 36.07537,0 65.32024,29.24487 65.32024,65.32024 z"
       sodipodi:ry="65.320236"
       sodipodi:rx="65.320236"
       sodipodi:cy="352.81961"
       sodipodi:cx="258.40521"
       id="path6659"
       style="fill:#ffffff;fill-opacity:1;stroke:#000000;stroke-width:2;stroke-miterlimit:4;stroke-opacity:1;stroke-dasharray:none;stroke-dashoffset:0"
       sodipodi:type="arc" /><path
       sodipodi:type="arc"
       style="fill:#ffffff;fill-opacity:1;stroke:#000000;stroke-width:2;stroke-miterlimit:4;stroke-opacity:1;stroke-dasharray:none;stroke-dashoffset:0"
       id="path6661"
       sodipodi:cx="258.40521"
       sodipodi:cy="352.81961"
       sodipodi:rx="65.320236"
       sodipodi:ry="65.320236"
       d="m 323.72545,352.81961 c 0,36.07537 -29.24487,65.32024 -65.32024,65.32024 -36.07537,0 -65.32023,-29.24487 -65.32023,-65.32024 0,-36.07537 29.24486,-65.32024 65.32023,-65.32024 36.07537,0 65.32024,29.24487 65.32024,65.32024 z"
       transform="matrix(0.96526862,0,0,-0.74891643,-84.98114,567.27705)" /><path
       style="fill:#ffffff;fill-opacity:1;stroke:#000000;stroke-width:1.36213207;stroke-miterlimit:4;stroke-opacity:1;stroke-dasharray:none;stroke-dashoffset:0"
       d="m 133.875,216.725 c -24.56971,0 -44.475,-19.90529 -44.475,-44.475 0,-24.56971 19.90529,-44.5 44.475,-44.5 12.98274,0 24.6923,5.55476 32.825,14.425 8.13222,-8.86286 19.79844,-14.425 32.775,-14.425 24.56971,0 44.5,19.93029 44.5,44.5 0,24.56971 -19.93029,44.475 -44.5,44.475 -12.97656,0 -24.64278,-5.56214 -32.775,-14.425 -8.1327,8.87024 -19.84226,14.425 -32.825,14.425 z"
       id="path6663"
       inkscape:connector-curvature="0" /><path
       transform="matrix(0.69240212,0,0,-0.51630149,269.94439,824.59455)"
       d="m 323.72545,352.81961 c 0,36.07537 -29.24487,65.32024 -65.32024,65.32024 -36.07537,0 -65.32023,-29.24487 -65.32023,-65.32024 0,-36.07537 29.24486,-65.32024 65.32023,-65.32024 36.07537,0 65.32024,29.24487 65.32024,65.32024 z"
       sodipodi:ry="65.320236"
       sodipodi:rx="65.320236"
       sodipodi:cy="352.81961"
       sodipodi:cx="258.40521"
       id="path6668"
       style="fill:#ffffff;fill-opacity:1;stroke:#000000;stroke-width:2;stroke-miterlimit:4;stroke-opacity:1;stroke-dasharray:none;stroke-dashoffset:0"
       sodipodi:type="arc" /><path
       sodipodi:type="arc"
       style="fill:#ffffff;fill-opacity:1;stroke:#000000;stroke-width:2;stroke-miterlimit:4;stroke-opacity:1;stroke-dasharray:none;stroke-dashoffset:0"
       id="path6670"
       sodipodi:cx="258.40521"
       sodipodi:cy="352.81961"
       sodipodi:rx="65.320236"
       sodipodi:ry="65.320236"
       d="m 323.72545,352.81961 c 0,36.07537 -29.24487,65.32024 -65.32024,65.32024 -36.07537,0 -65.32023,-29.24487 -65.32023,-65.32024 0,-36.07537 29.24486,-65.32024 65.32023,-65.32024 36.07537,0 65.32024,29.24487 65.32024,65.32024 z"
       transform="matrix(0.69240212,0,0,-0.51630149,269.94439,741.39455)" /><path
       transform="matrix(0.89743659,0,0,-0.51504666,215.49224,657.75182)"
       d="m 323.72545,352.81961 c 0,36.07537 -29.24487,65.32024 -65.32024,65.32024 -36.07537,0 -65.32023,-29.24487 -65.32023,-65.32024 0,-36.07537 29.24486,-65.32024 65.32023,-65.32024 36.07537,0 65.32024,29.24487 65.32024,65.32024 z"
       sodipodi:ry="65.320236"
       sodipodi:rx="65.320236"
       sodipodi:cy="352.81961"
       sodipodi:cx="258.40521"
       id="path6672"
       style="fill:#ffffff;fill-opacity:1;stroke:#000000;stroke-width:2;stroke-miterlimit:4;stroke-opacity:1;stroke-dasharray:none;stroke-dashoffset:0"
       sodipodi:type="arc" /><path
       style="fill:#ffffff;fill-opacity:1;stroke:#000000;stroke-width:1.19580638;stroke-miterlimit:4;stroke-opacity:1;stroke-dasharray:none;stroke-dashoffset:0"
       d="m 418.475,423.35 c -24.97866,0 -45.25,-15.09923 -45.25,-33.725 0,-18.62577 20.27134,-33.725 45.25,-33.725 11.32116,0 21.64183,3.12409 29.575,8.25 7.93544,-5.13264 18.29554,-8.25 29.625,-8.25 24.97866,0 45.225,15.09923 45.225,33.725 0,18.62577 -20.24634,33.725 -45.225,33.725 -11.32687,0 -21.69027,-3.09446 -29.625,-8.225 -7.93242,5.12372 -18.25654,8.225 -29.575,8.225 z"
       id="path6674"
       inkscape:connector-curvature="0" /><path
       sodipodi:type="arc"
       style="fill:#ffffff;fill-opacity:1;stroke:#000000;stroke-width:2;stroke-miterlimit:4;stroke-opacity:1;stroke-dasharray:none;stroke-dashoffset:0"
       id="path6679"
       sodipodi:cx="258.40521"
       sodipodi:cy="352.81961"
       sodipodi:rx="65.320236"
       sodipodi:ry="65.320236"
       d="m 323.72545,352.81961 c 0,36.07537 -29.24487,65.32024 -65.32024,65.32024 -36.07537,0 -65.32023,-29.24487 -65.32023,-65.32024 0,-36.07537 29.24486,-65.32024 65.32023,-65.32024 36.07537,0 65.32024,29.24487 65.32024,65.32024 z"
       transform="matrix(0.69240212,0,0,-0.51630149,157.2683,491.54633)" /><path
       transform="matrix(0.69240212,0,0,-0.51630149,360.50586,491.54633)"
       d="m 323.72545,352.81961 c 0,36.07537 -29.24487,65.32024 -65.32024,65.32024 -36.07537,0 -65.32023,-29.24487 -65.32023,-65.32024 0,-36.07537 29.24486,-65.32024 65.32023,-65.32024 36.07537,0 65.32024,29.24487 65.32024,65.32024 z"
       sodipodi:ry="65.320236"
       sodipodi:rx="65.320236"
       sodipodi:cy="352.81961"
       sodipodi:cx="258.40521"
       id="path6681"
       style="fill:#ffffff;fill-opacity:1;stroke:#000000;stroke-width:2;stroke-miterlimit:4;stroke-opacity:1;stroke-dasharray:none;stroke-dashoffset:0"
       sodipodi:type="arc" /><path
       transform="matrix(0.69240212,0,0,-0.51630149,155.01099,413.41293)"
       d="m 323.72545,352.81961 c 0,36.07537 -29.24487,65.32024 -65.32024,65.32024 -36.07537,0 -65.32023,-29.24487 -65.32023,-65.32024 0,-36.07537 29.24486,-65.32024 65.32023,-65.32024 36.07537,0 65.32024,29.24487 65.32024,65.32024 z"
       sodipodi:ry="65.320236"
       sodipodi:rx="65.320236"
       sodipodi:cy="352.81961"
       sodipodi:cx="258.40521"
       id="path6683"
       style="fill:#ffffff;fill-opacity:1;stroke:#000000;stroke-width:2;stroke-miterlimit:4;stroke-opacity:1;stroke-dasharray:none;stroke-dashoffset:0"
       sodipodi:type="arc" /><path
       sodipodi:type="arc"
       style="fill:#ffffff;fill-opacity:1;stroke:#000000;stroke-width:2;stroke-miterlimit:4;stroke-opacity:1;stroke-dasharray:none;stroke-dashoffset:0"
       id="path6685"
       sodipodi:cx="258.40521"
       sodipodi:cy="352.81961"
       sodipodi:rx="65.320236"
       sodipodi:ry="65.320236"
       d="m 323.72545,352.81961 c 0,36.07537 -29.24487,65.32024 -65.32024,65.32024 -36.07537,0 -65.32023,-29.24487 -65.32023,-65.32024 0,-36.07537 29.24486,-65.32024 65.32023,-65.32024 36.07537,0 65.32024,29.24487 65.32024,65.32024 z"
       transform="matrix(0.69240212,0,0,-0.51630149,359.84855,413.41293)" /><path
       sodipodi:type="arc"
       style="fill:#ffffff;fill-opacity:1;stroke:#000000;stroke-width:2;stroke-miterlimit:4;stroke-opacity:1;stroke-dasharray:none;stroke-dashoffset:0"
       id="path6687"
       sodipodi:cx="258.40521"
       sodipodi:cy="352.81961"
       sodipodi:rx="65.320236"
       sodipodi:ry="65.320236"
       d="m 323.72545,352.81961 c 0,36.07537 -29.24487,65.32024 -65.32024,65.32024 -36.07537,0 -65.32023,-29.24487 -65.32023,-65.32024 0,-36.07537 29.24486,-65.32024 65.32023,-65.32024 36.07537,0 65.32024,29.24487 65.32024,65.32024 z"
       transform="matrix(0.69240212,0,0,-0.51630149,146.92444,337.99532)" /><path
       transform="matrix(0.69240212,0,0,-0.51630149,356.562,337.99532)"
       d="m 323.72545,352.81961 c 0,36.07537 -29.24487,65.32024 -65.32024,65.32024 -36.07537,0 -65.32023,-29.24487 -65.32023,-65.32024 0,-36.07537 29.24486,-65.32024 65.32023,-65.32024 36.07537,0 65.32024,29.24487 65.32024,65.32024 z"
       sodipodi:ry="65.320236"
       sodipodi:rx="65.320236"
       sodipodi:cy="352.81961"
       sodipodi:cx="258.40521"
       id="path6689"
       style="fill:#ffffff;fill-opacity:1;stroke:#000000;stroke-width:2;stroke-miterlimit:4;stroke-opacity:1;stroke-dasharray:none;stroke-dashoffset:0"
       sodipodi:type="arc" /><path
       id="path6691"
       d="m 296.50782,106.98022 c -21.13598,0 -38.28879,-20.292262 -38.28879,-45.323943 0,-25.03168 17.15281,-45.323952 38.28879,-45.323952 9.57953,0 18.31249,4.198549 25.02523,11.087402 6.71466,-6.897896 15.48097,-11.087402 25.06753,-11.087402 21.13598,0 38.26765,20.292272 38.26765,45.323952 0,25.031681 -17.13167,45.323943 -38.26765,45.323943 -9.58436,0 -18.35347,-4.15871 -25.06753,-11.0538 -6.71211,6.88592 -15.44799,11.0538 -25.02523,11.0538 z"
       style="fill:#ffffff;fill-opacity:1;stroke:#000000;stroke-width:1.27519143;stroke-miterlimit:4;stroke-opacity:1;stroke-dasharray:none;stroke-dashoffset:0"
       inkscape:connector-curvature="0" /><path
       inkscape:connector-curvature="0"
       style="fill:#ffffff;fill-opacity:1;stroke:#000000;stroke-width:1.27519143;stroke-miterlimit:4;stroke-opacity:1;stroke-dasharray:none;stroke-dashoffset:0"
       d="m 521.23358,105.93702 c -21.13599,0 -38.2888,-20.292265 -38.2888,-45.323946 0,-25.031681 17.15281,-45.323952 38.2888,-45.323952 9.57953,0 18.31248,4.198548 25.02523,11.087402 6.71466,-6.897897 15.48097,-11.087402 25.06752,-11.087402 21.13599,0 38.26765,20.292271 38.26765,45.323952 0,25.031681 -17.13166,45.323946 -38.26765,45.323946 -9.58435,0 -18.35346,-4.15871 -25.06752,-11.053798 -6.71212,6.885908 -15.44799,11.053798 -25.02523,11.053798 z"
       id="path6693" /><text
       xml:space="preserve"
       style="font-size:14.39999962px;font-style:normal;font-weight:bold;line-height:125%;letter-spacing:0px;word-spacing:0px;fill:#000000;fill-opacity:1;stroke:none;font-family:Sans;-inkscape-font-specification:Sans Bold"
       x="105.16969"
       y="-763.79486"
       id="text6695"
       sodipodi:linespacing="125%"
       transform="scale(1,-1)"><tspan
         sodipodi:role="line"
         id="tspan6697"
         x="105.16969"
         y="-763.79486"
         style="font-size:25.60000038px;font-weight:bold;-inkscape-font-specification:Sans Bold">Comparing Mitosis and Meiosis</tspan></text>
<text
       xml:space="preserve"
       style="font-size:18px;font-style:normal;font-weight:bold;line-height:125%;letter-spacing:0px;word-spacing:0px;fill:#000000;fill-opacity:1;stroke:none;font-family:Sans;-inkscape-font-specification:Sans Bold"
       x="39.438633"
       y="173.29167"
       id="text6699"
       sodipodi:linespacing="125%"
       transform="matrix(0.8,0,0,-0.8,0,792)"><tspan
         sodipodi:role="line"
         id="tspan6701"
         x="39.438633"
         y="173.29167">2N=4</tspan></text>
<text
       transform="scale(1,-1)"
       sodipodi:linespacing="125%"
       id="text6703"
       y="-677.47845"
       x="517.96069"
       style="font-size:14.39999962px;font-style:normal;font-weight:bold;line-height:125%;letter-spacing:0px;word-spacing:0px;fill:#000000;fill-opacity:1;stroke:none;font-family:Sans;-inkscape-font-specification:Sans Bold"
       xml:space="preserve"><tspan
         y="-677.47845"
         x="517.96069"
         id="tspan6705"
         sodipodi:role="line">2N=4</tspan></text>
<text
       xml:space="preserve"
       style="font-size:14.39999962px;font-style:normal;font-weight:bold;line-height:125%;letter-spacing:0px;word-spacing:0px;fill:#000000;fill-opacity:1;stroke:none;font-family:Sans;-inkscape-font-specification:Sans Bold"
       x="6.5731063"
       y="-583.69177"
       id="text6707"
       sodipodi:linespacing="125%"
       transform="scale(1,-1)"><tspan
         sodipodi:role="line"
         id="tspan6709"
         x="6.5731063"
         y="-583.69177">Prophase</tspan></text>
<text
       transform="scale(1,-1)"
       sodipodi:linespacing="125%"
       id="text6711"
       y="-430.09253"
       x="6.5731063"
       style="font-size:14.39999962px;font-style:normal;font-weight:bold;line-height:125%;letter-spacing:0px;word-spacing:0px;fill:#000000;fill-opacity:1;stroke:none;font-family:Sans;-inkscape-font-specification:Sans Bold"
       xml:space="preserve"><tspan
         y="-430.09253"
         x="6.5731063"
         id="tspan6713"
         sodipodi:role="line">Metaphase</tspan></text>
<text
       xml:space="preserve"
       style="font-size:14.39999962px;font-style:normal;font-weight:bold;line-height:125%;letter-spacing:0px;word-spacing:0px;fill:#000000;fill-opacity:1;stroke:none;font-family:Sans;-inkscape-font-specification:Sans Bold"
       x="6.5731063"
       y="-297.29202"
       id="text6715"
       sodipodi:linespacing="125%"
       transform="scale(1,-1)"><tspan
         sodipodi:role="line"
         id="tspan6717"
         x="6.5731063"
         y="-297.29202">Anaphase</tspan></text>
<text
       transform="scale(1,-1)"
       sodipodi:linespacing="125%"
       id="text6719"
       y="-166.09152"
       x="6.5731063"
       style="font-size:14.39999962px;font-style:normal;font-weight:bold;line-height:125%;letter-spacing:0px;word-spacing:0px;fill:#000000;fill-opacity:1;stroke:none;font-family:Sans;-inkscape-font-specification:Sans Bold"
       xml:space="preserve"><tspan
         y="-166.09152"
         x="6.5731063"
         id="tspan6721"
         sodipodi:role="line">Telophase</tspan></text>
<text
       transform="scale(1,-1)"
       sodipodi:linespacing="125%"
       id="text6723"
       y="-643.29834"
       x="301.10901"
       style="font-size:14.39999962px;font-style:normal;font-weight:bold;line-height:125%;letter-spacing:0px;word-spacing:0px;fill:#000000;fill-opacity:1;stroke:none;font-family:Sans;-inkscape-font-specification:Sans Bold"
       xml:space="preserve"><tspan
         y="-643.29834"
         x="301.10901"
         id="tspan6725"
         sodipodi:role="line">Prophase I</tspan></text>
<text
       xml:space="preserve"
       style="font-size:14.39999962px;font-style:normal;font-weight:bold;line-height:125%;letter-spacing:0px;word-spacing:0px;fill:#000000;fill-opacity:1;stroke:none;font-family:Sans;-inkscape-font-specification:Sans Bold"
       x="295.56512"
       y="-558.05939"
       id="text6727"
       sodipodi:linespacing="125%"
       transform="scale(1,-1)"><tspan
         sodipodi:role="line"
         id="tspan6729"
         x="295.56512"
         y="-558.05939">Metaphase I</tspan></text>
<text
       transform="scale(1,-1)"
       sodipodi:linespacing="125%"
       id="text6731"
       y="-477.84433"
       x="287.50433"
       style="font-size:14.39999962px;font-style:normal;font-weight:bold;line-height:125%;letter-spacing:0px;word-spacing:0px;fill:#000000;fill-opacity:1;stroke:none;font-family:Sans;-inkscape-font-specification:Sans Bold"
       xml:space="preserve"><tspan
         y="-477.84433"
         x="287.50433"
         id="tspan6733"
         sodipodi:role="line">Anaphase I</tspan></text>
<text
       xml:space="preserve"
       style="font-size:14.39999962px;font-style:normal;font-weight:bold;line-height:125%;letter-spacing:0px;word-spacing:0px;fill:#000000;fill-opacity:1;stroke:none;font-family:Sans;-inkscape-font-specification:Sans Bold"
       x="277.84351"
       y="-387.39706"
       id="text6735"
       sodipodi:linespacing="125%"
       transform="scale(1,-1)"><tspan
         sodipodi:role="line"
         id="tspan6737"
         x="277.84351"
         y="-387.39706">Telophase I</tspan></text>
<text
       xml:space="preserve"
       style="font-size:14.39999962px;font-style:normal;font-weight:bold;line-height:125%;letter-spacing:0px;word-spacing:0px;fill:#000000;fill-opacity:1;stroke:none;font-family:Sans;-inkscape-font-specification:Sans Bold"
       x="394.38632"
       y="-305.44138"
       id="text6739"
       sodipodi:linespacing="125%"
       transform="scale(1,-1)"><tspan
         sodipodi:role="line"
         id="tspan6741"
         x="394.38632"
         y="-305.44138">Prophase II</tspan></text>
<text
       transform="scale(1,-1)"
       sodipodi:linespacing="125%"
       id="text6743"
       y="-226.77548"
       x="383.86932"
       style="font-size:14.39999962px;font-style:normal;font-weight:bold;line-height:125%;letter-spacing:0px;word-spacing:0px;fill:#000000;fill-opacity:1;stroke:none;font-family:Sans;-inkscape-font-specification:Sans Bold"
       xml:space="preserve"><tspan
         y="-226.77548"
         x="383.86932"
         id="tspan6745"
         sodipodi:role="line">Metaphase II</tspan></text>
<text
       xml:space="preserve"
       style="font-size:14.39999962px;font-style:normal;font-weight:bold;line-height:125%;letter-spacing:0px;word-spacing:0px;fill:#000000;fill-opacity:1;stroke:none;font-family:Sans;-inkscape-font-specification:Sans Bold"
       x="389.474"
       y="-151.81825"
       id="text6747"
       sodipodi:linespacing="125%"
       transform="scale(1,-1)"><tspan
         sodipodi:role="line"
         id="tspan6749"
         x="389.474"
         y="-151.81825">Anaphase II</tspan></text>
<text
       transform="scale(1,-1)"
       sodipodi:linespacing="125%"
       id="text6751"
       y="-69.258629"
       x="385.41782"
       style="font-size:14.39999962px;font-style:normal;font-weight:bold;line-height:125%;letter-spacing:0px;word-spacing:0px;fill:#000000;fill-opacity:1;stroke:none;font-family:Sans;-inkscape-font-specification:Sans Bold"
       xml:space="preserve"><tspan
         y="-69.258629"
         x="385.41782"
         id="tspan6753"
         sodipodi:role="line">Telophase II</tspan></text>
<text
       xml:space="preserve"
       style="font-size:14.39999962px;font-style:normal;font-weight:bold;line-height:125%;letter-spacing:0px;word-spacing:0px;fill:#000000;fill-opacity:1;stroke:none;font-family:Sans;-inkscape-font-specification:Sans Bold"
       x="26.292421"
       y="-131.46211"
       id="text6755"
       sodipodi:linespacing="125%"
       transform="scale(1,-1)"><tspan
         sodipodi:role="line"
         id="tspan6757"
         x="26.292421"
         y="-131.46211">_N=_</tspan></text>
<text
       transform="scale(1,-1)"
       sodipodi:linespacing="125%"
       id="text6759"
       y="-49.090069"
       x="419.36411"
       style="font-size:14.39999962px;font-style:normal;font-weight:bold;line-height:125%;letter-spacing:0px;word-spacing:0px;fill:#000000;fill-opacity:1;stroke:none;font-family:Sans;-inkscape-font-specification:Sans Bold"
       xml:space="preserve"><tspan
         y="-49.090069"
         x="419.36411"
         id="tspan6761"
         sodipodi:role="line">_N=_</tspan></text>
<text
       xml:space="preserve"
       style="font-size:14.39999962px;font-style:normal;font-weight:bold;line-height:125%;letter-spacing:0px;word-spacing:0px;fill:#000000;fill-opacity:1;stroke:none;font-family:Sans;-inkscape-font-specification:Sans Bold"
       x="542.93848"
       y="-388.26242"
       id="text6763"
       sodipodi:linespacing="125%"
       transform="scale(1,-1)"><tspan
         sodipodi:role="line"
         id="tspan6765"
         x="542.93848"
         y="-388.26242">_N=_</tspan></text>
<text
       xml:space="preserve"
       style="font-size:14.39999962px;font-style:normal;font-weight:bold;line-height:125%;letter-spacing:0px;word-spacing:0px;fill:#000000;fill-opacity:1;stroke:none;font-family:Sans;-inkscape-font-specification:Sans Bold"
       x="109.70289"
       y="-740.30487"
       id="text6767"
       sodipodi:linespacing="125%"
       transform="scale(1,-1)"><tspan
         sodipodi:role="line"
         id="tspan6769"
         x="109.70289"
         y="-740.30487"
         style="font-weight:normal;-inkscape-font-specification:Sans">Using your pop bead knowledge, illustrate the phases below. </tspan><tspan
         sodipodi:role="line"
         x="109.70289"
         y="-722.30487"
         id="tspan6771"
         style="font-weight:normal;-inkscape-font-specification:Sans">Note the ploidy where indicated (_N=_)</tspan></text>
<path
       style="fill:none;stroke:#000000;stroke-width:0.80000001px;stroke-linecap:butt;stroke-linejoin:miter;stroke-opacity:1"
       d="M 253.1511,696.57606 250.52186,3.77076"
       id="path6773"
       inkscape:connector-curvature="0" /></g></svg>