<?xml version="1.0" encoding="UTF-8" standalone="no"?>
<!-- Created with Inkscape (http://www.inkscape.org/) -->

<svg
   xmlns:dc="http://purl.org/dc/elements/1.1/"
   xmlns:cc="http://creativecommons.org/ns#"
   xmlns:rdf="http://www.w3.org/1999/02/22-rdf-syntax-ns#"
   xmlns:svg="http://www.w3.org/2000/svg"
   xmlns="http://www.w3.org/2000/svg"
   xmlns:sodipodi="http://sodipodi.sourceforge.net/DTD/sodipodi-0.dtd"
   xmlns:inkscape="http://www.inkscape.org/namespaces/inkscape"
   width="275"
   height="199"
   id="svg8738"
   version="1.1"
   inkscape:version="0.48.4 r9939"
   sodipodi:docname="New document 4">
  <defs
     id="defs8740">
    <clipPath
       clipPathUnits="userSpaceOnUse"
       id="clipPath8227">
      <path
         inkscape:connector-curvature="0"
         d="m 281.16,261.36 78.72,0 0,48 -78.72,0 0,-48 z"
         id="path8229" />
    </clipPath>
    <clipPath
       clipPathUnits="userSpaceOnUse"
       id="clipPath8193">
      <path
         inkscape:connector-curvature="0"
         d="m 281.16,261.36 78.72,0 0,48 -78.72,0 0,-48 z"
         id="path8195" />
    </clipPath>
    <clipPath
       clipPathUnits="userSpaceOnUse"
       id="clipPath8163">
      <path
         inkscape:connector-curvature="0"
         d="m 281.16,261.36 78.72,0 0,48 -78.72,0 0,-48 z"
         id="path8165" />
    </clipPath>
    <clipPath
       clipPathUnits="userSpaceOnUse"
       id="clipPath7955">
      <path
         inkscape:connector-curvature="0"
         d="m 9,40.5601 594,0 0,746.4 -594,0 0,-746.4 z"
         id="path7957" />
    </clipPath>
    <clipPath
       clipPathUnits="userSpaceOnUse"
       id="clipPath7943">
      <path
         inkscape:connector-curvature="0"
         d="m 9,40.5601 594,0 0,746.4 -594,0 0,-746.4 z"
         id="path7945" />
    </clipPath>
    <clipPath
       clipPathUnits="userSpaceOnUse"
       id="clipPath7929">
      <path
         inkscape:connector-curvature="0"
         d="m 9,40.5601 594,0 0,746.4 -594,0 0,-746.4 z"
         id="path7931" />
    </clipPath>
    <clipPath
       clipPathUnits="userSpaceOnUse"
       id="clipPath7917">
      <path
         inkscape:connector-curvature="0"
         d="m 9,40.5601 594,0 0,746.4 -594,0 0,-746.4 z"
         id="path7919" />
    </clipPath>
    <clipPath
       clipPathUnits="userSpaceOnUse"
       id="clipPath7905">
      <path
         inkscape:connector-curvature="0"
         d="m 9,40.5601 594,0 0,746.4 -594,0 0,-746.4 z"
         id="path7907" />
    </clipPath>
    <clipPath
       clipPathUnits="userSpaceOnUse"
       id="clipPath7893">
      <path
         inkscape:connector-curvature="0"
         d="m 9,40.5601 594,0 0,746.4 -594,0 0,-746.4 z"
         id="path7895" />
    </clipPath>
    <clipPath
       clipPathUnits="userSpaceOnUse"
       id="clipPath7881">
      <path
         inkscape:connector-curvature="0"
         d="m 9,40.5601 594,0 0,746.4 -594,0 0,-746.4 z"
         id="path7883" />
    </clipPath>
    <clipPath
       clipPathUnits="userSpaceOnUse"
       id="clipPath7869">
      <path
         inkscape:connector-curvature="0"
         d="m 9,40.5601 594,0 0,746.4 -594,0 0,-746.4 z"
         id="path7871" />
    </clipPath>
    <clipPath
       clipPathUnits="userSpaceOnUse"
       id="clipPath7855">
      <path
         inkscape:connector-curvature="0"
         d="m 9,40.5601 594,0 0,746.4 -594,0 0,-746.4 z"
         id="path7857" />
    </clipPath>
    <clipPath
       clipPathUnits="userSpaceOnUse"
       id="clipPath7843">
      <path
         inkscape:connector-curvature="0"
         d="m 9,40.5601 594,0 0,746.4 -594,0 0,-746.4 z"
         id="path7845" />
    </clipPath>
    <clipPath
       clipPathUnits="userSpaceOnUse"
       id="clipPath7831">
      <path
         inkscape:connector-curvature="0"
         d="m 9,40.5601 594,0 0,746.4 -594,0 0,-746.4 z"
         id="path7833" />
    </clipPath>
    <clipPath
       clipPathUnits="userSpaceOnUse"
       id="clipPath7819">
      <path
         inkscape:connector-curvature="0"
         d="m 9,40.5601 594,0 0,746.4 -594,0 0,-746.4 z"
         id="path7821" />
    </clipPath>
    <clipPath
       clipPathUnits="userSpaceOnUse"
       id="clipPath7807">
      <path
         inkscape:connector-curvature="0"
         d="m 9,40.5601 594,0 0,746.4 -594,0 0,-746.4 z"
         id="path7809" />
    </clipPath>
    <clipPath
       clipPathUnits="userSpaceOnUse"
       id="clipPath7795">
      <path
         inkscape:connector-curvature="0"
         d="m 9,40.5601 594,0 0,746.4 -594,0 0,-746.4 z"
         id="path7797" />
    </clipPath>
    <clipPath
       clipPathUnits="userSpaceOnUse"
       id="clipPath7783">
      <path
         inkscape:connector-curvature="0"
         d="m 9,40.5601 594,0 0,746.4 -594,0 0,-746.4 z"
         id="path7785" />
    </clipPath>
    <clipPath
       clipPathUnits="userSpaceOnUse"
       id="clipPath7771">
      <path
         inkscape:connector-curvature="0"
         d="m 9,40.5601 594,0 0,746.4 -594,0 0,-746.4 z"
         id="path7773" />
    </clipPath>
    <clipPath
       clipPathUnits="userSpaceOnUse"
       id="clipPath7759">
      <path
         inkscape:connector-curvature="0"
         d="m 9,40.5601 594,0 0,746.4 -594,0 0,-746.4 z"
         id="path7761" />
    </clipPath>
    <clipPath
       clipPathUnits="userSpaceOnUse"
       id="clipPath7745">
      <path
         inkscape:connector-curvature="0"
         d="m 9,40.5601 594,0 0,746.4 -594,0 0,-746.4 z"
         id="path7747" />
    </clipPath>
    <clipPath
       clipPathUnits="userSpaceOnUse"
       id="clipPath7733">
      <path
         inkscape:connector-curvature="0"
         d="m 9,40.5601 594,0 0,746.4 -594,0 0,-746.4 z"
         id="path7735" />
    </clipPath>
    <clipPath
       clipPathUnits="userSpaceOnUse"
       id="clipPath7721">
      <path
         inkscape:connector-curvature="0"
         d="m 9,40.5601 594,0 0,746.4 -594,0 0,-746.4 z"
         id="path7723" />
    </clipPath>
    <clipPath
       clipPathUnits="userSpaceOnUse"
       id="clipPath7709">
      <path
         inkscape:connector-curvature="0"
         d="m 9,40.5601 594,0 0,746.4 -594,0 0,-746.4 z"
         id="path7711" />
    </clipPath>
    <clipPath
       clipPathUnits="userSpaceOnUse"
       id="clipPath7697">
      <path
         inkscape:connector-curvature="0"
         d="m 9,40.5601 594,0 0,746.4 -594,0 0,-746.4 z"
         id="path7699" />
    </clipPath>
    <clipPath
       clipPathUnits="userSpaceOnUse"
       id="clipPath7685">
      <path
         inkscape:connector-curvature="0"
         d="m 9,40.5601 594,0 0,746.4 -594,0 0,-746.4 z"
         id="path7687" />
    </clipPath>
    <clipPath
       clipPathUnits="userSpaceOnUse"
       id="clipPath7673">
      <path
         inkscape:connector-curvature="0"
         d="m 9,40.5601 594,0 0,746.4 -594,0 0,-746.4 z"
         id="path7675" />
    </clipPath>
    <clipPath
       clipPathUnits="userSpaceOnUse"
       id="clipPath7661">
      <path
         inkscape:connector-curvature="0"
         d="m 9,40.5601 594,0 0,746.4 -594,0 0,-746.4 z"
         id="path7663" />
    </clipPath>
    <clipPath
       clipPathUnits="userSpaceOnUse"
       id="clipPath7649">
      <path
         inkscape:connector-curvature="0"
         d="m 9,40.5601 594,0 0,746.4 -594,0 0,-746.4 z"
         id="path7651" />
    </clipPath>
    <clipPath
       clipPathUnits="userSpaceOnUse"
       id="clipPath7637">
      <path
         inkscape:connector-curvature="0"
         d="m 9,40.5601 594,0 0,746.4 -594,0 0,-746.4 z"
         id="path7639" />
    </clipPath>
    <clipPath
       clipPathUnits="userSpaceOnUse"
       id="clipPath7625">
      <path
         inkscape:connector-curvature="0"
         d="m 9,40.5601 594,0 0,746.4 -594,0 0,-746.4 z"
         id="path7627" />
    </clipPath>
    <clipPath
       clipPathUnits="userSpaceOnUse"
       id="clipPath7611">
      <path
         inkscape:connector-curvature="0"
         d="m 9,40.5601 594,0 0,746.4 -594,0 0,-746.4 z"
         id="path7613" />
    </clipPath>
    <clipPath
       clipPathUnits="userSpaceOnUse"
       id="clipPath7599">
      <path
         inkscape:connector-curvature="0"
         d="m 9,40.5601 594,0 0,746.4 -594,0 0,-746.4 z"
         id="path7601" />
    </clipPath>
    <clipPath
       clipPathUnits="userSpaceOnUse"
       id="clipPath7587">
      <path
         inkscape:connector-curvature="0"
         d="m 9,40.5601 594,0 0,746.4 -594,0 0,-746.4 z"
         id="path7589" />
    </clipPath>
    <clipPath
       clipPathUnits="userSpaceOnUse"
       id="clipPath7575">
      <path
         inkscape:connector-curvature="0"
         d="m 9,40.5601 594,0 0,746.4 -594,0 0,-746.4 z"
         id="path7577" />
    </clipPath>
    <clipPath
       clipPathUnits="userSpaceOnUse"
       id="clipPath7563">
      <path
         inkscape:connector-curvature="0"
         d="m 9,40.5601 594,0 0,746.4 -594,0 0,-746.4 z"
         id="path7565" />
    </clipPath>
    <clipPath
       clipPathUnits="userSpaceOnUse"
       id="clipPath7551">
      <path
         inkscape:connector-curvature="0"
         d="m 9,40.5601 594,0 0,746.4 -594,0 0,-746.4 z"
         id="path7553" />
    </clipPath>
  </defs>
  <sodipodi:namedview
     id="base"
     pagecolor="#ffffff"
     bordercolor="#666666"
     borderopacity="1.0"
     inkscape:pageopacity="0.0"
     inkscape:pageshadow="2"
     inkscape:zoom="0.98994949"
     inkscape:cx="379.79847"
     inkscape:cy="256.23553"
     inkscape:document-units="px"
     inkscape:current-layer="layer1"
     showgrid="false"
     inkscape:window-width="1920"
     inkscape:window-height="1018"
     inkscape:window-x="-8"
     inkscape:window-y="-8"
     inkscape:window-maximized="1" />
  <metadata
     id="metadata8743">
    <rdf:RDF>
      <cc:Work
         rdf:about="">
        <dc:format>image/svg+xml</dc:format>
        <dc:type
           rdf:resource="http://purl.org/dc/dcmitype/StillImage" />
        <dc:title></dc:title>
      </cc:Work>
    </rdf:RDF>
  </metadata>
  <g
     inkscape:label="Layer 1"
     inkscape:groupmode="layer"
     id="layer1"
     transform="translate(0,-853.36218)">
    <g
       id="g10065"
       transform="translate(-260.73571,361.99288)">
      <g
         id="g7559"
         transform="matrix(1.25,0,0,-1.25,143.13571,1034.2193)">
        <g
           clip-path="url(#clipPath7563)"
           id="g7561">
          <g
             transform="matrix(0.24,0,0,-0.24,0.120001,792)"
             id="g7567">
            <path
               id="path7569"
               style="fill:#fffc00;fill-opacity:1;fill-rule:nonzero;stroke:#000000;stroke-width:3;stroke-linecap:butt;stroke-linejoin:miter;stroke-miterlimit:10;stroke-opacity:1;stroke-dasharray:none"
               d="m 586,1518.5 c 0,13.53 -11.641,24.5 -26,24.5 -14.359,0 -26,-10.97 -26,-24.5 0,-13.53 11.641,-24.5 26,-24.5 14.359,0 26,10.97 26,24.5 0,0 0,0 0,0 z"
               inkscape:connector-curvature="0" />
          </g>
        </g>
      </g>
      <g
         id="g7571"
         transform="matrix(1.25,0,0,-1.25,143.13571,1034.2193)">
        <g
           clip-path="url(#clipPath7575)"
           id="g7573">
          <g
             transform="matrix(0.24,0,0,-0.24,0.120001,792)"
             id="g7579">
            <path
               id="path7581"
               style="fill:#fffc00;fill-opacity:1;fill-rule:nonzero;stroke:#000000;stroke-width:3;stroke-linecap:butt;stroke-linejoin:miter;stroke-miterlimit:10;stroke-opacity:1;stroke-dasharray:none"
               d="m 588,1570 c 0,13.81 -11.641,25 -26,25 -14.359,0 -26,-11.19 -26,-25 0,-13.81 11.641,-25 26,-25 14.359,0 26,11.19 26,25 0,0 0,0 0,0 z"
               inkscape:connector-curvature="0" />
          </g>
        </g>
      </g>
      <g
         id="g7583"
         transform="matrix(1.25,0,0,-1.25,143.13571,1034.2193)">
        <g
           clip-path="url(#clipPath7587)"
           id="g7585">
          <g
             transform="matrix(0.24,0,0,-0.24,0.120001,792)"
             id="g7591">
            <path
               id="path7593"
               style="fill:#fffc00;fill-opacity:1;fill-rule:nonzero;stroke:#000000;stroke-width:3;stroke-linecap:butt;stroke-linejoin:miter;stroke-miterlimit:10;stroke-opacity:1;stroke-dasharray:none"
               d="m 588,1620 c 0,13.81 -11.641,25 -26,25 -14.359,0 -26,-11.19 -26,-25 0,-13.81 11.641,-25 26,-25 14.359,0 26,11.19 26,25 0,0 0,0 0,0 z"
               inkscape:connector-curvature="0" />
          </g>
        </g>
      </g>
      <g
         id="g7595"
         transform="matrix(1.25,0,0,-1.25,143.13571,1034.2193)">
        <g
           clip-path="url(#clipPath7599)"
           id="g7597">
          <g
             transform="matrix(0.24,0,0,-0.24,0.120001,792)"
             id="g7603">
            <path
               id="path7605"
               style="fill:#fffc00;fill-opacity:1;fill-rule:nonzero;stroke:#000000;stroke-width:3;stroke-linecap:butt;stroke-linejoin:miter;stroke-miterlimit:10;stroke-opacity:1;stroke-dasharray:none"
               d="m 593,1669.5 c 0,13.53 -11.641,24.5 -26,24.5 -14.359,0 -26,-10.97 -26,-24.5 0,-13.53 11.641,-24.5 26,-24.5 14.359,0 26,10.97 26,24.5 0,0 0,0 0,0 z"
               inkscape:connector-curvature="0" />
          </g>
        </g>
      </g>
      <g
         style="fill:#ffffff;fill-opacity:1"
         id="g7607"
         transform="matrix(1.25,0,0,-1.25,143.13571,1034.2193)">
        <g
           style="fill:#ffffff;fill-opacity:1"
           clip-path="url(#clipPath7611)"
           id="g7609">
          <path
             id="path7615"
             style="fill:#ffffff;fill-opacity:1;fill-rule:nonzero;stroke:none"
             d="m 130.92,385.44 12.72,0 0,-34.56 -12.72,0 0,34.56 z"
             inkscape:connector-curvature="0" />
          <g
             style="fill:#ffffff;fill-opacity:1"
             transform="matrix(0.24,0,0,-0.24,0.120001,792)"
             id="g7617">
            <path
               id="path7619"
               style="fill:#ffffff;fill-opacity:1;stroke:#000000;stroke-width:3;stroke-linecap:butt;stroke-linejoin:miter;stroke-miterlimit:10;stroke-opacity:1;stroke-dasharray:none"
               d="m 545.5,1694.5 53,0 0,144 -53,0 0,-144 z"
               inkscape:connector-curvature="0" />
          </g>
        </g>
      </g>
      <g
         id="g7621"
         transform="matrix(1.25,0,0,-1.25,143.13571,1034.2193)">
        <g
           clip-path="url(#clipPath7625)"
           id="g7623">
          <g
             transform="matrix(0.24,0,0,-0.24,0.120001,792)"
             id="g7629">
            <path
               id="path7631"
               style="fill:#fffc00;fill-opacity:1;fill-rule:nonzero;stroke:#000000;stroke-width:3;stroke-linecap:butt;stroke-linejoin:miter;stroke-miterlimit:10;stroke-opacity:1;stroke-dasharray:none"
               d="m 598,1866 c 0,13.81 -11.641,25 -26,25 -14.359,0 -26,-11.19 -26,-25 0,-13.81 11.641,-25 26,-25 14.359,0 26,11.19 26,25 0,0 0,0 0,0 z"
               inkscape:connector-curvature="0" />
          </g>
        </g>
      </g>
      <g
         id="g7633"
         transform="matrix(1.25,0,0,-1.25,143.13571,1034.2193)">
        <g
           clip-path="url(#clipPath7637)"
           id="g7635">
          <g
             transform="matrix(0.24,0,0,-0.24,0.120001,792)"
             id="g7641">
            <path
               id="path7643"
               style="fill:#fffc00;fill-opacity:1;fill-rule:nonzero;stroke:#000000;stroke-width:3;stroke-linecap:butt;stroke-linejoin:miter;stroke-miterlimit:10;stroke-opacity:1;stroke-dasharray:none"
               d="m 603,1917.5 c 0,13.53 -11.641,24.5 -26,24.5 -14.359,0 -26,-10.97 -26,-24.5 0,-13.53 11.641,-24.5 26,-24.5 14.359,0 26,10.97 26,24.5 0,0 0,0 0,0 z"
               inkscape:connector-curvature="0" />
          </g>
        </g>
      </g>
      <g
         id="g7645"
         transform="matrix(1.25,0,0,-1.25,143.13571,1034.2193)">
        <g
           clip-path="url(#clipPath7649)"
           id="g7647">
          <g
             transform="matrix(0.24,0,0,-0.24,0.120001,792)"
             id="g7653">
            <path
               id="path7655"
               style="fill:#fffc00;fill-opacity:1;fill-rule:nonzero;stroke:#000000;stroke-width:3;stroke-linecap:butt;stroke-linejoin:miter;stroke-miterlimit:10;stroke-opacity:1;stroke-dasharray:none"
               d="m 606,1970 c 0,13.81 -11.641,25 -26,25 -14.359,0 -26,-11.19 -26,-25 0,-13.81 11.641,-25 26,-25 14.359,0 26,11.19 26,25 0,0 0,0 0,0 z"
               inkscape:connector-curvature="0" />
          </g>
        </g>
      </g>
      <g
         id="g7657"
         transform="matrix(1.25,0,0,-1.25,143.13571,1034.2193)">
        <g
           clip-path="url(#clipPath7661)"
           id="g7659">
          <g
             transform="matrix(0.24,0,0,-0.24,0.120001,792)"
             id="g7665">
            <path
               id="path7667"
               style="fill:#fffc00;fill-opacity:1;fill-rule:nonzero;stroke:#000000;stroke-width:3;stroke-linecap:butt;stroke-linejoin:miter;stroke-miterlimit:10;stroke-opacity:1;stroke-dasharray:none"
               d="m 608,2022 c 0,13.81 -11.641,25 -26,25 -14.359,0 -26,-11.19 -26,-25 0,-13.81 11.641,-25 26,-25 14.359,0 26,11.19 26,25 0,0 0,0 0,0 z"
               inkscape:connector-curvature="0" />
          </g>
        </g>
      </g>
      <g
         id="g7669"
         transform="matrix(1.25,0,0,-1.25,143.13571,1034.2193)">
        <g
           clip-path="url(#clipPath7673)"
           id="g7671">
          <g
             transform="matrix(0.24,0,0,-0.24,0.120001,792)"
             id="g7677">
            <path
               id="path7679"
               style="fill:#fffc00;fill-opacity:1;fill-rule:nonzero;stroke:#000000;stroke-width:3;stroke-linecap:butt;stroke-linejoin:miter;stroke-miterlimit:10;stroke-opacity:1;stroke-dasharray:none"
               d="m 608,2071.5 c 0,13.53 -11.641,24.5 -26,24.5 -14.359,0 -26,-10.97 -26,-24.5 0,-13.53 11.641,-24.5 26,-24.5 14.359,0 26,10.97 26,24.5 0,0 0,0 0,0 z"
               inkscape:connector-curvature="0" />
          </g>
        </g>
      </g>
      <g
         id="g7693"
         transform="matrix(1.25,0,0,-1.25,47.135713,1034.2193)">
        <g
           clip-path="url(#clipPath7697)"
           id="g7695">
          <g
             transform="matrix(0.24,0,0,-0.24,0.120001,792)"
             id="g7701">
            <path
               id="path7703"
               style="fill:#ff2800;fill-opacity:1;fill-rule:nonzero;stroke:#000000;stroke-width:3;stroke-linecap:butt;stroke-linejoin:miter;stroke-miterlimit:10;stroke-opacity:1;stroke-dasharray:none"
               d="m 765,1521 c 0,13.81 -11.641,25 -26,25 -14.359,0 -26,-11.19 -26,-25 0,-13.81 11.641,-25 26,-25 14.359,0 26,11.19 26,25 0,0 0,0 0,0 z"
               inkscape:connector-curvature="0" />
          </g>
        </g>
      </g>
      <g
         id="g7705"
         transform="matrix(1.25,0,0,-1.25,47.135713,1034.2193)">
        <g
           clip-path="url(#clipPath7709)"
           id="g7707">
          <g
             transform="matrix(0.24,0,0,-0.24,0.120001,792)"
             id="g7713">
            <path
               id="path7715"
               style="fill:#ff2800;fill-opacity:1;fill-rule:nonzero;stroke:#000000;stroke-width:3;stroke-linecap:butt;stroke-linejoin:miter;stroke-miterlimit:10;stroke-opacity:1;stroke-dasharray:none"
               d="m 767,1573 c 0,13.81 -11.641,25 -26,25 -14.359,0 -26,-11.19 -26,-25 0,-13.81 11.641,-25 26,-25 14.359,0 26,11.19 26,25 0,0 0,0 0,0 z"
               inkscape:connector-curvature="0" />
          </g>
        </g>
      </g>
      <g
         id="g7717"
         transform="matrix(1.25,0,0,-1.25,47.135713,1034.2193)">
        <g
           clip-path="url(#clipPath7721)"
           id="g7719">
          <g
             transform="matrix(0.24,0,0,-0.24,0.120001,792)"
             id="g7725">
            <path
               id="path7727"
               style="fill:#ff2800;fill-opacity:1;fill-rule:nonzero;stroke:#000000;stroke-width:3;stroke-linecap:butt;stroke-linejoin:miter;stroke-miterlimit:10;stroke-opacity:1;stroke-dasharray:none"
               d="m 767,1623 c 0,13.81 -11.641,25 -26,25 -14.359,0 -26,-11.19 -26,-25 0,-13.81 11.641,-25 26,-25 14.359,0 26,11.19 26,25 0,0 0,0 0,0 z"
               inkscape:connector-curvature="0" />
          </g>
        </g>
      </g>
      <g
         id="g7729"
         transform="matrix(1.25,0,0,-1.25,47.135713,1034.2193)">
        <g
           clip-path="url(#clipPath7733)"
           id="g7731">
          <g
             transform="matrix(0.24,0,0,-0.24,0.120001,792)"
             id="g7737">
            <path
               id="path7739"
               style="fill:#ff2800;fill-opacity:1;fill-rule:nonzero;stroke:#000000;stroke-width:3;stroke-linecap:butt;stroke-linejoin:miter;stroke-miterlimit:10;stroke-opacity:1;stroke-dasharray:none"
               d="m 772,1672.5 c 0,13.53 -11.641,24.5 -26,24.5 -14.359,0 -26,-10.97 -26,-24.5 0,-13.53 11.641,-24.5 26,-24.5 14.359,0 26,10.97 26,24.5 0,0 0,0 0,0 z"
               inkscape:connector-curvature="0" />
          </g>
        </g>
      </g>
      <g
         style="fill:#ffffff;fill-opacity:1"
         id="g7741"
         transform="matrix(1.25,0,0,-1.25,47.135713,1034.2193)">
        <g
           style="fill:#ffffff;fill-opacity:1"
           clip-path="url(#clipPath7745)"
           id="g7743">
          <path
             id="path7749"
             style="fill:#ffffff;fill-opacity:1;fill-rule:nonzero;stroke:none"
             d="m 174.12,384.72 12.24,0 0,-34.32 -12.24,0 0,34.32 z"
             inkscape:connector-curvature="0" />
          <g
             style="fill:#ffffff;fill-opacity:1"
             transform="matrix(0.24,0,0,-0.24,0.120001,792)"
             id="g7751">
            <path
               id="path7753"
               style="fill:#ffffff;fill-opacity:1;stroke:#000000;stroke-width:3;stroke-linecap:butt;stroke-linejoin:miter;stroke-miterlimit:10;stroke-opacity:1;stroke-dasharray:none"
               d="m 725.5,1697.5 51,0 0,143 -51,0 0,-143 z"
               inkscape:connector-curvature="0" />
          </g>
        </g>
      </g>
      <g
         id="g7755"
         transform="matrix(1.25,0,0,-1.25,47.135713,1034.2193)">
        <g
           clip-path="url(#clipPath7759)"
           id="g7757">
          <g
             transform="matrix(0.24,0,0,-0.24,0.120001,792)"
             id="g7763">
            <path
               id="path7765"
               style="fill:#ff2800;fill-opacity:1;fill-rule:nonzero;stroke:#000000;stroke-width:3;stroke-linecap:butt;stroke-linejoin:miter;stroke-miterlimit:10;stroke-opacity:1;stroke-dasharray:none"
               d="m 777,1869 c 0,13.81 -11.641,25 -26,25 -14.359,0 -26,-11.19 -26,-25 0,-13.81 11.641,-25 26,-25 14.359,0 26,11.19 26,25 0,0 0,0 0,0 z"
               inkscape:connector-curvature="0" />
          </g>
        </g>
      </g>
      <g
         id="g7767"
         transform="matrix(1.25,0,0,-1.25,47.135713,1034.2193)">
        <g
           clip-path="url(#clipPath7771)"
           id="g7769">
          <g
             transform="matrix(0.24,0,0,-0.24,0.120001,792)"
             id="g7775">
            <path
               id="path7777"
               style="fill:#ff2800;fill-opacity:1;fill-rule:nonzero;stroke:#000000;stroke-width:3;stroke-linecap:butt;stroke-linejoin:miter;stroke-miterlimit:10;stroke-opacity:1;stroke-dasharray:none"
               d="m 782,1920 c 0,13.81 -11.641,25 -26,25 -14.359,0 -26,-11.19 -26,-25 0,-13.81 11.641,-25 26,-25 14.359,0 26,11.19 26,25 0,0 0,0 0,0 z"
               inkscape:connector-curvature="0" />
          </g>
        </g>
      </g>
      <g
         id="g7779"
         transform="matrix(1.25,0,0,-1.25,47.135713,1034.2193)">
        <g
           clip-path="url(#clipPath7783)"
           id="g7781">
          <g
             transform="matrix(0.24,0,0,-0.24,0.120001,792)"
             id="g7787">
            <path
               id="path7789"
               style="fill:#ff2800;fill-opacity:1;fill-rule:nonzero;stroke:#000000;stroke-width:3;stroke-linecap:butt;stroke-linejoin:miter;stroke-miterlimit:10;stroke-opacity:1;stroke-dasharray:none"
               d="m 785,1973 c 0,13.81 -11.641,25 -26,25 -14.359,0 -26,-11.19 -26,-25 0,-13.81 11.641,-25 26,-25 14.359,0 26,11.19 26,25 0,0 0,0 0,0 z"
               inkscape:connector-curvature="0" />
          </g>
        </g>
      </g>
      <g
         id="g7791"
         transform="matrix(1.25,0,0,-1.25,47.135713,1034.2193)">
        <g
           clip-path="url(#clipPath7795)"
           id="g7793">
          <g
             transform="matrix(0.24,0,0,-0.24,0.120001,792)"
             id="g7799">
            <path
               id="path7801"
               style="fill:#ff2800;fill-opacity:1;fill-rule:nonzero;stroke:#000000;stroke-width:3;stroke-linecap:butt;stroke-linejoin:miter;stroke-miterlimit:10;stroke-opacity:1;stroke-dasharray:none"
               d="m 787,2024.5 c 0,13.53 -11.641,24.5 -26,24.5 -14.359,0 -26,-10.97 -26,-24.5 0,-13.53 11.641,-24.5 26,-24.5 14.359,0 26,10.97 26,24.5 0,0 0,0 0,0 z"
               inkscape:connector-curvature="0" />
          </g>
        </g>
      </g>
      <g
         id="g7803"
         transform="matrix(1.25,0,0,-1.25,47.135713,1034.2193)">
        <g
           clip-path="url(#clipPath7807)"
           id="g7805">
          <g
             transform="matrix(0.24,0,0,-0.24,0.120001,792)"
             id="g7811">
            <path
               id="path7813"
               style="fill:#ff2800;fill-opacity:1;fill-rule:nonzero;stroke:#000000;stroke-width:3;stroke-linecap:butt;stroke-linejoin:miter;stroke-miterlimit:10;stroke-opacity:1;stroke-dasharray:none"
               d="m 787,2074.5 c 0,13.53 -11.641,24.5 -26,24.5 -14.359,0 -26,-10.97 -26,-24.5 0,-13.53 11.641,-24.5 26,-24.5 14.359,0 26,10.97 26,24.5 0,0 0,0 0,0 z"
               inkscape:connector-curvature="0" />
          </g>
        </g>
      </g>
      <g
         id="g7815"
         transform="matrix(1.25,0,0,-1.25,151.13571,1154.2193)">
        <g
           clip-path="url(#clipPath7819)"
           id="g7817">
          <g
             transform="matrix(0.24,0,0,-0.24,0.120001,792)"
             id="g7823">
            <path
               id="path7825"
               style="fill:#fffc00;fill-opacity:1;fill-rule:nonzero;stroke:#000000;stroke-width:3;stroke-linecap:butt;stroke-linejoin:miter;stroke-miterlimit:10;stroke-opacity:1;stroke-dasharray:none"
               d="m 1278,1593.5 c 0,13.53 -11.64,24.5 -26,24.5 -14.36,0 -26,-10.97 -26,-24.5 0,-13.53 11.64,-24.5 26,-24.5 14.36,0 26,10.97 26,24.5 0,0 0,0 0,0 z"
               inkscape:connector-curvature="0" />
          </g>
        </g>
      </g>
      <g
         id="g7827"
         transform="matrix(1.25,0,0,-1.25,147.13571,1034.2193)">
        <g
           clip-path="url(#clipPath7831)"
           id="g7829">
          <g
             transform="matrix(0.24,0,0,-0.24,0.120001,792)"
             id="g7835">
            <path
               id="path7837"
               style="fill:#fffc00;fill-opacity:1;fill-rule:nonzero;stroke:#000000;stroke-width:3;stroke-linecap:butt;stroke-linejoin:miter;stroke-miterlimit:10;stroke-opacity:1;stroke-dasharray:none"
               d="m 1278,1643 c 0,13.81 -11.64,25 -26,25 -14.36,0 -26,-11.19 -26,-25 0,-13.81 11.64,-25 26,-25 14.36,0 26,11.19 26,25 0,0 0,0 0,0 z"
               inkscape:connector-curvature="0" />
          </g>
        </g>
      </g>
      <g
         id="g7839"
         transform="matrix(1.25,0,0,-1.25,147.13571,1034.2193)">
        <g
           clip-path="url(#clipPath7843)"
           id="g7841">
          <g
             transform="matrix(0.24,0,0,-0.24,0.120001,792)"
             id="g7847">
            <path
               id="path7849"
               style="fill:#fffc00;fill-opacity:1;fill-rule:nonzero;stroke:#000000;stroke-width:3;stroke-linecap:butt;stroke-linejoin:miter;stroke-miterlimit:10;stroke-opacity:1;stroke-dasharray:none"
               d="m 1283,1692.5 c 0,13.53 -11.64,24.5 -26,24.5 -14.36,0 -26,-10.97 -26,-24.5 0,-13.53 11.64,-24.5 26,-24.5 14.36,0 26,10.97 26,24.5 0,0 0,0 0,0 z"
               inkscape:connector-curvature="0" />
          </g>
        </g>
      </g>
      <g
         style="fill:#ffffff;fill-opacity:1"
         id="g7851"
         transform="matrix(1.25,0,0,-1.25,147.13571,1034.2193)">
        <g
           style="fill:#ffffff;fill-opacity:1"
           clip-path="url(#clipPath7855)"
           id="g7853">
          <path
             id="path7859"
             style="fill:#ffffff;fill-opacity:1;fill-rule:nonzero;stroke:none"
             d="m 296.52,379.92 12.48,0 0,-34.56 -12.48,0 0,34.56 z"
             inkscape:connector-curvature="0" />
          <g
             style="fill:#ffffff;fill-opacity:1"
             transform="matrix(0.24,0,0,-0.24,0.120001,792)"
             id="g7861">
            <path
               id="path7863"
               style="fill:#ffffff;fill-opacity:1;stroke:#000000;stroke-width:3;stroke-linecap:butt;stroke-linejoin:miter;stroke-miterlimit:10;stroke-opacity:1;stroke-dasharray:none"
               d="m 1235.5,1717.5 52,0 0,144 -52,0 0,-144 z"
               inkscape:connector-curvature="0" />
          </g>
        </g>
      </g>
      <g
         id="g7865"
         transform="matrix(1.25,0,0,-1.25,147.13571,1034.2193)">
        <g
           clip-path="url(#clipPath7869)"
           id="g7867">
          <g
             transform="matrix(0.24,0,0,-0.24,0.120001,792)"
             id="g7873">
            <path
               id="path7875"
               style="fill:#fffc00;fill-opacity:1;fill-rule:nonzero;stroke:#000000;stroke-width:3;stroke-linecap:butt;stroke-linejoin:miter;stroke-miterlimit:10;stroke-opacity:1;stroke-dasharray:none"
               d="m 1288,1889 c 0,13.81 -11.64,25 -26,25 -14.36,0 -26,-11.19 -26,-25 0,-13.81 11.64,-25 26,-25 14.36,0 26,11.19 26,25 0,0 0,0 0,0 z"
               inkscape:connector-curvature="0" />
          </g>
        </g>
      </g>
      <g
         id="g7877"
         transform="matrix(1.25,0,0,-1.25,147.13571,1034.2193)">
        <g
           clip-path="url(#clipPath7881)"
           id="g7879">
          <g
             transform="matrix(0.24,0,0,-0.24,0.120001,792)"
             id="g7885">
            <path
               id="path7887"
               style="fill:#fffc00;fill-opacity:1;fill-rule:nonzero;stroke:#000000;stroke-width:3;stroke-linecap:butt;stroke-linejoin:miter;stroke-miterlimit:10;stroke-opacity:1;stroke-dasharray:none"
               d="m 1293,1940.5 c 0,13.53 -11.64,24.5 -26,24.5 -14.36,0 -26,-10.97 -26,-24.5 0,-13.53 11.64,-24.5 26,-24.5 14.36,0 26,10.97 26,24.5 0,0 0,0 0,0 z"
               inkscape:connector-curvature="0" />
          </g>
        </g>
      </g>
      <g
         id="g7889"
         transform="matrix(1.25,0,0,-1.25,61.135713,1154.2193)">
        <g
           clip-path="url(#clipPath7893)"
           id="g7891">
          <g
             transform="matrix(0.24,0,0,-0.24,0.120001,792)"
             id="g7897">
            <path
               id="path7899"
               style="fill:#ff2800;fill-opacity:1;fill-rule:nonzero;stroke:#000000;stroke-width:3;stroke-linecap:butt;stroke-linejoin:miter;stroke-miterlimit:10;stroke-opacity:1;stroke-dasharray:none"
               d="m 1434,1588 c 0,13.81 -11.64,25 -26,25 -14.36,0 -26,-11.19 -26,-25 0,-13.81 11.64,-25 26,-25 14.36,0 26,11.19 26,25 0,0 0,0 0,0 z"
               inkscape:connector-curvature="0" />
          </g>
        </g>
      </g>
      <g
         id="g7901"
         transform="matrix(1.25,0,0,-1.25,57.135713,1034.2193)">
        <g
           clip-path="url(#clipPath7905)"
           id="g7903">
          <g
             transform="matrix(0.24,0,0,-0.24,0.120001,792)"
             id="g7909">
            <path
               id="path7911"
               style="fill:#ff2800;fill-opacity:1;fill-rule:nonzero;stroke:#000000;stroke-width:3;stroke-linecap:butt;stroke-linejoin:miter;stroke-miterlimit:10;stroke-opacity:1;stroke-dasharray:none"
               d="m 1434,1638 c 0,13.81 -11.64,25 -26,25 -14.36,0 -26,-11.19 -26,-25 0,-13.81 11.64,-25 26,-25 14.36,0 26,11.19 26,25 0,0 0,0 0,0 z"
               inkscape:connector-curvature="0" />
          </g>
        </g>
      </g>
      <g
         id="g7913"
         transform="matrix(1.25,0,0,-1.25,57.135713,1034.2193)">
        <g
           clip-path="url(#clipPath7917)"
           id="g7915">
          <g
             transform="matrix(0.24,0,0,-0.24,0.120001,792)"
             id="g7921">
            <path
               id="path7923"
               style="fill:#ff2800;fill-opacity:1;fill-rule:nonzero;stroke:#000000;stroke-width:3;stroke-linecap:butt;stroke-linejoin:miter;stroke-miterlimit:10;stroke-opacity:1;stroke-dasharray:none"
               d="m 1439,1687.5 c 0,13.53 -11.64,24.5 -26,24.5 -14.36,0 -26,-10.97 -26,-24.5 0,-13.53 11.64,-24.5 26,-24.5 14.36,0 26,10.97 26,24.5 0,0 0,0 0,0 z"
               inkscape:connector-curvature="0" />
          </g>
        </g>
      </g>
      <g
         style="fill:#ffffff;fill-opacity:1"
         id="g7925"
         transform="matrix(1.25,0,0,-1.25,57.135713,1034.2193)">
        <g
           style="fill:#ffffff;fill-opacity:1"
           clip-path="url(#clipPath7929)"
           id="g7927">
          <path
             id="path7933"
             style="fill:#ffffff;fill-opacity:1;fill-rule:nonzero;stroke:none"
             d="m 333.96,381.12 12.48,0 0,-34.32 -12.48,0 0,34.32 z"
             inkscape:connector-curvature="0" />
          <g
             style="fill:#ffffff;fill-opacity:1"
             transform="matrix(0.24,0,0,-0.24,0.120001,792)"
             id="g7935">
            <path
               id="path7937"
               style="fill:#ffffff;fill-opacity:1;stroke:#000000;stroke-width:3;stroke-linecap:butt;stroke-linejoin:miter;stroke-miterlimit:10;stroke-opacity:1;stroke-dasharray:none"
               d="m 1391.5,1712.5 52,0 0,143 -52,0 0,-143 z"
               inkscape:connector-curvature="0" />
          </g>
        </g>
      </g>
      <g
         id="g7939"
         transform="matrix(1.25,0,0,-1.25,57.135713,1034.2193)">
        <g
           clip-path="url(#clipPath7943)"
           id="g7941">
          <g
             transform="matrix(0.24,0,0,-0.24,0.120001,792)"
             id="g7947">
            <path
               id="path7949"
               style="fill:#ff2800;fill-opacity:1;fill-rule:nonzero;stroke:#000000;stroke-width:3;stroke-linecap:butt;stroke-linejoin:miter;stroke-miterlimit:10;stroke-opacity:1;stroke-dasharray:none"
               d="m 1444,1884 c 0,13.81 -11.64,25 -26,25 -14.36,0 -26,-11.19 -26,-25 0,-13.81 11.64,-25 26,-25 14.36,0 26,11.19 26,25 0,0 0,0 0,0 z"
               inkscape:connector-curvature="0" />
          </g>
        </g>
      </g>
      <g
         id="g7951"
         transform="matrix(1.25,0,0,-1.25,57.135713,1034.2193)">
        <g
           clip-path="url(#clipPath7955)"
           id="g7953">
          <g
             transform="matrix(0.24,0,0,-0.24,0.120001,792)"
             id="g7959">
            <path
               id="path7961"
               style="fill:#ff2800;fill-opacity:1;fill-rule:nonzero;stroke:#000000;stroke-width:3;stroke-linecap:butt;stroke-linejoin:miter;stroke-miterlimit:10;stroke-opacity:1;stroke-dasharray:none"
               d="m 1449,1935 c 0,13.81 -11.64,25 -26,25 -14.36,0 -26,-11.19 -26,-25 0,-13.81 11.64,-25 26,-25 14.36,0 26,11.19 26,25 0,0 0,0 0,0 z"
               inkscape:connector-curvature="0" />
          </g>
        </g>
      </g>
      <g
         transform="matrix(1.25,0,0,-1.25,143.13571,1050.2193)"
         id="g10049">
        <g
           id="g10051"
           clip-path="url(#clipPath7673)">
          <g
             id="g10053"
             transform="matrix(0.24,0,0,-0.24,0.120001,792)">
            <path
               inkscape:connector-curvature="0"
               d="m 608,2071.5 c 0,13.53 -11.641,24.5 -26,24.5 -14.359,0 -26,-10.97 -26,-24.5 0,-13.53 11.641,-24.5 26,-24.5 14.359,0 26,10.97 26,24.5 0,0 0,0 0,0 z"
               style="fill:#fffc00;fill-opacity:1;fill-rule:nonzero;stroke:#000000;stroke-width:3;stroke-linecap:butt;stroke-linejoin:miter;stroke-miterlimit:10;stroke-opacity:1;stroke-dasharray:none"
               id="path10055" />
          </g>
        </g>
      </g>
      <g
         transform="matrix(1.25,0,0,-1.25,47.135713,1050.2193)"
         id="g10057">
        <g
           id="g10059"
           clip-path="url(#clipPath7807)">
          <g
             id="g10061"
             transform="matrix(0.24,0,0,-0.24,0.120001,792)">
            <path
               inkscape:connector-curvature="0"
               d="m 787,2074.5 c 0,13.53 -11.641,24.5 -26,24.5 -14.359,0 -26,-10.97 -26,-24.5 0,-13.53 11.641,-24.5 26,-24.5 14.359,0 26,10.97 26,24.5 0,0 0,0 0,0 z"
               style="fill:#ff2800;fill-opacity:1;fill-rule:nonzero;stroke:#000000;stroke-width:3;stroke-linecap:butt;stroke-linejoin:miter;stroke-miterlimit:10;stroke-opacity:1;stroke-dasharray:none"
               id="path10063" />
          </g>
        </g>
      </g>
    </g>
  </g>
</svg>
