<?xml version="1.0" encoding="UTF-8" standalone="no"?>
<svg
   xmlns:dc="http://purl.org/dc/elements/1.1/"
   xmlns:cc="http://creativecommons.org/ns#"
   xmlns:rdf="http://www.w3.org/1999/02/22-rdf-syntax-ns#"
   xmlns:svg="http://www.w3.org/2000/svg"
   xmlns="http://www.w3.org/2000/svg"
   version="1.1"
   id="svg10237"
   height="529"
   width="570">
  <metadata
     id="metadata10330">
    <rdf:RDF>
      <cc:Work
         rdf:about="">
        <dc:format>image/svg+xml</dc:format>
        <dc:type
           rdf:resource="http://purl.org/dc/dcmitype/StillImage" />
        <dc:title>The Cell Cycle</dc:title>
        <dc:contributor>
          <cc:Agent>
            <dc:title>https://commons.wikimedia.org/wiki/User:T4taylor https://commons.wikimedia.org/wiki/User:LadyofHats</dc:title>
          </cc:Agent>
        </dc:contributor>
        <dc:description>https://commons.wikimedia.org/wiki/File%3ACyclin_Expression.svg derivative work</dc:description>
        <cc:license
           rdf:resource="http://creativecommons.org/licenses/by-sa/3.0/" />
        <dc:creator>
          <cc:Agent>
            <dc:title>Jeremy Seto</dc:title>
          </cc:Agent>
        </dc:creator>
        <dc:rights>
          <cc:Agent>
            <dc:title>CC-BY-SA</dc:title>
          </cc:Agent>
        </dc:rights>
        <dc:subject>
          <rdf:Bag>
            <rdf:li>cell cycle</rdf:li>
            <rdf:li>cyclin</rdf:li>
          </rdf:Bag>
        </dc:subject>
      </cc:Work>
      <cc:License
         rdf:about="http://creativecommons.org/licenses/by-sa/3.0/">
        <cc:permits
           rdf:resource="http://creativecommons.org/ns#Reproduction" />
        <cc:permits
           rdf:resource="http://creativecommons.org/ns#Distribution" />
        <cc:requires
           rdf:resource="http://creativecommons.org/ns#Notice" />
        <cc:requires
           rdf:resource="http://creativecommons.org/ns#Attribution" />
        <cc:permits
           rdf:resource="http://creativecommons.org/ns#DerivativeWorks" />
        <cc:requires
           rdf:resource="http://creativecommons.org/ns#ShareAlike" />
      </cc:License>
    </rdf:RDF>
  </metadata>
  <metadata
     id="metadata4"
     creator="http://www.clker.com/clipart-the-cell-cycle.html Public Domain" />
  <defs
     id="defs10328">
    <linearGradient
       gradientTransform="matrix(0.45384287,0,0,0.51901412,122.89726,184.73488)"
       y2="165.20171"
       x2="314.6582"
       y1="165.20171"
       x1="54.158199"
       gradientUnits="userSpaceOnUse"
       id="SVGID_1_">
      <stop
         id="stop6"
         style="stop-color:#F0F3F5"
         offset="0" />
      <stop
         id="stop8"
         style="stop-color:#FFFFFF"
         offset="1" />
    </linearGradient>
    <linearGradient
       gradientTransform="matrix(0.53349261,0,0,0.51901412,97.834835,184.73488)"
       y2="165.20171"
       x2="483.1582"
       y1="165.20171"
       x1="314.6582"
       gradientUnits="userSpaceOnUse"
       id="SVGID_2_">
      <stop
         id="stop13"
         style="stop-color:#F0F3F5"
         offset="0" />
      <stop
         id="stop15"
         style="stop-color:#FFFFFF"
         offset="1" />
    </linearGradient>
    <linearGradient
       gradientTransform="matrix(0.53349261,0,0,0.51901412,97.834835,184.73488)"
       y2="165.20171"
       x2="618.6582"
       y1="165.20171"
       x1="483.1582"
       gradientUnits="userSpaceOnUse"
       id="SVGID_3_">
      <stop
         id="stop20"
         style="stop-color:#F0F3F5"
         offset="0" />
      <stop
         id="stop22"
         style="stop-color:#FFFFFF"
         offset="1" />
    </linearGradient>
    <linearGradient
       gradientTransform="matrix(0.43201416,0,0,0.51901412,160.61529,184.73488)"
       y2="165.20171"
       x2="778.39648"
       y1="165.20171"
       x1="618.6582"
       gradientUnits="userSpaceOnUse"
       id="SVGID_4_">
      <stop
         id="stop27"
         style="stop-color:#F0F3F5"
         offset="0" />
      <stop
         id="stop29"
         style="stop-color:#FFFFFF"
         offset="1" />
    </linearGradient>
    <linearGradient
       id="linearGradient4418"
       gradientUnits="userSpaceOnUse"
       x1="54.158199"
       y1="165.20171"
       x2="314.6582"
       y2="165.20171">
      <stop
         offset="0"
         style="stop-color:#F0F3F5"
         id="stop4420" />
      <stop
         offset="1"
         style="stop-color:#FFFFFF"
         id="stop4422" />
    </linearGradient>
    <linearGradient
       id="linearGradient4425"
       gradientUnits="userSpaceOnUse"
       x1="314.6582"
       y1="165.20171"
       x2="483.1582"
       y2="165.20171">
      <stop
         offset="0"
         style="stop-color:#F0F3F5"
         id="stop4427" />
      <stop
         offset="1"
         style="stop-color:#FFFFFF"
         id="stop4429" />
    </linearGradient>
    <linearGradient
       id="linearGradient4432"
       gradientUnits="userSpaceOnUse"
       x1="483.1582"
       y1="165.20171"
       x2="618.6582"
       y2="165.20171">
      <stop
         offset="0"
         style="stop-color:#F0F3F5"
         id="stop4434" />
      <stop
         offset="1"
         style="stop-color:#FFFFFF"
         id="stop4436" />
    </linearGradient>
    <linearGradient
       id="linearGradient4439"
       gradientUnits="userSpaceOnUse"
       x1="618.6582"
       y1="165.20171"
       x2="778.39648"
       y2="165.20171">
      <stop
         offset="0"
         style="stop-color:#F0F3F5"
         id="stop4441" />
      <stop
         offset="1"
         style="stop-color:#FFFFFF"
         id="stop4443" />
    </linearGradient>
  </defs>
  <title
     id="title10239">The Cell Cycle</title>
  <rect
     y="1.2935163"
     x="1.2935199"
     height="526.41296"
     width="567.4129"
     id="rect5278"
     style="opacity:1;fill:#ffffff;fill-opacity:1;stroke:none;stroke-width:2.58703971;stroke-miterlimit:10;stroke-dasharray:none;stroke-dashoffset:0;stroke-opacity:1" />
  <rect
     id="svg_207"
     height="0"
     width="0.001"
     y="151.23401"
     x="446.91"
     style="fill:#ff7f00" />
  <g
     transform="translate(-29.204965,-11.12855)"
     id="g5078">
    <g
       id="g4955"
       transform="matrix(1.0771518,0,0,1.0771518,-30.880251,-18.498078)">
      <rect
         style="fill:url(#SVGID_1_)"
         x="147.47649"
         y="196.51703"
         width="118.22607"
         height="147.91954"
         id="rect10" />
      <rect
         style="fill:url(#SVGID_2_)"
         x="265.70255"
         y="196.51703"
         width="89.893501"
         height="147.91954"
         id="rect17" />
      <rect
         style="fill:url(#SVGID_3_)"
         x="355.59604"
         y="196.51703"
         width="72.288246"
         height="147.91954"
         id="rect24" />
      <rect
         style="fill:url(#SVGID_4_)"
         x="427.88431"
         y="196.51703"
         width="69.009079"
         height="147.91954"
         id="rect31" />
      <g
         transform="matrix(0.53351802,0,0,0.51823644,97.822976,184.97797)"
         id="g33">
        <g
           id="g35">
          <line
             style="fill:none;stroke:#4d4d4d;stroke-linecap:round;stroke-linejoin:round"
             x1="314.65799"
             y1="22.701"
             x2="314.65799"
             y2="22.701"
             id="line37" />
          <line
             style="fill:none;stroke:#4d4d4d;stroke-linecap:round;stroke-linejoin:round;stroke-dasharray:0, 1.993"
             x1="314.65799"
             y1="24.694"
             x2="314.65799"
             y2="306.70499"
             id="line39" />
          <line
             style="fill:none;stroke:#4d4d4d;stroke-linecap:round;stroke-linejoin:round"
             x1="314.65799"
             y1="307.70099"
             x2="314.65799"
             y2="307.70099"
             id="line41" />
        </g>
      </g>
      <g
         transform="matrix(0.53351802,0,0,0.51823644,97.822976,184.97797)"
         id="g43">
        <g
           id="g45">
          <line
             style="fill:none;stroke:#4d4d4d;stroke-linecap:round;stroke-linejoin:round"
             x1="483.15799"
             y1="22.701"
             x2="483.15799"
             y2="22.701"
             id="line47" />
          <line
             style="fill:none;stroke:#4d4d4d;stroke-linecap:round;stroke-linejoin:round;stroke-dasharray:0, 1.993"
             x1="483.15799"
             y1="24.694"
             x2="483.15799"
             y2="306.70499"
             id="line49" />
          <line
             style="fill:none;stroke:#4d4d4d;stroke-linecap:round;stroke-linejoin:round"
             x1="483.15799"
             y1="307.70099"
             x2="483.15799"
             y2="307.70099"
             id="line51" />
        </g>
      </g>
      <g
         transform="matrix(0.53351802,0,0,0.51823644,97.822976,184.97797)"
         id="g53">
        <g
           id="g55">
          <line
             style="fill:none;stroke:#4d4d4d;stroke-linecap:round;stroke-linejoin:round"
             x1="618.65802"
             y1="22.701"
             x2="618.65802"
             y2="22.701"
             id="line57" />
          <line
             style="fill:none;stroke:#4d4d4d;stroke-linecap:round;stroke-linejoin:round;stroke-dasharray:0, 1.993"
             x1="618.65802"
             y1="24.694"
             x2="618.65802"
             y2="306.70499"
             id="line59" />
          <line
             style="fill:none;stroke:#4d4d4d;stroke-linecap:round;stroke-linejoin:round"
             x1="618.65802"
             y1="307.70099"
             x2="618.65802"
             y2="307.70099"
             id="line61" />
        </g>
      </g>
      <path
         id="path65"
         d="m 177.01573,344.5131 c 0,0 30.64953,-95.114 160.53166,-95.114 129.88213,0 151.12418,95.114 151.12418,95.114"
         stroke-miterlimit="10"
         style="fill:none;stroke:#c1272d;stroke-width:2.31110954;stroke-miterlimit:10;stroke-dasharray:none" />
      <path
         id="path67"
         d="m 191.10321,344.43656 c 0,0 13.64781,0.22247 21.33971,-9.87014 18.97473,-24.8965 29.16444,-97.8068 56.55022,-97.8068 27.38577,0 27.65198,67.35344 39.83429,89.27091 10.6053,19.0809 20.98386,18.4055 20.98386,18.4055"
         stroke-miterlimit="10"
         style="fill:none;stroke:#64b500;stroke-width:2.5;stroke-miterlimit:10;stroke-dasharray:none" />
      <path
         id="path69"
         d="m 217.422,344.43923 c 0,0 38.22955,-9.51537 81.95247,-50.3553 43.72292,-40.83939 56.045,-59.10245 80.94097,-59.10245 24.89596,0 37.34448,18.76187 50.85945,43.52447 13.51497,24.76259 19.91688,65.93008 19.91688,65.93008"
         stroke-miterlimit="10"
         style="fill:none;stroke:#2783c1;stroke-width:2.5;stroke-miterlimit:10;stroke-dasharray:none" />
      <path
         id="path71"
         d="m 264.36935,344.43603 c 0,0 48.89514,-11.6136 91.22671,-40.10157 59.67968,-40.16293 62.14228,-67.57484 77.88032,-67.57484 15.73803,0 18.86109,24.3518 25.44012,48.72494 6.57904,24.37315 8.53589,58.95147 8.53589,58.95147"
         stroke-miterlimit="10"
         style="fill:none;stroke:#f07000;stroke-width:2.5;stroke-miterlimit:10;stroke-dasharray:none" />
      <g
         transform="matrix(1.5506577,0,0,1.5506577,-262.04087,-132.46447)"
         id="g4931">
        <g
           id="g73"
           transform="matrix(0.53349261,0,0,0.53349261,97.834835,180.27982)">
          <g
             id="g75">
            <path
               style="fill:#f07000"
               d="m 653.658,101.974 c 0,1.657 1.343,3 3,3 l 50.444,0 c 1.657,0 3,-1.343 3,-3 l 0,-13.127 c 0,-1.657 -1.343,-3 -3,-3 l -50.444,0 c -1.657,0 -3,1.343 -3,3 l 0,13.127 z"
               id="path77" />
          </g>
          <g
             id="g79">
            <path
               style="fill:#ffffff"
               d="m 665.984,98.6 c -0.41,0.198 -1.313,0.424 -2.471,0.424 -3.02,0 -4.855,-1.892 -4.855,-4.799 0,-3.134 2.188,-5.024 5.096,-5.024 1.143,0 1.947,0.239 2.301,0.423 l -0.367,1.384 c -0.451,-0.198 -1.087,-0.367 -1.863,-0.367 -1.934,0 -3.33,1.214 -3.33,3.5 0,2.104 1.213,3.43 3.316,3.43 0.691,0 1.426,-0.141 1.891,-0.339 l 0.282,1.368 z"
               id="path81" />
            <path
               style="fill:#ffffff"
               d="m 668.114,91.994 1.228,3.685 c 0.141,0.423 0.297,0.945 0.396,1.326 l 0.042,0 c 0.1,-0.381 0.227,-0.903 0.367,-1.341 l 1.072,-3.67 1.85,0 -1.723,4.687 c -0.945,2.568 -1.58,3.712 -2.385,4.418 -0.691,0.593 -1.397,0.818 -1.82,0.875 l -0.396,-1.454 c 0.296,-0.07 0.649,-0.226 1.002,-0.479 0.339,-0.212 0.72,-0.621 0.96,-1.087 0.07,-0.127 0.099,-0.227 0.099,-0.311 0,-0.071 -0.015,-0.17 -0.085,-0.339 l -2.526,-6.31 1.919,0 z"
               id="path83" />
            <path
               style="fill:#ffffff"
               d="m 678.939,98.656 c -0.367,0.17 -1.088,0.354 -1.948,0.354 -2.146,0 -3.542,-1.384 -3.542,-3.515 0,-2.061 1.41,-3.656 3.824,-3.656 0.635,0 1.285,0.142 1.68,0.311 l -0.311,1.313 c -0.282,-0.141 -0.691,-0.268 -1.313,-0.268 -1.326,0 -2.117,0.974 -2.104,2.229 0,1.412 0.918,2.217 2.104,2.217 0.593,0 1.03,-0.127 1.369,-0.269 l 0.241,1.284 z"
               id="path85" />
            <path
               style="fill:#ffffff"
               d="m 680.223,88.847 1.735,0 0,10.021 -1.735,0 0,-10.021 z"
               id="path87" />
            <path
               style="fill:#ffffff"
               d="m 685.698,90.075 c 0,0.508 -0.382,0.932 -0.988,0.932 -0.579,0 -0.96,-0.424 -0.96,-0.932 0,-0.537 0.396,-0.946 0.975,-0.946 0.591,0 0.959,0.409 0.973,0.946 z m -1.848,8.793 0,-6.874 1.735,0 0,6.874 -1.735,0 z"
               id="path89" />
            <path
               style="fill:#ffffff"
               d="m 687.461,94.041 c 0,-0.79 -0.027,-1.454 -0.057,-2.047 l 1.511,0 0.085,1.03 0.042,0 c 0.311,-0.536 1.059,-1.186 2.202,-1.186 1.199,0 2.441,0.776 2.441,2.95 l 0,4.079 -1.736,0 0,-3.882 c 0,-0.987 -0.367,-1.735 -1.313,-1.735 -0.691,0 -1.171,0.494 -1.354,1.016 -0.057,0.142 -0.085,0.354 -0.085,0.551 l 0,4.051 -1.736,0 0,-4.827 z"
               id="path91" />
            <path
               style="fill:#ffffff"
               d="m 698.525,89.496 c 0.551,-0.113 1.553,-0.212 2.54,-0.212 1.271,0 2.075,0.17 2.71,0.607 0.594,0.353 0.988,0.974 0.988,1.792 0,0.875 -0.551,1.666 -1.581,2.047 l 0,0.042 c 1.003,0.255 1.92,1.045 1.92,2.344 0,0.847 -0.367,1.51 -0.903,1.976 -0.678,0.579 -1.793,0.875 -3.543,0.875 -0.959,0 -1.68,-0.07 -2.131,-0.127 l 0,-9.344 z m 1.722,3.755 0.89,0 c 1.213,0 1.877,-0.564 1.877,-1.369 0,-0.903 -0.678,-1.313 -1.779,-1.313 -0.508,0 -0.804,0.027 -0.987,0.07 l 0,2.612 z m 0,4.361 c 0.226,0.042 0.522,0.042 0.917,0.042 1.115,0 2.117,-0.409 2.117,-1.581 0,-1.115 -0.974,-1.566 -2.174,-1.566 l -0.86,0 0,3.105 z"
               id="path93" />
          </g>
        </g>
      </g>
      <g
         transform="matrix(1.5506577,0,0,1.5506577,-217.10914,-121.91927)"
         id="g4918">
        <g
           id="g95"
           transform="matrix(0.53349261,0,0,0.53349261,97.834835,180.27982)">
          <g
             id="g97">
            <path
               style="fill:#2783c1"
               d="m 509.235,86.974 c 0,1.657 1.343,3 3,3 l 51.517,0 c 1.657,0 3,-1.343 3,-3 l 0,-13.127 c 0,-1.657 -1.343,-3 -3,-3 l -51.517,0 c -1.657,0 -3,1.343 -3,3 l 0,13.127 z"
               id="path99" />
          </g>
          <g
             id="g101">
            <path
               style="fill:#ffffff"
               d="m 521.561,83.6 c -0.409,0.198 -1.313,0.424 -2.471,0.424 -3.02,0 -4.854,-1.892 -4.854,-4.799 0,-3.134 2.188,-5.024 5.095,-5.024 1.144,0 1.948,0.239 2.301,0.423 l -0.367,1.384 c -0.451,-0.198 -1.086,-0.367 -1.863,-0.367 -1.934,0 -3.33,1.214 -3.33,3.5 0,2.104 1.213,3.43 3.316,3.43 0.691,0 1.426,-0.141 1.892,-0.339 l 0.281,1.368 z"
               id="path103" />
            <path
               style="fill:#ffffff"
               d="m 523.69,76.994 1.228,3.685 c 0.142,0.423 0.297,0.945 0.396,1.326 l 0.041,0 c 0.1,-0.381 0.227,-0.903 0.367,-1.341 l 1.073,-3.67 1.849,0 -1.722,4.687 c -0.946,2.568 -1.581,3.712 -2.386,4.418 -0.691,0.593 -1.396,0.818 -1.82,0.875 l -0.395,-1.454 c 0.296,-0.07 0.648,-0.226 1.002,-0.479 0.338,-0.212 0.719,-0.621 0.959,-1.087 0.07,-0.127 0.1,-0.227 0.1,-0.311 0,-0.071 -0.015,-0.17 -0.086,-0.339 l -2.525,-6.31 1.919,0 z"
               id="path105" />
            <path
               style="fill:#ffffff"
               d="m 534.516,83.656 c -0.367,0.17 -1.087,0.354 -1.947,0.354 -2.146,0 -3.543,-1.384 -3.543,-3.515 0,-2.061 1.411,-3.656 3.824,-3.656 0.636,0 1.285,0.142 1.68,0.311 l -0.311,1.313 c -0.281,-0.141 -0.691,-0.268 -1.313,-0.268 -1.326,0 -2.117,0.974 -2.103,2.229 0,1.412 0.917,2.217 2.103,2.217 0.594,0 1.031,-0.127 1.369,-0.269 l 0.241,1.284 z"
               id="path107" />
            <path
               style="fill:#ffffff"
               d="m 535.799,73.847 1.736,0 0,10.021 -1.736,0 0,-10.021 z"
               id="path109" />
            <path
               style="fill:#ffffff"
               d="m 541.275,75.075 c 0,0.508 -0.382,0.932 -0.988,0.932 -0.579,0 -0.961,-0.424 -0.961,-0.932 0,-0.537 0.396,-0.946 0.975,-0.946 0.593,0 0.96,0.409 0.974,0.946 z m -1.849,8.793 0,-6.874 1.736,0 0,6.874 -1.736,0 z"
               id="path111" />
            <path
               style="fill:#ffffff"
               d="m 543.038,79.041 c 0,-0.79 -0.028,-1.454 -0.057,-2.047 l 1.511,0 0.084,1.03 0.043,0 c 0.311,-0.536 1.059,-1.186 2.201,-1.186 1.2,0 2.441,0.776 2.441,2.95 l 0,4.079 -1.735,0 0,-3.882 c 0,-0.987 -0.367,-1.735 -1.313,-1.735 -0.692,0 -1.172,0.494 -1.354,1.016 -0.057,0.142 -0.086,0.354 -0.086,0.551 l 0,4.051 -1.735,0 0,-4.827 z"
               id="path113" />
            <path
               style="fill:#ffffff"
               d="m 556.008,81.172 -0.819,2.696 -1.792,0 3.049,-9.513 2.215,0 3.092,9.513 -1.877,0 -0.861,-2.696 -3.007,0 z m 2.723,-1.313 -0.748,-2.343 c -0.184,-0.578 -0.339,-1.228 -0.479,-1.778 l -0.029,0 c -0.141,0.551 -0.296,1.214 -0.451,1.778 l -0.734,2.343 2.441,0 z"
               id="path115" />
          </g>
        </g>
      </g>
      <g
         transform="matrix(1.5506577,0,0,1.5506577,-155.21338,-121.91927)"
         id="g4892">
        <g
           id="g117"
           transform="matrix(0.53349261,0,0,0.53349261,97.834835,180.27982)">
          <g
             id="g119">
            <path
               style="fill:#64b500"
               d="m 295.589,90.974 c 0,1.657 1.343,3 3,3 l 49.611,0 c 1.657,0 3,-1.343 3,-3 l 0,-13.127 c 0,-1.657 -1.343,-3 -3,-3 l -49.611,0 c -1.657,0 -3,1.343 -3,3 l 0,13.127 z"
               id="path121" />
          </g>
          <g
             id="g123">
            <path
               style="fill:#ffffff"
               d="m 307.915,87.6 c -0.409,0.198 -1.313,0.424 -2.47,0.424 -3.02,0 -4.855,-1.892 -4.855,-4.799 0,-3.134 2.188,-5.024 5.095,-5.024 1.143,0 1.948,0.239 2.301,0.423 l -0.367,1.384 c -0.452,-0.198 -1.087,-0.367 -1.863,-0.367 -1.934,0 -3.331,1.214 -3.331,3.5 0,2.104 1.213,3.43 3.317,3.43 0.691,0 1.425,-0.141 1.891,-0.339 l 0.282,1.368 z"
               id="path125" />
            <path
               style="fill:#ffffff"
               d="m 310.045,80.994 1.228,3.685 c 0.141,0.423 0.296,0.945 0.396,1.326 l 0.042,0 c 0.099,-0.381 0.226,-0.903 0.367,-1.341 l 1.073,-3.67 1.849,0 -1.722,4.687 c -0.946,2.568 -1.581,3.712 -2.385,4.418 -0.692,0.593 -1.397,0.818 -1.821,0.875 l -0.395,-1.454 c 0.296,-0.07 0.649,-0.226 1.002,-0.479 0.339,-0.212 0.72,-0.621 0.96,-1.087 0.07,-0.127 0.099,-0.227 0.099,-0.311 0,-0.071 -0.014,-0.17 -0.085,-0.339 l -2.526,-6.31 1.918,0 z"
               id="path127" />
            <path
               style="fill:#ffffff"
               d="m 320.87,87.656 c -0.367,0.17 -1.087,0.354 -1.948,0.354 -2.146,0 -3.542,-1.384 -3.542,-3.515 0,-2.061 1.411,-3.656 3.825,-3.656 0.635,0 1.285,0.142 1.68,0.311 l -0.311,1.313 c -0.282,-0.141 -0.691,-0.268 -1.313,-0.268 -1.327,0 -2.117,0.974 -2.103,2.229 0,1.412 0.917,2.217 2.103,2.217 0.593,0 1.03,-0.127 1.369,-0.269 l 0.24,1.284 z"
               id="path129" />
            <path
               style="fill:#ffffff"
               d="m 322.153,77.847 1.736,0 0,10.021 -1.736,0 0,-10.021 z"
               id="path131" />
            <path
               style="fill:#ffffff"
               d="m 327.629,79.075 c 0,0.508 -0.381,0.932 -0.988,0.932 -0.579,0 -0.96,-0.424 -0.96,-0.932 0,-0.537 0.396,-0.946 0.974,-0.946 0.593,0 0.96,0.409 0.974,0.946 z m -1.849,8.793 0,-6.874 1.736,0 0,6.874 -1.736,0 z"
               id="path133" />
            <path
               style="fill:#ffffff"
               d="m 329.392,83.041 c 0,-0.79 -0.028,-1.454 -0.057,-2.047 l 1.51,0 0.085,1.03 0.042,0 c 0.311,-0.536 1.059,-1.186 2.202,-1.186 1.2,0 2.441,0.776 2.441,2.95 l 0,4.079 -1.736,0 0,-3.882 c 0,-0.987 -0.367,-1.735 -1.313,-1.735 -0.692,0 -1.171,0.494 -1.355,1.016 -0.057,0.142 -0.085,0.354 -0.085,0.551 l 0,4.051 -1.736,0 0,-4.827 z"
               id="path135" />
            <path
               style="fill:#ffffff"
               d="m 345.777,83.648 -3.585,0 0,2.794 4.008,0 0,1.426 -5.745,0 0,-9.513 5.533,0 0,1.425 -3.797,0 0,2.456 3.585,0 0,1.412 z"
               id="path137" />
          </g>
        </g>
      </g>
      <g
         transform="matrix(1.5506577,0,0,1.5506577,-98.360988,-138.4248)"
         id="g4905">
        <g
           id="g139"
           transform="matrix(0.53349261,0,0,0.53349261,97.834835,180.27982)">
          <g
             id="g141">
            <path
               style="fill:#c1272d"
               d="m 123.404,173.974 c 0,1.657 1.343,3 3,3 l 51.996,0 c 1.657,0 3,-1.343 3,-3 l 0,-13.127 c 0,-1.657 -1.343,-3 -3,-3 l -51.996,0 c -1.657,0 -3,1.343 -3,3 l 0,13.127 z"
               id="path143" />
          </g>
          <g
             id="g145">
            <path
               style="fill:#ffffff"
               d="m 135.729,170.6 c -0.409,0.198 -1.313,0.424 -2.47,0.424 -3.02,0 -4.855,-1.892 -4.855,-4.799 0,-3.134 2.188,-5.024 5.095,-5.024 1.143,0 1.948,0.239 2.301,0.423 l -0.367,1.384 c -0.452,-0.198 -1.087,-0.367 -1.863,-0.367 -1.934,0 -3.331,1.214 -3.331,3.5 0,2.104 1.213,3.43 3.317,3.43 0.691,0 1.425,-0.141 1.891,-0.339 l 0.282,1.368 z"
               id="path147" />
            <path
               style="fill:#ffffff"
               d="m 137.859,163.994 1.228,3.685 c 0.141,0.423 0.296,0.945 0.396,1.326 l 0.042,0 c 0.099,-0.381 0.226,-0.903 0.367,-1.341 l 1.073,-3.67 1.849,0 -1.722,4.687 c -0.946,2.568 -1.581,3.712 -2.385,4.418 -0.692,0.593 -1.397,0.818 -1.821,0.875 l -0.395,-1.454 c 0.296,-0.07 0.649,-0.226 1.002,-0.479 0.339,-0.212 0.72,-0.621 0.96,-1.087 0.07,-0.127 0.099,-0.227 0.099,-0.311 0,-0.071 -0.014,-0.17 -0.085,-0.339 l -2.526,-6.31 1.918,0 z"
               id="path149" />
            <path
               style="fill:#ffffff"
               d="m 148.684,170.656 c -0.367,0.17 -1.087,0.354 -1.948,0.354 -2.146,0 -3.542,-1.384 -3.542,-3.515 0,-2.061 1.411,-3.656 3.825,-3.656 0.635,0 1.285,0.142 1.68,0.311 l -0.311,1.313 c -0.282,-0.141 -0.691,-0.268 -1.313,-0.268 -1.327,0 -2.117,0.974 -2.103,2.229 0,1.412 0.917,2.217 2.103,2.217 0.593,0 1.03,-0.127 1.369,-0.269 l 0.24,1.284 z"
               id="path151" />
            <path
               style="fill:#ffffff"
               d="m 149.967,160.847 1.736,0 0,10.021 -1.736,0 0,-10.021 z"
               id="path153" />
            <path
               style="fill:#ffffff"
               d="m 155.443,162.075 c 0,0.508 -0.381,0.932 -0.988,0.932 -0.579,0 -0.96,-0.424 -0.96,-0.932 0,-0.537 0.396,-0.946 0.974,-0.946 0.593,0 0.96,0.409 0.974,0.946 z m -1.849,8.793 0,-6.874 1.736,0 0,6.874 -1.736,0 z"
               id="path155" />
            <path
               style="fill:#ffffff"
               d="m 157.207,166.041 c 0,-0.79 -0.028,-1.454 -0.057,-2.047 l 1.51,0 0.085,1.03 0.042,0 c 0.311,-0.536 1.059,-1.186 2.202,-1.186 1.2,0 2.441,0.776 2.441,2.95 l 0,4.079 -1.736,0 0,-3.882 c 0,-0.987 -0.367,-1.735 -1.313,-1.735 -0.692,0 -1.171,0.494 -1.355,1.016 -0.057,0.142 -0.085,0.354 -0.085,0.551 l 0,4.051 -1.736,0 0,-4.827 z"
               id="path157" />
            <path
               style="fill:#ffffff"
               d="m 168.27,161.482 c 0.776,-0.113 1.736,-0.198 2.767,-0.198 1.778,0 2.992,0.367 3.867,1.102 0.932,0.748 1.496,1.891 1.496,3.5 0,1.708 -0.579,2.964 -1.482,3.782 -0.946,0.861 -2.456,1.299 -4.305,1.299 -1.002,0 -1.765,-0.057 -2.343,-0.127 l 0,-9.358 z m 1.736,8.074 c 0.24,0.042 0.607,0.042 0.959,0.042 2.258,0.015 3.6,-1.242 3.6,-3.655 0.014,-2.089 -1.2,-3.303 -3.374,-3.303 -0.55,0 -0.932,0.042 -1.186,0.099 l 0,6.817 z"
               id="path159" />
          </g>
        </g>
      </g>
      <g
         transform="matrix(0.99143618,0,0,0.99143618,107.71483,114.83955)"
         id="g161">
        <path
           id="path163"
           d="m 33.873,203.197 c 0.21,0.435 0.45,1.395 0.45,2.625 0,3.209 -2.01,5.159 -5.1,5.159 -3.33,0 -5.34,-2.325 -5.34,-5.415 0,-1.215 0.255,-2.07 0.45,-2.445 l 1.47,0.391 c -0.21,0.48 -0.391,1.154 -0.391,1.98 0,2.055 1.29,3.539 3.721,3.539 2.234,0 3.645,-1.289 3.645,-3.525 0,-0.734 -0.15,-1.514 -0.36,-2.01 l 1.455,-0.299 z"
           style="fill:#333333" />
        <path
           id="path165"
           d="m 30.438,194.992 c 2.685,0 3.885,1.889 3.885,3.749 0,2.056 -1.41,3.66 -3.765,3.66 -2.4,0 -3.87,-1.575 -3.87,-3.78 0,-2.174 1.531,-3.629 3.75,-3.629 z m 0.076,5.504 c 1.409,0 2.475,-0.705 2.475,-1.814 0,-1.051 -1.02,-1.785 -2.505,-1.785 -1.14,0 -2.46,0.51 -2.46,1.77 -0.001,1.304 1.275,1.829 2.49,1.829 z"
           style="fill:#333333" />
        <path
           id="path167"
           d="m 29.028,193.477 c -0.84,0 -1.545,0.029 -2.175,0.06 l 0,-1.604 1.095,-0.09 0,-0.045 c -0.569,-0.33 -1.26,-1.125 -1.26,-2.34 0,-1.275 0.825,-2.595 3.135,-2.595 l 4.335,0 0,1.845 -4.125,0 c -1.05,0 -1.845,0.39 -1.845,1.395 0,0.735 0.525,1.244 1.08,1.439 0.149,0.061 0.375,0.09 0.585,0.09 l 4.305,0 0,1.846 -5.13,0 z"
           style="fill:#333333" />
        <path
           id="path169"
           d="m 33.934,179.526 c 0.18,0.39 0.375,1.155 0.375,2.07 0,2.28 -1.471,3.765 -3.735,3.765 -2.189,0 -3.885,-1.5 -3.885,-4.065 0,-0.675 0.15,-1.365 0.33,-1.785 l 1.395,0.33 c -0.149,0.3 -0.284,0.735 -0.284,1.395 0,1.41 1.034,2.25 2.369,2.235 1.5,0 2.355,-0.975 2.355,-2.235 0,-0.63 -0.136,-1.095 -0.285,-1.455 l 1.365,-0.255 z"
           style="fill:#333333" />
        <path
           id="path171"
           d="m 31.023,176.992 c 1.32,-0.045 1.89,-1.065 1.89,-2.25 0,-0.855 -0.135,-1.455 -0.33,-2.025 l 1.26,-0.27 c 0.271,0.63 0.466,1.5 0.466,2.55 0,2.37 -1.455,3.765 -3.69,3.765 -2.024,0 -3.93,-1.23 -3.93,-3.57 0,-2.37 1.95,-3.15 3.555,-3.15 0.345,0 0.615,0.03 0.78,0.06 l 0,4.89 z m -1.29,-3.21 c -0.675,-0.015 -1.785,0.285 -1.785,1.515 0,1.14 1.035,1.62 1.785,1.695 l 0,-3.21 z"
           style="fill:#333333" />
        <path
           id="path173"
           d="m 29.028,170.557 c -0.84,0 -1.545,0.03 -2.175,0.06 l 0,-1.604 1.095,-0.09 0,-0.045 c -0.569,-0.33 -1.26,-1.125 -1.26,-2.34 0,-1.275 0.825,-2.595 3.135,-2.595 l 4.335,0 0,1.845 -4.125,0 c -1.05,0 -1.845,0.39 -1.845,1.395 0,0.735 0.525,1.245 1.08,1.44 0.149,0.06 0.375,0.09 0.585,0.09 l 4.305,0 0,1.845 -5.13,0 z"
           style="fill:#333333" />
        <path
           id="path175"
           d="m 24.979,159.937 1.875,0 0,-1.755 1.38,0 0,1.755 3.225,0 c 0.9,0 1.351,-0.24 1.351,-0.945 0,-0.33 -0.016,-0.51 -0.075,-0.72 l 1.395,-0.03 c 0.105,0.27 0.195,0.765 0.195,1.335 0,0.69 -0.225,1.245 -0.6,1.59 -0.42,0.405 -1.096,0.585 -2.056,0.585 l -3.435,0 0,1.035 -1.38,0 0,-1.035 -1.365,0 -0.51,-1.815 z"
           style="fill:#333333" />
        <path
           id="path177"
           d="m 29.208,156.787 c -0.989,0 -1.71,0.015 -2.354,0.06 l 0,-1.59 1.38,-0.075 0,-0.045 c -1.02,-0.36 -1.545,-1.215 -1.545,-2.01 0,-0.18 0.015,-0.285 0.045,-0.435 l 1.725,0 c -0.029,0.165 -0.045,0.33 -0.045,0.555 0,0.87 0.556,1.485 1.396,1.65 0.165,0.03 0.359,0.045 0.555,0.045 l 3.795,0 0,1.845 -4.952,0 z"
           style="fill:#333333" />
        <path
           id="path179"
           d="m 32.403,145.912 c 0.66,0 1.305,-0.03 1.755,-0.12 l 0,1.665 -0.81,0.135 0,0.045 c 0.569,0.435 0.975,1.2 0.975,2.16 0,1.47 -1.065,2.295 -2.175,2.295 -1.83,0 -2.775,-1.635 -2.76,-4.335 l -0.12,0 c -0.48,0 -1.275,0.195 -1.275,1.485 0,0.72 0.226,1.47 0.54,1.965 l -1.2,0.36 c -0.329,-0.54 -0.645,-1.485 -0.645,-2.64 0,-2.34 1.485,-3.015 3.09,-3.015 l 2.625,0 z m -1.815,1.8 c -0.015,1.305 0.256,2.55 1.365,2.55 0.72,0 1.05,-0.465 1.05,-1.05 0,-0.75 -0.479,-1.275 -1.005,-1.455 -0.135,-0.045 -0.27,-0.045 -0.404,-0.045 l -1.006,0 z"
           style="fill:#333333" />
        <path
           id="path181"
           d="m 24.979,141.937 1.875,0 0,-1.755 1.38,0 0,1.755 3.225,0 c 0.9,0 1.351,-0.24 1.351,-0.945 0,-0.33 -0.016,-0.51 -0.075,-0.72 l 1.395,-0.03 c 0.105,0.27 0.195,0.765 0.195,1.335 0,0.69 -0.225,1.245 -0.6,1.59 -0.42,0.405 -1.096,0.585 -2.056,0.585 l -3.435,0 0,1.035 -1.38,0 0,-1.035 -1.365,0 -0.51,-1.815 z"
           style="fill:#333333" />
        <path
           id="path183"
           d="m 24.813,136.822 c 0.54,0 0.99,0.405 0.99,1.05 0,0.615 -0.45,1.02 -0.99,1.02 -0.57,0 -1.005,-0.42 -1.005,-1.035 0.001,-0.63 0.435,-1.02 1.005,-1.035 z m 9.345,1.965 -7.305,0 0,-1.845 7.305,0 0,1.845 z"
           style="fill:#333333" />
        <path
           id="path185"
           d="m 30.438,128.002 c 2.685,0 3.885,1.89 3.885,3.75 0,2.055 -1.41,3.66 -3.765,3.66 -2.4,0 -3.87,-1.575 -3.87,-3.78 0,-2.175 1.531,-3.63 3.75,-3.63 z m 0.076,5.505 c 1.409,0 2.475,-0.705 2.475,-1.815 0,-1.05 -1.02,-1.785 -2.505,-1.785 -1.14,0 -2.46,0.51 -2.46,1.77 -0.001,1.304 1.275,1.83 2.49,1.83 z"
           style="fill:#333333" />
        <path
           id="path187"
           d="m 29.028,126.487 c -0.84,0 -1.545,0.03 -2.175,0.06 l 0,-1.604 1.095,-0.09 0,-0.045 c -0.569,-0.33 -1.26,-1.125 -1.26,-2.34 0,-1.275 0.825,-2.595 3.135,-2.595 l 4.335,0 0,1.845 -4.125,0 c -1.05,0 -1.845,0.39 -1.845,1.395 0,0.735 0.525,1.245 1.08,1.44 0.149,0.06 0.375,0.09 0.585,0.09 l 4.305,0 0,1.845 -5.13,0 z"
           style="fill:#333333" />
      </g>
      <g
         transform="matrix(1.0357608,0,0,1.0357608,103.94427,20.606767)"
         id="g189">
        <path
           id="path191"
           d="m 73.323,328.089 c -0.645,0.24 -1.905,0.57 -3.24,0.57 -1.71,0 -3.015,-0.436 -3.975,-1.351 -0.9,-0.854 -1.41,-2.189 -1.41,-3.72 0.015,-3.21 2.28,-5.25 5.625,-5.25 1.245,0 2.22,0.255 2.685,0.48 l -0.405,1.484 c -0.555,-0.255 -1.23,-0.435 -2.295,-0.435 -2.16,0 -3.675,1.274 -3.675,3.63 0,2.295 1.41,3.66 3.51,3.66 0.675,0 1.155,-0.091 1.395,-0.195 l 0,-2.535 -1.785,0 0,-1.455 3.57,0 0,5.117 z"
           style="fill:#333333" />
        <path
           id="path193"
           d="m 76.211,328.836 -0.018,0 -1.041,0.524 -0.184,-0.813 1.39,-0.683 0.892,0 0,5.684 -1.041,0 0,-4.712 z"
           style="fill:#333333" />
        <path
           id="path195"
           d="m 83.005,318.579 c 0.675,-0.12 1.59,-0.21 2.82,-0.21 1.35,0 2.325,0.285 2.97,0.825 0.6,0.495 0.99,1.29 0.99,2.234 0,0.96 -0.3,1.74 -0.855,2.28 -0.75,0.735 -1.89,1.095 -3.195,1.095 -0.345,0 -0.645,-0.015 -0.9,-0.075 l 0,3.825 -1.83,0 0,-9.974 z m 1.83,4.694 c 0.24,0.075 0.525,0.091 0.9,0.091 1.38,0 2.22,-0.69 2.22,-1.86 0,-1.125 -0.78,-1.71 -2.055,-1.71 -0.51,0 -0.87,0.045 -1.065,0.09 l 0,3.389 z"
           style="fill:#333333" />
        <path
           id="path197"
           d="m 91.27,317.904 1.845,0 0,4.335 0.03,0 c 0.225,-0.346 0.54,-0.63 0.915,-0.825 0.375,-0.21 0.81,-0.33 1.275,-0.33 1.245,0 2.55,0.825 2.55,3.165 l 0,4.305 -1.845,0 0,-4.109 c 0,-1.051 -0.39,-1.86 -1.41,-1.86 -0.72,0 -1.229,0.479 -1.44,1.035 -0.06,0.165 -0.075,0.359 -0.075,0.555 l 0,4.38 -1.845,0 0,-10.651 z"
           style="fill:#333333" />
        <path
           id="path199"
           d="m 105.52,326.799 c 0,0.66 0.03,1.305 0.12,1.755 l -1.665,0 -0.135,-0.81 -0.045,0 c -0.435,0.569 -1.2,0.975 -2.16,0.975 -1.47,0 -2.295,-1.065 -2.295,-2.175 0,-1.83 1.635,-2.775 4.335,-2.76 l 0,-0.12 c 0,-0.48 -0.195,-1.275 -1.485,-1.275 -0.72,0 -1.47,0.226 -1.965,0.54 l -0.36,-1.2 c 0.54,-0.329 1.485,-0.645 2.64,-0.645 2.34,0 3.015,1.485 3.015,3.09 l 0,2.625 z m -1.8,-1.816 c -1.305,-0.015 -2.55,0.256 -2.55,1.365 0,0.72 0.465,1.05 1.05,1.05 0.75,0 1.275,-0.479 1.455,-1.005 0.045,-0.135 0.045,-0.27 0.045,-0.404 l 0,-1.006 z"
           style="fill:#333333" />
        <path
           id="path201"
           d="m 107.395,326.844 c 0.405,0.255 1.2,0.54 1.86,0.54 0.81,0 1.17,-0.345 1.17,-0.825 0,-0.495 -0.3,-0.734 -1.2,-1.064 -1.425,-0.48 -2.01,-1.26 -2.01,-2.13 0,-1.29 1.065,-2.28 2.76,-2.28 0.81,0 1.515,0.195 1.95,0.435 l -0.375,1.29 c -0.3,-0.18 -0.9,-0.42 -1.545,-0.42 -0.66,0 -1.02,0.33 -1.02,0.78 0,0.465 0.345,0.675 1.275,1.02 1.335,0.466 1.935,1.141 1.95,2.221 0,1.335 -1.035,2.295 -2.97,2.295 -0.885,0 -1.68,-0.21 -2.22,-0.511 l 0.375,-1.351 z"
           style="fill:#333333" />
        <path
           id="path203"
           d="m 115.03,325.419 c 0.045,1.32 1.065,1.89 2.25,1.89 0.855,0 1.455,-0.135 2.025,-0.33 l 0.27,1.26 c -0.63,0.271 -1.5,0.466 -2.55,0.466 -2.37,0 -3.765,-1.455 -3.765,-3.69 0,-2.024 1.23,-3.93 3.57,-3.93 2.37,0 3.15,1.95 3.15,3.555 0,0.345 -0.03,0.615 -0.06,0.78 l -4.89,0 z m 3.21,-1.29 c 0.015,-0.675 -0.285,-1.785 -1.515,-1.785 -1.14,0 -1.62,1.035 -1.695,1.785 l 3.21,0 z"
           style="fill:#333333" />
      </g>
      <g
         transform="matrix(1.0357608,0,0,1.0357608,-51.18813,20.606767)"
         id="g205">
        <path
           id="path207"
           d="m 327.86,326.544 c 0.585,0.345 1.5,0.645 2.445,0.645 1.17,0 1.83,-0.555 1.83,-1.38 0,-0.765 -0.51,-1.215 -1.785,-1.68 -1.68,-0.6 -2.745,-1.485 -2.745,-2.939 0,-1.665 1.38,-2.91 3.585,-2.91 1.095,0 1.89,0.24 2.415,0.51 l -0.435,1.485 c -0.375,-0.195 -1.08,-0.48 -2.025,-0.48 -1.17,0 -1.665,0.615 -1.665,1.215 0,0.78 0.585,1.141 1.935,1.665 1.755,0.66 2.595,1.545 2.595,3 0,1.635 -1.23,3.045 -3.825,3.045 -1.08,0 -2.19,-0.3 -2.745,-0.645 l 0.42,-1.531 z"
           style="fill:#333333" />
        <path
           id="path209"
           d="m 338.78,318.579 c 0.675,-0.12 1.59,-0.21 2.82,-0.21 1.35,0 2.325,0.285 2.97,0.825 0.6,0.495 0.99,1.29 0.99,2.234 0,0.96 -0.3,1.74 -0.855,2.28 -0.75,0.735 -1.89,1.095 -3.195,1.095 -0.345,0 -0.645,-0.015 -0.9,-0.075 l 0,3.825 -1.83,0 0,-9.974 z m 1.83,4.694 c 0.24,0.075 0.525,0.091 0.9,0.091 1.38,0 2.22,-0.69 2.22,-1.86 0,-1.125 -0.78,-1.71 -2.055,-1.71 -0.51,0 -0.87,0.045 -1.065,0.09 l 0,3.389 z"
           style="fill:#333333" />
        <path
           id="path211"
           d="m 347.044,317.904 1.845,0 0,4.335 0.03,0 c 0.225,-0.346 0.54,-0.63 0.915,-0.825 0.375,-0.21 0.81,-0.33 1.275,-0.33 1.245,0 2.55,0.825 2.55,3.165 l 0,4.305 -1.845,0 0,-4.109 c 0,-1.051 -0.39,-1.86 -1.41,-1.86 -0.72,0 -1.229,0.479 -1.44,1.035 -0.06,0.165 -0.075,0.359 -0.075,0.555 l 0,4.38 -1.845,0 0,-10.651 z"
           style="fill:#333333" />
        <path
           id="path213"
           d="m 361.294,326.799 c 0,0.66 0.03,1.305 0.12,1.755 l -1.665,0 -0.135,-0.81 -0.045,0 c -0.435,0.569 -1.2,0.975 -2.16,0.975 -1.47,0 -2.295,-1.065 -2.295,-2.175 0,-1.83 1.635,-2.775 4.335,-2.76 l 0,-0.12 c 0,-0.48 -0.195,-1.275 -1.485,-1.275 -0.72,0 -1.47,0.226 -1.965,0.54 l -0.36,-1.2 c 0.54,-0.329 1.485,-0.645 2.64,-0.645 2.34,0 3.015,1.485 3.015,3.09 l 0,2.625 z m -1.799,-1.816 c -1.305,-0.015 -2.55,0.256 -2.55,1.365 0,0.72 0.465,1.05 1.05,1.05 0.75,0 1.275,-0.479 1.455,-1.005 0.045,-0.135 0.045,-0.27 0.045,-0.404 l 0,-1.006 z"
           style="fill:#333333" />
        <path
           id="path215"
           d="m 363.17,326.844 c 0.405,0.255 1.2,0.54 1.86,0.54 0.81,0 1.17,-0.345 1.17,-0.825 0,-0.495 -0.3,-0.734 -1.2,-1.064 -1.425,-0.48 -2.01,-1.26 -2.01,-2.13 0,-1.29 1.065,-2.28 2.76,-2.28 0.81,0 1.515,0.195 1.95,0.435 l -0.375,1.29 c -0.3,-0.18 -0.9,-0.42 -1.545,-0.42 -0.66,0 -1.02,0.33 -1.02,0.78 0,0.465 0.345,0.675 1.275,1.02 1.335,0.466 1.935,1.141 1.95,2.221 0,1.335 -1.035,2.295 -2.97,2.295 -0.885,0 -1.68,-0.21 -2.22,-0.511 l 0.375,-1.351 z"
           style="fill:#333333" />
        <path
           id="path217"
           d="m 370.805,325.419 c 0.045,1.32 1.065,1.89 2.25,1.89 0.855,0 1.455,-0.135 2.025,-0.33 l 0.27,1.26 c -0.63,0.271 -1.5,0.466 -2.55,0.466 -2.37,0 -3.765,-1.455 -3.765,-3.69 0,-2.024 1.23,-3.93 3.57,-3.93 2.37,0 3.15,1.95 3.15,3.555 0,0.345 -0.03,0.615 -0.06,0.78 l -4.89,0 z m 3.21,-1.29 c 0.015,-0.675 -0.285,-1.785 -1.515,-1.785 -1.14,0 -1.62,1.035 -1.695,1.785 l 3.21,0 z"
           style="fill:#333333" />
      </g>
      <g
         transform="matrix(1.0357608,0,0,1.0357608,-148.50351,20.606767)"
         id="g219">
        <path
           id="path221"
           d="m 501.99,328.089 c -0.646,0.24 -1.905,0.57 -3.24,0.57 -1.71,0 -3.016,-0.436 -3.975,-1.351 -0.9,-0.854 -1.41,-2.189 -1.41,-3.72 0.016,-3.21 2.279,-5.25 5.625,-5.25 1.244,0 2.22,0.255 2.685,0.48 l -0.405,1.484 c -0.555,-0.255 -1.229,-0.435 -2.295,-0.435 -2.16,0 -3.674,1.274 -3.674,3.63 0,2.295 1.409,3.66 3.51,3.66 0.674,0 1.154,-0.091 1.395,-0.195 l 0,-2.535 -1.785,0 0,-1.455 3.57,0 0,5.117 z"
           style="fill:#333333" />
        <path
           id="path223"
           d="m 503.191,333.549 0,-0.655 0.673,-0.621 c 1.337,-1.241 1.968,-1.924 1.976,-2.676 0,-0.507 -0.271,-0.953 -1.014,-0.953 -0.508,0 -0.928,0.254 -1.216,0.473 l -0.314,-0.761 c 0.411,-0.332 1.032,-0.586 1.749,-0.586 1.259,0 1.871,0.796 1.871,1.723 0,0.996 -0.717,1.801 -1.715,2.719 l -0.488,0.429 0,0.018 2.325,0 0,0.892 -3.847,0 z"
           style="fill:#333333" />
        <path
           id="path225"
           d="m 511.672,318.579 c 0.675,-0.12 1.59,-0.21 2.82,-0.21 1.35,0 2.324,0.285 2.969,0.825 0.601,0.495 0.99,1.29 0.99,2.234 0,0.96 -0.299,1.74 -0.854,2.28 -0.75,0.735 -1.89,1.095 -3.194,1.095 -0.346,0 -0.646,-0.015 -0.9,-0.075 l 0,3.825 -1.83,0 0,-9.974 z m 1.83,4.694 c 0.24,0.075 0.525,0.091 0.9,0.091 1.379,0 2.219,-0.69 2.219,-1.86 0,-1.125 -0.779,-1.71 -2.055,-1.71 -0.51,0 -0.869,0.045 -1.064,0.09 l 0,3.389 z"
           style="fill:#333333" />
        <path
           id="path227"
           d="m 519.938,317.904 1.845,0 0,4.335 0.03,0 c 0.225,-0.346 0.539,-0.63 0.914,-0.825 0.375,-0.21 0.811,-0.33 1.275,-0.33 1.245,0 2.55,0.825 2.55,3.165 l 0,4.305 -1.845,0 0,-4.109 c 0,-1.051 -0.391,-1.86 -1.41,-1.86 -0.72,0 -1.229,0.479 -1.439,1.035 -0.061,0.165 -0.075,0.359 -0.075,0.555 l 0,4.38 -1.845,0 0,-10.651 z"
           style="fill:#333333" />
        <path
           id="path229"
           d="m 534.187,326.799 c 0,0.66 0.03,1.305 0.12,1.755 l -1.665,0 -0.135,-0.81 -0.046,0 c -0.434,0.569 -1.199,0.975 -2.159,0.975 -1.47,0 -2.295,-1.065 -2.295,-2.175 0,-1.83 1.635,-2.775 4.335,-2.76 l 0,-0.12 c 0,-0.48 -0.195,-1.275 -1.484,-1.275 -0.721,0 -1.471,0.226 -1.966,0.54 l -0.36,-1.2 c 0.541,-0.329 1.485,-0.645 2.641,-0.645 2.34,0 3.015,1.485 3.015,3.09 l 0,2.625 z m -1.8,-1.816 c -1.305,-0.015 -2.55,0.256 -2.55,1.365 0,0.72 0.465,1.05 1.05,1.05 0.75,0 1.275,-0.479 1.455,-1.005 0.045,-0.135 0.045,-0.27 0.045,-0.404 l 0,-1.006 z"
           style="fill:#333333" />
        <path
           id="path231"
           d="m 536.063,326.844 c 0.404,0.255 1.199,0.54 1.859,0.54 0.811,0 1.17,-0.345 1.17,-0.825 0,-0.495 -0.3,-0.734 -1.199,-1.064 -1.426,-0.48 -2.011,-1.26 -2.011,-2.13 0,-1.29 1.065,-2.28 2.76,-2.28 0.81,0 1.515,0.195 1.95,0.435 l -0.375,1.29 c -0.3,-0.18 -0.9,-0.42 -1.545,-0.42 -0.66,0 -1.02,0.33 -1.02,0.78 0,0.465 0.345,0.675 1.274,1.02 1.335,0.466 1.935,1.141 1.95,2.221 0,1.335 -1.035,2.295 -2.971,2.295 -0.885,0 -1.68,-0.21 -2.219,-0.511 l 0.377,-1.351 z"
           style="fill:#333333" />
        <path
           id="path233"
           d="m 543.697,325.419 c 0.045,1.32 1.064,1.89 2.25,1.89 0.854,0 1.454,-0.135 2.024,-0.33 l 0.271,1.26 c -0.631,0.271 -1.5,0.466 -2.551,0.466 -2.369,0 -3.765,-1.455 -3.765,-3.69 0,-2.024 1.229,-3.93 3.569,-3.93 2.371,0 3.15,1.95 3.15,3.555 0,0.345 -0.029,0.615 -0.061,0.78 l -4.887,0 z m 3.209,-1.29 c 0.016,-0.675 -0.285,-1.785 -1.515,-1.785 -1.14,0 -1.62,1.035 -1.694,1.785 l 3.209,0 z"
           style="fill:#333333" />
      </g>
      <g
         transform="matrix(1.0357608,0,0,1.0357608,-212.50351,20.606767)"
         id="g235">
        <path
           id="path237"
           d="m 637.426,324.429 c -0.061,-1.305 -0.135,-2.88 -0.12,-4.245 l -0.045,0 c -0.33,1.23 -0.75,2.596 -1.2,3.87 l -1.484,4.38 -1.41,0 -1.35,-4.319 c -0.391,-1.29 -0.75,-2.67 -1.021,-3.931 l -0.03,0 c -0.045,1.32 -0.104,2.926 -0.18,4.306 l -0.225,4.064 -1.725,0 0.674,-10.109 2.431,0 1.319,4.064 c 0.36,1.186 0.676,2.385 0.93,3.51 l 0.046,0 c 0.27,-1.095 0.614,-2.34 1.005,-3.524 l 1.395,-4.05 2.4,0 0.585,10.109 -1.8,0 -0.195,-4.125 z"
           style="fill:#333333" />
        <path
           id="path239"
           d="m 643.32,319.209 c 0,0.54 -0.404,0.99 -1.05,0.99 -0.614,0 -1.021,-0.45 -1.021,-0.99 0,-0.57 0.421,-1.005 1.035,-1.005 0.632,0 1.022,0.435 1.036,1.005 z m -1.965,9.345 0,-7.305 1.846,0 0,7.305 -1.846,0 z"
           style="fill:#333333" />
        <path
           id="path241"
           d="m 647.311,319.374 0,1.875 1.756,0 0,1.38 -1.756,0 0,3.225 c 0,0.9 0.24,1.351 0.945,1.351 0.33,0 0.51,-0.016 0.721,-0.075 l 0.029,1.395 c -0.27,0.105 -0.766,0.195 -1.335,0.195 -0.69,0 -1.245,-0.225 -1.59,-0.6 -0.405,-0.42 -0.585,-1.096 -0.585,-2.056 l 0,-3.435 -1.035,0 0,-1.38 1.035,0 0,-1.365 1.815,-0.51 z"
           style="fill:#333333" />
        <path
           id="path243"
           d="m 657.315,324.834 c 0,2.685 -1.89,3.885 -3.749,3.885 -2.056,0 -3.66,-1.41 -3.66,-3.765 0,-2.4 1.574,-3.87 3.779,-3.87 2.175,0 3.63,1.53 3.63,3.75 z m -5.504,0.075 c 0,1.409 0.705,2.475 1.814,2.475 1.051,0 1.785,-1.02 1.785,-2.505 0,-1.14 -0.51,-2.46 -1.77,-2.46 -1.304,0 -1.829,1.275 -1.829,2.49 z"
           style="fill:#333333" />
        <path
           id="path245"
           d="m 658.756,326.844 c 0.404,0.255 1.199,0.54 1.859,0.54 0.811,0 1.17,-0.345 1.17,-0.825 0,-0.495 -0.299,-0.734 -1.199,-1.064 -1.426,-0.48 -2.01,-1.26 -2.01,-2.13 0,-1.29 1.064,-2.28 2.76,-2.28 0.81,0 1.515,0.195 1.949,0.435 l -0.375,1.29 c -0.299,-0.18 -0.899,-0.42 -1.545,-0.42 -0.66,0 -1.02,0.33 -1.02,0.78 0,0.465 0.346,0.675 1.275,1.02 1.334,0.466 1.935,1.141 1.949,2.221 0,1.335 -1.035,2.295 -2.97,2.295 -0.885,0 -1.68,-0.21 -2.22,-0.511 l 0.377,-1.351 z"
           style="fill:#333333" />
        <path
           id="path247"
           d="m 667.051,319.209 c 0,0.54 -0.405,0.99 -1.051,0.99 -0.614,0 -1.02,-0.45 -1.02,-0.99 0,-0.57 0.42,-1.005 1.035,-1.005 0.631,0 1.02,0.435 1.036,1.005 z m -1.965,9.345 0,-7.305 1.845,0 0,7.305 -1.845,0 z"
           style="fill:#333333" />
        <path
           id="path249"
           d="m 668.851,326.844 c 0.405,0.255 1.2,0.54 1.86,0.54 0.81,0 1.17,-0.345 1.17,-0.825 0,-0.495 -0.301,-0.734 -1.2,-1.064 -1.425,-0.48 -2.011,-1.26 -2.011,-2.13 0,-1.29 1.065,-2.28 2.76,-2.28 0.811,0 1.516,0.195 1.951,0.435 l -0.375,1.29 c -0.301,-0.18 -0.9,-0.42 -1.545,-0.42 -0.66,0 -1.021,0.33 -1.021,0.78 0,0.465 0.345,0.675 1.274,1.02 1.336,0.466 1.936,1.141 1.951,2.221 0,1.335 -1.035,2.295 -2.971,2.295 -0.885,0 -1.68,-0.21 -2.22,-0.511 l 0.377,-1.351 z"
           style="fill:#333333" />
      </g>
      <polyline
         transform="matrix(0.4892002,0,0,0.53353332,120.31737,180.27294)"
         id="polyline255"
         points="771.221,307.702 54.158,307.702 54.158,29.877     "
         stroke-miterlimit="10"
         style="fill:none;stroke:#4d4d4d;stroke-width:2.93607521;stroke-miterlimit:10;stroke-dasharray:none" />
      <g
         transform="matrix(0.53349261,0,0,0.53349261,85.834835,180.27982)"
         id="g257">
        <polygon
           id="polygon259"
           points="769.762,312.716 769.762,302.744 778.396,307.729 "
           style="fill:#4d4d4d" />
      </g>
      <g
         transform="matrix(0.53349261,0,0,0.53349261,117.83483,180.27982)"
         id="g261">
        <polygon
           id="polygon263"
           points="59.116,31.336 54.131,22.701 49.145,31.336 "
           style="fill:#4d4d4d" />
      </g>
    </g>
    <path
       id="svg_60"
       d="m 595.48886,275.70019 c 0,144.39831 -126.12048,261.45536 -281.70192,261.45536 -155.58144,0 -281.702825,-117.05705 -281.702825,-261.45536 0,-144.39831 126.121255,-261.455424 281.702825,-261.455424 155.58052,7.87e-4 281.70192,117.058664 281.70192,261.455424 z M 313.78694,76.682666 c -118.42705,0 -214.43051,89.102444 -214.43051,199.018294 0,109.91582 96.00346,199.01828 214.43051,199.01828 118.42705,0 214.43042,-89.10246 214.43042,-199.01828 8.5e-4,-109.91585 -96.0035,-199.018294 -214.43042,-199.018294 z" />
    <path
       style="fill:#bf0000"
       d="m 29.404965,275.70019 c 0,145.69699 127.711435,264.22836 284.691335,264.22836 156.97902,0 284.68973,-118.53137 284.68973,-264.22836 C 598.78603,130.00396 471.07532,11.47177 314.0963,11.47177 157.1164,11.472557 29.404965,130.00472 29.404965,275.70019 Z m 31.429605,0 c 0,-129.61089 113.612,-235.056224 253.26093,-235.056224 139.64893,0 253.25841,105.444594 253.25841,235.056224 0,129.61084 -113.61034,235.05697 -253.25925,235.05697 -139.64891,0 -253.26009,-105.44456 -253.26009,-235.05697 z"
       id="svg_62" />
    <path
       style="fill:#287f43"
       d="m 589.30492,208.02696 -12.24956,11.81071 -18.04321,-4.03341 c 5.43472,19.1307 8.34339,39.20192 8.34339,59.89593 0,129.61084 -113.60948,235.05697 -253.2592,235.05697 -139.64806,0 -253.260891,-105.44456 -253.260891,-235.05697 0,-129.60931 113.612001,-235.056202 253.260891,-235.056202 24.64435,0 48.4714,3.299014 71.01347,9.418637 L 399.80464,39.25946 394.02511,22.08768 c -25.37009,-6.899321 -52.18823,-10.616671 -79.92797,-10.616671 -156.97991,0 -284.6913,118.533751 -284.6913,264.227661 0,145.69772 127.71139,264.22911 284.6913,264.22911 156.97914,0 284.68966,-118.53142 284.68966,-264.22911 -10e-4,-23.38276 -3.30713,-46.06223 -9.48188,-67.67171 z"
       id="svg_63" />
    <path
       style="fill:#95fc95"
       d="M 98.419597,258.53932 C 107.83269,155.75846 200.95946,74.786907 314.09466,74.786907 c 20.29264,0 39.93961,2.61141 58.57903,7.479951 L 394.92655,73.688023 382.78639,53.76042 c -21.82738,-5.827707 -44.87231,-8.957377 -68.69173,-8.957377 -130.01805,0 -237.044058,93.054717 -247.862275,211.174007 l 32.186435,2.56076 0,0.001 7.66e-4,0 z"
       id="svg_64" />
    <path
       style="fill:#90fc90"
       d="m 554.96743,217.8545 -31.45068,6.92351 c 4.59716,16.26956 7.05263,33.33439 7.05263,50.92295 0,110.78373 -97.10842,200.91325 -216.47304,200.91325 -6.28913,0 -12.51006,-0.26535 -18.66386,-0.7547 l -22.85327,11.87317 20.06825,17.9983 c -27.80451,-2.21499 -54.31904,-8.69201 -78.77676,-18.72102 30.67868,12.58266 64.58562,19.5897 100.22564,19.5897 137.17666,0 248.77893,-103.5793 248.77893,-230.89791 -0.002,-19.97055 -2.74807,-39.35334 -7.90784,-57.84725 z"
       id="svg_65" />
    <path
       style="fill:#e5ff9c"
       d="m 281.2666,489.03218 14.1642,-13.17347 c -24.18434,-1.92774 -47.2445,-7.55722 -68.51772,-16.27968 -0.0311,-0.0125 -0.0631,-0.0241 -0.0933,-0.0383 -1.46066,-0.60022 -2.91369,-1.21593 -4.35757,-1.84265 -0.0816,-0.0366 -0.16315,-0.0718 -0.24554,-0.1069 -1.4085,-0.61579 -2.80777,-1.2456 -4.20032,-1.88719 -0.11097,-0.0515 -0.22202,-0.10224 -0.33299,-0.15374 -1.36904,-0.63531 -2.72954,-1.28231 -4.08174,-1.94338 -0.12698,-0.0624 -0.25565,-0.12483 -0.38345,-0.1873 -1.34126,-0.65867 -2.67325,-1.32829 -3.99768,-2.0112 -0.12866,-0.0672 -0.25896,-0.13503 -0.38766,-0.2022 -1.32443,-0.68754 -2.64044,-1.3845 -3.94634,-2.09786 -0.11859,-0.064 -0.23462,-0.12957 -0.35235,-0.19353 -1.32016,-0.72116 -2.63285,-1.45406 -3.93456,-2.20095 -0.0875,-0.0491 -0.17325,-0.10065 -0.26072,-0.14984 -1.3328,-0.76641 -2.65724,-1.5453 -3.96992,-2.33824 -0.0328,-0.0195 -0.0656,-0.0399 -0.0984,-0.0593 -12.24866,-7.40501 -23.64202,-15.92768 -34.01378,-25.41423 -0.15894,-0.14514 -0.32037,-0.28717 -0.47931,-0.43313 -0.9452,-0.8702 -1.87608,-1.7514 -2.80443,-2.63567 -0.24806,-0.23803 -0.50033,-0.47139 -0.74754,-0.71017 -0.86365,-0.83278 -1.7163,-1.6749 -2.56477,-2.52012 -0.30019,-0.30047 -0.60459,-0.60019 -0.90229,-0.90066 -0.80306,-0.80932 -1.5952,-1.62963 -2.38314,-2.45142 -0.33384,-0.34733 -0.66851,-0.69619 -0.99898,-1.04585 -0.75344,-0.79686 -1.49684,-1.60151 -2.23684,-2.40929 -0.35394,-0.38476 -0.70717,-0.7703 -1.05698,-1.15744 -0.71312,-0.79138 -1.41779,-1.58665 -2.11824,-2.3882 -0.36327,-0.41523 -0.72567,-0.83122 -1.08649,-1.25186 -0.67768,-0.7883 -1.34875,-1.57887 -2.01474,-2.37653 -0.36834,-0.44332 -0.73579,-0.88741 -1.10076,-1.33222 -0.64494,-0.78674 -1.28573,-1.57737 -1.91892,-2.37344 -0.36919,-0.46671 -0.73668,-0.93419 -1.10411,-1.40404 -0.61555,-0.78908 -1.22773,-1.57887 -1.83235,-2.37498 -0.36829,-0.48773 -0.73157,-0.97709 -1.09655,-1.46647 -0.58945,-0.79373 -1.17471,-1.58671 -1.75246,-2.38819 -0.36235,-0.50341 -0.7181,-1.00913 -1.07547,-1.51413 -0.56509,-0.79996 -1.12934,-1.6 -1.68181,-2.40696 -0.35317,-0.51506 -0.69796,-1.03484 -1.04609,-1.55314 -0.54324,-0.80928 -1.08732,-1.61864 -1.61874,-2.43426 -0.34059,-0.52447 -0.67275,-1.05514 -1.00822,-1.58201 -0.5231,-0.8218 -1.0478,-1.64052 -1.55904,-2.46931 -0.32714,-0.52921 -0.64336,-1.06457 -0.96367,-1.59921 -0.50538,-0.83663 -1.01331,-1.67101 -1.50527,-2.51542 -0.2985,-0.51041 -0.58442,-1.02867 -0.87872,-1.54372 -0.50117,-0.87652 -1.00571,-1.74906 -1.49261,-2.63412 -0.18586,-0.33711 -0.36158,-0.67897 -0.54493,-1.01848 -1.05281,-1.93639 -2.07115,-3.89298 -3.0575,-5.86598 -0.2514,-0.50416 -0.51043,-1.00133 -0.75847,-1.5071 -0.37755,-0.77184 -0.74002,-1.5539 -1.10663,-2.33275 -0.31955,-0.67669 -0.64752,-1.34946 -0.95869,-2.03155 -0.34306,-0.74693 -0.67102,-1.50326 -1.004,-2.25637 -0.31874,-0.7211 -0.64328,-1.43915 -0.95445,-2.16265 -0.31616,-0.73831 -0.61891,-1.48369 -0.9275,-2.22743 -0.30944,-0.74848 -0.62143,-1.49382 -0.92163,-2.24537 -0.29429,-0.73601 -0.576,-1.47983 -0.85936,-2.2197 -0.29518,-0.76639 -0.59118,-1.53434 -0.87629,-2.30313 -0.27159,-0.73757 -0.53391,-1.47976 -0.79629,-2.22043 -0.27839,-0.78358 -0.55668,-1.56714 -0.82495,-2.35381 -0.25145,-0.73913 -0.49447,-1.4821 -0.73666,-2.22592 -0.26064,-0.79689 -0.51878,-1.59296 -0.76858,-2.39292 -0.23123,-0.74219 -0.45571,-1.48678 -0.67863,-2.23368 -0.24127,-0.80938 -0.48007,-1.61876 -0.71135,-2.43274 -0.21105,-0.74375 -0.41626,-1.49067 -0.61805,-2.23908 -0.22369,-0.82346 -0.44062,-1.64765 -0.65173,-2.47571 -0.19087,-0.74535 -0.37755,-1.49219 -0.55919,-2.24064 -0.2035,-0.83827 -0.40027,-1.67649 -0.59201,-2.51939 -0.17066,-0.74688 -0.33715,-1.49303 -0.4995,-2.24378 -0.18329,-0.85073 -0.3582,-1.70455 -0.52897,-2.55687 -0.1496,-0.74688 -0.29843,-1.49537 -0.43974,-2.24534 -0.16233,-0.86557 -0.31534,-1.73732 -0.46669,-2.60678 -0.12866,-0.74379 -0.25817,-1.48756 -0.37841,-2.23291 -0.142127,-0.88579 -0.271612,-1.77237 -0.402789,-2.66137 -0.107644,-0.73912 -0.218659,-1.47743 -0.317871,-2.21962 -0.122776,-0.90851 -0.228698,-1.82004 -0.337193,-2.73162 -0.08656,-0.72824 -0.177443,-1.45248 -0.255664,-2.18301 -0.100913,-0.94197 -0.185015,-1.88869 -0.271594,-2.83536 -0.06476,-0.70396 -0.136227,-1.40959 -0.192575,-2.1151 -0.08071,-0.99588 -0.141257,-1.99725 -0.205154,-2.99696 -0.04285,-0.66422 -0.09336,-1.32211 -0.12872,-1.98788 -0.05891,-1.10983 -0.09751,-2.22662 -0.137025,-3.33878 -0.0185,-0.56038 -0.05051,-1.11689 -0.0655,-1.67645 -0.04455,-1.67645 -0.06891,-3.35834 -0.06891,-5.04566 0,-1.55861 0.02361,-3.11254 0.06391,-4.66407 0.02105,-0.84757 0.05795,-1.69207 0.08996,-2.53812 0.02361,-0.62822 0.04626,-1.25575 0.07741,-1.88248 0.05381,-1.12773 0.122765,-2.25165 0.197594,-3.3747 0.01776,-0.27321 0.03626,-0.54554 0.05476,-0.81715 0.09166,-1.2987 0.195085,-2.5943 0.313607,-3.88592 l 0,-0.001 -14.487068,-11.7062 -17.702713,9.14936 0,0.001 c -0.136215,1.48607 -0.253953,2.97592 -0.360706,4.46976 -0.02186,0.30902 -0.04291,0.61889 -0.06391,0.92796 -0.08746,1.29402 -0.161466,2.58962 -0.22706,3.88831 -0.03449,0.71644 -0.06057,1.43289 -0.08827,2.15094 -0.0387,0.97558 -0.0791,1.94958 -0.104294,2.92672 -0.04455,1.78178 -0.07319,3.56669 -0.07319,5.35789 0,1.93786 0.02777,3.87188 0.07904,5.79885 0.01766,0.64622 0.05298,1.28778 0.07653,1.93478 0.04543,1.27762 0.08832,2.55596 0.157256,3.82894 0.0404,0.76793 0.10003,1.53206 0.148841,2.29841 0.07319,1.14343 0.143761,2.28993 0.234607,3.4302 0.0656,0.81556 0.147199,1.62651 0.222032,2.44052 0.09921,1.08407 0.195904,2.1673 0.311948,3.24674 0.08998,0.84134 0.194212,1.67797 0.295173,2.51698 0.123642,1.04657 0.247232,2.09245 0.386782,3.13511 0.114392,0.85222 0.241379,1.70221 0.36497,2.55135 0.148831,1.02008 0.298499,2.04013 0.461666,3.05633 0.138724,0.86003 0.287566,1.71542 0.437221,2.5716 0.173275,0.99895 0.349017,1.99875 0.535691,2.99385 0.162343,0.86166 0.333034,1.7209 0.505395,2.58099 0.196765,0.98023 0.39858,1.95899 0.608807,2.93613 0.185844,0.86244 0.379238,1.72398 0.576013,2.58563 0.221169,0.96316 0.445667,1.92777 0.679489,2.88538 0.209345,0.86398 0.42374,1.72562 0.644122,2.58492 0.24216,0.94829 0.491901,1.89502 0.747544,2.83858 0.232919,0.8608 0.470081,1.71934 0.713049,2.57781 0.264065,0.93264 0.539019,1.86534 0.816535,2.79254 0.256516,0.8608 0.513807,1.71778 0.781211,2.57319 0.285928,0.91701 0.582733,1.8286 0.880433,2.74017 0.280026,0.85857 0.560913,1.71627 0.851828,2.57011 0.305281,0.8983 0.62395,1.79584 0.943501,2.68947 0.302718,0.85614 0.606298,1.71154 0.920819,2.56379 0.325389,0.88118 0.665112,1.75761 1.000667,2.63407 0.329611,0.85621 0.653363,1.7116 0.993075,2.56227 0.342254,0.86081 0.699629,1.71157 1.052794,2.56538 0.354897,0.86013 0.704722,1.72094 1.069647,2.57474 0.354047,0.82732 0.724044,1.64603 1.08814,2.46786 0.386011,0.87023 0.765249,1.74514 1.162968,2.61142 0.352335,0.76798 0.720641,1.52895 1.083046,2.29304 0.429737,0.90998 0.851839,1.82315 1.293337,2.72533 0.257281,0.52449 0.52813,1.0427 0.788813,1.56562 1.176356,2.35699 2.391525,4.6937 3.650313,7.00782 0.192575,0.35199 0.37508,0.70864 0.568464,1.06061 0.572684,1.03645 1.164659,2.06279 1.751614,3.09146 0.3254,0.56736 0.642431,1.14021 0.971276,1.70602 0.57596,0.98574 1.168806,1.96136 1.759143,2.93846 0.361586,0.59782 0.71475,1.19805 1.079728,1.7912 0.591964,0.95914 1.199952,1.90984 1.805378,2.86118 0.381759,0.59943 0.757669,1.2011 1.145369,1.79585 0.61467,0.94673 1.24365,1.88251 1.87433,2.81825 0.39438,0.58849 0.78625,1.17852 1.18653,1.76229 0.64161,0.93574 1.29584,1.86452 1.9509,2.79092 0.40443,0.57208 0.80643,1.14652 1.21681,1.71392 0.66933,0.92797 1.34964,1.84891 2.03328,2.7691 0.41203,0.55331 0.82325,1.10824 1.24113,1.65847 0.69965,0.92406 1.40936,1.84032 2.12249,2.75346 0.41454,0.5315 0.82997,1.06064 1.24873,1.58826 0.73413,0.92254 1.47579,1.83799 2.22419,2.74957 0.41293,0.50419 0.82747,1.00757 1.24541,1.50787 0.77024,0.92403 1.54724,1.84108 2.33096,2.75269 0.40781,0.47298 0.81903,0.94511 1.22944,1.41499 0.81143,0.92716 1.62795,1.84891 2.45291,2.76359 0.39605,0.4394 0.79377,0.87338 1.19155,1.30885 0.85851,0.93656 1.72215,1.87001 2.59585,2.79328 0.37087,0.39414 0.74756,0.7828 1.1218,1.173 0.91403,0.95454 1.83316,1.90282 2.76403,2.84482 0.33381,0.33715 0.6736,0.66886 1.00823,1.00447 0.98472,0.98337 1.97528,1.96209 2.97848,2.92828 0.27078,0.26068 0.54574,0.51826 0.81904,0.77731 1.07803,1.03027 2.16284,2.05656 3.26272,3.06731 0.16478,0.15211 0.33298,0.302 0.49951,0.45262 11.94671,10.92806 25.06986,20.74789 39.1836,29.27365 0.0151,0.0102 0.0294,0.0179 0.0445,0.0274 1.5263,0.92249 3.06594,1.82782 4.61574,2.71911 0.0833,0.0476 0.16405,0.0943 0.2464,0.14207 1.51031,0.86706 3.03314,1.7178 4.56617,2.55439 0.12107,0.0672 0.24127,0.13427 0.36151,0.19984 1.51534,0.82498 3.04239,1.63587 4.57793,2.43117 0.13282,0.0687 0.26657,0.13888 0.40192,0.20916 1.53546,0.79293 3.08106,1.57024 4.63595,2.33201 0.132,0.0655 0.264,0.12956 0.39771,0.19511 1.56663,0.7641 3.14496,1.51565 4.73179,2.25166 0.1135,0.053 0.2279,0.10533 0.3414,0.15843 1.61284,0.74378 3.23494,1.47428 4.86712,2.18762 0.079,0.0336 0.15813,0.0687 0.23542,0.10223 1.67428,0.72971 3.35776,1.44228 5.0522,2.13847 0.0194,0.008 0.0395,0.0156 0.058,0.0226 24.45768,10.03052 50.97054,16.50603 78.77673,18.72098 l -11.38506,-16.70192 z"
       id="svg_66" />
    <path
       style="fill:#ffff00"
       d="m 390.57236,71.748582 -17.89779,10.518302 c 72.45306,19.561536 131.36008,74.656066 150.84218,142.511896 l 18.2206,4.23016 13.23008,-11.15362 C 532.57658,139.87136 466.05435,76.242486 382.7872,53.759658 l 7.78516,17.988924 z"
       id="svg_67" />
    <path
       style="fill:#ffbf00"
       d="m 442.34678,78.307586 -1.72973,18.801367 -16.38585,6.227337 0,0 c 47.96765,26.93691 84.6882,70.60778 99.28382,121.4433 l 18.22075,4.2301 13.2299,-11.15358 C 538.24258,159.61006 496.8971,109.3755 442.34678,78.307586 Z"
       id="svg_68" />
    <path
       style="fill:#ff8500"
       d="m 489.39025,136.13214 -16.77351,3.80323 c 23.88179,23.88763 41.74588,52.95524 50.89909,84.84264 l 18.22068,4.23014 13.23008,-11.15365 C 543.91795,179.37611 522.12004,144.39725 492.87253,116.12494 l -3.48227,20.0072 z"
       id="svg_69" />
    <path
       style="fill:#ff4000"
       d="m 522.60594,181.15869 -17.94987,0 0,0 c 8.08527,13.71977 14.47537,28.34412 18.86068,43.62009 l 18.2206,4.23016 13.23008,-11.15362 C 549.67372,199.41686 541.9064,181.7862 532.03758,165.30903 l -9.43164,15.84966 z"
       id="svg_70" />
    <g
       id="svg_72"
       transform="matrix(1.1500179,0,0,1.107629,-43.429128,-1.2346133)">
      <path
         id="svg_73"
         d="m 235.79095,471.30905 4.63071,-13.93259 3.21002,0.98932 -4.63003,13.93329 -3.21069,-0.99002 z"
         style="fill:#ffffff" />
      <path
         id="svg_74"
         d="m 242.08151,473.29257 3.91709,-14.13125 3.16833,0.81594 3.98441,11.13663 2.61549,-9.43707 3.02651,0.77789 -3.91784,14.13129 -3.26705,-0.84137 -3.94703,-10.88855 -2.55416,9.21509 -3.02575,-0.7786 z"
         style="fill:#ffffff" />
      <path
         id="svg_75"
         d="m 262.05304,478.03754 2.45395,-11.91666 -4.85968,-0.93008 0.50018,-2.42533 13.01923,2.49015 -0.50095,2.42602 -4.85003,-0.9266 -2.45475,11.91595 -3.30795,-0.63345 z"
         style="fill:#ffffff" />
      <path
         id="svg_76"
         d="m 272.35065,479.9245 2.02475,-14.49274 12.26675,1.59174 -0.34225,2.45138 -8.92728,-1.15905 -0.44901,3.21377 8.30658,1.07736 -0.34222,2.44153 -8.30505,-1.07736 -0.55137,3.94519 9.24323,1.19998 -0.3407,2.4415 -12.58343,-1.6333 z"
         style="fill:#ffffff" />
      <path
         id="svg_77"
         d="m 287.79892,481.83615 1.00986,-14.59491 7.08026,0.45517 c 1.78049,0.11557 3.06375,0.3291 3.85345,0.64194 0.78897,0.31497 1.40244,0.82159 1.84119,1.5234 0.43948,0.70182 0.62738,1.48325 0.56741,2.34638 -0.076,1.09644 -0.50525,1.9772 -1.28982,2.64236 -0.78458,0.66587 -1.91434,1.04569 -3.38989,1.13797 0.70193,0.41852 1.27374,0.86457 1.71758,1.34021 0.44169,0.47492 1.02518,1.30497 1.75126,2.49228 l 1.83752,2.97843 -4.02237,-0.25861 -2.21191,-3.33218 c -0.78531,-1.1901 -1.32639,-1.94544 -1.62476,-2.25971 -0.29764,-0.3164 -0.62149,-0.54046 -0.96887,-0.67294 -0.34952,-0.13245 -0.90958,-0.22263 -1.68173,-0.2727 l -0.68225,-0.0444 -0.42191,6.0922 -3.36502,-0.21491 z m 3.94705,-8.20679 2.48761,0.15995 c 1.61374,0.10428 2.625,0.10849 3.03525,0.0148 0.41019,-0.0944 0.73846,-0.27906 0.98639,-0.55597 0.24713,-0.27902 0.38608,-0.63553 0.41611,-1.07315 0.0343,-0.49112 -0.0878,-0.89627 -0.3664,-1.21823 -0.27862,-0.32065 -0.68734,-0.5391 -1.22772,-0.65464 -0.27054,-0.0486 -1.08728,-0.11978 -2.45242,-0.20648 l -2.62506,-0.16836 -0.25376,3.70208 z"
         style="fill:#ffffff" />
      <path
         id="svg_78"
         d="m 304.60941,482.8804 -0.24714,-14.62662 5.40802,-0.0853 c 2.04957,-0.0317 3.38697,0.0197 4.01142,0.15713 0.96008,0.20508 1.7688,0.67008 2.42538,1.39447 0.65741,0.72437 0.99668,1.66852 1.01712,2.83332 0.0154,0.89837 -0.15789,1.65585 -0.51989,2.2745 -0.36118,0.61795 -0.82621,1.10553 -1.39292,1.4635 -0.56741,0.35868 -1.14581,0.59964 -1.7359,0.72086 -0.80285,0.15286 -1.96622,0.24097 -3.49228,0.26422 l -2.19726,0.0345 0.0936,5.51721 -3.37017,0.0521 z m 3.16546,-12.20413 0.0702,4.15097 1.84335,-0.0289 c 1.32862,-0.0197 2.21558,-0.1106 2.66089,-0.27121 0.44455,-0.16138 0.79261,-0.40592 1.0412,-0.73499 0.24933,-0.33041 0.37003,-0.71164 0.3627,-1.14358 -0.009,-0.53269 -0.19449,-0.96884 -0.55719,-1.30777 -0.36267,-0.33966 -0.81747,-0.54892 -1.36587,-0.62851 -0.40366,-0.0606 -1.21231,-0.0804 -2.42688,-0.062 l -1.62839,0.0261 z"
         style="fill:#ffffff" />
      <path
         id="svg_79"
         d="m 320.18347,482.6972 -1.00986,-14.59564 3.36435,-0.21631 0.39704,5.74411 6.59186,-0.42486 -0.39777,-5.74341 3.36429,-0.21707 1.00982,14.59494 -3.36434,0.21701 -0.44162,-6.38251 -6.59113,0.42493 0.44168,6.3818 -3.36432,0.21701 z"
         style="fill:#ffffff" />
      <path
         id="svg_80"
         d="m 351.89456,479.53061 -3.63562,0.48056 -1.91281,-3.10037 -6.61377,0.87515 -0.89648,3.47452 -3.54419,0.46713 4.37848,-15.34393 3.5325,-0.46787 8.69189,13.61481 z m -6.96847,-4.91968 -3.04618,-5.07687 -1.46826,5.67437 4.51444,-0.5975 z"
         style="fill:#ffffff" />
      <path
         id="svg_81"
         d="m 351.8046,474.67435 3.15371,-0.91535 c 0.3956,0.90686 0.93668,1.52204 1.62479,1.84687 0.68582,0.32483 1.5311,0.38678 2.53509,0.18743 1.06241,-0.21212 1.82068,-0.57006 2.27478,-1.07104 0.45484,-0.50244 0.62448,-1.01535 0.51184,-1.54382 -0.0731,-0.33753 -0.24862,-0.60318 -0.52719,-0.79557 -0.27716,-0.19162 -0.71661,-0.32055 -1.32132,-0.384 -0.41168,-0.0402 -1.33667,-0.0733 -2.77713,-0.0979 -1.85144,-0.0317 -3.19391,-0.25577 -4.02896,-0.67435 -1.17288,-0.58761 -1.87991,-1.448 -2.12484,-2.58032 -0.15583,-0.72931 -0.0673,-1.45856 0.26831,-2.18787 0.33563,-0.72717 0.91256,-1.34652 1.72934,-1.85668 0.81671,-0.51087 1.85357,-0.89066 3.11053,-1.14081 2.05322,-0.40869 3.68018,-0.3234 4.88812,0.2572 1.20578,0.582 1.97577,1.52481 2.31138,2.82977 l -3.27509,0.78568 c -0.29837,-0.70746 -0.71588,-1.17673 -1.24963,-1.40647 -0.53376,-0.22897 -1.26499,-0.25085 -2.1951,-0.0662 -0.95935,0.19098 -1.6723,0.51367 -2.14096,0.96744 -0.30274,0.29031 -0.41242,0.62219 -0.33271,0.99212 0.0731,0.33896 0.29758,0.59613 0.67707,0.77228 0.4826,0.22266 1.56115,0.33966 3.23928,0.35233 1.67667,0.0134 2.94019,0.11838 3.7847,0.31921 0.84531,0.20221 1.55243,0.5672 2.11908,1.09567 0.56665,0.52848 0.9469,1.24649 1.14139,2.15192 0.17697,0.82022 0.0812,1.63968 -0.28439,2.45984 -0.3671,0.82019 -0.98862,1.50089 -1.86536,2.03919 -0.87674,0.5383 -2.02612,0.94842 -3.4462,1.23172 -2.06634,0.41149 -3.74304,0.31005 -5.03146,-0.30652 -1.28543,-0.61518 -2.20969,-1.7038 -2.76907,-3.26172 z"
         style="fill:#ffffff" />
      <path
         id="svg_82"
         d="m 368.85495,476.02298 -4.03702,-14.09955 11.93335,-3.17224 0.68439,2.38516 -8.68454,2.30908 0.89572,3.12574 8.08133,-2.14844 0.68002,2.37533 -8.0806,2.14835 1.09827,3.8367 8.9917,-2.39151 0.68146,2.37534 -12.24408,3.25604 z"
         style="fill:#ffffff" />
    </g>
    <g
       id="svg_83"
       transform="matrix(1.1500179,0,0,1.107629,-43.429128,-1.2346133)">
      <path
         id="svg_84"
         d="m 403.20496,50.063351 6.90115,-13.028522 4.49402,2.211803 -2.00937,10.214275 7.37646,-7.574745 4.50571,2.216747 -6.90192,13.028549 -2.78952,-1.371902 5.43433,-10.255844 -8.3862,8.803608 -2.892,-1.423359 2.49054,-11.703114 -5.43362,10.25724 -2.78958,-1.374737 z"
         style="fill:#ffffff" />
      <path
         id="svg_85"
         d="m 420.3255,58.768299 7.62213,-12.650146 2.91605,1.63192 -7.62433,12.648727 -2.91385,-1.630501 z"
         style="fill:#ffffff" />
      <path
         id="svg_86"
         d="m 429.18774,63.898682 6.80106,-10.23468 -4.1716,-2.573299 1.38422,-2.084999 11.17361,6.894764 -1.38422,2.083599 -4.16278,-2.568394 -6.80099,10.233292 -2.8393,-1.750282 z"
         style="fill:#ffffff" />
      <path
         id="svg_87"
         d="m 441.54446,62.962936 c 0.91837,-1.198555 1.8938,-2.060329 2.92627,-2.583168 0.76413,-0.38261 1.59327,-0.623581 2.48612,-0.725052 0.89285,-0.100765 1.74243,-0.04299 2.54754,0.174759 1.07413,0.284641 2.15705,0.815948 3.25089,1.592442 1.9794,1.407848 3.15308,3.071468 3.51718,4.992977 0.36414,1.920105 -0.18719,3.838112 -1.65469,5.755379 -1.45441,1.900375 -3.18369,2.968597 -5.18427,3.203949 -1.99994,0.235336 -3.98736,-0.348099 -5.95865,-1.75029 -1.99768,-1.42054 -3.17859,-3.08416 -3.54126,-4.990166 -0.35901,-1.906731 0.17691,-3.796516 1.61087,-5.67083 z m 2.85755,1.906006 c -1.02069,1.333855 -1.44406,2.594437 -1.26785,3.781723 0.1762,1.187294 0.80654,2.164635 1.88647,2.934067 1.08145,0.768044 2.23016,1.056938 3.44623,0.868095 1.21524,-0.190948 2.34643,-0.967445 3.39273,-2.332993 1.03253,-1.350075 1.46533,-2.597275 1.29727,-3.740852 -0.16754,-1.14222 -0.80878,-2.11248 -1.92682,-2.906605 -1.11938,-0.795517 -2.27774,-1.099922 -3.47467,-0.913895 -1.19922,0.186733 -2.3179,0.956169 -3.35336,2.310459 z"
         style="fill:#ffffff" />
      <path
         id="svg_88"
         d="m 455.0148,82.022369 8.15442,-9.272881 -3.7803,-3.085571 1.66055,-1.88839 10.12359,8.265266 -1.66055,1.88839 -3.77166,-3.079926 -8.15372,9.272881 -2.57233,-2.09977 z"
         style="fill:#ffffff" />
      <path
         id="svg_89"
         d="m 462.83951,88.604279 10.30279,-10.744141 2.47727,2.204773 -10.3042,10.744118 -2.47586,-2.20475 z"
         style="fill:#ffffff" />
      <path
         id="svg_90"
         d="m 479.17316,96.451691 1.61972,2.883339 c -1.5326,0.77507 -2.995,1.03367 -4.38514,0.77647 -1.38922,-0.257168 -2.71429,-1.001957 -3.96969,-2.233654 -1.5538,-1.523392 -2.34064,-3.241287 -2.35965,-5.152946 -0.019,-1.911636 0.82413,-3.673203 2.5278,-5.287506 1.80249,-1.706596 3.70352,-2.539452 5.70856,-2.497887 2.00207,0.04298 3.82422,0.86599 5.46505,2.473244 1.43027,1.403618 2.20237,2.915031 2.3129,4.532158 0.0694,0.960411 -0.19745,1.982101 -0.79709,3.063705 l -2.85537,-1.803154 c 0.4219,-0.667267 0.57623,-1.370476 0.46438,-2.108215 -0.11557,-0.739166 -0.48709,-1.414909 -1.11368,-2.031433 -0.86868,-0.850487 -1.85943,-1.267632 -2.97537,-1.252129 -1.11502,0.01619 -2.32,0.635582 -3.60995,1.858093 -1.36951,1.296509 -2.07807,2.480278 -2.12635,3.552025 -0.0475,1.071739 0.35248,2.025803 1.20356,2.861473 0.62741,0.61512 1.35281,0.970276 2.17535,1.063988 0.81976,0.09232 1.72574,-0.140221 2.71497,-0.697571 z"
         style="fill:#ffffff" />
      <path
         id="svg_91"
         d="m 483.70599,109.24133 11.7696,-9.23974 3.41696,4.04173 c 1.29486,1.53186 2.08096,2.57612 2.35516,3.13488 0.42703,0.8519 0.5499,1.7517 0.3656,2.69871 -0.18277,0.94701 -0.74359,1.78762 -1.67956,2.52257 -0.72248,0.56722 -1.44782,0.90543 -2.17612,1.01396 -0.72677,0.1071 -1.41263,0.0578 -2.05539,-0.15008 -0.64419,-0.20645 -1.19696,-0.49678 -1.66211,-0.86672 -0.62143,-0.51365 -1.41412,-1.34018 -2.3764,-2.48025 l -1.38852,-1.64321 -4.43848,3.48579 -2.13073,-2.51765 z m 11.90708,-5.15856 -3.33875,2.62193 1.16623,1.37893 c 0.83881,0.99213 1.46246,1.60728 1.86835,1.84542 0.40588,0.23815 0.82107,0.3495 1.24368,0.33471 0.42264,-0.0162 0.80728,-0.16137 1.15537,-0.43337 0.42846,-0.33752 0.6683,-0.74759 0.72018,-1.23167 0.0526,-0.48549 -0.0585,-0.95899 -0.33411,-1.42334 -0.19891,-0.34246 -0.68435,-0.96744 -1.45004,-1.87571 l -1.03091,-1.2169 z"
         style="fill:#ffffff" />
      <path
         id="svg_92"
         d="m 493.47427,120.9346 12.3881,-8.45691 1.94943,2.6508 -4.8772,3.32796 3.8183,5.19378 4.87732,-3.32794 1.9479,2.65079 -12.38888,8.45693 -1.94788,-2.65079 5.41669,-3.69789 -3.81976,-5.1938 -5.41462,3.69786 -1.9494,-2.65079 z"
         style="fill:#ffffff" />
      <path
         id="svg_93"
         d="m 510.92526,146.63867 -1.90411,-3.01933 2.19073,-2.92561 -3.46454,-5.4968 -3.66336,0.59049 -1.85647,-2.94535 16.35061,-2.24072 1.84992,2.93549 -9.50278,13.10183 z m 1.91068,-8.11731 3.61871,-4.71254 -5.98563,0.96042 2.36692,3.75212 z"
         style="fill:#ffffff" />
      <path
         id="svg_94"
         d="m 515.72498,145.25265 1.76654,2.67969 c -0.797,0.61232 -1.26642,1.28102 -1.40534,2.00679 -0.13824,0.72362 0.0285,1.52478 0.50012,2.40132 0.50086,0.92871 1.06098,1.53749 1.68622,1.8236 0.62433,0.28465 1.18372,0.30439 1.68103,0.0564 0.31873,-0.15854 0.53601,-0.39389 0.65436,-0.70323 0.11835,-0.30934 0.12653,-0.75253 0.0257,-1.3296 -0.0717,-0.39389 -0.28955,-1.26059 -0.65448,-2.60361 -0.47095,-1.72702 -0.60981,-3.03481 -0.41822,-3.92053 0.26978,-1.24788 0.93811,-2.13712 2.00348,-2.66983 0.68585,-0.34385 1.43976,-0.45661 2.2594,-0.34385 0.8197,0.11416 1.59412,0.48197 2.32385,1.10204 0.73121,0.62076 1.39075,1.47969 1.98084,2.57752 0.96515,1.79328 1.31982,3.32934 1.06683,4.60472 -0.25458,1.27748 -0.98864,2.24705 -2.20099,2.91079 l -1.6723,-2.82554 c 0.62665,-0.46927 0.98273,-0.98293 1.06683,-1.5403 0.0856,-0.55736 -0.0899,-1.24297 -0.52722,-2.05467 -0.45105,-0.83782 -0.96661,-1.41349 -1.54645,-1.72563 -0.37298,-0.20086 -0.73407,-0.21351 -1.08215,-0.0402 -0.31885,0.15994 -0.51337,0.43898 -0.58856,0.8378 -0.0915,0.50801 0.0825,1.54173 0.5257,3.10036 0.44311,1.55862 0.67779,2.75929 0.70489,3.59851 0.0277,0.83783 -0.14416,1.59246 -0.51855,2.26254 -0.37647,0.66872 -0.99006,1.21689 -1.84186,1.6418 -0.77289,0.38544 -1.6167,0.5186 -2.53668,0.40161 -0.91828,-0.11836 -1.76502,-0.51224 -2.54151,-1.17952 -0.77588,-0.66869 -1.49682,-1.62276 -2.16369,-2.8636 -0.9704,-1.80667 -1.32428,-3.38996 -1.05585,-4.75197 0.26471,-1.35992 1.10187,-2.51201 2.50806,-3.45338 z"
         style="fill:#ffffff" />
      <path
         id="svg_95"
         d="m 518.80255,161.55415 13.90479,-5.86952 4.9685,10.92807 -2.35235,0.9935 -3.61499,-7.95242 -3.08283,1.30075 3.36572,7.40068 -2.3421,0.98787 -3.36499,-7.39926 -3.78393,1.59668 3.74298,8.23497 -2.34198,0.98929 -5.09882,-11.21061 z"
         style="fill:#ffffff" />
    </g>
    <path
       style="fill:#006b33"
       d="m 421.42757,476.30593 -7.85402,-14.47214 11.75502,-5.49523 1.32862,2.4491 -8.29127,3.87654 1.85924,3.42703 7.15774,-3.34583 1.32865,2.44909 -7.15782,3.34581 3.33754,6.15084 -3.4637,1.6148 z"
       id="svg_97" />
    <path
       style="fill:#006b33"
       d="m 435.84407,469.34419 -8.67305,-14.064 3.3653,-1.788 8.67308,14.06392 -3.36533,1.78808 z"
       id="svg_98" />
    <path
       style="fill:#006b33"
       d="m 442.46369,465.89297 -9.58048,-13.54728 6.8223,-4.15524 c 1.71629,-1.04576 3.04828,-1.68267 3.99765,-1.91289 0.94937,-0.23023 1.87769,-0.17716 2.78594,0.16002 0.9065,0.33869 1.64392,0.90688 2.21072,1.70765 0.71893,1.01771 0.95864,2.07132 0.71812,3.16553 -0.24051,1.09421 -1.00321,2.15567 -2.28982,3.18745 0.94436,-0.0819 1.79203,-0.0563 2.53953,0.0795 0.74926,0.13426 1.88202,0.4925 3.40152,1.07474 l 3.82856,1.44934 -3.87486,2.3601 -4.43069,-1.51877 c -1.57672,-0.54715 -2.61358,-0.86402 -3.11555,-0.9522 -0.50125,-0.0866 -0.95942,-0.0781 -1.37324,0.0304 -0.41542,0.10777 -0.99559,0.38714 -1.73818,0.84133 l -0.65836,0.40039 4.00102,5.6545 -3.24418,1.97535 z m -2.28811,-9.79251 2.39992,-1.46178 c 1.55398,-0.94673 2.4866,-1.59451 2.79433,-1.94024 0.30691,-0.34498 0.476,-0.72272 0.50372,-1.12545 0.0277,-0.40504 -0.10176,-0.8109 -0.38935,-1.21751 -0.32292,-0.45579 -0.72739,-0.73517 -1.2134,-0.84137 -0.48608,-0.10533 -1.01838,-0.0336 -1.59524,0.21154 -0.28669,0.12956 -1.08394,0.59471 -2.39907,1.3947 l -2.53111,1.54142 2.4302,3.43869 z"
       id="svg_99" />
    <path
       style="fill:#006b33"
       d="m 454.25313,452.30353 2.75895,-2.40695 c 0.89048,0.70864 1.77265,1.06221 2.65306,1.05754 0.87879,-0.004 1.78192,-0.34418 2.70946,-1.02241 0.98212,-0.71492 1.57331,-1.42984 1.77264,-2.14239 0.20006,-0.71332 0.10336,-1.30575 -0.2943,-1.77401 -0.25487,-0.30201 -0.57688,-0.48154 -0.96542,-0.53927 -0.38769,-0.0586 -0.9099,0.0242 -1.56243,0.24818 -0.44487,0.15532 -1.41695,0.56426 -2.91196,1.22377 -1.9216,0.85072 -3.42419,1.2667 -4.50483,1.24872 -1.52115,-0.0242 -2.70686,-0.53928 -3.55951,-1.54844 -0.54824,-0.64776 -0.84679,-1.41341 -0.88803,-2.29608 -0.0428,-0.88275 0.22286,-1.7709 0.79134,-2.66452 0.5701,-0.89441 1.43538,-1.76387 2.59505,-2.60984 1.89536,-1.38223 3.61846,-2.07139 5.16814,-2.06985 1.5514,0.003 2.84728,0.57055 3.88425,1.70614 l -2.95162,2.33667 c -0.68458,-0.55959 -1.36316,-0.8265 -2.035,-0.79918 -0.67182,0.0274 -1.4372,0.35121 -2.29483,0.97871 -0.88551,0.64622 -1.4489,1.30493 -1.69025,1.97844 -0.15642,0.43165 -0.0933,0.81247 0.18587,1.14343 0.2556,0.30198 0.62393,0.44797 1.1066,0.44094 0.61551,-0.008 1.79024,-0.40586 3.52252,-1.19098 1.73313,-0.78516 3.0879,-1.28154 4.0649,-1.4829 0.97809,-0.20295 1.90047,-0.17717 2.76334,0.0781 0.86525,0.25443 1.63879,0.78591 2.32162,1.58978 0.61642,0.72973 0.95608,1.58823 1.015,2.57712 0.058,0.98804 -0.21945,1.95583 -0.83588,2.90718 -0.61546,0.9514 -1.57997,1.90279 -2.89101,2.86118 -1.90885,1.39161 -3.68901,2.0901 -5.34301,2.09165 -1.64908,-0.003 -3.17958,-0.64232 -4.58466,-1.92071 z"
       id="svg_100" />
    <path
       style="fill:#006b33"
       d="m 475.66171,442.77488 -9.82845,-9.90096 -4.18946,3.58232 -2.00049,-2.01516 11.21934,-9.59427 2.00042,2.01671 -4.18008,3.57296 9.8285,9.901 -2.84978,2.4374 z"
       id="svg_101" />
    <path
       style="fill:#006b33"
       d="m 490.59198,419.96269 -2.23006,-1.77709 5.44062,-5.88395 5.27415,4.20124 c 0.0144,1.00447 -0.27575,2.2134 -0.86444,3.62603 -0.59115,1.41499 -1.40096,2.67699 -2.43187,3.79072 -1.30766,1.41339 -2.73806,2.41475 -4.29195,3.00321 -1.5532,0.59006 -3.11387,0.71802 -4.68391,0.38554 -1.57005,-0.33248 -2.99098,-1.00443 -4.25993,-2.01671 -1.38004,-1.09735 -2.33107,-2.36875 -2.85652,-3.8149 -0.52735,-1.4439 -0.55002,-2.96185 -0.0707,-4.55478 0.36328,-1.21833 1.13861,-2.47255 2.33351,-3.76261 1.55225,-1.67804 3.10805,-2.71523 4.67128,-3.1094 1.56243,-0.3949 3.07775,-0.24273 4.54421,0.45582 l -2.01141,3.10622 c -0.82666,-0.32856 -1.67175,-0.37778 -2.53455,-0.15221 -0.86184,0.22711 -1.65735,0.73211 -2.38476,1.51958 -1.10407,1.19257 -1.60953,2.43736 -1.52206,3.72908 0.09,1.29403 0.8636,2.52246 2.32168,3.68376 1.5717,1.25187 3.08117,1.83411 4.52669,1.74589 1.44553,-0.0882 2.7017,-0.70864 3.76967,-1.86605 0.52988,-0.57133 0.95036,-1.23162 1.26149,-1.98163 0.3102,-0.74999 0.50191,-1.45554 0.56917,-2.1174 l -1.6801,-1.33849 -2.89017,3.12813 z"
       id="svg_102" />
    <path
       style="fill:#006b33"
       d="m 513.16522,402.24223 -2.45713,3.18116 -4.19952,-0.87957 -4.46769,5.78792 2.29821,3.33884 -2.39489,3.10314 -9.83609,-15.08016 2.38651,-3.09297 18.6706,3.64164 z m -9.77213,1.64915 -6.80803,-1.5086 3.75638,5.45852 3.05165,-3.94992 z"
       id="svg_103" />
    <path
       style="fill:#006b33"
       d="m 514.22557,400.57281 -14.93704,-8.37901 3.21909,-4.94191 c 1.21845,-1.87158 2.08873,-3.05006 2.60923,-3.53471 0.79219,-0.74845 1.75757,-1.20742 2.89115,-1.37518 1.13436,-0.16938 2.29565,0.0812 3.48463,0.74693 0.9182,0.51506 1.57842,1.1176 1.97951,1.80749 0.40359,0.69071 0.61385,1.39779 0.62891,2.12055 0.0177,0.72427 -0.095,1.38764 -0.33205,1.99407 -0.33639,0.8156 -0.95866,1.92077 -1.86691,3.31389 l -1.30756,2.00733 5.63321,3.16165 -2.00217,3.0789 z m -10.40281,-10.04065 4.23729,2.37808 1.09906,-1.68581 c 0.78958,-1.2136 1.24032,-2.06818 1.3488,-2.56535 0.11017,-0.4972 0.0749,-0.9545 -0.10672,-1.37366 -0.18255,-0.4191 -0.49286,-0.75318 -0.93351,-0.9998 -0.54325,-0.30513 -1.09827,-0.39328 -1.66418,-0.26534 -0.56508,0.12645 -1.05438,0.41603 -1.4682,0.8655 -0.306,0.32937 -0.82148,1.04896 -1.54393,2.15878 l -0.96861,1.4876 z"
       id="svg_104" />
    <path
       style="fill:#006b33"
       d="m 533.82788,377.59989 -1.12513,2.10178 c -2.2368,0.35205 -4.39708,0.40898 -6.47746,0.17402 -2.08036,-0.23496 -3.94978,-0.73594 -5.60548,-1.5016 -2.05434,-0.94828 -3.80685,-2.20407 -5.25563,-3.76962 -1.25802,-1.35802 -2.30246,-2.82764 -3.13238,-4.4057 l 1.12013,-2.09086 c 1.62125,1.9894 3.08607,3.51833 4.39705,4.58989 1.31176,1.07004 2.81201,1.99646 4.50306,2.77844 1.1662,0.53698 2.41921,0.97867 3.76139,1.32055 1.34023,0.34265 2.66555,0.57598 3.97311,0.6993 0.86034,0.0827 2.1427,0.11628 3.84134,0.10378 z"
       id="svg_105" />
    <path
       style="fill:#006b33"
       d="m 528.16013,363.1777 -2.70515,-1.07157 3.2779,-7.13499 6.39411,2.53178 c 0.33818,0.95299 0.45498,2.18771 0.35162,3.70096 -0.10506,1.51259 -0.46849,2.94472 -1.08737,4.29416 -0.78874,1.71468 -1.82807,3.07033 -3.11892,4.06538 -1.28907,0.99666 -2.73796,1.55474 -4.34236,1.67805 -1.6044,0.12095 -3.17699,-0.12176 -4.71755,-0.73208 -1.67165,-0.66186 -2.99531,-1.60854 -3.96567,-2.83858 -0.96952,-1.22999 -1.48504,-2.67229 -1.54394,-4.3261 -0.0512,-1.26197 0.28434,-2.67699 1.00329,-4.24341 0.936,-2.03389 2.08461,-3.45898 3.44595,-4.27301 1.36145,-0.81247 2.8557,-1.0911 4.48201,-0.83508 l -0.90982,3.52689 c -0.89382,-0.0812 -1.71629,0.10688 -2.46555,0.56429 -0.74919,0.45576 -1.34375,1.16137 -1.78189,2.1158 -0.66513,1.44701 -0.74417,2.77456 -0.23795,3.98352 0.5071,1.20894 1.6423,2.16266 3.40899,2.86274 1.90724,0.7547 3.53351,0.88897 4.88487,0.40117 1.34955,-0.48779 2.34689,-1.4329 2.99107,-2.83384 0.31882,-0.69464 0.50713,-1.44311 0.55999,-2.24382 0.0529,-0.80317 0.004,-1.529 -0.14452,-2.17832 l -2.03836,-0.80623 -1.74075,3.79229 z"
       id="svg_106" />
    <path
       style="fill:#006b33"
       d="m 540.03787,351.22099 -0.77355,1.99565 -7.36459,-2.46083 c 0.38601,0.95298 0.54485,1.97456 0.48252,3.07194 l -1.77332,-0.59319 c 0.0346,-0.57593 -0.0622,-1.24798 -0.29262,-2.01201 -0.22788,-0.76647 -0.61049,-1.36736 -1.14287,-1.80213 l 0.62735,-1.61868 10.23708,3.41926 z"
       id="svg_107" />
    <path
       style="fill:#006b33"
       d="m 546.12028,349.50783 c -1.12351,-1.04269 -1.99892,-1.80203 -2.62617,-2.27896 -0.62727,-0.47696 -1.36986,-0.96615 -2.23016,-1.46956 -0.85849,-0.5042 -1.6918,-0.93581 -2.49665,-1.2956 -0.80485,-0.35979 -1.65059,-0.67044 -2.53444,-0.93419 -1.79951,-0.53698 -3.56882,-0.84921 -5.31108,-0.93348 -1.74156,-0.0851 -3.9422,0.057 -6.59952,0.43165 l 0.76699,-2.21033 c 2.02826,-0.67972 4.06494,-1.07155 6.1099,-1.17222 2.04601,-0.10064 4.00445,0.12953 5.87801,0.68916 1.58011,0.47138 3.18451,1.23154 4.81418,2.27891 1.82478,1.18555 3.49313,2.73317 5.00589,4.64925 l -0.77695,2.24537 z"
       id="svg_108" />
    <g
       id="svg_109"
       transform="matrix(1.1500179,0,0,1.107629,-43.429128,-1.2346133)">
      <path
         id="svg_110"
         d="m 118.83472,321.02576 1.49093,2.82977 c -0.85554,0.53763 -1.38855,1.15842 -1.59987,1.86584 -0.21132,0.70893 -0.12506,1.52063 0.25738,2.43732 0.40438,0.97171 0.90232,1.62842 1.4953,1.97083 0.59229,0.34246 1.14801,0.4143 1.66719,0.21353 0.33342,-0.12967 0.57326,-0.34037 0.72023,-0.6391 0.14772,-0.29807 0.20038,-0.73847 0.1587,-1.3198 -0.0315,-0.3974 -0.16237,-1.28241 -0.3898,-2.65286 -0.29464,-1.763 -0.30267,-3.07715 -0.0234,-3.94171 0.39417,-1.21692 1.148,-2.04062 2.26236,-2.47183 0.71732,-0.27762 1.47777,-0.32059 2.28213,-0.13178 0.80435,0.19025 1.53846,0.62854 2.20388,1.31134 0.66391,0.68702 1.23499,1.60163 1.71396,2.74945 0.77945,1.87363 0.98055,3.43503 0.59808,4.68222 -0.38096,1.2479 -1.20723,2.1456 -2.48243,2.69306 l -1.38052,-2.96716 c 0.67051,-0.4087 1.07485,-0.88782 1.21526,-1.43393 0.1397,-0.54746 0.0344,-1.24646 -0.31955,-2.09482 -0.3656,-0.87515 -0.82114,-1.49591 -1.36664,-1.86163 -0.35021,-0.23536 -0.70926,-0.28113 -1.07414,-0.1402 -0.33338,0.13028 -0.55574,0.38894 -0.66757,0.77859 -0.14336,0.49677 -0.0724,1.54172 0.21131,3.13486 0.28372,1.59247 0.39779,2.80655 0.34076,3.64716 -0.0563,0.83709 -0.3042,1.57132 -0.74438,2.2034 -0.44093,0.63131 -1.10632,1.11889 -1.99623,1.46276 -0.80721,0.31144 -1.66058,0.36713 -2.56432,0.16275 -0.90232,-0.2015 -1.70591,-0.67221 -2.41079,-1.40924 -0.70417,-0.73629 -1.32715,-1.75238 -1.86824,-3.05032 -0.78534,-1.88769 -0.97765,-3.49774 -0.57545,-4.82736 0.40434,-1.32684 1.35196,-2.39432 2.84584,-3.20114 z"
         style="fill:#006b33" />
      <path
         id="svg_111"
         d="m 122.45203,341.20694 5.71293,-2.75015 5.12578,-9.05939 1.76733,3.40759 -3.61218,5.97452 7.09126,0.73352 1.73662,3.34833 -10.62443,-1.49869 -5.69469,2.74307 -1.50262,-2.8988 z"
         style="fill:#006b33" />
      <path
         id="svg_112"
         d="m 127.57634,350.82507 12.95262,-7.6325 1.71178,2.69732 -5.08483,10.71668 8.65094,-5.09589 1.63353,2.57474 -12.95338,7.63248 -1.76515,-2.78119 4.93495,-10.513 -8.44841,4.97677 -1.63205,-2.5754 z"
         style="fill:#006b33" />
      <path
         id="svg_113"
         d="m 138.72292,367.47751 10.19305,-7.15476 -2.91681,-3.86065 2.07585,-1.45572 7.81374,10.33682 -2.0759,1.45575 -2.9102,-3.85077 -10.19307,7.15619 -1.98666,-2.62686 z"
         style="fill:#006b33" />
      <path
         id="svg_114"
         d="m 144.97475,375.60678 11.52386,-9.51388 2.19362,2.46762 -4.53499,3.74438 4.29877,4.83374 4.53499,-3.74368 2.19362,2.46619 -11.52382,9.51526 -2.19364,-2.46763 5.03872,-4.16009 -4.2988,-4.83441 -5.03871,4.16009 -2.19362,-2.46759 z"
         style="fill:#006b33" />
      <path
         id="svg_115"
         d="m 156.0569,387.82639 10.70641,-10.37424 8.78035,8.41186 -1.81196,1.75589 -6.38857,-6.12176 -2.37348,2.29989 5.94472,5.6962 -1.80387,1.74887 -5.94474,-5.69827 -2.91391,2.82483 6.61525,6.33881 -1.80387,1.74673 -9.00633,-8.62881 z"
         style="fill:#006b33" />
      <path
         id="svg_116"
         d="m 169.73643,394.15256 2.67843,1.84539 c -0.5024,0.85474 -0.6764,1.64457 -0.52359,2.36469 0.1521,0.72229 0.6186,1.40506 1.39588,2.04767 0.82407,0.68139 1.58162,1.04214 2.27114,1.0802 0.68881,0.0416 1.21673,-0.14447 1.58087,-0.5531 0.23328,-0.26288 0.34517,-0.55881 0.33342,-0.88929 -0.0131,-0.32977 -0.17691,-0.74411 -0.49426,-1.24224 -0.21936,-0.3375 -0.75756,-1.06543 -1.61748,-2.17731 -1.10703,-1.43106 -1.74316,-2.59302 -1.90987,-3.48435 -0.23545,-1.25283 0.0387,-2.32037 0.82042,-3.1997 0.50308,-0.56583 1.15676,-0.94425 1.96179,-1.13306 0.80365,-0.19095 1.665,-0.12897 2.58268,0.18179 0.91836,0.3122 1.8638,0.86951 2.83854,1.6749 1.5911,1.31412 2.51532,2.60925 2.77713,3.88534 0.26104,1.27674 -0.0425,2.44007 -0.90965,3.4928 l -2.64769,-2.01379 c 0.39775,-0.66168 0.52864,-1.26624 0.39047,-1.81372 -0.13817,-0.54749 -0.56743,-1.11899 -1.28769,-1.71579 -0.74434,-0.61301 -1.4456,-0.95969 -2.10293,-1.04071 -0.42485,-0.0521 -0.76412,0.0662 -1.02078,0.35373 -0.23324,0.26281 -0.30709,0.59185 -0.22011,0.98788 0.11265,0.50382 0.67566,1.39865 1.69133,2.68527 1.01634,1.28672 1.69931,2.31333 2.05176,3.08274 0.35096,0.76809 0.48332,1.52908 0.39633,2.28442 -0.0878,0.75681 -0.44383,1.48395 -1.06829,2.18716 -0.56599,0.63559 -1.29791,1.06611 -2.19656,1.28666 -0.89796,0.22268 -1.83534,0.16351 -2.81372,-0.17475 -0.97908,-0.3389 -2.01886,-0.96322 -3.12006,-1.87286 -1.60211,-1.32401 -2.54387,-2.66351 -2.82544,-4.02411 -0.27929,-1.35571 0.049,-2.72556 0.98793,-4.10587 z"
         style="fill:#006b33" />
      <path
         id="svg_117"
         d="m 179.04686,407.86105 9.2769,-11.57354 2.66673,1.98562 -9.27761,11.57422 -2.66602,-1.9863 z"
         style="fill:#006b33" />
      <path
         id="svg_118"
         d="m 186.34729,407.37268 2.85753,1.57697 c -0.41095,0.89907 -0.50234,1.70095 -0.27344,2.40557 0.22669,0.70325 0.76115,1.3367 1.60135,1.9011 0.8913,0.5982 1.68101,0.8822 2.37205,0.8547 0.69025,-0.0267 1.19478,-0.26071 1.51433,-0.70462 0.20543,-0.28256 0.28443,-0.58908 0.23836,-0.91531 -0.046,-0.32764 -0.25371,-0.72156 -0.62007,-1.18942 -0.25296,-0.31494 -0.86572,-0.98365 -1.83606,-2.01026 -1.25034,-1.31695 -2.00497,-2.40985 -2.26382,-3.28006 -0.36414,-1.22464 -0.20255,-2.31186 0.48408,-3.26382 0.44161,-0.6116 1.05219,-1.04919 1.8324,-1.31766 0.77873,-0.26779 1.64299,-0.29031 2.58923,-0.0698 0.94542,0.22125 1.94499,0.68631 2.99794,1.39236 1.71979,1.15348 2.77492,2.35202 3.16757,3.59641 0.3927,1.24292 0.21132,2.43164 -0.54107,3.56329 l -2.84368,-1.7482 c 0.32688,-0.69613 0.39409,-1.3099 0.19959,-1.84115 -0.19521,-0.53131 -0.68221,-1.05835 -1.45946,-1.58121 -0.80508,-0.53973 -1.53842,-0.81598 -2.20238,-0.83145 -0.42708,-0.0113 -0.75174,0.13882 -0.97761,0.45022 -0.20406,0.28473 -0.24355,0.61942 -0.11488,1.00553 0.16383,0.49045 0.81677,1.32681 1.96258,2.50778 1.14438,1.18234 1.93187,2.13849 2.36112,2.86783 0.42993,0.72858 0.64123,1.47549 0.63174,2.23648 -0.008,0.75958 -0.28662,1.51916 -0.83432,2.27805 -0.49721,0.68911 -1.18088,1.18728 -2.05103,1.4931 -0.86943,0.30862 -1.81048,0.34106 -2.81808,0.10004 -1.0083,-0.24448 -2.10736,-0.7638 -3.29776,-1.56214 -1.73221,-1.16122 -2.80853,-2.40561 -3.23047,-3.73028 -0.41972,-1.32398 -0.23546,-2.71845 0.55426,-4.18409 z"
         style="fill:#006b33" />
    </g>
    <g
       id="svg_119"
       transform="matrix(1.1500179,0,0,1.107629,-43.429128,-1.2346133)">
      <path
         id="svg_120"
         d="m 126.33617,175.13939 1.23066,-2.94396 c 0.98127,0.26845 1.81705,0.2466 2.51099,-0.0676 0.69167,-0.31216 1.27083,-0.9097 1.73587,-1.78906 0.49283,-0.93291 0.67783,-1.72702 0.55501,-2.38232 -0.12287,-0.65531 -0.43291,-1.10485 -0.93013,-1.35007 -0.32027,-0.15715 -0.6449,-0.19026 -0.97399,-0.10219 -0.32972,0.0895 -0.70997,0.33966 -1.13699,0.75395 -0.28955,0.28467 -0.89575,0.96039 -1.81485,2.02721 -1.18236,1.37335 -2.2046,2.24493 -3.06453,2.61066 -1.20941,0.51437 -2.34939,0.51084 -3.41987,-0.0162 -0.6888,-0.33752 -1.22404,-0.86035 -1.605,-1.5692 -0.38096,-0.70888 -0.52208,-1.52907 -0.42483,-2.46196 0.0973,-0.93292 0.43875,-1.9518 1.02077,-3.05243 0.95056,-1.79962 2.03863,-2.97215 3.26411,-3.51539 1.22552,-0.54468 2.47077,-0.53409 3.73794,0.0303 l -1.41052,2.95306 c -0.76116,-0.21771 -1.40096,-0.19655 -1.9209,0.0607 -0.51983,0.25855 -0.99367,0.79476 -1.42582,1.60936 -0.44384,0.84198 -0.62887,1.57973 -0.55425,2.21601 0.0468,0.41012 0.2464,0.699 0.59665,0.87231 0.32026,0.15718 0.6698,0.14731 1.04929,-0.0274 0.48191,-0.22408 1.25186,-0.96186 2.30989,-2.2168 1.05735,-1.25347 1.93406,-2.135 2.62429,-2.64583 0.69176,-0.51088 1.42954,-0.81454 2.21193,-0.90968 0.78165,-0.0965 1.60135,0.0662 2.4569,0.48547 0.77578,0.37979 1.38124,0.96323 1.81628,1.75244 0.43511,0.78844 0.59741,1.6805 0.48552,2.67545 -0.11183,0.99635 -0.49644,2.1181 -1.15456,3.36319 -0.95788,1.81227 -2.08834,3.00941 -3.39282,3.59358 -1.30519,0.58481 -2.76398,0.59966 -4.37703,0.0465 z"
         style="fill:#006b33" />
      <path
         id="svg_121"
         d="m 138.28635,163.25656 -13.03378,-7.50075 6.34837,-10.24455 2.20527,1.26903 -4.61902,7.45492 2.88971,1.66222 4.29877,-6.93634 2.19586,1.26198 -4.29805,6.93915 3.54782,2.03991 4.78286,-7.71919 2.19657,1.2648 -6.51438,10.50882 z"
         style="fill:#006b33" />
      <path
         id="svg_122"
         d="m 147.88275,138.91241 2.64255,-2.0631 c 1.07202,1.30847 1.60354,2.64515 1.59769,4.01002 -0.009,1.36414 -0.52498,2.75507 -1.55014,4.16995 -1.26865,1.75171 -2.87656,2.81146 -4.82231,3.18071 -1.945,0.3671 -3.89808,-0.10571 -5.85628,-1.42407 -2.07149,-1.39305 -3.26921,-3.04114 -3.59535,-4.94717 -0.32387,-1.9032 0.18208,-3.78031 1.5202,-5.62714 1.16849,-1.61432 2.56799,-2.62192 4.19791,-3.02495 0.96662,-0.2424 2.05612,-0.17756 3.26991,0.19235 l -1.31542,3.03624 c -0.75753,-0.27833 -1.50338,-0.29454 -2.2353,-0.0521 -0.73194,0.24379 -1.35495,0.71942 -1.86753,1.42686 -0.70779,0.97873 -0.95132,1.99408 -0.72973,3.04824 0.22154,1.05412 1.07342,2.08075 2.55557,3.07707 1.57355,1.05835 2.91097,1.51213 4.01361,1.36134 1.10192,-0.1501 2.00057,-0.70463 2.6967,-1.66501 0.51186,-0.70886 0.74143,-1.46 0.68592,-2.25552 -0.0556,-0.79483 -0.45778,-1.60939 -1.208,-2.44367 z"
         style="fill:#006b33" />
      <path
         id="svg_123"
         d="m 149.85628,133.08942 c -1.19408,-0.94706 -2.03426,-1.92928 -2.52121,-2.95099 -0.35468,-0.75536 -0.56229,-1.56638 -0.61933,-2.43024 -0.057,-0.86386 0.0482,-1.67915 0.31588,-2.44437 0.35168,-1.01818 0.96006,-2.03564 1.82289,-3.04678 1.56334,-1.83203 3.3489,-2.87207 5.35832,-3.12292 2.0101,-0.25013 3.96901,0.37981 5.87747,1.89264 1.89162,1.49874 2.9073,3.2173 3.04471,5.15503 0.1374,1.93773 -0.57251,3.81907 -2.13069,5.64547 -1.57798,1.84824 -3.36361,2.8981 -5.35833,3.14614 -1.99403,0.24946 -3.92367,-0.3657 -5.78971,-1.84398 z m 2.12707,-2.6501 c 1.3272,1.0513 2.60971,1.52481 3.84984,1.4177 1.23939,-0.10853 2.28648,-0.66165 3.13982,-1.66221 0.85333,-1.00057 1.21453,-2.09203 1.08291,-3.27158 -0.13237,-1.18095 -0.87817,-2.30906 -2.23825,-3.38574 -1.3425,-1.0654 -2.61113,-1.54523 -3.80519,-1.4452 -1.19482,0.10009 -2.23314,0.66871 -3.11569,1.7024 -0.88257,1.03508 -1.25987,2.1343 -1.13121,3.29764 0.12866,1.16334 0.86943,2.27876 2.21777,3.34699 z"
         style="fill:#006b33" />
      <path
         id="svg_124"
         d="m 167.75848,123.72985 -10.90088,-10.18395 2.28356,-2.26961 12.03573,2.07231 -7.27992,-6.79964 2.17899,-2.16744 10.90013,10.18396 -2.35448,2.34078 -11.79294,-1.98423 7.1088,6.64039 -2.17899,2.16743 z"
         style="fill:#006b33" />
      <path
         id="svg_125"
         d="m 169.55362,101.19029 4.63513,-3.909963 c 1.04491,-0.882195 1.90479,-1.484642 2.58115,-1.806656 0.90887,-0.431938 1.84633,-0.626419 2.8137,-0.584854 0.96668,0.04299 1.90555,0.300171 2.81809,0.772278 0.9133,0.470695 1.83824,1.221825 2.77421,2.252686 0.82262,0.905441 1.40392,1.794693 1.74248,2.667009 0.41235,1.06541 0.55276,2.09205 0.42044,3.07852 -0.0987,0.74619 -0.42705,1.5403 -0.98422,2.38232 -0.41898,0.62643 -1.0968,1.33598 -2.03348,2.12657 l -4.77116,4.02554 -9.99634,-11.00346 z m 4.22783,-0.27832 6.62182,7.28864 1.89313,-1.59807 c 0.70854,-0.59755 1.18817,-1.064 1.439,-1.39941 0.32977,-0.43615 0.53228,-0.87654 0.60762,-1.32117 0.0761,-0.44461 -0.0248,-0.98508 -0.30124,-1.62273 -0.27568,-0.63701 -0.80141,-1.38038 -1.57285,-2.23228 -0.77435,-0.850466 -1.45218,-1.431101 -2.03786,-1.742533 -0.5857,-0.309334 -1.14729,-0.463646 -1.68838,-0.458008 -0.5389,0.0056 -1.08655,0.162056 -1.6445,0.473503 -0.41675,0.228302 -1.14282,0.777916 -2.17752,1.651665 l -1.13922,0.960393 z"
         style="fill:#006b33" />
      <path
         id="svg_126"
         d="m 200.73016,89.129204 -1.43974,-2.037071 6.00395,-3.941673 3.40525,4.815399 c -0.234,0.877991 -0.77214,1.870071 -1.61229,2.972839 -0.84091,1.103455 -1.8295,2.028618 -2.96582,2.774803 -1.44341,0.947037 -2.88828,1.507202 -4.33605,1.681938 -1.44778,0.17334 -2.79106,-0.05636 -4.02751,-0.689804 -1.23721,-0.632767 -2.26749,-1.529045 -3.08719,-2.688881 -0.88983,-1.25914 -1.37976,-2.574677 -1.46971,-3.949417 -0.0892,-1.374718 0.26105,-2.704338 1.05295,-3.986763 0.60033,-0.982971 1.55962,-1.906029 2.87802,-2.772011 1.71252,-1.124573 3.27362,-1.687576 4.68123,-1.689682 1.40758,-0.0028 2.64261,0.459419 3.70282,1.390221 l -2.44591,2.2696 c -0.61491,-0.46505 -1.31103,-0.694771 -2.08978,-0.685585 -0.7795,0.0084 -1.5706,0.276894 -2.37349,0.802551 -1.21749,0.799751 -1.94576,1.772835 -2.18559,2.921394 -0.23983,1.146416 0.10971,2.386559 1.05075,3.716896 1.01564,1.435318 2.14026,2.272423 3.37454,2.511276 1.23497,0.24099 2.44226,-0.0275 3.62167,-0.80117 0.58348,-0.384003 1.09754,-0.866676 1.54285,-1.453636 0.44383,-0.58625 0.7765,-1.159805 0.99371,-1.72139 l -1.08368,-1.534691 -3.19098,2.094856 z"
         style="fill:#006b33" />
      <path
         id="svg_127"
         d="m 225.7229,81.042213 -3.20636,1.71508 -2.94823,-2.223114 -5.83432,3.122902 0.46799,3.547798 -3.12518,1.673477 -1.6803,-15.826591 3.11714,-1.667847 13.20926,9.658295 z m -8.3409,-2.155434 -4.74411,-3.667572 0.76192,5.79837 3.98219,-2.130798 z"
         style="fill:#006b33" />
      <path
         id="svg_128"
         d="m 227.37106,80.350281 -6.21019,-13.349144 4.93642,-2.132904 c 1.87042,-0.807503 3.1208,-1.267609 3.7504,-1.380348 0.96515,-0.176159 1.89965,-0.05637 2.8012,0.35936 0.90014,0.41713 1.59847,1.157684 2.09201,2.218147 0.38169,0.82019 0.53235,1.582619 0.45264,2.287247 -0.079,0.706017 -0.30638,1.331017 -0.68077,1.874275 -0.37584,0.544662 -0.8087,0.986496 -1.30153,1.322594 -0.67494,0.444611 -1.70811,0.967445 -3.10109,1.570618 l -2.00569,0.86599 2.34277,5.035248 -3.07617,1.328918 z m -2.08398,-12.420425 1.76297,3.788757 1.68324,-0.727867 c 1.21236,-0.524231 1.99034,-0.944214 2.33475,-1.260582 0.34369,-0.314957 0.56228,-0.672905 0.6552,-1.071022 0.0935,-0.397423 0.049,-0.792702 -0.1353,-1.187996 -0.22741,-0.485489 -0.57547,-0.815979 -1.04854,-0.992104 -0.47235,-0.173363 -0.97618,-0.192375 -1.51067,-0.05639 -0.39563,0.09795 -1.14656,0.385429 -2.25508,0.864571 l -1.48657,0.642632 z"
         style="fill:#006b33" />
      <path
         id="svg_129"
         d="m 253.78818,74.806297 -2.08174,0.684174 c -1.61449,-1.094292 -2.98551,-2.331596 -4.11524,-3.710548 -1.12973,-1.378952 -1.95381,-2.802292 -2.47296,-4.270737 -0.64348,-1.819351 -0.89722,-3.659145 -0.75897,-5.517212 0.11916,-1.614311 0.44308,-3.172237 0.97107,-4.673782 l 2.07069,-0.681381 c -0.31,2.232254 -0.41453,4.079082 -0.31071,5.537659 0.10306,1.45998 0.419,2.939682 0.94987,4.438423 0.36412,1.033699 0.84816,2.056099 1.44995,3.066544 0.60181,1.011826 1.26569,1.943359 1.99329,2.793823 0.47823,0.56089 1.24745,1.338089 2.30475,2.333038 z"
         style="fill:#006b33" />
      <path
         id="svg_130"
         d="m 260.74124,62.781147 -0.66174,-2.380924 7.01892,-1.809498 1.56402,5.628551 c -0.52139,0.753952 -1.3688,1.517761 -2.54165,2.292854 -1.17288,0.773674 -2.42249,1.332458 -3.7497,1.673485 -1.68762,0.434761 -3.24438,0.505219 -4.67089,0.20787 -1.42664,-0.295952 -2.61556,-0.93998 -3.56618,-1.930687 -0.95053,-0.990685 -1.61452,-2.164604 -1.99175,-3.520309 -0.40948,-1.471249 -0.419,-2.869232 -0.0329,-4.196018 0.38605,-1.324009 1.17358,-2.467628 2.36107,-3.428017 0.90375,-0.734924 2.12561,-1.302166 3.66629,-1.698151 2.00278,-0.5172 3.66916,-0.551739 4.99853,-0.107109 1.33075,0.446026 2.33692,1.276791 3.0206,2.490856 l -3.08792,1.364155 c -0.42038,-0.635574 -0.99951,-1.073128 -1.73807,-1.312721 -0.73855,-0.239593 -1.57717,-0.238148 -2.51608,0.0028 -1.42215,0.367107 -2.44439,1.054123 -3.06448,2.061733 -0.62081,1.007629 -0.71511,2.287216 -0.28296,3.842327 0.46574,1.677723 1.23938,2.825554 2.32449,3.444916 1.08222,0.61937 2.31497,0.751137 3.69336,0.395302 0.68292,-0.174736 1.33447,-0.469292 1.95526,-0.880783 0.62152,-0.410095 1.12967,-0.846252 1.52896,-1.307087 l -0.49798,-1.793266 -3.72919,0.959702 z"
         style="fill:#006b33" />
      <path
         id="svg_131"
         d="m 277.47058,63.015083 0.32541,1.585411 -6.8317,1.303543 c -0.049,-0.612312 0.0563,-1.223228 0.31659,-1.83062 0.25888,-0.60667 0.84311,-1.457161 1.75202,-2.552845 0.73193,-0.885017 1.17135,-1.474083 1.31765,-1.765778 0.19599,-0.403065 0.25809,-0.777935 0.1872,-1.121773 -0.0776,-0.381214 -0.25668,-0.6525 -0.53165,-0.810337 -0.27493,-0.161339 -0.61929,-0.200802 -1.03021,-0.122593 -0.40732,0.07681 -0.70856,0.246624 -0.90381,0.506626 -0.19745,0.261414 -0.26175,0.644005 -0.19745,1.14925 l -1.97717,0.199383 c -0.0768,-0.961811 0.14697,-1.703766 0.67343,-2.22942 0.52725,-0.52565 1.24747,-0.875149 2.1622,-1.049904 1.00397,-0.190952 1.84119,-0.104271 2.51242,0.258621 0.67053,0.364998 1.07855,0.898392 1.2226,1.60302 0.0819,0.401619 0.079,0.798336 -0.011,1.191505 -0.0899,0.393902 -0.27197,0.824402 -0.54617,1.288078 -0.18207,0.308598 -0.52942,0.768021 -1.04346,1.378937 -0.5126,0.612309 -0.83649,1.01395 -0.96591,1.207027 -0.13089,0.193771 -0.23105,0.37698 -0.302,0.550297 l 3.871,-0.73843 z"
         style="fill:#006b33" />
      <path
         id="svg_132"
         d="m 279.98889,68.59713 c 0.43067,-1.264809 0.72171,-2.22802 0.87448,-2.891785 0.15287,-0.663063 0.27133,-1.419098 0.35468,-2.266769 0.0841,-0.847691 0.11844,-1.646008 0.10385,-2.394329 -0.0154,-0.749027 -0.0855,-1.508617 -0.21207,-2.275948 -0.25665,-1.564976 -0.68954,-3.015087 -1.30081,-4.35458 -0.6113,-1.337387 -1.59482,-2.924191 -2.94824,-4.76046 l 2.14828,-0.326229 c 1.36441,1.240128 2.48905,2.604996 3.37528,4.093166 0.8855,1.490276 1.46243,3.048199 1.72925,4.678013 0.22525,1.373318 0.21872,2.884731 -0.019,4.529339 -0.27417,1.846832 -0.91546,3.726746 -1.92453,5.638405 l -2.18118,0.331177 z"
         style="fill:#006b33" />
    </g>
    <g
       id="svg_133"
       transform="matrix(1.1500179,0,0,1.107629,-43.429128,-1.2346133)">
      <path
         id="svg_134"
         d="m 386.32574,77.223137 6.62693,-13.159584 4.86694,2.277367 c 1.84335,0.861748 3.01184,1.488876 3.5062,1.884155 0.76113,0.600334 1.26638,1.366287 1.51361,2.298508 0.2471,0.932907 0.10818,1.92292 -0.41974,2.969971 -0.40732,0.807526 -0.91693,1.409256 -1.52823,1.803154 -0.61273,0.396011 -1.25553,0.627838 -1.92969,0.700394 -0.67416,0.07256 -1.30228,0.03593 -1.88654,-0.111328 -0.78817,-0.213509 -1.86895,-0.641212 -3.24142,-1.282425 l -1.97794,-0.925873 -2.50073,4.964096 -3.02939,-1.418434 z m 8.53833,-9.513847 -1.87921,3.733818 1.66056,0.776497 c 1.19555,0.558762 2.02838,0.864571 2.50073,0.915321 0.47238,0.05072 0.89725,-0.01762 1.2738,-0.203644 0.37656,-0.186028 0.66248,-0.473511 0.8584,-0.863167 0.24133,-0.479149 0.28009,-0.948433 0.11557,-1.409256 -0.16528,-0.460815 -0.47235,-0.846275 -0.92645,-1.154884 -0.33051,-0.228279 -1.0456,-0.598915 -2.13657,-1.109062 l -1.46683,-0.685623 z"
         style="fill:#8f0000" />
      <path
         id="svg_135"
         d="m 427.28732,100.29681 9.50428,-11.407184 3.93612,3.04541 -4.12188,9.608974 8.81997,-5.974521 3.94324,3.052444 -9.50418,11.405067 -2.44223,-1.88981 7.48099,-8.978316 -10.06583,6.978586 -2.5322,-1.95813 4.90711,-10.971048 -7.48169,8.978338 -2.4437,-1.88981 z"
         style="fill:#8f0000" />
      <path
         id="svg_136"
         d="m 476.69812,151.01367 -2.10376,-2.89392 1.98816,-3.05524 -3.82779,-5.26849 -3.61295,0.81879 -2.05105,-2.82274 16.15979,-3.25608 2.04367,2.81427 -8.59607,13.66341 z m 1.35931,-8.21733 3.29187,-4.92816 -5.90518,1.33385 2.61331,3.59431 z"
         style="fill:#8f0000" />
      <path
         id="svg_137"
         d="m 493.30896,182.92897 11.78494,-4.33063 -1.76666,-4.46167 2.40067,-0.8822 4.72863,11.94974 -2.39755,0.88222 -1.76157,-4.45185 -11.78637,4.33063 -1.20209,-3.03624 z"
         style="fill:#8f0000" />
    </g>
    <text
       style="font-size:44.01635361px;font-family:Arial;text-anchor:middle;fill:#000000;stroke:#000000;stroke-width:0;stroke-dasharray:none"
       stroke-linejoin="null"
       stroke-linecap="null"
       x="310.40948"
       y="169.04369"
       id="svg_221"
       font-size="39"
       xml:space="preserve"
       transform="scale(1.0189553,0.9813973)">The Cell Cycle</text>
  </g>
</svg>
