<?xml version="1.0" encoding="UTF-8" standalone="no"?>
<svg
   xmlns:dc="http://purl.org/dc/elements/1.1/"
   xmlns:cc="http://creativecommons.org/ns#"
   xmlns:rdf="http://www.w3.org/1999/02/22-rdf-syntax-ns#"
   xmlns:svg="http://www.w3.org/2000/svg"
   xmlns="http://www.w3.org/2000/svg"
   xmlns:xlink="http://www.w3.org/1999/xlink"
   xmlns:sodipodi="http://sodipodi.sourceforge.net/DTD/sodipodi-0.dtd"
   xmlns:inkscape="http://www.inkscape.org/namespaces/inkscape"
   version="1.1"
   id="svg10237"
   height="541"
   width="545"
   inkscape:version="0.91 r"
   sodipodi:docname="the-cell-cycle.svg">
  <sodipodi:namedview
     pagecolor="#ffffff"
     bordercolor="#666666"
     borderopacity="1"
     objecttolerance="10"
     gridtolerance="10"
     guidetolerance="10"
     inkscape:pageopacity="0"
     inkscape:pageshadow="2"
     inkscape:window-width="1920"
     inkscape:window-height="1028"
     id="namedview232"
     showgrid="false"
     inkscape:zoom="1.2618314"
     inkscape:cx="137.62758"
     inkscape:cy="281.47236"
     inkscape:window-x="0"
     inkscape:window-y="0"
     inkscape:window-maximized="1"
     inkscape:current-layer="svg10237" />
  <metadata
     id="metadata10330">
    <rdf:RDF>
      <cc:Work
         rdf:about="">
        <dc:format>image/svg+xml</dc:format>
        <dc:type
           rdf:resource="http://purl.org/dc/dcmitype/StillImage" />
        <dc:title>The Cell Cycle</dc:title>
        <dc:contributor>
          <cc:Agent>
            <dc:title>https://commons.wikimedia.org/wiki/User:T4taylor https://commons.wikimedia.org/wiki/User:LadyofHats</dc:title>
          </cc:Agent>
        </dc:contributor>
        <dc:description>https://commons.wikimedia.org/wiki/File%3ACyclin_Expression.svg derivative work</dc:description>
        <cc:license
           rdf:resource="http://creativecommons.org/licenses/by-sa/3.0/" />
        <dc:creator>
          <cc:Agent>
            <dc:title>Jeremy Seto</dc:title>
          </cc:Agent>
        </dc:creator>
        <dc:rights>
          <cc:Agent>
            <dc:title>CC-BY-SA</dc:title>
          </cc:Agent>
        </dc:rights>
        <dc:subject>
          <rdf:Bag>
            <rdf:li>cell cycle</rdf:li>
            <rdf:li>cyclin</rdf:li>
            <rdf:li></rdf:li>
            <rdf:li>mitosis</rdf:li>
          </rdf:Bag>
        </dc:subject>
      </cc:Work>
      <cc:License
         rdf:about="http://creativecommons.org/licenses/by-sa/3.0/">
        <cc:permits
           rdf:resource="http://creativecommons.org/ns#Reproduction" />
        <cc:permits
           rdf:resource="http://creativecommons.org/ns#Distribution" />
        <cc:requires
           rdf:resource="http://creativecommons.org/ns#Notice" />
        <cc:requires
           rdf:resource="http://creativecommons.org/ns#Attribution" />
        <cc:permits
           rdf:resource="http://creativecommons.org/ns#DerivativeWorks" />
        <cc:requires
           rdf:resource="http://creativecommons.org/ns#ShareAlike" />
      </cc:License>
    </rdf:RDF>
  </metadata>
  <metadata
     id="metadata4"
     creator="http://www.clker.com/clipart-the-cell-cycle.html Public Domain" />
  <defs
     id="defs10328">
    <linearGradient
       gradientTransform="matrix(0.45384287,0,0,0.51901412,122.89726,184.73488)"
       y2="165.20171"
       x2="314.6582"
       y1="165.20171"
       x1="54.158199"
       gradientUnits="userSpaceOnUse"
       id="SVGID_1_">
      <stop
         id="stop6"
         style="stop-color:#F0F3F5"
         offset="0" />
      <stop
         id="stop8"
         style="stop-color:#FFFFFF"
         offset="1" />
    </linearGradient>
    <linearGradient
       gradientTransform="matrix(0.53349261,0,0,0.51901412,97.834835,184.73488)"
       y2="165.20171"
       x2="483.1582"
       y1="165.20171"
       x1="314.6582"
       gradientUnits="userSpaceOnUse"
       id="SVGID_2_">
      <stop
         id="stop13"
         style="stop-color:#F0F3F5"
         offset="0" />
      <stop
         id="stop15"
         style="stop-color:#FFFFFF"
         offset="1" />
    </linearGradient>
    <linearGradient
       gradientTransform="matrix(0.53349261,0,0,0.51901412,97.834835,184.73488)"
       y2="165.20171"
       x2="618.6582"
       y1="165.20171"
       x1="483.1582"
       gradientUnits="userSpaceOnUse"
       id="SVGID_3_">
      <stop
         id="stop20"
         style="stop-color:#F0F3F5"
         offset="0" />
      <stop
         id="stop22"
         style="stop-color:#FFFFFF"
         offset="1" />
    </linearGradient>
    <linearGradient
       gradientTransform="matrix(0.43201416,0,0,0.51901412,160.61529,184.73488)"
       y2="165.20171"
       x2="778.39648"
       y1="165.20171"
       x1="618.6582"
       gradientUnits="userSpaceOnUse"
       id="SVGID_4_">
      <stop
         id="stop27"
         style="stop-color:#F0F3F5"
         offset="0" />
      <stop
         id="stop29"
         style="stop-color:#FFFFFF"
         offset="1" />
    </linearGradient>
    <linearGradient
       id="linearGradient4418"
       gradientUnits="userSpaceOnUse"
       x1="54.158199"
       y1="165.20171"
       x2="314.6582"
       y2="165.20171">
      <stop
         offset="0"
         style="stop-color:#F0F3F5"
         id="stop4420" />
      <stop
         offset="1"
         style="stop-color:#FFFFFF"
         id="stop4422" />
    </linearGradient>
    <linearGradient
       id="linearGradient4425"
       gradientUnits="userSpaceOnUse"
       x1="314.6582"
       y1="165.20171"
       x2="483.1582"
       y2="165.20171">
      <stop
         offset="0"
         style="stop-color:#F0F3F5"
         id="stop4427" />
      <stop
         offset="1"
         style="stop-color:#FFFFFF"
         id="stop4429" />
    </linearGradient>
    <linearGradient
       id="linearGradient4432"
       gradientUnits="userSpaceOnUse"
       x1="483.1582"
       y1="165.20171"
       x2="618.6582"
       y2="165.20171">
      <stop
         offset="0"
         style="stop-color:#F0F3F5"
         id="stop4434" />
      <stop
         offset="1"
         style="stop-color:#FFFFFF"
         id="stop4436" />
    </linearGradient>
    <linearGradient
       id="linearGradient4439"
       gradientUnits="userSpaceOnUse"
       x1="618.6582"
       y1="165.20171"
       x2="778.39648"
       y2="165.20171">
      <stop
         offset="0"
         style="stop-color:#F0F3F5"
         id="stop4441" />
      <stop
         offset="1"
         style="stop-color:#FFFFFF"
         id="stop4443" />
    </linearGradient>
    <linearGradient
       inkscape:collect="always"
       xlink:href="#SVGID_1_"
       id="linearGradient5389"
       gradientUnits="userSpaceOnUse"
       gradientTransform="matrix(0.45384287,0,0,0.51901412,122.89726,184.73488)"
       x1="54.158199"
       y1="165.20171"
       x2="314.6582"
       y2="165.20171" />
    <linearGradient
       inkscape:collect="always"
       xlink:href="#SVGID_2_"
       id="linearGradient5391"
       gradientUnits="userSpaceOnUse"
       gradientTransform="matrix(0.53349261,0,0,0.51901412,97.834835,184.73488)"
       x1="314.6582"
       y1="165.20171"
       x2="483.1582"
       y2="165.20171" />
    <linearGradient
       inkscape:collect="always"
       xlink:href="#SVGID_3_"
       id="linearGradient5393"
       gradientUnits="userSpaceOnUse"
       gradientTransform="matrix(0.53349261,0,0,0.51901412,97.834835,184.73488)"
       x1="483.1582"
       y1="165.20171"
       x2="618.6582"
       y2="165.20171" />
    <linearGradient
       inkscape:collect="always"
       xlink:href="#SVGID_4_"
       id="linearGradient5395"
       gradientUnits="userSpaceOnUse"
       gradientTransform="matrix(0.43201416,0,0,0.51901412,160.61529,184.73488)"
       x1="618.6582"
       y1="165.20171"
       x2="778.39648"
       y2="165.20171" />
  </defs>
  <title
     id="title10239">The Cell Cycle</title>
  <rect
     id="svg_207"
     height="0"
     width="0.00094584515"
     y="171.23492"
     x="440.05673"
     style="fill:#ff7f00" />
  <rect
     style="opacity:1;fill:#ffffff;fill-opacity:1;stroke:none;stroke-width:2.58703971;stroke-miterlimit:10;stroke-dasharray:none;stroke-dashoffset:0;stroke-opacity:1"
     id="rect4983"
     width="544.60968"
     height="540.70001"
     x="-3.9013671e-06"
     y="0.29997969" />
  <g
     id="g4985"
     transform="matrix(0.96271725,0,0,0.96271725,-34.28642,-1.7877)">
    <rect
       style="fill:url(#linearGradient5389)"
       x="147.47649"
       y="196.51703"
       width="118.22607"
       height="147.91954"
       id="rect4987" />
    <rect
       style="fill:url(#linearGradient5391)"
       x="265.70255"
       y="196.51703"
       width="89.893501"
       height="147.91954"
       id="rect4989" />
    <rect
       style="fill:url(#linearGradient5393)"
       x="355.59604"
       y="196.51703"
       width="72.288246"
       height="147.91954"
       id="rect4991" />
    <rect
       style="fill:url(#linearGradient5395)"
       x="427.88431"
       y="196.51703"
       width="69.009079"
       height="147.91954"
       id="rect4993" />
    <g
       transform="matrix(0.53351802,0,0,0.51823644,97.822976,184.97797)"
       id="g4995">
      <g
         id="g4997">
        <line
           style="fill:none;stroke:#4d4d4d;stroke-linecap:round;stroke-linejoin:round"
           x1="314.65799"
           y1="22.701"
           x2="314.65799"
           y2="22.701"
           id="line4999" />
        <line
           style="fill:none;stroke:#4d4d4d;stroke-linecap:round;stroke-linejoin:round;stroke-dasharray:0, 1.993"
           x1="314.65799"
           y1="24.694"
           x2="314.65799"
           y2="306.70499"
           id="line5001" />
        <line
           style="fill:none;stroke:#4d4d4d;stroke-linecap:round;stroke-linejoin:round"
           x1="314.65799"
           y1="307.70099"
           x2="314.65799"
           y2="307.70099"
           id="line5003" />
      </g>
    </g>
    <g
       transform="matrix(0.53351802,0,0,0.51823644,97.822976,184.97797)"
       id="g5005">
      <g
         id="g5007">
        <line
           style="fill:none;stroke:#4d4d4d;stroke-linecap:round;stroke-linejoin:round"
           x1="483.15799"
           y1="22.701"
           x2="483.15799"
           y2="22.701"
           id="line5009" />
        <line
           style="fill:none;stroke:#4d4d4d;stroke-linecap:round;stroke-linejoin:round;stroke-dasharray:0, 1.993"
           x1="483.15799"
           y1="24.694"
           x2="483.15799"
           y2="306.70499"
           id="line5011" />
        <line
           style="fill:none;stroke:#4d4d4d;stroke-linecap:round;stroke-linejoin:round"
           x1="483.15799"
           y1="307.70099"
           x2="483.15799"
           y2="307.70099"
           id="line5013" />
      </g>
    </g>
    <g
       transform="matrix(0.53351802,0,0,0.51823644,97.822976,184.97797)"
       id="g5015">
      <g
         id="g5017">
        <line
           style="fill:none;stroke:#4d4d4d;stroke-linecap:round;stroke-linejoin:round"
           x1="618.65802"
           y1="22.701"
           x2="618.65802"
           y2="22.701"
           id="line5019" />
        <line
           style="fill:none;stroke:#4d4d4d;stroke-linecap:round;stroke-linejoin:round;stroke-dasharray:0, 1.993"
           x1="618.65802"
           y1="24.694"
           x2="618.65802"
           y2="306.70499"
           id="line5021" />
        <line
           style="fill:none;stroke:#4d4d4d;stroke-linecap:round;stroke-linejoin:round"
           x1="618.65802"
           y1="307.70099"
           x2="618.65802"
           y2="307.70099"
           id="line5023" />
      </g>
    </g>
    <path
       id="path5025"
       d="m 177.01573,344.5131 c 0,0 30.64953,-95.114 160.53166,-95.114 129.88213,0 151.12418,95.114 151.12418,95.114"
       stroke-miterlimit="10"
       style="fill:none;stroke:#c1272d;stroke-width:2.31110954;stroke-miterlimit:10;stroke-dasharray:none"
       inkscape:connector-curvature="0" />
    <path
       id="path5027"
       d="m 191.10321,344.43656 c 0,0 13.64781,0.22247 21.33971,-9.87014 18.97473,-24.8965 29.16444,-97.8068 56.55022,-97.8068 27.38577,0 27.65198,67.35344 39.83429,89.27091 10.6053,19.0809 20.98386,18.4055 20.98386,18.4055"
       stroke-miterlimit="10"
       style="fill:none;stroke:#64b500;stroke-width:2.5;stroke-miterlimit:10;stroke-dasharray:none"
       inkscape:connector-curvature="0" />
    <path
       id="path5029"
       d="m 217.422,344.43923 c 0,0 38.22955,-9.51537 81.95247,-50.3553 43.72292,-40.83939 56.045,-59.10245 80.94097,-59.10245 24.89596,0 37.34448,18.76187 50.85945,43.52447 13.51497,24.76259 19.91688,65.93008 19.91688,65.93008"
       stroke-miterlimit="10"
       style="fill:none;stroke:#2783c1;stroke-width:2.5;stroke-miterlimit:10;stroke-dasharray:none"
       inkscape:connector-curvature="0" />
    <path
       id="path5031"
       d="m 264.36935,344.43603 c 0,0 48.89514,-11.6136 91.22671,-40.10157 59.67968,-40.16293 62.14228,-67.57484 77.88032,-67.57484 15.73803,0 18.86109,24.3518 25.44012,48.72494 6.57904,24.37315 8.53589,58.95147 8.53589,58.95147"
       stroke-miterlimit="10"
       style="fill:none;stroke:#f07000;stroke-width:2.5;stroke-miterlimit:10;stroke-dasharray:none"
       inkscape:connector-curvature="0" />
    <g
       transform="matrix(1.5506577,0,0,1.5506577,-262.04087,-132.46447)"
       id="g5033">
      <g
         id="g5035"
         transform="matrix(0.53349261,0,0,0.53349261,97.834835,180.27982)">
        <g
           id="g5037">
          <path
             style="fill:#f07000"
             d="m 653.658,101.974 c 0,1.657 1.343,3 3,3 l 50.444,0 c 1.657,0 3,-1.343 3,-3 l 0,-13.127 c 0,-1.657 -1.343,-3 -3,-3 l -50.444,0 c -1.657,0 -3,1.343 -3,3 l 0,13.127 z"
             id="path5039"
             inkscape:connector-curvature="0" />
        </g>
        <g
           id="g5041">
          <path
             style="fill:#ffffff"
             d="m 665.984,98.6 c -0.41,0.198 -1.313,0.424 -2.471,0.424 -3.02,0 -4.855,-1.892 -4.855,-4.799 0,-3.134 2.188,-5.024 5.096,-5.024 1.143,0 1.947,0.239 2.301,0.423 l -0.367,1.384 c -0.451,-0.198 -1.087,-0.367 -1.863,-0.367 -1.934,0 -3.33,1.214 -3.33,3.5 0,2.104 1.213,3.43 3.316,3.43 0.691,0 1.426,-0.141 1.891,-0.339 l 0.282,1.368 z"
             id="path5043"
             inkscape:connector-curvature="0" />
          <path
             style="fill:#ffffff"
             d="m 668.114,91.994 1.228,3.685 c 0.141,0.423 0.297,0.945 0.396,1.326 l 0.042,0 c 0.1,-0.381 0.227,-0.903 0.367,-1.341 l 1.072,-3.67 1.85,0 -1.723,4.687 c -0.945,2.568 -1.58,3.712 -2.385,4.418 -0.691,0.593 -1.397,0.818 -1.82,0.875 l -0.396,-1.454 c 0.296,-0.07 0.649,-0.226 1.002,-0.479 0.339,-0.212 0.72,-0.621 0.96,-1.087 0.07,-0.127 0.099,-0.227 0.099,-0.311 0,-0.071 -0.015,-0.17 -0.085,-0.339 l -2.526,-6.31 1.919,0 z"
             id="path5045"
             inkscape:connector-curvature="0" />
          <path
             style="fill:#ffffff"
             d="m 678.939,98.656 c -0.367,0.17 -1.088,0.354 -1.948,0.354 -2.146,0 -3.542,-1.384 -3.542,-3.515 0,-2.061 1.41,-3.656 3.824,-3.656 0.635,0 1.285,0.142 1.68,0.311 l -0.311,1.313 c -0.282,-0.141 -0.691,-0.268 -1.313,-0.268 -1.326,0 -2.117,0.974 -2.104,2.229 0,1.412 0.918,2.217 2.104,2.217 0.593,0 1.03,-0.127 1.369,-0.269 l 0.241,1.284 z"
             id="path5047"
             inkscape:connector-curvature="0" />
          <path
             style="fill:#ffffff"
             d="m 680.223,88.847 1.735,0 0,10.021 -1.735,0 0,-10.021 z"
             id="path5049"
             inkscape:connector-curvature="0" />
          <path
             style="fill:#ffffff"
             d="m 685.698,90.075 c 0,0.508 -0.382,0.932 -0.988,0.932 -0.579,0 -0.96,-0.424 -0.96,-0.932 0,-0.537 0.396,-0.946 0.975,-0.946 0.591,0 0.959,0.409 0.973,0.946 z m -1.848,8.793 0,-6.874 1.735,0 0,6.874 -1.735,0 z"
             id="path5051"
             inkscape:connector-curvature="0" />
          <path
             style="fill:#ffffff"
             d="m 687.461,94.041 c 0,-0.79 -0.027,-1.454 -0.057,-2.047 l 1.511,0 0.085,1.03 0.042,0 c 0.311,-0.536 1.059,-1.186 2.202,-1.186 1.199,0 2.441,0.776 2.441,2.95 l 0,4.079 -1.736,0 0,-3.882 c 0,-0.987 -0.367,-1.735 -1.313,-1.735 -0.691,0 -1.171,0.494 -1.354,1.016 -0.057,0.142 -0.085,0.354 -0.085,0.551 l 0,4.051 -1.736,0 0,-4.827 z"
             id="path5053"
             inkscape:connector-curvature="0" />
          <path
             style="fill:#ffffff"
             d="m 698.525,89.496 c 0.551,-0.113 1.553,-0.212 2.54,-0.212 1.271,0 2.075,0.17 2.71,0.607 0.594,0.353 0.988,0.974 0.988,1.792 0,0.875 -0.551,1.666 -1.581,2.047 l 0,0.042 c 1.003,0.255 1.92,1.045 1.92,2.344 0,0.847 -0.367,1.51 -0.903,1.976 -0.678,0.579 -1.793,0.875 -3.543,0.875 -0.959,0 -1.68,-0.07 -2.131,-0.127 l 0,-9.344 z m 1.722,3.755 0.89,0 c 1.213,0 1.877,-0.564 1.877,-1.369 0,-0.903 -0.678,-1.313 -1.779,-1.313 -0.508,0 -0.804,0.027 -0.987,0.07 l 0,2.612 z m 0,4.361 c 0.226,0.042 0.522,0.042 0.917,0.042 1.115,0 2.117,-0.409 2.117,-1.581 0,-1.115 -0.974,-1.566 -2.174,-1.566 l -0.86,0 0,3.105 z"
             id="path5055"
             inkscape:connector-curvature="0" />
        </g>
      </g>
    </g>
    <g
       transform="matrix(1.5506577,0,0,1.5506577,-217.10914,-121.91927)"
       id="g5057">
      <g
         id="g5059"
         transform="matrix(0.53349261,0,0,0.53349261,97.834835,180.27982)">
        <g
           id="g5061">
          <path
             style="fill:#2783c1"
             d="m 509.235,86.974 c 0,1.657 1.343,3 3,3 l 51.517,0 c 1.657,0 3,-1.343 3,-3 l 0,-13.127 c 0,-1.657 -1.343,-3 -3,-3 l -51.517,0 c -1.657,0 -3,1.343 -3,3 l 0,13.127 z"
             id="path5063"
             inkscape:connector-curvature="0" />
        </g>
        <g
           id="g5065">
          <path
             style="fill:#ffffff"
             d="m 521.561,83.6 c -0.409,0.198 -1.313,0.424 -2.471,0.424 -3.02,0 -4.854,-1.892 -4.854,-4.799 0,-3.134 2.188,-5.024 5.095,-5.024 1.144,0 1.948,0.239 2.301,0.423 l -0.367,1.384 c -0.451,-0.198 -1.086,-0.367 -1.863,-0.367 -1.934,0 -3.33,1.214 -3.33,3.5 0,2.104 1.213,3.43 3.316,3.43 0.691,0 1.426,-0.141 1.892,-0.339 l 0.281,1.368 z"
             id="path5067"
             inkscape:connector-curvature="0" />
          <path
             style="fill:#ffffff"
             d="m 523.69,76.994 1.228,3.685 c 0.142,0.423 0.297,0.945 0.396,1.326 l 0.041,0 c 0.1,-0.381 0.227,-0.903 0.367,-1.341 l 1.073,-3.67 1.849,0 -1.722,4.687 c -0.946,2.568 -1.581,3.712 -2.386,4.418 -0.691,0.593 -1.396,0.818 -1.82,0.875 l -0.395,-1.454 c 0.296,-0.07 0.648,-0.226 1.002,-0.479 0.338,-0.212 0.719,-0.621 0.959,-1.087 0.07,-0.127 0.1,-0.227 0.1,-0.311 0,-0.071 -0.015,-0.17 -0.086,-0.339 l -2.525,-6.31 1.919,0 z"
             id="path5069"
             inkscape:connector-curvature="0" />
          <path
             style="fill:#ffffff"
             d="m 534.516,83.656 c -0.367,0.17 -1.087,0.354 -1.947,0.354 -2.146,0 -3.543,-1.384 -3.543,-3.515 0,-2.061 1.411,-3.656 3.824,-3.656 0.636,0 1.285,0.142 1.68,0.311 l -0.311,1.313 c -0.281,-0.141 -0.691,-0.268 -1.313,-0.268 -1.326,0 -2.117,0.974 -2.103,2.229 0,1.412 0.917,2.217 2.103,2.217 0.594,0 1.031,-0.127 1.369,-0.269 l 0.241,1.284 z"
             id="path5071"
             inkscape:connector-curvature="0" />
          <path
             style="fill:#ffffff"
             d="m 535.799,73.847 1.736,0 0,10.021 -1.736,0 0,-10.021 z"
             id="path5073"
             inkscape:connector-curvature="0" />
          <path
             style="fill:#ffffff"
             d="m 541.275,75.075 c 0,0.508 -0.382,0.932 -0.988,0.932 -0.579,0 -0.961,-0.424 -0.961,-0.932 0,-0.537 0.396,-0.946 0.975,-0.946 0.593,0 0.96,0.409 0.974,0.946 z m -1.849,8.793 0,-6.874 1.736,0 0,6.874 -1.736,0 z"
             id="path5075"
             inkscape:connector-curvature="0" />
          <path
             style="fill:#ffffff"
             d="m 543.038,79.041 c 0,-0.79 -0.028,-1.454 -0.057,-2.047 l 1.511,0 0.084,1.03 0.043,0 c 0.311,-0.536 1.059,-1.186 2.201,-1.186 1.2,0 2.441,0.776 2.441,2.95 l 0,4.079 -1.735,0 0,-3.882 c 0,-0.987 -0.367,-1.735 -1.313,-1.735 -0.692,0 -1.172,0.494 -1.354,1.016 -0.057,0.142 -0.086,0.354 -0.086,0.551 l 0,4.051 -1.735,0 0,-4.827 z"
             id="path5077"
             inkscape:connector-curvature="0" />
          <path
             style="fill:#ffffff"
             d="m 556.008,81.172 -0.819,2.696 -1.792,0 3.049,-9.513 2.215,0 3.092,9.513 -1.877,0 -0.861,-2.696 -3.007,0 z m 2.723,-1.313 -0.748,-2.343 c -0.184,-0.578 -0.339,-1.228 -0.479,-1.778 l -0.029,0 c -0.141,0.551 -0.296,1.214 -0.451,1.778 l -0.734,2.343 2.441,0 z"
             id="path5079"
             inkscape:connector-curvature="0" />
        </g>
      </g>
    </g>
    <g
       transform="matrix(1.5506577,0,0,1.5506577,-155.21338,-121.91927)"
       id="g5081">
      <g
         id="g5083"
         transform="matrix(0.53349261,0,0,0.53349261,97.834835,180.27982)">
        <g
           id="g5085">
          <path
             style="fill:#64b500"
             d="m 295.589,90.974 c 0,1.657 1.343,3 3,3 l 49.611,0 c 1.657,0 3,-1.343 3,-3 l 0,-13.127 c 0,-1.657 -1.343,-3 -3,-3 l -49.611,0 c -1.657,0 -3,1.343 -3,3 l 0,13.127 z"
             id="path5087"
             inkscape:connector-curvature="0" />
        </g>
        <g
           id="g5089">
          <path
             style="fill:#ffffff"
             d="m 307.915,87.6 c -0.409,0.198 -1.313,0.424 -2.47,0.424 -3.02,0 -4.855,-1.892 -4.855,-4.799 0,-3.134 2.188,-5.024 5.095,-5.024 1.143,0 1.948,0.239 2.301,0.423 l -0.367,1.384 c -0.452,-0.198 -1.087,-0.367 -1.863,-0.367 -1.934,0 -3.331,1.214 -3.331,3.5 0,2.104 1.213,3.43 3.317,3.43 0.691,0 1.425,-0.141 1.891,-0.339 l 0.282,1.368 z"
             id="path5091"
             inkscape:connector-curvature="0" />
          <path
             style="fill:#ffffff"
             d="m 310.045,80.994 1.228,3.685 c 0.141,0.423 0.296,0.945 0.396,1.326 l 0.042,0 c 0.099,-0.381 0.226,-0.903 0.367,-1.341 l 1.073,-3.67 1.849,0 -1.722,4.687 c -0.946,2.568 -1.581,3.712 -2.385,4.418 -0.692,0.593 -1.397,0.818 -1.821,0.875 l -0.395,-1.454 c 0.296,-0.07 0.649,-0.226 1.002,-0.479 0.339,-0.212 0.72,-0.621 0.96,-1.087 0.07,-0.127 0.099,-0.227 0.099,-0.311 0,-0.071 -0.014,-0.17 -0.085,-0.339 l -2.526,-6.31 1.918,0 z"
             id="path5093"
             inkscape:connector-curvature="0" />
          <path
             style="fill:#ffffff"
             d="m 320.87,87.656 c -0.367,0.17 -1.087,0.354 -1.948,0.354 -2.146,0 -3.542,-1.384 -3.542,-3.515 0,-2.061 1.411,-3.656 3.825,-3.656 0.635,0 1.285,0.142 1.68,0.311 l -0.311,1.313 c -0.282,-0.141 -0.691,-0.268 -1.313,-0.268 -1.327,0 -2.117,0.974 -2.103,2.229 0,1.412 0.917,2.217 2.103,2.217 0.593,0 1.03,-0.127 1.369,-0.269 l 0.24,1.284 z"
             id="path5095"
             inkscape:connector-curvature="0" />
          <path
             style="fill:#ffffff"
             d="m 322.153,77.847 1.736,0 0,10.021 -1.736,0 0,-10.021 z"
             id="path5097"
             inkscape:connector-curvature="0" />
          <path
             style="fill:#ffffff"
             d="m 327.629,79.075 c 0,0.508 -0.381,0.932 -0.988,0.932 -0.579,0 -0.96,-0.424 -0.96,-0.932 0,-0.537 0.396,-0.946 0.974,-0.946 0.593,0 0.96,0.409 0.974,0.946 z m -1.849,8.793 0,-6.874 1.736,0 0,6.874 -1.736,0 z"
             id="path5099"
             inkscape:connector-curvature="0" />
          <path
             style="fill:#ffffff"
             d="m 329.392,83.041 c 0,-0.79 -0.028,-1.454 -0.057,-2.047 l 1.51,0 0.085,1.03 0.042,0 c 0.311,-0.536 1.059,-1.186 2.202,-1.186 1.2,0 2.441,0.776 2.441,2.95 l 0,4.079 -1.736,0 0,-3.882 c 0,-0.987 -0.367,-1.735 -1.313,-1.735 -0.692,0 -1.171,0.494 -1.355,1.016 -0.057,0.142 -0.085,0.354 -0.085,0.551 l 0,4.051 -1.736,0 0,-4.827 z"
             id="path5101"
             inkscape:connector-curvature="0" />
          <path
             style="fill:#ffffff"
             d="m 345.777,83.648 -3.585,0 0,2.794 4.008,0 0,1.426 -5.745,0 0,-9.513 5.533,0 0,1.425 -3.797,0 0,2.456 3.585,0 0,1.412 z"
             id="path5103"
             inkscape:connector-curvature="0" />
        </g>
      </g>
    </g>
    <g
       transform="matrix(1.5506577,0,0,1.5506577,-98.360988,-138.4248)"
       id="g5105">
      <g
         id="g5107"
         transform="matrix(0.53349261,0,0,0.53349261,97.834835,180.27982)">
        <g
           id="g5109">
          <path
             style="fill:#c1272d"
             d="m 123.404,173.974 c 0,1.657 1.343,3 3,3 l 51.996,0 c 1.657,0 3,-1.343 3,-3 l 0,-13.127 c 0,-1.657 -1.343,-3 -3,-3 l -51.996,0 c -1.657,0 -3,1.343 -3,3 l 0,13.127 z"
             id="path5111"
             inkscape:connector-curvature="0" />
        </g>
        <g
           id="g5113">
          <path
             style="fill:#ffffff"
             d="m 135.729,170.6 c -0.409,0.198 -1.313,0.424 -2.47,0.424 -3.02,0 -4.855,-1.892 -4.855,-4.799 0,-3.134 2.188,-5.024 5.095,-5.024 1.143,0 1.948,0.239 2.301,0.423 l -0.367,1.384 c -0.452,-0.198 -1.087,-0.367 -1.863,-0.367 -1.934,0 -3.331,1.214 -3.331,3.5 0,2.104 1.213,3.43 3.317,3.43 0.691,0 1.425,-0.141 1.891,-0.339 l 0.282,1.368 z"
             id="path5115"
             inkscape:connector-curvature="0" />
          <path
             style="fill:#ffffff"
             d="m 137.859,163.994 1.228,3.685 c 0.141,0.423 0.296,0.945 0.396,1.326 l 0.042,0 c 0.099,-0.381 0.226,-0.903 0.367,-1.341 l 1.073,-3.67 1.849,0 -1.722,4.687 c -0.946,2.568 -1.581,3.712 -2.385,4.418 -0.692,0.593 -1.397,0.818 -1.821,0.875 l -0.395,-1.454 c 0.296,-0.07 0.649,-0.226 1.002,-0.479 0.339,-0.212 0.72,-0.621 0.96,-1.087 0.07,-0.127 0.099,-0.227 0.099,-0.311 0,-0.071 -0.014,-0.17 -0.085,-0.339 l -2.526,-6.31 1.918,0 z"
             id="path5117"
             inkscape:connector-curvature="0" />
          <path
             style="fill:#ffffff"
             d="m 148.684,170.656 c -0.367,0.17 -1.087,0.354 -1.948,0.354 -2.146,0 -3.542,-1.384 -3.542,-3.515 0,-2.061 1.411,-3.656 3.825,-3.656 0.635,0 1.285,0.142 1.68,0.311 l -0.311,1.313 c -0.282,-0.141 -0.691,-0.268 -1.313,-0.268 -1.327,0 -2.117,0.974 -2.103,2.229 0,1.412 0.917,2.217 2.103,2.217 0.593,0 1.03,-0.127 1.369,-0.269 l 0.24,1.284 z"
             id="path5119"
             inkscape:connector-curvature="0" />
          <path
             style="fill:#ffffff"
             d="m 149.967,160.847 1.736,0 0,10.021 -1.736,0 0,-10.021 z"
             id="path5121"
             inkscape:connector-curvature="0" />
          <path
             style="fill:#ffffff"
             d="m 155.443,162.075 c 0,0.508 -0.381,0.932 -0.988,0.932 -0.579,0 -0.96,-0.424 -0.96,-0.932 0,-0.537 0.396,-0.946 0.974,-0.946 0.593,0 0.96,0.409 0.974,0.946 z m -1.849,8.793 0,-6.874 1.736,0 0,6.874 -1.736,0 z"
             id="path5123"
             inkscape:connector-curvature="0" />
          <path
             style="fill:#ffffff"
             d="m 157.207,166.041 c 0,-0.79 -0.028,-1.454 -0.057,-2.047 l 1.51,0 0.085,1.03 0.042,0 c 0.311,-0.536 1.059,-1.186 2.202,-1.186 1.2,0 2.441,0.776 2.441,2.95 l 0,4.079 -1.736,0 0,-3.882 c 0,-0.987 -0.367,-1.735 -1.313,-1.735 -0.692,0 -1.171,0.494 -1.355,1.016 -0.057,0.142 -0.085,0.354 -0.085,0.551 l 0,4.051 -1.736,0 0,-4.827 z"
             id="path5125"
             inkscape:connector-curvature="0" />
          <path
             style="fill:#ffffff"
             d="m 168.27,161.482 c 0.776,-0.113 1.736,-0.198 2.767,-0.198 1.778,0 2.992,0.367 3.867,1.102 0.932,0.748 1.496,1.891 1.496,3.5 0,1.708 -0.579,2.964 -1.482,3.782 -0.946,0.861 -2.456,1.299 -4.305,1.299 -1.002,0 -1.765,-0.057 -2.343,-0.127 l 0,-9.358 z m 1.736,8.074 c 0.24,0.042 0.607,0.042 0.959,0.042 2.258,0.015 3.6,-1.242 3.6,-3.655 0.014,-2.089 -1.2,-3.303 -3.374,-3.303 -0.55,0 -0.932,0.042 -1.186,0.099 l 0,6.817 z"
             id="path5127"
             inkscape:connector-curvature="0" />
        </g>
      </g>
    </g>
    <g
       transform="matrix(0.99143618,0,0,0.99143618,107.71483,114.83955)"
       id="g5129">
      <path
         id="path5131"
         d="m 33.873,203.197 c 0.21,0.435 0.45,1.395 0.45,2.625 0,3.209 -2.01,5.159 -5.1,5.159 -3.33,0 -5.34,-2.325 -5.34,-5.415 0,-1.215 0.255,-2.07 0.45,-2.445 l 1.47,0.391 c -0.21,0.48 -0.391,1.154 -0.391,1.98 0,2.055 1.29,3.539 3.721,3.539 2.234,0 3.645,-1.289 3.645,-3.525 0,-0.734 -0.15,-1.514 -0.36,-2.01 l 1.455,-0.299 z"
         style="fill:#333333"
         inkscape:connector-curvature="0" />
      <path
         id="path5133"
         d="m 30.438,194.992 c 2.685,0 3.885,1.889 3.885,3.749 0,2.056 -1.41,3.66 -3.765,3.66 -2.4,0 -3.87,-1.575 -3.87,-3.78 0,-2.174 1.531,-3.629 3.75,-3.629 z m 0.076,5.504 c 1.409,0 2.475,-0.705 2.475,-1.814 0,-1.051 -1.02,-1.785 -2.505,-1.785 -1.14,0 -2.46,0.51 -2.46,1.77 -0.001,1.304 1.275,1.829 2.49,1.829 z"
         style="fill:#333333"
         inkscape:connector-curvature="0" />
      <path
         id="path5135"
         d="m 29.028,193.477 c -0.84,0 -1.545,0.029 -2.175,0.06 l 0,-1.604 1.095,-0.09 0,-0.045 c -0.569,-0.33 -1.26,-1.125 -1.26,-2.34 0,-1.275 0.825,-2.595 3.135,-2.595 l 4.335,0 0,1.845 -4.125,0 c -1.05,0 -1.845,0.39 -1.845,1.395 0,0.735 0.525,1.244 1.08,1.439 0.149,0.061 0.375,0.09 0.585,0.09 l 4.305,0 0,1.846 -5.13,0 z"
         style="fill:#333333"
         inkscape:connector-curvature="0" />
      <path
         id="path5137"
         d="m 33.934,179.526 c 0.18,0.39 0.375,1.155 0.375,2.07 0,2.28 -1.471,3.765 -3.735,3.765 -2.189,0 -3.885,-1.5 -3.885,-4.065 0,-0.675 0.15,-1.365 0.33,-1.785 l 1.395,0.33 c -0.149,0.3 -0.284,0.735 -0.284,1.395 0,1.41 1.034,2.25 2.369,2.235 1.5,0 2.355,-0.975 2.355,-2.235 0,-0.63 -0.136,-1.095 -0.285,-1.455 l 1.365,-0.255 z"
         style="fill:#333333"
         inkscape:connector-curvature="0" />
      <path
         id="path5139"
         d="m 31.023,176.992 c 1.32,-0.045 1.89,-1.065 1.89,-2.25 0,-0.855 -0.135,-1.455 -0.33,-2.025 l 1.26,-0.27 c 0.271,0.63 0.466,1.5 0.466,2.55 0,2.37 -1.455,3.765 -3.69,3.765 -2.024,0 -3.93,-1.23 -3.93,-3.57 0,-2.37 1.95,-3.15 3.555,-3.15 0.345,0 0.615,0.03 0.78,0.06 l 0,4.89 z m -1.29,-3.21 c -0.675,-0.015 -1.785,0.285 -1.785,1.515 0,1.14 1.035,1.62 1.785,1.695 l 0,-3.21 z"
         style="fill:#333333"
         inkscape:connector-curvature="0" />
      <path
         id="path5141"
         d="m 29.028,170.557 c -0.84,0 -1.545,0.03 -2.175,0.06 l 0,-1.604 1.095,-0.09 0,-0.045 c -0.569,-0.33 -1.26,-1.125 -1.26,-2.34 0,-1.275 0.825,-2.595 3.135,-2.595 l 4.335,0 0,1.845 -4.125,0 c -1.05,0 -1.845,0.39 -1.845,1.395 0,0.735 0.525,1.245 1.08,1.44 0.149,0.06 0.375,0.09 0.585,0.09 l 4.305,0 0,1.845 -5.13,0 z"
         style="fill:#333333"
         inkscape:connector-curvature="0" />
      <path
         id="path5143"
         d="m 24.979,159.937 1.875,0 0,-1.755 1.38,0 0,1.755 3.225,0 c 0.9,0 1.351,-0.24 1.351,-0.945 0,-0.33 -0.016,-0.51 -0.075,-0.72 l 1.395,-0.03 c 0.105,0.27 0.195,0.765 0.195,1.335 0,0.69 -0.225,1.245 -0.6,1.59 -0.42,0.405 -1.096,0.585 -2.056,0.585 l -3.435,0 0,1.035 -1.38,0 0,-1.035 -1.365,0 -0.51,-1.815 z"
         style="fill:#333333"
         inkscape:connector-curvature="0" />
      <path
         id="path5145"
         d="m 29.208,156.787 c -0.989,0 -1.71,0.015 -2.354,0.06 l 0,-1.59 1.38,-0.075 0,-0.045 c -1.02,-0.36 -1.545,-1.215 -1.545,-2.01 0,-0.18 0.015,-0.285 0.045,-0.435 l 1.725,0 c -0.029,0.165 -0.045,0.33 -0.045,0.555 0,0.87 0.556,1.485 1.396,1.65 0.165,0.03 0.359,0.045 0.555,0.045 l 3.795,0 0,1.845 -4.952,0 z"
         style="fill:#333333"
         inkscape:connector-curvature="0" />
      <path
         id="path5147"
         d="m 32.403,145.912 c 0.66,0 1.305,-0.03 1.755,-0.12 l 0,1.665 -0.81,0.135 0,0.045 c 0.569,0.435 0.975,1.2 0.975,2.16 0,1.47 -1.065,2.295 -2.175,2.295 -1.83,0 -2.775,-1.635 -2.76,-4.335 l -0.12,0 c -0.48,0 -1.275,0.195 -1.275,1.485 0,0.72 0.226,1.47 0.54,1.965 l -1.2,0.36 c -0.329,-0.54 -0.645,-1.485 -0.645,-2.64 0,-2.34 1.485,-3.015 3.09,-3.015 l 2.625,0 z m -1.815,1.8 c -0.015,1.305 0.256,2.55 1.365,2.55 0.72,0 1.05,-0.465 1.05,-1.05 0,-0.75 -0.479,-1.275 -1.005,-1.455 -0.135,-0.045 -0.27,-0.045 -0.404,-0.045 l -1.006,0 z"
         style="fill:#333333"
         inkscape:connector-curvature="0" />
      <path
         id="path5149"
         d="m 24.979,141.937 1.875,0 0,-1.755 1.38,0 0,1.755 3.225,0 c 0.9,0 1.351,-0.24 1.351,-0.945 0,-0.33 -0.016,-0.51 -0.075,-0.72 l 1.395,-0.03 c 0.105,0.27 0.195,0.765 0.195,1.335 0,0.69 -0.225,1.245 -0.6,1.59 -0.42,0.405 -1.096,0.585 -2.056,0.585 l -3.435,0 0,1.035 -1.38,0 0,-1.035 -1.365,0 -0.51,-1.815 z"
         style="fill:#333333"
         inkscape:connector-curvature="0" />
      <path
         id="path5151"
         d="m 24.813,136.822 c 0.54,0 0.99,0.405 0.99,1.05 0,0.615 -0.45,1.02 -0.99,1.02 -0.57,0 -1.005,-0.42 -1.005,-1.035 0.001,-0.63 0.435,-1.02 1.005,-1.035 z m 9.345,1.965 -7.305,0 0,-1.845 7.305,0 0,1.845 z"
         style="fill:#333333"
         inkscape:connector-curvature="0" />
      <path
         id="path5153"
         d="m 30.438,128.002 c 2.685,0 3.885,1.89 3.885,3.75 0,2.055 -1.41,3.66 -3.765,3.66 -2.4,0 -3.87,-1.575 -3.87,-3.78 0,-2.175 1.531,-3.63 3.75,-3.63 z m 0.076,5.505 c 1.409,0 2.475,-0.705 2.475,-1.815 0,-1.05 -1.02,-1.785 -2.505,-1.785 -1.14,0 -2.46,0.51 -2.46,1.77 -0.001,1.304 1.275,1.83 2.49,1.83 z"
         style="fill:#333333"
         inkscape:connector-curvature="0" />
      <path
         id="path5155"
         d="m 29.028,126.487 c -0.84,0 -1.545,0.03 -2.175,0.06 l 0,-1.604 1.095,-0.09 0,-0.045 c -0.569,-0.33 -1.26,-1.125 -1.26,-2.34 0,-1.275 0.825,-2.595 3.135,-2.595 l 4.335,0 0,1.845 -4.125,0 c -1.05,0 -1.845,0.39 -1.845,1.395 0,0.735 0.525,1.245 1.08,1.44 0.149,0.06 0.375,0.09 0.585,0.09 l 4.305,0 0,1.845 -5.13,0 z"
         style="fill:#333333"
         inkscape:connector-curvature="0" />
    </g>
    <g
       transform="matrix(1.0357608,0,0,1.0357608,103.94427,20.606767)"
       id="g5157">
      <path
         id="path5159"
         d="m 73.323,328.089 c -0.645,0.24 -1.905,0.57 -3.24,0.57 -1.71,0 -3.015,-0.436 -3.975,-1.351 -0.9,-0.854 -1.41,-2.189 -1.41,-3.72 0.015,-3.21 2.28,-5.25 5.625,-5.25 1.245,0 2.22,0.255 2.685,0.48 l -0.405,1.484 c -0.555,-0.255 -1.23,-0.435 -2.295,-0.435 -2.16,0 -3.675,1.274 -3.675,3.63 0,2.295 1.41,3.66 3.51,3.66 0.675,0 1.155,-0.091 1.395,-0.195 l 0,-2.535 -1.785,0 0,-1.455 3.57,0 0,5.117 z"
         style="fill:#333333"
         inkscape:connector-curvature="0" />
      <path
         id="path5161"
         d="m 76.211,328.836 -0.018,0 -1.041,0.524 -0.184,-0.813 1.39,-0.683 0.892,0 0,5.684 -1.041,0 0,-4.712 z"
         style="fill:#333333"
         inkscape:connector-curvature="0" />
      <path
         id="path5163"
         d="m 83.005,318.579 c 0.675,-0.12 1.59,-0.21 2.82,-0.21 1.35,0 2.325,0.285 2.97,0.825 0.6,0.495 0.99,1.29 0.99,2.234 0,0.96 -0.3,1.74 -0.855,2.28 -0.75,0.735 -1.89,1.095 -3.195,1.095 -0.345,0 -0.645,-0.015 -0.9,-0.075 l 0,3.825 -1.83,0 0,-9.974 z m 1.83,4.694 c 0.24,0.075 0.525,0.091 0.9,0.091 1.38,0 2.22,-0.69 2.22,-1.86 0,-1.125 -0.78,-1.71 -2.055,-1.71 -0.51,0 -0.87,0.045 -1.065,0.09 l 0,3.389 z"
         style="fill:#333333"
         inkscape:connector-curvature="0" />
      <path
         id="path5165"
         d="m 91.27,317.904 1.845,0 0,4.335 0.03,0 c 0.225,-0.346 0.54,-0.63 0.915,-0.825 0.375,-0.21 0.81,-0.33 1.275,-0.33 1.245,0 2.55,0.825 2.55,3.165 l 0,4.305 -1.845,0 0,-4.109 c 0,-1.051 -0.39,-1.86 -1.41,-1.86 -0.72,0 -1.229,0.479 -1.44,1.035 -0.06,0.165 -0.075,0.359 -0.075,0.555 l 0,4.38 -1.845,0 0,-10.651 z"
         style="fill:#333333"
         inkscape:connector-curvature="0" />
      <path
         id="path5167"
         d="m 105.52,326.799 c 0,0.66 0.03,1.305 0.12,1.755 l -1.665,0 -0.135,-0.81 -0.045,0 c -0.435,0.569 -1.2,0.975 -2.16,0.975 -1.47,0 -2.295,-1.065 -2.295,-2.175 0,-1.83 1.635,-2.775 4.335,-2.76 l 0,-0.12 c 0,-0.48 -0.195,-1.275 -1.485,-1.275 -0.72,0 -1.47,0.226 -1.965,0.54 l -0.36,-1.2 c 0.54,-0.329 1.485,-0.645 2.64,-0.645 2.34,0 3.015,1.485 3.015,3.09 l 0,2.625 z m -1.8,-1.816 c -1.305,-0.015 -2.55,0.256 -2.55,1.365 0,0.72 0.465,1.05 1.05,1.05 0.75,0 1.275,-0.479 1.455,-1.005 0.045,-0.135 0.045,-0.27 0.045,-0.404 l 0,-1.006 z"
         style="fill:#333333"
         inkscape:connector-curvature="0" />
      <path
         id="path5169"
         d="m 107.395,326.844 c 0.405,0.255 1.2,0.54 1.86,0.54 0.81,0 1.17,-0.345 1.17,-0.825 0,-0.495 -0.3,-0.734 -1.2,-1.064 -1.425,-0.48 -2.01,-1.26 -2.01,-2.13 0,-1.29 1.065,-2.28 2.76,-2.28 0.81,0 1.515,0.195 1.95,0.435 l -0.375,1.29 c -0.3,-0.18 -0.9,-0.42 -1.545,-0.42 -0.66,0 -1.02,0.33 -1.02,0.78 0,0.465 0.345,0.675 1.275,1.02 1.335,0.466 1.935,1.141 1.95,2.221 0,1.335 -1.035,2.295 -2.97,2.295 -0.885,0 -1.68,-0.21 -2.22,-0.511 l 0.375,-1.351 z"
         style="fill:#333333"
         inkscape:connector-curvature="0" />
      <path
         id="path5171"
         d="m 115.03,325.419 c 0.045,1.32 1.065,1.89 2.25,1.89 0.855,0 1.455,-0.135 2.025,-0.33 l 0.27,1.26 c -0.63,0.271 -1.5,0.466 -2.55,0.466 -2.37,0 -3.765,-1.455 -3.765,-3.69 0,-2.024 1.23,-3.93 3.57,-3.93 2.37,0 3.15,1.95 3.15,3.555 0,0.345 -0.03,0.615 -0.06,0.78 l -4.89,0 z m 3.21,-1.29 c 0.015,-0.675 -0.285,-1.785 -1.515,-1.785 -1.14,0 -1.62,1.035 -1.695,1.785 l 3.21,0 z"
         style="fill:#333333"
         inkscape:connector-curvature="0" />
    </g>
    <g
       transform="matrix(1.0357608,0,0,1.0357608,-51.18813,20.606767)"
       id="g5173">
      <path
         id="path5175"
         d="m 327.86,326.544 c 0.585,0.345 1.5,0.645 2.445,0.645 1.17,0 1.83,-0.555 1.83,-1.38 0,-0.765 -0.51,-1.215 -1.785,-1.68 -1.68,-0.6 -2.745,-1.485 -2.745,-2.939 0,-1.665 1.38,-2.91 3.585,-2.91 1.095,0 1.89,0.24 2.415,0.51 l -0.435,1.485 c -0.375,-0.195 -1.08,-0.48 -2.025,-0.48 -1.17,0 -1.665,0.615 -1.665,1.215 0,0.78 0.585,1.141 1.935,1.665 1.755,0.66 2.595,1.545 2.595,3 0,1.635 -1.23,3.045 -3.825,3.045 -1.08,0 -2.19,-0.3 -2.745,-0.645 l 0.42,-1.531 z"
         style="fill:#333333"
         inkscape:connector-curvature="0" />
      <path
         id="path5177"
         d="m 338.78,318.579 c 0.675,-0.12 1.59,-0.21 2.82,-0.21 1.35,0 2.325,0.285 2.97,0.825 0.6,0.495 0.99,1.29 0.99,2.234 0,0.96 -0.3,1.74 -0.855,2.28 -0.75,0.735 -1.89,1.095 -3.195,1.095 -0.345,0 -0.645,-0.015 -0.9,-0.075 l 0,3.825 -1.83,0 0,-9.974 z m 1.83,4.694 c 0.24,0.075 0.525,0.091 0.9,0.091 1.38,0 2.22,-0.69 2.22,-1.86 0,-1.125 -0.78,-1.71 -2.055,-1.71 -0.51,0 -0.87,0.045 -1.065,0.09 l 0,3.389 z"
         style="fill:#333333"
         inkscape:connector-curvature="0" />
      <path
         id="path5179"
         d="m 347.044,317.904 1.845,0 0,4.335 0.03,0 c 0.225,-0.346 0.54,-0.63 0.915,-0.825 0.375,-0.21 0.81,-0.33 1.275,-0.33 1.245,0 2.55,0.825 2.55,3.165 l 0,4.305 -1.845,0 0,-4.109 c 0,-1.051 -0.39,-1.86 -1.41,-1.86 -0.72,0 -1.229,0.479 -1.44,1.035 -0.06,0.165 -0.075,0.359 -0.075,0.555 l 0,4.38 -1.845,0 0,-10.651 z"
         style="fill:#333333"
         inkscape:connector-curvature="0" />
      <path
         id="path5181"
         d="m 361.294,326.799 c 0,0.66 0.03,1.305 0.12,1.755 l -1.665,0 -0.135,-0.81 -0.045,0 c -0.435,0.569 -1.2,0.975 -2.16,0.975 -1.47,0 -2.295,-1.065 -2.295,-2.175 0,-1.83 1.635,-2.775 4.335,-2.76 l 0,-0.12 c 0,-0.48 -0.195,-1.275 -1.485,-1.275 -0.72,0 -1.47,0.226 -1.965,0.54 l -0.36,-1.2 c 0.54,-0.329 1.485,-0.645 2.64,-0.645 2.34,0 3.015,1.485 3.015,3.09 l 0,2.625 z m -1.799,-1.816 c -1.305,-0.015 -2.55,0.256 -2.55,1.365 0,0.72 0.465,1.05 1.05,1.05 0.75,0 1.275,-0.479 1.455,-1.005 0.045,-0.135 0.045,-0.27 0.045,-0.404 l 0,-1.006 z"
         style="fill:#333333"
         inkscape:connector-curvature="0" />
      <path
         id="path5183"
         d="m 363.17,326.844 c 0.405,0.255 1.2,0.54 1.86,0.54 0.81,0 1.17,-0.345 1.17,-0.825 0,-0.495 -0.3,-0.734 -1.2,-1.064 -1.425,-0.48 -2.01,-1.26 -2.01,-2.13 0,-1.29 1.065,-2.28 2.76,-2.28 0.81,0 1.515,0.195 1.95,0.435 l -0.375,1.29 c -0.3,-0.18 -0.9,-0.42 -1.545,-0.42 -0.66,0 -1.02,0.33 -1.02,0.78 0,0.465 0.345,0.675 1.275,1.02 1.335,0.466 1.935,1.141 1.95,2.221 0,1.335 -1.035,2.295 -2.97,2.295 -0.885,0 -1.68,-0.21 -2.22,-0.511 l 0.375,-1.351 z"
         style="fill:#333333"
         inkscape:connector-curvature="0" />
      <path
         id="path5185"
         d="m 370.805,325.419 c 0.045,1.32 1.065,1.89 2.25,1.89 0.855,0 1.455,-0.135 2.025,-0.33 l 0.27,1.26 c -0.63,0.271 -1.5,0.466 -2.55,0.466 -2.37,0 -3.765,-1.455 -3.765,-3.69 0,-2.024 1.23,-3.93 3.57,-3.93 2.37,0 3.15,1.95 3.15,3.555 0,0.345 -0.03,0.615 -0.06,0.78 l -4.89,0 z m 3.21,-1.29 c 0.015,-0.675 -0.285,-1.785 -1.515,-1.785 -1.14,0 -1.62,1.035 -1.695,1.785 l 3.21,0 z"
         style="fill:#333333"
         inkscape:connector-curvature="0" />
    </g>
    <g
       transform="matrix(1.0357608,0,0,1.0357608,-148.50351,20.606767)"
       id="g5187">
      <path
         id="path5189"
         d="m 501.99,328.089 c -0.646,0.24 -1.905,0.57 -3.24,0.57 -1.71,0 -3.016,-0.436 -3.975,-1.351 -0.9,-0.854 -1.41,-2.189 -1.41,-3.72 0.016,-3.21 2.279,-5.25 5.625,-5.25 1.244,0 2.22,0.255 2.685,0.48 l -0.405,1.484 c -0.555,-0.255 -1.229,-0.435 -2.295,-0.435 -2.16,0 -3.674,1.274 -3.674,3.63 0,2.295 1.409,3.66 3.51,3.66 0.674,0 1.154,-0.091 1.395,-0.195 l 0,-2.535 -1.785,0 0,-1.455 3.57,0 0,5.117 z"
         style="fill:#333333"
         inkscape:connector-curvature="0" />
      <path
         id="path5191"
         d="m 503.191,333.549 0,-0.655 0.673,-0.621 c 1.337,-1.241 1.968,-1.924 1.976,-2.676 0,-0.507 -0.271,-0.953 -1.014,-0.953 -0.508,0 -0.928,0.254 -1.216,0.473 l -0.314,-0.761 c 0.411,-0.332 1.032,-0.586 1.749,-0.586 1.259,0 1.871,0.796 1.871,1.723 0,0.996 -0.717,1.801 -1.715,2.719 l -0.488,0.429 0,0.018 2.325,0 0,0.892 -3.847,0 z"
         style="fill:#333333"
         inkscape:connector-curvature="0" />
      <path
         id="path5193"
         d="m 511.672,318.579 c 0.675,-0.12 1.59,-0.21 2.82,-0.21 1.35,0 2.324,0.285 2.969,0.825 0.601,0.495 0.99,1.29 0.99,2.234 0,0.96 -0.299,1.74 -0.854,2.28 -0.75,0.735 -1.89,1.095 -3.194,1.095 -0.346,0 -0.646,-0.015 -0.9,-0.075 l 0,3.825 -1.83,0 0,-9.974 z m 1.83,4.694 c 0.24,0.075 0.525,0.091 0.9,0.091 1.379,0 2.219,-0.69 2.219,-1.86 0,-1.125 -0.779,-1.71 -2.055,-1.71 -0.51,0 -0.869,0.045 -1.064,0.09 l 0,3.389 z"
         style="fill:#333333"
         inkscape:connector-curvature="0" />
      <path
         id="path5195"
         d="m 519.938,317.904 1.845,0 0,4.335 0.03,0 c 0.225,-0.346 0.539,-0.63 0.914,-0.825 0.375,-0.21 0.811,-0.33 1.275,-0.33 1.245,0 2.55,0.825 2.55,3.165 l 0,4.305 -1.845,0 0,-4.109 c 0,-1.051 -0.391,-1.86 -1.41,-1.86 -0.72,0 -1.229,0.479 -1.439,1.035 -0.061,0.165 -0.075,0.359 -0.075,0.555 l 0,4.38 -1.845,0 0,-10.651 z"
         style="fill:#333333"
         inkscape:connector-curvature="0" />
      <path
         id="path5197"
         d="m 534.187,326.799 c 0,0.66 0.03,1.305 0.12,1.755 l -1.665,0 -0.135,-0.81 -0.046,0 c -0.434,0.569 -1.199,0.975 -2.159,0.975 -1.47,0 -2.295,-1.065 -2.295,-2.175 0,-1.83 1.635,-2.775 4.335,-2.76 l 0,-0.12 c 0,-0.48 -0.195,-1.275 -1.484,-1.275 -0.721,0 -1.471,0.226 -1.966,0.54 l -0.36,-1.2 c 0.541,-0.329 1.485,-0.645 2.641,-0.645 2.34,0 3.015,1.485 3.015,3.09 l 0,2.625 z m -1.8,-1.816 c -1.305,-0.015 -2.55,0.256 -2.55,1.365 0,0.72 0.465,1.05 1.05,1.05 0.75,0 1.275,-0.479 1.455,-1.005 0.045,-0.135 0.045,-0.27 0.045,-0.404 l 0,-1.006 z"
         style="fill:#333333"
         inkscape:connector-curvature="0" />
      <path
         id="path5199"
         d="m 536.063,326.844 c 0.404,0.255 1.199,0.54 1.859,0.54 0.811,0 1.17,-0.345 1.17,-0.825 0,-0.495 -0.3,-0.734 -1.199,-1.064 -1.426,-0.48 -2.011,-1.26 -2.011,-2.13 0,-1.29 1.065,-2.28 2.76,-2.28 0.81,0 1.515,0.195 1.95,0.435 l -0.375,1.29 c -0.3,-0.18 -0.9,-0.42 -1.545,-0.42 -0.66,0 -1.02,0.33 -1.02,0.78 0,0.465 0.345,0.675 1.274,1.02 1.335,0.466 1.935,1.141 1.95,2.221 0,1.335 -1.035,2.295 -2.971,2.295 -0.885,0 -1.68,-0.21 -2.219,-0.511 l 0.377,-1.351 z"
         style="fill:#333333"
         inkscape:connector-curvature="0" />
      <path
         id="path5201"
         d="m 543.697,325.419 c 0.045,1.32 1.064,1.89 2.25,1.89 0.854,0 1.454,-0.135 2.024,-0.33 l 0.271,1.26 c -0.631,0.271 -1.5,0.466 -2.551,0.466 -2.369,0 -3.765,-1.455 -3.765,-3.69 0,-2.024 1.229,-3.93 3.569,-3.93 2.371,0 3.15,1.95 3.15,3.555 0,0.345 -0.029,0.615 -0.061,0.78 l -4.887,0 z m 3.209,-1.29 c 0.016,-0.675 -0.285,-1.785 -1.515,-1.785 -1.14,0 -1.62,1.035 -1.694,1.785 l 3.209,0 z"
         style="fill:#333333"
         inkscape:connector-curvature="0" />
    </g>
    <g
       transform="matrix(1.0357608,0,0,1.0357608,-212.50351,20.606767)"
       id="g5203">
      <path
         id="path5205"
         d="m 637.426,324.429 c -0.061,-1.305 -0.135,-2.88 -0.12,-4.245 l -0.045,0 c -0.33,1.23 -0.75,2.596 -1.2,3.87 l -1.484,4.38 -1.41,0 -1.35,-4.319 c -0.391,-1.29 -0.75,-2.67 -1.021,-3.931 l -0.03,0 c -0.045,1.32 -0.104,2.926 -0.18,4.306 l -0.225,4.064 -1.725,0 0.674,-10.109 2.431,0 1.319,4.064 c 0.36,1.186 0.676,2.385 0.93,3.51 l 0.046,0 c 0.27,-1.095 0.614,-2.34 1.005,-3.524 l 1.395,-4.05 2.4,0 0.585,10.109 -1.8,0 -0.195,-4.125 z"
         style="fill:#333333"
         inkscape:connector-curvature="0" />
      <path
         id="path5207"
         d="m 643.32,319.209 c 0,0.54 -0.404,0.99 -1.05,0.99 -0.614,0 -1.021,-0.45 -1.021,-0.99 0,-0.57 0.421,-1.005 1.035,-1.005 0.632,0 1.022,0.435 1.036,1.005 z m -1.965,9.345 0,-7.305 1.846,0 0,7.305 -1.846,0 z"
         style="fill:#333333"
         inkscape:connector-curvature="0" />
      <path
         id="path5209"
         d="m 647.311,319.374 0,1.875 1.756,0 0,1.38 -1.756,0 0,3.225 c 0,0.9 0.24,1.351 0.945,1.351 0.33,0 0.51,-0.016 0.721,-0.075 l 0.029,1.395 c -0.27,0.105 -0.766,0.195 -1.335,0.195 -0.69,0 -1.245,-0.225 -1.59,-0.6 -0.405,-0.42 -0.585,-1.096 -0.585,-2.056 l 0,-3.435 -1.035,0 0,-1.38 1.035,0 0,-1.365 1.815,-0.51 z"
         style="fill:#333333"
         inkscape:connector-curvature="0" />
      <path
         id="path5211"
         d="m 657.315,324.834 c 0,2.685 -1.89,3.885 -3.749,3.885 -2.056,0 -3.66,-1.41 -3.66,-3.765 0,-2.4 1.574,-3.87 3.779,-3.87 2.175,0 3.63,1.53 3.63,3.75 z m -5.504,0.075 c 0,1.409 0.705,2.475 1.814,2.475 1.051,0 1.785,-1.02 1.785,-2.505 0,-1.14 -0.51,-2.46 -1.77,-2.46 -1.304,0 -1.829,1.275 -1.829,2.49 z"
         style="fill:#333333"
         inkscape:connector-curvature="0" />
      <path
         id="path5213"
         d="m 658.756,326.844 c 0.404,0.255 1.199,0.54 1.859,0.54 0.811,0 1.17,-0.345 1.17,-0.825 0,-0.495 -0.299,-0.734 -1.199,-1.064 -1.426,-0.48 -2.01,-1.26 -2.01,-2.13 0,-1.29 1.064,-2.28 2.76,-2.28 0.81,0 1.515,0.195 1.949,0.435 l -0.375,1.29 c -0.299,-0.18 -0.899,-0.42 -1.545,-0.42 -0.66,0 -1.02,0.33 -1.02,0.78 0,0.465 0.346,0.675 1.275,1.02 1.334,0.466 1.935,1.141 1.949,2.221 0,1.335 -1.035,2.295 -2.97,2.295 -0.885,0 -1.68,-0.21 -2.22,-0.511 l 0.377,-1.351 z"
         style="fill:#333333"
         inkscape:connector-curvature="0" />
      <path
         id="path5215"
         d="m 667.051,319.209 c 0,0.54 -0.405,0.99 -1.051,0.99 -0.614,0 -1.02,-0.45 -1.02,-0.99 0,-0.57 0.42,-1.005 1.035,-1.005 0.631,0 1.02,0.435 1.036,1.005 z m -1.965,9.345 0,-7.305 1.845,0 0,7.305 -1.845,0 z"
         style="fill:#333333"
         inkscape:connector-curvature="0" />
      <path
         id="path5217"
         d="m 668.851,326.844 c 0.405,0.255 1.2,0.54 1.86,0.54 0.81,0 1.17,-0.345 1.17,-0.825 0,-0.495 -0.301,-0.734 -1.2,-1.064 -1.425,-0.48 -2.011,-1.26 -2.011,-2.13 0,-1.29 1.065,-2.28 2.76,-2.28 0.811,0 1.516,0.195 1.951,0.435 l -0.375,1.29 c -0.301,-0.18 -0.9,-0.42 -1.545,-0.42 -0.66,0 -1.021,0.33 -1.021,0.78 0,0.465 0.345,0.675 1.274,1.02 1.336,0.466 1.936,1.141 1.951,2.221 0,1.335 -1.035,2.295 -2.971,2.295 -0.885,0 -1.68,-0.21 -2.22,-0.511 l 0.377,-1.351 z"
         style="fill:#333333"
         inkscape:connector-curvature="0" />
    </g>
    <polyline
       transform="matrix(0.4892002,0,0,0.53353332,120.31737,180.27294)"
       id="polyline5219"
       points="771.221,307.702 54.158,307.702 54.158,29.877     "
       stroke-miterlimit="10"
       style="fill:none;stroke:#4d4d4d;stroke-width:2.93607521;stroke-miterlimit:10;stroke-dasharray:none" />
    <g
       transform="matrix(0.53349261,0,0,0.53349261,85.834835,180.27982)"
       id="g5221">
      <polygon
         id="polygon5223"
         points="769.762,302.744 778.396,307.729 769.762,312.716 "
         style="fill:#4d4d4d" />
    </g>
    <g
       transform="matrix(0.53349261,0,0,0.53349261,117.83483,180.27982)"
       id="g5225">
      <polygon
         id="polygon5227"
         points="54.131,22.701 49.145,31.336 59.116,31.336 "
         style="fill:#4d4d4d" />
    </g>
  </g>
  <text
     style="font-size:41.63265228px;font-family:Arial;text-anchor:middle;fill:#000000;stroke:#000000;stroke-width:0;stroke-dasharray:none"
     stroke-linejoin="null"
     stroke-linecap="null"
     x="252.65082"
     y="407.84482"
     id="text5387"
     font-size="39"
     xml:space="preserve"
     transform="scale(1.0189553,0.98139731)">The Cell Cycle</text>
  <path
     style="opacity:1;fill:#000000;fill-opacity:1;stroke:#000000;stroke-width:5.19593287;stroke-miterlimit:4;stroke-dasharray:none;stroke-dashoffset:0;stroke-opacity:1"
     d="M 273.01345,9.1702 A 262.78125,262.78125 0 0 0 10.23216,271.9515 262.78125,262.78125 0 0 0 273.01345,534.7327 262.78125,262.78125 0 0 0 535.79465,271.9515 262.78125,262.78125 0 0 0 273.01345,9.1702 Z m 0,60.4844 A 202.29765,202.29765 0 0 1 475.31025,271.9515 202.29765,202.29765 0 0 1 273.01345,474.2503 202.29765,202.29765 0 0 1 70.71455,271.9515 202.29765,202.29765 0 0 1 273.01345,69.6546 Z"
     id="path5466"
     inkscape:connector-curvature="0" />
  <path
     inkscape:connector-curvature="0"
     style="opacity:1;fill:#bf0000;fill-opacity:1;stroke:none;stroke-width:5.19593287;stroke-miterlimit:4;stroke-dasharray:none;stroke-dashoffset:0;stroke-opacity:1"
     d="M 280.29615,9.2718 A 262.78125,262.78125 0 0 0 10.33238,264.6687 262.78125,262.78125 0 0 0 265.72915,534.6324 262.78125,262.78125 0 0 0 535.69295,279.2357 262.78125,262.78125 0 0 0 280.29615,9.2718 Z m -0.6838,24.6624 A 238.10939,238.10939 0 0 1 511.03055,278.5519 238.10939,238.10939 0 0 1 266.41305,509.97 238.10939,238.10939 0 0 1 34.99478,265.3525 238.10939,238.10939 0 0 1 279.61235,33.9342 Z"
     id="path5474" />
  <path
     inkscape:connector-curvature="0"
     style="opacity:1;fill:#287f43;fill-opacity:1;stroke:none;stroke-width:5.19593287;stroke-miterlimit:4;stroke-dasharray:none;stroke-dashoffset:0;stroke-opacity:1"
     d="m 387.99645,36.0231 1.3992,15.0719 -11.7287,7.2461 A 238.10939,238.10939 0 0 1 511.03055,278.5519 238.10939,238.10939 0 0 1 266.41305,509.97 238.10939,238.10939 0 0 1 34.99478,265.3525 238.10939,238.10939 0 0 1 153.35285,66.2812 l 1.3772,-15.3506 -13.3456,-6.0383 A 262.78125,262.78125 0 0 0 10.33238,264.6687 262.78125,262.78125 0 0 0 265.72915,534.6324 262.78125,262.78125 0 0 0 535.69295,279.2357 262.78125,262.78125 0 0 0 387.99645,36.0231 Z"
     id="path5483" />
  <g
     id="g5365"
     transform="matrix(1.0855088,-0.06961579,0.06704979,1.0454976,-84.06424,45.5886)">
    <path
       id="path5367"
       d="m 235.79095,471.30905 4.63071,-13.93259 3.21002,0.98932 -4.63003,13.93329 -3.21069,-0.99002 z"
       style="fill:#ffffff"
       inkscape:connector-curvature="0" />
    <path
       id="path5369"
       d="m 242.08151,473.29257 3.91709,-14.13125 3.16833,0.81594 3.98441,11.13663 2.61549,-9.43707 3.02651,0.77789 -3.91784,14.13129 -3.26705,-0.84137 -3.94703,-10.88855 -2.55416,9.21509 -3.02575,-0.7786 z"
       style="fill:#ffffff"
       inkscape:connector-curvature="0" />
    <path
       id="path5371"
       d="m 262.05304,478.03754 2.45395,-11.91666 -4.85968,-0.93008 0.50018,-2.42533 13.01923,2.49015 -0.50095,2.42602 -4.85003,-0.9266 -2.45475,11.91595 -3.30795,-0.63345 z"
       style="fill:#ffffff"
       inkscape:connector-curvature="0" />
    <path
       id="path5373"
       d="m 272.35065,479.9245 2.02475,-14.49274 12.26675,1.59174 -0.34225,2.45138 -8.92728,-1.15905 -0.44901,3.21377 8.30658,1.07736 -0.34222,2.44153 -8.30505,-1.07736 -0.55137,3.94519 9.24323,1.19998 -0.3407,2.4415 -12.58343,-1.6333 z"
       style="fill:#ffffff"
       inkscape:connector-curvature="0" />
    <path
       id="path5375"
       d="m 287.79892,481.83615 1.00986,-14.59491 7.08026,0.45517 c 1.78049,0.11557 3.06375,0.3291 3.85345,0.64194 0.78897,0.31497 1.40244,0.82159 1.84119,1.5234 0.43948,0.70182 0.62738,1.48325 0.56741,2.34638 -0.076,1.09644 -0.50525,1.9772 -1.28982,2.64236 -0.78458,0.66587 -1.91434,1.04569 -3.38989,1.13797 0.70193,0.41852 1.27374,0.86457 1.71758,1.34021 0.44169,0.47492 1.02518,1.30497 1.75126,2.49228 l 1.83752,2.97843 -4.02237,-0.25861 -2.21191,-3.33218 c -0.78531,-1.1901 -1.32639,-1.94544 -1.62476,-2.25971 -0.29764,-0.3164 -0.62149,-0.54046 -0.96887,-0.67294 -0.34952,-0.13245 -0.90958,-0.22263 -1.68173,-0.2727 l -0.68225,-0.0444 -0.42191,6.0922 -3.36502,-0.21491 z m 3.94705,-8.20679 2.48761,0.15995 c 1.61374,0.10428 2.625,0.10849 3.03525,0.0148 0.41019,-0.0944 0.73846,-0.27906 0.98639,-0.55597 0.24713,-0.27902 0.38608,-0.63553 0.41611,-1.07315 0.0343,-0.49112 -0.0878,-0.89627 -0.3664,-1.21823 -0.27862,-0.32065 -0.68734,-0.5391 -1.22772,-0.65464 -0.27054,-0.0486 -1.08728,-0.11978 -2.45242,-0.20648 l -2.62506,-0.16836 -0.25376,3.70208 z"
       style="fill:#ffffff"
       inkscape:connector-curvature="0" />
    <path
       id="path5377"
       d="m 304.60941,482.8804 -0.24714,-14.62662 5.40802,-0.0853 c 2.04957,-0.0317 3.38697,0.0197 4.01142,0.15713 0.96008,0.20508 1.7688,0.67008 2.42538,1.39447 0.65741,0.72437 0.99668,1.66852 1.01712,2.83332 0.0154,0.89837 -0.15789,1.65585 -0.51989,2.2745 -0.36118,0.61795 -0.82621,1.10553 -1.39292,1.4635 -0.56741,0.35868 -1.14581,0.59964 -1.7359,0.72086 -0.80285,0.15286 -1.96622,0.24097 -3.49228,0.26422 l -2.19726,0.0345 0.0936,5.51721 -3.37017,0.0521 z m 3.16546,-12.20413 0.0702,4.15097 1.84335,-0.0289 c 1.32862,-0.0197 2.21558,-0.1106 2.66089,-0.27121 0.44455,-0.16138 0.79261,-0.40592 1.0412,-0.73499 0.24933,-0.33041 0.37003,-0.71164 0.3627,-1.14358 -0.009,-0.53269 -0.19449,-0.96884 -0.55719,-1.30777 -0.36267,-0.33966 -0.81747,-0.54892 -1.36587,-0.62851 -0.40366,-0.0606 -1.21231,-0.0804 -2.42688,-0.062 l -1.62839,0.0261 z"
       style="fill:#ffffff"
       inkscape:connector-curvature="0" />
    <path
       id="path5379"
       d="m 320.18347,482.6972 -1.00986,-14.59564 3.36435,-0.21631 0.39704,5.74411 6.59186,-0.42486 -0.39777,-5.74341 3.36429,-0.21707 1.00982,14.59494 -3.36434,0.21701 -0.44162,-6.38251 -6.59113,0.42493 0.44168,6.3818 -3.36432,0.21701 z"
       style="fill:#ffffff"
       inkscape:connector-curvature="0" />
    <path
       id="path5381"
       d="m 351.89456,479.53061 -3.63562,0.48056 -1.91281,-3.10037 -6.61377,0.87515 -0.89648,3.47452 -3.54419,0.46713 4.37848,-15.34393 3.5325,-0.46787 8.69189,13.61481 z m -6.96847,-4.91968 -3.04618,-5.07687 -1.46826,5.67437 4.51444,-0.5975 z"
       style="fill:#ffffff"
       inkscape:connector-curvature="0" />
    <path
       id="path5383"
       d="m 351.8046,474.67435 3.15371,-0.91535 c 0.3956,0.90686 0.93668,1.52204 1.62479,1.84687 0.68582,0.32483 1.5311,0.38678 2.53509,0.18743 1.06241,-0.21212 1.82068,-0.57006 2.27478,-1.07104 0.45484,-0.50244 0.62448,-1.01535 0.51184,-1.54382 -0.0731,-0.33753 -0.24862,-0.60318 -0.52719,-0.79557 -0.27716,-0.19162 -0.71661,-0.32055 -1.32132,-0.384 -0.41168,-0.0402 -1.33667,-0.0733 -2.77713,-0.0979 -1.85144,-0.0317 -3.19391,-0.25577 -4.02896,-0.67435 -1.17288,-0.58761 -1.87991,-1.448 -2.12484,-2.58032 -0.15583,-0.72931 -0.0673,-1.45856 0.26831,-2.18787 0.33563,-0.72717 0.91256,-1.34652 1.72934,-1.85668 0.81671,-0.51087 1.85357,-0.89066 3.11053,-1.14081 2.05322,-0.40869 3.68018,-0.3234 4.88812,0.2572 1.20578,0.582 1.97577,1.52481 2.31138,2.82977 l -3.27509,0.78568 c -0.29837,-0.70746 -0.71588,-1.17673 -1.24963,-1.40647 -0.53376,-0.22897 -1.26499,-0.25085 -2.1951,-0.0662 -0.95935,0.19098 -1.6723,0.51367 -2.14096,0.96744 -0.30274,0.29031 -0.41242,0.62219 -0.33271,0.99212 0.0731,0.33896 0.29758,0.59613 0.67707,0.77228 0.4826,0.22266 1.56115,0.33966 3.23928,0.35233 1.67667,0.0134 2.94019,0.11838 3.7847,0.31921 0.84531,0.20221 1.55243,0.5672 2.11908,1.09567 0.56665,0.52848 0.9469,1.24649 1.14139,2.15192 0.17697,0.82022 0.0812,1.63968 -0.28439,2.45984 -0.3671,0.82019 -0.98862,1.50089 -1.86536,2.03919 -0.87674,0.5383 -2.02612,0.94842 -3.4462,1.23172 -2.06634,0.41149 -3.74304,0.31005 -5.03146,-0.30652 -1.28543,-0.61518 -2.20969,-1.7038 -2.76907,-3.26172 z"
       style="fill:#ffffff"
       inkscape:connector-curvature="0" />
    <path
       id="path5385"
       d="m 368.85495,476.02298 -4.03702,-14.09955 11.93335,-3.17224 0.68439,2.38516 -8.68454,2.30908 0.89572,3.12574 8.08133,-2.14844 0.68002,2.37533 -8.0806,2.14835 1.09827,3.8367 8.9917,-2.39151 0.68146,2.37534 -12.24408,3.25604 z"
       style="fill:#ffffff"
       inkscape:connector-curvature="0" />
  </g>
  <path
     style="opacity:1;fill:#e5ff9c;fill-opacity:1;stroke:#e5ff9c;stroke-width:4.3;stroke-miterlimit:4;stroke-dasharray:none;stroke-dashoffset:0;stroke-opacity:1"
     d="M 279.65135,36.313 A 233.67902,233.67902 0 0 1 506.76445,276.3778 233.67902,233.67902 0 0 1 266.69755,503.4908 233.67902,233.67902 0 0 1 39.58653,263.424 233.67902,233.67902 0 0 1 279.65135,36.313 Z m -0.9009,32.4894 A 201.1769,201.1769 0 0 0 72.07595,264.3249 201.1769,201.1769 0 0 0 267.59845,471.0013 201.1769,201.1769 0 0 0 474.27495,275.4769 201.1769,201.1769 0 0 0 278.75045,68.8024 Z"
     id="path5511"
     inkscape:connector-curvature="0" />
  <g
     id="g5295"
     transform="matrix(0.66675641,-0.85942511,0.82774727,0.64218022,-128.43115,380.0127)">
    <path
       id="path5297"
       d="m 118.83472,321.02576 1.49093,2.82977 c -0.85554,0.53763 -1.38855,1.15842 -1.59987,1.86584 -0.21132,0.70893 -0.12506,1.52063 0.25738,2.43732 0.40438,0.97171 0.90232,1.62842 1.4953,1.97083 0.59229,0.34246 1.14801,0.4143 1.66719,0.21353 0.33342,-0.12967 0.57326,-0.34037 0.72023,-0.6391 0.14772,-0.29807 0.20038,-0.73847 0.1587,-1.3198 -0.0315,-0.3974 -0.16237,-1.28241 -0.3898,-2.65286 -0.29464,-1.763 -0.30267,-3.07715 -0.0234,-3.94171 0.39417,-1.21692 1.148,-2.04062 2.26236,-2.47183 0.71732,-0.27762 1.47777,-0.32059 2.28213,-0.13178 0.80435,0.19025 1.53846,0.62854 2.20388,1.31134 0.66391,0.68702 1.23499,1.60163 1.71396,2.74945 0.77945,1.87363 0.98055,3.43503 0.59808,4.68222 -0.38096,1.2479 -1.20723,2.1456 -2.48243,2.69306 l -1.38052,-2.96716 c 0.67051,-0.4087 1.07485,-0.88782 1.21526,-1.43393 0.1397,-0.54746 0.0344,-1.24646 -0.31955,-2.09482 -0.3656,-0.87515 -0.82114,-1.49591 -1.36664,-1.86163 -0.35021,-0.23536 -0.70926,-0.28113 -1.07414,-0.1402 -0.33338,0.13028 -0.55574,0.38894 -0.66757,0.77859 -0.14336,0.49677 -0.0724,1.54172 0.21131,3.13486 0.28372,1.59247 0.39779,2.80655 0.34076,3.64716 -0.0563,0.83709 -0.3042,1.57132 -0.74438,2.2034 -0.44093,0.63131 -1.10632,1.11889 -1.99623,1.46276 -0.80721,0.31144 -1.66058,0.36713 -2.56432,0.16275 -0.90232,-0.2015 -1.70591,-0.67221 -2.41079,-1.40924 -0.70417,-0.73629 -1.32715,-1.75238 -1.86824,-3.05032 -0.78534,-1.88769 -0.97765,-3.49774 -0.57545,-4.82736 0.40434,-1.32684 1.35196,-2.39432 2.84584,-3.20114 z"
       style="fill:#006b33"
       inkscape:connector-curvature="0" />
    <path
       id="path5299"
       d="m 122.45203,341.20694 5.71293,-2.75015 5.12578,-9.05939 1.76733,3.40759 -3.61218,5.97452 7.09126,0.73352 1.73662,3.34833 -10.62443,-1.49869 -5.69469,2.74307 -1.50262,-2.8988 z"
       style="fill:#006b33"
       inkscape:connector-curvature="0" />
    <path
       id="path5301"
       d="m 127.57634,350.82507 12.95262,-7.6325 1.71178,2.69732 -5.08483,10.71668 8.65094,-5.09589 1.63353,2.57474 -12.95338,7.63248 -1.76515,-2.78119 4.93495,-10.513 -8.44841,4.97677 -1.63205,-2.5754 z"
       style="fill:#006b33"
       inkscape:connector-curvature="0" />
    <path
       id="path5303"
       d="m 138.72292,367.47751 10.19305,-7.15476 -2.91681,-3.86065 2.07585,-1.45572 7.81374,10.33682 -2.0759,1.45575 -2.9102,-3.85077 -10.19307,7.15619 -1.98666,-2.62686 z"
       style="fill:#006b33"
       inkscape:connector-curvature="0" />
    <path
       id="path5305"
       d="m 144.97475,375.60678 11.52386,-9.51388 2.19362,2.46762 -4.53499,3.74438 4.29877,4.83374 4.53499,-3.74368 2.19362,2.46619 -11.52382,9.51526 -2.19364,-2.46763 5.03872,-4.16009 -4.2988,-4.83441 -5.03871,4.16009 -2.19362,-2.46759 z"
       style="fill:#006b33"
       inkscape:connector-curvature="0" />
    <path
       id="path5307"
       d="m 156.0569,387.82639 10.70641,-10.37424 8.78035,8.41186 -1.81196,1.75589 -6.38857,-6.12176 -2.37348,2.29989 5.94472,5.6962 -1.80387,1.74887 -5.94474,-5.69827 -2.91391,2.82483 6.61525,6.33881 -1.80387,1.74673 -9.00633,-8.62881 z"
       style="fill:#006b33"
       inkscape:connector-curvature="0" />
    <path
       id="path5309"
       d="m 169.73643,394.15256 2.67843,1.84539 c -0.5024,0.85474 -0.6764,1.64457 -0.52359,2.36469 0.1521,0.72229 0.6186,1.40506 1.39588,2.04767 0.82407,0.68139 1.58162,1.04214 2.27114,1.0802 0.68881,0.0416 1.21673,-0.14447 1.58087,-0.5531 0.23328,-0.26288 0.34517,-0.55881 0.33342,-0.88929 -0.0131,-0.32977 -0.17691,-0.74411 -0.49426,-1.24224 -0.21936,-0.3375 -0.75756,-1.06543 -1.61748,-2.17731 -1.10703,-1.43106 -1.74316,-2.59302 -1.90987,-3.48435 -0.23545,-1.25283 0.0387,-2.32037 0.82042,-3.1997 0.50308,-0.56583 1.15676,-0.94425 1.96179,-1.13306 0.80365,-0.19095 1.665,-0.12897 2.58268,0.18179 0.91836,0.3122 1.8638,0.86951 2.83854,1.6749 1.5911,1.31412 2.51532,2.60925 2.77713,3.88534 0.26104,1.27674 -0.0425,2.44007 -0.90965,3.4928 l -2.64769,-2.01379 c 0.39775,-0.66168 0.52864,-1.26624 0.39047,-1.81372 -0.13817,-0.54749 -0.56743,-1.11899 -1.28769,-1.71579 -0.74434,-0.61301 -1.4456,-0.95969 -2.10293,-1.04071 -0.42485,-0.0521 -0.76412,0.0662 -1.02078,0.35373 -0.23324,0.26281 -0.30709,0.59185 -0.22011,0.98788 0.11265,0.50382 0.67566,1.39865 1.69133,2.68527 1.01634,1.28672 1.69931,2.31333 2.05176,3.08274 0.35096,0.76809 0.48332,1.52908 0.39633,2.28442 -0.0878,0.75681 -0.44383,1.48395 -1.06829,2.18716 -0.56599,0.63559 -1.29791,1.06611 -2.19656,1.28666 -0.89796,0.22268 -1.83534,0.16351 -2.81372,-0.17475 -0.97908,-0.3389 -2.01886,-0.96322 -3.12006,-1.87286 -1.60211,-1.32401 -2.54387,-2.66351 -2.82544,-4.02411 -0.27929,-1.35571 0.049,-2.72556 0.98793,-4.10587 z"
       style="fill:#006b33"
       inkscape:connector-curvature="0" />
    <path
       id="path5311"
       d="m 179.04686,407.86105 9.2769,-11.57354 2.66673,1.98562 -9.27761,11.57422 -2.66602,-1.9863 z"
       style="fill:#006b33"
       inkscape:connector-curvature="0" />
    <path
       id="path5313"
       d="m 186.34729,407.37268 2.85753,1.57697 c -0.41095,0.89907 -0.50234,1.70095 -0.27344,2.40557 0.22669,0.70325 0.76115,1.3367 1.60135,1.9011 0.8913,0.5982 1.68101,0.8822 2.37205,0.8547 0.69025,-0.0267 1.19478,-0.26071 1.51433,-0.70462 0.20543,-0.28256 0.28443,-0.58908 0.23836,-0.91531 -0.046,-0.32764 -0.25371,-0.72156 -0.62007,-1.18942 -0.25296,-0.31494 -0.86572,-0.98365 -1.83606,-2.01026 -1.25034,-1.31695 -2.00497,-2.40985 -2.26382,-3.28006 -0.36414,-1.22464 -0.20255,-2.31186 0.48408,-3.26382 0.44161,-0.6116 1.05219,-1.04919 1.8324,-1.31766 0.77873,-0.26779 1.64299,-0.29031 2.58923,-0.0698 0.94542,0.22125 1.94499,0.68631 2.99794,1.39236 1.71979,1.15348 2.77492,2.35202 3.16757,3.59641 0.3927,1.24292 0.21132,2.43164 -0.54107,3.56329 l -2.84368,-1.7482 c 0.32688,-0.69613 0.39409,-1.3099 0.19959,-1.84115 -0.19521,-0.53131 -0.68221,-1.05835 -1.45946,-1.58121 -0.80508,-0.53973 -1.53842,-0.81598 -2.20238,-0.83145 -0.42708,-0.0113 -0.75174,0.13882 -0.97761,0.45022 -0.20406,0.28473 -0.24355,0.61942 -0.11488,1.00553 0.16383,0.49045 0.81677,1.32681 1.96258,2.50778 1.14438,1.18234 1.93187,2.13849 2.36112,2.86783 0.42993,0.72858 0.64123,1.47549 0.63174,2.23648 -0.008,0.75958 -0.28662,1.51916 -0.83432,2.27805 -0.49721,0.68911 -1.18088,1.18728 -2.05103,1.4931 -0.86943,0.30862 -1.81048,0.34106 -2.81808,0.10004 -1.0083,-0.24448 -2.10736,-0.7638 -3.29776,-1.56214 -1.73221,-1.16122 -2.80853,-2.40561 -3.23047,-3.73028 -0.41972,-1.32398 -0.23546,-2.71845 0.55426,-4.18409 z"
       style="fill:#006b33"
       inkscape:connector-curvature="0" />
  </g>
  <path
     style="opacity:1;fill:#95fc95;fill-opacity:1;stroke:#95fc95;stroke-width:4;stroke-miterlimit:4;stroke-dasharray:none;stroke-dashoffset:0;stroke-opacity:1"
     d="m 149.84555,72.6476 c -0.3752,0.2248 -0.7497,0.4507 -1.1236,0.6777 0.3535,-0.2148 0.7392,-0.4453 1.1236,-0.6777 z m 224.7095,-12.4724 -1.113,19.1238 -13.9609,9.4243 c 66.3484,31.239 110.4419,96.1067 115.0775,169.2948 3.3355,53.9207 -15.1559,106.9171 -51.3115,147.0587 l 3.6771,18.4611 21.7445,1.9533 c 41.2071,-46.5055 62.196,-107.5074 58.3272,-169.5221 -5.4484,-84.4276 -56.1055,-159.3164 -132.4409,-195.7939 z M 144.83965,76.0579 C 75.14095,122.1808 35.38186,202.0162 40.56822,285.4328 c 4.20463,64.7961 35.18013,124.9211 85.49993,165.9594 l 3.2848,-18.6034 19.2967,-4.8571 c -44.4968,-35.3378 -71.9745,-87.8448 -75.6441,-144.548 -4.6788,-74.7226 25.23904,-136.6158 88.43747,-181.0058 -1.1701,0.5984 4.70647,-2.7235 4.70647,-2.7235 l -0.57304,-19.9376 z"
     id="path5495"
     inkscape:connector-curvature="0"
     sodipodi:nodetypes="cccccccccccccccccccccc" />
  <g
     id="g5269"
     transform="matrix(0.72439554,-0.60817269,0.60817269,0.72439554,-91.42112,266.137)">
    <path
       inkscape:connector-curvature="0"
       id="path5271"
       d="m 392.2226,465.17738 -7.85402,-14.47214 11.75502,-5.49523 1.32862,2.4491 -8.29127,3.87654 1.85924,3.42703 7.15774,-3.34583 1.32865,2.44909 -7.15782,3.34581 3.33754,6.15084 -3.4637,1.6148 z"
       style="fill:#006b33" />
    <path
       inkscape:connector-curvature="0"
       id="path5273"
       d="m 406.6391,458.21564 -8.67305,-14.064 3.3653,-1.788 8.67308,14.06392 -3.36533,1.78808 z"
       style="fill:#006b33" />
    <path
       inkscape:connector-curvature="0"
       id="path5275"
       d="m 413.25872,454.76442 -9.58048,-13.54728 6.8223,-4.15524 c 1.71629,-1.04576 3.04828,-1.68267 3.99765,-1.91289 0.94937,-0.23023 1.87769,-0.17716 2.78594,0.16002 0.9065,0.33869 1.64392,0.90688 2.21072,1.70765 0.71893,1.01771 0.95864,2.07132 0.71812,3.16553 -0.24051,1.09421 -1.00321,2.15567 -2.28982,3.18745 0.94436,-0.0819 1.79203,-0.0563 2.53953,0.0795 0.74926,0.13426 1.88202,0.4925 3.40152,1.07474 l 3.82856,1.44934 -3.87486,2.3601 -4.43069,-1.51877 c -1.57672,-0.54715 -2.61358,-0.86402 -3.11555,-0.9522 -0.50125,-0.0866 -0.95942,-0.0781 -1.37324,0.0304 -0.41542,0.10777 -0.99559,0.38714 -1.73818,0.84133 l -0.65836,0.40039 4.00102,5.6545 -3.24418,1.97535 z m -2.28811,-9.79251 2.39992,-1.46178 c 1.55398,-0.94673 2.4866,-1.59451 2.79433,-1.94024 0.30691,-0.34498 0.476,-0.72272 0.50372,-1.12545 0.0277,-0.40504 -0.10176,-0.8109 -0.38935,-1.21751 -0.32292,-0.45579 -0.72739,-0.73517 -1.2134,-0.84137 -0.48608,-0.10533 -1.01837,-0.0336 -1.59524,0.21154 -0.28669,0.12956 -1.08393,0.59471 -2.39907,1.3947 l -2.53111,1.54142 2.4302,3.43869 z"
       style="fill:#006b33" />
    <path
       inkscape:connector-curvature="0"
       id="path5277"
       d="m 425.04816,441.17498 2.75895,-2.40695 c 0.89049,0.70864 1.77265,1.06221 2.65306,1.05754 0.87879,-0.004 1.78192,-0.34418 2.70946,-1.02241 0.98212,-0.71492 1.57331,-1.42984 1.77264,-2.14239 0.20006,-0.71332 0.10336,-1.30575 -0.2943,-1.77401 -0.25487,-0.30201 -0.57688,-0.48154 -0.96542,-0.53927 -0.38769,-0.0586 -0.9099,0.0242 -1.56243,0.24818 -0.44487,0.15532 -1.41695,0.56426 -2.91196,1.22377 -1.9216,0.85072 -3.42419,1.2667 -4.50483,1.24872 -1.52115,-0.0242 -2.70686,-0.53928 -3.55951,-1.54844 -0.54824,-0.64776 -0.84679,-1.41341 -0.88803,-2.29608 -0.0428,-0.88275 0.22286,-1.7709 0.79134,-2.66452 0.5701,-0.89441 1.43538,-1.76387 2.59505,-2.60984 1.89536,-1.38223 3.61846,-2.07139 5.16814,-2.06985 1.5514,0.003 2.84728,0.57055 3.88425,1.70614 l -2.95162,2.33667 c -0.68458,-0.55959 -1.36316,-0.8265 -2.035,-0.79918 -0.67182,0.0274 -1.4372,0.35121 -2.29483,0.97871 -0.88551,0.64622 -1.4489,1.30493 -1.69025,1.97844 -0.15642,0.43165 -0.0933,0.81247 0.18587,1.14343 0.2556,0.30198 0.62393,0.44797 1.1066,0.44094 0.61551,-0.008 1.79024,-0.40586 3.52252,-1.19098 1.73313,-0.78516 3.0879,-1.28154 4.0649,-1.4829 0.97809,-0.20295 1.90047,-0.17717 2.76334,0.0781 0.86525,0.25443 1.63879,0.78591 2.32162,1.58978 0.61642,0.72973 0.95608,1.58823 1.015,2.57712 0.058,0.98804 -0.21945,1.95583 -0.83588,2.90718 -0.61545,0.9514 -1.57997,1.90279 -2.891,2.86118 -1.90885,1.39161 -3.68901,2.0901 -5.34301,2.09165 -1.64909,-0.003 -3.17958,-0.64232 -4.58466,-1.92071 z"
       style="fill:#006b33" />
    <path
       inkscape:connector-curvature="0"
       id="path5279"
       d="m 446.45674,431.64633 -9.82844,-9.90096 -4.18946,3.58232 -2.00049,-2.01516 11.21934,-9.59427 2.00042,2.01671 -4.18008,3.57296 9.8285,9.901 -2.84978,2.4374 z"
       style="fill:#006b33" />
    <path
       inkscape:connector-curvature="0"
       id="path5281"
       d="m 461.38701,408.83414 -2.23006,-1.77709 5.44062,-5.88395 5.27416,4.20124 c 0.0144,1.00447 -0.27576,2.2134 -0.86444,3.62603 -0.59116,1.41499 -1.40096,2.67699 -2.43187,3.79072 -1.30766,1.41339 -2.73807,2.41475 -4.29195,3.00321 -1.5532,0.59006 -3.11387,0.71802 -4.68392,0.38554 -1.57004,-0.33248 -2.99097,-1.00443 -4.25993,-2.01671 -1.38004,-1.09735 -2.33107,-2.36875 -2.85651,-3.8149 -0.52736,-1.4439 -0.55003,-2.96185 -0.0707,-4.55478 0.36327,-1.21833 1.1386,-2.47255 2.33351,-3.76261 1.55225,-1.67804 3.10805,-2.71523 4.67128,-3.1094 1.56243,-0.3949 3.07775,-0.24273 4.54421,0.45582 l -2.01141,3.10622 c -0.82666,-0.32856 -1.67175,-0.37778 -2.53455,-0.15221 -0.86184,0.22711 -1.65735,0.73211 -2.38476,1.51958 -1.10407,1.19257 -1.60953,2.43736 -1.52206,3.72908 0.09,1.29403 0.8636,2.52246 2.32168,3.68376 1.5717,1.25187 3.08117,1.83411 4.52669,1.74589 1.44553,-0.0882 2.7017,-0.70864 3.76967,-1.86605 0.52988,-0.57133 0.95036,-1.23162 1.26149,-1.98163 0.3102,-0.74999 0.50191,-1.45554 0.56917,-2.1174 l -1.6801,-1.33849 -2.89017,3.12813 z"
       style="fill:#006b33" />
    <path
       inkscape:connector-curvature="0"
       id="path5283"
       d="m 483.96025,391.11368 -2.45713,3.18116 -4.19952,-0.87957 -4.46769,5.78792 2.29821,3.33884 -2.39489,3.10314 -9.83609,-15.08016 2.38651,-3.09297 18.6706,3.64164 z m -9.77213,1.64915 -6.80803,-1.5086 3.75638,5.45852 3.05165,-3.94992 z"
       style="fill:#006b33" />
    <path
       inkscape:connector-curvature="0"
       id="path5285"
       d="m 485.0206,389.44426 -14.93704,-8.37901 3.21909,-4.94191 c 1.21845,-1.87158 2.08873,-3.05006 2.60923,-3.53471 0.79219,-0.74845 1.75757,-1.20742 2.89115,-1.37518 1.13436,-0.16938 2.29565,0.0812 3.48463,0.74693 0.9182,0.51506 1.57842,1.1176 1.97951,1.80749 0.40359,0.69071 0.61385,1.39779 0.62891,2.12055 0.0177,0.72427 -0.095,1.38764 -0.33205,1.99407 -0.33639,0.8156 -0.95866,1.92077 -1.86691,3.31389 l -1.30756,2.00733 5.63321,3.16165 -2.00217,3.0789 z m -10.40281,-10.04065 4.23729,2.37808 1.09906,-1.68581 c 0.78958,-1.2136 1.24032,-2.06818 1.3488,-2.56535 0.11017,-0.4972 0.0749,-0.9545 -0.10672,-1.37366 -0.18255,-0.4191 -0.49286,-0.75318 -0.93351,-0.9998 -0.54325,-0.30513 -1.09827,-0.39328 -1.66418,-0.26534 -0.56508,0.12645 -1.05438,0.41603 -1.4682,0.8655 -0.306,0.32937 -0.82148,1.04896 -1.54393,2.15878 l -0.96861,1.4876 z"
       style="fill:#006b33" />
    <path
       inkscape:connector-curvature="0"
       id="path5287"
       d="m 504.62292,366.47134 -1.12513,2.10178 c -2.23681,0.35205 -4.39708,0.40898 -6.47746,0.17402 -2.08036,-0.23496 -3.94978,-0.73594 -5.60548,-1.5016 -2.05434,-0.94828 -3.80685,-2.20407 -5.25563,-3.76962 -1.25802,-1.35802 -2.30246,-2.82764 -3.13238,-4.4057 l 1.12013,-2.09086 c 1.62125,1.9894 3.08607,3.51833 4.39705,4.58989 1.31176,1.07004 2.81201,1.99646 4.50306,2.77844 1.1662,0.53698 2.41921,0.97867 3.76139,1.32055 1.34023,0.34265 2.66555,0.57598 3.97311,0.6993 0.86034,0.0827 2.1427,0.11628 3.84134,0.10378 z"
       style="fill:#006b33" />
    <path
       inkscape:connector-curvature="0"
       id="path5289"
       d="m 498.95516,352.04915 -2.70515,-1.07157 3.2779,-7.13499 6.39411,2.53178 c 0.33818,0.95299 0.45498,2.18771 0.35162,3.70096 -0.10506,1.51259 -0.46848,2.94472 -1.08736,4.29416 -0.78874,1.71468 -1.82808,3.07033 -3.11892,4.06538 -1.28908,0.99666 -2.73797,1.55474 -4.34236,1.67805 -1.60441,0.12095 -3.177,-0.12176 -4.71755,-0.73208 -1.67165,-0.66186 -2.99531,-1.60854 -3.96567,-2.83858 -0.96952,-1.22999 -1.48505,-2.67229 -1.54395,-4.3261 -0.0512,-1.26197 0.28435,-2.67699 1.00329,-4.24341 0.93601,-2.03389 2.08461,-3.45898 3.44596,-4.27301 1.36145,-0.81247 2.85569,-1.0911 4.482,-0.83508 l -0.90981,3.52689 c -0.89382,-0.0812 -1.71629,0.10688 -2.46556,0.56429 -0.74919,0.45576 -1.34375,1.16137 -1.78188,2.1158 -0.66513,1.44701 -0.74418,2.77456 -0.23795,3.98352 0.5071,1.20894 1.6423,2.16266 3.40899,2.86274 1.90724,0.7547 3.53351,0.88897 4.88487,0.40117 1.34955,-0.48779 2.34689,-1.4329 2.99107,-2.83384 0.31882,-0.69464 0.50713,-1.44311 0.55999,-2.24382 0.0529,-0.80317 0.004,-1.529 -0.14452,-2.17832 l -2.03836,-0.80623 -1.74076,3.79229 z"
       style="fill:#006b33" />
    <path
       inkscape:connector-curvature="0"
       id="path5291"
       d="m 510.8329,340.09244 -0.77355,1.99565 -7.36459,-2.46083 c 0.38602,0.95298 0.54485,1.97456 0.48252,3.07194 l -1.77332,-0.59319 c 0.0346,-0.57593 -0.0622,-1.24798 -0.29262,-2.01201 -0.22788,-0.76647 -0.61049,-1.36736 -1.14287,-1.80213 l 0.62735,-1.61868 10.23708,3.41926 z"
       style="fill:#006b33" />
    <path
       inkscape:connector-curvature="0"
       id="path5293"
       d="m 516.91531,338.37928 c -1.12351,-1.04269 -1.99892,-1.80203 -2.62617,-2.27896 -0.62727,-0.47696 -1.36986,-0.96615 -2.23016,-1.46956 -0.85848,-0.5042 -1.69179,-0.93581 -2.49665,-1.2956 -0.80485,-0.35979 -1.65059,-0.67044 -2.53444,-0.93419 -1.79951,-0.53698 -3.56882,-0.84921 -5.31108,-0.93348 -1.74156,-0.0851 -3.94219,0.057 -6.59951,0.43165 l 0.76698,-2.21033 c 2.02827,-0.67972 4.06494,-1.07155 6.10991,-1.17222 2.04601,-0.10064 4.00445,0.12953 5.87801,0.68916 1.58011,0.47138 3.18451,1.23154 4.81417,2.27891 1.82479,1.18555 3.49313,2.73317 5.0059,4.64925 l -0.77696,2.24537 z"
       style="fill:#006b33" />
  </g>
  <g
     id="g5315"
     transform="matrix(0.6634303,-0.86199529,0.83022272,0.6389767,-147.24642,365.835)">
    <path
       id="path5317"
       d="m 126.33617,175.13939 1.23066,-2.94396 c 0.98127,0.26845 1.81705,0.2466 2.51099,-0.0676 0.69167,-0.31216 1.27083,-0.9097 1.73587,-1.78906 0.49283,-0.93291 0.67783,-1.72702 0.55501,-2.38232 -0.12287,-0.65531 -0.43291,-1.10485 -0.93013,-1.35007 -0.32027,-0.15715 -0.6449,-0.19026 -0.97399,-0.10219 -0.32972,0.0895 -0.70997,0.33966 -1.13699,0.75395 -0.28955,0.28467 -0.89575,0.96039 -1.81485,2.02721 -1.18236,1.37335 -2.2046,2.24493 -3.06453,2.61066 -1.20941,0.51437 -2.34939,0.51084 -3.41987,-0.0162 -0.6888,-0.33752 -1.22404,-0.86035 -1.605,-1.5692 -0.38096,-0.70888 -0.52208,-1.52907 -0.42483,-2.46196 0.0973,-0.93292 0.43875,-1.9518 1.02077,-3.05243 0.95056,-1.79962 2.03863,-2.97215 3.26411,-3.51539 1.22552,-0.54468 2.47077,-0.53409 3.73794,0.0303 l -1.41052,2.95306 c -0.76116,-0.21771 -1.40096,-0.19655 -1.9209,0.0607 -0.51983,0.25855 -0.99367,0.79476 -1.42582,1.60936 -0.44384,0.84198 -0.62887,1.57973 -0.55425,2.21601 0.0468,0.41012 0.2464,0.699 0.59665,0.87231 0.32026,0.15718 0.6698,0.14731 1.04929,-0.0274 0.48191,-0.22408 1.25186,-0.96186 2.30989,-2.2168 1.05735,-1.25347 1.93406,-2.135 2.62429,-2.64583 0.69176,-0.51088 1.42954,-0.81454 2.21193,-0.90968 0.78165,-0.0965 1.60135,0.0662 2.4569,0.48547 0.77578,0.37979 1.38124,0.96323 1.81628,1.75244 0.43511,0.78844 0.59741,1.6805 0.48552,2.67545 -0.11183,0.99635 -0.49644,2.1181 -1.15456,3.36319 -0.95788,1.81227 -2.08834,3.00941 -3.39282,3.59358 -1.30519,0.58481 -2.76398,0.59966 -4.37703,0.0465 z"
       style="fill:#006b33"
       inkscape:connector-curvature="0" />
    <path
       id="path5319"
       d="m 138.28635,163.25656 -13.03378,-7.50075 6.34837,-10.24455 2.20527,1.26903 -4.61902,7.45492 2.88971,1.66222 4.29877,-6.93634 2.19586,1.26198 -4.29805,6.93915 3.54782,2.03991 4.78286,-7.71919 2.19657,1.2648 -6.51438,10.50882 z"
       style="fill:#006b33"
       inkscape:connector-curvature="0" />
    <path
       id="path5321"
       d="m 147.88275,138.91241 2.64255,-2.0631 c 1.07202,1.30847 1.60354,2.64515 1.59769,4.01002 -0.009,1.36414 -0.52498,2.75507 -1.55014,4.16995 -1.26865,1.75171 -2.87656,2.81146 -4.82231,3.18071 -1.945,0.3671 -3.89808,-0.10571 -5.85628,-1.42407 -2.07149,-1.39305 -3.26921,-3.04114 -3.59535,-4.94717 -0.32387,-1.9032 0.18208,-3.78031 1.5202,-5.62714 1.16849,-1.61432 2.56799,-2.62192 4.19791,-3.02495 0.96662,-0.2424 2.05612,-0.17756 3.26991,0.19235 l -1.31542,3.03624 c -0.75753,-0.27833 -1.50338,-0.29454 -2.2353,-0.0521 -0.73194,0.24379 -1.35495,0.71942 -1.86753,1.42686 -0.70779,0.97873 -0.95132,1.99408 -0.72973,3.04824 0.22154,1.05412 1.07342,2.08075 2.55557,3.07707 1.57355,1.05835 2.91097,1.51213 4.01361,1.36134 1.10192,-0.1501 2.00057,-0.70463 2.6967,-1.66501 0.51186,-0.70886 0.74143,-1.46 0.68592,-2.25552 -0.0556,-0.79483 -0.45778,-1.60939 -1.208,-2.44367 z"
       style="fill:#006b33"
       inkscape:connector-curvature="0" />
    <path
       id="path5323"
       d="m 149.85628,133.08942 c -1.19408,-0.94706 -2.03426,-1.92928 -2.52121,-2.95099 -0.35468,-0.75536 -0.56229,-1.56638 -0.61933,-2.43024 -0.057,-0.86386 0.0482,-1.67915 0.31588,-2.44437 0.35168,-1.01818 0.96006,-2.03564 1.82289,-3.04678 1.56334,-1.83203 3.3489,-2.87207 5.35832,-3.12292 2.0101,-0.25013 3.96901,0.37981 5.87747,1.89264 1.89162,1.49874 2.9073,3.2173 3.04471,5.15503 0.1374,1.93773 -0.57251,3.81907 -2.13069,5.64547 -1.57798,1.84824 -3.36361,2.8981 -5.35833,3.14614 -1.99403,0.24946 -3.92367,-0.3657 -5.78971,-1.84398 z m 2.12707,-2.6501 c 1.3272,1.0513 2.60971,1.52481 3.84984,1.4177 1.23939,-0.10853 2.28648,-0.66165 3.13982,-1.66221 0.85333,-1.00057 1.21453,-2.09203 1.08291,-3.27158 -0.13237,-1.18095 -0.87817,-2.30906 -2.23825,-3.38574 -1.3425,-1.0654 -2.61113,-1.54523 -3.80519,-1.4452 -1.19482,0.10009 -2.23314,0.66871 -3.11569,1.7024 -0.88257,1.03508 -1.25987,2.1343 -1.13121,3.29764 0.12866,1.16334 0.86943,2.27876 2.21777,3.34699 z"
       style="fill:#006b33"
       inkscape:connector-curvature="0" />
    <path
       id="path5325"
       d="m 167.75848,123.72985 -10.90088,-10.18395 2.28356,-2.26961 12.03573,2.07231 -7.27992,-6.79964 2.17899,-2.16744 10.90013,10.18396 -2.35448,2.34078 -11.79294,-1.98423 7.1088,6.64039 -2.17899,2.16743 z"
       style="fill:#006b33"
       inkscape:connector-curvature="0" />
    <path
       id="path5327"
       d="m 169.55362,101.19029 4.63513,-3.909963 c 1.04491,-0.882195 1.90479,-1.484642 2.58115,-1.806656 0.90887,-0.431938 1.84633,-0.626419 2.8137,-0.584854 0.96668,0.04299 1.90555,0.300171 2.81809,0.772278 0.9133,0.470695 1.83824,1.221825 2.77421,2.252686 0.82262,0.905441 1.40392,1.794693 1.74248,2.667009 0.41235,1.06541 0.55276,2.09205 0.42044,3.07852 -0.0987,0.74619 -0.42705,1.5403 -0.98422,2.38232 -0.41898,0.62643 -1.0968,1.33598 -2.03348,2.12657 l -4.77116,4.02554 -9.99634,-11.00346 z m 4.22783,-0.27832 6.62182,7.28864 1.89313,-1.59807 c 0.70854,-0.59755 1.18817,-1.064 1.439,-1.39941 0.32977,-0.43615 0.53228,-0.87654 0.60762,-1.32117 0.0761,-0.44461 -0.0248,-0.98508 -0.30124,-1.62273 -0.27568,-0.63701 -0.80141,-1.38038 -1.57285,-2.23228 -0.77435,-0.850466 -1.45218,-1.431101 -2.03786,-1.742533 -0.5857,-0.309334 -1.14729,-0.463646 -1.68838,-0.458008 -0.5389,0.0056 -1.08655,0.162056 -1.6445,0.473503 -0.41675,0.228302 -1.14282,0.777916 -2.17752,1.651665 l -1.13922,0.960393 z"
       style="fill:#006b33"
       inkscape:connector-curvature="0" />
    <path
       id="path5329"
       d="m 200.73016,89.129204 -1.43974,-2.037071 6.00395,-3.941673 3.40525,4.815399 c -0.234,0.877991 -0.77214,1.870071 -1.61229,2.972839 -0.84091,1.103455 -1.8295,2.028618 -2.96582,2.774803 -1.44341,0.947037 -2.88828,1.507202 -4.33605,1.681938 -1.44778,0.17334 -2.79106,-0.05636 -4.02751,-0.689804 -1.23721,-0.632767 -2.26749,-1.529045 -3.08719,-2.688881 -0.88983,-1.25914 -1.37976,-2.574677 -1.46971,-3.949417 -0.0892,-1.374718 0.26105,-2.704338 1.05295,-3.986763 0.60033,-0.982971 1.55962,-1.906029 2.87802,-2.772011 1.71252,-1.124573 3.27362,-1.687576 4.68123,-1.689682 1.40758,-0.0028 2.64261,0.459419 3.70282,1.390221 l -2.44591,2.2696 c -0.61491,-0.46505 -1.31103,-0.694771 -2.08978,-0.685585 -0.7795,0.0084 -1.5706,0.276894 -2.37349,0.802551 -1.21749,0.799751 -1.94576,1.772835 -2.18559,2.921394 -0.23983,1.146416 0.10971,2.386559 1.05075,3.716896 1.01564,1.435318 2.14026,2.272423 3.37454,2.511276 1.23497,0.24099 2.44226,-0.0275 3.62167,-0.80117 0.58348,-0.384003 1.09754,-0.866676 1.54285,-1.453636 0.44383,-0.58625 0.7765,-1.159805 0.99371,-1.72139 l -1.08368,-1.534691 -3.19098,2.094856 z"
       style="fill:#006b33"
       inkscape:connector-curvature="0" />
    <path
       id="path5331"
       d="m 225.7229,81.042213 -3.20636,1.71508 -2.94823,-2.223114 -5.83432,3.122902 0.46799,3.547798 -3.12518,1.673477 -1.6803,-15.826591 3.11714,-1.667847 13.20926,9.658295 z m -8.3409,-2.155434 -4.74411,-3.667572 0.76192,5.79837 3.98219,-2.130798 z"
       style="fill:#006b33"
       inkscape:connector-curvature="0" />
    <path
       id="path5333"
       d="m 227.37106,80.350281 -6.21019,-13.349144 4.93642,-2.132904 c 1.87042,-0.807503 3.1208,-1.267609 3.7504,-1.380348 0.96515,-0.176159 1.89965,-0.05637 2.8012,0.35936 0.90014,0.41713 1.59847,1.157684 2.09201,2.218147 0.38169,0.82019 0.53235,1.582619 0.45264,2.287247 -0.079,0.706017 -0.30638,1.331017 -0.68077,1.874275 -0.37584,0.544662 -0.8087,0.986496 -1.30153,1.322594 -0.67494,0.444611 -1.70811,0.967445 -3.10109,1.570618 l -2.00569,0.86599 2.34277,5.035248 -3.07617,1.328918 z m -2.08398,-12.420425 1.76297,3.788757 1.68324,-0.727867 c 1.21236,-0.524231 1.99034,-0.944214 2.33475,-1.260582 0.34369,-0.314957 0.56228,-0.672905 0.6552,-1.071022 0.0935,-0.397423 0.049,-0.792702 -0.1353,-1.187996 -0.22741,-0.485489 -0.57547,-0.815979 -1.04854,-0.992104 -0.47235,-0.173363 -0.97618,-0.192375 -1.51067,-0.05639 -0.39563,0.09795 -1.14656,0.385429 -2.25508,0.864571 l -1.48657,0.642632 z"
       style="fill:#006b33"
       inkscape:connector-curvature="0" />
    <path
       id="path5335"
       d="m 253.78818,74.806297 -2.08174,0.684174 c -1.61449,-1.094292 -2.98551,-2.331596 -4.11524,-3.710548 -1.12973,-1.378952 -1.95381,-2.802292 -2.47296,-4.270737 -0.64348,-1.819351 -0.89722,-3.659145 -0.75897,-5.517212 0.11916,-1.614311 0.44308,-3.172237 0.97107,-4.673782 l 2.07069,-0.681381 c -0.31,2.232254 -0.41453,4.079082 -0.31071,5.537659 0.10306,1.45998 0.419,2.939682 0.94987,4.438423 0.36412,1.033699 0.84816,2.056099 1.44995,3.066544 0.60181,1.011826 1.26569,1.943359 1.99329,2.793823 0.47823,0.56089 1.24745,1.338089 2.30475,2.333038 z"
       style="fill:#006b33"
       inkscape:connector-curvature="0" />
    <path
       id="path5337"
       d="m 260.74124,62.781147 -0.66174,-2.380924 7.01892,-1.809498 1.56402,5.628551 c -0.52139,0.753952 -1.3688,1.517761 -2.54165,2.292854 -1.17288,0.773674 -2.42249,1.332458 -3.7497,1.673485 -1.68762,0.434761 -3.24438,0.505219 -4.67089,0.20787 -1.42664,-0.295952 -2.61556,-0.93998 -3.56618,-1.930687 -0.95053,-0.990685 -1.61452,-2.164604 -1.99175,-3.520309 -0.40948,-1.471249 -0.419,-2.869232 -0.0329,-4.196018 0.38605,-1.324009 1.17358,-2.467628 2.36107,-3.428017 0.90375,-0.734924 2.12561,-1.302166 3.66629,-1.698151 2.00278,-0.5172 3.66916,-0.551739 4.99853,-0.107109 1.33075,0.446026 2.33692,1.276791 3.0206,2.490856 l -3.08792,1.364155 c -0.42038,-0.635574 -0.99951,-1.073128 -1.73807,-1.312721 -0.73855,-0.239593 -1.57717,-0.238148 -2.51608,0.0028 -1.42215,0.367107 -2.44439,1.054123 -3.06448,2.061733 -0.62081,1.007629 -0.71511,2.287216 -0.28296,3.842327 0.46574,1.677723 1.23938,2.825554 2.32449,3.444916 1.08222,0.61937 2.31497,0.751137 3.69336,0.395302 0.68292,-0.174736 1.33447,-0.469292 1.95526,-0.880783 0.62152,-0.410095 1.12967,-0.846252 1.52896,-1.307087 l -0.49798,-1.793266 -3.72919,0.959702 z"
       style="fill:#006b33"
       inkscape:connector-curvature="0" />
    <path
       id="path5339"
       d="m 277.47058,63.015083 0.32541,1.585411 -6.8317,1.303543 c -0.049,-0.612312 0.0563,-1.223228 0.31659,-1.83062 0.25888,-0.60667 0.84311,-1.457161 1.75202,-2.552845 0.73193,-0.885017 1.17135,-1.474083 1.31765,-1.765778 0.19599,-0.403065 0.25809,-0.777935 0.1872,-1.121773 -0.0776,-0.381214 -0.25668,-0.6525 -0.53165,-0.810337 -0.27493,-0.161339 -0.61929,-0.200802 -1.03021,-0.122593 -0.40732,0.07681 -0.70856,0.246624 -0.90381,0.506626 -0.19745,0.261414 -0.26175,0.644005 -0.19745,1.14925 l -1.97717,0.199383 c -0.0768,-0.961811 0.14697,-1.703766 0.67343,-2.22942 0.52725,-0.52565 1.24747,-0.875149 2.1622,-1.049904 1.00397,-0.190952 1.84119,-0.104271 2.51242,0.258621 0.67053,0.364998 1.07855,0.898392 1.2226,1.60302 0.0819,0.401619 0.079,0.798336 -0.011,1.191505 -0.0899,0.393902 -0.27197,0.824402 -0.54617,1.288078 -0.18207,0.308598 -0.52942,0.768021 -1.04346,1.378937 -0.5126,0.612309 -0.83649,1.01395 -0.96591,1.207027 -0.13089,0.193771 -0.23105,0.37698 -0.302,0.550297 l 3.871,-0.73843 z"
       style="fill:#006b33"
       inkscape:connector-curvature="0" />
    <path
       id="path5341"
       d="m 279.98889,68.59713 c 0.43067,-1.264809 0.72171,-2.22802 0.87448,-2.891785 0.15287,-0.663063 0.27133,-1.419098 0.35468,-2.266769 0.0841,-0.847691 0.11844,-1.646008 0.10385,-2.394329 -0.0154,-0.749027 -0.0855,-1.508617 -0.21207,-2.275948 -0.25665,-1.564976 -0.68954,-3.015087 -1.30081,-4.35458 -0.6113,-1.337387 -1.59482,-2.924191 -2.94824,-4.76046 l 2.14828,-0.326229 c 1.36441,1.240128 2.48905,2.604996 3.37528,4.093166 0.8855,1.490276 1.46243,3.048199 1.72925,4.678013 0.22525,1.373318 0.21872,2.884731 -0.019,4.529339 -0.27417,1.846832 -0.91546,3.726746 -1.92453,5.638405 l -2.18118,0.331177 z"
       style="fill:#006b33"
       inkscape:connector-curvature="0" />
  </g>
  <path
     style="fill:#ffff00;fill-opacity:1;fill-rule:evenodd;stroke:#ffff00;stroke-width:1px;stroke-linecap:butt;stroke-linejoin:miter;stroke-opacity:1"
     d="m 144.29209,73.045 23.78539,4.9861 -5.62198,25.4818 c 0,0 5.28182,-3.1538 12.73592,-7.6893 6.94707,-4.2269 10.46418,-5.3107 17.96748,-8.7034 5.4679,-2.3716 11.86209,-4.6173 17.36259,-6.8504 l 9.07319,-22.371 -21.59837,-10.6648 c 0,0 -7.20549,2.1298 -17.7234,6.5725 -6.80442,2.8742 -10.44062,4.4167 -18.27762,8.727 -8.5199,4.6859 -17.7032,10.5115 -17.7032,10.5115 z"
     id="path5513"
     inkscape:connector-curvature="0"
     sodipodi:nodetypes="cccsccccssc" />
  <path
     sodipodi:nodetypes="cccsscccssc"
     inkscape:connector-curvature="0"
     id="path5515"
     d="m 199.04474,46.6353 19.81883,13.0892 -7.2169,20.037 c 0,0 7.42939,-2.054 15.53689,-4.2253 6.7779,-1.8153 12.92232,-2.3979 17.37612,-3.2323 4.5076,-0.8444 15.59549,-1.4322 15.59549,-1.4322 l 13.4044,-19.6056 -16.71413,-16.0072 c 0,0 -13.5051,1.093 -18.1347,1.8724 -6.973,1.1739 -15.57256,2.8754 -20.27933,4.1124 -7.22493,1.8988 -19.38667,5.3916 -19.38667,5.3916 z"
     style="fill:#ffbf00;fill-opacity:1;fill-rule:evenodd;stroke:#ffbf00;stroke-width:1px;stroke-linecap:butt;stroke-linejoin:miter;stroke-opacity:1" />
  <path
     sodipodi:nodetypes="cccsscccssc"
     inkscape:connector-curvature="0"
     id="path5517"
     d="m 258.28534,35.0572 14.76717,16.9852 -11.6258,18.9328 c 0,0 9.23089,-0.1489 18.08329,-0.1516 5.2338,0 11.2495,-0.1418 15.7942,0.6382 4.5447,0.7804 12.37895,1.6134 12.37895,1.6134 L 328.10731,58.9316 311.1191,37.6754 c 0,0 -9.57486,-1.2528 -14.92676,-1.7392 -4.5283,-0.4115 -10.18276,-0.8301 -15.99786,-1.0017 -9.9427,-0.2934 -21.90914,0.1227 -21.90914,0.1227 z"
     style="fill:#ff8500;fill-opacity:1;fill-rule:evenodd;stroke:#ff8500;stroke-width:1px;stroke-linecap:butt;stroke-linejoin:miter;stroke-opacity:1" />
  <path
     style="fill:#ff4000;fill-opacity:1;fill-rule:evenodd;stroke:#ff4000;stroke-width:1px;stroke-linecap:butt;stroke-linejoin:miter;stroke-opacity:1"
     d="m 311.76753,38.0093 10.74387,20.7392 -14.93429,14.6822 c 0,0 7.64965,1.2211 18.26205,4.3171 5.3062,1.548 18.18684,5.4473 22.31654,7.0375 4.1297,1.5903 7.91694,3.721 7.91694,3.721 l 18.81756,-9.4422 -2.10031,-22.4317 c -1.4607,-0.9805 -12.16583,-5.1914 -17.14024,-7.0031 -6.07105,-2.2111 -17.56747,-5.9007 -23.04322,-7.3579 -8.0196,-2.1342 -20.8389,-4.2621 -20.8389,-4.2621 z"
     id="path5519"
     inkscape:connector-curvature="0"
     sodipodi:nodetypes="cccsscccssc" />
  <g
     id="g5355"
     transform="matrix(0.75503779,-0.78300292,0.75414195,0.72720761,-172.46856,326.4347)">
    <path
       id="path5357"
       d="m 386.32574,77.223137 6.62693,-13.159584 4.86694,2.277367 c 1.84335,0.861748 3.01184,1.488876 3.5062,1.884155 0.76113,0.600334 1.26638,1.366287 1.51361,2.298508 0.2471,0.932907 0.10818,1.92292 -0.41974,2.969971 -0.40732,0.807526 -0.91693,1.409256 -1.52823,1.803154 -0.61273,0.396011 -1.25553,0.627838 -1.92969,0.700394 -0.67416,0.07256 -1.30228,0.03593 -1.88654,-0.111328 -0.78817,-0.213509 -1.86895,-0.641212 -3.24142,-1.282425 l -1.97794,-0.925873 -2.50073,4.964096 -3.02939,-1.418434 z m 8.53833,-9.513847 -1.87921,3.733818 1.66056,0.776497 c 1.19555,0.558762 2.02838,0.864571 2.50073,0.915321 0.47238,0.05072 0.89725,-0.01762 1.2738,-0.203644 0.37656,-0.186028 0.66248,-0.473511 0.8584,-0.863167 0.24133,-0.479149 0.28009,-0.948433 0.11557,-1.409256 -0.16528,-0.460815 -0.47235,-0.846275 -0.92645,-1.154884 -0.33051,-0.228279 -1.0456,-0.598915 -2.13657,-1.109062 l -1.46683,-0.685623 z"
       style="fill:#8f0000"
       inkscape:connector-curvature="0" />
    <path
       id="path5359"
       d="m 427.28732,100.29681 9.50428,-11.407184 3.93612,3.04541 -4.12188,9.608974 8.81997,-5.974521 3.94324,3.052444 -9.50418,11.405067 -2.44223,-1.88981 7.48099,-8.978316 -10.06583,6.978586 -2.5322,-1.95813 4.90711,-10.971048 -7.48169,8.978338 -2.4437,-1.88981 z"
       style="fill:#8f0000"
       inkscape:connector-curvature="0" />
    <path
       id="path5361"
       d="m 476.69812,151.01367 -2.10376,-2.89392 1.98816,-3.05524 -3.82779,-5.26849 -3.61295,0.81879 -2.05105,-2.82274 16.15979,-3.25608 2.04367,2.81427 -8.59607,13.66341 z m 1.35931,-8.21733 3.29187,-4.92816 -5.90518,1.33385 2.61331,3.59431 z"
       style="fill:#8f0000"
       inkscape:connector-curvature="0" />
    <path
       id="path5363"
       d="m 493.30896,182.92897 11.78494,-4.33063 -1.76666,-4.46167 2.40067,-0.8822 4.72863,11.94974 -2.39755,0.88222 -1.76157,-4.45185 -11.78637,4.33063 -1.20209,-3.03624 z"
       style="fill:#8f0000"
       inkscape:connector-curvature="0" />
  </g>
  <g
     id="g5987">
    <rect
       transform="matrix(0.84819527,0.52968366,-0.52968366,0.84819527,0,0)"
       y="61.129765"
       x="569.11292"
       height="58.248669"
       width="76.079895"
       id="rect5785"
       style="opacity:1;fill:none;fill-opacity:1;stroke:#000000;stroke-width:2;stroke-miterlimit:4;stroke-dasharray:4.00000001,2;stroke-dashoffset:0;stroke-opacity:1" />
    <text
       sodipodi:linespacing="125%"
       id="text5787"
       y="487.50632"
       x="493.72681"
       style="font-style:normal;font-variant:normal;font-weight:normal;font-stretch:normal;font-size:22.5px;line-height:125%;font-family:'Noto Sans';-inkscape-font-specification:'Noto Sans, Normal';text-align:center;letter-spacing:0px;word-spacing:0px;writing-mode:lr-tb;text-anchor:middle;fill:#000000;fill-opacity:1;stroke:none;stroke-width:1px;stroke-linecap:butt;stroke-linejoin:miter;stroke-opacity:1"
       xml:space="preserve"><tspan
         style="font-size:15px"
         y="487.50632"
         x="493.72681"
         id="tspan5789"
         sodipodi:role="line">G<tspan
   id="tspan5797"
   style="font-size:64.99999762%;baseline-shift:sub">1</tspan>Checkpoint</tspan><tspan
         style="font-size:15px"
         id="tspan5791"
         y="506.25632"
         x="493.72681"
         sodipodi:role="line">(restriction)</tspan></text>
    <path
       inkscape:connector-curvature="0"
       id="path5799"
       d="m 497.61864,421.07839 0,48.1928"
       style="fill:none;fill-rule:evenodd;stroke:#000000;stroke-width:2;stroke-linecap:butt;stroke-linejoin:miter;stroke-opacity:1;stroke-miterlimit:4;stroke-dasharray:none" />
  </g>
  <rect
     transform="matrix(0.68053483,0.73271573,-0.73271573,0.68053483,0,0)"
     y="-54.484573"
     x="115.73863"
     height="58.248669"
     width="76.079895"
     id="rect5997"
     style="opacity:1;fill:none;fill-opacity:1;stroke:#000000;stroke-width:2;stroke-miterlimit:4;stroke-dasharray:4.00000001, 2;stroke-dashoffset:0;stroke-opacity:1" />
  <text
     sodipodi:linespacing="125%"
     id="text5999"
     y="15.176949"
     x="65.77739"
     style="font-style:normal;font-variant:normal;font-weight:normal;font-stretch:normal;font-size:22.5px;line-height:125%;font-family:'Noto Sans';-inkscape-font-specification:'Noto Sans, Normal';text-align:center;letter-spacing:0px;word-spacing:0px;writing-mode:lr-tb;text-anchor:middle;fill:#000000;fill-opacity:1;stroke:none;stroke-width:1px;stroke-linecap:butt;stroke-linejoin:miter;stroke-opacity:1"
     xml:space="preserve"><tspan
       style="font-size:15px"
       y="15.176949"
       x="65.77739"
       id="tspan6001"
       sodipodi:role="line">G<tspan
   id="tspan6003"
   style="font-size:64.99999762%;baseline-shift:sub">2</tspan>-M Checkpoint</tspan><tspan
       style="font-size:15px"
       id="tspan6005"
       y="33.926949"
       x="65.77739"
       sodipodi:role="line">(DNA damage)</tspan></text>
  <path
     inkscape:connector-curvature="0"
     id="path6007"
     d="M 66.043471,36.995508 98.654943,67.195142"
     style="fill:none;fill-rule:evenodd;stroke:#000000;stroke-width:1.84287453;stroke-linecap:butt;stroke-linejoin:miter;stroke-miterlimit:4;stroke-dasharray:none;stroke-opacity:1" />
  <rect
     style="opacity:1;fill:none;fill-opacity:1;stroke:#000000;stroke-width:2.001479;stroke-miterlimit:4;stroke-dasharray:4.002958,2.001479;stroke-dashoffset:0;stroke-opacity:1"
     id="rect6029"
     width="43.901115"
     height="38.59734"
     x="72.566696"
     y="-238.11127"
     transform="matrix(0.21402383,0.97682844,-0.98701477,0.16062951,0,0)" />
  <path
     style="fill:none;fill-rule:evenodd;stroke:#000000;stroke-width:1.84287453;stroke-linecap:butt;stroke-linejoin:miter;stroke-miterlimit:4;stroke-dasharray:none;stroke-opacity:1"
     d="m 239.25255,80.04248 4.87402,25.44464"
     id="path6031"
     inkscape:connector-curvature="0"
     sodipodi:nodetypes="cc" />
  <text
     xml:space="preserve"
     style="font-style:normal;font-variant:normal;font-weight:normal;font-stretch:normal;font-size:22.5px;line-height:125%;font-family:'Noto Sans';-inkscape-font-specification:'Noto Sans, Normal';text-align:center;letter-spacing:0px;word-spacing:0px;writing-mode:lr-tb;text-anchor:middle;fill:#000000;fill-opacity:1;stroke:none;stroke-width:1px;stroke-linecap:butt;stroke-linejoin:miter;stroke-opacity:1"
     x="254.60435"
     y="117.82546"
     id="text6033"
     sodipodi:linespacing="125%"><tspan
       sodipodi:role="line"
       id="tspan6035"
       x="254.60435"
       y="117.82546"
       style="font-size:15px">Metaphase Checkpoint</tspan><tspan
       sodipodi:role="line"
       x="254.60435"
       y="136.57547"
       id="tspan6039"
       style="font-size:15px">(Spindle Checkpoint)</tspan></text>
  <text
     xml:space="preserve"
     style="font-style:normal;font-variant:normal;font-weight:normal;font-stretch:normal;font-size:22.5px;line-height:125%;font-family:'Noto Sans';-inkscape-font-specification:'Noto Sans, Normal';text-align:center;letter-spacing:0px;word-spacing:0px;writing-mode:lr-tb;text-anchor:middle;fill:#000000;fill-opacity:1;stroke:none;stroke-width:1px;stroke-linecap:butt;stroke-linejoin:miter;stroke-opacity:1"
     id="text6073"
     sodipodi:linespacing="125%"><textPath
       xlink:href="#path6077"
       startOffset="50%"
       id="textPath6079"><tspan
   style="font-style:normal;font-variant:normal;font-weight:bold;font-stretch:normal;font-family:'Noto Sans';-inkscape-font-specification:'Noto Sans Bold';fill:#ffffff;fill-opacity:1"
   id="tspan6075">METAPHASE</tspan></textPath></text>
  <path
     style="fill:none;fill-opacity:1;fill-rule:evenodd;stroke:none;stroke-width:1px;stroke-linecap:butt;stroke-linejoin:miter;stroke-opacity:1"
     d="m 155.22565,57.748411 c 0,0 22.63988,-10.76649 34.46345,-14.850106 9.67863,-3.342798 19.62336,-6.026737 29.70021,-7.845339 11.17592,-2.016954 22.50882,-4.200563 33.90307,-5.043432 11.82909,-0.875035 23.72105,-0.521636 35.58422,0 9.69896,0.426473 19.33668,2.034556 28.85964,3.922669 9.75501,1.934122 19.3694,4.59254 28.85964,7.565149 11.67325,3.656388 34.46345,12.60858 34.46345,12.60858"
     id="path6077"
     inkscape:connector-curvature="0"
     sodipodi:nodetypes="cssasssc" />
</svg>
