<?xml version="1.0" encoding="UTF-8" standalone="no"?>
<!-- Created with Inkscape (http://www.inkscape.org/) -->

<svg
   xmlns:dc="http://purl.org/dc/elements/1.1/"
   xmlns:cc="http://creativecommons.org/ns#"
   xmlns:rdf="http://www.w3.org/1999/02/22-rdf-syntax-ns#"
   xmlns:svg="http://www.w3.org/2000/svg"
   xmlns="http://www.w3.org/2000/svg"
   xmlns:sodipodi="http://sodipodi.sourceforge.net/DTD/sodipodi-0.dtd"
   xmlns:inkscape="http://www.inkscape.org/namespaces/inkscape"
   width="640"
   height="680"
   viewBox="0 0 640.00001 680.00001"
   id="svg33998"
   version="1.1"
   inkscape:version="0.91 r"
   sodipodi:docname="leaf1.svg">
  <defs
     id="defs34000" />
  <sodipodi:namedview
     id="base"
     pagecolor="#ffffff"
     bordercolor="#666666"
     borderopacity="1.0"
     inkscape:pageopacity="0.0"
     inkscape:pageshadow="2"
     inkscape:zoom="0.98994949"
     inkscape:cx="110.22326"
     inkscape:cy="306.56129"
     inkscape:document-units="px"
     inkscape:current-layer="layer1"
     showgrid="false"
     inkscape:window-width="1680"
     inkscape:window-height="998"
     inkscape:window-x="0"
     inkscape:window-y="0"
     inkscape:window-maximized="1"
     units="px" />
  <metadata
     id="metadata34003">
    <rdf:RDF>
      <cc:Work
         rdf:about="">
        <dc:format>image/svg+xml</dc:format>
        <dc:type
           rdf:resource="http://purl.org/dc/dcmitype/StillImage" />
        <dc:title></dc:title>
        <cc:license
           rdf:resource="http://creativecommons.org/licenses/by-sa/3.0/" />
        <dc:creator>
          <cc:Agent>
            <dc:title>Jeremy seto</dc:title>
          </cc:Agent>
        </dc:creator>
      </cc:Work>
      <cc:License
         rdf:about="http://creativecommons.org/licenses/by-sa/3.0/">
        <cc:permits
           rdf:resource="http://creativecommons.org/ns#Reproduction" />
        <cc:permits
           rdf:resource="http://creativecommons.org/ns#Distribution" />
        <cc:requires
           rdf:resource="http://creativecommons.org/ns#Notice" />
        <cc:requires
           rdf:resource="http://creativecommons.org/ns#Attribution" />
        <cc:permits
           rdf:resource="http://creativecommons.org/ns#DerivativeWorks" />
        <cc:requires
           rdf:resource="http://creativecommons.org/ns#ShareAlike" />
      </cc:License>
    </rdf:RDF>
  </metadata>
  <g
     inkscape:label="Layer 1"
     inkscape:groupmode="layer"
     id="layer1"
     transform="translate(0,-372.36218)">
    <g
       id="g34727"
       style="fill:none;fill-opacity:1;stroke:#003200;stroke-opacity:1"
       transform="matrix(1.0043424,0,0,1.0043424,-12.667957,262.52056)">
      <path
         inkscape:connector-curvature="0"
         id="path34661"
         d="m 225.26402,111.91018 -8.08122,4.54569 -3.53554,4.04061 -5.55584,3.03046 -2.0203,6.06091 -3.53553,8.08122 -3.53554,-4.04061 -5.55584,1.51523 -2.52538,7.07107 -5.55584,3.03046 -3.03046,-0.50508 -4.54568,-0.50507 -1.51523,4.04061 -4.54569,2.52538 -3.53553,7.07107 -8.5863,-4.54569 -6.56599,-7.57615 -6.06091,5.55584 -4.04061,6.06092 -2.52539,8.08122 -6.56599,6.56599 -4.04061,10.6066 -2.0203,7.57615 -1.51523,8.58629 -4.54569,9.09138 -2.52538,12.12183 -1.01015,7.57614 -25.758892,-29.29442 -1.515229,3.03045 -6.565991,-9.09137 -6.565992,-7.57614 -8.08122,-5.05076 -6.060916,-1.51523 -6.565991,-1.51523 1.010152,4.04061 -11.616754,-10.6066 1.010153,3.03045 -11.111678,-10.10152 -0.505077,2.52538 -10.606601,-10.6066 -5.555839,-4.54569 -4.040611,-1.51523 -0.505076,16.66752 2.020305,12.12183 2.525382,10.10153 3.535534,6.56599 -5.050763,2.52538 0.505076,4.54568 0.505076,7.07107 3.030458,9.09138 1.515229,10.6066 -7.576144,4.04061 -3.030458,3.53553 1.010153,10.10153 2.020305,14.64721 5.050762,9.59645 4.545687,3.53553 -4.04061,4.04061 5.050762,5.55584 0,5.05076 5.555839,4.54569 -6.060915,1.01015 11.616754,11.61676 9.091373,7.57614 -15.152288,13.13198 2.525382,5.05077 4.545686,4.54568 5.555839,7.07107 4.04061,-1.01015 -5.555839,5.55584 8.586297,5.05076 0,3.03046 11.111678,5.05076 -5.050763,4.04061 14.647212,7.57615 9.596449,1.51522 4.545687,-1.01015 -4.545687,3.03046 9.091373,5.55584 10.606601,1.01015 10.6066,-1.51523 11.11168,0 10.10153,-1.01015 12.12183,-4.54569 14.1203,-16.11003 1.53706,15.09988 2.02031,7.57614 5.55584,0.50508 7.07106,4.54569 6.06092,4.54568 8.58629,4.54569 6.06092,1.51523 6.56599,0 -3.03046,-3.53554 11.61676,2.02031 -4.04061,-4.04061 9.09137,0.50508 5.55584,-0.50508 -4.54569,-3.03046 5.05077,-1.51523 6.06091,-2.0203 5.05076,-1.01015 -4.04061,-2.52539 8.08122,1.01016 2.02031,-1.01016 4.54569,-3.53553 -3.53554,-4.04061 10.10153,-1.51523 -1.51523,-1.51523 9.09137,-1.51523 1.01015,-1.51523 -3.03045,-3.53553 10.6066,-3.03046 0.50507,-2.0203 -3.53553,-5.55584 -4.04061,-6.06092 16.16244,-11.11167 13.63706,-9.59645 -3.53553,-1.01016 10.6066,-9.59644 -2.02031,-2.52539 6.56599,-6.06091 -2.0203,-2.52538 3.03046,-7.57615 -4.04061,-4.04061 -2.52538,-1.51523 7.57614,-4.54568 5.05076,-5.55584 -4.04061,-2.52538 6.06092,-5.55584 -1.51523,-3.53554 4.04061,-2.0203 0.50508,-5.55584 -1.51523,-4.04061 -2.52538,-1.51523 4.54568,-8.5863 -1.51523,0.50508 6.06092,-6.56599 -1.51523,-3.53553 6.06091,-5.05077 -1.51522,-3.03046 7.57614,-16.16244 -7.57614,2.52539 -4.54569,4.04061 -3.03046,-2.02031 -3.53553,2.52538 -7.57615,4.04061 -5.55584,0.50508 0.50508,-3.03046 -5.05076,2.52538 -1.01015,-2.0203 -6.06092,4.54568 -1.51523,-2.52538 -10.10152,7.07107 -3.53554,-2.52538 -4.54568,-1.51523 -6.566,2.52538 -5.05076,1.01015 -3.03046,3.53554 -2.0203,2.0203 -1.51523,-4.04061 -4.54569,1.01016 2.52538,-4.04062 -4.04061,-0.50507 6.06092,-6.06092 -0.50508,-2.52538 2.52539,-2.52538 -1.51523,-3.03046 -3.53554,-1.51523 -2.52538,0.50508 6.56599,-11.61675 -0.50507,-3.03046 2.0203,-6.06092 -3.03046,-2.52538 2.02031,-9.09137 -2.52538,-2.02031 5.55584,-6.06091 -3.53554,-3.53554 0,-5.05076 -2.52538,-2.0203 -2.52538,-1.01016 -6.56599,-1.51522 -3.53554,-1.51523 -0.50507,-9.09138 -0.50508,-3.53553 0.50508,-4.54569 1.01015,-7.57614 -3.53553,-3.03046 1.51523,-5.05076 -1.51523,-6.06092 0,-5.55584 z"
         style="fill:none;fill-opacity:1;fill-rule:evenodd;stroke:#003200;stroke-width:1px;stroke-linecap:butt;stroke-linejoin:miter;stroke-opacity:1"
         sodipodi:nodetypes="cccccccccccccccccccccccccccccccccccccccccccccccccccccccccccccccccccccccccccccccccccccccccccccccccccccccccccccccccccccccccccccccccccccccccccccccccccccccccccccccccccccccccccccccccccccccccccccccc" />
      <path
         inkscape:connector-curvature="0"
         id="path34663"
         d="m 159.6041,358.89248 7.57615,-57.07362 4.04061,-20.20305 4.54568,-26.76904 8.08122,-21.71828 9.59645,-30.30458 3.53554,-14.64721 7.07106,-19.69797 6.06092,-16.66752 5.55584,-0.50508 7.07107,-4.04061 5.05076,-3.03045"
         style="fill:none;fill-opacity:1;fill-rule:evenodd;stroke:#003200;stroke-width:1px;stroke-linecap:butt;stroke-linejoin:miter;stroke-opacity:1" />
      <path
         inkscape:connector-curvature="0"
         id="path34665"
         d="m 209.60665,152.31629 1.51523,-4.04061 -6.06091,-8.5863"
         style="fill:none;fill-opacity:1;fill-rule:evenodd;stroke:#003200;stroke-width:1px;stroke-linecap:butt;stroke-linejoin:miter;stroke-opacity:1" />
      <path
         inkscape:connector-curvature="0"
         id="path34667"
         d="m 205.52985,166.12328 -7.03487,-9.26131 -2.52539,-7.57614"
         style="fill:none;fill-opacity:1;fill-rule:evenodd;stroke:#003200;stroke-width:1px;stroke-linecap:butt;stroke-linejoin:miter;stroke-opacity:1"
         sodipodi:nodetypes="ccc" />
      <path
         inkscape:connector-curvature="0"
         id="path34669"
         d="m 201.41215,174.24069 c 0,0 7.68943,-2.73151 9.70973,-3.74166 2.02031,-1.01015 7.57615,-1.01015 7.57615,-1.01015 l 4.54568,-2.52538"
         style="fill:none;fill-opacity:1;fill-rule:evenodd;stroke:#003200;stroke-width:1px;stroke-linecap:butt;stroke-linejoin:miter;stroke-opacity:1"
         sodipodi:nodetypes="cscc" />
      <path
         inkscape:connector-curvature="0"
         id="path34671"
         d="M 195.7116,193.47236 181.32238,177.06502 179.80715,166.9635"
         style="fill:none;fill-opacity:1;fill-rule:evenodd;stroke:#003200;stroke-width:1px;stroke-linecap:butt;stroke-linejoin:miter;stroke-opacity:1"
         sodipodi:nodetypes="ccc" />
      <path
         inkscape:connector-curvature="0"
         id="path34673"
         d="m 188.4,217.7182 17.16604,-10.85368 15.15229,-9.59645 10.10153,-6.06091 7.07106,-9.09137 4.54569,-4.04061"
         style="fill:none;fill-opacity:1;fill-rule:evenodd;stroke:#003200;stroke-width:1px;stroke-linecap:butt;stroke-linejoin:miter;stroke-opacity:1"
         sodipodi:nodetypes="cccccc" />
      <path
         inkscape:connector-curvature="0"
         id="path34675"
         d="m 178.28974,247.26189 -13.63488,-30.80092 -6.56599,-17.17259 -4.04061,-12.62691 -1.51523,-4.04061"
         style="fill:none;fill-opacity:1;fill-rule:evenodd;stroke:#003200;stroke-width:1px;stroke-linecap:butt;stroke-linejoin:miter;stroke-opacity:1"
         sodipodi:nodetypes="ccccc" />
      <path
         inkscape:connector-curvature="0"
         id="path34677"
         d="M 158.59395,359.64464 133.84521,332.62852 116.67262,315.45592 95.459416,286.1615 80.307127,264.44322 61.114229,234.13864 50.002551,213.43052 34.850263,185.14624 21.71828,162.92289"
         style="fill:none;fill-opacity:1;fill-rule:evenodd;stroke:#003200;stroke-width:1px;stroke-linecap:butt;stroke-linejoin:miter;stroke-opacity:1"
         sodipodi:nodetypes="ccccccccc" />
      <path
         inkscape:connector-curvature="0"
         id="path34679"
         d="m 102.53048,296.26302 -17.677666,2.52539 -20.708127,-1.01016 -10.606602,-6.06091 -13.131983,-6.56599 -3.030458,-3.03046"
         style="fill:none;fill-opacity:1;fill-rule:evenodd;stroke:#003200;stroke-width:1px;stroke-linecap:butt;stroke-linejoin:miter;stroke-opacity:1" />
      <path
         inkscape:connector-curvature="0"
         id="path34681"
         d="M 83.331034,269.23817 71.720831,268.98891 47.47717,259.39246 36.870568,256.362 24.748737,247.7757 19.697975,242.72494"
         style="fill:none;fill-opacity:1;fill-rule:evenodd;stroke:#003200;stroke-width:1px;stroke-linecap:butt;stroke-linejoin:miter;stroke-opacity:1"
         sodipodi:nodetypes="cccccc" />
      <path
         inkscape:connector-curvature="0"
         id="path34683"
         d="m 37.375644,256.86707 -7.576144,5.55584 -7.576144,0"
         style="fill:none;fill-opacity:1;fill-rule:evenodd;stroke:#003200;stroke-width:1px;stroke-linecap:butt;stroke-linejoin:miter;stroke-opacity:1" />
      <path
         inkscape:connector-curvature="0"
         id="path34685"
         d="m 60.357707,232.61249 5.302208,-17.66675 4.040611,-9.59644 0,-8.5863"
         style="fill:none;fill-opacity:1;fill-rule:evenodd;stroke:#003200;stroke-width:1px;stroke-linecap:butt;stroke-linejoin:miter;stroke-opacity:1"
         sodipodi:nodetypes="cccc" />
      <path
         inkscape:connector-curvature="0"
         id="path34687"
         d="m 59.093924,229.59296 -9.596449,0.50507 -9.596449,-2.0203 -6.565992,-1.51523"
         style="fill:none;fill-opacity:1;fill-rule:evenodd;stroke:#003200;stroke-width:1px;stroke-linecap:butt;stroke-linejoin:miter;stroke-opacity:1" />
      <path
         inkscape:connector-curvature="0"
         id="path34689"
         d="m 49.751105,212.66308 5.302209,-7.81886 2.020305,-4.54569"
         style="fill:none;fill-opacity:1;fill-rule:evenodd;stroke:#003200;stroke-width:1px;stroke-linecap:butt;stroke-linejoin:miter;stroke-opacity:1"
         sodipodi:nodetypes="ccc" />
      <path
         inkscape:connector-curvature="0"
         id="path34691"
         d="m 49.497475,212.42036 -5.555839,-1.01015 -11.616755,-2.52538 -7.576144,-4.54569"
         style="fill:none;fill-opacity:1;fill-rule:evenodd;stroke:#003200;stroke-width:1px;stroke-linecap:butt;stroke-linejoin:miter;stroke-opacity:1" />
      <path
         inkscape:connector-curvature="0"
         id="path34693"
         d="m 42.935851,201.80284 5.046395,-9.08045 2.020305,-6.06092"
         style="fill:none;fill-opacity:1;fill-rule:evenodd;stroke:#003200;stroke-width:1px;stroke-linecap:butt;stroke-linejoin:miter;stroke-opacity:1"
         sodipodi:nodetypes="ccc" />
      <path
         inkscape:connector-curvature="0"
         id="path34695"
         d="m 159.09903,360.40771 -16.16244,-3.53553 -17.1726,-2.52538 -18.18274,-6.566 -16.667521,-4.54568 -24.243661,-9.59645 -12.121831,-3.53554 -11.111678,-2.52538"
         style="fill:none;fill-opacity:1;fill-rule:evenodd;stroke:#003200;stroke-width:1px;stroke-linecap:butt;stroke-linejoin:miter;stroke-opacity:1" />
      <path
         inkscape:connector-curvature="0"
         id="path34697"
         d="m 96.976828,288.93396 7.573962,-8.83338 5.55584,-13.63706 0.50507,-3.03045"
         style="fill:none;fill-opacity:1;fill-rule:evenodd;stroke:#003200;stroke-width:1px;stroke-linecap:butt;stroke-linejoin:miter;stroke-opacity:1"
         sodipodi:nodetypes="cccc" />
      <path
         inkscape:connector-curvature="0"
         id="path34699"
         d="m 77.281037,260.6475 8.076853,-14.8921 5.555839,-9.59645"
         style="fill:none;fill-opacity:1;fill-rule:evenodd;stroke:#003200;stroke-width:1px;stroke-linecap:butt;stroke-linejoin:miter;stroke-opacity:1"
         sodipodi:nodetypes="ccc" />
      <path
         inkscape:connector-curvature="0"
         id="path34701"
         d="m 160.10918,359.90263 32.32488,-22.22335 22.22336,-17.67767 16.16244,-14.14214 20.20305,-20.70812 24.74874,-20.20305 16.16244,-14.64722 8.58629,-7.57614 13.63706,-12.62691"
         style="fill:none;fill-opacity:1;fill-rule:evenodd;stroke:#003200;stroke-width:1px;stroke-linecap:butt;stroke-linejoin:miter;stroke-opacity:1" />
      <path
         inkscape:connector-curvature="0"
         id="path34703"
         d="m 230.0677,305.86166 20.45013,3.53335 23.73859,-1.01016 20.20305,-6.56599"
         style="fill:none;fill-opacity:1;fill-rule:evenodd;stroke:#003200;stroke-width:1px;stroke-linecap:butt;stroke-linejoin:miter;stroke-opacity:1"
         sodipodi:nodetypes="cccc" />
      <path
         inkscape:connector-curvature="0"
         id="path34705"
         d="m 274.01153,308.64067 10.85149,5.30002 5.55584,1.51523"
         style="fill:none;fill-opacity:1;fill-rule:evenodd;stroke:#003200;stroke-width:1px;stroke-linecap:butt;stroke-linejoin:miter;stroke-opacity:1"
         sodipodi:nodetypes="ccc" />
      <path
         inkscape:connector-curvature="0"
         id="path34707"
         d="m 215.93212,318.74438 21.45373,11.86383 18.18274,2.52538 17.67767,-5.55584 6.566,-1.01015"
         style="fill:none;fill-opacity:1;fill-rule:evenodd;stroke:#003200;stroke-width:1px;stroke-linecap:butt;stroke-linejoin:miter;stroke-opacity:1"
         sodipodi:nodetypes="ccccc" />
      <path
         inkscape:connector-curvature="0"
         id="path34709"
         d="m 160.61425,359.90263 32.82996,5.05077 14.14214,-1.01016 23.23351,-3.03045 20.70812,-2.52538 4.04061,-1.51523"
         style="fill:none;fill-opacity:1;fill-rule:evenodd;stroke:#003200;stroke-width:1px;stroke-linecap:butt;stroke-linejoin:miter;stroke-opacity:1" />
      <path
         inkscape:connector-curvature="0"
         id="path34711"
         d="m 251.02291,285.65642 9.59645,7.07107 8.08122,1.01015"
         style="fill:none;fill-opacity:1;fill-rule:evenodd;stroke:#003200;stroke-width:1px;stroke-linecap:butt;stroke-linejoin:miter;stroke-opacity:1" />
      <path
         inkscape:connector-curvature="0"
         id="path34713"
         d="m 260.87736,277.07013 19.43997,7.57614 9.09137,0.50508 7.57615,-3.53554 4.54568,0"
         style="fill:none;fill-opacity:1;fill-rule:evenodd;stroke:#003200;stroke-width:1px;stroke-linecap:butt;stroke-linejoin:miter;stroke-opacity:1"
         sodipodi:nodetypes="ccccc" />
      <path
         inkscape:connector-curvature="0"
         id="path34715"
         d="m 276.27672,264.9483 c 2.02031,0 11.11168,3.53553 11.11168,3.53553 l 13.63706,-0.50508 5.55584,-1.01015"
         style="fill:none;fill-opacity:1;fill-rule:evenodd;stroke:#003200;stroke-width:1px;stroke-linecap:butt;stroke-linejoin:miter;stroke-opacity:1" />
      <path
         inkscape:connector-curvature="0"
         id="path34717"
         d="m 169.70563,291.71734 21.2132,-13.13199 14.64721,-10.6066 5.05077,-11.61675 12.12183,-17.67767 6.56599,-9.59645"
         style="fill:none;fill-opacity:1;fill-rule:evenodd;stroke:#003200;stroke-width:1px;stroke-linecap:butt;stroke-linejoin:miter;stroke-opacity:1" />
      <path
         inkscape:connector-curvature="0"
         id="path34719"
         d="m 205.8284,267.72075 13.87978,-0.75215 7.07107,-2.0203"
         style="fill:none;fill-opacity:1;fill-rule:evenodd;stroke:#003200;stroke-width:1px;stroke-linecap:butt;stroke-linejoin:miter;stroke-opacity:1"
         sodipodi:nodetypes="ccc" />
      <path
         inkscape:connector-curvature="0"
         id="path34721"
         d="m 174.5115,264.68811 10.85149,-3.27535 3.53554,-1.51523"
         style="fill:none;fill-opacity:1;fill-rule:evenodd;stroke:#003200;stroke-width:1px;stroke-linecap:butt;stroke-linejoin:miter;stroke-opacity:1"
         sodipodi:nodetypes="ccc" />
      <path
         inkscape:connector-curvature="0"
         id="path34723"
         d="m 174.75639,261.41276 -12.12183,-7.57614 -9.09137,-7.07107"
         style="fill:none;fill-opacity:1;fill-rule:evenodd;stroke:#003200;stroke-width:1px;stroke-linecap:butt;stroke-linejoin:miter;stroke-opacity:1" />
      <path
         inkscape:connector-curvature="0"
         id="path34725"
         d="m 179.05719,246.25829 12.87179,-0.50289 4.04061,-2.02031"
         style="fill:none;fill-opacity:1;fill-rule:evenodd;stroke:#003200;stroke-width:1px;stroke-linecap:butt;stroke-linejoin:miter;stroke-opacity:1"
         sodipodi:nodetypes="ccc" />
    </g>
    <g
       id="g34830"
       style="stroke:#003200;stroke-opacity:1"
       transform="matrix(1.0043424,0,0,1.0043424,-12.667957,262.52056)">
      <path
         inkscape:connector-curvature="0"
         id="path34762"
         d="m 296.98485,641.23012 9.09137,-14.64721 4.04061,-4.54569 -2.0203,-3.03046 5.05076,-4.04061 -2.02031,-3.53553 4.54569,-3.03046 -3.03046,-4.04061 4.54569,-5.05076 -4.04061,-2.52538 5.05076,-6.06092 -2.52538,-6.06091 -5.55584,-4.04061 -2.52538,1.01015 -2.52538,-9.59645 -3.03046,-5.05076 -5.55584,-6.566 -5.05076,-2.52538 -0.50508,6.566 -8.08122,-11.11168 -3.03045,-3.53554 0,3.53554 -7.57615,-5.55584 -3.03046,-3.53554 0,2.52539 -7.57614,-2.52539 -6.06092,5.05077 -1.51522,3.03045 -14.14214,-13.13198 -2.52538,-1.01015 -0.50508,2.52538 -3.53553,-2.52538 -5.05076,-4.04061 -2.02031,2.0203 -5.55584,-4.04061 -6.56599,-3.53553 -0.50508,3.53553 -4.04061,-3.53553 -2.0203,2.0203 -3.53554,-0.50507 -4.54568,3.03046 -2.02031,2.0203 -12.12183,-1.51523 -9.09137,-1.51523 -9.59645,0 -6.56599,0 -2.52538,3.03046 -5.55584,0 -4.04061,-2.52538 -6.06092,3.03046 -7.57614,0 -3.03046,-1.51523 -4.54569,0 -7.07106,0.50507 -4.54569,-0.50507 8.5863,8.5863 3.53553,5.05076 10.10153,5.05076 -1.01016,2.52538 6.06092,5.55584 -1.01015,4.04061 8.08122,7.07107 -3.53554,6.06091 9.59645,12.12183 12.62691,11.11168 -0.50508,7.07107 -20.70812,0.50508 -9.59645,3.53553 -7.07107,3.03046 -7.57615,1.01015 -5.55583,2.02031 -4.04061,4.04061 -6.566,2.0203 -7.071064,3.53554 4.545684,8.08122 2.52538,8.08122 -9.596446,5.55584 -8.08122,4.54568 -5.555839,4.54569 2.020305,4.54568 -8.08122,5.05077 -7.071068,5.55584 -1.515229,4.04061 -6.565991,-0.50508 -5.050763,4.54569 c 0,0 -3.535534,4.04061 -1.515229,4.04061 2.020305,0 12.121831,2.52538 12.121831,2.52538 l 19.697974,2.0203 1.515229,3.53554 16.667516,3.03045 13.63706,1.51523 2.52538,7.57615 -1.01015,5.05076 20.20305,4.04061 23.73858,-5.55584 11.11168,-8.08122 17.67767,1.01015 4.04061,1.01016 -5.05076,12.12183 -0.50508,5.55584 1.51523,10.10152 5.05077,1.51523 -3.53554,8.08122 -4.54569,8.08122 0.50508,9.59645 1.51523,2.52538 -3.03046,8.5863 -4.04061,12.6269 0,3.03046 11.11168,-4.54568 11.11168,-6.566 9.59645,-4.04061 6.56599,-6.06091 6.06091,-1.51523 8.5863,-9.09137 4.54569,3.53553 10.10152,-3.03046 21.21321,-7.57614 9.59645,-16.66752 8.58629,3.53554 3.03046,3.53553 6.06091,-8.08122 5.05077,-3.03046 3.53553,0 0,-7.07107 5.05076,-1.51522 4.04061,-1.51523 -2.0203,-9.09138 1.51523,-9.09137 5.55584,-3.53553 2.0203,-5.05077 0.50508,-14.14213 -1.51523,-8.08122 -5.55584,-10.6066 -11.61675,-7.07107 -5.05077,-1.51523 z"
         style="fill:none;fill-rule:evenodd;stroke:#003200;stroke-width:1px;stroke-linecap:butt;stroke-linejoin:miter;stroke-opacity:1" />
      <path
         inkscape:connector-curvature="0"
         id="path34764"
         d="m 77.27667,679.61592 15.657364,-2.52539 21.213206,-6.06091 25.75889,-5.05076 43.43656,-10.60661 53.53808,-6.06091 60.60915,-7.07107 -12.6269,-13.13198 L 253.04321,606.88493 234.35539,591.22757 206.5762,578.09558 179.30208,562.9433 157.5838,551.83162 131.31983,540.21486"
         style="fill:none;fill-rule:evenodd;stroke:#003200;stroke-width:1px;stroke-linecap:butt;stroke-linejoin:miter;stroke-opacity:1" />
      <path
         inkscape:connector-curvature="0"
         id="path34766"
         d="m 297.23193,642.23808 -22.97551,29.80169 -10.60661,15.65737 -13.63705,17.17259 -10.60661,12.62691 -13.63706,17.17259 -10.6066,10.6066 -11.11168,17.17259"
         style="fill:none;fill-rule:evenodd;stroke:#003200;stroke-width:1px;stroke-linecap:butt;stroke-linejoin:miter;stroke-opacity:1"
         sodipodi:nodetypes="cccccccc" />
      <path
         inkscape:connector-curvature="0"
         id="path34768"
         d="m 182.33253,655.87733 -16.66751,-9.59645 -24.74874,-9.09137 -18.18275,-7.07107 -13.63706,-3.03046"
         style="fill:none;fill-rule:evenodd;stroke:#003200;stroke-width:1px;stroke-linecap:butt;stroke-linejoin:miter;stroke-opacity:1" />
      <path
         inkscape:connector-curvature="0"
         id="path34770"
         d="m 114.90158,670.77599 -11.36094,-7.32252 -10.606606,-5.55583"
         style="fill:none;fill-rule:evenodd;stroke:#003200;stroke-width:1px;stroke-linecap:butt;stroke-linejoin:miter;stroke-opacity:1"
         sodipodi:nodetypes="ccc" />
      <path
         inkscape:connector-curvature="0"
         id="path34772"
         d="m 209.10158,687.19206 6.56599,-6.06092 11.61675,-14.14213 10.10153,-16.66752 -9.59645,-7.57614 -14.64721,-11.11168 -13.63706,-6.06092 -11.61676,-6.06091"
         style="fill:none;fill-rule:evenodd;stroke:#003200;stroke-width:1px;stroke-linecap:butt;stroke-linejoin:miter;stroke-opacity:1" />
      <path
         inkscape:connector-curvature="0"
         id="path34774"
         d="m 179.30208,656.38241 -11.61676,17.17259 -12.6269,12.12183 c 0,0 -12.62691,13.63706 -15.15229,14.14214 -2.52538,0.50507 -13.13199,7.57614 -13.13199,7.57614"
         style="fill:none;fill-rule:evenodd;stroke:#003200;stroke-width:1px;stroke-linecap:butt;stroke-linejoin:miter;stroke-opacity:1" />
      <path
         inkscape:connector-curvature="0"
         id="path34776"
         d="m 139.40105,665.97886 -12.12183,-9.59645 -9.59645,-5.05077 -5.05076,-9.09137"
         style="fill:none;fill-rule:evenodd;stroke:#003200;stroke-width:1px;stroke-linecap:butt;stroke-linejoin:miter;stroke-opacity:1" />
      <path
         inkscape:connector-curvature="0"
         id="path34778"
         d="m 117.17115,650.56857 -13.12544,0.258"
         style="fill:none;fill-rule:evenodd;stroke:#003200;stroke-width:1px;stroke-linecap:butt;stroke-linejoin:miter;stroke-opacity:1"
         sodipodi:nodetypes="cc" />
      <path
         inkscape:connector-curvature="0"
         id="path34780"
         d="M 232.32854,589.97034 210.61681,603.3494"
         style="fill:none;fill-rule:evenodd;stroke:#003200;stroke-width:1px;stroke-linecap:butt;stroke-linejoin:miter;stroke-opacity:1"
         sodipodi:nodetypes="cc" />
      <path
         inkscape:connector-curvature="0"
         id="path34782"
         d="m 207.32616,579.10355 -11.86164,10.60879"
         style="fill:none;fill-rule:evenodd;stroke:#003200;stroke-width:1px;stroke-linecap:butt;stroke-linejoin:miter;stroke-opacity:1"
         sodipodi:nodetypes="cc" />
      <path
         inkscape:connector-curvature="0"
         id="path34784"
         d="m 180.55712,564.2049 -14.8921,7.32469 -7.07107,0.50508"
         style="fill:none;fill-rule:evenodd;stroke:#003200;stroke-width:1px;stroke-linecap:butt;stroke-linejoin:miter;stroke-opacity:1"
         sodipodi:nodetypes="ccc" />
      <path
         inkscape:connector-curvature="0"
         id="path34786"
         d="m 159.59755,553.0954 -7.56959,4.79713 -7.57615,0.50508"
         style="fill:none;fill-rule:evenodd;stroke:#003200;stroke-width:1px;stroke-linecap:butt;stroke-linejoin:miter;stroke-opacity:1"
         sodipodi:nodetypes="ccc" />
      <path
         inkscape:connector-curvature="0"
         id="path34788"
         d="m 232.84016,590.21741 c 0,-2.0203 -1.01015,-17.17259 -1.51523,-20.20305 -0.50507,-3.03045 -8.58629,-16.66751 -8.58629,-16.66751 l -8.08122,-13.13199 -5.05077,-4.54568"
         style="fill:none;fill-rule:evenodd;stroke:#003200;stroke-width:1px;stroke-linecap:butt;stroke-linejoin:miter;stroke-opacity:1" />
      <path
         inkscape:connector-curvature="0"
         id="path34790"
         d="m 250.51128,705.11681 -14.64066,-5.29784 -7.57614,-2.02031"
         style="fill:none;fill-rule:evenodd;stroke:#003200;stroke-width:1px;stroke-linecap:butt;stroke-linejoin:miter;stroke-opacity:1"
         sodipodi:nodetypes="ccc" />
      <path
         inkscape:connector-curvature="0"
         id="path34792"
         d="m 264.66215,685.93702 7.06888,18.93271 1.01016,17.17259 -0.50508,6.06092"
         style="fill:none;fill-rule:evenodd;stroke:#003200;stroke-width:1px;stroke-linecap:butt;stroke-linejoin:miter;stroke-opacity:1"
         sodipodi:nodetypes="cccc" />
      <path
         inkscape:connector-curvature="0"
         id="path34794"
         d="m 113.63343,671.03617 -7.06234,12.11528 -6.06091,7.57614"
         style="fill:none;fill-rule:evenodd;stroke:#003200;stroke-width:1px;stroke-linecap:butt;stroke-linejoin:miter;stroke-opacity:1"
         sodipodi:nodetypes="ccc" />
      <path
         inkscape:connector-curvature="0"
         id="path34796"
         d="m 132.8307,667.24701 -5.0464,15.39936 -4.54569,6.06092 -9.59645,3.53553 -5.05076,2.02031"
         style="fill:none;fill-rule:evenodd;stroke:#003200;stroke-width:1px;stroke-linecap:butt;stroke-linejoin:miter;stroke-opacity:1"
         sodipodi:nodetypes="ccccc" />
      <path
         inkscape:connector-curvature="0"
         id="path34798"
         d="m 293.44931,721.03217 2.52539,-17.17259 3.03045,-22.22336 -2.0203,-22.22336 0,-17.67767 -7.57615,-22.22335 c 0,0 -5.55583,-32.32488 -6.06091,-34.34519 -0.50508,-2.0203 -8.08122,-18.18274 -8.08122,-18.18274 l -8.08122,-10.10153"
         style="fill:none;fill-rule:evenodd;stroke:#003200;stroke-width:1px;stroke-linecap:butt;stroke-linejoin:miter;stroke-opacity:1" />
      <path
         inkscape:connector-curvature="0"
         id="path34800"
         d="m 262.6353,689.45944 -15.14793,-8.3283 -10.10152,-5.05076"
         style="fill:none;fill-rule:evenodd;stroke:#003200;stroke-width:1px;stroke-linecap:butt;stroke-linejoin:miter;stroke-opacity:1"
         sodipodi:nodetypes="ccc" />
    </g>
    <g
       id="g34852"
       style="stroke:#003200;stroke-opacity:1"
       transform="matrix(1.0043424,0,0,1.0043424,-120.27607,286.91173)">
      <path
         inkscape:connector-curvature="0"
         id="path34802"
         d="m 194.45437,437.68438 -3.53554,-8.5863 -4.54569,-5.55584 1.51523,-7.57614 3.53554,-5.55584 2.0203,1.01015 2.02031,-4.54568 3.53553,-3.53554 2.02031,1.51523 2.0203,-3.53553 5.55584,-3.53554 3.03046,8.5863 6.06091,-5.05076 3.53554,2.52538 8.08122,-5.05076 -0.50508,2.52538 9.59645,-3.03046 1.51523,2.52538 11.11168,-4.04061 7.07107,-2.0203 -3.53554,7.07107 -3.53553,7.07106 -1.51523,6.06092 -1.01015,5.05076 5.05076,0.50508 11.11168,0 6.06091,0 -1.01015,1.51523 9.09137,-1.51523 2.52538,1.51523 4.54569,-0.50508 1.01015,1.51523 5.55584,0.50507 -2.0203,4.54569 -1.51523,0.50508 2.0203,3.53553 -1.01015,1.51523 -2.0203,2.02031 7.07106,3.53553 3.53554,3.03046 0.50507,2.0203 -1.01015,2.52538 8.08122,1.51523 5.55584,0 4.54569,2.52538 4.54568,1.51523 -1.51523,2.02031 -6.06091,1.51523 -6.06092,1.51523 2.02031,2.0203 -12.12183,1.51523 2.0203,3.03046 -16.16244,1.01015 1.51523,8.08122 0.50508,2.52538 -18.68782,1.51523 -15.15229,-1.51523 -8.08122,-4.04061 3.03045,10.10153 -3.03045,0.50507 3.53553,7.57615 -3.53553,-2.52538 2.52538,12.12183 -8.5863,-3.53554 -10.10152,-5.05076 -4.54569,-5.55584 1.01015,2.52538 -8.08122,-4.04061 -5.05076,-5.05076 -4.54569,-3.03046 -8.08122,-6.56599 -3.03045,-8.08122 -1.01016,-14.64721 z"
         style="fill:none;fill-rule:evenodd;stroke:#003200;stroke-width:1px;stroke-linecap:butt;stroke-linejoin:miter;stroke-opacity:1" />
      <path
         inkscape:connector-curvature="0"
         id="path34804"
         d="m 307.08637,452.33159 -7.07106,3.03046 -14.64722,-2.52538 -13.13198,-3.03046 -24.74874,-4.54569 -11.11167,-3.03045 -24.24367,-3.53554 -16.67406,-0.50726 11.11823,8.08341 9.59644,9.09137 9.09138,11.61675 9.09137,14.64722"
         style="fill:none;fill-rule:evenodd;stroke:#003200;stroke-width:1px;stroke-linecap:butt;stroke-linejoin:miter;stroke-opacity:1"
         sodipodi:nodetypes="cccccccccccc" />
      <path
         inkscape:connector-curvature="0"
         id="path34806"
         d="m 194.45437,438.18946 10.6066,-8.5863 20.20305,-11.61675 19.69797,-14.14214"
         style="fill:none;fill-rule:evenodd;stroke:#003200;stroke-width:1px;stroke-linecap:butt;stroke-linejoin:miter;stroke-opacity:1" />
      <path
         inkscape:connector-curvature="0"
         id="path34808"
         d="m 281.32748,428.08793 -9.59645,4.04061 -25.75889,13.13198 17.67767,17.1726 13.13199,9.09137"
         style="fill:none;fill-rule:evenodd;stroke:#003200;stroke-width:1px;stroke-linecap:butt;stroke-linejoin:miter;stroke-opacity:1" />
    </g>
    <g
       id="g34822"
       style="stroke:#003200;stroke-opacity:1"
       transform="matrix(1.0043424,0,0,1.0043424,241.2872,108.99965)">
      <path
         inkscape:connector-curvature="0"
         id="path34810"
         d="m 387.3935,526.5778 1.51523,10.10153 -4.04061,9.59645 -1.51523,-1.01015 -5.05076,8.58629 -3.03046,-1.51523 -6.56599,11.11168 -7.07107,-0.50507 -10.10152,6.56599 -13.63706,0.50507 -10.60661,-4.54568 -8.08122,-4.54569 8.08122,-8.08122 5.05077,-7.57614 1.01015,-6.56599 9.59645,-5.05077 1.01015,-6.06091 -15.65736,-3.03046 -11.61676,-2.02031 -10.6066,1.51523 -5.05076,-2.0203 -0.50508,-4.04061 -11.11168,-8.08122 5.05077,-2.52538 -9.59645,-2.02031 2.52538,-2.0203 -7.07107,-2.52539 10.10153,-2.0203 12.12183,-4.04061 11.11168,1.51523 1.51522,-5.05076 7.07107,-1.01016 6.06092,1.51523 4.04061,2.52538 1.01015,-3.53553 4.54569,3.53553 10.10152,1.51523 -3.03046,-14.14213 -2.0203,-5.05077 1.01015,-3.03045 -1.51523,-11.11168 -0.50507,-4.54569 -2.02031,-1.51523 6.56599,-1.01015 8.08122,2.52538 3.53554,0 5.05076,7.57615 2.52538,-3.53554 6.56599,7.07107 6.56599,7.07107 2.52539,-4.04061 5.05076,8.58629 3.03046,5.55584 3.53553,8.08122 3.03046,11.11168 0.50507,10.10153 -3.03045,9.09137 z"
         style="fill:none;fill-rule:evenodd;stroke:#003200;stroke-width:1px;stroke-linecap:butt;stroke-linejoin:miter;stroke-opacity:1" />
      <path
         inkscape:connector-curvature="0"
         id="path34812"
         d="m 292.43916,501.82907 18.18275,3.53553 20.20305,6.06092 20.20305,7.57614 22.22336,5.55584 14.14213,1.51523 -9.59645,-19.69798 -6.56599,-12.12183 -7.57614,-12.6269 -7.57615,-11.61676 -8.08122,-9.59645"
         style="fill:none;fill-rule:evenodd;stroke:#003200;stroke-width:1px;stroke-linecap:butt;stroke-linejoin:miter;stroke-opacity:1" />
      <path
         inkscape:connector-curvature="0"
         id="path34814"
         d="m 387.65626,526.28672 -8.08122,6.56599 -11.87951,10.39261 -12.12183,5.55584 -5.52752,1.93534 -7.54782,2.94549 -9.6531,2.69531"
         style="fill:none;fill-rule:evenodd;stroke:#003200;stroke-width:0.5;stroke-linecap:butt;stroke-linejoin:miter;stroke-miterlimit:4;stroke-dasharray:none;stroke-opacity:1"
         sodipodi:nodetypes="ccccccc" />
      <path
         inkscape:connector-curvature="0"
         id="path34816"
         d="m 357.4162,520.81584 -7.90342,-12.92586 -9.09137,-8.58629"
         style="fill:none;fill-rule:evenodd;stroke:#003200;stroke-width:0.70095617;stroke-linecap:butt;stroke-linejoin:miter;stroke-opacity:1;stroke-miterlimit:4;stroke-dasharray:none"
         sodipodi:nodetypes="ccc" />
      <path
         inkscape:connector-curvature="0"
         id="path34818"
         d="m 336.5586,513.35298 -8.7641,-13.03914 -8.08122,-3.53554"
         style="fill:none;fill-rule:evenodd;stroke:#003200;stroke-width:0.70095617;stroke-linecap:butt;stroke-linejoin:miter;stroke-opacity:1;stroke-miterlimit:4;stroke-dasharray:none"
         sodipodi:nodetypes="ccc" />
      <path
         inkscape:connector-curvature="0"
         id="path34820"
         d="m 387.50679,526.614 -13.75035,12.08564 -15.65736,9.59644 -13.13199,4.04061 -13.13198,5.05077"
         style="fill:none;fill-rule:evenodd;stroke:#003200;stroke-width:0.70095617;stroke-linecap:butt;stroke-linejoin:miter;stroke-opacity:1;stroke-miterlimit:4;stroke-dasharray:none"
         sodipodi:nodetypes="ccccc" />
    </g>
    <g
       id="g34900"
       style="stroke:#003200;stroke-opacity:1"
       transform="matrix(1.0043424,0,0,1.0043424,-121.71085,302.69426)">
      <path
         inkscape:connector-curvature="0"
         id="path34858"
         d="m 460.62956,477.08033 c 0,0 0.50508,4.04061 -2.52538,4.04061 -3.03046,0 -13.63706,-2.02031 -13.63706,-2.02031 l -10.10153,2.02031 -15.15228,1.51523 -15.65737,-1.51523 3.53554,-5.05076 -13.63706,-3.03046 -6.06092,-2.02031 1.01015,-2.0203 -6.56599,-2.02031 1.01015,-2.0203 -6.56599,-1.01015 -1.01015,-2.02031 5.55584,-4.54568 -16.66752,-6.06092 -4.54568,-6.56599 -6.06092,-3.53554 2.52538,-3.03045 -7.57614,-8.08122 -3.53554,-4.04061 3.53554,0.50507 -6.06092,-10.10152 -2.0203,-5.55584 7.07107,2.0203 0,-2.0203 8.08122,3.03046 0.50507,-3.53554 11.11168,1.01015 1.51523,-2.0203 8.5863,1.01015 0.50507,-2.52538 12.12183,0 -8.08122,-19.69797 -1.01015,-6.566 3.53553,-2.52538 -5.55584,-12.12183 3.53554,-2.0203 -1.51523,-6.56599 2.52538,-1.51523 4.54569,0.50507 -1.51523,-10.10152 0,-4.54569 2.0203,-1.01015 -2.0203,-8.5863 0,-3.53553 2.0203,-1.01015 -0.50507,-5.55584 2.0203,-4.54569 2.02031,-9.59645 1.51523,-2.0203 4.04061,4.04061 6.56599,8.08122 1.51523,4.04061 1.51523,-2.52538 8.08122,8.58629 4.04061,-2.52538 3.03045,5.55584 7.57615,6.06091 1.01015,-3.53553 5.05076,5.05076 4.04061,5.55584 2.02031,-2.52538 10.6066,10.6066 7.57614,12.12183 6.06092,12.12183 8.08122,-8.58629 4.54569,-7.07107 6.06091,-8.5863 3.03046,2.02031 11.11168,-11.11168 3.53553,2.02031 5.55584,-3.53554 4.54569,-3.03046 2.0203,9.09138 2.02031,8.08122 3.53553,10.6066 5.05076,2.52538 -3.03045,12.62691 -6.566,17.17259 4.54569,-1.51523 -0.50508,3.53554 2.52539,1.51522 0,3.53554 -1.51523,4.04061 -4.04061,4.54568 -4.54569,3.03046 -1.01015,7.07107 -1.51523,11.61675 -7.07107,8.08122 3.53554,2.02031 -8.5863,8.08122 2.52538,3.53553 -7.57614,4.04061 0.50507,3.53554 -8.08122,2.52538 -0.50507,2.0203 -9.59645,-1.01015 -5.55584,1.01015 -2.52538,3.53554 z"
         style="fill:none;fill-rule:evenodd;stroke:#003200;stroke-width:1.39999998;stroke-linecap:butt;stroke-linejoin:miter;stroke-miterlimit:4;stroke-dasharray:none;stroke-opacity:1" />
      <path
         inkscape:connector-curvature="0"
         id="path34860"
         d="m 462.14479,475.5651 -13.63706,-36.87057 -6.06091,-13.63706 -7.07107,-18.68782 -6.06092,-15.65736 -16.66752,-31.31473 -11.61675,-22.22336 -4.04061,-8.58629"
         style="fill:none;fill-rule:evenodd;stroke:#003200;stroke-width:1px;stroke-linecap:butt;stroke-linejoin:miter;stroke-opacity:1" />
      <path
         inkscape:connector-curvature="0"
         id="path34862"
         d="m 505.07627,354.85187 -3.03045,10.6066 -8.5863,17.67767 -7.07107,18.18275 -11.11168,20.70813 -9.09137,31.8198 -4.04061,22.47917 -15.65736,-8.33703 -23.23351,-12.62691 -25.25382,-14.14214 -12.12183,-4.04061 -17.17259,-10.6066 -8.08122,-1.51523 -11.11168,-8.08122"
         style="fill:none;fill-rule:evenodd;stroke:#003200;stroke-width:1px;stroke-linecap:butt;stroke-linejoin:miter;stroke-opacity:1"
         sodipodi:nodetypes="cccccccccccccc" />
      <path
         inkscape:connector-curvature="0"
         id="path34864"
         d="m 444.9722,430.61331 c 0,0 -14.14214,-6.56599 -16.16244,-7.07107 -2.02031,-0.50507 -16.16245,-9.59644 -16.16245,-9.59644 l -7.57614,-13.13199 -10.6066,-11.11168 -4.04061,-5.05076"
         style="fill:none;fill-rule:evenodd;stroke:#003200;stroke-width:1px;stroke-linecap:butt;stroke-linejoin:miter;stroke-opacity:1" />
      <path
         inkscape:connector-curvature="0"
         id="path34866"
         d="m 430.83006,394.7529 -18.18275,-10.10153 -16.16244,-11.11168 -6.56599,-5.55584 -5.05076,1.51523 -1.51523,0"
         style="fill:none;fill-rule:evenodd;stroke:#003200;stroke-width:1px;stroke-linecap:butt;stroke-linejoin:miter;stroke-opacity:1" />
      <path
         inkscape:connector-curvature="0"
         id="path34868"
         d="m 390.41741,367.98823 -5.04421,-4.04499"
         style="fill:none;fill-rule:evenodd;stroke:#003200;stroke-width:0.80052381;stroke-linecap:butt;stroke-linejoin:miter;stroke-opacity:1;stroke-miterlimit:4;stroke-dasharray:none"
         sodipodi:nodetypes="cc" />
      <path
         inkscape:connector-curvature="0"
         id="path34870"
         d="m 442.44682,425.56255 5.05076,-9.09137 6.56599,-13.13199 3.03046,-7.07106"
         style="fill:none;fill-rule:evenodd;stroke:#003200;stroke-width:1px;stroke-linecap:butt;stroke-linejoin:miter;stroke-opacity:1" />
      <path
         inkscape:connector-curvature="0"
         id="path34872"
         d="m 435.12648,406.11165 6.81526,-15.90444 1.51523,-16.16244 1.01015,-18.68782"
         style="fill:none;fill-rule:evenodd;stroke:#003200;stroke-width:0.90009144;stroke-linecap:butt;stroke-linejoin:miter;stroke-opacity:1;stroke-miterlimit:4;stroke-dasharray:none"
         sodipodi:nodetypes="cccc" />
      <path
         inkscape:connector-curvature="0"
         id="path34874"
         d="m 413.39947,360.40552 2.2783,-7.57395 1.51523,-7.57615"
         style="fill:none;fill-rule:evenodd;stroke:#003200;stroke-width:0.69999999;stroke-linecap:butt;stroke-linejoin:miter;stroke-miterlimit:4;stroke-dasharray:none;stroke-opacity:1"
         sodipodi:nodetypes="ccc" />
      <path
         inkscape:connector-curvature="0"
         id="path34876"
         d="m 424.26407,455.86713 -14.14214,4.54568 -13.13198,2.52538 -7.57614,0"
         style="fill:none;fill-rule:evenodd;stroke:#003200;stroke-width:1px;stroke-linecap:butt;stroke-linejoin:miter;stroke-opacity:1" />
      <path
         inkscape:connector-curvature="0"
         id="path34878"
         d="m 449.76277,469.50637 -12.87179,1.00797 -10.10153,4.04061 -12.62691,0"
         style="fill:none;fill-rule:evenodd;stroke:#003200;stroke-width:1px;stroke-linecap:butt;stroke-linejoin:miter;stroke-opacity:1"
         sodipodi:nodetypes="cccc" />
      <path
         inkscape:connector-curvature="0"
         id="path34880"
         d="m 401.53564,443.24022 -14.64721,7.07107 -7.57615,-0.50508 -6.06091,0.50508"
         style="fill:none;fill-rule:evenodd;stroke:#003200;stroke-width:1px;stroke-linecap:butt;stroke-linejoin:miter;stroke-opacity:1" />
      <path
         inkscape:connector-curvature="0"
         id="path34882"
         d="m 385.3732,436.67423 c 0,0 -8.5863,5.55584 -10.60661,5.55584 -2.0203,0 -9.59644,0 -9.59644,0"
         style="fill:none;fill-rule:evenodd;stroke:#003200;stroke-width:0.80052381;stroke-linecap:butt;stroke-linejoin:miter;stroke-opacity:1;stroke-miterlimit:4;stroke-dasharray:none" />
      <path
         inkscape:connector-curvature="0"
         id="path34884"
         d="m 365.91794,426.32344 -7.81886,3.27972 -3.03046,0.50508"
         style="fill:none;fill-rule:evenodd;stroke:#003200;stroke-width:0.80052381;stroke-linecap:butt;stroke-linejoin:miter;stroke-opacity:1;stroke-miterlimit:4;stroke-dasharray:none"
         sodipodi:nodetypes="ccc" />
      <path
         inkscape:connector-curvature="0"
         id="path34886"
         d="m 465.68032,457.88743 14.64722,-6.06091 7.57614,-9.59645 10.10153,-5.55584 6.06091,-5.05076"
         style="fill:none;fill-rule:evenodd;stroke:#003200;stroke-width:1px;stroke-linecap:butt;stroke-linejoin:miter;stroke-opacity:1" />
      <path
         inkscape:connector-curvature="0"
         id="path34888"
         d="m 486.14137,445.00471 7.31815,2.27612 5.55584,0.50508"
         style="fill:none;fill-rule:evenodd;stroke:#003200;stroke-width:0.90009144;stroke-linecap:butt;stroke-linejoin:miter;stroke-opacity:1;stroke-miterlimit:4;stroke-dasharray:none"
         sodipodi:nodetypes="ccc" />
      <path
         inkscape:connector-curvature="0"
         id="path34890"
         d="m 479.82246,414.45087 15.65736,-2.0203 9.09138,-3.53554 5.55584,-4.04061"
         style="fill:none;fill-rule:evenodd;stroke:#003200;stroke-width:1px;stroke-linecap:butt;stroke-linejoin:miter;stroke-opacity:1" />
      <path
         inkscape:connector-curvature="0"
         id="path34892"
         d="m 488.91383,396.26813 16.66752,-3.53554 7.07107,-4.54568 4.54568,-3.53554"
         style="fill:none;fill-rule:evenodd;stroke:#003200;stroke-width:0.80052381;stroke-linecap:butt;stroke-linejoin:miter;stroke-opacity:1;stroke-miterlimit:4;stroke-dasharray:none" />
      <path
         inkscape:connector-curvature="0"
         id="path34894"
         d="m 494.46967,381.11584 11.61676,-1.51523 5.55583,-2.52538 4.54569,-1.51523"
         style="fill:none;fill-rule:evenodd;stroke:#003200;stroke-width:0.80052381;stroke-linecap:butt;stroke-linejoin:miter;stroke-opacity:1;stroke-miterlimit:4;stroke-dasharray:none" />
      <path
         inkscape:connector-curvature="0"
         id="path34896"
         d="m 500.53059,368.48893 9.09137,0.50508 3.03046,-0.50508"
         style="fill:none;fill-rule:evenodd;stroke:#003200;stroke-width:0.80052381;stroke-linecap:butt;stroke-linejoin:miter;stroke-opacity:1;stroke-miterlimit:4;stroke-dasharray:none" />
      <path
         inkscape:connector-curvature="0"
         id="path34898"
         d="m 503.56104,357.88233 6.566,0"
         style="fill:none;fill-rule:evenodd;stroke:#003200;stroke-width:0.70095617;stroke-linecap:butt;stroke-linejoin:miter;stroke-opacity:1;stroke-miterlimit:4;stroke-dasharray:none" />
    </g>
    <g
       id="g35520">
      <path
         inkscape:connector-curvature="0"
         id="path34923"
         d="m 526.05227,1010.5254 15.72536,-1.0145 11.15992,3.0436 9.63812,6.0872 12.68174,-3.5509 14.20355,-1.0145 -2.02908,-4.0582 6.08724,-2.5363 -3.55089,-3.5509 7.10177,-3.0436 7.10178,-1.01456 -8.11632,-5.57996 6.08723,-3.55088 11.15994,0 2.02908,-5.57997 6.08723,-9.13085 -2.53635,-2.53634 12.68174,-10.1454 2.53635,-6.08723 -5.07269,-1.52181 9.63811,-10.14539 -4.56542,-1.52181 2.53634,-7.60904 -4.56542,-1.52181 -5.57997,-1.01454 -8.62358,-2.02908 12.68174,-35.00159 4.56542,-7.10178 0,-17.75443 4.05816,-15.21809 -0.50727,-11.15992 -1.01454,-12.68174 -5.07269,1.52181 -4.56543,-3.5509 -6.5945,-0.50726 -5.0727,-19.27624 -4.56542,-4.05816 -0.50727,-7.10177 -1.52181,-2.53635 -1.52181,-6.5945 -3.04362,0.50726 -7.10177,-17.24716 -4.56542,-13.189 -5.0727,-15.72536 -4.05816,4.56543 -1.52181,7.60903 -2.02907,7.60905 0,7.60904 -3.55089,5.0727 -4.05815,3.55089 -4.05816,9.13084 -5.0727,7.60905 -3.04362,6.08723 -8.62357,-2.02907 -4.05816,6.5945 -4.56543,4.56542 -3.04362,1.52181 -1.01454,10.65266 -2.53634,4.56543 -2.02908,-1.52181 -3.55089,6.08724 -3.55088,6.5945 -1.52181,2.53635 -5.57997,-14.71082 -4.05815,-14.71081 -1.52181,1.01453 -6.08724,-14.20355 -4.56542,-7.10176 -8.11631,-9.13086 -6.08724,3.55089 -2.53635,3.04361 -8.11631,0 -2.53634,5.0727 -10.65266,-8.62358 -2.53635,-0.50727 -12.17447,-9.63812 -1.01454,2.53635 -6.08723,-6.08724 -5.57997,-7.60904 -5.07269,1.01454 -3.04362,-6.08724 -6.5945,-2.53635 -4.05816,-2.02907 4.05816,11.15993 1.52181,9.13085 -1.52181,4.05816 2.02907,13.69627 -5.07269,0 -0.50727,10.65266 -0.50727,7.60904 0.50727,13.18902 -10.14539,2.02907 -7.60905,0 2.02909,7.60905 1.01453,5.07269 1.01454,4.56543 -3.55088,2.02907 7.60903,11.15993 3.04362,2.53635 -2.53634,1.01454 2.02908,6.5945 4.05816,5.0727 0,3.55088 5.07269,12.68174 6.5945,13.18901 -11.15993,-2.53635 -13.69628,-5.07269 -7.10177,-1.01455 0.50727,3.5509 -12.68174,-6.08724 -2.02907,-0.50727 1.52181,3.04361 -6.08724,-1.01453 -2.53635,1.52181 -9.13085,-1.52181 1.01454,3.55089 -8.62359,0.50726 -10.65265,-2.02907 -4.05816,2.02907 -12.68173,-1.52181 -2.53636,3.5509 -10.14538,0.50726 -6.5945,4.05815 16.23262,2.53635 -0.50727,3.55089 11.6672,7.60904 -3.04362,4.05816 9.13085,5.57996 -3.04362,3.04362 8.11631,7.60904 -6.08723,2.53636 8.11631,6.5945 3.55089,7.60904 -5.0727,3.04362 14.20356,7.60904 11.66719,4.56543 -8.11631,5.07269 -2.02908,8.11631 3.04361,4.56543 7.60905,3.55088 -1.52181,3.5509 14.20354,2.53634 2.02909,3.55093 -1.52181,3.0436 15.72535,1.5218 -0.50726,3.5509 26.88528,6.5945 -3.04362,3.0436 -5.07269,2.5363 6.5945,6.0873 12.68174,4.5654 -2.53635,6.0872 18.76897,1.5218 5.57997,-5.0727 -4.05816,7.1018 17.24716,1.5218 17.75444,-3.0436 20.29078,-13.6963 3.55089,-7.609 z"
         style="fill:none;fill-rule:evenodd;stroke:#003200;stroke-width:1.00434244px;stroke-linecap:butt;stroke-linejoin:miter;stroke-opacity:1" />
      <path
         inkscape:connector-curvature="0"
         id="path34925"
         d="m 432.71468,778.19597 6.08723,9.63812 9.63812,25.87074 7.60905,18.26171 6.08723,13.69628 11.6672,33.47978 10.14539,20.79806 c 0,0 15.21809,32.46524 15.21809,34.49432 0,2.02908 27.9042,76.09702 27.9042,76.09702 l 15.2137,-37.54454 16.23262,-40.58156 9.63813,-36.5234 4.56543,-13.18901 4.05815,-13.18901 8.11631,-29.9289 1.52181,-12.17447 2.02908,-23.84166 0,-10.65267 0.41498,-20.82085"
         style="fill:none;fill-rule:evenodd;stroke:#003200;stroke-width:1.00434244px;stroke-linecap:butt;stroke-linejoin:miter;stroke-opacity:1"
         sodipodi:nodetypes="cccccccsccccccccccc" />
      <path
         inkscape:connector-curvature="0"
         id="path34927"
         d="m 436.41658,1021.0194 6.09779,0 30.13027,-2.5109 22.23901,-3.9456 13.98906,-1.7935 17.93468,-1.7789 15.06514,-16.87316 23.31508,-12.19558 13.27168,-7.17388 17.93468,-13.98905 10.76081,-6.45648 9.32604,-8.24996 8.60865,-3.58694 3.94563,-1.79347"
         style="fill:none;fill-rule:evenodd;stroke:#003200;stroke-width:1.00434244px;stroke-linecap:butt;stroke-linejoin:miter;stroke-opacity:1"
         sodipodi:nodetypes="cccccccccccccc" />
      <path
         inkscape:connector-curvature="0"
         id="path34929"
         d="m 609.33265,952.36249 11.0938,6.60287 6.45649,-1.43478"
         style="fill:none;fill-rule:evenodd;stroke:#003200;stroke-width:0.604;stroke-linecap:butt;stroke-linejoin:miter;stroke-opacity:1;stroke-miterlimit:4;stroke-dasharray:none"
         sodipodi:nodetypes="ccc" />
      <path
         inkscape:connector-curvature="0"
         id="path34931"
         d="m 585.63316,969.00878 10.40212,7.89127 10.76081,2.15215 4.30432,-1.43477"
         style="fill:none;fill-rule:evenodd;stroke:#003200;stroke-width:0.604;stroke-linecap:butt;stroke-linejoin:miter;stroke-opacity:1;stroke-miterlimit:4;stroke-dasharray:none" />
      <path
         inkscape:connector-curvature="0"
         id="path34933"
         d="m 558.37244,933.49811 17.2173,-3.94563 15.06513,-7.89126 13.63037,-12.91298 7.17386,-10.76081 10.76082,-12.91298 3.58694,-3.58693"
         style="fill:none;fill-rule:evenodd;stroke:#003200;stroke-width:0.804;stroke-linecap:butt;stroke-linejoin:miter;stroke-opacity:1;stroke-miterlimit:4;stroke-dasharray:none" />
      <path
         inkscape:connector-curvature="0"
         id="path34935"
         d="m 589.39219,922.19199 11.30611,4.84963 5.73909,0.71738"
         style="fill:none;fill-rule:evenodd;stroke:#003200;stroke-width:0.604;stroke-linecap:butt;stroke-linejoin:miter;stroke-opacity:1;stroke-miterlimit:4;stroke-dasharray:none"
         sodipodi:nodetypes="ccc" />
      <path
         inkscape:connector-curvature="0"
         id="path34937"
         d="m 572.9068,883.28099 19.54154,-5.02172 17.57599,-10.76081 9.32604,-9.68473 4.66301,-10.04342 5.73911,-6.09779"
         style="fill:none;fill-rule:evenodd;stroke:#003200;stroke-width:0.804;stroke-linecap:butt;stroke-linejoin:miter;stroke-opacity:1;stroke-miterlimit:4;stroke-dasharray:none"
         sodipodi:nodetypes="cccccc" />
      <path
         inkscape:connector-curvature="0"
         id="path34939"
         d="m 568.05717,894.40049 -10.76081,-6.09779 -7.53257,-9.32603 -3.58694,-3.58694"
         style="fill:none;fill-rule:evenodd;stroke:#003200;stroke-width:0.604;stroke-linecap:butt;stroke-linejoin:miter;stroke-opacity:1;stroke-miterlimit:4;stroke-dasharray:none" />
      <path
         inkscape:connector-curvature="0"
         id="path34941"
         d="m 558.65067,931.23979 -9.96297,-11.01336 -10.40211,-13.98905 -0.94422,-2.4047 -2.28403,-5.48656"
         style="fill:none;fill-rule:evenodd;stroke:#003200;stroke-width:0.804;stroke-linecap:butt;stroke-linejoin:miter;stroke-opacity:1;stroke-miterlimit:4;stroke-dasharray:none"
         sodipodi:nodetypes="ccccc" />
      <path
         inkscape:connector-curvature="0"
         id="path34943"
         d="m 550.97173,948.70962 19.2376,2.36448 12.19559,2.15216"
         style="fill:none;fill-rule:evenodd;stroke:#003200;stroke-width:0.604;stroke-linecap:butt;stroke-linejoin:miter;stroke-opacity:1;stroke-miterlimit:4;stroke-dasharray:none"
         sodipodi:nodetypes="ccc" />
      <path
         inkscape:connector-curvature="0"
         id="path34945"
         d="m 574.9785,874.97963 -9.79089,-15.73112 -7.53256,-13.98906 -4.30432,-14.34775 -1.43478,-10.76081 1.07608,-8.24996"
         style="fill:none;fill-rule:evenodd;stroke:#003200;stroke-width:0.804;stroke-linecap:butt;stroke-linejoin:miter;stroke-opacity:1;stroke-miterlimit:4;stroke-dasharray:none"
         sodipodi:nodetypes="cccccc" />
      <path
         inkscape:connector-curvature="0"
         id="path34947"
         d="m 586.16394,829.95631 -8.78074,-8.37064 -5.3804,-6.81519 -4.30433,-4.66301"
         style="fill:none;fill-rule:evenodd;stroke:#003200;stroke-width:0.604;stroke-linecap:butt;stroke-linejoin:miter;stroke-opacity:1;stroke-miterlimit:4;stroke-dasharray:none"
         sodipodi:nodetypes="cccc" />
      <path
         inkscape:connector-curvature="0"
         id="path34949"
         d="m 587.06794,820.15089 10.04342,-4.66302 3.94563,-5.7391 2.51086,-4.66301 0.35869,-1.79348"
         style="fill:none;fill-rule:evenodd;stroke:#003200;stroke-width:0.604;stroke-linecap:butt;stroke-linejoin:miter;stroke-opacity:1;stroke-miterlimit:4;stroke-dasharray:none" />
      <path
         inkscape:connector-curvature="0"
         id="path34951"
         d="m 588.29039,805.67129 -5.52678,-7.04202 -3.94563,-3.22824 -4.30432,-3.22825"
         style="fill:none;fill-rule:evenodd;stroke:#003200;stroke-width:0.604;stroke-linecap:butt;stroke-linejoin:miter;stroke-opacity:1;stroke-miterlimit:4;stroke-dasharray:none"
         sodipodi:nodetypes="cccc" />
      <path
         inkscape:connector-curvature="0"
         id="path34953"
         d="m 566.43578,901.65482 11.66481,-2.59131 7.89126,0"
         style="fill:none;fill-rule:evenodd;stroke:#003200;stroke-width:0.604;stroke-linecap:butt;stroke-linejoin:miter;stroke-opacity:1;stroke-miterlimit:4;stroke-dasharray:none"
         sodipodi:nodetypes="ccc" />
      <path
         inkscape:connector-curvature="0"
         id="path34955"
         d="m 584.84985,840.8892 c 1.79347,-0.35869 12.26151,-2.44493 12.26151,-2.44493 l 6.45649,-4.66301 4.30432,-1.79348 6.81518,2.51086 3.94563,0.35869"
         style="fill:none;fill-rule:evenodd;stroke:#003200;stroke-width:0.604;stroke-linecap:butt;stroke-linejoin:miter;stroke-opacity:1;stroke-miterlimit:4;stroke-dasharray:none"
         sodipodi:nodetypes="cccccc" />
      <path
         inkscape:connector-curvature="0"
         id="path34957"
         d="m 588.14402,796.11842 7.89126,-1.79348 2.15216,-2.51085"
         style="fill:none;fill-rule:evenodd;stroke:#003200;stroke-width:0.604;stroke-linecap:butt;stroke-linejoin:miter;stroke-opacity:1;stroke-miterlimit:4;stroke-dasharray:none" />
      <path
         inkscape:connector-curvature="0"
         id="path34959"
         d="m 588.14402,783.20544 5.73909,-2.15216 2.15217,-2.15216"
         style="fill:none;fill-rule:evenodd;stroke:#003200;stroke-width:0.70303965;stroke-linecap:butt;stroke-linejoin:miter;stroke-miterlimit:4;stroke-dasharray:none;stroke-opacity:1" />
      <path
         inkscape:connector-curvature="0"
         id="path34961"
         d="m 457.22081,832.70517 8.24996,-10.76081 3.58693,-8.60865 1.43478,-7.17387"
         style="fill:none;fill-rule:evenodd;stroke:#003200;stroke-width:1.00434244px;stroke-linecap:butt;stroke-linejoin:miter;stroke-opacity:1" />
      <path
         inkscape:connector-curvature="0"
         id="path34963"
         d="m 448.25346,812.97702 7.17388,-9.68474 1.79347,-8.60865"
         style="fill:none;fill-rule:evenodd;stroke:#003200;stroke-width:0.604;stroke-linecap:butt;stroke-linejoin:miter;stroke-opacity:1;stroke-miterlimit:4;stroke-dasharray:none" />
      <path
         inkscape:connector-curvature="0"
         id="path34965"
         d="m 448.61217,814.41179 -7.53257,-2.86955 -6.81519,-4.30433 -8.96734,-5.73909"
         style="fill:none;fill-rule:evenodd;stroke:#003200;stroke-width:0.604;stroke-linecap:butt;stroke-linejoin:miter;stroke-opacity:1;stroke-miterlimit:4;stroke-dasharray:none" />
      <path
         inkscape:connector-curvature="0"
         id="path34967"
         d="m 455.78603,832.34647 -10.04342,-1.79346 -7.89126,-3.22825 -6.0978,-2.15215 -5.02171,-5.73911 -2.15216,-4.66302"
         style="fill:none;fill-rule:evenodd;stroke:#003200;stroke-width:0.604;stroke-linecap:butt;stroke-linejoin:miter;stroke-opacity:1;stroke-miterlimit:4;stroke-dasharray:none" />
      <path
         inkscape:connector-curvature="0"
         id="path34969"
         d="m 431.75355,825.5313 -5.7391,2.15216 -5.02171,1.79347"
         style="fill:none;fill-rule:evenodd;stroke:#003200;stroke-width:0.604;stroke-linecap:butt;stroke-linejoin:miter;stroke-opacity:1;stroke-miterlimit:4;stroke-dasharray:none" />
      <path
         inkscape:connector-curvature="0"
         id="path34971"
         d="m 413.81887,842.7486 6.45649,2.15215 10.04342,10.04343 13.63036,10.76081 13.27167,7.17388 16.85861,8.24995 6.09779,-10.76081 4.30432,-8.96734 1.43477,-5.02171"
         style="fill:none;fill-rule:evenodd;stroke:#003200;stroke-width:0.604;stroke-linecap:butt;stroke-linejoin:miter;stroke-opacity:1;stroke-miterlimit:4;stroke-dasharray:none" />
      <path
         inkscape:connector-curvature="0"
         id="path34973"
         d="m 497.3945,930.26986 -15.06513,-1.79347 -22.9564,-9.32603 -14.70644,-7.17388 -2.51086,-11.83689 -4.30432,-7.89126 -4.30433,-9.68474 -6.09779,-8.24995"
         style="fill:none;fill-rule:evenodd;stroke:#003200;stroke-width:0.604;stroke-linecap:butt;stroke-linejoin:miter;stroke-opacity:1;stroke-miterlimit:4;stroke-dasharray:none" />
      <path
         inkscape:connector-curvature="0"
         id="path34975"
         d="m 444.66653,912.69387 -9.32604,1.43478 -11.1195,-0.71739 -10.40212,-4.66302 -7.89127,-4.66301"
         style="fill:none;fill-rule:evenodd;stroke:#003200;stroke-width:0.604;stroke-linecap:butt;stroke-linejoin:miter;stroke-opacity:1;stroke-miterlimit:4;stroke-dasharray:none" />
      <path
         inkscape:connector-curvature="0"
         id="path34977"
         d="m 450.23355,967.57401 -23.14302,10.04342 -17.21729,5.02171 -19.72815,2.51086 -16.85861,-0.71738"
         style="fill:none;fill-rule:evenodd;stroke:#003200;stroke-width:1.00434244px;stroke-linecap:butt;stroke-linejoin:miter;stroke-opacity:1"
         sodipodi:nodetypes="ccccc" />
      <path
         inkscape:connector-curvature="0"
         id="path34979"
         d="m 471.92725,979.41091 -16.49991,8.24994 -12.55428,6.45649 -12.19559,4.30433 -16.14122,0.71738 -11.1195,-0.35869 -2.15216,0"
         style="fill:none;fill-rule:evenodd;stroke:#003200;stroke-width:1.00434244px;stroke-linecap:butt;stroke-linejoin:miter;stroke-opacity:1" />
      <path
         inkscape:connector-curvature="0"
         id="path34981"
         d="m 414.82903,947.69948 -11.05358,8.75502 -16.85861,4.66302 -8.24995,-0.35869 -12.91298,-2.51086"
         style="fill:none;fill-rule:evenodd;stroke:#003200;stroke-width:0.704;stroke-linecap:butt;stroke-linejoin:miter;stroke-opacity:1;stroke-miterlimit:4;stroke-dasharray:none"
         sodipodi:nodetypes="ccccc" />
      <path
         inkscape:connector-curvature="0"
         id="path34983"
         d="m 401.68921,939.09083 -8.67458,3.73331 -12.55428,2.51085 -13.98905,0.7174 -11.83689,-2.51086 -2.86956,-1.79346"
         style="fill:none;fill-rule:evenodd;stroke:#003200;stroke-width:0.704;stroke-linecap:butt;stroke-linejoin:miter;stroke-opacity:1;stroke-miterlimit:4;stroke-dasharray:none"
         sodipodi:nodetypes="cccccc" />
      <path
         inkscape:connector-curvature="0"
         id="path34985"
         d="m 373.64518,924.88945 -8.60865,4.30434 -7.17388,1.43477 -5.02171,-1.79348"
         style="fill:none;fill-rule:evenodd;stroke:#003200;stroke-width:0.704;stroke-linecap:butt;stroke-linejoin:miter;stroke-opacity:1;stroke-miterlimit:4;stroke-dasharray:none" />
      <path
         inkscape:connector-curvature="0"
         id="path34987"
         d="m 358.22134,916.2808 -5.3804,4.30433 -4.66302,1.79347"
         style="fill:none;fill-rule:evenodd;stroke:#003200;stroke-width:0.704;stroke-linecap:butt;stroke-linejoin:miter;stroke-opacity:1;stroke-miterlimit:4;stroke-dasharray:none" />
      <path
         inkscape:connector-curvature="0"
         id="path34989"
         d="m 526.4487,1009.1825 -22.9564,-13.27169 -31.56505,-16.14121 -16.49991,-9.68474 -9.32603,-5.02171 -15.42384,-8.60865 -16.49991,-8.96734 -12.08943,-8.03764 -29.16035,-14.91876 -15.42382,-8.24996 -15.42383,-8.60865"
         style="fill:none;fill-rule:evenodd;stroke:#003200;stroke-width:1.00434244px;stroke-linecap:butt;stroke-linejoin:miter;stroke-opacity:1"
         sodipodi:nodetypes="ccccccccccc" />
    </g>
    <g
       id="g35088"
       style="stroke:#003200;stroke-opacity:1"
       transform="matrix(1.0043424,0,0,1.0043424,53.331687,456.21516)">
      <path
         inkscape:connector-curvature="0"
         id="path35048"
         d="m 435.12321,293.4851 11.61675,-1.01015 5.55584,-2.0203 0,-2.77792 10.10153,1.01015 2.27284,-1.76777 -1.76777,-1.76776 3.78808,-0.50508 3.78807,-3.03046 -1.51523,-0.75761 4.79822,-5.05077 0.75762,-1.01015 -3.03046,-1.51523 -2.27284,-0.25253 1.76776,-4.29315 4.04061,-4.79823 2.02031,-2.0203 -3.283,-1.76777 2.77792,-2.27284 0.75762,-0.50508 -1.26269,-0.25254 2.77792,-3.03046 0.75761,-2.52538 -3.28299,-1.51523 -1.01016,0 2.77792,-5.05076 4.79823,-2.77792 -1.76777,-1.76776 -3.03046,-1.2627 4.29315,-6.31345 -1.51523,-2.52538 3.53554,-3.283 -0.25254,-3.78807 0.50507,-4.04061 0,-2.27284 -3.03045,1.76777 -4.04061,2.27284 -2.27285,3.53553 -1.01015,-1.51523 -2.27284,1.26269 -4.04061,2.77792 0.25254,-1.26269 -3.283,-0.25253 -2.77792,1.51522 -3.53553,0.25254 -3.53554,1.76777 -1.01015,-9.09137 -1.01015,-3.78808 -2.52538,-9.59644 -0.75762,-2.02031 -1.01015,0.50508 -0.75762,-3.03046 -0.25253,-4.79823 0.75761,-4.04061 -3.53553,-8.33375 -3.03046,-6.81853 -3.283,4.79822 -2.27284,-0.75761 -4.29315,1.51522 -5.55584,-5.3033 -4.04061,-5.3033 -1.01015,1.76777 -4.54569,-6.31345 -1.01015,0.50507 -3.53553,-3.28299 -4.29315,-4.04061 -2.27284,5.05076 -1.2627,4.54569 -2.0203,-2.52539 -1.01015,8.33376 -1.01016,6.81853 1.76777,3.78807 -6.06091,-1.01015 0.25253,1.51523 -3.53553,-1.26269 -1.01015,2.02031 1.51523,3.78807 0,1.26269 -2.27285,1.51523 4.04061,2.77792 -2.27284,2.0203 4.29315,7.57615 -2.77792,2.27284 2.77792,8.83883 -2.02031,2.77792 0.75762,8.08122 1.26269,4.29315 -8.5863,0.25254 -4.79822,-2.0203 -5.3033,-1.51523 -1.51523,1.01015 -6.31346,-3.78807 -1.51522,0.25253 1.26269,2.27285 -9.09138,-7.82868 -2.0203,-2.02031 -1.51523,4.79823 -0.25254,2.52538 4.04061,5.80837 -2.0203,3.53554 4.29314,2.77792 2.77792,4.29315 -0.75761,3.28299 5.05076,2.02031 -2.77792,2.52538 7.57615,2.52538 -2.52538,2.52538 3.03045,4.04061 4.29315,4.79823 -2.27284,2.0203 8.5863,5.55584 -4.04061,2.0203 2.0203,3.53554 4.54569,2.52538 2.0203,2.52538 1.76777,3.03046 4.04061,0.50508 4.29315,1.26269 3.28299,1.51522 4.54569,2.27285 5.3033,1.26269 6.56599,0.50507 8.08122,0 z"
         style="fill:none;fill-rule:evenodd;stroke:#003200;stroke-width:1px;stroke-linecap:butt;stroke-linejoin:miter;stroke-opacity:1" />
      <path
         inkscape:connector-curvature="0"
         id="path35050"
         d="m 410.37447,170.75157 1.26269,8.33376 3.03046,8.33376 3.283,14.14213 2.52538,16.92006 3.28299,6.06091 2.27285,13.38452 1.51523,8.5863 2.27284,9.34391 c 0,0 4.04061,20.70813 4.04061,21.71828 0,1.01015 1.44049,15.27344 1.44049,15.27344 l 4.62042,-8.95998 4.29315,-11.61676 5.05077,-6.81853 5.80837,-7.57614 8.33376,-11.36422 2.02031,-4.04061 4.79822,-5.80838 3.283,-4.54568 3.53553,-5.05077 2.02031,-3.03045"
         style="fill:none;fill-rule:evenodd;stroke:#003200;stroke-width:1px;stroke-linecap:butt;stroke-linejoin:miter;stroke-opacity:1"
         sodipodi:nodetypes="cccccccccsccccccccccc" />
      <path
         inkscape:connector-curvature="0"
         id="path35052"
         d="m 435.37575,292.98003 -7.57615,-9.34391 -11.36421,-10.10153 -14.14214,-9.09137 -7.82868,-6.81853 -9.84899,-7.07107 -5.55584,-5.3033 -6.81853,-6.06092 -6.31345,-7.07106 -4.79822,-3.53554"
         style="fill:none;fill-rule:evenodd;stroke:#003200;stroke-width:1px;stroke-linecap:butt;stroke-linejoin:miter;stroke-opacity:1" />
      <path
         inkscape:connector-curvature="0"
         id="path35054"
         d="m 419.21331,275.5549 -12.37437,2.77792 -9.84899,0.25253 -9.34391,-1.76776"
         style="fill:none;fill-rule:evenodd;stroke:#003200;stroke-width:0.60000002;stroke-linecap:butt;stroke-linejoin:miter;stroke-miterlimit:4;stroke-dasharray:none;stroke-opacity:1" />
      <path
         inkscape:connector-curvature="0"
         id="path35056"
         d="m 401.78817,264.19068 -6.56599,4.04061 -9.09137,-1.01016 -3.03046,-0.75761"
         style="fill:none;fill-rule:evenodd;stroke:#003200;stroke-width:0.69999999;stroke-linecap:butt;stroke-linejoin:miter;stroke-miterlimit:4;stroke-dasharray:none;stroke-opacity:1" />
      <path
         inkscape:connector-curvature="0"
         id="path35058"
         d="m 393.95949,257.11961 -8.33376,4.29315 -6.81853,-1.01015 -2.0203,-1.51523"
         style="fill:none;fill-rule:evenodd;stroke:#003200;stroke-width:0.69999999;stroke-linecap:butt;stroke-linejoin:miter;stroke-miterlimit:4;stroke-dasharray:none;stroke-opacity:1" />
      <path
         inkscape:connector-curvature="0"
         id="path35060"
         d="m 455.07372,258.3823 7.82868,-0.75761 8.5863,-1.76777 0.50508,-1.01015"
         style="fill:none;fill-rule:evenodd;stroke:#003200;stroke-width:0.69999999;stroke-linecap:butt;stroke-linejoin:miter;stroke-miterlimit:4;stroke-dasharray:none;stroke-opacity:1" />
      <path
         inkscape:connector-curvature="0"
         id="path35062"
         d="m 449.26535,265.70591 c 1.01015,0 10.10152,1.26269 10.10152,1.26269 l 9.34391,-1.26269 1.01015,-2.02031"
         style="fill:none;fill-rule:evenodd;stroke:#003200;stroke-width:0.69999999;stroke-linecap:butt;stroke-linejoin:miter;stroke-miterlimit:4;stroke-dasharray:none;stroke-opacity:1" />
      <path
         inkscape:connector-curvature="0"
         id="path35064"
         d="m 430.07245,255.85692 8.08122,-10.85914 4.29315,-6.81853 5.55583,-0.50507 6.81853,-0.75762 0.75762,-0.75761"
         style="fill:none;fill-rule:evenodd;stroke:#003200;stroke-width:0.80000001;stroke-linecap:butt;stroke-linejoin:miter;stroke-miterlimit:4;stroke-dasharray:none;stroke-opacity:1" />
      <path
         inkscape:connector-curvature="0"
         id="path35066"
         d="m 442.44682,238.68433 -1.01016,-7.07107 2.02031,-6.31345"
         style="fill:none;fill-rule:evenodd;stroke:#003200;stroke-width:0.69999999;stroke-linecap:butt;stroke-linejoin:miter;stroke-miterlimit:4;stroke-dasharray:none;stroke-opacity:1" />
      <path
         inkscape:connector-curvature="0"
         id="path35068"
         d="m 424.26407,225.80488 6.06091,-10.6066 3.78808,-8.08122 4.04061,-9.34391 2.0203,-9.59645"
         style="fill:none;fill-rule:evenodd;stroke:#003200;stroke-width:0.80000001;stroke-linecap:butt;stroke-linejoin:miter;stroke-miterlimit:4;stroke-dasharray:none;stroke-opacity:1" />
      <path
         inkscape:connector-curvature="0"
         id="path35070"
         d="m 418.45569,202.31884 5.3033,-4.29315 3.03046,-4.79823"
         style="fill:none;fill-rule:evenodd;stroke:#003200;stroke-width:0.70095617;stroke-linecap:butt;stroke-linejoin:miter;stroke-opacity:1;stroke-miterlimit:4;stroke-dasharray:none" />
      <path
         inkscape:connector-curvature="0"
         id="path35072"
         d="m 415.42523,190.70208 4.79823,-4.54568 2.27284,-6.566"
         style="fill:none;fill-rule:evenodd;stroke:#003200;stroke-width:0.60000002;stroke-linecap:butt;stroke-linejoin:miter;stroke-miterlimit:4;stroke-dasharray:none;stroke-opacity:1" />
      <path
         inkscape:connector-curvature="0"
         id="path35074"
         d="m 420.35484,218.71573 -6.44483,-7.05298 -8.33376,-7.07107 -4.54569,-6.56599 -4.54569,-6.06092"
         style="fill:none;fill-rule:evenodd;stroke:#003200;stroke-width:0.60000002;stroke-linecap:butt;stroke-linejoin:miter;stroke-miterlimit:4;stroke-dasharray:none;stroke-opacity:1"
         sodipodi:nodetypes="ccccc" />
      <path
         inkscape:connector-curvature="0"
         id="path35076"
         d="m 426.78945,246.00793 -13.38452,-4.54568 -4.04061,-4.04061 -5.80838,-12.37437 -3.78807,-4.54569"
         style="fill:none;fill-rule:evenodd;stroke:#003200;stroke-width:0.69999999;stroke-linecap:butt;stroke-linejoin:miter;stroke-miterlimit:4;stroke-dasharray:none;stroke-opacity:1" />
      <path
         inkscape:connector-curvature="0"
         id="path35078"
         d="m 409.36432,237.67418 -7.82868,1.76776 -4.04061,0"
         style="fill:none;fill-rule:evenodd;stroke:#003200;stroke-width:0.69999999;stroke-linecap:butt;stroke-linejoin:miter;stroke-miterlimit:4;stroke-dasharray:none;stroke-opacity:1" />
      <path
         inkscape:connector-curvature="0"
         id="path35080"
         d="m 385.10257,250.73142 -7.8106,1.33743 -3.28299,-1.01016"
         style="fill:none;fill-rule:evenodd;stroke:#003200;stroke-width:0.60000002;stroke-linecap:butt;stroke-linejoin:miter;stroke-miterlimit:4;stroke-dasharray:none;stroke-opacity:1"
         sodipodi:nodetypes="ccc" />
      <path
         inkscape:connector-curvature="0"
         id="path35082"
         d="m 464.10845,245.20391 6.62264,-0.45867 5.3033,-1.76776"
         style="fill:none;fill-rule:evenodd;stroke:#003200;stroke-width:0.80052381;stroke-linecap:butt;stroke-linejoin:miter;stroke-opacity:1;stroke-miterlimit:4;stroke-dasharray:none"
         sodipodi:nodetypes="ccc" />
      <path
         inkscape:connector-curvature="0"
         id="path35084"
         d="m 412.7787,182.39664 -4.92961,-3.81639 -1.51523,-1.01015"
         style="fill:none;fill-rule:evenodd;stroke:#003200;stroke-width:0.5;stroke-linecap:butt;stroke-linejoin:miter;stroke-miterlimit:4;stroke-dasharray:none;stroke-opacity:1"
         sodipodi:nodetypes="ccc" />
      <path
         inkscape:connector-curvature="0"
         id="path35086"
         d="m 415.42523,192.72239 -3.28299,-0.50508 -5.05076,-3.53553"
         style="fill:none;fill-rule:evenodd;stroke:#003200;stroke-width:0.5;stroke-linecap:butt;stroke-linejoin:miter;stroke-miterlimit:4;stroke-dasharray:none;stroke-opacity:1" />
    </g>
    <g
       id="g35142"
       style="stroke:#003200;stroke-opacity:1"
       transform="matrix(1.0043424,0,0,1.0043424,-164.75409,218.04254)">
      <path
         inkscape:connector-curvature="0"
         id="path35110"
         d="m 607.5,373.79078 -9.28571,7.85714 -6.78572,3.92857 -15,1.42857 -7.85714,-1.78571 -7.5,-6.07143 3.92857,-4.64286 -11.78571,-0.35714 -5.35715,-3.57143 -3.92857,-3.92857 2.85715,-3.21429 -5.71429,-5 1.07143,-3.92857 -6.42857,-2.5 1.42857,-4.64286 -5,-6.78571 -6.78572,-8.21429 -4.28571,-3.57142 -5.35714,-4.64286 -1.78572,-5 -7.85714,-13.57143 1.78571,-1.78572 -4.64285,-6.07142 1.07143,-1.78572 -4.28572,-4.28571 2.14286,-1.07143 -4.28572,-8.21429 6.78572,2.14286 20.35714,-3.21429 10.71429,-3.21428 -5.35715,-8.57143 1.78572,-13.92857 5.71428,-15 5,-5.71429 -2.14285,-7.14285 0,-8.21429 2.85714,-2.5 -0.35714,-10 1.07143,-5.71429 1.07142,-9.28571 7.85715,9.64286 6.78571,0.35714 3.57143,3.21429 1.07143,-2.5 5.35714,3.92857 10.35714,5 6.42858,-2.5 8.21428,3.21428 7.5,5 4.64286,2.5 13.92857,10 3.57143,5.35715 11.07143,-7.14286 8.92857,-2.85714 0.35714,2.5 11.07143,-9.64286 3.92857,-10.35714 2.85714,5.35714 3.92858,8.57143 1.42857,6.07143 0,8.92857 6.78571,2.85714 3.21429,10 2.85714,10.35714 3.21429,3.57143 1.42857,11.07143 -1.07143,13.57143 -4.64286,20.71428 -3.92857,5.71429 8.21429,5 -0.35715,11.78572 -1.07143,5.35714 -0.35714,8.21428 -3.57143,3.57143 1.07143,6.42857 -6.78571,7.5 -11.78572,7.85715 -4.64285,3.21428 1.78571,5.35715 -5,3.57142 -9.28571,2.5 -18.92858,-1.42857 -13.21428,-3.57143 z"
         style="fill:none;fill-rule:evenodd;stroke:#003200;stroke-width:1px;stroke-linecap:butt;stroke-linejoin:miter;stroke-opacity:1" />
      <path
         inkscape:connector-curvature="0"
         id="path35112"
         d="m 553.21429,209.14792 2.85714,3.92857 8.92857,16.42857 3.92857,11.07143 11.78572,22.5 2.14285,8.57143 8.21429,19.28571 3.92857,16.42857 1.07143,6.42857 7.14286,24.28572 4.28571,36.78571 c 1.07143,-0.71428 8.57143,-17.5 8.57143,-17.5 l 12.5,-30.35714 6.42857,-9.28571 5,-16.78572 5.71429,-11.07143 3.21428,-12.5 2.5,-13.92857 2.14286,-14.64286 4.64286,-25.35714"
         style="fill:none;fill-rule:evenodd;stroke:#003200;stroke-width:1px;stroke-linecap:butt;stroke-linejoin:miter;stroke-opacity:1" />
      <path
         inkscape:connector-curvature="0"
         id="path35114"
         d="m 675.71429,328.43363 -11.78572,10.35715 -19.28571,11.78571 -19.28572,12.5 -17.85714,12.5 c 0,0 -12.5,-19.28571 -12.85714,-20.71429 -0.35714,-1.42857 -18.21429,-22.85714 -18.21429,-22.85714 L 552.5,317.3622 l -18.57143,-10.71428 -17.14285,-10.71429 -4.64286,-4.64286"
         style="fill:none;fill-rule:evenodd;stroke:#003200;stroke-width:1px;stroke-linecap:butt;stroke-linejoin:miter;stroke-opacity:1" />
      <path
         inkscape:connector-curvature="0"
         id="path35116"
         d="m 608.21429,374.8622 -14.28572,-7.5 -21.07143,-8.92857 -15,-5.71428 -9.28571,-1.07143"
         style="fill:none;fill-rule:evenodd;stroke:#003200;stroke-width:1px;stroke-linecap:butt;stroke-linejoin:miter;stroke-opacity:1" />
      <path
         inkscape:connector-curvature="0"
         id="path35118"
         d="m 634.28572,318.07649 18.92857,-4.64286 15.71428,-13.92857 8.92857,-7.85714"
         style="fill:none;fill-rule:evenodd;stroke:#003200;stroke-width:0.5;stroke-linecap:butt;stroke-linejoin:miter;stroke-miterlimit:4;stroke-dasharray:none;stroke-opacity:1" />
      <path
         inkscape:connector-curvature="0"
         id="path35120"
         d="m 650.35714,348.07649 9.28572,5.71429 9.64286,-0.35715 4.64285,-0.71428"
         style="fill:none;fill-rule:evenodd;stroke:#003200;stroke-width:0.5;stroke-linecap:butt;stroke-linejoin:miter;stroke-miterlimit:4;stroke-dasharray:none;stroke-opacity:1" />
      <path
         inkscape:connector-curvature="0"
         id="path35122"
         d="m 593.92857,305.21935 -17.5,-9.64286 -15.35714,-8.21429 -10.35714,-5 -8.92857,2.5 -11.07143,-1.78571"
         style="fill:none;fill-rule:evenodd;stroke:#003200;stroke-width:0.60000002;stroke-linecap:butt;stroke-linejoin:miter;stroke-miterlimit:4;stroke-dasharray:none;stroke-opacity:1" />
      <path
         inkscape:connector-curvature="0"
         id="path35124"
         d="m 592.5,293.79077 10,-10 9.64286,-15.71428 3.21428,-11.78572 0,-3.21428 6.78572,-1.78572 3.57143,-2.85714 1.78571,-3.57143 4.28572,-3.57143"
         style="fill:none;fill-rule:evenodd;stroke:#003200;stroke-width:0.69999999;stroke-linecap:butt;stroke-linejoin:miter;stroke-miterlimit:4;stroke-dasharray:none;stroke-opacity:1" />
      <path
         inkscape:connector-curvature="0"
         id="path35126"
         d="m 616.07143,252.71935 -3.21429,-11.07143 -3.21428,-7.5"
         style="fill:none;fill-rule:evenodd;stroke:#003200;stroke-width:0.69999999;stroke-linecap:butt;stroke-linejoin:miter;stroke-miterlimit:4;stroke-dasharray:none;stroke-opacity:1" />
      <path
         inkscape:connector-curvature="0"
         id="path35128"
         d="m 645.35714,290.93363 10.35715,-4.64286 10.71428,-9.64285 7.14286,-3.92857"
         style="fill:none;fill-rule:evenodd;stroke:#003200;stroke-width:0.69999999;stroke-linecap:butt;stroke-linejoin:miter;stroke-miterlimit:4;stroke-dasharray:none;stroke-opacity:1" />
      <path
         inkscape:connector-curvature="0"
         id="path35130"
         d="m 639.64286,300.93363 -6.07143,-5.71428 -6.07143,-3.92858 -3.57143,-2.5"
         style="fill:none;fill-rule:evenodd;stroke:#003200;stroke-width:0.60000002;stroke-linecap:butt;stroke-linejoin:miter;stroke-miterlimit:4;stroke-dasharray:none;stroke-opacity:1" />
      <path
         inkscape:connector-curvature="0"
         id="path35132"
         d="M 653.21429,254.8622 662.5,253.07649 665,251.64792"
         style="fill:none;fill-rule:evenodd;stroke:#003200;stroke-width:0.60000002;stroke-linecap:butt;stroke-linejoin:miter;stroke-miterlimit:4;stroke-dasharray:none;stroke-opacity:1" />
      <path
         inkscape:connector-curvature="0"
         id="path35134"
         d="m 582.5,271.29077 -16.42857,-6.42857 -15.35714,-9.64285 -9.64286,-6.42858"
         style="fill:none;fill-rule:evenodd;stroke:#003200;stroke-width:0.69999999;stroke-linecap:butt;stroke-linejoin:miter;stroke-miterlimit:4;stroke-dasharray:none;stroke-opacity:1" />
      <path
         inkscape:connector-curvature="0"
         id="path35136"
         d="m 583.92857,271.64792 5,-12.85715 3.92857,-12.14285 0.71429,-13.21429"
         style="fill:none;fill-rule:evenodd;stroke:#003200;stroke-width:0.69999999;stroke-linecap:butt;stroke-linejoin:miter;stroke-miterlimit:4;stroke-dasharray:none;stroke-opacity:1" />
      <path
         inkscape:connector-curvature="0"
         id="path35138"
         d="m 567.85714,237.00506 6.42858,-6.78571 2.85714,-5"
         style="fill:none;fill-rule:evenodd;stroke:#003200;stroke-width:0.60000002;stroke-linecap:butt;stroke-linejoin:miter;stroke-miterlimit:4;stroke-dasharray:none;stroke-opacity:1" />
      <path
         inkscape:connector-curvature="0"
         id="path35140"
         d="m 570,242.71935 -6.42857,-2.5 -11.07143,-5 -4.64286,0.35714"
         style="fill:none;fill-rule:evenodd;stroke:#003200;stroke-width:0.60000002;stroke-linecap:butt;stroke-linejoin:miter;stroke-miterlimit:4;stroke-dasharray:none;stroke-opacity:1" />
    </g>
  </g>
</svg>
