<?xml version="1.0" encoding="UTF-8" standalone="no"?>
<svg
   xmlns:dc="http://purl.org/dc/elements/1.1/"
   xmlns:cc="http://creativecommons.org/ns#"
   xmlns:rdf="http://www.w3.org/1999/02/22-rdf-syntax-ns#"
   xmlns:svg="http://www.w3.org/2000/svg"
   xmlns="http://www.w3.org/2000/svg"
   version="1.1"
   id="svg35556"
   viewBox="0 0 581.00001 470.00001"
   height="470"
   width="581">
  <defs
     id="defs35558" />
  <metadata
     id="metadata35561">
    <rdf:RDF>
      <cc:Work
         rdf:about="">
        <dc:format>image/svg+xml</dc:format>
        <dc:type
           rdf:resource="http://purl.org/dc/dcmitype/StillImage" />
        <dc:title></dc:title>
        <cc:license
           rdf:resource="http://creativecommons.org/publicdomain/zero/1.0/" />
        <dc:creator>
          <cc:Agent>
            <dc:title>Jeremy Seto</dc:title>
          </cc:Agent>
        </dc:creator>
      </cc:Work>
      <cc:License
         rdf:about="http://creativecommons.org/publicdomain/zero/1.0/">
        <cc:permits
           rdf:resource="http://creativecommons.org/ns#Reproduction" />
        <cc:permits
           rdf:resource="http://creativecommons.org/ns#Distribution" />
        <cc:permits
           rdf:resource="http://creativecommons.org/ns#DerivativeWorks" />
      </cc:License>
    </rdf:RDF>
  </metadata>
  <g
     transform="translate(0,-582.36216)"
     id="layer1">
    <g
       transform="matrix(1.000267,0,0,1.000267,-34.021369,49.56506)"
       id="g36276">
      <g
         id="g36157"
         transform="translate(157.21552,324.45032)"
         style="stroke:#215800;stroke-width:2.29999995;stroke-miterlimit:4;stroke-dasharray:none;stroke-opacity:1">
        <g
           id="g36153"
           style="stroke:#215800;stroke-width:2.29999995;stroke-miterlimit:4;stroke-dasharray:none;stroke-opacity:1">
          <path
             style="fill:none;fill-rule:evenodd;stroke:#215800;stroke-width:2.29999995;stroke-linecap:butt;stroke-linejoin:miter;stroke-miterlimit:4;stroke-dasharray:none;stroke-opacity:1"
             d="M 166.42857,677.3622 250.71429,571.64792 285,524.50506 l 22.85714,-30 15.71429,-25 18.57143,-27.85714 L 360,414.50506 l 17.85714,-20 10.71429,-17.85714 12.14286,-17.14286 13.57142,-16.42857 3.57143,-5"
             id="path36119" />
          <path
             style="fill:none;fill-rule:evenodd;stroke:#215800;stroke-width:2.29999995;stroke-linecap:butt;stroke-linejoin:miter;stroke-miterlimit:4;stroke-dasharray:none;stroke-opacity:1"
             d="m 204.28571,632.3622 16.42858,1.42858 9.28571,2.14285 9.28571,-1.42857 6.42858,-4.28571 7.85714,-2.14286 7.85714,2.14286 10.71429,0 5,-2.14286 4.28571,-2.14286 4.28572,-0.71428 2.85714,2.14285 -2.85714,-7.85714 -8.57143,-15 -1.42857,-4.28571 3.57142,-5 12.85715,-5.71429 21.42857,-3.57143 15.71428,-0.71428 13.57143,2.85714 8.57143,2.14286 8.57143,0 2.14286,-3.57143 10.71428,-1.42857 7.85715,-2.14286 -3.57143,-8.57143 -10,-13.57143 -12.85715,-13.57143 -3.57142,-6.42857 2.14285,-12.14285 11.42857,-11.42858 12.85715,-12.85714 6.42857,-3.57143 16.42857,-2.85714 15.71429,0 7.14285,-0.71429 0,-6.42857 2.85715,-8.57143 8.57142,-1.42857 10.71429,-6.42857 6.42857,-4.28571 2.85714,-2.14286 -7.14285,-6.42857 -15.71429,-5 -12.85714,-2.14286 -15,-6.42857 -8.57143,-7.14286 -1.42857,-10 14.5302,-34.16043 6.56599,-16.16244 3.03046,-4.54568 -1.01015,-1.01016 -3.03046,-2.52538 0.50507,-7.07107 6.06092,-14.14213 1.51523,-9.09138 3.03046,-9.59644 3.03045,-5.05077 -3.53553,4.04061 -8.08122,4.04061 -9.59645,3.53554 -5.55584,2.52538 -7.07107,4.04061 -12.6269,10.6066 -4.54569,4.04061 -6.06092,1.51523 -3.53553,-2.02031 -2.52538,-3.03045 0,3.03045 -4.54569,3.53554 -6.06091,7.57614 -8.5863,13.13199 -15.15229,13.63705 -10.6066,12.12184 -10.10152,9.59644 -6.06092,1.01016 -6.56599,-3.03046 -10.6066,-7.07107 -7.07107,-9.09137 -7.07107,-10.10153 -5.05076,-7.07106 -6.56599,-6.566 -5.55584,-8.08122 -5.05076,-9.59645 -3.03046,-2.0203 -1.51523,-4.04061 0,5.05076 -2.02031,7.07107 -1.01015,7.07107 -0.50508,15.15229 -1.51522,8.08122 -6.06092,6.06091 -4.04061,1.01015 1.51523,3.53554 0,11.11168 2.52538,6.56599 6.56599,16.66751 3.53554,17.67767 -1.01016,15.15229 -5.55584,14.64721 -11.61675,6.566 -16.16244,-0.50508 -13.13198,-5.05076 -9.59645,-1.01016 -9.09138,0 6.06092,4.04061 1.01015,6.06092 -0.50507,7.57614 -5.05077,1.51523 3.03046,5.05077 10.10153,15.65736 6.06091,14.64721 2.52538,13.13198 0.50508,19.1929 2.0203,25.75889 0.50508,10.10153 0.50508,8.5863 z"
             id="path36121" />
        </g>
        <path
           id="path36123"
           d="m 286.88332,522.53719 13.63706,2.52539 17.67767,-0.50508 12.62691,-2.52538 16.66752,-5.55584 8.58629,-7.07107 4.54569,-2.0203"
           style="fill:none;fill-rule:evenodd;stroke:#215800;stroke-width:2.29999995;stroke-linecap:butt;stroke-linejoin:miter;stroke-miterlimit:4;stroke-dasharray:none;stroke-opacity:1" />
        <path
           id="path36125"
           d="m 250.51783,570.01436 13.63706,-3.53553 19.69798,-4.54569 18.18274,-2.0203 21.2132,1.51523 13.63706,1.51523 14.14214,5.05076 12.12183,5.55584 9.09137,5.05076 7.07107,5.55584"
           style="fill:none;fill-rule:evenodd;stroke:#215800;stroke-width:2.29999995;stroke-linecap:butt;stroke-linejoin:miter;stroke-miterlimit:4;stroke-dasharray:none;stroke-opacity:1" />
        <path
           id="path36127"
           d="m 223.74879,606.37986 c 2.0203,-1.01016 19.69797,-1.51523 19.69797,-1.51523 l 14.64722,3.53553 12.6269,5.55584 7.07107,6.56599 4.04061,1.51523 6.06092,5.55584"
           style="fill:none;fill-rule:evenodd;stroke:#215800;stroke-width:2.29999995;stroke-linecap:butt;stroke-linejoin:miter;stroke-miterlimit:4;stroke-dasharray:none;stroke-opacity:1" />
        <path
           id="path36129"
           d="m 233.34524,591.73264 0.50507,-23.73858 -4.54568,-23.23351 -8.5863,-15.65736 -7.57614,-13.13199 -14.14214,-13.13198 -9.09137,-8.5863 -8.5863,-4.54568 -5.55584,-0.50508"
           style="fill:none;fill-rule:evenodd;stroke:#215800;stroke-width:2.29999995;stroke-linecap:butt;stroke-linejoin:miter;stroke-miterlimit:4;stroke-dasharray:none;stroke-opacity:1" />
        <path
           id="path36131"
           d="m 204.55589,507.3849 -11.11168,1.51524 -6.56599,0.50507 -7.07107,-1.51523 -1.01015,-1.01015"
           style="fill:none;fill-rule:evenodd;stroke:#215800;stroke-width:2.29999995;stroke-linecap:butt;stroke-linejoin:miter;stroke-miterlimit:4;stroke-dasharray:none;stroke-opacity:1" />
        <path
           id="path36133"
           d="m 308.09653,494.758 30.30457,-7.57614 17.67767,-6.566 22.22336,-5.55584 19.1929,-4.54568 18.68782,-2.52538 16.66752,-1.01016 11.11167,1.01016 13.63706,0.50507"
           style="fill:none;fill-rule:evenodd;stroke:#215800;stroke-width:2.29999995;stroke-linecap:butt;stroke-linejoin:miter;stroke-miterlimit:4;stroke-dasharray:none;stroke-opacity:1" />
        <path
           id="path36135"
           d="m 393.45442,472.02957 8.08122,7.07106 12.6269,9.09138 6.06092,5.55584 5.55584,6.06091"
           style="fill:none;fill-rule:evenodd;stroke:#215800;stroke-width:2.29999995;stroke-linecap:butt;stroke-linejoin:miter;stroke-miterlimit:4;stroke-dasharray:none;stroke-opacity:1" />
        <path
           id="path36137"
           d="m 272.74119,540.21486 -1.01016,-21.71828 2.02031,-17.67767 2.02031,-24.24366 -1.01016,-20.20305 -4.54568,-22.72843 -5.55584,-14.64721 -6.56599,-23.73859 -8.08122,-25.25381 -6.06092,-16.66752"
           style="fill:none;fill-rule:evenodd;stroke:#215800;stroke-width:2.29999995;stroke-linecap:butt;stroke-linejoin:miter;stroke-miterlimit:4;stroke-dasharray:none;stroke-opacity:1" />
        <path
           id="path36139"
           d="m 266.1752,424.5524 -17.67767,-9.09138 -12.12183,-7.57614 -7.57615,-4.54569 -1.51523,-1.51522"
           style="fill:none;fill-rule:evenodd;stroke:#215800;stroke-width:2.29999995;stroke-linecap:butt;stroke-linejoin:miter;stroke-miterlimit:4;stroke-dasharray:none;stroke-opacity:1" />
        <path
           id="path36141"
           d="m 383.85797,385.15645 11.11168,0 13.13198,-4.04061 8.08122,-4.54569 6.56599,-4.04061"
           style="fill:none;fill-rule:evenodd;stroke:#215800;stroke-width:2.29999995;stroke-linecap:butt;stroke-linejoin:miter;stroke-miterlimit:4;stroke-dasharray:none;stroke-opacity:1" />
        <path
           id="path36143"
           d="m 365.17015,407.37981 -2.02031,-20.20306 1.01015,-15.65736 0.50508,-12.12183 -0.50508,-5.55584"
           style="fill:none;fill-rule:evenodd;stroke:#215800;stroke-width:2.29999995;stroke-linecap:butt;stroke-linejoin:miter;stroke-miterlimit:4;stroke-dasharray:none;stroke-opacity:1" />
        <path
           id="path36145"
           d="m 323.24881,471.01941 -11.11167,-18.18274 -4.54569,-12.12183"
           style="fill:none;fill-rule:evenodd;stroke:#215800;stroke-width:2.29999995;stroke-linecap:butt;stroke-linejoin:miter;stroke-miterlimit:4;stroke-dasharray:none;stroke-opacity:1" />
        <path
           id="path36147"
           d="m 333.85542,400.81381 -2.02031,8.5863 -0.50507,12.12183 3.53553,12.62691 8.08122,6.56599 17.17259,5.05076 13.13199,0.50508 8.58629,-2.52538"
           style="fill:none;fill-rule:evenodd;stroke:#215800;stroke-width:2.29999995;stroke-linecap:butt;stroke-linejoin:miter;stroke-miterlimit:4;stroke-dasharray:none;stroke-opacity:1" />
        <path
           id="path36149"
           d="m 355.5737,423.03717 12.12183,1.51523 14.14213,-1.51523 8.5863,-3.53554 3.53553,-2.52538"
           style="fill:none;fill-rule:evenodd;stroke:#215800;stroke-width:2.29999995;stroke-linecap:butt;stroke-linejoin:miter;stroke-miterlimit:4;stroke-dasharray:none;stroke-opacity:1" />
        <path
           id="path36151"
           d="m 376.28182,395.76305 9.09138,2.52538 10.10152,1.51523 7.07107,-3.03046"
           style="fill:none;fill-rule:evenodd;stroke:#215800;stroke-width:2.29999995;stroke-linecap:butt;stroke-linejoin:miter;stroke-miterlimit:4;stroke-dasharray:none;stroke-opacity:1" />
      </g>
      <g
         id="g36213"
         transform="translate(-307.14286,364.30674)"
         style="fill:none;fill-opacity:0.7323232;stroke:#215800;stroke-width:2.29999995;stroke-miterlimit:4;stroke-dasharray:none;stroke-opacity:1">
        <g
           id="g36181"
           style="fill:none;fill-opacity:0.7323232;stroke:#215800;stroke-width:2.29999995;stroke-miterlimit:4;stroke-dasharray:none;stroke-opacity:1">
          <path
             style="fill:none;fill-opacity:0.7323232;fill-rule:evenodd;stroke:#215800;stroke-width:2.29999995;stroke-linecap:butt;stroke-linejoin:miter;stroke-miterlimit:4;stroke-dasharray:none;stroke-opacity:1"
             d="m 506.08643,527.08288 18.18274,-54.54824 8.08122,-31.31473 11.11168,-34.34518 15.15229,-37.37565 20.20305,-38.38579 13.13198,-31.31473 6.06092,-9.09137 8.08122,-23.23351 10.10152,-19.1929 11.11168,-24.24366 6.06092,-16.16244 7.07106,-15.15229 8.32632,-16.285 1.77521,-7.95866"
             id="path36177" />
          <path
             style="fill:none;fill-opacity:0.7323232;fill-rule:evenodd;stroke:#215800;stroke-width:2.29999995;stroke-linecap:butt;stroke-linejoin:miter;stroke-miterlimit:4;stroke-dasharray:none;stroke-opacity:1"
             d="m 524.26917,472.53464 32.32488,-21.2132 21.50907,-14.90719 17.88688,-7.31617 25.25382,-5.05076 19.19289,-2.0203 4.04061,1.01015 -6.06091,-3.03046 4.04061,-7.07107 10.10152,-4.04061 7.07107,-3.03045 -5.05076,-4.04061 -11.11168,-4.04061 -8.08122,-8.08123 -12.12183,-3.03045 -9.09137,-8.08122 1.01015,-14.14214 11.11168,-16.16244 10.10152,-10.10152 26.26397,-7.07107 10.10153,-4.04061 7.07106,-5.05077 10.10153,-2.0203 -5.05076,-3.03046 3.03045,-8.08122 11.11168,-9.09137 8.08122,-13.13198 3.03046,-2.02031 -5.05076,2.02031 -9.09138,-3.03046 -22.22335,-6.06092 -17.1726,-7.07107 -7.07106,-16.16244 5.05076,-23.2335 2.0203,-10.10153 0,-5.05076 -4.04061,-4.04061 -3.03045,-14.14214 1.1862,-25.41095 -7.85715,6.42858 -6.42857,2.14285 -5.71428,3.57143 -12.14286,14.28572 -7.14286,4.28571 -7.85714,0 -4.28572,-2.14286 -5,6.42857 -4.28571,9.28572 -6.42857,14.28571 -11.42857,16.42857 -10,7.85715 -10.71429,-5 -15.71428,-11.42857 -9.28572,-13.57143 -9.28571,-14.28572 -8.57143,-9.28571 -1.42857,6.42857 -5,12.85714 -2.85715,11.42857 -2.14285,10 -8.57143,4.28572 -9.28572,1.42857 -2.85714,-0.71429 1.42857,2.85715 2.85715,12.85714 0.71428,5 -0.71428,2.14286 -5,-3.57143 12.14285,20.71428 11.42857,19.28572 6.42858,7.14286 5.71428,20 2.85714,16.42857 -2.14285,12.85714 -7.14286,9.28571 -10,2.14286 -15.71429,0 -12.14285,2.85714 -10,1.42858 -2.14286,2.14285 -5.71429,0 8.57143,3.57143 5,5 0.71429,5 -0.71429,2.85714 -5.71428,-2.14285 10.71428,7.14285 15.71429,9.28572 8.57143,8.57143 8.57143,15 7.14285,17.14285 8.57143,12.14286 2.85714,7.14286 z"
             id="path36179" />
        </g>
        <path
           id="path36185"
           d="m 541.42857,412.3622 19.28572,-5.71428 26.42857,-5.71429 20,-0.71428 23.57143,3.57143 13.57142,0.71428 20,2.14286"
           style="fill:none;fill-opacity:0.7323232;fill-rule:evenodd;stroke:#215800;stroke-width:2.29999995;stroke-linecap:butt;stroke-linejoin:miter;stroke-miterlimit:4;stroke-dasharray:none;stroke-opacity:1" />
        <path
           id="path36187"
           d="M 535,433.79078 524.28571,417.3622 511.42857,404.50506 498.57143,393.79078 485,387.3622 l -10,-4.28571 -8.57143,-1.42857 -10,-0.71429 -8.57143,-0.71428"
           style="fill:none;fill-opacity:0.7323232;fill-rule:evenodd;stroke:#215800;stroke-width:2.29999995;stroke-linecap:butt;stroke-linejoin:miter;stroke-miterlimit:4;stroke-dasharray:none;stroke-opacity:1" />
        <path
           id="path36189"
           d="m 556.42857,374.50506 17.14286,-5 21.42857,-3.57143 9.28571,-1.42857"
           style="fill:none;fill-opacity:0.7323232;fill-rule:evenodd;stroke:#215800;stroke-width:2.29999995;stroke-linecap:butt;stroke-linejoin:miter;stroke-miterlimit:4;stroke-dasharray:none;stroke-opacity:1" />
        <path
           id="path36191"
           d="m 577.14286,331.64792 14.28571,-4.28572 20,-6.42857 25,-10.71428 17.14286,-6.42857 25.71429,-9.28572 11.42857,-2.14286 16.42857,-5.71428 9.28571,-5.71429"
           style="fill:none;fill-opacity:0.7323232;fill-rule:evenodd;stroke:#215800;stroke-width:2.29999995;stroke-linecap:butt;stroke-linejoin:miter;stroke-miterlimit:4;stroke-dasharray:none;stroke-opacity:1" />
        <path
           id="path36193"
           d="m 651.42857,303.79078 20.71429,12.14285 12.14286,2.14286 7.85714,2.14286"
           style="fill:none;fill-opacity:0.7323232;fill-rule:evenodd;stroke:#215800;stroke-width:2.29999995;stroke-linecap:butt;stroke-linejoin:miter;stroke-miterlimit:4;stroke-dasharray:none;stroke-opacity:1" />
        <path
           id="path36195"
           d="m 605.71429,270.93363 23.57142,-2.85714 7.85715,0"
           style="fill:none;fill-opacity:0.7323232;fill-rule:evenodd;stroke:#215800;stroke-width:2.29999995;stroke-linecap:butt;stroke-linejoin:miter;stroke-miterlimit:4;stroke-dasharray:none;stroke-opacity:1" />
        <path
           id="path36197"
           d="m 645.71429,248.79078 -4.28572,1.42857 -10,1.42857 -17.14286,-2.85714 -7.14285,-12.14286 -5.71429,-16.42857 L 600,208.07649 599.28571,195.21935"
           style="fill:none;fill-opacity:0.7323232;fill-rule:evenodd;stroke:#215800;stroke-width:2.29999995;stroke-linecap:butt;stroke-linejoin:miter;stroke-miterlimit:4;stroke-dasharray:none;stroke-opacity:1" />
        <path
           id="path36199"
           d="m 621.42857,234.50506 19.28572,-6.42857 12.14285,-7.85714 8.57143,-7.14286"
           style="fill:none;fill-opacity:0.7323232;fill-rule:evenodd;stroke:#215800;stroke-width:2.29999995;stroke-linecap:butt;stroke-linejoin:miter;stroke-miterlimit:4;stroke-dasharray:none;stroke-opacity:1" />
        <path
           id="path36201"
           d="M 558.57143,370.21934 542.85714,329.50506 535,308.07649 l -10.71429,-32.14286 -10,-32.14285 -5,-23.57143 -1.42857,-23.57143"
           style="fill:none;fill-opacity:0.7323232;fill-rule:evenodd;stroke:#215800;stroke-width:2.29999995;stroke-linecap:butt;stroke-linejoin:miter;stroke-miterlimit:4;stroke-dasharray:none;stroke-opacity:1" />
        <path
           id="path36203"
           d="m 514.28571,249.50506 8.57143,-10.71428 3.57143,-13.57143"
           style="fill:none;fill-opacity:0.7323232;fill-rule:evenodd;stroke:#215800;stroke-width:2.29999995;stroke-linecap:butt;stroke-linejoin:miter;stroke-miterlimit:4;stroke-dasharray:none;stroke-opacity:1" />
        <path
           id="path36205"
           d="m 524.28571,277.3622 -18.57142,-9.28571 -19.28572,-15.71429 -12.14286,-5.71428"
           style="fill:none;fill-opacity:0.7323232;fill-rule:evenodd;stroke:#215800;stroke-width:2.29999995;stroke-linecap:butt;stroke-linejoin:miter;stroke-miterlimit:4;stroke-dasharray:none;stroke-opacity:1" />
        <path
           id="path36207"
           d="m 506.42857,267.3622 c 0,0 -10.22389,4.73362 -15.71428,5 -3.405,0.1652 -10,-2.14285 -10,-2.14285 l -4.28572,-2.85715"
           style="fill:none;fill-opacity:0.7323232;fill-rule:evenodd;stroke:#215800;stroke-width:2.29999995;stroke-linecap:butt;stroke-linejoin:miter;stroke-miterlimit:4;stroke-dasharray:none;stroke-opacity:1" />
        <path
           id="path36209"
           d="m 558.57143,369.50505 -25,-14.2857 -16.42857,-20 -7.85715,-10.71429"
           style="fill:none;fill-opacity:0.7323232;fill-rule:evenodd;stroke:#215800;stroke-width:2.29999995;stroke-linecap:butt;stroke-linejoin:miter;stroke-miterlimit:4;stroke-dasharray:none;stroke-opacity:1" />
        <path
           id="path36211"
           d="m 537.14286,313.79077 c 0,0 -14.97382,-3.83023 -21.42857,-7.85714 -6.71503,-4.18929 -17.14286,-16.42857 -17.14286,-16.42857 l -11.42857,-9.28571 -12.85715,-13.57143"
           style="fill:none;fill-opacity:0.7323232;fill-rule:evenodd;stroke:#215800;stroke-width:2.29999995;stroke-linecap:butt;stroke-linejoin:miter;stroke-miterlimit:4;stroke-dasharray:none;stroke-opacity:1" />
      </g>
      <g
         id="g36260"
         transform="translate(-208.70842,640.04926)"
         style="stroke:#215800;stroke-width:2.29999995;stroke-miterlimit:4;stroke-dasharray:none;stroke-opacity:1">
        <path
           id="path36232"
           d="M 419.28571,313.43363 348.92857,243.79077 317.5,208.07649 296.42857,185.21935 284.28571,167.3622 l -7.5,-5.35714 -8.92857,-11.42857 -8.21428,-8.57143"
           style="fill:none;fill-rule:evenodd;stroke:#215800;stroke-width:2.29999995;stroke-linecap:butt;stroke-linejoin:miter;stroke-miterlimit:4;stroke-dasharray:none;stroke-opacity:1" />
        <path
           id="path36234"
           d="m 395.35714,289.14792 3.57143,-9.64286 -1.78571,-12.85714 c 0,0 -2.27472,-10.89392 -2.5,-16.42857 -0.20869,-5.12725 1.07143,-15.35715 1.07143,-15.35715 l 1.96428,-14.28571 0.53572,-1.42857 0,0.71428 -1.78572,-6.42857 -0.35714,-5 -6.42857,1.07143 -7.85715,3.21429 -7.85714,4.64285 L 370,205.21935 l -2.85714,-11.78572 1.78571,-7.5 0,-11.07143 0,-6.78571 -1.07143,-2.85714 0.35715,-4.28572 -1.78572,2.14286 -5.35714,-3.21429 -3.92857,-8.57143 -3.21429,-5.71428 -2.14286,-2.5 -4.28571,5.35714 -5,7.14286 -6.42857,6.78571 -5.35714,7.14286 -2.5,3.21429 -5,0.71428 -8.57143,-3.57143 -11.07143,-7.5 -10.71429,-6.07143 -6.07143,-4.64285 -7.14285,-3.21429 -1.78572,-4.28571 0.71429,6.07143 -7.14286,-2.14286 -3.57143,-1.78572 -4.64285,-1.42857 1.42857,7.14286 0.71428,6.42857 -3.92857,-2.14286 4.64286,5 3.92857,8.57143 -0.71429,7.5 -1.78571,1.42857 -5.71429,-1.42857 5.35715,3.92857 5,8.92858 4.28571,9.64285 L 280,210.93363 c 0,0 0.32976,5.18501 -1.07143,7.14286 -2.26211,3.16079 -10.35714,5.35714 -10.35714,5.35714 l -8.57143,5 -6.42857,3.92857 c 0,0 -2.49597,1.2649 -3.57143,2.14286 -1.50124,1.22554 -3.92857,4.28571 -3.92857,4.28571 L 245,238.43363 l 5.71429,1.78572 8.21428,5 0.71429,4.28571 -3.57143,4.64286 5,-2.85715 8.21428,4.64286 10.71429,1.78572 15.71429,-1.42858 16.07142,3.21429 7.14286,6.07143 -0.35714,8.92857 -6.78572,11.42857 -4.64285,8.21429 -4.64286,6.07143 5.71429,-4.28572 8.92857,0.71429 c 0,0 1.79718,1.32723 2.85714,1.42857 6.15325,0.58831 17.85714,-5 17.85714,-5 l 11.42857,-2.85714 10.35715,1.78571 9.64285,-1.07143 8.57143,-2.14286 8.57143,0 z"
           style="fill:none;fill-rule:evenodd;stroke:#215800;stroke-width:2.29999995;stroke-linecap:butt;stroke-linejoin:miter;stroke-miterlimit:4;stroke-dasharray:none;stroke-opacity:1" />
        <path
           id="path36236"
           d="m 370.71429,265.93363 c 0,0 0.71428,-11.78571 0.71428,-13.92857 0,-2.14286 6.42857,-17.14286 6.42857,-17.14286 l 5.71429,-12.14285 7.85714,-7.85715 2.85714,-5 3.57143,-3.57143"
           style="fill:none;fill-rule:evenodd;stroke:#215800;stroke-width:1.5;stroke-linecap:butt;stroke-linejoin:miter;stroke-miterlimit:4;stroke-dasharray:none;stroke-opacity:1" />
        <path
           id="path36238"
           d="m 383.21429,223.07649 c 0,0 6.83917,1.42223 10,0.35714 1.6034,-0.54029 3.92857,-3.21428 3.92857,-3.21428 l 3.21428,-4.64286"
           style="fill:none;fill-rule:evenodd;stroke:#215800;stroke-width:1.20000005;stroke-linecap:butt;stroke-linejoin:miter;stroke-miterlimit:4;stroke-dasharray:none;stroke-opacity:1" />
        <path
           id="path36240"
           d="m 372.5,267.3622 c -1.42857,-0.71428 -13.92857,0 -13.92857,0 l -16.42857,6.42857 -20.35715,11.42858 -8.57142,5.71428 -10,8.21429"
           style="fill:none;fill-rule:evenodd;stroke:#215800;stroke-width:1.39999998;stroke-linecap:butt;stroke-linejoin:miter;stroke-miterlimit:4;stroke-dasharray:none;stroke-opacity:1" />
        <path
           id="path36242"
           d="m 348.92857,243.43363 -28.21428,-4.28571 -22.85715,-2.5 -23.21428,-1.78572 -22.5,2.14286 -9.28572,1.60714"
           style="fill:none;fill-rule:evenodd;stroke:#215800;stroke-width:1.60000002;stroke-linecap:butt;stroke-linejoin:miter;stroke-miterlimit:4;stroke-dasharray:none;stroke-opacity:1" />
        <path
           id="path36244"
           d="m 282.85714,235.93363 -9.28571,8.92857 -12.5,5.71429 -3.92857,2.85714"
           style="fill:none;fill-rule:evenodd;stroke:#215800;stroke-width:1.5;stroke-linecap:butt;stroke-linejoin:miter;stroke-miterlimit:4;stroke-dasharray:none;stroke-opacity:1" />
        <path
           id="path36246"
           d="m 297.5,187.3622 -11.07143,-0.71428 -11.07143,-5.71429 -7.14285,-1.42857 -6.78572,-2.5"
           style="fill:none;fill-rule:evenodd;stroke:#215800;stroke-width:1.60000002;stroke-linecap:butt;stroke-linejoin:miter;stroke-miterlimit:4;stroke-dasharray:none;stroke-opacity:1" />
        <path
           id="path36248"
           d="m 348.21429,242.71935 -0.35715,-33.21429 0,-25 -0.35714,-19.28571 3.21429,-14.28572 1.07142,-9.64286"
           style="fill:none;fill-rule:evenodd;stroke:#215800;stroke-width:1.60000002;stroke-linecap:butt;stroke-linejoin:miter;stroke-miterlimit:4;stroke-dasharray:none;stroke-opacity:1" />
        <path
           id="path36250"
           d="m 347.14286,180.57649 10.71428,-6.78572 6.78572,-7.14285 4.28571,-7.14286"
           style="fill:none;fill-rule:evenodd;stroke:#215800;stroke-width:1.70000005;stroke-linecap:butt;stroke-linejoin:miter;stroke-miterlimit:4;stroke-dasharray:none;stroke-opacity:1" />
        <path
           id="path36252"
           d="m 283.92857,166.64792 -2.5,-12.14286 -3.57143,-10"
           style="fill:none;fill-rule:evenodd;stroke:#215800;stroke-width:1.60000002;stroke-linecap:butt;stroke-linejoin:miter;stroke-miterlimit:4;stroke-dasharray:none;stroke-opacity:1" />
        <path
           id="path36254"
           d="m 275.35714,161.1122 -9.64285,-2.32143 -4.64286,-2.5"
           style="fill:none;fill-rule:evenodd;stroke:#215800;stroke-width:1.20000005;stroke-linecap:butt;stroke-linejoin:miter;stroke-miterlimit:4;stroke-dasharray:none;stroke-opacity:1" />
        <path
           id="path36256"
           d="m 318.21429,209.14792 c 0,0 -7.01294,2.88417 -10.71429,3.57143 -2.57769,0.47862 -5.26549,0.75327 -7.85714,0.35714 -2.75484,-0.42107 -7.85715,-2.85714 -7.85715,-2.85714"
           style="fill:none;fill-rule:evenodd;stroke:#215800;stroke-width:2.29999995;stroke-linecap:butt;stroke-linejoin:miter;stroke-miterlimit:4;stroke-dasharray:none;stroke-opacity:1" />
        <path
           id="path36258"
           d="m 298.57143,187.3622 c 0,0 4.38085,-4.81513 5,-7.85714 0.72212,-3.54795 -1.78572,-10.71429 -1.78572,-10.71429 L 300,162.00506 l -1.78571,-4.28571"
           style="fill:none;fill-rule:evenodd;stroke:#215800;stroke-width:1.79999995;stroke-linecap:butt;stroke-linejoin:miter;stroke-miterlimit:4;stroke-dasharray:none;stroke-opacity:1" />
      </g>
    </g>
  </g>
</svg>
