<?xml version="1.0" encoding="UTF-8" standalone="no"?>
<svg
   xmlns:dc="http://purl.org/dc/elements/1.1/"
   xmlns:cc="http://creativecommons.org/ns#"
   xmlns:rdf="http://www.w3.org/1999/02/22-rdf-syntax-ns#"
   xmlns:svg="http://www.w3.org/2000/svg"
   xmlns="http://www.w3.org/2000/svg"
   viewBox="0 0 436 564"
   height="564"
   width="436"
   xml:space="preserve"
   version="1.1"
   id="svg2">
<!--
Image created and edited by Jeremy Seto
Licensed under Creative Commons Zero or Public Domain
CC0
Free to use and re-use without attribution.
-->
<metadata
     id="metadata8"><rdf:RDF><cc:Work
         rdf:about=""><dc:format>image/svg+xml</dc:format><dc:type
           rdf:resource="http://purl.org/dc/dcmitype/StillImage" /><dc:title></dc:title></cc:Work></rdf:RDF></metadata><defs
     id="defs6" /><g
     transform="matrix(1.25,0,0,-1.25,0,564)"
     id="g10"><g
       id="g12" /><g
       transform="translate(-3.9285598,-1.9642944)"
       id="g4460"><rect
         style="opacity:1;fill:#ffffff;fill-opacity:1;stroke:none;stroke-width:3.66199994;stroke-linejoin:round;stroke-miterlimit:4;stroke-dasharray:none;stroke-dashoffset:0;stroke-opacity:1"
         id="rect4456"
         width="348.6597"
         height="450.80225"
         x="3.9285598"
         y="-452.76654"
         transform="scale(1,-1)" /><g
         id="g4414"
         transform="translate(-87.410459,-31.42848)"><text
           y="-62.324001"
           x="265.27399"
           transform="scale(1,-1)"
           style="font-variant:normal;font-weight:normal;font-size:12px;font-family:Helvetica;-inkscape-font-specification:Helvetica;writing-mode:lr-tb;fill:#000000;fill-opacity:1;fill-rule:nonzero;stroke:none"
           id="text16"><tspan
             x="265.27399 273.93799 280.60999 283.27399 289.94598 296.61798 303.28998 307.58597 317.58197 327.58997 334.26196 340.93399 344.92996 349.10599 351.76999 358.44199 365.11398"
             y="-62.324001"
             id="tspan18">Helodermahorridum</tspan></text>
<text
           y="-94.323997"
           x="264.94202"
           transform="scale(1,-1)"
           style="font-variant:normal;font-weight:normal;font-size:12px;font-family:Helvetica;-inkscape-font-specification:Helvetica;writing-mode:lr-tb;fill:#000000;fill-opacity:1;fill-rule:nonzero;stroke:none"
           id="text20"><tspan
             x="264.94202 271.61404 278.28604 284.95804 288.29404 294.96603 301.63803 308.31003 314.98203 318.31802 324.99002 334.14603 340.81802 347.49002 351.78604 358.45804 365.13004 371.80203 377.80203 380.46603"
             y="-94.323997"
             id="tspan22">Lanthanotusbornensis</tspan></text>
<path
           d="m 255.41401,68.215992 -17.91,0 0,31.999998 17.91,0"
           style="fill:none;stroke:#000000;stroke-width:0.75;stroke-linecap:round;stroke-linejoin:round;stroke-miterlimit:10;stroke-dasharray:none;stroke-opacity:1"
           id="path24" /><text
           y="-128.66399"
           x="169.55403"
           transform="scale(1,-1)"
           style="font-variant:normal;font-weight:normal;font-size:12px;font-family:Helvetica;-inkscape-font-specification:Helvetica;writing-mode:lr-tb;fill:#000000;fill-opacity:1;fill-rule:nonzero;stroke:none"
           id="text26"><tspan
             x="169.55403 176.71803 183.39003 187.26601 193.93803 200.49004 207.16203 216.31801 222.99004 226.86601 233.53801 239.53801 242.202 248.75401 255.42601"
             y="-128.66399"
             id="tspan28">Varanusprasinus</tspan></text>
<text
           y="-158.32399"
           x="248.57599"
           transform="scale(1,-1)"
           style="font-variant:normal;font-weight:normal;font-size:12px;font-family:Helvetica;-inkscape-font-specification:Helvetica;writing-mode:lr-tb;fill:#000000;fill-opacity:1;fill-rule:nonzero;stroke:none"
           id="text30"><tspan
             x="248.57599 255.73999 262.41199 266.28799 272.95999 279.51199 286.18399 295.34 301.65198 307.65198 314.32397 320.99597 324.33197 331.004 337.67599 347.672 354.34399 357.67999 360.34396 366.34396 373.01599"
             y="-158.32399"
             id="tspan32">Varanusexanthematicus</tspan></text>
<text
           y="-190.32399"
           x="299.328"
           transform="scale(1,-1)"
           style="font-variant:normal;font-weight:normal;font-size:12px;font-family:Helvetica;-inkscape-font-specification:Helvetica;writing-mode:lr-tb;fill:#000000;fill-opacity:1;fill-rule:nonzero;stroke:none"
           id="text34"><tspan
             x="299.328 306.49197 313.164 317.03998 323.71201 330.26401 336.936 346.09198 352.76401 358.76401 365.436 372.108 375.444 382.116 388.78799 392.96399 399.63599"
             y="-190.32399"
             id="tspan36">Varanusacanthurus</tspan></text>
<text
           y="-224.66399"
           x="299.70401"
           transform="scale(1,-1)"
           style="font-variant:normal;font-weight:normal;font-size:12px;font-family:Helvetica;-inkscape-font-specification:Helvetica;writing-mode:lr-tb;fill:#000000;fill-opacity:1;fill-rule:nonzero;stroke:none"
           id="text38"><tspan
             x="299.70401 306.86801 313.53998 317.41599 324.08798 330.63998 337.31198 346.46799 353.13998 359.81198 366.48398 369.14798 375.81998 378.48398"
             y="-224.66399"
             id="tspan40">Varanusgouldii</tspan></text>
<path
           d="m 289.20401,196.21599 -17.92,0 0,32 17.92,0"
           style="fill:none;stroke:#000000;stroke-width:0.75;stroke-linecap:round;stroke-linejoin:round;stroke-miterlimit:10;stroke-dasharray:none;stroke-opacity:1"
           id="path42" /><text
           y="-256.664"
           x="289.59399"
           transform="scale(1,-1)"
           style="font-variant:normal;font-weight:normal;font-size:12px;font-family:Helvetica;-inkscape-font-specification:Helvetica;writing-mode:lr-tb;fill:#000000;fill-opacity:1;fill-rule:nonzero;stroke:none"
           id="text44"><tspan
             x="289.59399 296.758 303.42999 307.306 313.978 320.53 327.202 336.358 343.03 349.702 356.37396 363.04596 369.71796 373.05396 379.72595 388.88196 395.55396 402.22595 406.52197 413.19397"
             y="-256.664"
             id="tspan46">Varanuspanopteshorni</tspan></text>
<text
           y="-288.664"
           x="289.22"
           transform="scale(1,-1)"
           style="font-variant:normal;font-weight:normal;font-size:12px;font-family:Helvetica;-inkscape-font-specification:Helvetica;writing-mode:lr-tb;fill:#000000;fill-opacity:1;fill-rule:nonzero;stroke:none"
           id="text48"><tspan
             x="289.22 296.384 303.056 306.93201 313.604 320.15601 326.828 335.98401 342.65601 349.328 356 362.67203 369.34402 372.68002 379.35202 388.50803 395.18002 401.85205 408.52405 415.19604 421.86804 425.20404 431.87604"
             y="-288.664"
             id="tspan50">Varanuspanoptespanoptes</tspan></text>
<path
           d="m 279.09401,260.21599 -17.92,0 0,32 17.92,0"
           style="fill:none;stroke:#000000;stroke-width:0.75;stroke-linecap:round;stroke-linejoin:round;stroke-miterlimit:10;stroke-dasharray:none;stroke-opacity:1"
           id="path52" /><path
           d="m 271.28401,212.21599 -16.91,0 0,64 6.8,0"
           style="fill:none;stroke:#000000;stroke-width:0.75;stroke-linecap:round;stroke-linejoin:round;stroke-miterlimit:10;stroke-dasharray:none;stroke-opacity:1"
           id="path54" /><path
           d="m 238.44401,164.21599 -17.91,0 0,80 33.84,0"
           style="fill:none;stroke:#000000;stroke-width:0.75;stroke-linecap:round;stroke-linejoin:round;stroke-miterlimit:10;stroke-dasharray:none;stroke-opacity:1"
           id="path56" /><text
           y="-318.32397"
           x="240.85599"
           transform="scale(1,-1)"
           style="font-variant:normal;font-weight:normal;font-size:12px;font-family:Helvetica;-inkscape-font-specification:Helvetica;writing-mode:lr-tb;fill:#000000;fill-opacity:1;fill-rule:nonzero;stroke:none"
           id="text58"><tspan
             x="240.85599 248.01999 254.69199 258.56799 265.23999 271.79199 278.46399 287.62 290.95596 295.13199 297.79596 303.79596 307.13199 309.79599"
             y="-318.32397"
             id="tspan60">Varanustristis</tspan></text>
<text
           y="-350.32397"
           x="269.28799"
           transform="scale(1,-1)"
           style="font-variant:normal;font-weight:normal;font-size:12px;font-family:Helvetica;-inkscape-font-specification:Helvetica;writing-mode:lr-tb;fill:#000000;fill-opacity:1;fill-rule:nonzero;stroke:none"
           id="text62"><tspan
             x="269.28799 276.452 283.12399 287 293.672 300.224 306.896 316.052 322.052 328.724 331.388 337.08798 343.75998 350.43198 357.104 361.28 363.944"
             y="-350.32397"
             id="tspan64">Varanussalvadorii</tspan></text>
<text
           y="-382.32401"
           x="279.28"
           transform="scale(1,-1)"
           style="font-variant:normal;font-weight:normal;font-size:12px;font-family:Helvetica;-inkscape-font-specification:Helvetica;writing-mode:lr-tb;fill:#000000;fill-opacity:1;fill-rule:nonzero;stroke:none"
           id="text66"><tspan
             x="279.28 286.444 293.116 296.992 303.664 310.216 316.888 326.04401 332.04401 335.38 342.052 346.048 350.224"
             y="-382.32401"
             id="tspan68">Varanusstorri</tspan></text>
<text
           y="-414.32397"
           x="297.16998"
           transform="scale(1,-1)"
           style="font-variant:normal;font-weight:normal;font-size:12px;font-family:Helvetica;-inkscape-font-specification:Helvetica;writing-mode:lr-tb;fill:#000000;fill-opacity:1;fill-rule:nonzero;stroke:none"
           id="text70"><tspan
             x="297.16998 304.33395 311.00598 314.88196 321.55399 328.10599 334.77798 343.93396 349.69397 356.36597 366.36197 373.03397 379.70596 386.37796 393.04996 399.72198 405.72198 408.38599"
             y="-414.32397"
             id="tspan72">Varanuskomodoensis</tspan></text>
<text
           y="-446.32401"
           x="296.82199"
           transform="scale(1,-1)"
           style="font-variant:normal;font-weight:normal;font-size:12px;font-family:Helvetica;-inkscape-font-specification:Helvetica;writing-mode:lr-tb;fill:#000000;fill-opacity:1;fill-rule:nonzero;stroke:none"
           id="text74"><tspan
             x="296.82199 303.98599 310.65799 314.534 321.20599 327.758 334.42999 334.42999 343.586 349.586 356.258 358.922 364.62198 371.29398 374.62997 381.302"
             y="-446.32401"
             id="tspan76">Varanus salvator</tspan></text>
<path
           d="m 287.03401,420.21599 -17.91,0 0,32 17.91,0"
           style="fill:none;stroke:#000000;stroke-width:0.75;stroke-linecap:round;stroke-linejoin:round;stroke-miterlimit:10;stroke-dasharray:none;stroke-opacity:1"
           id="path78" /><path
           d="m 268.77401,388.21599 -17.91,0 0,48 18.26,0"
           style="fill:none;stroke:#000000;stroke-width:0.75;stroke-linecap:round;stroke-linejoin:round;stroke-miterlimit:10;stroke-dasharray:none;stroke-opacity:1"
           id="path80" /><path
           d="m 258.78401,356.21599 -17.91,0 0,56 9.99,0"
           style="fill:none;stroke:#000000;stroke-width:0.75;stroke-linecap:round;stroke-linejoin:round;stroke-miterlimit:10;stroke-dasharray:none;stroke-opacity:1"
           id="path82" /><path
           d="m 230.72401,324.21599 -17.92,0 0,60 28.07,0"
           style="fill:none;stroke:#000000;stroke-width:0.75;stroke-linecap:round;stroke-linejoin:round;stroke-miterlimit:10;stroke-dasharray:none;stroke-opacity:1"
           id="path84" /><path
           d="m 220.53401,204.21599 -25.97,0 0,150 18.24,0"
           style="fill:none;stroke:#000000;stroke-width:0.75;stroke-linecap:round;stroke-linejoin:round;stroke-miterlimit:10;stroke-dasharray:none;stroke-opacity:1"
           id="path86" /><path
           d="m 159.42401,132.21599 -17.91,0 0,147 53.05,0"
           style="fill:none;stroke:#000000;stroke-width:0.75;stroke-linecap:round;stroke-linejoin:round;stroke-miterlimit:10;stroke-dasharray:none;stroke-opacity:1"
           id="path88" /><path
           d="m 237.50401,84.215992 -145.4,0 0,121.499998 49.41,0"
           style="fill:none;stroke:#000000;stroke-width:0.75;stroke-linecap:round;stroke-linejoin:round;stroke-miterlimit:10;stroke-dasharray:none;stroke-opacity:1"
           id="path90" /><text
           transform="scale(1,-1)"
           id="text4410"
           y="-38.303448"
           x="262.23138"
           style="font-style:normal;font-weight:bold;font-size:20px;line-height:125%;font-family:Sans;-inkscape-font-specification:'Sans Bold';text-align:center;letter-spacing:0px;word-spacing:0px;text-anchor:middle;fill:#000000;fill-opacity:1;stroke:none;stroke-width:1px;stroke-linecap:butt;stroke-linejoin:miter;stroke-opacity:1"
           xml:space="preserve"><tspan
             y="-38.303448"
             x="262.23138"
             id="tspan4412">Varanoid Dendrogram from R</tspan></text>
</g></g></g></svg>
