<?xml version="1.0" encoding="UTF-8" standalone="no"?>
<!-- Created with Inkscape (http://www.inkscape.org/) -->

<svg
   width="210mm"
   height="297mm"
   viewBox="0 0 210 297"
   version="1.1"
   id="svg5"
   inkscape:version="1.1.2 (0a00cf5339, 2022-02-04)"
   sodipodi:docname="foodcolor.svg"
   xmlns:inkscape="http://www.inkscape.org/namespaces/inkscape"
   xmlns:sodipodi="http://sodipodi.sourceforge.net/DTD/sodipodi-0.dtd"
   xmlns="http://www.w3.org/2000/svg"
   xmlns:svg="http://www.w3.org/2000/svg">
  <sodipodi:namedview
     id="namedview7"
     pagecolor="#ffffff"
     bordercolor="#666666"
     borderopacity="1.0"
     inkscape:pageshadow="2"
     inkscape:pageopacity="0.0"
     inkscape:pagecheckerboard="0"
     inkscape:document-units="mm"
     showgrid="false"
     inkscape:zoom="1.0973349"
     inkscape:cx="185.90496"
     inkscape:cy="96.597676"
     inkscape:window-width="2560"
     inkscape:window-height="1368"
     inkscape:window-x="0"
     inkscape:window-y="0"
     inkscape:window-maximized="1"
     inkscape:current-layer="layer1" />
  <defs
     id="defs2" />
  <g
     inkscape:label="Layer 1"
     inkscape:groupmode="layer"
     id="layer1">
    <g
       id="g12767"
       inkscape:export-filename="/home/jeremy/bio-oer/figures/chromatography/foodcolor.png"
       inkscape:export-xdpi="150"
       inkscape:export-ydpi="150">
      <path
         style="fill:#4b1000;fill-opacity:1;stroke:#783500;stroke-width:0.388966px;stroke-linecap:butt;stroke-linejoin:miter;stroke-opacity:1"
         d="m 37.400785,17.574809 c 0,0 2.774077,1.421661 2.981864,1.421661 0.207785,0 1.392473,0.315963 1.991645,0.837599 0.608436,0.529701 1.331718,1.262489 1.324947,2.069169 -0.0096,1.140284 -2.70078,4.793652 -2.70078,4.793652 0,0 -2.205099,4.229144 -2.069186,6.943926 0.535246,10.691219 3.599714,51.227734 4.037795,60.543764 0.03493,0.742659 -0.405418,1.492972 -0.915471,2.033905 -0.472932,0.501566 -1.171276,0.764123 -1.832791,0.95811 -3.875743,1.136545 -12.069103,1.074653 -12.069103,1.074653 0,0 -11.086325,-0.882801 -12.63912,-1.724155 -0.740622,-0.401294 -1.516007,-1.55472 -1.516007,-1.55472 0,0 -0.856538,-1.03235 -0.80793,-1.63973 0.416253,-5.201322 5.254811,-54.703606 5.595902,-59.83693 0.193504,-2.912164 -1.397133,-6.685188 -1.397133,-6.685188 0,0 -3.00196,-3.806074 -2.993476,-5.543714 0.004,-0.823402 0.788001,-1.527169 1.409861,-2.066888 0.657148,-0.570346 2.27297,-0.903324 2.27297,-0.903324 l 1.115541,-0.305481 1.401541,-0.531474 z"
         id="path1995"
         sodipodi:nodetypes="cssscsssscscsscsscccc" />
      <path
         style="fill:#b02318;fill-opacity:1;stroke:#840100;stroke-width:0.388966px;stroke-linecap:butt;stroke-linejoin:miter;stroke-opacity:1"
         d="m 19.03908,3.9278416 c 1.182144,-0.2904598 14.352098,-0.7046058 18.929686,-0.2049303 0.749129,0.081768 2.132501,0.750582 2.132501,0.750582 0,0 0.611868,0.6271413 0.612672,1.0252675 0.0034,1.705371 0.303269,11.4201682 0.303269,11.4201682 0,0 -8.365068,1.002198 -12.574322,0.917204 -3.803852,-0.07681 -11.272624,-1.16712 -11.272624,-1.16712 0,0 0.519339,-9.1616247 0.698686,-11.5616585 0.04127,-0.5522819 0.632307,-1.0473662 1.170132,-1.1795129 z"
         id="path869"
         sodipodi:nodetypes="sscscscss" />
      <path
         style="fill:#f9fbe7;fill-opacity:0.495448;stroke:none;stroke-width:0.388966px;stroke-linecap:butt;stroke-linejoin:miter;stroke-opacity:1"
         d="m 21.039864,22.968555 13.381565,0.405489 c 0,0 -1.614772,1.076813 -2.532899,1.340606 -1.349341,0.387689 -2.796909,0.32994 -4.200627,0.306219 -1.254244,-0.02111 -2.521536,-0.110057 -3.741919,-0.400271 -0.953538,-0.226763 -2.751528,-1.036884 -2.751528,-1.036884 z"
         id="path12715"
         sodipodi:nodetypes="ccssscc" />
    </g>
    <g
       id="g12751"
       inkscape:export-filename="/home/jeremy/bio-oer/figures/chromatography/foodcolor.png"
       inkscape:export-xdpi="150"
       inkscape:export-ydpi="150">
      <path
         style="fill:#0b3710;fill-opacity:1;stroke:#1f258d;stroke-width:0.388966px;stroke-linecap:butt;stroke-linejoin:miter;stroke-opacity:1"
         d="m 150.17202,17.57481 c 0,0 2.77408,1.42166 2.98186,1.42166 0.20779,0 1.39248,0.315963 1.99165,0.837599 0.60843,0.529701 1.33172,1.262489 1.32494,2.069169 -0.01,1.140284 -2.70077,4.793652 -2.70077,4.793652 0,0 -2.2051,4.229144 -2.06919,6.943926 0.53524,10.69122 3.59971,51.227734 4.03779,60.543764 0.0349,0.74266 -0.40541,1.492973 -0.91547,2.033905 -0.47293,0.501566 -1.17127,0.764124 -1.83279,0.95811 -3.87574,1.136545 -12.0691,1.074653 -12.0691,1.074653 0,0 -11.08633,-0.8828 -12.63912,-1.724154 -0.74062,-0.401295 -1.51601,-1.55472 -1.51601,-1.55472 0,0 -0.85654,-1.032351 -0.80793,-1.639731 0.41625,-5.201322 5.25481,-54.703606 5.5959,-59.836929 0.19351,-2.912165 -1.39713,-6.685189 -1.39713,-6.685189 0,0 -3.00196,-3.806074 -2.99348,-5.543714 0.004,-0.823402 0.78801,-1.527168 1.40987,-2.066888 0.65714,-0.570345 2.27297,-0.903324 2.27297,-0.903324 l 1.11554,-0.305481 1.40154,-0.531474 z"
         id="path10967"
         sodipodi:nodetypes="cssscsssscscsscsscccc" />
      <path
         style="fill:#008500;fill-opacity:1;stroke:#008400;stroke-width:0.388966px;stroke-linecap:butt;stroke-linejoin:miter;stroke-opacity:1"
         d="m 131.81031,3.9278416 c 1.18215,-0.2904598 14.3521,-0.7046058 18.92969,-0.2049303 0.74913,0.081768 2.1325,0.750582 2.1325,0.750582 0,0 0.61187,0.6271413 0.61267,1.0252672 0.003,1.705371 0.30327,11.4201685 0.30327,11.4201685 0,0 -8.36507,1.002199 -12.57432,0.917204 -3.80385,-0.07681 -11.27262,-1.16712 -11.27262,-1.16712 0,0 0.51933,-9.1616244 0.69868,-11.5616585 0.0413,-0.5522819 0.63231,-1.0473662 1.17013,-1.1795129 z"
         id="path10969"
         sodipodi:nodetypes="sscscscss" />
      <path
         style="fill:#f9fbe7;fill-opacity:0.495448;stroke:none;stroke-width:0.388966px;stroke-linecap:butt;stroke-linejoin:miter;stroke-opacity:1"
         d="m 136.91901,22.765826 13.38583,0.224026 c 0,0 -1.60002,1.098607 -2.51449,1.374822 -1.34396,0.405948 -2.79218,0.367831 -4.19609,0.363142 -1.25442,-0.0041 -2.5228,-0.07586 -3.747,-0.3495 -0.95653,-0.213815 -2.76533,-0.999484 -2.76533,-0.999484 z"
         id="path11974"
         sodipodi:nodetypes="ccssscc" />
    </g>
    <g
       id="g12743"
       inkscape:export-filename="/home/jeremy/bio-oer/figures/chromatography/foodcolor.png"
       inkscape:export-xdpi="150"
       inkscape:export-ydpi="150">
      <path
         style="fill:#974406;fill-opacity:1;stroke:#915108;stroke-width:0.388966px;stroke-linecap:butt;stroke-linejoin:miter;stroke-opacity:1"
         d="m 74.991203,17.57481 c 0,0 2.774067,1.421661 2.981853,1.421661 0.207785,0 1.392473,0.315963 1.991645,0.837599 0.608449,0.529701 1.331728,1.262489 1.324951,2.069169 -0.0088,1.140284 -2.700782,4.793652 -2.700782,4.793652 0,0 -2.205091,4.229144 -2.069179,6.943926 0.535237,10.691219 3.59971,51.227734 4.037788,60.543764 0.03499,0.74266 -0.405412,1.492973 -0.915467,2.033905 -0.472934,0.501566 -1.17128,0.764123 -1.832785,0.95811 -3.875753,1.136545 -12.069113,1.074653 -12.069113,1.074653 0,0 -11.08632,-0.8828 -12.639114,-1.724154 -0.740623,-0.401295 -1.516008,-1.55472 -1.516008,-1.55472 0,0 -0.856537,-1.032351 -0.80793,-1.639731 0.416253,-5.201322 5.254811,-54.703606 5.595903,-59.836929 0.193503,-2.912165 -1.397134,-6.685189 -1.397134,-6.685189 0,0 -3.00196,-3.806074 -2.993476,-5.543714 0.004,-0.823402 0.788001,-1.527168 1.409861,-2.066888 0.657148,-0.570345 2.27297,-0.903324 2.27297,-0.903324 l 1.115541,-0.305481 1.40154,-0.531474 z"
         id="path10971"
         sodipodi:nodetypes="cssscsssscscsscsscccc" />
      <path
         style="fill:#e6d314;fill-opacity:1;stroke:#dfd609;stroke-width:0.388966px;stroke-linecap:butt;stroke-linejoin:miter;stroke-opacity:1"
         d="M 56.629494,3.9278423 C 57.811639,3.6373825 70.981598,3.2232362 75.55918,3.7229119 c 0.749124,0.081767 2.132497,0.750582 2.132497,0.750582 0,0 0.611874,0.6271414 0.612683,1.0252676 0.0029,1.705371 0.303268,11.4201685 0.303268,11.4201685 0,0 -8.365069,1.002199 -12.57433,0.917204 -3.80385,-0.07681 -11.272621,-1.16712 -11.272621,-1.16712 0,0 0.519338,-9.1616244 0.698685,-11.5616589 0.04127,-0.5522818 0.632308,-1.0473662 1.170132,-1.1795128 z"
         id="path10973"
         sodipodi:nodetypes="sscscscss" />
      <path
         style="fill:#f9fbe7;fill-opacity:0.495448;stroke:none;stroke-width:0.388966px;stroke-linecap:butt;stroke-linejoin:miter;stroke-opacity:1"
         d="m 59.293682,24.038069 13.385832,0.224025 c 0,0 -1.600023,1.098607 -2.51449,1.374823 -1.34396,0.405947 -2.792179,0.36783 -4.196089,0.363142 -1.254415,-0.0041 -2.522796,-0.07586 -3.747001,-0.349501 C 61.265408,25.436744 59.4566,24.651075 59.4566,24.651075 Z"
         id="path12711"
         sodipodi:nodetypes="ccssscc" />
    </g>
    <g
       id="g12759"
       inkscape:export-filename="/home/jeremy/bio-oer/figures/chromatography/foodcolor.png"
       inkscape:export-xdpi="150"
       inkscape:export-ydpi="150">
      <path
         style="fill:#00073f;fill-opacity:1;stroke:#000835;stroke-width:0.388966px;stroke-linecap:butt;stroke-linejoin:miter;stroke-opacity:1"
         d="m 112.58161,17.57481 c 0,0 2.77407,1.42166 2.98186,1.42166 0.20778,0 1.39247,0.315964 1.99164,0.8376 0.60844,0.529701 1.33172,1.262488 1.32495,2.069168 -0.01,1.140285 -2.70078,4.793652 -2.70078,4.793652 0,0 -2.2051,4.229145 -2.06918,6.943927 0.53524,10.691219 3.59971,51.227733 4.03779,60.543764 0.0349,0.742659 -0.40542,1.492972 -0.91547,2.033905 -0.47293,0.501566 -1.17128,0.764123 -1.83279,0.95811 -3.87574,1.136544 -12.0691,1.074653 -12.0691,1.074653 0,0 -11.08633,-0.882801 -12.639124,-1.724155 -0.740622,-0.401294 -1.516008,-1.55472 -1.516008,-1.55472 0,0 -0.856537,-1.032351 -0.807929,-1.639731 0.416252,-5.201322 5.25481,-54.703605 5.595902,-59.836929 0.193503,-2.912165 -1.397133,-6.685189 -1.397133,-6.685189 0,0 -3.00196,-3.806073 -2.993476,-5.543713 0.004,-0.823403 0.788,-1.527169 1.409861,-2.066889 0.657148,-0.570345 2.27297,-0.903323 2.27297,-0.903323 l 1.115541,-0.305482 1.40154,-0.531474 z"
         id="path10963"
         sodipodi:nodetypes="cssscsssscscsscsscccc" />
      <path
         style="fill:#1466b7;fill-opacity:1;stroke:#008400;stroke-width:0.388966px;stroke-linecap:butt;stroke-linejoin:miter;stroke-opacity:1"
         d="M 94.219901,3.9278416 C 95.402045,3.6373818 108.572,3.2232359 113.14959,3.7229113 c 0.74913,0.081768 2.1325,0.750582 2.1325,0.750582 0,0 0.61187,0.6271414 0.61267,1.0252676 0.003,1.705371 0.30327,11.4201681 0.30327,11.4201681 0,0 -8.36507,1.002199 -12.57432,0.917205 -3.803855,-0.07681 -11.272627,-1.16712 -11.272627,-1.16712 0,0 0.519338,-9.161625 0.698686,-11.5616595 0.04127,-0.5522819 0.632307,-1.0473662 1.170132,-1.1795129 z"
         id="path10965"
         sodipodi:nodetypes="sscscscss" />
      <path
         style="fill:#f9fbe7;fill-opacity:0.495448;stroke:none;stroke-width:0.388966px;stroke-linecap:butt;stroke-linejoin:miter;stroke-opacity:1"
         d="m 97.505316,24.065973 13.385834,0.224025 c 0,0 -1.60002,1.098607 -2.51449,1.374823 -1.34396,0.405947 -2.79218,0.36783 -4.19609,0.363142 -1.25441,-0.0041 -2.52279,-0.07586 -3.747,-0.349501 -0.956529,-0.213814 -2.765337,-0.999483 -2.765337,-0.999483 z"
         id="path12713"
         sodipodi:nodetypes="ccssscc" />
    </g>
    <text
       xml:space="preserve"
       style="font-style:normal;font-weight:normal;font-size:7.76111px;line-height:1.25;font-family:sans-serif;fill:#000000;fill-opacity:1;stroke:none;stroke-width:0.264583"
       x="17.792362"
       y="65.777832"
       id="text15301"
       inkscape:export-filename="/home/jeremy/bio-oer/figures/chromatography/foodcolor.png"
       inkscape:export-xdpi="150"
       inkscape:export-ydpi="150"><tspan
         sodipodi:role="line"
         style="font-size:7.76111px;fill:#ffffff;fill-opacity:1;stroke-width:0.264583"
         x="17.792362"
         y="65.777832"
         id="tspan15303">FD&amp;C</tspan></text>
    <text
       xml:space="preserve"
       style="font-style:normal;font-weight:normal;font-size:7.76111px;line-height:1.25;font-family:sans-serif;fill:#000000;fill-opacity:1;stroke:none;stroke-width:0.264583"
       x="54.291847"
       y="65.777832"
       id="text30353"
       inkscape:export-filename="/home/jeremy/bio-oer/figures/chromatography/foodcolor.png"
       inkscape:export-xdpi="150"
       inkscape:export-ydpi="150"><tspan
         sodipodi:role="line"
         style="font-size:7.76111px;fill:#ffffff;fill-opacity:1;stroke-width:0.264583"
         x="54.291847"
         y="65.777832"
         id="tspan30351">FD&amp;C</tspan></text>
    <text
       xml:space="preserve"
       style="font-style:normal;font-weight:normal;font-size:7.76111px;line-height:1.25;font-family:sans-serif;fill:#000000;fill-opacity:1;stroke:none;stroke-width:0.264583"
       x="92.289337"
       y="65.777832"
       id="text30357"
       inkscape:export-filename="/home/jeremy/bio-oer/figures/chromatography/foodcolor.png"
       inkscape:export-xdpi="150"
       inkscape:export-ydpi="150"><tspan
         sodipodi:role="line"
         style="font-size:7.76111px;fill:#ffffff;fill-opacity:1;stroke-width:0.264583"
         x="92.289337"
         y="65.777832"
         id="tspan30355">FD&amp;C</tspan></text>
    <text
       xml:space="preserve"
       style="font-style:normal;font-weight:normal;font-size:7.76111px;line-height:1.25;font-family:sans-serif;fill:#000000;fill-opacity:1;stroke:none;stroke-width:0.264583"
       x="130.36906"
       y="65.777832"
       id="text30361"
       inkscape:export-filename="/home/jeremy/bio-oer/figures/chromatography/foodcolor.png"
       inkscape:export-xdpi="150"
       inkscape:export-ydpi="150"><tspan
         sodipodi:role="line"
         style="font-size:7.76111px;fill:#ffffff;fill-opacity:1;stroke-width:0.264583"
         x="130.36906"
         y="65.777832"
         id="tspan30359">FD&amp;C</tspan></text>
    <text
       xml:space="preserve"
       style="font-style:normal;font-weight:normal;font-size:7.05556px;line-height:1.25;font-family:sans-serif;fill:#000000;fill-opacity:1;stroke:none;stroke-width:0.264583"
       x="21.869972"
       y="76.254356"
       id="text32235"
       inkscape:export-filename="/home/jeremy/bio-oer/figures/chromatography/foodcolor.png"
       inkscape:export-xdpi="150"
       inkscape:export-ydpi="150"><tspan
         sodipodi:role="line"
         id="tspan32233"
         style="font-size:7.05556px;fill:#ffffff;fill-opacity:1;stroke-width:0.264583"
         x="21.869972"
         y="76.254356">Red </tspan></text>
    <text
       xml:space="preserve"
       style="font-style:normal;font-weight:normal;font-size:7.05556px;line-height:1.25;font-family:sans-serif;fill:#000000;fill-opacity:1;stroke:none;stroke-width:0.264583"
       x="55.299145"
       y="76.254356"
       id="text36465"
       inkscape:export-filename="/home/jeremy/bio-oer/figures/chromatography/foodcolor.png"
       inkscape:export-xdpi="150"
       inkscape:export-ydpi="150"><tspan
         sodipodi:role="line"
         id="tspan36463"
         style="font-size:7.05556px;fill:#ffffff;fill-opacity:1;stroke-width:0.264583"
         x="55.299145"
         y="76.254356">Yellow</tspan><tspan
         sodipodi:role="line"
         style="font-size:7.05556px;fill:#ffffff;fill-opacity:1;stroke-width:0.264583"
         x="55.299145"
         y="85.073807"
         id="tspan37291" /></text>
    <text
       xml:space="preserve"
       style="font-size:7.05556px;line-height:1.25;font-family:sans-serif;text-align:center;text-anchor:middle;stroke-width:0.264583"
       x="28.932421"
       y="85.422295"
       id="text60293"
       inkscape:export-filename="/home/jeremy/bio-oer/figures/chromatography/foodcolor.png"
       inkscape:export-xdpi="150"
       inkscape:export-ydpi="150"><tspan
         sodipodi:role="line"
         id="tspan60291"
         style="font-size:7.05556px;fill:#ffffff;fill-opacity:1;stroke-width:0.264583"
         x="28.932421"
         y="85.422295">3</tspan></text>
    <text
       xml:space="preserve"
       style="font-size:7.05556px;line-height:1.25;font-family:sans-serif;text-align:center;text-anchor:middle;stroke-width:0.264583"
       x="65.431908"
       y="85.422295"
       id="text67955"
       inkscape:export-filename="/home/jeremy/bio-oer/figures/chromatography/foodcolor.png"
       inkscape:export-xdpi="150"
       inkscape:export-ydpi="150"><tspan
         sodipodi:role="line"
         id="tspan67953"
         style="font-size:7.05556px;fill:#ffffff;fill-opacity:1;stroke-width:0.264583"
         x="65.431908"
         y="85.422295">5</tspan></text>
    <text
       xml:space="preserve"
       style="font-size:7.05556px;line-height:1.25;font-family:sans-serif;text-align:center;text-anchor:middle;stroke-width:0.264583"
       x="103.45179"
       y="85.422295"
       id="text71193"
       inkscape:export-filename="/home/jeremy/bio-oer/figures/chromatography/foodcolor.png"
       inkscape:export-xdpi="150"
       inkscape:export-ydpi="150"><tspan
         sodipodi:role="line"
         id="tspan71191"
         style="font-size:7.05556px;fill:#ffffff;fill-opacity:1;stroke-width:0.264583"
         x="103.45179"
         y="85.422295">1</tspan></text>
    <text
       xml:space="preserve"
       style="font-style:normal;font-weight:normal;font-size:7.05556px;line-height:1.25;font-family:sans-serif;fill:#000000;fill-opacity:1;stroke:none;stroke-width:0.264583"
       x="95.450554"
       y="76.254356"
       id="text75375"
       inkscape:export-filename="/home/jeremy/bio-oer/figures/chromatography/foodcolor.png"
       inkscape:export-xdpi="150"
       inkscape:export-ydpi="150"><tspan
         sodipodi:role="line"
         id="tspan75371"
         style="font-size:7.05556px;fill:#ffffff;fill-opacity:1;stroke-width:0.264583"
         x="95.450554"
         y="76.254356">Blue</tspan><tspan
         sodipodi:role="line"
         style="font-size:7.05556px;fill:#ffffff;fill-opacity:1;stroke-width:0.264583"
         x="95.450554"
         y="85.073807"
         id="tspan75373" /></text>
    <g
       id="g77735"
       transform="translate(1.7989515,-1.0583333)"
       inkscape:export-filename="/home/jeremy/bio-oer/figures/chromatography/foodcolor.png"
       inkscape:export-xdpi="150"
       inkscape:export-ydpi="150">
      <text
         xml:space="preserve"
         style="font-style:normal;font-weight:normal;font-size:7.05556px;line-height:1.25;font-family:sans-serif;fill:#000000;fill-opacity:1;stroke:none;stroke-width:0.264583"
         x="126.15789"
         y="93.152435"
         id="text77707"><tspan
           sodipodi:role="line"
           id="tspan77703"
           style="font-size:7.05556px;fill:#ffffff;fill-opacity:1;stroke-width:0.264583"
           x="126.15789"
           y="93.152435">Yellow</tspan><tspan
           sodipodi:role="line"
           style="font-size:7.05556px;fill:#ffffff;fill-opacity:1;stroke-width:0.264583"
           x="126.15789"
           y="101.97189"
           id="tspan77705" /></text>
      <text
         xml:space="preserve"
         style="font-size:7.05556px;line-height:1.25;font-family:sans-serif;text-align:center;text-anchor:middle;stroke-width:0.264583"
         x="151.62086"
         y="93.152435"
         id="text77711"><tspan
           sodipodi:role="line"
           id="tspan77709"
           style="font-size:7.05556px;fill:#ffffff;fill-opacity:1;stroke-width:0.264583"
           x="151.62086"
           y="93.152435">5</tspan></text>
    </g>
    <g
       id="g77728"
       transform="translate(1.6603545,1.5875)"
       inkscape:export-filename="/home/jeremy/bio-oer/figures/chromatography/foodcolor.png"
       inkscape:export-xdpi="150"
       inkscape:export-ydpi="150">
      <text
         xml:space="preserve"
         style="font-size:7.05556px;line-height:1.25;font-family:sans-serif;text-align:center;text-anchor:middle;stroke-width:0.264583"
         x="148.3351"
         y="77.423393"
         id="text77715"><tspan
           sodipodi:role="line"
           id="tspan77713"
           style="font-size:7.05556px;fill:#ffffff;fill-opacity:1;stroke-width:0.264583"
           x="148.3351"
           y="77.423393">1</tspan></text>
      <text
         xml:space="preserve"
         style="font-style:normal;font-weight:normal;font-size:7.05556px;line-height:1.25;font-family:sans-serif;fill:#000000;fill-opacity:1;stroke:none;stroke-width:0.264583"
         x="129.04906"
         y="77.323486"
         id="text77721"><tspan
           sodipodi:role="line"
           id="tspan77717"
           style="font-size:7.05556px;fill:#ffffff;fill-opacity:1;stroke-width:0.264583"
           x="129.04906"
           y="77.323486">Blue</tspan><tspan
           sodipodi:role="line"
           style="font-size:7.05556px;fill:#ffffff;fill-opacity:1;stroke-width:0.264583"
           x="129.04906"
           y="86.142937"
           id="tspan77719" /></text>
    </g>
  </g>
</svg>
