<?xml version="1.0" encoding="UTF-8" standalone="no"?>
<svg
   xmlns:dc="http://purl.org/dc/elements/1.1/"
   xmlns:cc="http://creativecommons.org/ns#"
   xmlns:rdf="http://www.w3.org/1999/02/22-rdf-syntax-ns#"
   xmlns:svg="http://www.w3.org/2000/svg"
   xmlns="http://www.w3.org/2000/svg"
   xmlns:sodipodi="http://sodipodi.sourceforge.net/DTD/sodipodi-0.dtd"
   xmlns:inkscape="http://www.inkscape.org/namespaces/inkscape"
   width="175"
   height="278"
   id="svg2"
   version="1.1"
   inkscape:version="0.91 r"
   sodipodi:docname="photosynthesis_chromatography.svg">
  <title
     id="title8759">Photosynthesis Chromatography</title>
  <defs
     id="defs19" />
  <sodipodi:namedview
     pagecolor="#ffffff"
     bordercolor="#666666"
     borderopacity="1"
     objecttolerance="10"
     gridtolerance="10"
     guidetolerance="10"
     inkscape:pageopacity="0"
     inkscape:pageshadow="2"
     inkscape:window-width="1680"
     inkscape:window-height="998"
     id="namedview17"
     showgrid="false"
     inkscape:zoom="0.8375"
     inkscape:cx="-233.51975"
     inkscape:cy="288.77653"
     inkscape:window-x="0"
     inkscape:window-y="0"
     inkscape:window-maximized="1"
     inkscape:current-layer="svg2" />
  <metadata
     id="metadata7">image/svg+xml<rdf:RDF>
  <cc:Work
     rdf:about="">
    <dc:format>image/svg+xml</dc:format>
    <dc:type
       rdf:resource="http://purl.org/dc/dcmitype/StillImage" />
    <dc:title>Photosynthesis Chromatography</dc:title>
    <cc:license
       rdf:resource="http://creativecommons.org/licenses/by-nc-sa/3.0/" />
    <dc:creator>
      <cc:Agent>
        <dc:title>Jeremy Seto</dc:title>
      </cc:Agent>
    </dc:creator>
    <dc:rights>
      <cc:Agent>
        <dc:title>CC-BY-SA</dc:title>
      </cc:Agent>
    </dc:rights>
  </cc:Work>
  <cc:License
     rdf:about="http://creativecommons.org/licenses/by-nc-sa/3.0/">
    <cc:permits
       rdf:resource="http://creativecommons.org/ns#Reproduction" />
    <cc:permits
       rdf:resource="http://creativecommons.org/ns#Distribution" />
    <cc:requires
       rdf:resource="http://creativecommons.org/ns#Notice" />
    <cc:requires
       rdf:resource="http://creativecommons.org/ns#Attribution" />
    <cc:prohibits
       rdf:resource="http://creativecommons.org/ns#CommercialUse" />
    <cc:permits
       rdf:resource="http://creativecommons.org/ns#DerivativeWorks" />
    <cc:requires
       rdf:resource="http://creativecommons.org/ns#ShareAlike" />
  </cc:License>
</rdf:RDF>
</metadata>
  <g
     id="g8732"
     transform="matrix(0.59337042,0,0,0.59337042,-4.2510121,-1.14978)">
    <rect
       y="2.3880594"
       x="7.1641793"
       height="468.05969"
       width="294.92538"
       id="rect8728"
       style="opacity:0.98000004;fill:#ffffff;fill-opacity:1;stroke:none;stroke-width:0.5;stroke-linejoin:round;stroke-miterlimit:4;stroke-dasharray:none;stroke-dashoffset:0;stroke-opacity:1" />
    <path
       sodipodi:nodetypes="cczzc"
       style="fill:#aad4ff;stroke-width:8;stroke-linecap:round;stroke-miterlimit:4"
       inkscape:connector-curvature="0"
       stroke-miterlimit="4"
       d="m 63.101943,385.34177 c 5.513368,4.1309 88.686377,3.53379 91.118397,0 0,0 -1.54688,35.14248 -14.92551,53.02258 -13.37863,17.88011 -56.14536,23.20646 -68.730129,-9.44649 -12.584769,-32.65295 -7.462758,-43.57609 -7.462758,-43.57609 z"
       id="rect2388" />
    <path
       d="M 150.97779,61.742645"
       id="path2386"
       stroke-miterlimit="4"
       inkscape:connector-curvature="0"
       style="fill:none;stroke:#000000;stroke-width:4.50399017;stroke-linecap:round;stroke-miterlimit:4" />
    <path
       d="M 151.32517,225.07013"
       id="path2391"
       stroke-miterlimit="4"
       inkscape:connector-curvature="0"
       style="fill:#aad4ff;stroke:#000000;stroke-width:2.25199509;stroke-linecap:round;stroke-miterlimit:4" />
    <g
       transform="matrix(0.52083824,0,0,0.60857208,-34.935385,181.4691)"
       id="g4165">
      <path
         style="fill:none;stroke:#000000;stroke-width:4.9000001;stroke-linecap:round;stroke-miterlimit:4;stroke-dasharray:none"
         inkscape:connector-curvature="0"
         stroke-miterlimit="4"
         d="m 189.79733,-192.48245 c 3.64063,15.409 171.16959,11.28879 168.92203,0 l 0,565.82232 c -15.93213,99.27955 -151.84521,102.35239 -168.92203,0 l 0,-565.82232 z"
         id="rect2383" />
      <ellipse
         style="opacity:1;fill:#ffffff;fill-opacity:1;stroke:#000000;stroke-width:4.55636597;stroke-linejoin:round;stroke-miterlimit:4;stroke-dasharray:none;stroke-dashoffset:0;stroke-opacity:1"
         id="path4163"
         cx="274.62686"
         cy="-195.22388"
         rx="84.797935"
         ry="13.75316" />
    </g>
    <g
       transform="matrix(0.85875736,-0.11238597,0.096737,0.99767702,0.18752616,35.292875)"
       style="fill:#e1c900;fill-opacity:1"
       id="g4812">
      <path
         inkscape:connector-curvature="0"
         id="path2170"
         style="font-style:normal;font-variant:normal;font-weight:normal;font-stretch:normal;letter-spacing:normal;word-spacing:normal;text-anchor:start;fill:#e1c900;fill-opacity:1;stroke:#000000;stroke-width:1.79999995;stroke-linecap:butt;stroke-linejoin:miter;stroke-miterlimit:4;stroke-dasharray:none;stroke-dashoffset:0;stroke-opacity:1"
         d="m 207.57307,32.237135 -181.366965,0 c -11.128323,0 -9.564802,-1.764834 -9.564802,-4.378164 0,-2.613499 -1.563437,-5.094567 9.564802,-5.094567 l 181.366965,0 c 11.10594,0 11.3293,2.123039 11.3293,4.736544 0,2.61333 -0.2234,4.736193 -11.3293,4.736193 z"
         sodipodi:nodetypes="sssssss" />
      <ellipse
         style="opacity:1;fill:#e1c900;fill-opacity:1;stroke:#000000;stroke-width:1.89217544;stroke-linejoin:round;stroke-miterlimit:4;stroke-dasharray:none;stroke-dashoffset:0;stroke-opacity:1"
         id="path4783"
         cx="19.258472"
         cy="27.794012"
         rx="2.1242054"
         ry="4.9985805" />
    </g>
    <g
       transform="matrix(1,0,0,1.1334818,189.96899,39.04127)"
       id="g8672">
      <g
         id="g8669">
        <path
           inkscape:connector-curvature="0"
           id="path8667"
           d="m -113.55924,7.6104542 3.37723,8.0209128 -0.84431,5.910146 -1.68861,5.06584 19.41905,-5.06584 18.574745,-2.53292 16.463979,-0.844306 6.754453,0 2.110767,-3.79938 2.110766,-6.3322995 -1.26646,-5.0658396 -1.26646,-4.6436863 -1.688613,-2.1107666 -8.443066,1.2664599 -12.664599,1.26646 -15.197519,2.5329198 -11.398139,2.1107665 -9.709524,2.5329198 z"
           style="fill:#ffffff;fill-opacity:1;fill-rule:evenodd;stroke:#000000;stroke-width:1px;stroke-linecap:butt;stroke-linejoin:miter;stroke-opacity:1" />
      </g>
      <path
         style="fill:#000000;stroke:#000000;stroke-width:0.46963745;stroke-miterlimit:4;stroke-dasharray:none;stroke-opacity:1"
         d="m -116.31446,9.4372519 c 0.68135,-1.14169 1.31848,-1.56083 3.21066,-2.11213 0.90746,-0.2644 1.80027,-0.52995 1.98403,-0.5901 0.71766,-0.23492 1.59006,-0.42246 1.89824,-0.40806 0.17775,0.008 0.37973,-0.10776 0.44886,-0.25794 0.0691,-0.15017 0.21375,-0.19986 0.32139,-0.11043 0.10764,0.0894 0.52853,0.0254 0.9353,-0.14234 0.40678,-0.16772 0.84602,-0.28696 0.97611,-0.26499 0.13008,0.0219 0.64556,-0.13242 1.14551,-0.3431 0.49994,-0.21069 1.03786,-0.43418 1.19537,-0.49667 0.5234,-0.20765 2.00276,-0.61464 2.72452,-0.74955 0.3916,-0.0732 1.14157,-0.2392 1.666595,-0.3689 0.52502,-0.12969 1.25529,-0.29862 1.6228,-0.37538 0.36752,-0.0768 1.29109,-0.30872 2.05237,-0.51545 1.31293,-0.35653 5.24265,-1.19835 9.21179,-1.97332997 0.36751,-0.0718 1.22665,-0.24498 1.90917,-0.38493 1.07583,-0.22059 3.96815,-0.74354 6.10938,-1.1046 0.36752,-0.0619 1.39847,-0.17978 2.29102,-0.26179003 0.89254,-0.082 3.01889,-0.31592 4.72522,-0.51978 1.70632,-0.20386 3.72528,-0.41808 4.48657,-0.47605 0.76128,-0.058 2.0285,-0.22788 2.81603,-0.37755 1.53796,-0.29229 6.83798,-0.75057 10.90186,-0.94265 2.37033,-0.11204 2.53376,-0.0901 3.11755,0.41844 0.8094,0.70508 1.56335,2.14784003 2.10123,4.02089 0.42958,1.49593 0.68114,3.07847 0.56652,3.56392 -0.0323,0.13684 0.0158,0.39141 0.10685,0.56572 0.1383,0.26472 0.15885,0.61868 0.12471,2.14858 -0.0225,1.00739 -0.11472,2.49297 -0.20498,3.3012701 -0.21366,1.91346 -1.18049,5.37044 -1.40183,5.01236 -0.0513,-0.0831 -0.25623,0.28841 -0.45534,0.82546 -0.34453,0.92933 -0.41152,0.99774 -1.38797,1.41719 -0.56428,0.2424 -1.05091,0.37545 -1.0814,0.29565 -0.0305,-0.0798 -0.11922,-0.006 -0.1972,0.16292 -0.0997,0.21662 -0.61214,0.30866 -1.72704,0.31018 l -1.58527,0.002 -0.0707,9.49558 c -0.0389,5.22257 -0.0501,11.23851 -0.025,13.36877 0.12208,10.35275 -0.157447,13.67406 -0.229707,18.24521 -0.0435,2.74872 -0.643215,20.917436 -0.304508,12.108205 0.557728,14.340678 0.212691,21.614362 0.11965,33.543373 -0.0208,4.02885 -0.597785,14.59924 -0.538415,14.18812 0.0605,-0.41873 -0.211606,223.18981 -0.248806,225.11598 0,0 -47.828679,1.2719 -55.502859,1.68609 -3.3833,-1.48465 -3.6263,-203.66694 -3.80828,-337.0201881 z M -54.613545,345.63078 c -0.004,-0.68718 -1.26246,-212.09674 -1.24796,-218.35007 -0.170102,-28.185507 0.193589,-57.742328 -0.1416,-83.710998 -0.0316,-13.53745 -0.075,-24.66226 -0.0965,-24.7218 -0.0215,-0.0595 -1.20894,-0.0876 -2.63877,-0.0623 -2.42426,0.0428 -3.69602,0.16094 -8.4704,0.78695 -1.0238,0.13424 -3.08571,0.30952 -4.58203,0.38952 -1.49631,0.08 -3.51527,0.25575 -4.48656,0.39058 -0.9713,0.13482 -3.11913,0.35041 -4.77295,0.47908 -1.65383,0.12868 -3.60836,0.34469 -4.34339,0.48002 -0.73503,0.13532 -2.06669,0.3665 -2.95923,0.51374 -0.89254,0.14724 -2.1168,0.37766 -2.72058,0.51206 -0.60377,0.1344 -1.61325,0.30382 -2.24328,0.3765 -0.63003,0.0727 -1.72542,0.29631 -2.43421,0.497 -0.70878,0.20068 -2.06191,0.47999 -3.00695,0.62071 -0.94505,0.14072 -1.847135,0.30656 -2.004645,0.36853 -0.15751,0.0619 -0.82333,0.17918 -1.47962,0.26045 -0.65628,0.0813 -1.39939,0.25351 -1.65136,0.38271 -0.25197,0.12921 -0.71421,0.23492 -1.02721,0.23492 -0.313,0 -0.96597,0.16459 -1.45105,0.36575 -0.48508,0.20116 -1.13971,0.42977 -1.45472,0.50803 -0.31502,0.0782 -0.98084,0.24526 -1.47962,0.37113 -0.49877,0.12586 -1.33642,0.29288 -1.86145,0.37113 -1.24534,0.18564 -1.93032,0.34666 -2.86376,0.67317 -0.92993,0.32529 -1.43563,0.0365 -1.85411,-1.05901 -0.4387,-1.14839 -0.53508,-2.43602 -0.33306,-4.44977 0.20875,-2.08083 0.29,-2.51638 0.60048,-3.21918 0.58142,-1.3161 1.25701,-1.73916 2.92311,-1.83047 0.97492,-0.0535 1.35132,-0.312 1.43283,-0.98427 0.0949,-0.78305 -0.5116,-4.24245 -0.82588,-4.71037 -0.1494,-0.22245 -0.27191,-0.48338 -0.27224,-0.57986 -2.9e-4,-0.0965 -0.18317,-0.4973 -0.40631,-0.8907101 -0.9969,-1.75769 -2.31451,-1.43763 -3.47788,0.8447801 -0.16713,0.32789 -0.33895,0.60104 -0.38183,0.607 -0.10425,0.0144 4.74089,333.576688 4.55637,334.736058 3.15203,-0.31809 51.509319,0.8774 57.456365,-0.20101 z M -114.22208,26.357602 c 0.31502,-0.0896 0.63719,-0.2736 0.71595,-0.40879 0.0788,-0.13518 0.28934,-0.35874 0.46796,-0.49682 0.26325,-0.20348 0.44884,-0.72421 0.97965,-2.74872 0.70561,-2.69118 0.89634,-3.89585 0.7388,-4.66641 -0.0892,-0.43628 -0.19166,-0.46403 -1.31452,-0.35602 -2.02916,0.19519 -2.8886,1.38926 -3.31013,4.59891 -0.0962,0.73236 -0.0927,1.08104 0.0188,1.90884 0.18671,1.38527 0.6877,2.71766 0.93947,2.49848 0.10518,-0.0916 0.44897,-0.23982 0.76399,-0.32947 z m 2.9115,-0.11335 c 0.28944,-0.27104 1.50904,-0.65047 2.5774,-0.80183 0.60377,-0.0856 1.39847,-0.26979 1.76599,-0.40942 0.36752,-0.13963 0.7756,-0.29092 0.90686,-0.33619 0.13125,-0.0452 0.57098,-0.21637 0.97717,-0.3802 0.40618,-0.16383 0.82503,-0.23865 0.93078,-0.16626 0.10574,0.0724 0.50367,0.0357 0.88428,-0.0814 1.54997,-0.47716 4.090305,-1.00156 6.705935,-1.38431 1.52257,-0.2228 2.80327,-0.46111 2.84598,-0.52957 0.0427,-0.0685 0.79446,-0.21914 1.67054,-0.33484 0.87607,-0.1157 2.19425,-0.33061 2.92928,-0.47758 2.14788,-0.42947 7.81875,-1.25322 10.40503,-1.51144 1.31256,-0.13105 2.88047,-0.31376 3.48425,-0.40601 0.60378,-0.0922 1.95691,-0.19268 3.00696,-0.22317 2.6068,-0.0757 5.27047,-0.28549 7.49353,-0.5902 1.0238,-0.14033 3.9878,-0.37223 6.58667,-0.51534 4.61063,-0.25389 5.70561,-0.3811 6.94463,-0.80683 0.0656,-0.0225 0.11933,-0.13471 0.11933,-0.24924 0,-0.11453 0.0322,-0.18931 0.0716,-0.16618 0.20801,0.1222 0.84749,-0.43036 0.97496,-0.84245 0.0808,-0.26125 0.21131,-0.50412 0.29,-0.53971 0.2791,-0.12624 1.19991,-2.80199 1.43424,-4.16772 0.19503,-1.13667 0.23421,-1.7595901 0.23509,-3.7378701 0.001,-2.26244 -0.0183,-2.48723 -0.41122,-4.78758 l -0.4123,-2.41369997 -0.78094,-1.05636 c -1.09378,-1.47954003 -1.91027,-2.24045003 -2.38206,-2.21991003 -0.31297,0.0136 -0.36068,0.0657 -0.2126,0.23232 0.2316,0.26051 0.31687,0.25085 -3.21532,0.36449 -1.45341,0.0468 -2.69505,0.16992 -2.75919,0.27369 -0.0786,0.12721 -0.092,0.0845 -0.0411,-0.13112 0.0589,-0.24933 -0.006,-0.28067 -0.29549,-0.14223 -0.20406,0.0977 -1.16063,0.22034 -2.12573,0.27259 -2.50624,0.1357 -4.5273,0.34222 -6.12064,0.62543 -2.38366,0.42367003 -7.36935,0.98485003 -7.45914,0.83957003 -0.0472,-0.0764 -0.78301,0.0515 -1.63516,0.2841 -0.85216,0.2326 -2.20227,0.43736 -3.00026,0.45502 -0.79799,0.0177 -1.3779,0.11311 -1.2887,0.21209 0.0892,0.099 -0.1127,0.11067 -0.44867,0.026 -0.38401,-0.0968 -0.58968,-0.0643 -0.55382,0.0877 0.0352,0.14905 -0.35259,0.261 -1.01193,0.29213 -0.58794,0.0277 -1.13343,0.0981 -1.21218,0.15638 -0.33352,0.24669997 -2.47397,0.63543997 -4.23307,0.76880997 -1.04187,0.079 -1.99049,0.23933 -2.10802,0.3563 -0.11753,0.11698 -0.51083,0.21415 -0.87399,0.21593 -0.36316,0.002 -0.85359,0.0669 -1.08985,0.14463 -0.62938,0.20713 -1.13466,0.33256 -2.62512,0.65164 -0.73503,0.15735 -1.40086,0.35042 -1.47961,0.42904 -0.17853,0.17822 -0.39937,0.23735 -2.00464,0.53687 -2.10188,0.39216 -2.789375,0.55097 -3.293335,0.76074 -0.26252,0.10928 -0.71356,0.2207 -1.00232,0.24762 -0.28877,0.0269 -0.82573,0.15676 -1.19324,0.28855 -0.36752,0.13178 -1.0763,0.34729 -1.57508,0.47891 -0.49877,0.1316 -1.0572,0.29968 -1.24096,0.37349 -0.18376,0.0738 -0.92661,0.2415 -1.65078,0.37265 -0.72417,0.13114 -1.36852,0.32635 -1.43189,0.4338 -0.19615,0.33264 -1.32283,0.77976 -2.02439,0.80336 -0.7647,0.0257 -1.38415,0.25208 -1.38415,0.50574 0,0.19843 0.17947,0.6595 0.69821,1.7937101 0.51405,1.12397 0.79236,2.71666 0.90647,5.18757 0.12122,2.62458 -0.0573,5.23037 -0.48766,7.11718 -0.16061,0.70422 -0.35194,1.54209 -0.42517,1.86192 -0.0732,0.31984 -0.28805,0.82077 -0.47738,1.11318 l -0.34423,0.53166 0.2436,0.26118 c 0.24771,0.2656 0.96237,0.29645 1.22258,0.0527 z m 55.579275,17.32545 c 0,-0.48102 0.0196,-0.6778 0.0437,-0.43729 0.024,0.24052 0.024,0.63408 0,0.87459 -0.024,0.24051 -0.0437,0.0437 -0.0437,-0.4373 z"
         id="path4496"
         inkscape:connector-curvature="0"
         sodipodi:nodetypes="csscccsssssssssssssssssscssscssccccscsccsccccccsssssssssssssssssssssssssscsscsccssssssscccscsssssscssssssscsccsscscsscsssssscsscscsssscsssssssssssssssscscssscssss" />
    </g>
    <rect
       y="349.18051"
       x="75.987595"
       height="11.398139"
       width="57.412849"
       id="rect8677"
       style="opacity:1;fill:#006c0e;fill-opacity:1;stroke:none;stroke-width:1.79999995;stroke-linejoin:round;stroke-miterlimit:4;stroke-dasharray:none;stroke-dashoffset:0;stroke-opacity:1" />
    <text
       sodipodi:linespacing="125%"
       id="text8698"
       y="428.65671"
       x="206.56717"
       style="font-style:normal;font-variant:normal;font-weight:bold;font-stretch:normal;font-size:22.5px;line-height:125%;font-family:'Noto Sans';-inkscape-font-specification:'Noto Sans, Bold';text-align:center;letter-spacing:0px;word-spacing:0px;writing-mode:lr-tb;text-anchor:middle;fill:#000000;fill-opacity:1;stroke:none;stroke-width:1px;stroke-linecap:butt;stroke-linejoin:miter;stroke-opacity:1"
       xml:space="preserve"><tspan
         y="428.65671"
         x="206.56717"
         id="tspan8700"
         sodipodi:role="line">Solvent</tspan></text>
    <text
       sodipodi:linespacing="125%"
       id="text8698-1"
       y="365.45242"
       x="204.01981"
       style="font-style:normal;font-variant:normal;font-weight:bold;font-stretch:normal;font-size:22.5px;line-height:125%;font-family:'Noto Sans';-inkscape-font-specification:'Noto Sans, Bold';text-align:center;letter-spacing:0px;word-spacing:0px;writing-mode:lr-tb;text-anchor:middle;fill:#000000;fill-opacity:1;stroke:none;stroke-width:1px;stroke-linecap:butt;stroke-linejoin:miter;stroke-opacity:1"
       xml:space="preserve"><tspan
         y="365.45242"
         x="204.01981"
         id="tspan8700-3"
         sodipodi:role="line">Analyte</tspan></text>
    <text
       xml:space="preserve"
       style="font-style:normal;font-variant:normal;font-weight:bold;font-stretch:normal;font-size:22.5px;line-height:125%;font-family:'Noto Sans';-inkscape-font-specification:'Noto Sans, Bold';text-align:center;letter-spacing:0px;word-spacing:0px;writing-mode:lr-tb;text-anchor:middle;fill:#000000;fill-opacity:1;stroke:none;stroke-width:1px;stroke-linecap:butt;stroke-linejoin:miter;stroke-opacity:1"
       x="229.09442"
       y="34.706154"
       id="text8720"
       sodipodi:linespacing="125%"><tspan
         sodipodi:role="line"
         id="tspan8722"
         x="229.09442"
         y="34.706154">Dowel</tspan><tspan
         id="tspan8724"
         sodipodi:role="line"
         x="229.09442"
         y="62.831154">with</tspan><tspan
         id="tspan8726"
         sodipodi:role="line"
         x="229.09442"
         y="90.956154">Filter Paper</tspan></text>
  </g>
</svg>
