<?xml version="1.0" encoding="UTF-8" standalone="no"?>
<!-- Created with Inkscape (http://www.inkscape.org/) -->

<svg
   xmlns:dc="http://purl.org/dc/elements/1.1/"
   xmlns:cc="http://creativecommons.org/ns#"
   xmlns:rdf="http://www.w3.org/1999/02/22-rdf-syntax-ns#"
   xmlns:svg="http://www.w3.org/2000/svg"
   xmlns="http://www.w3.org/2000/svg"
   xmlns:sodipodi="http://sodipodi.sourceforge.net/DTD/sodipodi-0.dtd"
   xmlns:inkscape="http://www.inkscape.org/namespaces/inkscape"
   version="1.0"
   width="354.29999"
   height="620.09998"
   id="svg2403"
   xml:space="preserve"
   sodipodi:docname="titration.svg"
   inkscape:version="0.92.5 (2060ec1f9f, 2020-04-08)"><title
     id="title1849">Titration of a weak acid</title><metadata
     id="metadata106"><rdf:RDF><cc:Work
         rdf:about=""><dc:format>image/svg+xml</dc:format><dc:type
           rdf:resource="http://purl.org/dc/dcmitype/StillImage" /><dc:title>Titration of a weak acid</dc:title><cc:license
           rdf:resource="http://creativecommons.org/licenses/by-sa/4.0/" /><dc:description>Titration of weak acid by strong base. Derived from https://commons.wikimedia.org/wiki/File:Stativ.svg </dc:description><dc:contributor><cc:Agent><dc:title>Roland Mattern; Jeremy Seto</dc:title></cc:Agent></dc:contributor><dc:creator><cc:Agent><dc:title>Jeremy Seto</dc:title></cc:Agent></dc:creator><dc:publisher><cc:Agent><dc:title>New York City College of Technology</dc:title></cc:Agent></dc:publisher><dc:rights><cc:Agent><dc:title>CC-BY-SA 3.0</dc:title></cc:Agent></dc:rights></cc:Work><cc:License
         rdf:about="http://creativecommons.org/licenses/by-sa/4.0/"><cc:permits
           rdf:resource="http://creativecommons.org/ns#Reproduction" /><cc:permits
           rdf:resource="http://creativecommons.org/ns#Distribution" /><cc:requires
           rdf:resource="http://creativecommons.org/ns#Notice" /><cc:requires
           rdf:resource="http://creativecommons.org/ns#Attribution" /><cc:permits
           rdf:resource="http://creativecommons.org/ns#DerivativeWorks" /><cc:requires
           rdf:resource="http://creativecommons.org/ns#ShareAlike" /></cc:License></rdf:RDF></metadata><sodipodi:namedview
     pagecolor="#ffffff"
     bordercolor="#666666"
     borderopacity="1"
     objecttolerance="10"
     gridtolerance="10"
     guidetolerance="10"
     inkscape:pageopacity="0"
     inkscape:pageshadow="2"
     inkscape:window-width="2560"
     inkscape:window-height="1375"
     id="namedview104"
     showgrid="false"
     inkscape:zoom="1.5223352"
     inkscape:cx="-293.48123"
     inkscape:cy="253.82163"
     inkscape:window-x="0"
     inkscape:window-y="0"
     inkscape:window-maximized="1"
     inkscape:current-layer="svg2403" /><defs
     id="defs2406"><marker
       inkscape:stockid="Arrow1Lend"
       orient="auto"
       refY="0.0"
       refX="0.0"
       id="Arrow1Lend"
       style="overflow:visible;"
       inkscape:isstock="true"><path
         id="path1467"
         d="M 0.0,0.0 L 5.0,-5.0 L -12.5,0.0 L 5.0,5.0 L 0.0,0.0 z "
         style="fill-rule:evenodd;stroke:#000000;stroke-width:1pt;stroke-opacity:1;fill:#000000;fill-opacity:1"
         transform="scale(0.8) rotate(180) translate(12.5,0)" /></marker><marker
       inkscape:stockid="Arrow1Lstart"
       orient="auto"
       refY="0.0"
       refX="0.0"
       id="marker1748"
       style="overflow:visible"
       inkscape:isstock="true"><path
         id="path1746"
         d="M 0.0,0.0 L 5.0,-5.0 L -12.5,0.0 L 5.0,5.0 L 0.0,0.0 z "
         style="fill-rule:evenodd;stroke:#000000;stroke-width:1pt;stroke-opacity:1;fill:#000000;fill-opacity:1"
         transform="scale(0.8) translate(12.5,0)" /></marker><marker
       inkscape:stockid="Arrow1Lstart"
       orient="auto"
       refY="0.0"
       refX="0.0"
       id="Arrow1Lstart"
       style="overflow:visible"
       inkscape:isstock="true"><path
         id="path1464"
         d="M 0.0,0.0 L 5.0,-5.0 L -12.5,0.0 L 5.0,5.0 L 0.0,0.0 z "
         style="fill-rule:evenodd;stroke:#000000;stroke-width:1pt;stroke-opacity:1;fill:#000000;fill-opacity:1"
         transform="scale(0.8) translate(12.5,0)" /></marker><filter
       style="color-interpolation-filters:sRGB"
       inkscape:collect="always"
       id="filter14009-6"><feGaussianBlur
         inkscape:collect="always"
         stdDeviation="0.24787808"
         id="feGaussianBlur14011-2" /></filter><filter
       inkscape:collect="always"
       id="filter14009"><feGaussianBlur
         inkscape:collect="always"
         stdDeviation="0.24787808"
         id="feGaussianBlur14011" /></filter></defs><rect
     style="opacity:0.625;fill:#ffffff;fill-opacity:1;stroke:none;stroke-width:2;stroke-miterlimit:4;stroke-dasharray:none;stroke-opacity:1"
     id="rect1851"
     width="349.29517"
     height="616.84039"
     x="0.92897648"
     y="0.47266409" /><path
     inkscape:connector-curvature="0"
     style="fill:#c0c0c0;fill-opacity:1;fill-rule:evenodd;stroke:#000000;stroke-width:1.19999993;stroke-linecap:round;stroke-linejoin:miter;stroke-miterlimit:10;stroke-dasharray:none;stroke-opacity:1"
     id="path2576"
     d="m 166.2,41.1 h 9 V 576 h -9 z" /><path
     inkscape:connector-curvature="0"
     style="fill:#c0c0c0;fill-opacity:1;fill-rule:evenodd;stroke:#000000;stroke-width:1.19999993;stroke-linecap:round;stroke-linejoin:miter;stroke-miterlimit:10;stroke-dasharray:none;stroke-opacity:1"
     id="path2578"
     d="m 319.8,582.3 h 0.3 0.3 0.3 0.3 l 0.6,0.3 h 0.3 0.3 l 0.3,0.3 h 0.3 0.3 l 0.3,0.3 0.3,0.3 h 0.6 l 0.3,0.3 0.3,0.3 0.3,0.3 0.3,0.3 0.3,0.3 0.3,0.3 0.3,0.3 0.3,0.3 v 0.6 l 0.3,0.3 0.3,0.3 v 0.3 0.3 l 0.3,0.3 v 0.3 0.3 l 0.3,0.6 v 0.3 0.3 0.3 9.3 0.3 0.3 0.3 l -0.3,0.6 v 0.3 0.3 l -0.3,0.3 v 0.3 0.3 l -0.3,0.3 -0.3,0.3 v 0.6 l -0.3,0.3 -0.3,0.3 -0.3,0.3 -0.3,0.3 -0.3,0.3 -0.3,0.3 -0.3,0.3 -0.3,0.3 h -0.6 l -0.3,0.3 -0.3,0.3 h -0.3 -0.3 l -0.3,0.3 h -0.3 -0.3 l -0.6,0.3 h -0.3 -0.3 -0.3 -0.3 H 21.6 21.3 21 20.7 20.4 l -0.6,-0.3 h -0.3 -0.3 l -0.3,-0.3 H 18.6 18.3 L 18,606.3 17.7,606 h -0.6 l -0.3,-0.3 -0.3,-0.3 -0.3,-0.3 -0.3,-0.3 -0.3,-0.3 -0.3,-0.3 -0.3,-0.3 -0.3,-0.3 V 603 l -0.3,-0.3 -0.3,-0.3 v -0.3 -0.3 l -0.3,-0.3 v -0.3 -0.3 l -0.3,-0.6 v -0.3 -0.3 -0.3 -9.3 -0.3 -0.3 -0.3 l 0.3,-0.6 v -0.3 -0.3 l 0.3,-0.3 v -0.3 -0.3 l 0.3,-0.3 0.3,-0.3 v -0.6 l 0.3,-0.3 0.3,-0.3 0.3,-0.3 0.3,-0.3 0.3,-0.3 0.3,-0.3 0.3,-0.3 0.3,-0.3 h 0.6 l 0.3,-0.3 0.3,-0.3 h 0.3 0.3 l 0.3,-0.3 h 0.3 0.3 l 0.6,-0.3 h 0.3 0.3 0.3 z" /><path
     inkscape:connector-curvature="0"
     style="fill:#c0c0c0;fill-opacity:1;fill-rule:evenodd;stroke:#000000;stroke-width:1.19999993;stroke-linecap:round;stroke-linejoin:miter;stroke-miterlimit:10;stroke-dasharray:none;stroke-opacity:1"
     id="path2580"
     d="m 153,578.1 h 35.7 V 582 H 153 Z" /><path
     inkscape:connector-curvature="0"
     style="fill:#c0c0c0;fill-opacity:1;fill-rule:evenodd;stroke:#000000;stroke-width:1.19999993;stroke-linecap:round;stroke-linejoin:miter;stroke-miterlimit:10;stroke-dasharray:none;stroke-opacity:1"
     id="path2582"
     d="m 166.2,575.7 h 9 l 13.5,2.4 H 153 Z" /><path
     inkscape:connector-curvature="0"
     style="fill:#c0c0c0;fill-opacity:1;fill-rule:evenodd;stroke:#000000;stroke-width:1.19999993;stroke-linecap:round;stroke-linejoin:miter;stroke-miterlimit:10;stroke-dasharray:none;stroke-opacity:1"
     id="path2584"
     d="m 80.1,157.5 3,12 8.7,-4.2 -1.8,-6.3 59.1,-38.4 -8.7,-2.1 -10.8,6.9 -10.8,7.2 -9.9,6.6 -9.3,6 -4.2,2.7 -3.6,2.4 -3.3,2.1 -3,1.8 -0.9,0.6 -0.6,0.3 h -0.9 -0.6 -0.6 l -0.6,-0.3 -1.5,-0.6 h -0.3 -0.3 l -2.7,-0.3 -3,0.3 -1.2,0.3 -1.2,0.6 -1.2,0.6 -0.9,0.6 -1.2,0.9 -0.6,0.9 h -0.3 v 0 h 0.3 l 0.6,-0.3 2.7,-1.2 1.2,-0.6 H 72 v 0 l 1.5,-0.3 H 75 l 1.5,0.3 z" /><path
     inkscape:connector-curvature="0"
     style="fill:#c0c0c0;fill-opacity:1;fill-rule:evenodd;stroke:#000000;stroke-width:1.19999993;stroke-linecap:round;stroke-linejoin:miter;stroke-miterlimit:10;stroke-dasharray:none;stroke-opacity:1"
     id="path2586"
     d="m 89.1,164.4 -1.5,0.6 -1.5,0.6 -1.2,0.6 -1.2,0.9 -0.6,0.9 -0.9,0.6 -0.3,0.9 v 0.9 l 0.3,0.9 0.3,0.6 0.9,0.3 0.9,0.6 h 1.2 1.2 1.5 l 0.6,-0.3 h 0.6 l 1.5,-0.6 1.5,-0.6 1.2,-0.6 1.2,-0.9 0.6,-0.6 0.9,-0.9 0.3,-0.9 v -0.9 l -0.3,-0.6 -0.3,-0.6 -0.9,-0.6 -0.9,-0.3 -1.2,-0.3 h -1.2 -1.2 l -0.9,0.3 z" /><path
     inkscape:connector-curvature="0"
     style="fill:#c0c0c0;fill-opacity:1;fill-rule:evenodd;stroke:#000000;stroke-width:1.19999993;stroke-linecap:round;stroke-linejoin:miter;stroke-miterlimit:10;stroke-dasharray:none;stroke-opacity:1"
     id="path2588"
     d="m 80.4,121.2 2.4,-12 8.7,3.9 -1.5,6.6 60.6,35.7 -8.7,2.7 -11.1,-6.9 -10.8,-6.3 -10.5,-6.3 -9.3,-5.7 -3.6,-1.8 -3,-2.1 -3,-1.5 -2.7,-1.8 -2.1,-1.2 -0.9,-0.6 -0.9,-0.3 h -0.9 -0.6 l -0.6,0.3 -0.6,0.3 -1.2,0.6 h -0.3 -0.3 l -2.7,0.3 h -3 l -1.2,-0.3 -1.2,-0.6 -1.2,-0.6 -1.2,-0.6 -1.2,-0.9 -0.6,-0.6 -0.3,-0.3 v 0 h 0.3 l 0.6,0.3 3,1.2 0.9,0.6 h 0.3 0.3 1.2 1.5 l 1.5,-0.3 z" /><path
     inkscape:connector-curvature="0"
     style="fill:#c0c0c0;fill-opacity:1;fill-rule:evenodd;stroke:#000000;stroke-width:1.19999993;stroke-linecap:round;stroke-linejoin:miter;stroke-miterlimit:10;stroke-dasharray:none;stroke-opacity:1"
     id="path2590"
     d="m 88.8,114 -1.5,-0.3 -1.5,-0.6 -1.2,-0.6 -1.2,-0.9 -0.9,-0.6 -0.6,-0.9 -0.3,-0.9 -0.3,-0.9 0.3,-0.6 0.3,-0.6 0.6,-0.6 0.9,-0.3 0.9,-0.3 h 1.2 1.2 1.5 l 0.6,0.3 1.5,0.3 1.5,0.6 1.2,0.6 1.2,0.6 0.9,0.9 0.6,0.9 0.3,0.6 0.3,0.9 -0.3,0.9 -0.3,0.6 -0.6,0.3 -0.9,0.6 -0.9,0.3 h -1.2 -1.2 -1.5 z" /><path
     id="path13899-1"
     style="fill:#00609d;fill-opacity:0.80069927;stroke:#000000;stroke-width:0.2;stroke-miterlimit:4;stroke-dasharray:none;stroke-opacity:1"
     d="m 257.4153,300.00507 v -22.50176 c 0,-4.39218 -5.40856,-4.70435 -5.40856,-15.57591 v -39.33362 -9.15825 c 0.004,-72.47463 0.0391,-166.37102 0.079,-168.81395 2.54432,2.00737 18.38455,1.88629 21.58417,-0.56069 l -0.0398,166.48524 v 9.50309 41.87818 c 0,10.80985 -4.42485,10.93326 -4.42485,15.57591 v 22.50176 c 0.05,0.67337 0.34974,2.66414 -0.16137,3.03657 -1.09827,0.80029 0.73041,0.60039 -4.08331,1.46461 l -0.49764,17.8626 -0.24599,84.03272 c -1.11278,17.8123 -1.70347,11.5037 -2.16654,-0.7005 l 0.43335,-83.75596 -0.21633,-17.50904 c -4.02894,-0.85842 -4.95621,-0.53074 -5.06063,-1.72666 z"
     inkscape:connector-curvature="0"
     sodipodi:nodetypes="cssccccccsscscccccccc" /><path
     inkscape:connector-curvature="0"
     style="fill:#c0c0c0;fill-opacity:1;fill-rule:evenodd;stroke:#000000;stroke-width:1.19999993;stroke-linecap:round;stroke-linejoin:miter;stroke-miterlimit:10;stroke-dasharray:none;stroke-opacity:1"
     id="path2596"
     d="m 281.7,146.4 1.8,12 -9.6,-0.6 -0.9,-6.6 -69,-13.8 7.5,-5.1 12.6,2.4 12.6,2.7 11.7,2.4 10.8,2.1 3.9,0.6 3.6,0.9 3.3,0.6 3,0.6 2.4,0.6 h 1.2 1.2 l 0.6,-0.3 0.6,-0.3 0.6,-0.3 0.6,-0.6 0.9,-0.9 0.3,-0.3 2.4,-1.2 3,-0.6 1.5,-0.3 1.5,0.3 h 1.5 l 1.5,0.6 1.2,0.3 0.3,0.3 v 0 0 h -0.6 l -3.3,-0.3 h -1.2 -0.3 v 0 l -1.5,0.6 -1.5,0.3 -1.2,0.9 z" /><path
     id="path13899"
     style="fill:#d6e4ed;fill-opacity:0.24705882;stroke:#1a1a18;stroke-width:1;stroke-linecap:round;stroke-linejoin:round;stroke-miterlimit:4;stroke-dasharray:none;stroke-opacity:1"
     d="m 278.7248,324.19484 c 0,0 -6.85325,-1.23416 -8.4613,0.36662 -0.7042,0.70784 -1.08897,1.35396 -1.08897,2.40663 v 36.04856 l -3.93118,28.84683 v 10.81709 h -4.30144 v -10.81709 l -3.56456,-28.84683 v -36.04856 c 0,0 0.73687,-1.54634 -0.49004,-2.77325 -1.23054,-1.2269 -2.08719,-1.10712 -2.08719,-1.10712 l -6.58102,-0.67153 -0.11306,-18.02614 c 0,0 2.26451,-0.53613 3.86529,-0.53613 1.59716,0 5.40856,0 5.40856,-3.70976 V 277.6424 c 0,-4.39218 -5.40856,-4.70435 -5.40856,-15.57591 v -39.33362 -9.15825 c 0.004,-72.47463 0.0109,-200.71907 0.0508,-203.162 0.029,-2.19972 -2.64257,-2.2215 -2.64257,-3.74969 0,-1.52454 1.54634,-1.54634 2.59175,-1.54634 h 21.62333 c 0,0 3.25602,-0.15971 3.25602,1.54634 0,1.70969 -3.25602,1.64798 -3.25602,3.74969 v 200.2726 9.50309 41.87818 c 0,10.80985 -4.42485,10.93326 -4.42485,15.57591 v 22.50176 c 0,2.81681 2.90392,2.81681 4.42485,2.81681 1.52819,0 5.08051,-0.66064 5.08051,-0.66064"
     inkscape:connector-curvature="0"
     sodipodi:nodetypes="ccscccccccccccsssscccsscssccssssc" /><path
     inkscape:connector-curvature="0"
     id="path3076"
     style="fill:none;stroke:#1a1a18;stroke-width:1;stroke-linecap:round;stroke-linejoin:round;stroke-miterlimit:4;stroke-dasharray:none;stroke-opacity:1"
     d="m 253.84545,8.58823 h 18.02973" /><path
     style="fill:#ff0505;fill-opacity:1;stroke:#1a1a18;stroke-width:1;stroke-linecap:round;stroke-linejoin:round;stroke-miterlimit:4;stroke-dasharray:none;stroke-opacity:1"
     d="m 230.50046,302.72575 h 12.94786 v 21.46361 h -12.94786 z"
     id="path13891"
     inkscape:connector-curvature="0" /><path
     style="fill:#ff0505;fill-opacity:1;stroke:#1a1a18;stroke-width:1;stroke-linecap:round;stroke-linejoin:round;stroke-miterlimit:4;stroke-dasharray:none;stroke-opacity:1"
     d="m 240.66419,302.72575 v 21.46724"
     id="path13889"
     inkscape:connector-curvature="0" /><path
     style="fill:#a6ceed;fill-opacity:0.24705882;stroke:#1a1a18;stroke-width:1;stroke-linecap:round;stroke-linejoin:round;stroke-miterlimit:4;stroke-dasharray:none;stroke-opacity:1"
     d="m 230.31534,317.13646 c -1.59716,0 -2.5119,-2.42477 -2.5119,-3.88762 0,-1.47011 0.73324,-4.06549 2.14891,-4.06549"
     id="path13885"
     inkscape:connector-curvature="0" /><path
     style="fill:#ff0505;fill-opacity:1;stroke:#1a1a18;stroke-width:1;stroke-linecap:round;stroke-linejoin:round;stroke-miterlimit:4;stroke-dasharray:none;stroke-opacity:1"
     d="m 232.84175,307.1506 h 3.92755"
     id="path13883"
     inkscape:connector-curvature="0" /><path
     style="fill:#ff0505;fill-opacity:1;stroke:#1a1a18;stroke-width:1;stroke-linecap:round;stroke-linejoin:round;stroke-miterlimit:4;stroke-dasharray:none;stroke-opacity:1"
     d="m 232.84175,319.44145 h 3.92755"
     id="path13881"
     inkscape:connector-curvature="0" /><path
     style="fill:#ff0505;fill-opacity:1;stroke:#1a1a18;stroke-width:1;stroke-linecap:round;stroke-linejoin:round;stroke-miterlimit:4;stroke-dasharray:none;stroke-opacity:1"
     d="m 232.84175,313.2924 h 3.92755"
     id="path3088"
     inkscape:connector-curvature="0" /><path
     inkscape:connector-curvature="0"
     id="path3092"
     style="fill:none;stroke:#1a1a18;stroke-width:1;stroke-linecap:round;stroke-linejoin:round;stroke-miterlimit:4;stroke-dasharray:none;stroke-opacity:1"
     d="m 254.7983,268.14585 c 6.58745,1.81884 10.96321,1.11005 14.98787,0 m -10.25447,8.84607 c 2.29409,0.42319 4.58819,0.67648 6.88229,0 m -9.39277,25.65829 c 1.54271,1.75542 10.94105,1.71347 12.29137,-0.12083 m -10.5831,19.69475 c 2.45744,-0.73324 7.55745,-0.25046 9.33973,0.86392"
     sodipodi:nodetypes="cccccccc" /><path
     style="fill:#a6ceed;fill-opacity:0.24705882;stroke:#1a1a18;stroke-width:1;stroke-linecap:round;stroke-linejoin:round;stroke-miterlimit:4;stroke-dasharray:none;stroke-opacity:1"
     d="m 282.77214,303.31751 2.39087,4.08034 v 11.33055 l -2.39087,4.38493"
     id="path13871"
     inkscape:connector-curvature="0" /><path
     style="fill:#ff0505;fill-opacity:1;stroke:#1a1a18;stroke-width:1;stroke-linecap:round;stroke-linejoin:round;stroke-miterlimit:4;stroke-dasharray:none;stroke-opacity:1"
     d="m 285.55628,307.15245 h 3.79325 l 4.24335,-15.56865 c 0,0 0.57353,-1.96378 1.96015,-1.96378 1.39751,0 8.37055,0.77317 8.37055,0.77317 0,0 2.33766,0.39203 2.64983,2.24691 0.30492,1.85488 1.59353,15.50695 1.59353,20.1387 0,8.03661 -1.32128,18.36005 -1.87666,20.6977 -0.55174,2.3304 -1.53908,2.76599 -2.63894,2.76599 -1.11075,0 -7.86963,0.4247 -7.86963,0.4247 0,0 -2.09082,-0.36662 -2.76598,-2.20698 -0.67516,-1.84399 -3.6662,-15.02054 -3.6662,-15.02054 h -3.79325"
     id="path3064-5"
     inkscape:connector-curvature="0" /><path
     transform="matrix(0.37179814,0,0,1.0647492,247.86974,-68.15857)"
     style="color:#000000;display:inline;overflow:visible;visibility:visible;opacity:0.43167701;fill:none;stroke:#000000;stroke-width:0.61349368;stroke-linecap:butt;stroke-linejoin:miter;stroke-miterlimit:4;stroke-dasharray:none;stroke-dashoffset:0;stroke-opacity:1;marker:none;filter:url(#filter14009-6);enable-background:accumulate"
     d="m 46.276049,351.36261 -0.947905,14.46051 m -5.700779,0 -0.947905,-14.46051"
     id="rect3076"
     inkscape:connector-curvature="0"
     sodipodi:nodetypes="cccc" /><g
     id="g13969"
     style="opacity:0.77999998"
     transform="translate(167.98515,-598.46553)"><g
       id="g14001"
       style="filter:url(#filter14009)"><path
         style="fill:none;stroke:#676767;stroke-width:0.69999999;stroke-linecap:butt;stroke-linejoin:miter;stroke-miterlimit:4;stroke-dasharray:none;stroke-opacity:1"
         d="m 80.019467,352.8921 31.076193,-2.29422"
         id="path13924"
         inkscape:connector-curvature="0"
         sodipodi:nodetypes="cc"
         transform="translate(0,552.36218)" /><path
         style="fill:none;stroke:#676767;stroke-width:0.69999999;stroke-linecap:butt;stroke-linejoin:miter;stroke-miterlimit:4;stroke-dasharray:none;stroke-opacity:1"
         d="m 79.830865,918.97666 31.076195,2.29422"
         id="path13924-3"
         inkscape:connector-curvature="0"
         sodipodi:nodetypes="cc" /></g></g><path
     style="fill:#a6ceed;fill-opacity:0.24705882;stroke:#1a1a18;stroke-width:1;stroke-linecap:round;stroke-linejoin:round;stroke-miterlimit:4;stroke-dasharray:none;stroke-opacity:1"
     d="m 246.37859,302.72575 c 0.75502,0 1.78591,0.21416 1.78591,1.61168 v 17.73207 c 0,1.30314 -0.57715,2.12349 -1.60079,2.12349 -1.03089,0 -1.83673,-0.59167 -1.83673,-2.12349 v -17.73207 c 0,-1.16157 0.71509,-1.61168 1.65161,-1.61168 z"
     id="path13873"
     inkscape:connector-curvature="0" /><path
     style="fill:#a6ceed;fill-opacity:0.21678323;stroke:#1a1a18;stroke-width:1;stroke-linecap:round;stroke-linejoin:round;stroke-miterlimit:4;stroke-dasharray:none;stroke-opacity:1"
     d="m 280.92089,300.14311 c 1.08534,0 1.85125,0.80221 1.85125,2.58449 v 21.46724 c 0,0.5336 -0.24683,2.77325 -1.63345,2.77325 -1.38662,0 -2.13438,-0.92563 -2.13438,-2.77325 V 302.7276 c 0,-1.4447 0.56263,-2.58449 1.91658,-2.58449 z"
     id="path13903"
     inkscape:connector-curvature="0" /><path
     inkscape:connector-curvature="0"
     style="fill:#c0c0c0;fill-opacity:1;fill-rule:evenodd;stroke:#000000;stroke-width:1.19999993;stroke-linecap:round;stroke-linejoin:miter;stroke-miterlimit:10;stroke-dasharray:none;stroke-opacity:1"
     id="path2600"
     d="m 97.8,172.5 1.2,-0.6 1.2,-0.6 2.4,-0.3 3.3,-0.3 0.6,-0.3 2.1,-0.3 1.8,-1.2 2.4,-1.5 2.4,-2.1 1.2,-1.2 4.2,-3.9 2.7,-2.4 1.8,-2.7 1.8,-3 1.2,-3 0.9,-3.3 0.6,-3.6 v -2.1 -2.4 l -0.3,-2.4 -0.3,-2.4 -0.6,-2.7 -0.9,-2.4 -0.9,-2.4 -1.2,-2.4 -1.2,-2.1 -1.2,-2.1 -1.8,-2.1 -1.5,-1.8 -2.1,-1.5 -1.8,-1.2 -1.2,-0.6 -1.2,-0.6 -9.3,-3.3 -9.3,-1.8 -3,-3.9 3.6,-2.4 v 0 l 1.2,0.3 3.6,0.6 4.8,1.2 4.5,1.5 4.2,1.5 3,1.2 2.7,1.2 2.1,1.2 1.8,1.2 1.5,0.9 0.3,0.3 v 0.3 l 3.3,2.7 3,3 2.7,3.3 2.4,3.6 2.1,3.9 1.5,3.9 1.2,3.9 0.3,2.1 v 1.8 2.4 l -0.6,2.4 -0.6,2.4 -0.6,2.1 -0.9,2.4 -1.2,2.1 -1.5,1.8 -1.8,2.7 -2.1,2.7 -2.4,2.4 -3,2.7 -1.2,1.2 -0.6,0.6 -3.9,3.3 -4.5,3 -4.5,2.4 -4.8,1.8 -5.4,1.2 -2.7,0.3 h -3 l -3,-3.6 z" /><path
     inkscape:connector-curvature="0"
     style="fill:#c0c0c0;fill-opacity:1;fill-rule:evenodd;stroke:#000000;stroke-width:1.19999993;stroke-linecap:round;stroke-linejoin:miter;stroke-miterlimit:10;stroke-dasharray:none;stroke-opacity:1"
     id="path2604"
     d="m 97.8,170.7 h 0.3 0.3 0.3 0.3 0.3 0.3 l 0.3,0.3 h 0.3 0.3 0.3 l 0.3,0.3 h 0.3 0.3 l 0.3,0.3 h 0.3 l 0.3,0.3 h 0.6 l 0.3,0.3 v 0 l 0.3,0.3 0.3,0.3 h 0.3 v 0.3 h 0.3 v 0.3 l 0.3,0.3 v 0 0.3 0 l 0.3,0.3 v 0.3 0 0.3 0.3 0.3 0 0.3 l -0.3,0.3 v 0 0.3 0 l -0.3,0.3 v 0.3 h -0.3 v 0.3 h -0.3 l -0.3,0.3 -0.3,0.3 v 0 l -0.3,0.3 h -0.6 l -0.3,0.3 H 102 l -0.3,0.3 h -0.3 -0.3 l -0.3,0.3 h -0.3 -0.3 -0.3 l -0.3,0.3 H 99.3 99 98.7 98.4 98.1 97.8 v 0 H 97.2 96.9 96.6 96.3 96 95.7 l -0.3,-0.3 h -0.3 -0.3 -0.3 l -0.3,-0.3 h -0.3 -0.3 l -0.3,-0.3 H 93 l -0.3,-0.3 h -0.6 l -0.3,-0.3 v 0 l -0.3,-0.3 -0.3,-0.3 H 90.9 V 177 h -0.3 v -0.3 l -0.3,-0.3 v 0 -0.3 0 L 90,175.8 v -0.3 0 -0.3 -0.3 -0.3 0 -0.3 l 0.3,-0.3 v 0 -0.3 0 l 0.3,-0.3 v -0.3 h 0.3 v -0.3 h 0.3 l 0.3,-0.3 0.3,-0.3 v 0 l 0.3,-0.3 h 0.6 l 0.3,-0.3 h 0.3 l 0.3,-0.3 h 0.3 0.3 l 0.3,-0.3 h 0.3 0.3 0.3 l 0.3,-0.3 h 0.3 0.3 0.3 0.3 0.3 z" /><path
     inkscape:connector-curvature="0"
     style="fill:#c0c0c0;fill-opacity:1;fill-rule:evenodd;stroke:#000000;stroke-width:1.19999993;stroke-linecap:round;stroke-linejoin:miter;stroke-miterlimit:10;stroke-dasharray:none;stroke-opacity:1"
     id="path2610"
     d="m 97.8,98.7 h 0.3 0.3 0.3 0.3 0.3 0.3 l 0.3,0.3 h 0.3 0.3 0.3 l 0.3,0.3 h 0.3 0.3 l 0.3,0.3 h 0.3 l 0.3,0.3 h 0.6 l 0.3,0.3 v 0 l 0.3,0.3 0.3,0.3 h 0.3 v 0.3 h 0.3 v 0.3 l 0.3,0.3 v 0 0.3 0 l 0.3,0.3 v 0.3 0 0.3 0.3 0.3 0 0.3 l -0.3,0.3 v 0 0.3 0 l -0.3,0.3 v 0.3 h -0.3 v 0.3 h -0.3 l -0.3,0.3 -0.3,0.3 v 0 l -0.3,0.3 h -0.6 l -0.3,0.3 H 102 l -0.3,0.3 h -0.3 -0.3 l -0.3,0.3 h -0.3 -0.3 -0.3 l -0.3,0.3 H 99.3 99 98.7 98.4 98.1 97.8 v 0 H 97.2 96.9 96.6 96.3 96 95.7 l -0.3,-0.3 h -0.3 -0.3 -0.3 l -0.3,-0.3 h -0.3 -0.3 l -0.3,-0.3 H 93 l -0.3,-0.3 h -0.6 l -0.3,-0.3 v 0 l -0.3,-0.3 -0.3,-0.3 H 90.9 V 105 h -0.3 v -0.3 l -0.3,-0.3 v 0 -0.3 0 L 90,103.8 v -0.3 0 -0.3 -0.3 -0.3 0 -0.3 l 0.3,-0.3 v 0 -0.3 0 l 0.3,-0.3 v -0.3 h 0.3 v -0.3 h 0.3 l 0.3,-0.3 0.3,-0.3 v 0 l 0.3,-0.3 h 0.6 L 93,99.6 h 0.3 l 0.3,-0.3 h 0.3 0.3 L 94.5,99 h 0.3 0.3 0.3 l 0.3,-0.3 h 0.3 0.3 0.3 0.3 0.3 z" /><path
     inkscape:connector-curvature="0"
     style="fill:#c0c0c0;fill-opacity:1;fill-rule:evenodd;stroke:#000000;stroke-width:1.19999993;stroke-linecap:round;stroke-linejoin:miter;stroke-miterlimit:10;stroke-dasharray:none;stroke-opacity:1"
     id="path2614"
     d="m 174.9,130.2 1.2,0.9 1.5,0.9 0.9,1.2 0.9,1.5 0.6,1.5 0.3,1.8 v 1.5 1.8 l -0.3,1.8 -0.3,0.6 -0.6,0.9 -0.9,1.8 -1.2,1.5 -1.5,1.2 -1.5,0.9 -1.8,0.6 -1.8,0.3 -1.8,0.3 -1.8,-0.3 -0.9,-0.3 -0.9,-0.6 -1.5,-0.6 -1.2,-1.2 -0.9,-1.2 -0.9,-1.5 -0.6,-1.5 -0.3,-1.5 -0.3,-1.8 0.3,-1.8 0.3,-1.5 0.3,-0.9 0.3,-0.9 1.2,-1.8 1.2,-1.5 1.5,-1.2 1.5,-0.9 1.8,-0.6 1.8,-0.3 h 1.8 l 1.8,0.3 0.9,0.3 z" /><path
     inkscape:connector-curvature="0"
     style="fill:#c0c0c0;fill-opacity:1;fill-rule:evenodd;stroke:#000000;stroke-width:1.19999993;stroke-linecap:round;stroke-linejoin:miter;stroke-miterlimit:10;stroke-dasharray:none;stroke-opacity:1"
     id="path2616"
     d="m 174.9,124.8 3.9,2.1 0.6,0.3 0.3,0.9 -0.3,0.6 -12.6,26.1 -0.3,0.6 h -0.9 -0.6 l -3.9,-2.1 -0.6,-0.3 -0.3,-0.9 v -0.6 l 12.6,-25.8 0.6,-0.6 0.6,-0.3 z" /><path
     inkscape:connector-curvature="0"
     style="fill:#c0c0c0;fill-opacity:1;fill-rule:evenodd;stroke:#000000;stroke-width:1.19999993;stroke-linecap:round;stroke-linejoin:miter;stroke-miterlimit:10;stroke-dasharray:none;stroke-opacity:1"
     id="path2618"
     d="m 175.2,125.1 3.3,1.5 -13.8,28.5 -3.3,-1.5 z" /><path
     inkscape:connector-curvature="0"
     style="fill:#c0c0c0;fill-opacity:1;fill-rule:evenodd;stroke:#000000;stroke-width:1.19999993;stroke-linecap:round;stroke-linejoin:miter;stroke-miterlimit:10;stroke-dasharray:none;stroke-opacity:1"
     id="path2620"
     d="m 113.7,135.9 v 0 h 0.3 0.3 0.3 l 0.3,0.3 h 0.3 v 0 l 0.3,0.3 h 0.3 l 0.3,0.3 h 0.3 l 0.3,0.3 0.3,0.3 v 0.3 l 0.3,0.3 v 0.3 l 0.3,0.3 v 0 0.3 l 0.3,0.3 v 0.3 0.3 0.3 0.3 0.3 0.3 0.3 l -0.3,0.3 v 0.3 0 l -0.3,0.3 v 0.3 l -0.3,0.3 v 0.3 l -0.3,0.3 -0.3,0.3 h -0.3 l -0.3,0.3 h -0.3 l -0.3,0.3 v 0 h -0.3 l -0.3,0.3 h -0.3 -0.3 -0.3 v 0 0 h -0.3 -0.3 -0.3 -0.3 l -0.3,-0.3 h -0.3 v 0 l -0.3,-0.3 h -0.3 l -0.3,-0.3 h -0.3 l -0.3,-0.3 -0.3,-0.3 v -0.3 l -0.3,-0.3 v -0.3 l -0.3,-0.3 v 0 -0.3 l -0.3,-0.3 v -0.3 -0.3 -0.3 -0.3 -0.3 -0.3 -0.3 l 0.3,-0.3 v -0.3 0 l 0.3,-0.3 V 138 l 0.3,-0.3 v -0.3 l 0.3,-0.3 0.3,-0.3 h 0.3 l 0.3,-0.3 h 0.3 l 0.3,-0.3 v 0 h 0.3 l 0.3,-0.3 h 0.3 0.3 0.3 z" /><g
     transform="matrix(1.2213709,0,0,1.2213709,173.14411,-624.52735)"
     id="g836"><g
       transform="matrix(0.88568028,0,0,1,2.8444422,-0.21897)"
       id="g2993"><g
         transform="translate(-2.7285e-7,3.4035e-6)"
         id="g3854"><path
           inkscape:connector-curvature="0"
           style="color:#000000;text-indent:0;text-transform:none;fill:#000000"
           d="m 134,856.82 c 0,0 -0.48426,0.43677 -1.039,1.021 -0.55475,0.58422 -1.1738,1.3058 -1.4806,1.9232 -0.23835,0.47966 -0.37988,1.1556 -0.46755,1.7333 -0.0877,0.57769 -0.12988,1.0447 -0.12988,1.0447 v 0.0237 0.85477 0.87852 0.85476 3.4428 3.4428 3.4428 3.4428 3.4428 3.4428 3.4191 3.4428 3.4428 3.4428 3.4428 3.4428 3.4428 3.4428 3.4428 3.4428 3.4428 3.4428 3.4428 3.4428 3.4428 3.4428 3.4428 3.4428 3.4191 3.4428 3.4428 3.4428 3.4428 3.4428 3.4429 0.0238 c 0,0 0.0237,0.0207 0.0259,0.0469 0.002,0.0207 -7.4e-4,0.0683 0,0.11872 7.8e-4,0.0533 0.003,0.11492 0,0.19002 -0.004,0.0779 -0.0145,0.16283 -0.0259,0.26113 -0.0115,0.099 -0.0289,0.21195 -0.052,0.3325 -0.0229,0.1204 -0.0658,0.23969 -0.1039,0.37987 -0.0381,0.14018 -0.0732,0.29308 -0.12988,0.45107 -0.0566,0.15799 -0.12895,0.3244 -0.2078,0.49867 -0.0788,0.17404 -0.15513,0.35754 -0.25975,0.54604 -0.1046,0.1885 -0.22958,0.3925 -0.36365,0.59364 -0.13405,0.20114 -0.30033,0.40537 -0.46755,0.61724 -0.16719,0.21202 -0.3414,0.42016 -0.54548,0.64116 -0.20407,0.22101 -0.43074,0.43661 -0.67535,0.66484 -0.24463,0.22824 -0.51629,0.47865 -0.80523,0.71229 -0.28893,0.23364 -0.59819,0.45139 -0.9351,0.68861 -0.33692,0.23713 -0.70235,0.47356 -1.091,0.7122 -0.3886,0.23881 -0.80278,0.49756 -1.2468,0.73613 -0.44401,0.23841 -0.89964,0.47611 -1.4027,0.71229 -0.50302,0.23618 -1.0447,0.45655 -1.6104,0.6886 -0.5657,0.23198 -1.1603,0.4626 -1.7923,0.68853 -0.63202,0.22577 -1.2982,0.44702 -2.0001,0.66484 -0.70188,0.21783 -1.4325,0.43327 -2.2079,0.64109 -0.77541,0.20781 -1.5892,0.42134 -2.4417,0.61732 -0.85253,0.19589 -1.7422,0.38765 -2.6754,0.56987 -0.93319,0.18207 -1.9177,0.35595 -2.9352,0.52244 -1.0175,0.16633 -2.0897,0.32606 -3.1949,0.47483 -1.1053,0.14877 -2.232,0.27441 -3.4287,0.40355 -1.1967,0.12921 -2.4487,0.24842 -3.7404,0.35626 -1.2917,0.10776 -2.6358,0.20042 -4.0261,0.2849 -1.3903,0.0844 -2.8194,0.15433 -4.3119,0.21361 -1.4925,0.0596 -3.0513,0.11055 -4.6495,0.14249 -1.5983,0.0318 -3.2537,0.0445 -4.9612,0.0469 -1.7084,0 -3.3635,0 -4.9612,-0.0238 -1.5982,-0.027 -3.1312,-0.0636 -4.6236,-0.11873 -1.4925,-0.0548 -2.9216,-0.13327 -4.3119,-0.21377 -1.3903,-0.0804 -2.7344,-0.18056 -4.0261,-0.2849 -1.2917,-0.10442 -2.5437,-0.20591 -3.7404,-0.33234 -1.1967,-0.12644 -2.3494,-0.25709 -3.4547,-0.40371 -1.1052,-0.14654 -2.1515,-0.31017 -3.169,-0.47483 -1.0174,-0.16474 -2.002,-0.34148 -2.9352,-0.52236 -0.93314,-0.18103 -1.823,-0.37462 -2.6754,-0.56987 -0.85243,-0.19518 -1.6663,-0.38607 -2.4417,-0.59356 -0.77534,-0.20758 -1.506,-0.42318 -2.2079,-0.64108 -0.70187,-0.21791 -1.3682,-0.43852 -2.0001,-0.66485 -0.63195,-0.22633 -1.2266,-0.45584 -1.7923,-0.68852 -0.56569,-0.23285 -1.1075,-0.47507 -1.6105,-0.71237 -0.50301,-0.23722 -0.9847,-0.47261 -1.4286,-0.71221 -0.44396,-0.23976 -0.85823,-0.47221 -1.2468,-0.71244 -0.38858,-0.24008 -0.75408,-0.49717 -1.091,-0.73597 -0.3369,-0.23873 -0.64622,-0.4769 -0.9351,-0.71237 -0.28891,-0.23539 -0.56061,-0.45846 -0.80523,-0.68853 -0.24465,-0.23014 -0.44532,-0.46553 -0.64938,-0.68852 -0.20408,-0.22307 -0.40422,-0.42715 -0.57145,-0.64108 -0.16721,-0.21386 -0.30745,-0.43796 -0.44158,-0.64109 -0.13411,-0.20312 -0.25898,-0.40315 -0.36365,-0.59356 -0.10467,-0.19056 -0.20685,-0.37009 -0.28573,-0.54619 -0.07887,-0.17611 -0.12514,-0.3387 -0.18183,-0.49851 -0.05669,-0.16006 -0.11778,-0.30938 -0.15585,-0.45123 -0.03809,-0.14194 -0.05491,-0.28149 -0.07793,-0.40355 -0.02302,-0.12215 -0.04044,-0.23205 -0.05195,-0.3325 -0.01151,-0.10045 -0.02247,-0.18421 -0.02597,-0.26114 -0.0035,-0.0771 -9.98e-4,-0.13828 0,-0.18993 9.97e-4,-0.0517 -0.0019,-0.0947 0,-0.11881 0.0019,-0.0246 0,-0.0238 0,-0.0238 v -0.0238 -0.0238 -3.4428 -3.4428 -3.4428 -3.4428 -3.4428 -3.4428 -3.4191 -3.4428 -3.4428 -3.4428 -3.4428 -3.4428 -3.4428 -3.4428 -3.4428 -3.4428 -3.4428 -3.4428 -3.4428 -3.4428 -3.4428 -3.4428 -3.4428 -3.4428 -3.4191 -3.4428 -3.4428 -3.4428 -3.4428 -3.4428 -3.4428 -0.85477 -0.87851 -0.85477 -0.0237 c 0,0 -0.03101,-0.49804 -0.12988,-1.116 -0.09887,-0.61791 -0.26167,-1.3442 -0.5195,-1.852 -0.29151,-0.57406 -0.85751,-1.2202 -1.3767,-1.757 -0.51917,-0.53681 -0.98705,-0.94974 -0.98705,-0.94974 l -0.46755,0.42738 c 0,0 0.45855,0.40639 0.96108,0.92601 0.50253,0.51961 1.0483,1.1725 1.2728,1.6146 0.1908,0.37574 0.34635,1.0906 0.44158,1.6858 0.09315,0.5822 0.15412,1.0241 0.15585,1.0447 3.8e-5,4.7e-4 0,0.0237 0,0.0237 v 0.83102 0.87851 0.85477 3.4428 3.4428 3.4428 3.4428 3.4428 3.4428 3.4191 3.4428 3.4428 3.4428 3.4428 3.4428 3.4428 3.4428 3.4428 3.4428 3.4428 3.4428 3.4428 3.4428 3.4428 3.4428 3.4428 3.4428 3.4191 3.4428 3.4428 3.4428 3.4428 3.4428 3.4191 0.0238 c -0.0012,0.0103 -0.02432,0 -0.02597,0.0238 -0.0027,0.035 0.0012,0.0798 0,0.14233 -0.0012,0.0628 -0.0042,0.14813 0,0.23753 0.0041,0.0892 0.01298,0.19518 0.02597,0.30866 0.01299,0.11333 0.05233,0.24413 0.07793,0.37987 0.02559,0.13581 0.03607,0.27147 0.07793,0.42739 0.04185,0.156 0.09411,0.32439 0.15585,0.49867 0.06174,0.17404 0.14852,0.35563 0.23378,0.54604 0.08525,0.19033 0.17338,0.389 0.28573,0.59364 0.11235,0.20447 0.24663,0.42444 0.38963,0.641 0.14298,0.21655 0.29036,0.43819 0.46755,0.66484 0.17717,0.22673 0.38263,0.45385 0.59743,0.68861 0.21482,0.23467 0.44542,0.47157 0.70133,0.7122 0.25593,0.24088 0.5307,0.46745 0.8312,0.71245 0.30053,0.24485 0.63846,0.51266 0.98705,0.75973 0.34862,0.24715 0.71676,0.48874 1.1169,0.73605 0.40017,0.24739 0.81754,0.49025 1.2728,0.73605 0.45527,0.2458 0.94076,0.49366 1.4546,0.73605 0.5139,0.24238 1.0604,0.47523 1.6364,0.71228 0.57604,0.23698 1.1765,0.48246 1.8183,0.71237 0.64182,0.22983 1.3149,0.444 2.0261,0.66476 0.71112,0.22085 1.4758,0.43121 2.2598,0.64117 0.78405,0.2098 1.607,0.42023 2.4676,0.61724 0.86059,0.19716 1.7607,0.38741 2.7014,0.56987 0.94072,0.18239 1.9107,0.35651 2.9352,0.52244 1.0245,0.16577 2.0831,0.32733 3.1949,0.47483 1.1118,0.14742 2.2778,0.27656 3.4807,0.40363 1.2028,0.12707 2.443,0.2512 3.7404,0.35618 1.2974,0.10482 2.6565,0.20408 4.0521,0.2849 1.3956,0.0808 2.8404,0.1351 4.3378,0.18993 1.4975,0.0548 3.0467,0.092 4.6495,0.11873 1.6033,0.0262 3.2502,0.0469 4.9612,0.0469 1.7119,0 3.3844,-0.0151 4.9872,-0.0469 1.6028,-0.0318 3.1521,-0.0831 4.6495,-0.14249 1.4974,-0.0596 2.9423,-0.1289 4.3378,-0.21369 1.3956,-0.0847 2.7287,-0.17659 4.0261,-0.28498 1.2974,-0.10816 2.5636,-0.22633 3.7664,-0.35611 1.2028,-0.12985 2.3429,-0.27766 3.4547,-0.42738 1.1118,-0.14957 2.1705,-0.30739 3.1949,-0.47484 1.0244,-0.16752 2.0205,-0.33877 2.9612,-0.52235 0.94068,-0.18365 1.8409,-0.37216 2.7014,-0.56988 0.86054,-0.1978 1.6836,-0.4072 2.4676,-0.61732 0.78401,-0.21012 1.5228,-0.44407 2.2339,-0.66484 0.71111,-0.22061 1.3844,-0.4355 2.0261,-0.66477 0.64172,-0.22943 1.2682,-0.45242 1.8442,-0.68852 0.57599,-0.23627 1.0966,-0.49486 1.6105,-0.73613 0.51384,-0.24119 0.99942,-0.468 1.4546,-0.71229 0.4552,-0.24445 0.89862,-0.49025 1.2988,-0.73605 0.40014,-0.2458 0.76836,-0.49072 1.1169,-0.73604 0.34856,-0.24541 0.66059,-0.49311 0.96108,-0.73613 0.30049,-0.24294 0.57528,-0.49724 0.8312,-0.73597 0.25595,-0.23881 0.5125,-0.456 0.7273,-0.68861 0.2148,-0.23268 0.39426,-0.46386 0.57146,-0.68852 0.17718,-0.22466 0.35047,-0.4502 0.49352,-0.66485 0.14304,-0.21456 0.25123,-0.41467 0.36365,-0.61732 0.1124,-0.20249 0.22641,-0.40513 0.31171,-0.59364 0.0853,-0.18842 0.14601,-0.3735 0.2078,-0.54603 0.0618,-0.17253 0.11395,-0.34426 0.15585,-0.49867 0.0419,-0.15433 0.0783,-0.29301 0.1039,-0.42731 0.0257,-0.13447 0.039,-0.26766 0.052,-0.37995 0.0131,-0.113 0.0216,-0.19843 0.0259,-0.2849 0.004,-0.089 8.3e-4,-0.1765 0,-0.23753 -8.3e-4,-0.062 0.003,-0.10522 0,-0.14233 -0.002,-0.0151 8.3e-4,-0.0151 0,-0.0238 v -0.0238 -3.4191 -3.4428 -3.4428 -3.4428 -3.4428 -3.4428 -3.4191 -3.4428 -3.4428 -3.4428 -3.4428 -3.4428 -3.4428 -3.4428 -3.4428 -3.4428 -3.4428 -3.4428 -3.4428 -3.4428 -3.4428 -3.4428 -3.4428 -3.4428 -3.4191 -3.4428 -3.4428 -3.4428 -3.4428 -3.4428 -3.4428 -0.85477 -0.87851 -0.83102 -0.0237 c 0.002,-0.0207 0.0216,-0.43159 0.1039,-0.97348 0.0842,-0.555 0.24291,-1.2195 0.4156,-1.5671 0.24113,-0.48527 0.83836,-1.2138 1.3767,-1.7808 0.53833,-0.56692 1.013,-0.99722 1.013,-0.99722 l -0.46755,-0.42739 z"
           id="path2986" /><g
           transform="matrix(0.80299,0,0,0.92363,6.8448,77.84)"
           id="g3834"><path
             transform="matrix(1.0946,0,0,1,-10.417,789.03)"
             inkscape:connector-curvature="0"
             sodipodi:nodetypes="sssssssssssssssssssssssssssssssssssssssssssssssssssssssssssssssss"
             d="m 154.75,54.129 c 0,0.18516 -0.11115,0.36812 -0.32814,0.54845 -0.21698,0.18033 -0.53979,0.35801 -0.9631,0.53261 -0.42332,0.1746 -0.94714,0.3461 -1.5661,0.51407 -0.619,0.16797 -1.3332,0.33239 -2.1372,0.49283 -0.80404,0.16044 -1.6979,0.31689 -2.6764,0.4689 -0.97842,0.15201 -2.0414,0.29958 -3.1835,0.44227 -1.1422,0.14269 -2.3635,0.28048 -3.6588,0.41295 -1.2952,0.13246 -2.6644,0.25959 -4.1021,0.38093 -1.4377,0.12134 -2.9439,0.23689 -4.5134,0.34621 -1.5695,0.10932 -3.2022,0.2124 -4.8928,0.3088 -1.6906,0.0964 -3.4391,0.18611 -5.2402,0.26869 -1.8011,0.08258 -3.6548,0.15802 -5.5558,0.22588 -1.901,0.06786 -3.8492,0.12814 -5.8393,0.18038 -1.9902,0.05224 -4.0222,0.09645 -6.0909,0.13218 -2.0687,0.03573 -4.174,0.06297 -6.3106,0.08129 -2.1366,0.01831 -4.3045,0.02769 -6.4983,0.02769 -2.1938,0 -4.3617,-0.0094 -6.4983,-0.02769 -2.1366,-0.01831 -4.2419,-0.04556 -6.3106,-0.08129 -2.0687,-0.03573 -4.1008,-0.07994 -6.0909,-0.13218 -1.9901,-0.05224 -3.9384,-0.11252 -5.8393,-0.18038 -1.901,-0.06786 -3.7546,-0.1433 -5.5558,-0.22588 -1.8011,-0.08258 -3.5496,-0.17229 -5.2402,-0.26869 -1.6906,-0.0964 -3.3233,-0.19948 -4.8928,-0.3088 -1.5695,-0.10932 -3.0757,-0.22487 -4.5134,-0.34621 -1.4377,-0.12134 -2.8068,-0.24846 -4.1021,-0.38093 -1.2952,-0.13246 -5.2323,5.783 -6.2808,6.2992 -1.0308,0.50751 -0.83415,0.3648 -1.6641,-0.31549 -0.79102,-0.64841 -0.76978,-7.1474 -1.5738,-7.3078 -0.80403,-0.16044 -1.5182,-0.32486 -2.1372,-0.49283 -0.619,-0.16797 -1.1428,-0.33947 -1.5661,-0.51407 -0.42332,-0.1746 -0.74613,-0.35228 -0.96311,-0.53261 -0.21698,-0.18033 -0.32814,-0.36329 -0.32814,-0.54845 0,-0.18516 0.11115,-0.36812 0.32814,-0.54845 0.21698,-0.18032 0.53979,-0.35801 0.96311,-0.53261 0.42332,-0.1746 0.94713,-0.3461 1.5661,-0.51407 0.619,-0.16797 1.3332,-0.33239 2.1372,-0.49283 0.80404,-0.16044 1.6979,-0.31689 2.6763,-0.4689 0.97842,-0.15201 2.0414,-0.29958 3.1835,-0.44227 1.1422,-0.14269 2.3635,-0.28048 3.6588,-0.41295 1.2952,-0.13246 2.6644,-0.25959 4.1021,-0.38093 1.4377,-0.12134 2.9439,-0.23689 4.5134,-0.34621 1.5695,-0.10932 3.2022,-0.2124 4.8928,-0.3088 1.6906,-0.0964 3.4391,-0.18611 5.2402,-0.26869 1.8011,-0.08258 3.6548,-0.15802 5.5558,-0.22588 1.901,-0.06786 3.8492,-0.12814 5.8393,-0.18038 1.9901,-0.05224 4.0222,-0.09645 6.0909,-0.13218 2.0687,-0.03573 4.174,-0.06297 6.3106,-0.08129 2.1366,-0.01831 4.3045,-0.02769 6.4983,-0.02769 2.1938,0 4.3617,0.0094 6.4983,0.02769 2.1366,0.01831 4.2419,0.04556 6.3106,0.08129 2.0687,0.03573 4.1008,0.07994 6.0909,0.13218 1.9901,0.05224 3.9384,0.11252 5.8393,0.18038 1.901,0.06786 3.7546,0.1433 5.5558,0.22588 1.8011,0.08258 3.5496,0.17229 5.2402,0.26869 1.6906,0.0964 3.3233,0.19948 4.8928,0.3088 1.5695,0.10932 3.0757,0.22487 4.5134,0.34621 1.4377,0.12134 2.8068,0.24846 4.1021,0.38093 1.2952,0.13246 2.5166,0.27026 3.6588,0.41295 1.1422,0.14269 2.2051,0.29026 3.1835,0.44227 0.97842,0.15201 1.8723,0.30846 2.6764,0.4689 0.80403,0.16044 1.5182,0.32486 2.1372,0.49283 0.619,0.16797 1.1428,0.33947 1.5661,0.51407 0.42331,0.1746 0.74612,0.35228 0.9631,0.53261 0.21699,0.18033 0.32814,0.36329 0.32814,0.54845 z"
             style="fill:none;stroke:#000000;stroke-width:0.68616003"
             id="path2994" /><path
             transform="matrix(1.0578,0,0,0.9,-11.265,803.34)"
             inkscape:connector-curvature="0"
             sodipodi:nodetypes="sssssssssssssssssssssssssssssssssssssssssssssssssssssssssssssssss"
             d="m 158.85,44.259 c 0,0.1587 -0.11136,0.31552 -0.32875,0.47008 -0.2174,0.15456 -0.54081,0.30685 -0.96493,0.4565 -0.42411,0.14965 -0.94892,0.29664 -1.5691,0.44061 -0.62017,0.14396 -1.3357,0.28489 -2.1412,0.42241 -0.80555,0.13751 -1.7011,0.2716 -2.6814,0.40189 -0.98026,0.13029 -2.0452,0.25677 -3.1895,0.37907 -1.1443,0.1223 -2.368,0.2404 -3.6657,0.35394 -1.2977,0.11353 -2.6694,0.22249 -4.1098,0.32649 -1.4404,0.104 -2.9495,0.20304 -4.5219,0.29674 -1.5724,0.0937 -3.2082,0.18205 -4.902,0.26467 -1.6938,0.08262 -3.4456,0.15951 -5.2501,0.23029 -1.8045,0.07078 -3.6617,0.13544 -5.5662,0.1936 -1.9045,0.05816 -3.8564,0.10982 -5.8503,0.1546 -1.9939,0.04478 -4.0298,0.08267 -6.1024,0.11329 -2.0726,0.03062 -4.1819,0.05397 -6.3225,0.06967 -2.1406,0.0157 -4.3126,0.02374 -6.5105,0.02374 -2.198,0 -4.3699,-0.008 -6.5105,-0.02374 -2.1406,-0.0157 -4.2499,-0.03905 -6.3225,-0.06967 -2.0726,-0.03062 -4.1085,-0.06851 -6.1024,-0.11329 -1.9939,-0.04478 -3.9458,-0.09644 -5.8503,-0.1546 -1.9045,-0.05816 -3.7617,-0.12282 -5.5662,-0.1936 -1.8045,-0.07078 -3.5563,-0.14767 -5.2501,-0.23029 -1.6938,-0.08262 -3.3296,-0.17097 -4.902,-0.26467 -1.5724,-0.0937 -3.0815,-0.19274 -4.5219,-0.29674 -1.4404,-0.104 -2.8121,-0.21296 -4.1098,-0.32649 -1.2977,-0.11353 -1.5977,-0.10393 -2.742,-0.22623 -1.1443,-0.1223 -4.9802,6.8391 -5.9604,6.7089 -0.98026,-0.13029 -0.78921,-7.6077 -1.5948,-7.7452 -0.80555,-0.13751 -0.76044,-0.15073 -1.3806,-0.2947 -0.62017,-0.14396 -1.145,-0.29096 -1.5691,-0.44061 -0.42411,-0.14964 -0.74753,-0.30194 -0.96492,-0.4565 -0.21739,-0.15456 -0.32875,-0.31138 -0.32875,-0.47008 0,-0.1587 0.11136,-0.31552 0.32875,-0.47008 0.21739,-0.15456 0.54081,-0.30685 0.96492,-0.4565 0.42411,-0.14964 0.94892,-0.29664 1.5691,-0.44061 0.62017,-0.14396 1.3357,-0.28489 2.1412,-0.4224 0.80555,-0.13751 1.7011,-0.2716 2.6814,-0.40189 0.98026,-0.13029 2.0452,-0.25677 3.1895,-0.37907 1.1443,-0.1223 2.368,-0.2404 3.6657,-0.35394 1.2977,-0.11353 2.6694,-0.22249 4.1098,-0.32649 1.4404,-0.104 2.9495,-0.20304 4.5219,-0.29674 1.5724,-0.09369 3.2082,-0.18205 4.902,-0.26467 1.6938,-0.08262 3.4456,-0.15951 5.2501,-0.23029 1.8045,-0.07078 3.6617,-0.13544 5.5662,-0.1936 1.9045,-0.05816 3.8564,-0.10982 5.8503,-0.1546 1.9939,-0.04478 4.0298,-0.08267 6.1024,-0.11329 2.0726,-0.03062 4.1819,-0.05397 6.3225,-0.06967 2.1406,-0.0157 4.3126,-0.02374 6.5105,-0.02374 2.198,0 4.3699,0.008 6.5105,0.02374 2.1406,0.0157 4.2499,0.03905 6.3225,0.06967 2.0726,0.03062 4.1085,0.06851 6.1024,0.11329 1.9939,0.04478 3.9458,0.09644 5.8503,0.1546 1.9045,0.05816 3.7617,0.12282 5.5662,0.1936 1.8045,0.07078 3.5563,0.14767 5.2501,0.23029 1.6938,0.08262 3.3296,0.17097 4.902,0.26467 1.5724,0.0937 3.0815,0.19274 4.5219,0.29674 1.4404,0.104 2.8121,0.21296 4.1098,0.32649 1.2977,0.11353 2.5214,0.23164 3.6657,0.35394 1.1443,0.1223 2.2093,0.24878 3.1895,0.37907 0.98027,0.13029 1.8758,0.26438 2.6814,0.40189 0.80555,0.13751 1.5211,0.27844 2.1412,0.4224 0.62016,0.14396 1.145,0.29096 1.5691,0.44061 0.42412,0.14965 0.74753,0.30194 0.96493,0.4565 0.21739,0.15456 0.32875,0.31138 0.32875,0.47008 z"
             style="fill:none;stroke:#000000;stroke-width:0.73578"
             id="path3063" /></g><path
           inkscape:connector-curvature="0"
           style="fill:none;stroke:#000000;stroke-width:0.61825001"
           sodipodi:nodetypes="csc"
           d="m 30.226,865.52 c -0.11861,-0.18843 1.0331,-1.1615 2.7451,-0.82542 1.5778,0.30973 1.738,3.4122 1.738,3.4122"
           id="path3845" /></g><g
         transform="matrix(3.0743,0,0,0.64919,-113.67,320.57)"
         style="fill:#a8c7ff"
         id="g3878"><path
           inkscape:connector-curvature="0"
           style="fill:#a8c7ff;stroke:#000000;stroke-width:0.43763"
           sodipodi:nodetypes="ccscc"
           d="m 79.336,953.24 v 50.022 c 0,0 0.67518,22.32 -16.784,22.461 -17.459,0.1413 -16.784,-22.461 -16.784,-22.461 V 953.24"
           id="path3862" /><ellipse
           ry="2.5286653"
           rx="12.413448"
           cy="17.13291"
           cx="65.7453"
           transform="matrix(1.3536,0,0,2.7328,-26.44,906.28)"
           style="fill:#a8c7ff;stroke:#000000;stroke-width:0.21146999"
           id="path3840" /></g></g></g><g
     id="g1456"
     transform="translate(-6)"><g
       id="g13680"
       transform="matrix(0.93253623,0,0,1,213.07203,-543.07086)"><path
         sodipodi:nodetypes="cc"
         inkscape:connector-curvature="0"
         id="path13352"
         d="M 51.487234,784.31542 H 67.802157"
         style="fill:none;stroke:#000000;stroke-width:0.36243922;stroke-linecap:round;stroke-linejoin:miter;stroke-miterlimit:4;stroke-dasharray:none;stroke-opacity:1" /><path
         sodipodi:nodetypes="cc"
         inkscape:connector-curvature="0"
         id="path13352-6"
         d="M 51.487234,816.85998 H 67.802157"
         style="fill:none;stroke:#000000;stroke-width:0.36243922;stroke-linecap:round;stroke-linejoin:miter;stroke-miterlimit:4;stroke-dasharray:none;stroke-opacity:1" /><path
         sodipodi:nodetypes="cc"
         inkscape:connector-curvature="0"
         id="path13352-9"
         d="m 56.335678,790.82433 h 6.618035"
         style="fill:none;stroke:#000000;stroke-width:0.36243922;stroke-linecap:round;stroke-linejoin:miter;stroke-miterlimit:4;stroke-dasharray:none;stroke-opacity:1" /><path
         sodipodi:nodetypes="cc"
         inkscape:connector-curvature="0"
         id="path13352-9-4"
         d="M 53.678855,800.5877 H 65.610536"
         style="fill:none;stroke:#000000;stroke-width:0.36243922;stroke-linecap:round;stroke-linejoin:miter;stroke-miterlimit:4;stroke-dasharray:none;stroke-opacity:1" /><path
         sodipodi:nodetypes="cc"
         inkscape:connector-curvature="0"
         id="path13352-9-44"
         d="m 56.335678,787.56988 h 6.618035"
         style="fill:none;stroke:#000000;stroke-width:0.36243922;stroke-linecap:round;stroke-linejoin:miter;stroke-miterlimit:4;stroke-dasharray:none;stroke-opacity:1" /><path
         sodipodi:nodetypes="cc"
         inkscape:connector-curvature="0"
         id="path13352-9-6"
         d="m 56.335678,794.07879 h 6.618035"
         style="fill:none;stroke:#000000;stroke-width:0.36243922;stroke-linecap:round;stroke-linejoin:miter;stroke-miterlimit:4;stroke-dasharray:none;stroke-opacity:1" /><path
         sodipodi:nodetypes="cc"
         inkscape:connector-curvature="0"
         id="path13352-9-8"
         d="m 56.335678,797.33324 h 6.618035"
         style="fill:none;stroke:#000000;stroke-width:0.36243922;stroke-linecap:round;stroke-linejoin:miter;stroke-miterlimit:4;stroke-dasharray:none;stroke-opacity:1" /><path
         sodipodi:nodetypes="cc"
         inkscape:connector-curvature="0"
         id="path13352-9-7"
         d="m 56.335678,807.09661 h 6.618035"
         style="fill:none;stroke:#000000;stroke-width:0.36243922;stroke-linecap:round;stroke-linejoin:miter;stroke-miterlimit:4;stroke-dasharray:none;stroke-opacity:1" /><path
         sodipodi:nodetypes="cc"
         inkscape:connector-curvature="0"
         id="path13352-9-44-4"
         d="m 56.335678,803.84215 h 6.618035"
         style="fill:none;stroke:#000000;stroke-width:0.36243922;stroke-linecap:round;stroke-linejoin:miter;stroke-miterlimit:4;stroke-dasharray:none;stroke-opacity:1" /><path
         sodipodi:nodetypes="cc"
         inkscape:connector-curvature="0"
         id="path13352-9-6-0"
         d="m 56.335678,810.35106 h 6.618035"
         style="fill:none;stroke:#000000;stroke-width:0.36243922;stroke-linecap:round;stroke-linejoin:miter;stroke-miterlimit:4;stroke-dasharray:none;stroke-opacity:1" /><path
         sodipodi:nodetypes="cc"
         inkscape:connector-curvature="0"
         id="path13352-9-8-0"
         d="m 56.335678,813.60552 h 6.618035"
         style="fill:none;stroke:#000000;stroke-width:0.36243922;stroke-linecap:round;stroke-linejoin:miter;stroke-miterlimit:4;stroke-dasharray:none;stroke-opacity:1" /><path
         sodipodi:nodetypes="cc"
         inkscape:connector-curvature="0"
         id="path13352-8"
         d="M 51.487234,751.77086 H 67.802157"
         style="fill:none;stroke:#000000;stroke-width:0.36243922;stroke-linecap:round;stroke-linejoin:miter;stroke-miterlimit:4;stroke-dasharray:none;stroke-opacity:1" /><path
         sodipodi:nodetypes="cc"
         inkscape:connector-curvature="0"
         id="path13352-9-2"
         d="m 56.335678,758.27978 h 6.618035"
         style="fill:none;stroke:#000000;stroke-width:0.36243922;stroke-linecap:round;stroke-linejoin:miter;stroke-miterlimit:4;stroke-dasharray:none;stroke-opacity:1" /><path
         sodipodi:nodetypes="cc"
         inkscape:connector-curvature="0"
         id="path13352-9-4-5"
         d="M 53.678855,768.04314 H 65.610536"
         style="fill:none;stroke:#000000;stroke-width:0.36243922;stroke-linecap:round;stroke-linejoin:miter;stroke-miterlimit:4;stroke-dasharray:none;stroke-opacity:1" /><path
         sodipodi:nodetypes="cc"
         inkscape:connector-curvature="0"
         id="path13352-9-44-2"
         d="m 56.335678,755.02532 h 6.618035"
         style="fill:none;stroke:#000000;stroke-width:0.36243922;stroke-linecap:round;stroke-linejoin:miter;stroke-miterlimit:4;stroke-dasharray:none;stroke-opacity:1" /><path
         sodipodi:nodetypes="cc"
         inkscape:connector-curvature="0"
         id="path13352-9-6-2"
         d="m 56.335678,761.53423 h 6.618035"
         style="fill:none;stroke:#000000;stroke-width:0.36243922;stroke-linecap:round;stroke-linejoin:miter;stroke-miterlimit:4;stroke-dasharray:none;stroke-opacity:1" /><path
         sodipodi:nodetypes="cc"
         inkscape:connector-curvature="0"
         id="path13352-9-8-2"
         d="m 56.335678,764.78869 h 6.618035"
         style="fill:none;stroke:#000000;stroke-width:0.36243922;stroke-linecap:round;stroke-linejoin:miter;stroke-miterlimit:4;stroke-dasharray:none;stroke-opacity:1" /><path
         sodipodi:nodetypes="cc"
         inkscape:connector-curvature="0"
         id="path13352-9-7-7"
         d="m 56.335678,774.55205 h 6.618035"
         style="fill:none;stroke:#000000;stroke-width:0.36243922;stroke-linecap:round;stroke-linejoin:miter;stroke-miterlimit:4;stroke-dasharray:none;stroke-opacity:1" /><path
         sodipodi:nodetypes="cc"
         inkscape:connector-curvature="0"
         id="path13352-9-44-4-1"
         d="m 56.335678,771.2976 h 6.618035"
         style="fill:none;stroke:#000000;stroke-width:0.36243922;stroke-linecap:round;stroke-linejoin:miter;stroke-miterlimit:4;stroke-dasharray:none;stroke-opacity:1" /><path
         sodipodi:nodetypes="cc"
         inkscape:connector-curvature="0"
         id="path13352-9-6-0-5"
         d="m 56.335678,777.80651 h 6.618035"
         style="fill:none;stroke:#000000;stroke-width:0.36243922;stroke-linecap:round;stroke-linejoin:miter;stroke-miterlimit:4;stroke-dasharray:none;stroke-opacity:1" /><path
         sodipodi:nodetypes="cc"
         inkscape:connector-curvature="0"
         id="path13352-9-8-0-6"
         d="m 56.335678,781.06096 h 6.618035"
         style="fill:none;stroke:#000000;stroke-width:0.36243922;stroke-linecap:round;stroke-linejoin:miter;stroke-miterlimit:4;stroke-dasharray:none;stroke-opacity:1" /><path
         sodipodi:nodetypes="cc"
         inkscape:connector-curvature="0"
         id="path13352-87"
         d="M 51.487234,719.22631 H 67.802157"
         style="fill:none;stroke:#000000;stroke-width:0.36243922;stroke-linecap:round;stroke-linejoin:miter;stroke-miterlimit:4;stroke-dasharray:none;stroke-opacity:1" /><path
         sodipodi:nodetypes="cc"
         inkscape:connector-curvature="0"
         id="path13352-9-24"
         d="m 56.335678,725.73522 h 6.618035"
         style="fill:none;stroke:#000000;stroke-width:0.36243922;stroke-linecap:round;stroke-linejoin:miter;stroke-miterlimit:4;stroke-dasharray:none;stroke-opacity:1" /><path
         sodipodi:nodetypes="cc"
         inkscape:connector-curvature="0"
         id="path13352-9-4-3"
         d="M 53.678855,735.49859 H 65.610536"
         style="fill:none;stroke:#000000;stroke-width:0.36243922;stroke-linecap:round;stroke-linejoin:miter;stroke-miterlimit:4;stroke-dasharray:none;stroke-opacity:1" /><path
         sodipodi:nodetypes="cc"
         inkscape:connector-curvature="0"
         id="path13352-9-44-3"
         d="m 56.335678,722.48076 h 6.618035"
         style="fill:none;stroke:#000000;stroke-width:0.36243922;stroke-linecap:round;stroke-linejoin:miter;stroke-miterlimit:4;stroke-dasharray:none;stroke-opacity:1" /><path
         sodipodi:nodetypes="cc"
         inkscape:connector-curvature="0"
         id="path13352-9-6-6"
         d="m 56.335678,728.98968 h 6.618035"
         style="fill:none;stroke:#000000;stroke-width:0.36243922;stroke-linecap:round;stroke-linejoin:miter;stroke-miterlimit:4;stroke-dasharray:none;stroke-opacity:1" /><path
         sodipodi:nodetypes="cc"
         inkscape:connector-curvature="0"
         id="path13352-9-8-1"
         d="m 56.335678,732.24413 h 6.618035"
         style="fill:none;stroke:#000000;stroke-width:0.36243922;stroke-linecap:round;stroke-linejoin:miter;stroke-miterlimit:4;stroke-dasharray:none;stroke-opacity:1" /><path
         sodipodi:nodetypes="cc"
         inkscape:connector-curvature="0"
         id="path13352-9-7-9"
         d="m 56.335678,742.0075 h 6.618035"
         style="fill:none;stroke:#000000;stroke-width:0.36243922;stroke-linecap:round;stroke-linejoin:miter;stroke-miterlimit:4;stroke-dasharray:none;stroke-opacity:1" /><path
         sodipodi:nodetypes="cc"
         inkscape:connector-curvature="0"
         id="path13352-9-44-4-4"
         d="m 56.335678,738.75304 h 6.618035"
         style="fill:none;stroke:#000000;stroke-width:0.36243922;stroke-linecap:round;stroke-linejoin:miter;stroke-miterlimit:4;stroke-dasharray:none;stroke-opacity:1" /><path
         sodipodi:nodetypes="cc"
         inkscape:connector-curvature="0"
         id="path13352-9-6-0-9"
         d="m 56.335678,745.26195 h 6.618035"
         style="fill:none;stroke:#000000;stroke-width:0.36243922;stroke-linecap:round;stroke-linejoin:miter;stroke-miterlimit:4;stroke-dasharray:none;stroke-opacity:1" /><path
         sodipodi:nodetypes="cc"
         inkscape:connector-curvature="0"
         id="path13352-9-8-0-0"
         d="m 56.335678,748.51641 h 6.618035"
         style="fill:none;stroke:#000000;stroke-width:0.36243922;stroke-linecap:round;stroke-linejoin:miter;stroke-miterlimit:4;stroke-dasharray:none;stroke-opacity:1" /><path
         sodipodi:nodetypes="cc"
         inkscape:connector-curvature="0"
         id="path13352-85"
         d="M 51.487234,686.68175 H 67.802157"
         style="fill:none;stroke:#000000;stroke-width:0.36243922;stroke-linecap:round;stroke-linejoin:miter;stroke-miterlimit:4;stroke-dasharray:none;stroke-opacity:1" /><path
         sodipodi:nodetypes="cc"
         inkscape:connector-curvature="0"
         id="path13352-9-5"
         d="m 56.335678,693.19066 h 6.618035"
         style="fill:none;stroke:#000000;stroke-width:0.36243922;stroke-linecap:round;stroke-linejoin:miter;stroke-miterlimit:4;stroke-dasharray:none;stroke-opacity:1" /><path
         sodipodi:nodetypes="cc"
         inkscape:connector-curvature="0"
         id="path13352-9-4-6"
         d="M 53.678855,702.95403 H 65.610536"
         style="fill:none;stroke:#000000;stroke-width:0.36243922;stroke-linecap:round;stroke-linejoin:miter;stroke-miterlimit:4;stroke-dasharray:none;stroke-opacity:1" /><path
         sodipodi:nodetypes="cc"
         inkscape:connector-curvature="0"
         id="path13352-9-44-32"
         d="m 56.335678,689.93621 h 6.618035"
         style="fill:none;stroke:#000000;stroke-width:0.36243922;stroke-linecap:round;stroke-linejoin:miter;stroke-miterlimit:4;stroke-dasharray:none;stroke-opacity:1" /><path
         sodipodi:nodetypes="cc"
         inkscape:connector-curvature="0"
         id="path13352-9-6-03"
         d="m 56.335678,696.44512 h 6.618035"
         style="fill:none;stroke:#000000;stroke-width:0.36243922;stroke-linecap:round;stroke-linejoin:miter;stroke-miterlimit:4;stroke-dasharray:none;stroke-opacity:1" /><path
         sodipodi:nodetypes="cc"
         inkscape:connector-curvature="0"
         id="path13352-9-8-4"
         d="m 56.335678,699.69958 h 6.618035"
         style="fill:none;stroke:#000000;stroke-width:0.36243922;stroke-linecap:round;stroke-linejoin:miter;stroke-miterlimit:4;stroke-dasharray:none;stroke-opacity:1" /><path
         sodipodi:nodetypes="cc"
         inkscape:connector-curvature="0"
         id="path13352-9-7-0"
         d="m 56.335678,709.46294 h 6.618035"
         style="fill:none;stroke:#000000;stroke-width:0.36243922;stroke-linecap:round;stroke-linejoin:miter;stroke-miterlimit:4;stroke-dasharray:none;stroke-opacity:1" /><path
         sodipodi:nodetypes="cc"
         inkscape:connector-curvature="0"
         id="path13352-9-44-4-6"
         d="m 56.335678,706.20849 h 6.618035"
         style="fill:none;stroke:#000000;stroke-width:0.36243922;stroke-linecap:round;stroke-linejoin:miter;stroke-miterlimit:4;stroke-dasharray:none;stroke-opacity:1" /><path
         sodipodi:nodetypes="cc"
         inkscape:connector-curvature="0"
         id="path13352-9-6-0-2"
         d="m 56.335678,712.7174 h 6.618035"
         style="fill:none;stroke:#000000;stroke-width:0.36243922;stroke-linecap:round;stroke-linejoin:miter;stroke-miterlimit:4;stroke-dasharray:none;stroke-opacity:1" /><path
         sodipodi:nodetypes="cc"
         inkscape:connector-curvature="0"
         id="path13352-9-8-0-3"
         d="m 56.335678,715.97185 h 6.618035"
         style="fill:none;stroke:#000000;stroke-width:0.36243922;stroke-linecap:round;stroke-linejoin:miter;stroke-miterlimit:4;stroke-dasharray:none;stroke-opacity:1" /><path
         sodipodi:nodetypes="cc"
         inkscape:connector-curvature="0"
         id="path13352-84"
         d="M 51.487234,654.13717 H 67.802157"
         style="fill:none;stroke:#000000;stroke-width:0.36243922;stroke-linecap:round;stroke-linejoin:miter;stroke-miterlimit:4;stroke-dasharray:none;stroke-opacity:1" /><path
         sodipodi:nodetypes="cc"
         inkscape:connector-curvature="0"
         id="path13352-9-0"
         d="m 56.335678,660.64608 h 6.618035"
         style="fill:none;stroke:#000000;stroke-width:0.36243922;stroke-linecap:round;stroke-linejoin:miter;stroke-miterlimit:4;stroke-dasharray:none;stroke-opacity:1" /><path
         sodipodi:nodetypes="cc"
         inkscape:connector-curvature="0"
         id="path13352-9-4-1"
         d="M 53.678855,670.40947 H 65.610536"
         style="fill:none;stroke:#000000;stroke-width:0.36243922;stroke-linecap:round;stroke-linejoin:miter;stroke-miterlimit:4;stroke-dasharray:none;stroke-opacity:1" /><path
         sodipodi:nodetypes="cc"
         inkscape:connector-curvature="0"
         id="path13352-9-44-0"
         d="m 56.335678,657.39162 h 6.618035"
         style="fill:none;stroke:#000000;stroke-width:0.36243922;stroke-linecap:round;stroke-linejoin:miter;stroke-miterlimit:4;stroke-dasharray:none;stroke-opacity:1" /><path
         sodipodi:nodetypes="cc"
         inkscape:connector-curvature="0"
         id="path13352-9-6-8"
         d="m 56.335678,663.90053 h 6.618035"
         style="fill:none;stroke:#000000;stroke-width:0.36243922;stroke-linecap:round;stroke-linejoin:miter;stroke-miterlimit:4;stroke-dasharray:none;stroke-opacity:1" /><path
         sodipodi:nodetypes="cc"
         inkscape:connector-curvature="0"
         id="path13352-9-8-17"
         d="m 56.335678,667.15502 h 6.618035"
         style="fill:none;stroke:#000000;stroke-width:0.36243922;stroke-linecap:round;stroke-linejoin:miter;stroke-miterlimit:4;stroke-dasharray:none;stroke-opacity:1" /><path
         sodipodi:nodetypes="cc"
         inkscape:connector-curvature="0"
         id="path13352-9-7-07"
         d="m 56.335678,676.91839 h 6.618035"
         style="fill:none;stroke:#000000;stroke-width:0.36243922;stroke-linecap:round;stroke-linejoin:miter;stroke-miterlimit:4;stroke-dasharray:none;stroke-opacity:1" /><path
         sodipodi:nodetypes="cc"
         inkscape:connector-curvature="0"
         id="path13352-9-44-4-3"
         d="m 56.335678,673.66393 h 6.618035"
         style="fill:none;stroke:#000000;stroke-width:0.36243922;stroke-linecap:round;stroke-linejoin:miter;stroke-miterlimit:4;stroke-dasharray:none;stroke-opacity:1" /><path
         sodipodi:nodetypes="cc"
         inkscape:connector-curvature="0"
         id="path13352-9-6-0-55"
         d="m 56.335678,680.17284 h 6.618035"
         style="fill:none;stroke:#000000;stroke-width:0.36243922;stroke-linecap:round;stroke-linejoin:miter;stroke-miterlimit:4;stroke-dasharray:none;stroke-opacity:1" /><path
         sodipodi:nodetypes="cc"
         inkscape:connector-curvature="0"
         id="path13352-9-8-0-4"
         d="m 56.335678,683.4273 h 6.618035"
         style="fill:none;stroke:#000000;stroke-width:0.36243922;stroke-linecap:round;stroke-linejoin:miter;stroke-miterlimit:4;stroke-dasharray:none;stroke-opacity:1" /><path
         sodipodi:nodetypes="cc"
         inkscape:connector-curvature="0"
         id="path13352-4"
         d="M 51.487234,621.59261 H 67.802157"
         style="fill:none;stroke:#000000;stroke-width:0.36243922;stroke-linecap:round;stroke-linejoin:miter;stroke-miterlimit:4;stroke-dasharray:none;stroke-opacity:1" /><path
         sodipodi:nodetypes="cc"
         inkscape:connector-curvature="0"
         id="path13352-9-05"
         d="m 56.335678,628.10152 h 6.618035"
         style="fill:none;stroke:#000000;stroke-width:0.36243922;stroke-linecap:round;stroke-linejoin:miter;stroke-miterlimit:4;stroke-dasharray:none;stroke-opacity:1" /><path
         sodipodi:nodetypes="cc"
         inkscape:connector-curvature="0"
         id="path13352-9-4-7"
         d="M 53.678855,637.86489 H 65.610536"
         style="fill:none;stroke:#000000;stroke-width:0.36243922;stroke-linecap:round;stroke-linejoin:miter;stroke-miterlimit:4;stroke-dasharray:none;stroke-opacity:1" /><path
         sodipodi:nodetypes="cc"
         inkscape:connector-curvature="0"
         id="path13352-9-44-00"
         d="m 56.335678,624.84707 h 6.618035"
         style="fill:none;stroke:#000000;stroke-width:0.36243922;stroke-linecap:round;stroke-linejoin:miter;stroke-miterlimit:4;stroke-dasharray:none;stroke-opacity:1" /><path
         sodipodi:nodetypes="cc"
         inkscape:connector-curvature="0"
         id="path13352-9-6-27"
         d="m 56.335678,631.35598 h 6.618035"
         style="fill:none;stroke:#000000;stroke-width:0.36243922;stroke-linecap:round;stroke-linejoin:miter;stroke-miterlimit:4;stroke-dasharray:none;stroke-opacity:1" /><path
         sodipodi:nodetypes="cc"
         inkscape:connector-curvature="0"
         id="path13352-9-8-46"
         d="m 56.335678,634.61043 h 6.618035"
         style="fill:none;stroke:#000000;stroke-width:0.36243922;stroke-linecap:round;stroke-linejoin:miter;stroke-miterlimit:4;stroke-dasharray:none;stroke-opacity:1" /><path
         sodipodi:nodetypes="cc"
         inkscape:connector-curvature="0"
         id="path13352-9-7-99"
         d="m 56.335678,644.3738 h 6.618035"
         style="fill:none;stroke:#000000;stroke-width:0.36243922;stroke-linecap:round;stroke-linejoin:miter;stroke-miterlimit:4;stroke-dasharray:none;stroke-opacity:1" /><path
         sodipodi:nodetypes="cc"
         inkscape:connector-curvature="0"
         id="path13352-9-44-4-0"
         d="m 56.335678,641.11934 h 6.618035"
         style="fill:none;stroke:#000000;stroke-width:0.36243922;stroke-linecap:round;stroke-linejoin:miter;stroke-miterlimit:4;stroke-dasharray:none;stroke-opacity:1" /><path
         sodipodi:nodetypes="cc"
         inkscape:connector-curvature="0"
         id="path13352-9-6-0-0"
         d="m 56.335678,647.62826 h 6.618035"
         style="fill:none;stroke:#000000;stroke-width:0.36243922;stroke-linecap:round;stroke-linejoin:miter;stroke-miterlimit:4;stroke-dasharray:none;stroke-opacity:1" /><path
         sodipodi:nodetypes="cc"
         inkscape:connector-curvature="0"
         id="path13352-9-8-0-7"
         d="m 56.335678,650.88271 h 6.618035"
         style="fill:none;stroke:#000000;stroke-width:0.36243922;stroke-linecap:round;stroke-linejoin:miter;stroke-miterlimit:4;stroke-dasharray:none;stroke-opacity:1" /><path
         sodipodi:nodetypes="cc"
         inkscape:connector-curvature="0"
         id="path13352-2"
         d="M 51.487234,589.04806 H 67.802157"
         style="fill:none;stroke:#000000;stroke-width:0.36243922;stroke-linecap:round;stroke-linejoin:miter;stroke-miterlimit:4;stroke-dasharray:none;stroke-opacity:1" /><path
         sodipodi:nodetypes="cc"
         inkscape:connector-curvature="0"
         id="path13352-9-57"
         d="m 56.335678,595.55697 h 6.618035"
         style="fill:none;stroke:#000000;stroke-width:0.36243922;stroke-linecap:round;stroke-linejoin:miter;stroke-miterlimit:4;stroke-dasharray:none;stroke-opacity:1" /><path
         sodipodi:nodetypes="cc"
         inkscape:connector-curvature="0"
         id="path13352-9-4-9"
         d="M 53.678855,605.32033 H 65.610536"
         style="fill:none;stroke:#000000;stroke-width:0.36243922;stroke-linecap:round;stroke-linejoin:miter;stroke-miterlimit:4;stroke-dasharray:none;stroke-opacity:1" /><path
         sodipodi:nodetypes="cc"
         inkscape:connector-curvature="0"
         id="path13352-9-44-5"
         d="m 56.335678,592.30251 h 6.618035"
         style="fill:none;stroke:#000000;stroke-width:0.36243922;stroke-linecap:round;stroke-linejoin:miter;stroke-miterlimit:4;stroke-dasharray:none;stroke-opacity:1" /><path
         sodipodi:nodetypes="cc"
         inkscape:connector-curvature="0"
         id="path13352-9-6-09"
         d="m 56.335678,598.81142 h 6.618035"
         style="fill:none;stroke:#000000;stroke-width:0.36243922;stroke-linecap:round;stroke-linejoin:miter;stroke-miterlimit:4;stroke-dasharray:none;stroke-opacity:1" /><path
         sodipodi:nodetypes="cc"
         inkscape:connector-curvature="0"
         id="path13352-9-8-5"
         d="m 56.335678,602.06588 h 6.618035"
         style="fill:none;stroke:#000000;stroke-width:0.36243922;stroke-linecap:round;stroke-linejoin:miter;stroke-miterlimit:4;stroke-dasharray:none;stroke-opacity:1" /><path
         sodipodi:nodetypes="cc"
         inkscape:connector-curvature="0"
         id="path13352-9-7-3"
         d="m 56.335678,611.82924 h 6.618035"
         style="fill:none;stroke:#000000;stroke-width:0.36243922;stroke-linecap:round;stroke-linejoin:miter;stroke-miterlimit:4;stroke-dasharray:none;stroke-opacity:1" /><path
         sodipodi:nodetypes="cc"
         inkscape:connector-curvature="0"
         id="path13352-9-44-4-8"
         d="m 56.335678,608.57479 h 6.618035"
         style="fill:none;stroke:#000000;stroke-width:0.36243922;stroke-linecap:round;stroke-linejoin:miter;stroke-miterlimit:4;stroke-dasharray:none;stroke-opacity:1" /><path
         sodipodi:nodetypes="cc"
         inkscape:connector-curvature="0"
         id="path13352-9-6-0-6"
         d="m 56.335678,615.0837 h 6.618035"
         style="fill:none;stroke:#000000;stroke-width:0.36243922;stroke-linecap:round;stroke-linejoin:miter;stroke-miterlimit:4;stroke-dasharray:none;stroke-opacity:1" /><path
         sodipodi:nodetypes="cc"
         inkscape:connector-curvature="0"
         id="path13352-9-8-0-1"
         d="m 56.335678,618.33816 h 6.618035"
         style="fill:none;stroke:#000000;stroke-width:0.36243922;stroke-linecap:round;stroke-linejoin:miter;stroke-miterlimit:4;stroke-dasharray:none;stroke-opacity:1" /></g><path
       style="fill:#000003;fill-opacity:1;stroke-width:1.25"
       d="m 262.63346,111.97603 0.92285,-0.0781 c 0.0684,0.44923 0.22705,0.78695 0.47607,1.01319 0.24903,0.22624 0.54932,0.33935 0.90088,0.33935 0.42318,0 0.78125,-0.1595 1.07422,-0.47851 0.29297,-0.31901 0.43945,-0.74219 0.43946,-1.26953 -10e-6,-0.5013 -0.1408,-0.89681 -0.42237,-1.18653 -0.28158,-0.28971 -0.65023,-0.43456 -1.10595,-0.43457 -0.28321,10e-6 -0.53874,0.0643 -0.76661,0.19287 -0.22787,0.12859 -0.4069,0.29542 -0.53711,0.50049 l -0.82519,-0.10742 0.69335,-3.67676 h 3.55958 v 0.83985 h -2.85645 l -0.38574,1.92382 c 0.42969,-0.29947 0.88053,-0.44921 1.35253,-0.44921 0.625,0 1.15234,0.21647 1.58203,0.64941 0.42968,0.43295 0.64453,0.98959 0.64453,1.66992 0,0.64779 -0.1888,1.20769 -0.5664,1.67969 -0.45899,0.57943 -1.08562,0.86914 -1.87989,0.86914 -0.65104,0 -1.18245,-0.18229 -1.59423,-0.54687 -0.41179,-0.36459 -0.64698,-0.84799 -0.70557,-1.4502 z m 5.56,-1.65527 c 0,-0.84635 0.0871,-1.5275 0.26123,-2.04346 0.17415,-0.51594 0.43294,-0.91389 0.77637,-1.19385 0.34342,-0.27994 0.77555,-0.41991 1.29638,-0.41992 0.38411,1e-5 0.72103,0.0773 1.01075,0.23193 0.2897,0.15463 0.52896,0.37761 0.71777,0.66895 0.1888,0.29135 0.33691,0.64616 0.44432,1.06445 0.10742,0.4183 0.16114,0.98227 0.16114,1.6919 0,0.83984 -0.0863,1.51774 -0.25878,2.03369 -0.17253,0.51595 -0.43052,0.91471 -0.77393,1.19629 -0.34344,0.28157 -0.77718,0.42236 -1.30127,0.42236 -0.6901,0 -1.2321,-0.2474 -1.62597,-0.74219 -0.47201,-0.5957 -0.70801,-1.56575 -0.70801,-2.91015 z m 0.90332,0 c 0,1.17513 0.13753,1.95719 0.4126,2.34619 0.27506,0.389 0.61442,0.58349 1.01806,0.58349 0.40365,0 0.743,-0.19531 1.01807,-0.58593 0.27506,-0.39063 0.41259,-1.17188 0.4126,-2.34375 -10e-6,-1.17838 -0.13754,-1.96126 -0.4126,-2.34864 -0.27507,-0.38736 -0.61768,-0.58104 -1.02783,-0.58105 -0.40365,1e-5 -0.72592,0.1709 -0.9668,0.51269 -0.30274,0.43621 -0.4541,1.24187 -0.4541,2.417 z"
       id="text2552"
       inkscape:connector-curvature="0" /><path
       style="fill:#000000;fill-opacity:1;stroke-width:1.25"
       d="m 267.30919,211.62523 v 0.84473 h -4.73145 c -0.007,-0.21159 0.0277,-0.41504 0.10254,-0.61035 0.12045,-0.32227 0.31332,-0.63965 0.57862,-0.95215 0.26529,-0.3125 0.6486,-0.67383 1.1499,-1.08398 0.77799,-0.63802 1.30371,-1.14339 1.57715,-1.51612 0.27343,-0.37271 0.41015,-0.72509 0.41015,-1.05713 0,-0.3483 -0.12451,-0.64208 -0.37353,-0.88134 -0.24903,-0.23926 -0.57374,-0.35888 -0.97412,-0.35889 -0.42318,1e-5 -0.76172,0.12696 -1.01563,0.38086 -0.25391,0.25391 -0.38249,0.60547 -0.38574,1.05469 l -0.90332,-0.0928 c 0.0618,-0.67382 0.2946,-1.18733 0.69824,-1.54052 0.40365,-0.35319 0.94564,-0.52978 1.62598,-0.52979 0.68684,1e-5 1.23046,0.19044 1.63086,0.57129 0.40038,0.38086 0.60058,0.85287 0.60058,1.41601 0,0.28647 -0.0586,0.56804 -0.17578,0.84473 -0.11719,0.2767 -0.31169,0.56804 -0.58349,0.87402 -0.27182,0.306 -0.72348,0.72592 -1.35498,1.25977 -0.52735,0.44271 -0.86589,0.743 -1.01563,0.90088 -0.14974,0.15788 -0.27344,0.31657 -0.37109,0.47607 z m 0.94086,-2.68554 c 0,-0.84635 0.0871,-1.5275 0.26123,-2.04346 0.17415,-0.51594 0.43294,-0.91389 0.77637,-1.19385 0.34342,-0.27994 0.77555,-0.41991 1.29638,-0.41992 0.38411,1e-5 0.72103,0.0773 1.01075,0.23193 0.2897,0.15463 0.52896,0.37761 0.71777,0.66895 0.1888,0.29135 0.33691,0.64616 0.44433,1.06445 0.10742,0.4183 0.16113,0.98227 0.16114,1.6919 -1e-5,0.83984 -0.0863,1.51774 -0.25879,2.03369 -0.17253,0.51595 -0.43051,0.91471 -0.77393,1.19629 -0.34343,0.28157 -0.77718,0.42236 -1.30127,0.42236 -0.6901,0 -1.23209,-0.2474 -1.62597,-0.74219 -0.47201,-0.5957 -0.70801,-1.56575 -0.70801,-2.91015 z m 0.90332,0 c 0,1.17513 0.13753,1.95719 0.4126,2.34619 0.27506,0.389 0.61442,0.58349 1.01806,0.58349 0.40365,0 0.743,-0.19531 1.01807,-0.58593 0.27506,-0.39063 0.41259,-1.17188 0.4126,-2.34375 -1e-5,-1.17838 -0.13754,-1.96126 -0.4126,-2.34864 -0.27507,-0.38736 -0.61768,-0.58104 -1.02783,-0.58105 -0.40365,1e-5 -0.72592,0.1709 -0.9668,0.51269 -0.30274,0.43621 -0.4541,1.24187 -0.4541,2.417 z"
       id="text2564"
       inkscape:connector-curvature="0" /><path
       style="fill:#000000;fill-opacity:1;stroke-width:1.25"
       d="m 265.60709,244.49902 h -0.87891 v -5.60059 c -0.21159,0.20183 -0.4891,0.40365 -0.83252,0.60547 -0.34343,0.20183 -0.65186,0.35319 -0.92529,0.4541 v -0.84961 c 0.49153,-0.23111 0.92122,-0.51106 1.28906,-0.83984 0.36784,-0.32877 0.62825,-0.64778 0.78125,-0.95703 h 0.56641 z m 2.24945,-3.53028 c 0,-0.84635 0.0871,-1.5275 0.26123,-2.04345 0.17415,-0.51595 0.43294,-0.9139 0.77637,-1.19385 0.34342,-0.27994 0.77555,-0.41992 1.29638,-0.41992 0.38411,0 0.72103,0.0773 1.01075,0.23193 0.2897,0.15463 0.52896,0.37761 0.71777,0.66895 0.1888,0.29134 0.33691,0.64616 0.44433,1.06445 0.10742,0.4183 0.16113,0.98226 0.16114,1.69189 -1e-5,0.83985 -0.0863,1.51775 -0.25879,2.03369 -0.17253,0.51596 -0.43051,0.91472 -0.77393,1.19629 -0.34343,0.28158 -0.77718,0.42237 -1.30127,0.42237 -0.6901,0 -1.23209,-0.2474 -1.62597,-0.74219 -0.47201,-0.5957 -0.70801,-1.56575 -0.70801,-2.91016 z m 0.90332,0 c 0,1.17514 0.13753,1.9572 0.4126,2.34619 0.27506,0.389 0.61442,0.5835 1.01806,0.5835 0.40365,0 0.743,-0.19531 1.01807,-0.58594 0.27506,-0.39062 0.41259,-1.17187 0.4126,-2.34375 -1e-5,-1.17838 -0.13754,-1.96125 -0.4126,-2.34863 -0.27507,-0.38736 -0.61768,-0.58105 -1.02783,-0.58105 -0.40365,0 -0.72592,0.1709 -0.9668,0.51269 -0.30274,0.4362 -0.4541,1.24187 -0.4541,2.41699 z"
       id="text2568"
       inkscape:connector-curvature="0" /><path
       style="fill:#000000;fill-opacity:1;stroke-width:1.25"
       d="m 265.59488,147.38488 v -1.71387 h -3.10547 v -0.80566 l 3.2666,-4.63867 h 0.71778 v 4.63867 h 0.96679 v 0.80566 h -0.96679 v 1.71387 z m 0,-2.51953 v -3.22754 l -2.24121,3.22754 z m 2.74262,-1.01074 c 0,-0.84635 0.0871,-1.5275 0.26123,-2.04346 0.17415,-0.51594 0.43294,-0.91389 0.77637,-1.19385 0.34342,-0.27994 0.77555,-0.41991 1.29638,-0.41992 0.38411,1e-5 0.72103,0.0773 1.01075,0.23193 0.2897,0.15463 0.52896,0.37761 0.71777,0.66895 0.1888,0.29135 0.33691,0.64616 0.44433,1.06445 0.10742,0.4183 0.16113,0.98227 0.16114,1.6919 -10e-6,0.83984 -0.0863,1.51774 -0.25879,2.03369 -0.17253,0.51595 -0.43051,0.91471 -0.77393,1.19629 -0.34343,0.28157 -0.77718,0.42236 -1.30127,0.42236 -0.6901,0 -1.23209,-0.2474 -1.62597,-0.74219 -0.47201,-0.5957 -0.70801,-1.56575 -0.70801,-2.91015 z m 0.90332,0 c 0,1.17513 0.13753,1.95719 0.4126,2.34619 0.27506,0.389 0.61442,0.58349 1.01806,0.58349 0.40365,0 0.743,-0.19531 1.01807,-0.58593 0.27506,-0.39063 0.41259,-1.17188 0.4126,-2.34375 -10e-6,-1.17838 -0.13754,-1.96126 -0.4126,-2.34864 -0.27507,-0.38736 -0.61768,-0.58104 -1.02783,-0.58105 -0.40365,1e-5 -0.72592,0.1709 -0.9668,0.51269 -0.30274,0.43621 -0.4541,1.24187 -0.4541,2.417 z"
       id="text2556"
       inkscape:connector-curvature="0" /><path
       style="fill:#000000;fill-opacity:1;stroke-width:1.25"
       d="m 262.63589,178.39997 0.87892,-0.11719 c 0.10091,0.49805 0.27262,0.85694 0.51513,1.07666 0.24252,0.21973 0.53793,0.32959 0.88623,0.32959 0.41341,0 0.76252,-0.14322 1.04737,-0.42968 0.28483,-0.28646 0.42724,-0.64128 0.42724,-1.06446 0,-0.40364 -0.13185,-0.73648 -0.39551,-0.99853 -0.26368,-0.26204 -0.59895,-0.39306 -1.00586,-0.39307 -0.16602,1e-5 -0.37272,0.0326 -0.62011,0.0977 l 0.0977,-0.77149 c 0.0586,0.007 0.10579,0.01 0.1416,0.01 0.37434,0 0.71126,-0.0977 1.01074,-0.29297 0.29948,-0.19531 0.44922,-0.49642 0.44922,-0.90332 0,-0.32226 -0.10905,-0.58919 -0.32715,-0.80078 -0.2181,-0.21159 -0.49968,-0.31738 -0.84473,-0.31739 -0.3418,1e-5 -0.62663,0.10743 -0.85449,0.32227 -0.22786,0.21485 -0.37435,0.53711 -0.43945,0.9668 l -0.87891,-0.15625 c 0.10742,-0.58919 0.35156,-1.04573 0.73242,-1.36963 0.38086,-0.32389 0.85449,-0.48584 1.4209,-0.48584 0.39062,0 0.75032,0.0838 1.0791,0.25146 0.32878,0.16765 0.58024,0.39633 0.7544,0.68604 0.17415,0.28972 0.26122,0.59733 0.26123,0.92285 -10e-6,0.30925 -0.083,0.59082 -0.24902,0.84472 -0.16602,0.25392 -0.41179,0.45574 -0.73731,0.60547 0.42317,0.0977 0.75195,0.3003 0.98633,0.60791 0.23437,0.30762 0.35156,0.69255 0.35156,1.15479 0,0.625 -0.22787,1.15479 -0.68359,1.58935 -0.45574,0.43458 -1.03191,0.65186 -1.72852,0.65186 -0.62825,0 -1.1499,-0.18717 -1.56494,-0.56152 -0.41503,-0.37435 -0.65185,-0.85937 -0.71044,-1.45508 z m 5.55512,-1.64062 c 0,-0.84635 0.0871,-1.5275 0.26123,-2.04346 0.17415,-0.51594 0.43294,-0.91389 0.77637,-1.19385 0.34342,-0.27994 0.77555,-0.41991 1.29638,-0.41992 0.38411,10e-6 0.72103,0.0773 1.01075,0.23193 0.2897,0.15463 0.52896,0.37761 0.71777,0.66895 0.1888,0.29135 0.33691,0.64616 0.44433,1.06445 0.10742,0.4183 0.16113,0.98227 0.16114,1.6919 -10e-6,0.83984 -0.0863,1.51774 -0.25879,2.03369 -0.17253,0.51595 -0.43051,0.91471 -0.77393,1.19629 -0.34343,0.28157 -0.77718,0.42236 -1.30127,0.42236 -0.6901,0 -1.23209,-0.2474 -1.62597,-0.74219 -0.47201,-0.5957 -0.70801,-1.56575 -0.70801,-2.91015 z m 0.90332,0 c 0,1.17513 0.13754,1.95719 0.4126,2.34619 0.27506,0.389 0.61442,0.58349 1.01806,0.58349 0.40366,0 0.743,-0.19531 1.01808,-0.58593 0.27505,-0.39063 0.41259,-1.17188 0.41259,-2.34375 0,-1.17838 -0.13754,-1.96126 -0.41259,-2.34864 -0.27508,-0.38736 -0.61769,-0.58104 -1.02783,-0.58105 -0.40366,1e-5 -0.72592,0.1709 -0.9668,0.51269 -0.30274,0.43621 -0.4541,1.24187 -0.45411,2.417 z"
       id="text2560"
       inkscape:connector-curvature="0" /><text
       id="text1266"
       y="81.583023"
       x="262.38077"
       style="font-style:normal;font-weight:normal;font-size:11.60000038px;line-height:1.25;font-family:sans-serif;letter-spacing:0px;word-spacing:0px;fill:#000000;fill-opacity:1;stroke:none"
       xml:space="preserve"><tspan
         style="font-style:normal;font-variant:normal;font-weight:normal;font-stretch:normal;font-size:9.33333302px;font-family:'Noto Sans';-inkscape-font-specification:'Noto Sans'"
         y="81.583023"
         x="262.38077"
         id="tspan1264"
         sodipodi:role="line">60</tspan></text>
<text
       xml:space="preserve"
       style="font-style:normal;font-weight:normal;font-size:11.60000038px;line-height:1.25;font-family:sans-serif;letter-spacing:0px;word-spacing:0px;fill:#000000;fill-opacity:1;stroke:none"
       x="262.4321"
       y="49.149292"
       id="text1270"><tspan
         sodipodi:role="line"
         id="tspan1268"
         x="262.4321"
         y="49.149292"
         style="font-style:normal;font-variant:normal;font-weight:normal;font-stretch:normal;font-size:9.33333302px;font-family:'Noto Sans';-inkscape-font-specification:'Noto Sans'">70</tspan></text>
</g><g
     id="g1030"
     transform="translate(-6)"><g
       id="g1019"><path
         inkscape:connector-curvature="0"
         style="fill:#c0c0c0;fill-opacity:1;fill-rule:evenodd;stroke:#000000;stroke-width:1.19999993;stroke-linecap:round;stroke-linejoin:miter;stroke-miterlimit:10;stroke-dasharray:none;stroke-opacity:1"
         id="path2592"
         d="m 287.7,132.9 1.5,-12 -9.6,0.6 -0.6,6.6 -69,13.8 7.2,5.1 12.6,-2.4 12.6,-2.7 12,-2.4 10.5,-2.1 3.9,-0.6 3.6,-0.9 3.3,-0.6 3,-0.6 2.7,-0.6 h 1.2 0.9 l 0.9,0.3 0.6,0.3 0.6,0.3 0.6,0.6 0.6,0.9 h 0.3 l 2.4,1.5 3,0.6 1.5,0.3 1.5,-0.3 h 1.8 l 1.5,-0.6 1.2,-0.3 0.3,-0.3 v 0 h -0.3 -0.6 l -3,0.3 h -1.2 -0.3 -0.3 l -1.2,-0.6 -1.5,-0.3 -1.2,-0.9 z" /><path
         inkscape:connector-curvature="0"
         style="fill:#c0c0c0;fill-opacity:1;fill-rule:evenodd;stroke:#000000;stroke-width:1.19999993;stroke-linecap:round;stroke-linejoin:miter;stroke-miterlimit:10;stroke-dasharray:none;stroke-opacity:1"
         id="path2594"
         d="m 282,123.3 2.7,0.3 2.7,-0.6 1.8,-0.6 1.2,-1.2 0.6,-0.6 v -0.9 l -0.3,-0.6 -0.3,-0.6 -0.6,-0.6 -0.6,-0.6 -0.9,-0.6 -1.2,-0.3 -1.2,-0.3 -0.6,-0.3 h -0.9 -2.7 l -2.4,0.3 -1.8,0.6 -1.5,1.2 -0.3,0.6 v 0.9 0.6 l 0.6,0.6 0.6,0.6 0.6,0.6 0.9,0.6 1.2,0.3 1.2,0.6 h 0.6 z" /><path
         inkscape:connector-curvature="0"
         style="fill:#c0c0c0;fill-opacity:1;fill-rule:evenodd;stroke:#000000;stroke-width:1.19999993;stroke-linecap:round;stroke-linejoin:miter;stroke-miterlimit:10;stroke-dasharray:none;stroke-opacity:1"
         id="path2598"
         d="m 282.3,156 2.7,-0.3 2.4,0.6 2.1,0.6 1.2,1.2 0.3,0.6 v 0.9 0.6 l -0.3,0.6 -0.6,0.6 -0.9,0.6 -0.9,0.6 -1.2,0.3 -1.2,0.3 -0.6,0.3 h -0.6 -2.7 l -2.4,-0.3 -2.1,-0.6 -1.2,-1.2 -0.3,-0.6 -0.3,-0.9 0.3,-0.6 0.3,-0.6 0.6,-0.6 0.9,-0.6 0.9,-0.6 0.9,-0.3 1.2,-0.6 h 0.9 z" /><path
         inkscape:connector-curvature="0"
         style="fill:#c0c0c0;fill-opacity:1;fill-rule:evenodd;stroke:#000000;stroke-width:1.19999993;stroke-linecap:round;stroke-linejoin:miter;stroke-miterlimit:10;stroke-dasharray:none;stroke-opacity:1"
         id="path2602"
         d="m 253.5,172.5 -1.2,-0.6 -1.2,-0.6 -2.4,-0.3 -3.3,-0.3 -0.6,-0.3 -2.1,-0.3 -1.8,-1.2 -2.4,-1.5 -2.4,-2.1 -1.2,-1.2 -4.2,-3.9 -2.7,-2.4 -1.8,-2.7 -1.8,-3 -1.2,-3 -0.9,-3.3 -0.6,-3.6 v -2.1 -2.4 l 0.3,-2.4 0.3,-2.4 0.6,-2.7 0.9,-2.4 0.9,-2.4 1.2,-2.4 1.2,-2.1 1.2,-2.1 1.8,-2.1 1.5,-1.8 1.8,-1.5 2.1,-1.2 1.2,-0.6 1.2,-0.6 9.3,-3.3 9.3,-1.8 3,-3.9 -3.6,-2.4 v 0 l -1.2,0.3 -3.6,0.6 -4.8,1.2 -4.5,1.5 -4.2,1.5 -3,1.2 -2.7,1.2 -2.1,1.2 -1.8,1.2 -1.5,0.9 -0.3,0.3 -0.3,0.3 -3,2.7 -3,3 -2.7,3.3 -2.4,3.6 -2.1,3.9 -1.8,3.9 -0.9,3.9 -0.3,2.1 v 1.8 2.4 l 0.3,2.4 0.6,2.4 0.9,2.1 0.9,2.4 1.2,2.1 1.5,1.8 1.8,2.7 2.1,2.7 2.4,2.4 2.7,2.7 1.2,1.2 0.6,0.6 4.2,3.3 4.2,3 4.8,2.4 4.8,1.8 5.4,1.2 2.7,0.3 h 3 l 3,-3.6 z" /><path
         inkscape:connector-curvature="0"
         style="fill:#c0c0c0;fill-opacity:1;fill-rule:evenodd;stroke:#000000;stroke-width:1.19999993;stroke-linecap:round;stroke-linejoin:miter;stroke-miterlimit:10;stroke-dasharray:none;stroke-opacity:1"
         id="path2606"
         d="m 252.6,170.7 h 0.3 0.3 0.3 0.3 0.3 0.3 l 0.3,0.3 h 0.3 0.3 0.3 l 0.3,0.3 h 0.3 0.3 l 0.3,0.3 h 0.3 l 0.3,0.3 h 0.6 l 0.3,0.3 v 0 l 0.3,0.3 0.3,0.3 h 0.3 v 0.3 h 0.3 v 0.3 l 0.3,0.3 v 0 0.3 0 l 0.3,0.3 v 0.3 0 0.3 0.3 0.3 0 0.3 l -0.3,0.3 v 0 0.3 0 l -0.3,0.3 v 0.3 h -0.3 v 0.3 h -0.3 l -0.3,0.3 -0.3,0.3 v 0 l -0.3,0.3 h -0.6 l -0.3,0.3 h -0.3 l -0.3,0.3 h -0.3 -0.3 l -0.3,0.3 h -0.3 -0.3 -0.3 l -0.3,0.3 h -0.3 -0.3 -0.3 -0.3 -0.3 -0.3 v 0 h -0.6 -0.3 -0.3 -0.3 -0.3 -0.3 l -0.3,-0.3 h -0.3 -0.3 -0.3 l -0.3,-0.3 h -0.3 -0.3 l -0.3,-0.3 h -0.3 l -0.3,-0.3 h -0.6 l -0.3,-0.3 v 0 l -0.3,-0.3 -0.3,-0.3 h -0.3 V 177 h -0.3 v -0.3 l -0.3,-0.3 v 0 -0.3 0 l -0.3,-0.3 v -0.3 0 -0.3 -0.3 -0.3 0 -0.3 l 0.3,-0.3 v 0 -0.3 0 l 0.3,-0.3 v -0.3 h 0.3 v -0.3 h 0.3 l 0.3,-0.3 0.3,-0.3 v 0 l 0.3,-0.3 h 0.6 l 0.3,-0.3 h 0.3 l 0.3,-0.3 h 0.3 0.3 l 0.3,-0.3 h 0.3 0.3 0.3 l 0.3,-0.3 h 0.3 0.3 0.3 0.3 0.3 z" /><path
         inkscape:connector-curvature="0"
         style="fill:#c0c0c0;fill-opacity:1;fill-rule:evenodd;stroke:#000000;stroke-width:1.19999993;stroke-linecap:round;stroke-linejoin:miter;stroke-miterlimit:10;stroke-dasharray:none;stroke-opacity:1"
         id="path2608"
         d="m 252.6,98.7 h 0.3 0.3 0.3 0.3 0.3 0.3 l 0.3,0.3 h 0.3 0.3 0.3 l 0.3,0.3 h 0.3 0.3 l 0.3,0.3 h 0.3 l 0.3,0.3 h 0.6 l 0.3,0.3 v 0 l 0.3,0.3 0.3,0.3 h 0.3 v 0.3 h 0.3 v 0.3 l 0.3,0.3 v 0 0.3 0 l 0.3,0.3 v 0.3 0 0.3 0.3 0.3 0 0.3 l -0.3,0.3 v 0 0.3 0 l -0.3,0.3 v 0.3 h -0.3 v 0.3 h -0.3 l -0.3,0.3 -0.3,0.3 v 0 l -0.3,0.3 h -0.6 l -0.3,0.3 h -0.3 l -0.3,0.3 h -0.3 -0.3 l -0.3,0.3 h -0.3 -0.3 -0.3 l -0.3,0.3 h -0.3 -0.3 -0.3 -0.3 -0.3 -0.3 v 0 h -0.6 -0.3 -0.3 -0.3 -0.3 -0.3 l -0.3,-0.3 h -0.3 -0.3 -0.3 l -0.3,-0.3 h -0.3 -0.3 l -0.3,-0.3 h -0.3 l -0.3,-0.3 h -0.6 l -0.3,-0.3 v 0 l -0.3,-0.3 -0.3,-0.3 h -0.3 V 105 h -0.3 v -0.3 l -0.3,-0.3 v 0 -0.3 0 l -0.3,-0.3 v -0.3 0 -0.3 -0.3 -0.3 0 -0.3 l 0.3,-0.3 v 0 -0.3 0 l 0.3,-0.3 v -0.3 h 0.3 v -0.3 h 0.3 l 0.3,-0.3 0.3,-0.3 v 0 l 0.3,-0.3 h 0.6 l 0.3,-0.3 h 0.3 l 0.3,-0.3 h 0.3 0.3 l 0.3,-0.3 h 0.3 0.3 0.3 l 0.3,-0.3 h 0.3 0.3 0.3 0.3 0.3 z" /><path
         inkscape:connector-curvature="0"
         style="fill:#c0c0c0;fill-opacity:1;fill-rule:evenodd;stroke:#000000;stroke-width:1.19999993;stroke-linecap:round;stroke-linejoin:miter;stroke-miterlimit:10;stroke-dasharray:none;stroke-opacity:1"
         id="path2612"
         d="m 134.1,119.1 h 86.4 1.5 l 1.5,0.3 1.2,0.6 1.5,0.9 0.9,0.9 0.9,1.2 0.6,1.2 0.6,1.5 v 0.6 0.9 l 14.1,6.3 0.6,0.6 0.3,0.3 v 0.6 0.6 l -0.3,0.9 -0.6,2.1 v 0.9 0.3 l 0.3,1.2 0.6,3 v 0.9 l -0.3,0.6 -0.6,0.3 -14.1,5.4 v 1.5 l -0.3,1.2 -0.6,1.2 -0.9,0.9 -0.9,0.9 -0.9,0.9 -1.2,0.6 -1.2,0.6 -1.5,0.3 h -0.6 -0.6 -86.4 -1.8 l -1.5,-0.3 -1.2,-0.6 -1.2,-0.9 -1.2,-0.9 -0.9,-1.2 -0.6,-1.2 -0.3,-1.5 -0.3,-0.6 v -0.9 l -13.2,-5.4 -0.3,-0.3 -0.3,-0.6 -0.3,-0.3 v -0.9 l 0.3,-0.9 0.6,-2.1 v -0.6 -0.3 -1.5 l -0.6,-2.7 v -1.2 l 0.3,-0.3 0.3,-0.6 13.2,-6.3 0.3,-1.5 0.3,-1.2 0.3,-1.2 0.9,-0.9 0.9,-0.9 0.9,-0.9 1.2,-0.6 1.2,-0.6 1.5,-0.3 h 0.6 z" /></g><path
       d="m 234.9,135.9 v 0 h 0.3 0.3 0.3 l 0.3,0.3 h 0.3 v 0 l 0.3,0.3 h 0.3 l 0.3,0.3 h 0.3 l 0.3,0.3 0.3,0.3 v 0.3 l 0.3,0.3 v 0.3 l 0.3,0.3 v 0 0.3 l 0.3,0.3 v 0.3 0.3 0.3 0.3 0.3 0.3 0.3 l -0.3,0.3 v 0.3 0 l -0.3,0.3 v 0.3 l -0.3,0.3 v 0.3 l -0.3,0.3 -0.3,0.3 h -0.3 L 237,144 h -0.3 l -0.3,0.3 v 0 h -0.3 l -0.3,0.3 h -0.3 -0.3 -0.3 v 0 0 h -0.3 -0.3 -0.3 -0.3 l -0.3,-0.3 h -0.3 v 0 l -0.3,-0.3 h -0.3 l -0.3,-0.3 h -0.3 l -0.3,-0.3 -0.3,-0.3 v -0.3 l -0.3,-0.3 v -0.3 l -0.3,-0.3 v 0 -0.3 l -0.3,-0.3 v -0.3 -0.3 -0.3 -0.3 -0.3 -0.3 -0.3 l 0.3,-0.3 v -0.3 0 l 0.3,-0.3 V 138 l 0.3,-0.3 v -0.3 l 0.3,-0.3 0.3,-0.3 h 0.3 l 0.3,-0.3 h 0.3 l 0.3,-0.3 v 0 h 0.3 l 0.3,-0.3 h 0.3 0.3 0.3 z"
       id="path2622"
       style="fill:#c0c0c0;fill-opacity:1;fill-rule:evenodd;stroke:#000000;stroke-width:1.19999993;stroke-linecap:round;stroke-linejoin:miter;stroke-miterlimit:10;stroke-dasharray:none;stroke-opacity:1"
       inkscape:connector-curvature="0" /></g><text
     xml:space="preserve"
     style="font-style:normal;font-weight:normal;font-size:17.19348145px;line-height:1.25;font-family:sans-serif;letter-spacing:0px;word-spacing:0px;fill:#000000;fill-opacity:1;stroke:none;stroke-width:0.42983702"
     x="214.81009"
     y="555.39459"
     id="text1274"><tspan
       sodipodi:role="line"
       id="tspan1272"
       x="214.81009"
       y="555.39459"
       style="stroke-width:0.42983702">Acetic Acid</tspan></text>
<text
     id="text1373"
     y="87.394592"
     x="300.81009"
     style="font-style:normal;font-weight:normal;font-size:17.19348145px;line-height:1.25;font-family:sans-serif;letter-spacing:0px;word-spacing:0px;fill:#000000;fill-opacity:1;stroke:none;stroke-width:0.42983702"
     xml:space="preserve"><tspan
       style="stroke-width:0.42983702"
       y="87.394592"
       x="300.81009"
       id="tspan1371"
       sodipodi:role="line">NaOH</tspan></text>
<path
     style="fill:none;stroke:#000000;stroke-width:1px;stroke-linecap:butt;stroke-linejoin:miter;stroke-opacity:1;marker-end:url(#Arrow1Lend)"
     d="M 300.43712,84.081352 H 274.81858"
     id="path1462"
     inkscape:connector-curvature="0" /></svg>