<?xml version="1.0" encoding="UTF-8" standalone="no"?>
<svg
   xmlns:dc="http://purl.org/dc/elements/1.1/"
   xmlns:cc="http://creativecommons.org/ns#"
   xmlns:rdf="http://www.w3.org/1999/02/22-rdf-syntax-ns#"
   xmlns:svg="http://www.w3.org/2000/svg"
   xmlns="http://www.w3.org/2000/svg"
   viewBox="0 0 241.25 50"
   height="50"
   width="241.25"
   xml:space="preserve"
   version="1.1"
   id="svg2"><metadata
     id="metadata8"><rdf:RDF><cc:Work
         rdf:about=""><dc:format>image/svg+xml</dc:format><dc:type
           rdf:resource="http://purl.org/dc/dcmitype/StillImage" /><dc:title></dc:title></cc:Work></rdf:RDF></metadata><defs
     id="defs6"><clipPath
       id="clipPath18"
       clipPathUnits="userSpaceOnUse"><path
         id="path20"
         d="m 0,0.109375 1930,0 0,389.999995 -1930,0 L 0,0.109375 Z" /></clipPath></defs><g
     transform="matrix(1.25,0,0,-1.25,0,50)"
     id="g10"><g
       transform="translate(-5.411215,-44.715888)"
       id="g5121"><path
         id="path22"
         style="fill:none;stroke:#000000;stroke-width:0.75;stroke-linecap:butt;stroke-linejoin:miter;stroke-miterlimit:10;stroke-dasharray:none;stroke-opacity:1"
         d="m 96.391,28.4949 -33,0" /><path
         id="path24"
         style="fill:#000000;fill-opacity:1;fill-rule:nonzero;stroke:none"
         d="m 63.391,28.1199 1.5,-3 -6,3.75 4.5,0 0,-0.75 z" /><path
         id="path26"
         style="fill:none;stroke:#000000;stroke-width:0.75;stroke-linecap:butt;stroke-linejoin:miter;stroke-miterlimit:10;stroke-dasharray:none;stroke-opacity:1"
         d="m 58.891,32.2449 33,0" /><path
         id="path28"
         style="fill:#000000;fill-opacity:1;fill-rule:nonzero;stroke:none"
         d="m 91.891,32.6199 -1.5,3 6,-3.75 -4.5,0 0,0.75 z" /><path
         id="path30"
         style="fill:#000000;fill-opacity:1;fill-rule:nonzero;stroke:none"
         d="m 16.2031,25.4012 0,11.4527 1.516,0 0,-4.7027 5.9528,0 0,4.7027 1.516,0 0,-11.4527 -1.516,0 0,5.4066 -5.9528,0 0,-5.4066 -1.516,0 z m 10.25,0 4.4059,11.4527 1.641,0 4.6879,-11.4527 -1.7348,0 -1.3281,3.4687 -4.7969,0 -1.25,-3.4687 -1.625,0 z m 3.3129,4.7027 3.8899,0 -1.2028,3.1723 c -0.3672,0.9687 -0.6371,1.7578 -0.8121,2.375 -0.1488,-0.7301 -0.3519,-1.4614 -0.6101,-2.1871 L 29.766,30.1039 Z" /><path
         id="path32"
         style="fill:#000000;fill-opacity:1;fill-rule:nonzero;stroke:none"
         d="m 108.801,25.4012 0,11.4527 1.515,0 0,-4.7027 5.954,0 0,4.7027 1.515,0 0,-11.4527 -1.515,0 0,5.4066 -5.954,0 0,-5.4066 -1.515,0 z" /><path
         id="path34"
         style="fill:#000000;fill-opacity:1;fill-rule:nonzero;stroke:none"
         d="m 121.66,34.073 0,2.1719 -2.14,0 0,0.891 2.14,0 0,2.1563 0.922,0 0,-2.1563 2.141,0 0,-0.891 -2.141,0 0,-2.1719 -0.922,0 z" /><path
         id="path36"
         style="fill:#000000;fill-opacity:1;fill-rule:nonzero;stroke:none"
         d="m 134.07,27.6281 0,3.1399 -3.125,0 0,1.3129 3.125,0 0,3.1089 1.328,0 0,-3.1089 3.11,0 0,-1.3129 -3.11,0 0,-3.1399 -1.328,0 z" /><path
         id="path38"
         style="fill:#000000;fill-opacity:1;fill-rule:nonzero;stroke:none"
         d="m 159.941,25.4012 4.407,11.4527 1.64,0 4.688,-11.4527 -1.735,0 -1.328,3.4687 -4.797,0 -1.25,-3.4687 -1.625,0 z m 3.313,4.7027 3.891,0 -1.204,3.1723 c -0.367,0.9687 -0.636,1.7578 -0.812,2.375 -0.149,-0.7301 -0.352,-1.4614 -0.609,-2.1871 l -1.266,-3.3602 z" /><path
         id="path40"
         style="fill:#000000;fill-opacity:1;fill-rule:nonzero;stroke:none"
         d="m 173.039,34.952 3.25,0 0,1.06289 -3.25,0 0,-1.06289 z" /><path
         id="path42"
         style="fill:#000000;fill-opacity:1;fill-rule:nonzero;stroke:none"
         d="m 16.1559,13.6859 c -0.4918,0.618 -0.902,1.336 -1.234,2.1571 -0.336,0.8199 -0.5,1.6718 -0.5,2.5468 0,0.7692 0.125,1.5071 0.375,2.218 0.289,0.832 0.7422,1.657 1.359,2.4692 l 0.625,0 C 16.3828,22.3969 16.125,21.9129 16,21.6238 15.8012,21.175 15.6449,20.7059 15.5309,20.218 c -0.136,-0.6059 -0.2028,-1.2149 -0.2028,-1.8282 0,-1.575 0.484,-3.141 1.4528,-4.7039 l -0.625,0 z m 4.9101,2.75 c -0.3238,-0.2808 -0.6359,-0.48 -0.9371,-0.5929 -0.3051,-0.1141 -0.625,-0.1719 -0.9687,-0.1719 -0.5743,0 -1.0153,0.1398 -1.3282,0.4219 -0.305,0.2808 -0.4531,0.6398 -0.4531,1.0781 0,0.25 0.0551,0.4758 0.1723,0.6867 0.1129,0.207 0.2648,0.375 0.4527,0.5 0.1871,0.1332 0.3981,0.2352 0.641,0.2973 0.1641,0.039 0.425,0.082 0.7813,0.125 0.7066,0.082 1.2258,0.1879 1.5617,0.3129 0,0.1129 0,0.1871 0,0.2179 0,0.3641 -0.0859,0.618 -0.25,0.7661 -0.218,0.1949 -0.5539,0.2968 -1,0.2968 -0.4059,0 -0.7109,-0.0738 -0.9059,-0.2187 -0.1992,-0.1481 -0.3441,-0.402 -0.4371,-0.7653 l -0.8597,0.109 c 0.0699,0.375 0.1949,0.6723 0.375,0.891 0.1878,0.2262 0.4449,0.3981 0.7808,0.5153 0.3442,0.125 0.7391,0.1879 1.1879,0.1879 0.4371,0 0.7891,-0.0551 1.0621,-0.1571 0.282,-0.105 0.4852,-0.2339 0.6102,-0.3898 0.1328,-0.1563 0.2258,-0.3563 0.2808,-0.5941 0.0309,-0.1481 0.0469,-0.418 0.0469,-0.8122 l 0,-1.1718 c 0,-0.8129 0.016,-1.3282 0.0473,-1.5469 0.0386,-0.2191 0.1168,-0.4301 0.234,-0.625 l -0.9223,0 c -0.093,0.1867 -0.152,0.398 -0.1719,0.6398 z m -0.0781,1.9692 C 20.6641,18.268 20.184,18.1551 19.5512,18.0609 19.1949,18.007 18.941,17.952 18.7852,17.8898 18.6371,17.827 18.523,17.7328 18.441,17.6078 c -0.0859,-0.125 -0.125,-0.2648 -0.125,-0.4219 0,-0.23 0.086,-0.4211 0.266,-0.5781 0.1758,-0.1558 0.4379,-0.234 0.7809,-0.234 0.3441,0 0.6449,0.0703 0.907,0.2192 0.2571,0.1441 0.4531,0.3468 0.5781,0.609 0.093,0.1949 0.1399,0.4878 0.1399,0.875 l 0,0.3281 z m 5.4223,-0.7031 0.8597,-0.125 c -0.0937,-0.5942 -0.3398,-1.0622 -0.7347,-1.4059 -0.3872,-0.3359 -0.859,-0.5 -1.4223,-0.5 -0.7109,0 -1.2809,0.234 -1.718,0.7027 -0.4301,0.4692 -0.641,1.1332 -0.641,2 0,0.5512 0.0941,1.0352 0.2813,1.4532 0.1878,0.4261 0.4687,0.7421 0.8437,0.9531 0.375,0.207 0.7852,0.3129 1.234,0.3129 0.5633,0 1.0199,-0.141 1.375,-0.4219 0.3641,-0.2813 0.598,-0.6883 0.7031,-1.2191 l -0.859,-0.125 c -0.0859,0.3441 -0.23,0.6019 -0.4371,0.7808 -0.2,0.1762 -0.45,0.266 -0.75,0.266 -0.4379,0 -0.7969,-0.1636 -1.0789,-0.484 -0.273,-0.3128 -0.4058,-0.8128 -0.4058,-1.5 0,-0.7 0.1289,-1.2039 0.391,-1.516 0.2687,-0.3129 0.6168,-0.4687 1.0468,-0.4687 0.343,0 0.629,0.1019 0.859,0.3129 0.2379,0.207 0.391,0.5351 0.4532,0.984 z m 1.4257,4.2339 0,1.0161 0.875,0 0,-1.0161 -0.875,0 z m 0,-6.1398 0,5.1867 0.875,0 0,-5.1867 -0.875,0 z m 5.4961,0 0,0.6559 c -0.3359,-0.5231 -0.8199,-0.7809 -1.4531,-0.7809 -0.418,0 -0.8051,0.1168 -1.1559,0.3437 -0.3441,0.2262 -0.6101,0.5461 -0.7968,0.9532 -0.1883,0.414 -0.2813,0.8898 -0.2813,1.4218 0,0.5071 0.0821,0.9723 0.25,1.3903 0.175,0.4258 0.4371,0.75 0.7813,0.9687 0.3437,0.2274 0.7258,0.3442 1.1558,0.3442 0.3129,0 0.586,-0.0711 0.8282,-0.2032 0.25,-0.125 0.4527,-0.2929 0.6097,-0.5 l 0,2.5622 0.875,0 0,-7.1559 -0.8129,0 z m -2.7808,2.5937 c 0,-0.6679 0.1328,-1.1679 0.4058,-1.5 0.2809,-0.325 0.6129,-0.4847 1,-0.4847 0.3828,0 0.7071,0.1558 0.9692,0.4687 0.2687,0.3121 0.4058,0.7891 0.4058,1.4371 0,0.7071 -0.1371,1.227 -0.4058,1.5629 -0.2742,0.3321 -0.6063,0.5 -1,0.5 -0.3992,0 -0.7274,-0.1636 -0.9852,-0.484 -0.2609,-0.3128 -0.3898,-0.8128 -0.3898,-1.5 z m 5.3277,-4.7039 -0.625,0 c 0.9691,1.5629 1.4531,3.1289 1.4531,4.7039 0,0.6012 -0.0699,1.2071 -0.2031,1.8122 -0.1168,0.4878 -0.2738,0.957 -0.4687,1.4058 -0.125,0.2891 -0.3872,0.782 -0.7813,1.4692 l 0.625,0 c 0.6133,-0.8122 1.066,-1.6372 1.359,-2.4692 0.25,-0.7109 0.375,-1.4488 0.375,-2.218 0,-0.875 -0.1719,-1.7269 -0.5149,-2.5468 -0.3359,-0.8211 -0.7429,-1.5391 -1.2191,-2.1571 z" /><path
         id="path44"
         style="fill:#000000;fill-opacity:1;fill-rule:nonzero;stroke:none"
         d="m 141.758,14.0539 c -0.492,0.6172 -0.903,1.3359 -1.235,2.1563 -0.335,0.8199 -0.5,1.6718 -0.5,2.5468 0,0.7692 0.125,1.5078 0.375,2.2192 0.29,0.8316 0.743,1.6558 1.36,2.4679 l 0.625,0 c -0.399,-0.6793 -0.656,-1.164 -0.781,-1.4531 -0.2,-0.4488 -0.356,-0.918 -0.469,-1.4058 -0.137,-0.6063 -0.203,-1.2153 -0.203,-1.8282 0,-1.5742 0.484,-3.141 1.453,-4.7031 l -0.625,0 z m 1.176,3.6563 0.859,0.141 c 0.051,-0.3563 0.187,-0.625 0.406,-0.8133 0.227,-0.1801 0.539,-0.266 0.938,-0.266 0.406,0 0.707,0.0793 0.906,0.2351 0.195,0.1641 0.297,0.3629 0.297,0.5942 0,0.1949 -0.09,0.3508 -0.266,0.4679 -0.125,0.0707 -0.429,0.1719 -0.906,0.2969 -0.637,0.1559 -1.078,0.2891 -1.328,0.4059 -0.25,0.125 -0.445,0.289 -0.578,0.5 -0.125,0.207 -0.188,0.4422 -0.188,0.7043 0,0.2258 0.051,0.441 0.156,0.6398 0.102,0.1949 0.25,0.3602 0.438,0.4852 0.133,0.1008 0.316,0.1867 0.547,0.25 0.238,0.0699 0.492,0.109 0.765,0.109 0.407,0 0.758,-0.059 1.063,-0.1723 0.312,-0.1168 0.539,-0.277 0.687,-0.484 0.157,-0.2 0.258,-0.4648 0.313,-0.7969 l -0.859,-0.1101 c -0.043,0.2582 -0.157,0.4609 -0.344,0.6101 -0.188,0.1559 -0.453,0.234 -0.797,0.234 -0.398,0 -0.684,-0.0699 -0.859,-0.2031 -0.18,-0.125 -0.266,-0.2809 -0.266,-0.4688 0,-0.1171 0.035,-0.2152 0.109,-0.2972 0.071,-0.093 0.188,-0.1707 0.344,-0.234 0.082,-0.0309 0.344,-0.109 0.781,-0.234 0.614,-0.168 1.039,-0.3051 1.282,-0.407 0.25,-0.1047 0.441,-0.261 0.578,-0.468 0.144,-0.2 0.218,-0.4461 0.218,-0.7348 0,-0.3043 -0.085,-0.5863 -0.25,-0.8429 -0.168,-0.25 -0.414,-0.45 -0.734,-0.5942 -0.324,-0.1449 -0.687,-0.2191 -1.094,-0.2191 -0.679,0 -1.195,0.141 -1.547,0.4223 -0.355,0.2808 -0.578,0.6949 -0.671,1.25 z m 8.535,-0.9063 c -0.324,-0.282 -0.637,-0.4809 -0.938,-0.5937 -0.304,-0.1133 -0.625,-0.1723 -0.969,-0.1723 -0.574,0 -1.015,0.141 -1.328,0.4223 -0.304,0.2808 -0.453,0.641 -0.453,1.0777 0,0.25 0.055,0.4769 0.172,0.6883 0.113,0.2066 0.266,0.375 0.453,0.5 0.188,0.1316 0.399,0.234 0.641,0.2957 0.164,0.039 0.426,0.082 0.781,0.125 0.707,0.082 1.227,0.1883 1.563,0.3133 0,0.1128 0,0.1867 0,0.2187 0,0.3633 -0.086,0.6172 -0.25,0.7652 -0.219,0.1957 -0.555,0.2969 -1,0.2969 -0.407,0 -0.711,-0.0738 -0.907,-0.2191 -0.199,-0.1481 -0.343,-0.402 -0.437,-0.7649 l -0.859,0.109 c 0.07,0.375 0.195,0.6719 0.374,0.891 0.188,0.2258 0.446,0.3981 0.782,0.5149 0.344,0.125 0.738,0.1883 1.187,0.1883 0.438,0 0.789,-0.0551 1.063,-0.1563 0.281,-0.1059 0.484,-0.2348 0.609,-0.391 0.133,-0.1559 0.227,-0.3551 0.281,-0.5938 0.032,-0.148 0.047,-0.4179 0.047,-0.8121 l 0,-1.1718 c 0,-0.8133 0.016,-1.3282 0.047,-1.5473 0.039,-0.2188 0.117,-0.4301 0.234,-0.625 l -0.921,0 c -0.094,0.1883 -0.153,0.398 -0.172,0.641 z m -0.078,1.968 c -0.325,-0.136 -0.805,-0.25 -1.438,-0.343 -0.355,-0.0551 -0.609,-0.1098 -0.765,-0.1719 -0.149,-0.0629 -0.262,-0.1558 -0.344,-0.2808 -0.086,-0.125 -0.125,-0.266 -0.125,-0.4223 0,-0.2309 0.086,-0.4219 0.265,-0.5777 0.176,-0.1571 0.438,-0.2352 0.782,-0.2352 0.343,0 0.644,0.0699 0.906,0.2192 0.258,0.1437 0.453,0.3476 0.578,0.6089 0.094,0.1957 0.141,0.4887 0.141,0.875 l 0,0.3278 z m 2.015,-2.609 0,7.1562 0.875,0 0,-7.1562 -0.875,0 z m 4.074,0.7812 0.125,-0.7652 c -0.25,-0.0508 -0.468,-0.0777 -0.656,-0.0777 -0.324,0 -0.574,0.0457 -0.75,0.1398 -0.179,0.102 -0.304,0.2379 -0.375,0.4059 -0.062,0.164 -0.094,0.5082 -0.094,1.032 l 0,2.984 -0.656,0 0,0.6883 0.656,0 0,1.2808 0.86,0.5309 0,-1.8117 0.89,0 0,-0.6883 -0.89,0 0,-3.0309 c 0,-0.25 0.015,-0.414 0.047,-0.4851 0.031,-0.0739 0.082,-0.1321 0.156,-0.1707 0.07,-0.0434 0.172,-0.0633 0.297,-0.0633 0.101,0 0.234,0.0082 0.39,0.0312 z m 3.075,1.8129 c 0,0.9571 0.269,1.6719 0.812,2.1399 0.438,0.375 0.977,0.5633 1.625,0.5633 0.707,0 1.285,-0.234 1.735,-0.7032 0.457,-0.4609 0.687,-1.1019 0.687,-1.9218 0,-0.668 -0.102,-1.1954 -0.297,-1.5782 -0.199,-0.3871 -0.492,-0.6879 -0.875,-0.9058 -0.387,-0.2082 -0.804,-0.3133 -1.25,-0.3133 -0.73,0 -1.32,0.234 -1.765,0.7031 -0.45,0.4692 -0.672,1.141 -0.672,2.016 z m 0.906,0 c 0,-0.6679 0.144,-1.1679 0.437,-1.5 0.29,-0.3242 0.657,-0.4851 1.094,-0.4851 0.438,0 0.797,0.164 1.078,0.5 0.289,0.332 0.438,0.8359 0.438,1.516 0,0.6332 -0.149,1.1172 -0.438,1.4531 -0.293,0.332 -0.652,0.5 -1.078,0.5 -0.437,0 -0.804,-0.168 -1.094,-0.5 -0.293,-0.3238 -0.437,-0.8199 -0.437,-1.484 z m 4.984,-2.5941 0,4.5 -0.781,0 0,0.6883 0.781,0 0,0.5457 c 0,0.3519 0.032,0.614 0.094,0.782 0.082,0.2262 0.227,0.4102 0.438,0.5473 0.218,0.1437 0.519,0.2179 0.906,0.2179 0.238,0 0.508,-0.0312 0.812,-0.0929 l -0.125,-0.766 c -0.187,0.0308 -0.367,0.0468 -0.531,0.0468 -0.262,0 -0.449,-0.059 -0.562,-0.1718 -0.106,-0.1063 -0.157,-0.3133 -0.157,-0.625 l 0,-0.484 1,0 0,-0.6883 -1,0 0,-4.5 -0.875,0 z m 8.496,0.641 c -0.324,-0.282 -0.636,-0.4809 -0.937,-0.5937 -0.305,-0.1133 -0.625,-0.1723 -0.969,-0.1723 -0.574,0 -1.015,0.141 -1.328,0.4223 -0.305,0.2808 -0.453,0.641 -0.453,1.0777 0,0.25 0.055,0.4769 0.172,0.6883 0.113,0.2066 0.265,0.375 0.453,0.5 0.187,0.1316 0.398,0.234 0.641,0.2957 0.164,0.039 0.425,0.082 0.781,0.125 0.707,0.082 1.226,0.1883 1.562,0.3133 0,0.1128 0,0.1867 0,0.2187 0,0.3633 -0.086,0.6172 -0.25,0.7652 -0.218,0.1957 -0.554,0.2969 -1,0.2969 -0.406,0 -0.711,-0.0738 -0.906,-0.2191 -0.199,-0.1481 -0.344,-0.402 -0.437,-0.7649 l -0.86,0.109 c 0.07,0.375 0.195,0.6719 0.375,0.891 0.188,0.2258 0.445,0.3981 0.781,0.5149 0.344,0.125 0.739,0.1883 1.188,0.1883 0.437,0 0.789,-0.0551 1.062,-0.1563 0.282,-0.1059 0.485,-0.2348 0.61,-0.391 0.133,-0.1559 0.226,-0.3551 0.281,-0.5938 0.031,-0.148 0.047,-0.4179 0.047,-0.8121 l 0,-1.1718 c 0,-0.8133 0.016,-1.3282 0.047,-1.5473 0.039,-0.2188 0.117,-0.4301 0.234,-0.625 l -0.922,0 c -0.093,0.1883 -0.152,0.398 -0.172,0.641 z m -0.078,1.968 c -0.324,-0.136 -0.804,-0.25 -1.437,-0.343 -0.356,-0.0551 -0.61,-0.1098 -0.766,-0.1719 -0.148,-0.0629 -0.262,-0.1558 -0.344,-0.2808 -0.086,-0.125 -0.125,-0.266 -0.125,-0.4223 0,-0.2309 0.086,-0.4219 0.266,-0.5777 0.176,-0.1571 0.438,-0.2352 0.781,-0.2352 0.344,0 0.645,0.0699 0.907,0.2192 0.257,0.1437 0.453,0.3476 0.578,0.6089 0.093,0.1957 0.14,0.4887 0.14,0.875 l 0,0.3278 z m 5.422,-0.7028 0.86,-0.125 c -0.094,-0.5929 -0.34,-1.0621 -0.735,-1.4062 -0.387,-0.3359 -0.859,-0.5 -1.422,-0.5 -0.711,0 -1.281,0.234 -1.718,0.7031 -0.43,0.4692 -0.641,1.1328 -0.641,2 0,0.5512 0.094,1.0352 0.281,1.4531 0.188,0.4258 0.469,0.7418 0.844,0.9528 0.375,0.207 0.785,0.3133 1.234,0.3133 0.563,0 1.02,-0.1411 1.375,-0.4223 0.364,-0.2809 0.598,-0.6867 0.703,-1.2188 l -0.859,-0.125 c -0.086,0.3438 -0.23,0.602 -0.437,0.7821 -0.2,0.175 -0.45,0.2648 -0.75,0.2648 -0.438,0 -0.797,-0.164 -1.079,-0.484 -0.273,-0.3129 -0.406,-0.8129 -0.406,-1.5 0,-0.6992 0.129,-1.2031 0.391,-1.516 0.269,-0.3121 0.617,-0.4691 1.047,-0.4691 0.343,0 0.629,0.1019 0.859,0.3133 0.238,0.207 0.391,0.5347 0.453,0.9839 z m 1.426,4.2348 0,1.0152 0.875,0 0,-1.0152 -0.875,0 z m 0,-6.141 0,5.1883 0.875,0 0,-5.1883 -0.875,0 z m 5.496,0 0,0.6562 c -0.336,-0.523 -0.82,-0.7812 -1.453,-0.7812 -0.418,0 -0.805,0.1172 -1.156,0.3441 -0.344,0.2258 -0.61,0.5469 -0.797,0.9532 -0.188,0.4136 -0.281,0.891 -0.281,1.4218 0,0.5078 0.082,0.9719 0.25,1.3899 0.175,0.4261 0.437,0.75 0.781,0.9691 0.344,0.227 0.726,0.3442 1.156,0.3442 0.313,0 0.586,-0.0704 0.828,-0.2032 0.25,-0.125 0.453,-0.2929 0.61,-0.5 l 0,2.5621 0.875,0 0,-7.1562 -0.813,0 z m -2.781,2.5941 c 0,-0.6679 0.133,-1.1679 0.406,-1.5 0.281,-0.3242 0.613,-0.4851 1,-0.4851 0.383,0 0.707,0.157 0.969,0.4691 0.269,0.3129 0.406,0.7891 0.406,1.4379 0,0.707 -0.137,1.2262 -0.406,1.5621 -0.274,0.332 -0.606,0.5 -1,0.5 -0.399,0 -0.727,-0.164 -0.985,-0.484 -0.261,-0.3129 -0.39,-0.8129 -0.39,-1.5 z m 5.328,-4.7031 -0.625,0 c 0.969,1.5621 1.453,3.1289 1.453,4.7031 0,0.6008 -0.07,1.2071 -0.203,1.8121 -0.117,0.4887 -0.274,0.9571 -0.469,1.4071 -0.125,0.2886 -0.387,0.7808 -0.781,1.4679 l 0.625,0 c 0.613,-0.8121 1.066,-1.6363 1.359,-2.4679 0.25,-0.7114 0.375,-1.45 0.375,-2.2192 0,-0.875 -0.172,-1.7269 -0.515,-2.5468 -0.336,-0.8204 -0.743,-1.5391 -1.219,-2.1563 z" /></g><g
       transform="translate(-8.4174455,96.199372)"
       id="g5019"><path
         id="path58"
         style="fill:#000000;fill-opacity:1;fill-rule:nonzero;stroke:none"
         d="m 122.273,-19.08594 0,1.96874 -1.937,0 0,0.8121 1.937,0 0,1.9531 0.829,0 0,-1.9531 1.953,0 0,-0.8121 -1.953,0 0,-1.96874 -0.829,0 z" /><g
         id="g5008"
         transform="translate(0,-27.2)"><path
           d="m 0.0230469,1.33906 0,9.31214 1.2191431,0 0,-3.82815 4.84375,0 0,3.82815 1.23398,0 0,-9.31214 -1.23398,0 0,4.38985 -4.84375,0 0,-4.38985 -1.2191431,0 z m 8.1878931,0 3.57816,9.31214 1.3129,0 3.8121,-9.31214 -1.4063,0 -1.0777,2.81211 -3.891,0 -1.03129,-2.81211 -1.29687,0 z m 2.68706,3.82813 3.1571,0 -0.9852,2.57773 C 12.777,8.52617 12.559,9.16719 12.4141,9.66719 12.2969,9.07305 12.1328,8.47891 11.9141,7.88594 L 10.898,5.16719 Z M 22.023,3.80781 23.148,3.66719 C 23.0309,2.88594 22.7191,2.27617 22.2109,1.83906 21.6988,1.40117 21.0781,1.18281 20.352,1.18281 c -0.9301,0 -1.6719,0.3 -2.2348,0.90625 -0.5551,0.60078 -0.8281,1.46875 -0.8281,2.59375 0,0.72617 0.1168,1.36328 0.3589,1.90625 0.2391,0.55078 0.602,0.96094 1.0942,1.23399 0.4879,0.26992 1.0238,0.40586 1.6098,0.40586 0.7261,0 1.3281,-0.18672 1.796,-0.56172 C 22.6172,7.3 22.9141,6.78008 23.0391,6.10391 l -1.109,-0.1711 c -0.1063,0.44532 -0.293,0.78516 -0.5629,1.01524 -0.2621,0.22695 -0.5863,0.34414 -0.9692,0.34414 -0.5742,0 -1.0429,-0.21133 -1.4058,-0.625 -0.3551,-0.40625 -0.5313,-1.05938 -0.5313,-1.95313 0,-0.90625 0.1719,-1.57109 0.5161,-1.98515 0.3429,-0.40586 0.796,-0.60899 1.3589,-0.60899 0.445,0 0.82,0.13321 1.125,0.40625 0.3012,0.28164 0.4879,0.70664 0.5621,1.28164 z M 28.6449,3.51094 29.832,3.36992 c -0.1871,-0.69883 -0.539,-1.24179 -1.0468,-1.625 -0.5,-0.375 -1.1403,-0.56211 -1.9223,-0.56211 -0.9918,0 -1.777,0.3 -2.359,0.90625 -0.5738,0.61289 -0.859,1.46875 -0.859,2.56211 0,1.13281 0.2891,2.01602 0.875,2.64102 0.593,0.625 1.3512,0.93672 2.2813,0.93672 0.9058,0 1.6398,-0.30782 2.2027,-0.9211 0.5699,-0.61797 0.859,-1.47695 0.859,-2.5789 0,-0.07383 0,-0.17891 0,-0.31172 l -5.0309,0 c 0.0391,-0.74219 0.25,-1.30938 0.625,-1.70313 0.375,-0.39922 0.8442,-0.59414 1.4059,-0.59414 0.4262,0 0.7851,0.10899 1.0781,0.32813 0.3012,0.22695 0.536,0.58203 0.7039,1.06289 z m -3.75,1.84297 3.7653,0 c -0.0551,0.57109 -0.1993,1 -0.4372,1.28203 -0.3679,0.43711 -0.8359,0.65625 -1.407,0.65625 -0.5308,0 -0.9762,-0.18008 -1.3281,-0.53125 C 25.1328,6.41719 24.934,5.94805 24.8949,5.35391 Z m 8.7653,-3 0.1558,-1 C 33.4922,1.28398 33.207,1.24492 32.957,1.24492 c -0.4179,0 -0.7422,0.06992 -0.9691,0.20313 -0.2301,0.13281 -0.3899,0.30508 -0.484,0.51601 -0.0937,0.21875 -0.141,0.66407 -0.141,1.34375 l 0,3.89024 -0.8277,0 0,0.875 0.8277,0 0,1.67187 1.141,0.68788 0,-2.35975 1.1563,0 0,-0.875 -1.1563,0 0,-3.95313 c 0,-0.32383 0.0191,-0.53086 0.0621,-0.625 0.0391,-0.09375 0.102,-0.16797 0.1879,-0.21875 0.0941,-0.05429 0.2231,-0.07812 0.391,-0.07812 0.1321,0 0.3039,0.00781 0.5153,0.03086 z M 39.102,2.16719 C 38.684,1.81094 38.277,1.55781 37.8828,1.40117 37.4961,1.25703 37.0781,1.18281 36.6328,1.18281 c -0.75,0 -1.3238,0.1793 -1.7187,0.5461 -0.3981,0.36406 -0.5942,0.8289 -0.5942,1.39101 0,0.31992 0.0711,0.61719 0.2192,0.89102 0.1558,0.28125 0.3519,0.5039 0.5937,0.67187 0.25,0.16407 0.5231,0.28907 0.8281,0.375 0.2192,0.05 0.5551,0.10938 1.0161,0.1711 0.914,0.10195 1.5929,0.23515 2.0308,0.39101 0.0082,0.15625 0.0152,0.25391 0.0152,0.29727 0,0.46875 -0.1089,0.79687 -0.3281,0.98398 -0.2929,0.25781 -0.7258,0.39102 -1.2969,0.39102 -0.5429,0 -0.9449,-0.09414 -1.2031,-0.28125 -0.25,-0.18789 -0.4371,-0.52383 -0.5621,-1 L 34.523,6.15117 c 0.0942,0.47696 0.254,0.86367 0.4848,1.15664 0.2383,0.3 0.5781,0.53125 1.0152,0.68711 0.4461,0.15625 0.9571,0.23399 1.5321,0.23399 0.582,0 1.05,-0.06993 1.4058,-0.20274 0.3629,-0.13633 0.6289,-0.3082 0.7969,-0.51523 0.1641,-0.2 0.2852,-0.45313 0.3594,-0.76602 0.0308,-0.19883 0.0469,-0.55508 0.0469,-1.06211 l 0,-1.51562 c 0,-1.06328 0.0238,-1.73438 0.0781,-2.01602 0.0508,-0.28125 0.1449,-0.55429 0.2808,-0.81211 l -1.1871,0 C 39.2191,1.57695 39.141,1.85391 39.102,2.16719 Z M 39.0078,4.72891 C 38.5898,4.55 37.9691,4.40508 37.148,4.29219 36.6801,4.21797 36.3441,4.13984 36.148,4.05781 35.9488,3.97188 35.7969,3.84688 35.6949,3.68281 35.5898,3.52617 35.5391,3.34688 35.5391,3.15117 c 0,-0.30429 0.1129,-0.5582 0.3437,-0.76523 0.2262,-0.2 0.566,-0.29688 1.0152,-0.29688 0.4379,0 0.829,0.09375 1.1719,0.28086 0.3442,0.19492 0.5981,0.46094 0.766,0.79727 0.1129,0.25 0.1719,0.6289 0.1719,1.14062 l 0,0.4211 z m 5.3281,-2.375 0.1563,-1 C 44.168,1.28398 43.8828,1.24492 43.6328,1.24492 c -0.418,0 -0.7418,0.06992 -0.9687,0.20313 -0.2301,0.13281 -0.3911,0.30508 -0.484,0.51601 -0.0942,0.21875 -0.141,0.66407 -0.141,1.34375 l 0,3.89024 -0.8282,0 0,0.875 0.8282,0 0,1.67187 1.141,0.68788 0,-2.35975 1.1558,0 0,-0.875 -1.1558,0 0,-3.95313 c 0,-0.32383 0.0187,-0.53086 0.0621,-0.625 0.0387,-0.09375 0.1019,-0.16797 0.1879,-0.21875 0.0929,-0.05429 0.2219,-0.07812 0.3898,-0.07812 0.1332,0 0.3051,0.00781 0.516,0.03086 z m 5.6563,1.15703 1.1879,-0.14102 c -0.1879,-0.69883 -0.5391,-1.24179 -1.0473,-1.625 -0.5,-0.375 -1.1406,-0.56211 -1.9219,-0.56211 -0.9918,0 -1.7769,0.3 -2.3589,0.90625 -0.575,0.61289 -0.8598,1.46875 -0.8598,2.56211 0,1.13281 0.2887,2.01602 0.875,2.64102 0.5937,0.625 1.3519,0.93672 2.2808,0.93672 0.9071,0 1.6411,-0.30782 2.204,-0.9211 0.5699,-0.61797 0.8589,-1.47695 0.8589,-2.5789 0,-0.07383 0,-0.17891 0,-0.31172 l -5.0308,0 c 0.039,-0.74219 0.25,-1.30938 0.625,-1.70313 0.375,-0.39922 0.8429,-0.59414 1.4058,-0.59414 0.4262,0 0.7852,0.10899 1.0782,0.32813 0.3007,0.22695 0.5347,0.58203 0.7031,1.06289 z m -3.75,1.84297 3.7656,0 c -0.0547,0.57109 -0.1988,1 -0.4379,1.28203 -0.3668,0.43711 -0.8359,0.65625 -1.4058,0.65625 -0.5313,0 -0.9762,-0.18008 -1.3282,-0.53125 -0.3558,-0.34375 -0.555,-0.81289 -0.5937,-1.40703 z"
           style="fill:#000000;fill-opacity:1;fill-rule:nonzero;stroke:none"
           id="path46" /><path
           d="m 96.391,6.09297 -33,0"
           style="fill:none;stroke:#000000;stroke-width:0.75;stroke-linecap:butt;stroke-linejoin:miter;stroke-miterlimit:10;stroke-dasharray:none;stroke-opacity:1"
           id="path48" /><path
           d="m 63.391,5.71797 1.5,-3 -6,3.75 4.5,0 0,-0.75 z"
           style="fill:#000000;fill-opacity:1;fill-rule:nonzero;stroke:none"
           id="path50" /><path
           d="m 58.891,9.84297 33,0"
           style="fill:none;stroke:#000000;stroke-width:0.75;stroke-linecap:butt;stroke-linejoin:miter;stroke-miterlimit:10;stroke-dasharray:none;stroke-opacity:1"
           id="path52" /><path
           d="m 91.891,10.218 -1.5,3 6,-3.75003 -4.5,0 0,0.75003 z"
           style="fill:#000000;fill-opacity:1;fill-rule:nonzero;stroke:none"
           id="path54" /><path
           d="m 109.43,1.14688 0,9.31332 1.218,0 0,-3.82817 4.844,0 0,3.82817 1.235,0 0,-9.31332 -1.235,0 0,4.39101 -4.844,0 0,-4.39101 -1.218,0 z"
           style="fill:#000000;fill-opacity:1;fill-rule:nonzero;stroke:none"
           id="path56" /><path
           d="m 134.07,3.62813 0,3.13984 -3.125,0 0,1.31289 3.125,0 0,3.10894 1.328,0 0,-3.10894 3.11,0 0,-1.31289 -3.11,0 0,-3.13984 -1.328,0 z"
           style="fill:#000000;fill-opacity:1;fill-rule:nonzero;stroke:none"
           id="path60" /><path
           d="m 145.555,1.15117 3.578,9.31293 1.312,0 3.813,-9.31293 -1.406,0 -1.079,2.81289 -3.89,0 -1.031,-2.81289 -1.297,0 z m 2.687,3.82774 3.156,0 -0.984,2.5789 c -0.293,0.78125 -0.512,1.4211 -0.656,1.9211 -0.117,-0.59297 -0.281,-1.18672 -0.5,-1.78086 l -1.016,-2.71914 z m 11.129,-1.35899 1.125,-0.14101 c -0.117,-0.78086 -0.43,-1.38985 -0.937,-1.82774 -0.512,-0.43711 -1.133,-0.656248 -1.86,-0.656248 -0.929,0 -1.672,0.301168 -2.234,0.906248 -0.555,0.60196 -0.828,1.46875 -0.828,2.59375 0,0.72696 0.117,1.36289 0.359,1.90625 0.238,0.55078 0.602,0.96094 1.094,1.23477 0.488,0.26914 1.023,0.40625 1.609,0.40625 0.727,0 1.328,-0.18828 1.797,-0.56328 0.469,-0.3668 0.766,-0.88594 0.891,-1.56172 l -1.11,-0.17227 c -0.105,0.44492 -0.293,0.78516 -0.562,1.01602 -0.262,0.22617 -0.586,0.34297 -0.969,0.34297 -0.574,0 -1.043,-0.21094 -1.406,-0.625 -0.356,-0.40586 -0.531,-1.05782 -0.531,-1.95274 0,-0.90625 0.171,-1.57031 0.515,-1.98398 0.344,-0.40625 0.797,-0.60938 1.36,-0.60938 0.445,0 0.82,0.13203 1.125,0.40625 0.3,0.28086 0.488,0.70703 0.562,1.28086 z m 6.621,-0.29687 1.188,-0.14024 c -0.188,-0.7 -0.539,-1.24297 -1.047,-1.625 -0.5,-0.375 -1.141,-0.562888 -1.922,-0.562888 -0.992,0 -1.777,0.301168 -2.359,0.906248 -0.575,0.61367 -0.86,1.46875 -0.86,2.56289 0,1.13282 0.289,2.01485 0.875,2.63985 0.594,0.625 1.352,0.93828 2.281,0.93828 0.907,0 1.641,-0.30938 2.204,-0.92227 0.57,-0.61679 0.859,-1.47695 0.859,-2.57773 0,-0.07422 0,-0.18008 0,-0.31328 l -5.031,0 c 0.039,-0.7418 0.25,-1.30782 0.625,-1.70274 0.375,-0.39804 0.843,-0.59336 1.406,-0.59336 0.426,0 0.785,0.10938 1.078,0.32813 0.301,0.22617 0.535,0.58203 0.703,1.06211 z m -3.75,1.84414 3.766,0 c -0.055,0.56992 -0.199,1 -0.438,1.28086 -0.367,0.43789 -0.836,0.65586 -1.406,0.65586 -0.531,0 -0.976,-0.17891 -1.328,-0.53086 -0.356,-0.34414 -0.555,-0.81211 -0.594,-1.40586 z m 8.766,-3 0.156,-1 c -0.324,-0.07031 -0.609,-0.10938 -0.859,-0.10938 -0.418,0 -0.743,0.07032 -0.969,0.20313 -0.231,0.13203 -0.391,0.3039 -0.484,0.51523 -0.094,0.21875 -0.141,0.66367 -0.141,1.34375 l 0,3.89102 -0.828,0 0,0.875 0.828,0 0,1.67187 1.141,0.68709 0,-2.35896 1.156,0 0,-0.875 -1.156,0 0,-3.95313 c 0,-0.325 0.019,-0.53164 0.062,-0.625 0.039,-0.09375 0.102,-0.16797 0.188,-0.21875 0.093,-0.05508 0.222,-0.07812 0.39,-0.07812 0.133,0 0.305,0.00703 0.516,0.03125 z m 5.437,-0.18828 c -0.418,-0.35508 -0.824,-0.60899 -1.218,-0.76485 -0.387,-0.14492 -0.805,-0.219138 -1.25,-0.219138 -0.75,0 -1.325,0.180078 -1.719,0.547268 -0.399,0.36289 -0.594,0.82773 -0.594,1.39062 0,0.32032 0.07,0.61719 0.219,0.89024 0.156,0.28086 0.351,0.5039 0.594,0.67187 0.25,0.16406 0.523,0.28906 0.828,0.375 0.218,0.05117 0.554,0.10899 1.015,0.17227 0.914,0.10078 1.594,0.23398 2.032,0.39062 0.007,0.15625 0.015,0.25313 0.015,0.2961 0,0.46914 -0.109,0.79726 -0.328,0.98515 -0.293,0.25782 -0.727,0.38985 -1.297,0.38985 -0.543,0 -0.945,-0.09297 -1.203,-0.28086 -0.25,-0.18711 -0.437,-0.52305 -0.562,-1 l -1.11,0.14101 c 0.094,0.47578 0.254,0.86289 0.485,1.15586 0.238,0.30117 0.578,0.53125 1.015,0.68789 0.445,0.15625 0.957,0.23438 1.531,0.23438 0.582,0 1.051,-0.07031 1.407,-0.20313 0.363,-0.13711 0.629,-0.30898 0.797,-0.51601 0.164,-0.19922 0.285,-0.45313 0.359,-0.76524 0.031,-0.2 0.047,-0.55468 0.047,-1.06289 l 0,-1.51601 c 0,-1.06172 0.023,-1.73399 0.078,-2.01485 0.051,-0.28125 0.144,-0.55508 0.281,-0.81289 l -1.187,0 c -0.118,0.23867 -0.196,0.51602 -0.235,0.82774 z m -0.093,2.56328 c -0.418,-0.18008 -1.04,-0.32422 -1.86,-0.43828 -0.469,-0.07383 -0.804,-0.15196 -1,-0.23399 -0.199,-0.08594 -0.351,-0.21094 -0.453,-0.375 -0.105,-0.15586 -0.156,-0.33594 -0.156,-0.53086 0,-0.30508 0.113,-0.55898 0.344,-0.76601 0.226,-0.19922 0.566,-0.29688 1.015,-0.29688 0.438,0 0.828,0.09375 1.172,0.28164 0.344,0.19532 0.598,0.46016 0.766,0.7961 0.113,0.25 0.172,0.6289 0.172,1.14101 l 0,0.42227 z m 5.328,-2.375 0.156,-1 c -0.324,-0.07031 -0.609,-0.10938 -0.859,-0.10938 -0.418,0 -0.743,0.07032 -0.969,0.20313 -0.231,0.13203 -0.391,0.3039 -0.485,0.51523 -0.093,0.21875 -0.14,0.66367 -0.14,1.34375 l 0,3.89102 -0.828,0 0,0.875 0.828,0 0,1.67187 1.14,0.68709 0,-2.35896 1.157,0 0,-0.875 -1.157,0 0,-3.95313 c 0,-0.325 0.02,-0.53164 0.063,-0.625 0.039,-0.09375 0.102,-0.16797 0.187,-0.21875 0.094,-0.05508 0.223,-0.07812 0.391,-0.07812 0.133,0 0.305,0.00703 0.516,0.03125 z m 5.66,1.15586 1.187,-0.14024 c -0.187,-0.7 -0.539,-1.24297 -1.047,-1.625 -0.5,-0.375 -1.14,-0.562888 -1.921,-0.562888 -0.993,0 -1.778,0.301168 -2.36,0.906248 -0.574,0.61367 -0.859,1.46875 -0.859,2.56289 0,1.13282 0.289,2.01485 0.875,2.63985 0.594,0.625 1.351,0.93828 2.281,0.93828 0.906,0 1.641,-0.30938 2.203,-0.92227 0.571,-0.61679 0.86,-1.47695 0.86,-2.57773 0,-0.07422 0,-0.18008 0,-0.31328 l -5.032,0 c 0.039,-0.7418 0.25,-1.30782 0.625,-1.70274 0.375,-0.39804 0.844,-0.59336 1.407,-0.59336 0.425,0 0.785,0.10938 1.078,0.32813 0.301,0.22617 0.535,0.58203 0.703,1.06211 z m -3.75,1.84414 3.765,0 c -0.054,0.56992 -0.199,1 -0.437,1.28086 -0.367,0.43789 -0.836,0.65586 -1.406,0.65586 -0.532,0 -0.977,-0.17891 -1.328,-0.53086 -0.356,-0.34414 -0.555,-0.81211 -0.594,-1.40586 z"
           style="fill:#000000;fill-opacity:1;fill-rule:nonzero;stroke:none"
           id="path62" /><path
           d="m 189.039,9.35117 3.25,0 0,1.06172 -3.25,0 0,-1.06172 z"
           style="fill:#000000;fill-opacity:1;fill-rule:nonzero;stroke:none"
           id="path64" /></g></g><path
       d="m 8.436124,18.17663 14.878254,0"
       style="fill:none;stroke:#000000;stroke-width:0.70464522;stroke-linecap:butt;stroke-linejoin:miter;stroke-miterlimit:10;stroke-dasharray:none;stroke-opacity:1"
       id="path4204" /><path
       d="m 2.0323077,23.686063 0,13.314882"
       style="fill:none;stroke:#000000;stroke-width:0.70464522;stroke-linecap:butt;stroke-linejoin:miter;stroke-miterlimit:10;stroke-dasharray:none;stroke-opacity:1"
       id="path4206" /><path
       d="m 5.555534,23.686063 0,13.314882"
       style="fill:none;stroke:#000000;stroke-width:0.70464522;stroke-linecap:butt;stroke-linejoin:miter;stroke-miterlimit:10;stroke-dasharray:none;stroke-opacity:1"
       id="path4208" /><path
       d="m -16.226459,18.17663 15.38108965,0"
       style="fill:none;stroke:#000000;stroke-width:0.70464522;stroke-linecap:butt;stroke-linejoin:miter;stroke-miterlimit:10;stroke-dasharray:none;stroke-opacity:1"
       id="path4210" /><path
       d="m 141.08221,22.276772 0,13.314882"
       style="fill:none;stroke:#000000;stroke-width:0.70464522;stroke-linecap:butt;stroke-linejoin:miter;stroke-miterlimit:10;stroke-dasharray:none;stroke-opacity:1"
       id="path4212" /><path
       d="m 144.60544,22.276772 0,13.314882"
       style="fill:none;stroke:#000000;stroke-width:0.70464522;stroke-linecap:butt;stroke-linejoin:miter;stroke-miterlimit:10;stroke-dasharray:none;stroke-opacity:1"
       id="path4214" /><path
       d="m 147.48603,16.767339 14.87835,0"
       style="fill:none;stroke:#000000;stroke-width:0.70464522;stroke-linecap:butt;stroke-linejoin:miter;stroke-miterlimit:10;stroke-dasharray:none;stroke-opacity:1"
       id="path4216" /><path
       d="m 122.82344,16.767339 15.381,0"
       style="fill:none;stroke:#000000;stroke-width:0.70464522;stroke-linecap:butt;stroke-linejoin:miter;stroke-miterlimit:10;stroke-dasharray:none;stroke-opacity:1"
       id="path4218" /><path
       d="m 87.294285,25.432643 -31.004295,0"
       style="fill:none;stroke:#000000;stroke-width:0.70464522;stroke-linecap:butt;stroke-linejoin:miter;stroke-miterlimit:10;stroke-dasharray:none;stroke-opacity:1"
       id="path4220" /><path
       d="m 56.28999,25.080321 1.409196,-2.818581 -5.637068,3.523226 4.227872,0 0,-0.704645 z"
       style="fill:#000000;fill-opacity:1;fill-rule:nonzero;stroke:none"
       id="path4222" /><path
       d="m 52.062118,28.95587 31.004296,0"
       style="fill:none;stroke:#000000;stroke-width:0.70464522;stroke-linecap:butt;stroke-linejoin:miter;stroke-miterlimit:10;stroke-dasharray:none;stroke-opacity:1"
       id="path4224" /><path
       d="m 83.066414,29.308192 -1.40929,2.818581 5.637161,-3.523226 -4.227871,0 0,0.704645 z"
       style="fill:#000000;fill-opacity:1;fill-rule:nonzero;stroke:none"
       id="path4226" /><text
       y="-13.910597"
       x="-38.066807"
       id="text4230"
       style="font-variant:normal;font-weight:normal;font-size:11.27432346px;font-family:'DejaVu Sans';-inkscape-font-specification:DejaVuSans;writing-mode:lr-tb;fill:#000000;fill-opacity:1;fill-rule:nonzero;stroke:none"
       transform="scale(1,-1)"><tspan
         id="tspan4232"
         y="-13.910597"
         x="-38.066807">H</tspan></text>
<text
       y="-11.092016"
       x="-29.589029"
       id="text4234"
       style="font-variant:normal;font-weight:normal;font-size:7.5162158px;font-family:'DejaVu Sans';-inkscape-font-specification:DejaVuSans;writing-mode:lr-tb;fill:#000000;fill-opacity:1;fill-rule:nonzero;stroke:none"
       transform="scale(1,-1)"><tspan
         id="tspan4236"
         y="-11.092016"
         x="-29.589029">3</tspan></text>
<text
       y="-13.910597"
       x="-24.804413"
       id="text4238"
       style="font-variant:normal;font-weight:normal;font-size:11.27432346px;font-family:'DejaVu Sans';-inkscape-font-specification:DejaVuSans;writing-mode:lr-tb;fill:#000000;fill-opacity:1;fill-rule:nonzero;stroke:none"
       transform="scale(1,-1)"><tspan
         id="tspan4240"
         y="-13.910597"
         x="-24.804413">C</tspan><tspan
         id="tspan4242"
         y="-38.573177"
         x="-0.64278805">O</tspan><tspan
         id="tspan4244"
         y="-13.910597"
         x="32.893902 24.019787">HO</tspan><tspan
         id="tspan4246"
         y="-12.501303"
         x="100.98319">H</tspan></text>
<text
       y="-9.6827221"
       x="109.46096"
       id="text4248"
       style="font-variant:normal;font-weight:normal;font-size:7.5162158px;font-family:'DejaVu Sans';-inkscape-font-specification:DejaVuSans;writing-mode:lr-tb;fill:#000000;fill-opacity:1;fill-rule:nonzero;stroke:none"
       transform="scale(1,-1)"><tspan
         id="tspan4250"
         y="-9.6827221"
         x="109.46096">3</tspan></text>
<text
       y="-12.501303"
       x="114.24557"
       id="text4252"
       style="font-variant:normal;font-weight:normal;font-size:11.27432346px;font-family:'DejaVu Sans';-inkscape-font-specification:DejaVuSans;writing-mode:lr-tb;fill:#000000;fill-opacity:1;fill-rule:nonzero;stroke:none"
       transform="scale(1,-1)"><tspan
         id="tspan4254"
         y="-12.501303"
         x="114.24557 138.90549">CC</tspan><tspan
         id="tspan4256"
         y="-37.163883"
         x="138.40724">O</tspan></text>
<text
       y="-12.501303"
       x="163.06982"
       id="text4262"
       style="font-variant:normal;font-weight:normal;font-size:11.27432346px;font-family:'DejaVu Sans';-inkscape-font-specification:DejaVuSans;writing-mode:lr-tb;fill:#000000;fill-opacity:1;fill-rule:nonzero;stroke:none"
       transform="scale(1,-1)"><tspan
         id="tspan4264"
         y="-12.501303"
         x="163.06982">O</tspan></text>
<text
       y="-15.176764"
       x="206.36877"
       id="text4270"
       style="font-variant:normal;font-weight:normal;font-size:11.27432346px;font-family:'DejaVu Sans';-inkscape-font-specification:DejaVuSans;writing-mode:lr-tb;fill:#000000;fill-opacity:1;fill-rule:nonzero;stroke:none"
       transform="scale(1,-1)"><tspan
         id="tspan4272"
         y="-15.176764"
         x="206.36877">H</tspan><tspan
         id="tspan4274"
         y="-13.910597"
         x="-0.14209664">C</tspan></text>
<path
       id="path5117"
       style="fill:#000000;fill-opacity:1;fill-rule:nonzero;stroke:none"
       d="m 171.7914,21.470534 3.05346,0 0,0.998614 -3.05346,0 0,-0.998614 z" /><path
       id="path5119"
       style="fill:#000000;fill-opacity:1;fill-rule:nonzero;stroke:none"
       d="m 216.72052,19.141447 0,2.040558 -2.01059,0 0,0.837119 2.01059,0 0,2.025902 0.86624,0 0,-2.025902 2.01153,0 0,-0.837119 -2.01153,0 0,-2.040558 -0.86624,0 z" /></g></svg>