<?xml version="1.0" encoding="UTF-8" standalone="no"?>
<svg
   xmlns:dc="http://purl.org/dc/elements/1.1/"
   xmlns:cc="http://creativecommons.org/ns#"
   xmlns:rdf="http://www.w3.org/1999/02/22-rdf-syntax-ns#"
   xmlns:svg="http://www.w3.org/2000/svg"
   xmlns="http://www.w3.org/2000/svg"
   xmlns:xlink="http://www.w3.org/1999/xlink"
   xmlns:sodipodi="http://sodipodi.sourceforge.net/DTD/sodipodi-0.dtd"
   xmlns:inkscape="http://www.inkscape.org/namespaces/inkscape"
   viewBox="0 0  175  161"
   id="svg5968"
   version="1.1"
   inkscape:version="0.48.4 r9939"
   width="100%"
   height="100%"
   sodipodi:docname="carbonyl.svg">
  <metadata
     id="metadata6009">
    <rdf:RDF>
      <cc:Work
         rdf:about="">
        <dc:format>image/svg+xml</dc:format>
        <dc:type
           rdf:resource="http://purl.org/dc/dcmitype/StillImage" />
      </cc:Work>
    </rdf:RDF>
  </metadata>
  <defs
     id="defs6007">
    <defs
       id="defs5972">
      <path
         d="M535 482c-8 37 -31 131 -156 131c-118 0 -189 -96 -189 -257c0 -159 68 -253 184 -253c93 0 152 53 161 146h146c-9 -167 -130 -272 -311 -272c-203 0 -330 147 -330 381c0 236 128 383 334 383c170 0 291 -95 304 -259h-143z"
         transform="scale(0.030,-0.030)"
         id="Atom-C" />
      <path
         d="M519 331h-289v-331h-150v729h150v-273h288v273h151v-729h-150v331z"
         transform="scale(0.030,-0.030)"
         id="Atom-H" />
      <path
         d="M38 498c0 192 139 226 230 226c137 0 225 -75 225 -193c0 -65 -27 -110 -93 -151c80 -39 116 -93 116 -176c0 -138 -97 -227 -248 -227c-145 0 -238 89 -239 231h136c4 -73 40 -111 106 -111c61 0 105 45 105 107c0 52 -30 93 -77 106c-24 6 -33 7 -82 7v94h12c83 0 124 36 124 107c0 59 -32 93 -88 93c-79 0 -95 -49 -97 -125h-130v12z"
         transform="scale(0.0210,-0.0210)"
         id="Atom-3" />
      <path
         d="M40 359c0 222 138 382 350 382c211 0 352 -155 352 -387c0 -209 -132 -377 -351 -377c-214 0 -351 160 -351 382zM391 613c-121 0 -201 -101 -201 -254s80 -254 201 -254c120 0 201 101 201 250c0 158 -78 258 -201 258z"
         transform="scale(0.030,-0.030)"
         id="Atom-O" />
      <path
         d="M493 125c0 54 2 46 2 77c0 61 -28 87 -93 87h-172v-289h-150v729h391c157 0 196 -116 196 -197c0 -89 -41 -148 -123 -180c93 -40 97 -50 101 -265c0 -32 9 -47 32 -60v-27h-161c-19 35 -23 57 -23 125zM517 511c0 81 -43 93 -106 93h-181v-190h181c62 0 106 12 106 97z"
         transform="scale(0.030,-0.030)"
         id="Atom-R" />
      <path
         d="M238 489h-170v93c122 0 195 43 217 127h93v-709h-140v489z"
         transform="scale(0.030,-0.030)"
         id="Atom-1" />
    </defs>
    <defs
       id="defs5980">
      <g
         id="Atom-R1">
        <use
           id="use5983"
           xlink:href="#Atom-R" />
        <use
           id="use5985"
           transform="translate(21.66,0)"
           xlink:href="#Atom-1" />
      </g>
    </defs>
  </defs>
  <sodipodi:namedview
     pagecolor="#ffffff"
     bordercolor="#666666"
     borderopacity="1"
     objecttolerance="10"
     gridtolerance="10"
     guidetolerance="10"
     inkscape:pageopacity="0"
     inkscape:pageshadow="2"
     inkscape:window-width="1920"
     inkscape:window-height="1030"
     id="namedview6005"
     showgrid="false"
     inkscape:zoom="2.931677"
     inkscape:cx="75.179737"
     inkscape:cy="-1.2605144"
     inkscape:window-x="0"
     inkscape:window-y="0"
     inkscape:window-maximized="1"
     inkscape:current-layer="svg5968" />
  <g
     id="g7033">
    <use
       transform="translate(136,-60)"
       xlink:href="#Atom-O"
       x="-64.129997"
       y="119.36"
       id="use5993"
       width="175"
       height="161" />
    <use
       transform="translate(142,-52)"
       xlink:href="#Atom-R1"
       x="-36.25"
       y="169.74001"
       id="use5995"
       width="175"
       height="161" />
    <line
       x1="75"
       y1="89"
       x2="57"
       y2="97"
       style="stroke:#000000;stroke-width:3px"
       id="line5997" />
    <line
       x1="80.949265"
       y1="62.949268"
       x2="80.949265"
       y2="77.515778"
       style="stroke:#000000;stroke-width:2.89853477px"
       id="line5999" />
    <line
       x1="85.050735"
       y1="62.949268"
       x2="85.050735"
       y2="77.515778"
       style="stroke:#000000;stroke-width:2.89853477px"
       id="line6001" />
    <line
       x1="106"
       y1="99"
       x2="89"
       y2="89"
       style="stroke:#000000;stroke-width:3px"
       id="line6003" />
    <g
       transform="translate(29.854455,-58.414191)"
       id="g5848">
      <path
         sodipodi:type="arc"
         style="fill:#ffffff;fill-opacity:1;stroke:none"
         id="path5078"
         sodipodi:cx="12.360916"
         sodipodi:cy="143.55281"
         sodipodi:rx="5.2975354"
         sodipodi:ry="4.9859157"
         d="m 17.658452,143.55281 c 0,2.75365 -2.371788,4.98592 -5.297536,4.98592 -2.9257479,0 -5.2975353,-2.23227 -5.2975353,-4.98592 0,-2.75364 2.3717874,-4.98591 5.2975353,-4.98591 2.925748,0 5.297536,2.23227 5.297536,4.98591 z"
         transform="matrix(2.2652043,0,0,2.4067796,24.692155,-195.49998)" />
      <use
         transform="translate(217.96487,-214.69703)"
         xlink:href="#Atom-C"
         x="-176.22"
         y="375.45999"
         id="use4760"
         width="639"
         height="391" />
    </g>
    <use
       transform="translate(22.159238,30.850001)"
       xlink:href="#Atom-R"
       x="14.24"
       y="86.889999"
       id="use3108"
       width="339"
       height="177" />
  </g>
</svg>
