<?xml version="1.0"?>
<!DOCTYPE svg PUBLIC "-//W3C//DTD SVG 1.1//EN"
"http://www.w3.org/Graphics/SVG/1.1/DTD/svg11.dtd">
<svg xmlns="http://www.w3.org/2000/svg" xmlns:xlink="http://www.w3.org/1999/xlink" viewBox="0 0  382  276">
<g transform="translate( 286, 126)">
<defs>
  <path id="Atom-O" transform="scale(0.030,-0.030)" d="M40 359c0 222 138 382 350 382c211 0 352 -155 352 -387c0 -209 -132 -377 -351 -377c-214 0 -351 160 -351 382zM391 613c-121 0 -201 -101 -201 -254s80 -254 201 -254c120 0 201 101 201 250c0 158 -78 258 -201 258z" />  <path id="Atom-H" transform="scale(0.030,-0.030)" d="M519 331h-289v-331h-150v729h150v-273h288v273h151v-729h-150v331z" />
</defs>
<use xlink:href="#Atom-O" x="-23.31" y="-14.91"/>
<use xlink:href="#Atom-O" x="-93.10" y="-59.54"/><use xlink:href="#Atom-H" x="-115.57" y="-59.54"/>
<use xlink:href="#Atom-O" x="-66.89" y="21.36"/><use xlink:href="#Atom-H" x="-44.63" y="21.36"/>
<use xlink:href="#Atom-O" x="-21.90" y="105.49"/><use xlink:href="#Atom-H" x="0.36" y="105.49"/>
<use xlink:href="#Atom-O" x="29.93" y="53.68"/><use xlink:href="#Atom-H" x="52.19" y="53.68"/>
<use xlink:href="#Atom-O" x="-176.34" y="-14.91"/>
<use xlink:href="#Atom-O" x="-246.13" y="-59.54"/><use xlink:href="#Atom-H" x="-268.60" y="-59.54"/>
<use xlink:href="#Atom-O" x="-243.12" y="67.75"/><use xlink:href="#Atom-H" x="-220.86" y="67.75"/>
<use xlink:href="#Atom-O" x="-219.92" y="21.36"/><use xlink:href="#Atom-H" x="-197.66" y="21.36"/>
<use xlink:href="#Atom-O" x="-174.93" y="105.49"/><use xlink:href="#Atom-H" x="-152.67" y="105.49"/>
<use xlink:href="#Atom-O" x="-123.10" y="53.68"/>
<line x1="-23.00" y1="-26.00" x2="-57.17" y2="-25.56" style="stroke:black; stroke-width:3px;" />
<line x1="11.02" y1="12.19" x2="-2.00" y2="-10.00" style="stroke:black; stroke-width:3px;" />
<line x1="-10.77" y1="51.56" x2="11.02" y2="12.19" style="stroke:black; stroke-width:3px;" />
<line x1="-55.76" y1="52.37" x2="-10.77" y2="51.56" style="stroke:black; stroke-width:3px;" />
<line x1="-78.97" y1="13.81" x2="-55.76" y2="52.37" style="stroke:black; stroke-width:3px;" />
<line x1="-57.17" y1="-25.56" x2="-78.97" y2="13.81" style="stroke:black; stroke-width:3px;" />
<line x1="-57.17" y1="-70.56" x2="-57.17" y2="-25.56" style="stroke:black; stroke-width:3px;" />
<line x1="-66.00" y1="-70.00" x2="-57.17" y2="-70.56" style="stroke:black; stroke-width:3px;" />
<line x1="-55.00" y1="25.00" x2="-55.76" y2="52.37" style="stroke:black; stroke-width:3px;" />
<line x1="-10.00" y1="78.00" x2="-10.77" y2="51.56" style="stroke:black; stroke-width:3px;" />
<line x1="29.00" y1="31.00" x2="11.02" y2="12.19" style="stroke:black; stroke-width:3px;" />
<line x1="-176.00" y1="-26.00" x2="-210.20" y2="-25.56" style="stroke:black; stroke-width:3px;" />
<line x1="-142.01" y1="12.19" x2="-155.00" y2="-10.00" style="stroke:black; stroke-width:3px;" />
<line x1="-163.80" y1="51.56" x2="-142.01" y2="12.19" style="stroke:black; stroke-width:3px;" />
<line x1="-208.79" y1="52.37" x2="-163.80" y2="51.56" style="stroke:black; stroke-width:3px;" />
<line x1="-231.99" y1="13.81" x2="-208.79" y2="52.37" style="stroke:black; stroke-width:3px;" />
<line x1="-210.20" y1="-25.56" x2="-231.99" y2="13.81" style="stroke:black; stroke-width:3px;" />
<line x1="-210.20" y1="-70.56" x2="-210.20" y2="-25.56" style="stroke:black; stroke-width:3px;" />
<line x1="-219.00" y1="-70.00" x2="-210.20" y2="-70.56" style="stroke:black; stroke-width:3px;" />
<line x1="-231.00" y1="40.00" x2="-231.99" y2="13.81" style="stroke:black; stroke-width:3px;" />
<line x1="-208.00" y1="25.00" x2="-208.79" y2="52.37" style="stroke:black; stroke-width:3px;" />
<line x1="-163.00" y1="78.00" x2="-163.80" y2="51.56" style="stroke:black; stroke-width:3px;" />
<line x1="-123.00" y1="31.00" x2="-142.01" y2="12.19" style="stroke:black; stroke-width:3px;" />
<line x1="-96.00" y1="29.00" x2="-78.97" y2="13.81" style="stroke:black; stroke-width:3px;" />
</g>
</svg>
